<svg width="122" height="78" viewBox="0 0 122 78" fill="none" xmlns="http://www.w3.org/2000/svg">
    <rect x="0.043457" y="0.0449219" width="121.739" height="77.913" rx="8.51064" fill="white"/>
    <path d="M48.3699 63.3843C47.5362 66.0905 47.4221 70.2402 53.635 65.1884C61.401 58.8738 53.5033 60.678 55.4778 64.8018C55.9421 65.7716 57.4258 66.0647 62.0591 63.3843C67.8507 60.0337 62.1908 59.0671 62.7173 63.642C63.0244 64.2864 64.6654 64.9823 68.7721 62.6111C73.9056 59.6471 69.9568 58.4872 68.2456 61.709C66.5345 64.9308 75.3535 62.1601 73.6424 61.5157C71.9312 60.8714 71.0098 63.3843 71.2731 63.9643C71.5363 64.5442 73.4054 64.7246 72.4577 65.4463" stroke="#A3A7AE" stroke-width="1.06383"/>
    <rect x="10.4043" y="26.0156" width="1.94265" height="25.971" fill="#EDF0F4"/>
    <rect x="13.6416" y="26.0156" width="1.94265" height="25.971" fill="#EDF0F4"/>
    <rect x="41.4863" y="26.0156" width="1.94265" height="25.971" fill="#EDF0F4"/>
    <rect x="79.0444" y="26.0156" width="1.94265" height="25.971" fill="#EDF0F4"/>
    <rect x="67.3887" y="26.0156" width="1.94265" height="25.971" fill="#EDF0F4"/>
    <rect x="75.8066" y="26.0156" width="1.94265" height="25.971" fill="#EDF0F4"/>
    <rect x="50.5522" y="26.0156" width="1.94265" height="25.971" fill="#EDF0F4"/>
    <rect x="88.1099" y="26.0156" width="1.94265" height="25.971" fill="#EDF0F4"/>
    <rect x="16.8799" y="26.0156" width="1.2951" height="25.971" fill="#EDF0F4"/>
    <rect x="44.7246" y="26.0156" width="1.2951" height="25.971" fill="#EDF0F4"/>
    <rect x="82.2822" y="26.0156" width="1.2951" height="25.971" fill="#EDF0F4"/>
    <rect x="53.79" y="26.0156" width="1.2951" height="25.971" fill="#EDF0F4"/>
    <rect x="91.3477" y="26.0156" width="1.2951" height="25.971" fill="#EDF0F4"/>
    <rect x="110.127" y="26.0156" width="1.2951" height="25.971" fill="#EDF0F4"/>
    <rect x="56.3799" y="26.0156" width="1.2951" height="25.971" fill="#EDF0F4"/>
    <rect x="93.938" y="26.0156" width="1.2951" height="25.971" fill="#EDF0F4"/>
    <rect x="30.4785" y="26.0156" width="1.2951" height="25.971" fill="#EDF0F4"/>
    <rect x="99.1182" y="26.0156" width="1.2951" height="25.971" fill="#EDF0F4"/>
    <rect x="19.4697" y="26.0156" width="1.94265" height="25.971" fill="#EDF0F4"/>
    <rect x="47.3145" y="26.0156" width="1.94265" height="25.971" fill="#EDF0F4"/>
    <rect x="84.8721" y="26.0156" width="1.94265" height="25.971" fill="#EDF0F4"/>
    <rect x="58.9707" y="26.0156" width="1.94265" height="25.971" fill="#EDF0F4"/>
    <rect x="33.0684" y="26.0156" width="1.94265" height="25.971" fill="#EDF0F4"/>
    <rect x="101.709" y="26.0156" width="1.94265" height="25.971" fill="#EDF0F4"/>
    <rect x="27.8877" y="26.0156" width="1.2951" height="25.971" fill="#EDF0F4"/>
    <rect x="96.5283" y="26.0156" width="1.2951" height="25.971" fill="#EDF0F4"/>
    <rect x="22.7075" y="26.0156" width="3.88529" height="25.971" fill="#EDF0F4"/>
    <rect x="36.3062" y="26.0156" width="3.88529" height="25.971" fill="#EDF0F4"/>
    <rect x="104.946" y="26.0156" width="3.88529" height="25.971" fill="#EDF0F4"/>
    <rect x="62.208" y="26.0156" width="3.88529" height="25.971" fill="#EDF0F4"/>
    <rect x="70.626" y="26.0156" width="3.88529" height="25.971" fill="#EDF0F4"/>
    <path d="M0.043457 8.55556C0.043457 3.85527 3.8538 0.0449219 8.5541 0.0449219H113.272C117.972 0.0449219 121.783 3.85527 121.783 8.55556V13.0304H0.043457V8.55556Z" fill="#3B78A4"/>
    <path d="M51.6413 4.94141H50.0682V0.29924H51.673C52.1339 0.29924 52.5298 0.392174 52.8607 0.578042C53.1932 0.762398 53.4486 1.0276 53.6269 1.37365C53.8052 1.71969 53.8943 2.13374 53.8943 2.61579C53.8943 3.09935 53.8044 3.51491 53.6246 3.86247C53.4463 4.21002 53.1886 4.47674 52.8517 4.6626C52.5162 4.84847 52.1127 4.94141 51.6413 4.94141ZM50.9091 4.2138H51.6005C51.9238 4.2138 52.1936 4.15487 52.4097 4.037C52.6258 3.91762 52.7882 3.74006 52.897 3.50433C53.0058 3.26708 53.0602 2.9709 53.0602 2.61579C53.0602 2.26068 53.0058 1.96601 52.897 1.73178C52.7882 1.49605 52.6273 1.32 52.4142 1.20365C52.2026 1.08578 51.9397 1.02684 51.6254 1.02684H50.9091V4.2138ZM54.6933 4.94141V0.29924H56.4342C56.7908 0.29924 57.09 0.361196 57.3318 0.485108C57.5751 0.60902 57.7587 0.782799 57.8826 1.00644C58.008 1.22858 58.0707 1.48774 58.0707 1.78392C58.0707 2.08161 58.0072 2.34001 57.8803 2.55912C57.7549 2.77672 57.5698 2.94521 57.325 3.06459C57.0802 3.18246 56.7794 3.24139 56.4228 3.24139H55.1829V2.54326H56.3095C56.518 2.54326 56.6888 2.51454 56.8218 2.45712C56.9547 2.39819 57.053 2.31281 57.1164 2.20099C57.1814 2.08765 57.2139 1.94863 57.2139 1.78392C57.2139 1.6192 57.1814 1.47867 57.1164 1.36231C57.0514 1.24445 56.9525 1.15529 56.8195 1.09485C56.6865 1.03289 56.515 1.00191 56.305 1.00191H55.5343V4.94141H54.6933ZM57.0915 2.83792L58.2407 4.94141H57.3023L56.1735 2.83792H57.0915ZM59.6857 0.29924V4.94141H58.8448V0.29924H59.6857ZM61.2174 0.29924L62.4256 3.95313H62.4732L63.679 0.29924H64.6038L62.9673 4.94141H61.9292L60.2949 0.29924H61.2174ZM65.2153 4.94141V0.29924H68.2345V1.00418H66.0562V2.26445H68.0781V2.96939H66.0562V4.23647H68.2526V4.94141H65.2153ZM69.0924 4.94141V0.29924H70.8333C71.1899 0.29924 71.4891 0.361196 71.7309 0.485108C71.9742 0.60902 72.1578 0.782799 72.2817 1.00644C72.4071 1.22858 72.4698 1.48774 72.4698 1.78392C72.4698 2.08161 72.4063 2.34001 72.2794 2.55912C72.154 2.77672 71.9689 2.94521 71.7241 3.06459C71.4793 3.18246 71.1785 3.24139 70.8219 3.24139H69.582V2.54326H70.7086C70.9171 2.54326 71.0879 2.51454 71.2209 2.45712C71.3538 2.39819 71.4521 2.31281 71.5155 2.20099C71.5805 2.08765 71.613 1.94863 71.613 1.78392C71.613 1.6192 71.5805 1.47867 71.5155 1.36231C71.4506 1.24445 71.3516 1.15529 71.2186 1.09485C71.0856 1.03289 70.9141 1.00191 70.7041 1.00191H69.9334V4.94141H69.0924ZM71.4906 2.83792L72.6398 4.94141H71.7014L70.5726 2.83792H71.4906ZM48.2854 12.9414V8.29924H49.1264V12.2365H51.1709V12.9414H48.2854ZM52.7417 8.29924V12.9414H51.9008V8.29924H52.7417ZM57.6259 9.86552H56.7781C56.7539 9.72649 56.7094 9.60334 56.6444 9.49605C56.5794 9.38725 56.4986 9.29507 56.4019 9.21951C56.3051 9.14396 56.1948 9.08729 56.0709 9.04951C55.9485 9.01022 55.8163 8.99058 55.6742 8.99058C55.4219 8.99058 55.1982 9.05405 55.0033 9.18098C54.8084 9.3064 54.6558 9.49076 54.5454 9.73405C54.4351 9.97583 54.38 10.2713 54.38 10.6203C54.38 10.9754 54.4351 11.2746 54.5454 11.5179C54.6573 11.7597 54.8099 11.9426 55.0033 12.0665C55.1982 12.1889 55.4211 12.2501 55.672 12.2501C55.811 12.2501 55.941 12.2319 56.0619 12.1957C56.1843 12.1579 56.2938 12.1027 56.3905 12.0302C56.4887 11.9577 56.5711 11.8685 56.6376 11.7627C56.7056 11.657 56.7524 11.5361 56.7781 11.4001L57.6259 11.4046C57.5941 11.6252 57.5254 11.8322 57.4196 12.0257C57.3153 12.2191 57.1786 12.3898 57.0093 12.5379C56.8401 12.6845 56.6421 12.7994 56.4155 12.8825C56.1888 12.9641 55.9372 13.0049 55.6606 13.0049C55.2526 13.0049 54.8885 12.9104 54.5681 12.7215C54.2478 12.5326 53.9954 12.2599 53.811 11.9033C53.6267 11.5466 53.5345 11.119 53.5345 10.6203C53.5345 10.1201 53.6274 9.69249 53.8133 9.33738C53.9992 8.98076 54.2523 8.708 54.5726 8.51911C54.893 8.33022 55.2557 8.23577 55.6606 8.23577C55.9191 8.23577 56.1593 8.27204 56.3815 8.34457C56.6036 8.41711 56.8015 8.52364 56.9753 8.66418C57.1491 8.8032 57.2919 8.97396 57.4037 9.17645C57.5171 9.37743 57.5911 9.60712 57.6259 9.86552ZM58.396 12.9414V8.29924H61.4152V9.00418H59.2369V10.2645H61.2588V10.9694H59.2369V12.2365H61.4333V12.9414H58.396ZM66.088 8.29924V12.9414H65.34L63.1526 9.77938H63.1141V12.9414H62.2731V8.29924H63.0257L65.2108 11.4635H65.2516V8.29924H66.088ZM69.5271 9.57538C69.5059 9.37743 69.4168 9.22329 69.2596 9.11298C69.104 9.00267 68.9015 8.94751 68.6521 8.94751C68.4769 8.94751 68.3265 8.97396 68.2011 9.02684C68.0756 9.07973 67.9797 9.15151 67.9132 9.24218C67.8467 9.33285 67.8127 9.43636 67.8112 9.55272C67.8112 9.64943 67.8331 9.73329 67.8769 9.80432C67.9223 9.87534 67.9835 9.93578 68.0605 9.98565C68.1376 10.034 68.223 10.0748 68.3167 10.1081C68.4104 10.1413 68.5048 10.1693 68.6 10.1919L69.0352 10.3007C69.2105 10.3415 69.379 10.3967 69.5407 10.4662C69.7039 10.5357 69.8497 10.6233 69.9782 10.7291C70.1081 10.8349 70.2109 10.9626 70.2864 11.1122C70.362 11.2618 70.3998 11.4371 70.3998 11.6381C70.3998 11.9101 70.3302 12.1496 70.1912 12.3566C70.0522 12.5621 69.8512 12.723 69.5883 12.8394C69.3269 12.9543 69.0103 13.0117 68.6385 13.0117C68.2774 13.0117 67.9638 12.9558 67.6979 12.8439C67.4334 12.7321 67.2264 12.5689 67.0768 12.3543C66.9287 12.1398 66.8486 11.8783 66.8365 11.5701H67.6639C67.676 11.7318 67.7258 11.8662 67.8135 11.9735C67.9011 12.0808 68.0152 12.1609 68.1557 12.2138C68.2978 12.2667 68.4565 12.2931 68.6317 12.2931C68.8146 12.2931 68.9748 12.2659 69.1123 12.2115C69.2513 12.1556 69.3601 12.0786 69.4387 11.9803C69.5173 11.8806 69.5573 11.7642 69.5588 11.6313C69.5573 11.5104 69.5218 11.4106 69.4523 11.3321C69.3828 11.252 69.2853 11.1855 69.1599 11.1326C69.036 11.0782 68.8909 11.0298 68.7247 10.9875L68.1965 10.8515C67.8142 10.7533 67.512 10.6045 67.2899 10.405C67.0692 10.204 66.9589 9.9373 66.9589 9.60485C66.9589 9.33134 67.033 9.09182 67.1811 8.88631C67.3307 8.6808 67.5339 8.52137 67.7908 8.40804C68.0477 8.2932 68.3386 8.23577 68.6635 8.23577C68.9929 8.23577 69.2815 8.2932 69.5293 8.40804C69.7787 8.52137 69.9744 8.67929 70.1164 8.88178C70.2585 9.08276 70.3318 9.31396 70.3363 9.57538H69.5271ZM71.1495 12.9414V8.29924H74.1687V9.00418H71.9904V10.2645H74.0123V10.9694H71.9904V12.2365H74.1868V12.9414H71.1495Z" fill="white"/>
</svg>
