<svg width="132" height="97" viewBox="0 0 132 97" fill="none" xmlns="http://www.w3.org/2000/svg">
    <path fill-rule="evenodd" clip-rule="evenodd" d="M81.8406 79.0773C79.0808 75.27 75.012 72.5027 70.3385 71.2542L59.484 68.3544V60.9143C64.0727 57.6271 67.0861 52.4543 67.2713 46.6029C67.9126 46.8725 68.6205 47.0253 69.3669 47.0253C72.2394 47.0253 74.5683 44.8046 74.5683 42.065C74.5683 39.3255 72.2394 37.1048 69.3669 37.1048C68.6265 37.1048 67.9238 37.2543 67.2864 37.5202V36.1127C67.2864 25.8395 58.5535 17.5117 47.7811 17.5117H47.7808C37.0085 17.5117 28.2759 25.8395 28.2759 36.1127V37.5202C27.6382 37.2543 26.9355 37.1048 26.1953 37.1048C23.3226 37.1048 20.9939 39.3255 20.9939 42.065C20.9939 44.8046 23.3226 47.0253 26.1953 47.0253C26.9414 47.0253 27.6494 46.8727 28.2909 46.6029C28.4759 52.4543 31.4893 57.6271 36.0777 60.9143V68.3544L25.2234 71.2542C20.55 72.5027 16.4812 75.27 13.7213 79.0773L6.16992 89.495V96.8759H89.3923V89.495L81.8406 79.0773Z" fill="#FFBE9D"/>
    <path fill-rule="evenodd" clip-rule="evenodd" d="M47.7804 64.634C45.3753 64.634 43.0732 64.2164 40.9458 63.4572C43.9715 65.3004 47.5646 66.3701 51.4214 66.3701C54.2978 66.3701 57.0257 65.7716 59.4836 64.7059V60.9141C56.2236 63.2494 52.1717 64.634 47.7804 64.634Z" fill="#EB996E"/>
    <path d="M28.9545 42.7897C29.0208 42.5593 29.0564 42.3165 29.0564 42.066C29.0564 40.5594 27.7756 39.3379 26.1957 39.3379C25.8006 39.3379 25.4243 39.4143 25.082 39.5522" stroke="#263238" stroke-width="1.0641" stroke-linecap="round" stroke-linejoin="round"/>
    <path d="M66.608 42.7897C66.5417 42.5593 66.5063 42.3165 66.5063 42.066C66.5063 40.5594 67.7872 39.3379 69.3671 39.3379C69.7619 39.3379 70.1382 39.4143 70.4807 39.5522" stroke="#263238" stroke-width="1.0641" stroke-linecap="round" stroke-linejoin="round"/>
    <path fill-rule="evenodd" clip-rule="evenodd" d="M52.9824 53.2285C52.9824 55.9681 50.6537 58.1888 47.781 58.1888C44.9083 58.1888 42.5796 55.9681 42.5796 53.2285H52.9824Z" fill="white"/>
    <path fill-rule="evenodd" clip-rule="evenodd" d="M58.4443 42.8083C58.4443 43.904 57.5127 44.7924 56.3638 44.7924C55.2148 44.7924 54.2832 43.904 54.2832 42.8083C54.2832 41.7126 55.2148 40.8242 56.3638 40.8242C57.5127 40.8242 58.4443 41.7126 58.4443 42.8083Z" fill="#263238"/>
    <path fill-rule="evenodd" clip-rule="evenodd" d="M41.2798 42.8083C41.2798 43.904 40.3482 44.7924 39.1992 44.7924C38.0502 44.7924 37.1187 43.904 37.1187 42.8083C37.1187 41.7126 38.0502 40.8242 39.1992 40.8242C40.3482 40.8242 41.2798 41.7126 41.2798 42.8083Z" fill="#263238"/>
    <path d="M47.781 40.8242L50.3817 49.2567L46.7407 49.7527" stroke="#263238" stroke-width="1.0641" stroke-linecap="round" stroke-linejoin="round"/>
    <path fill-rule="evenodd" clip-rule="evenodd" d="M68.5871 37.1659V36.1121C68.5871 32.8894 67.7804 29.8468 66.3505 27.1564C66.9958 26.5108 67.6012 25.8208 68.1585 25.085L68.991 23.9855C70.1226 22.4917 69.2108 20.3846 67.3039 20.0863L50.6392 17.4786C38.2898 15.5464 27.0693 24.6343 27.0693 36.5685V37.1796C28.4797 37.4078 29.6971 38.1729 30.4778 39.2515L32.8309 30.3376L47.4362 32.9648C52.8396 33.9366 58.3118 32.817 62.7447 30.0306L65.1555 39.1624C65.9555 38.1081 67.1776 37.3686 68.5871 37.1659Z" fill="#263238"/>
    <path fill-rule="evenodd" clip-rule="evenodd" d="M89.3923 89.4961L81.8406 79.0783C79.081 75.2713 75.0122 72.5037 70.3385 71.2552L59.4842 68.3555C59.4842 74.5193 54.2446 79.5161 47.7811 79.5161C41.3176 79.5161 36.078 74.5193 36.078 68.3555L25.2234 71.2552C20.55 72.5037 16.4812 75.2713 13.7213 79.0783L6.16992 89.4961V96.877H89.3923V89.4961Z" fill="#5CB97F"/>
    <circle cx="95.1373" cy="54.9176" r="1.0641" fill="white"/>
    <circle cx="52.5734" cy="53.8512" r="1.0641" fill="white"/>
    <circle cx="31.2912" cy="53.8512" r="1.0641" fill="white"/>
    <circle cx="35.5475" cy="70.8786" r="1.0641" fill="white"/>
    <circle cx="52.5734" cy="85.775" r="1.0641" fill="white"/>
    <circle cx="68.5348" cy="48.5309" r="1.0641" fill="white"/>
    <circle cx="95.1373" cy="22.9918" r="1.0641" fill="white"/>
    <circle cx="79.1759" cy="37.8903" r="1.0641" fill="white"/>
    <circle cx="52.5734" cy="43.2106" r="1.0641" fill="white"/>
    <circle cx="28.0993" cy="37.8903" r="1.0641" fill="white"/>
    <circle cx="32.3556" cy="21.9293" r="1.0641" fill="white"/>
    <circle cx="47.2526" cy="10.2243" r="1.0641" fill="white"/>
    <circle cx="51.5094" cy="22.9918" r="1.0641" fill="white"/>
    <circle cx="51.5094" cy="28.3141" r="1.0641" fill="white"/>
    <circle cx="46.1886" cy="26.1852" r="1.0641" fill="white"/>
    <circle cx="83.4323" cy="10.2243" r="1.0641" fill="white"/>
    <circle cx="81.3038" cy="22.9918" r="1.0641" fill="white"/>
    <path d="M74.0417 105.284L91.2351 120.602M74.0417 105.284L69.9619 88.4084M74.0417 105.284H117.754M91.2351 120.602L117.754 105.284M91.2351 120.602H114.84M117.754 105.284L114.84 120.602M117.754 105.284L91.2351 88.4084M114.84 120.602L129.993 105.284M129.993 105.284L69.9619 88.4084M129.993 105.284L134.095 89.4469M69.9619 88.4084L66.7563 72.8308M69.9619 88.4084H91.2351M91.2351 88.4084L136.987 72.8308M91.2351 88.4084L90.0695 57.7725M91.2351 88.4084L134.095 89.4469M136.987 72.8308L134.364 88.4084L134.095 89.4469M136.987 72.8308L134.095 57.7725M134.095 89.4469L66.7563 72.8308M66.7563 72.8308L90.0695 57.7725M66.7563 72.8308L69.9619 56.2147M90.0695 57.7725H134.095M69.9619 56.2147L117.754 72.8308M69.9619 56.2147L85.1154 45.0508H122.125M69.9619 56.2147L122.125 45.0508M117.754 72.8308L134.095 57.7725M117.754 72.8308L122.125 45.0508M134.095 57.7725L122.125 45.0508" stroke="white" stroke-opacity="0.4" stroke-width="0.532051"/>
</svg>
