<svg width="122" height="78" viewBox="0 0 122 78" fill="none" xmlns="http://www.w3.org/2000/svg">
    <rect x="0.043457" y="0.0410156" width="121.739" height="77.9131" rx="8.54545" fill="white"/>
    <path d="M0.043457 8.58647C0.043457 3.86695 3.86939 0.0410156 8.58891 0.0410156H113.237C117.957 0.0410156 121.783 3.86695 121.783 8.58647V13.0265H0.043457V8.58647Z" fill="#3B78A4"/>
    <path d="M51.6017 4.9375H50.0222V0.276343H51.6335C52.0963 0.276343 52.4938 0.369657 52.8261 0.556285C53.1599 0.741396 53.4164 1.00768 53.5954 1.35515C53.7745 1.70261 53.864 2.11835 53.864 2.60237C53.864 3.08791 53.7737 3.50517 53.5931 3.85415C53.4141 4.20312 53.1554 4.47093 52.817 4.65756C52.4802 4.84419 52.0751 4.9375 51.6017 4.9375ZM50.8665 4.20692H51.5607C51.8854 4.20692 52.1562 4.14774 52.3732 4.02939C52.5902 3.90953 52.7533 3.73124 52.8626 3.49454C52.9718 3.25633 53.0264 2.95894 53.0264 2.60237C53.0264 2.2458 52.9718 1.94993 52.8626 1.71475C52.7533 1.47805 52.5917 1.30128 52.3778 1.18445C52.1654 1.0661 51.9013 1.00692 51.5857 1.00692H50.8665V4.20692ZM54.6662 4.9375V0.276343H56.4142C56.7723 0.276343 57.0727 0.338552 57.3155 0.462971C57.5597 0.58739 57.7441 0.76188 57.8685 0.986441C57.9945 1.20948 58.0574 1.4697 58.0574 1.76709C58.0574 2.066 57.9937 2.32546 57.8662 2.54547C57.7403 2.76396 57.5544 2.93314 57.3086 3.05301C57.0628 3.17136 56.7609 3.23053 56.4028 3.23053H55.1579V2.52954H56.289C56.4984 2.52954 56.6698 2.50071 56.8034 2.44305C56.9369 2.38388 57.0355 2.29815 57.0992 2.18587C57.1645 2.07207 57.1971 1.93248 57.1971 1.76709C57.1971 1.60171 57.1645 1.4606 57.0992 1.34377C57.034 1.22542 56.9346 1.1359 56.8011 1.0752C56.6676 1.01299 56.4954 0.981889 56.2845 0.981889H55.5106V4.9375H54.6662ZM57.0742 2.82541L58.2281 4.9375H57.2859L56.1524 2.82541H57.0742ZM59.679 0.276343V4.9375H58.8347V0.276343H59.679ZM61.217 0.276343L62.4301 3.94518H62.4779L63.6887 0.276343H64.6173L62.9741 4.9375H61.9317L60.2907 0.276343H61.217ZM65.2312 4.9375V0.276343H68.2628V0.984165H66.0756V2.2496H68.1058V2.95742H66.0756V4.22968H68.281V4.9375H65.2312ZM69.1243 4.9375V0.276343H70.8722C71.2303 0.276343 71.5307 0.338552 71.7735 0.462971C72.0178 0.58739 72.2021 0.76188 72.3265 0.986441C72.4525 1.20948 72.5154 1.4697 72.5154 1.76709C72.5154 2.066 72.4517 2.32546 72.3242 2.54547C72.1983 2.76396 72.0124 2.93314 71.7666 3.05301C71.5208 3.17136 71.2189 3.23053 70.8608 3.23053H69.6159V2.52954H70.747C70.9564 2.52954 71.1279 2.50071 71.2614 2.44305C71.3949 2.38388 71.4935 2.29815 71.5573 2.18587C71.6225 2.07207 71.6551 1.93248 71.6551 1.76709C71.6551 1.60171 71.6225 1.4606 71.5573 1.34377C71.492 1.22542 71.3926 1.1359 71.2591 1.0752C71.1256 1.01299 70.9534 0.981889 70.7425 0.981889H69.9686V4.9375H69.1243ZM71.5322 2.82541L72.6861 4.9375H71.7439L70.6105 2.82541H71.5322ZM48.2321 12.9375V8.27634H49.0765V12.2297H51.1294V12.9375H48.2321ZM52.7066 8.27634V12.9375H51.8623V8.27634H52.7066ZM57.6108 9.84903H56.7596C56.7353 9.70944 56.6905 9.58578 56.6253 9.47805C56.56 9.3688 56.4789 9.27625 56.3817 9.20038C56.2846 9.12452 56.1739 9.06762 56.0495 9.02968C55.9266 8.99023 55.7938 8.97051 55.6512 8.97051C55.3978 8.97051 55.1732 9.03424 54.9775 9.16169C54.7818 9.28763 54.6285 9.47274 54.5177 9.71702C54.407 9.95979 54.3516 10.2564 54.3516 10.6069C54.3516 10.9635 54.407 11.2639 54.5177 11.5082C54.63 11.751 54.7833 11.9346 54.9775 12.059C55.1732 12.1819 55.397 12.2433 55.6489 12.2433C55.7885 12.2433 55.919 12.2251 56.0404 12.1887C56.1633 12.1508 56.2733 12.0954 56.3704 12.0226C56.469 11.9497 56.5517 11.8602 56.6184 11.754C56.6867 11.6478 56.7338 11.5264 56.7596 11.3899L57.6108 11.3944C57.5789 11.6159 57.5099 11.8238 57.4037 12.018C57.299 12.2122 57.1616 12.3837 56.9917 12.5324C56.8218 12.6796 56.623 12.7949 56.3954 12.8783C56.1678 12.9603 55.9152 13.0012 55.6375 13.0012C55.2278 13.0012 54.8622 12.9064 54.5405 12.7167C54.2188 12.5271 53.9654 12.2532 53.7803 11.8951C53.5952 11.537 53.5027 11.1076 53.5027 10.6069C53.5027 10.1047 53.596 9.6753 53.7826 9.31873C53.9692 8.96065 54.2234 8.68677 54.5451 8.49711C54.8667 8.30745 55.2309 8.21262 55.6375 8.21262C55.897 8.21262 56.1382 8.24903 56.3613 8.32186C56.5843 8.39469 56.7831 8.50166 56.9576 8.64277C57.1321 8.78236 57.2754 8.95382 57.3877 9.15714C57.5015 9.35894 57.5759 9.58957 57.6108 9.84903ZM58.384 12.9375V8.27634H61.4156V8.98417H59.2284V10.2496H61.2586V10.9574H59.2284V12.2297H61.4338V12.9375H58.384ZM66.1075 8.27634V12.9375H65.3564L63.1601 9.76254H63.1214V12.9375H62.277V8.27634H63.0327L65.2267 11.4536H65.2676V8.27634H66.1075ZM69.5607 9.55771C69.5394 9.35894 69.4499 9.20417 69.2921 9.09341C69.1358 8.98265 68.9325 8.92727 68.6822 8.92727C68.5061 8.92727 68.3552 8.95382 68.2292 9.00692C68.1033 9.06003 68.0069 9.1321 67.9402 9.22314C67.8734 9.31418 67.8393 9.41811 67.8378 9.53495C67.8378 9.63205 67.8598 9.71626 67.9038 9.78758C67.9493 9.85889 68.0107 9.91958 68.0881 9.96965C68.1655 10.0182 68.2512 10.0592 68.3453 10.0926C68.4394 10.1259 68.5342 10.154 68.6298 10.1768L69.0668 10.286C69.2428 10.327 69.412 10.3824 69.5743 10.4522C69.7382 10.522 69.8846 10.61 70.0136 10.7162C70.1441 10.8224 70.2472 10.9506 70.3231 11.1008C70.399 11.251 70.4369 11.427 70.4369 11.6288C70.4369 11.9019 70.3671 12.1424 70.2275 12.3503C70.0879 12.5567 69.8861 12.7182 69.6221 12.8351C69.3596 12.9504 69.0418 13.0081 68.6685 13.0081C68.3059 13.0081 67.991 12.9519 67.724 12.8396C67.4584 12.7274 67.2506 12.5635 67.1004 12.348C66.9517 12.1326 66.8712 11.8701 66.8591 11.5605H67.6898C67.702 11.7229 67.752 11.8579 67.84 11.9657C67.9281 12.0734 68.0426 12.1538 68.1837 12.2069C68.3263 12.26 68.4857 12.2866 68.6617 12.2866C68.8453 12.2866 69.0061 12.2593 69.1442 12.2046C69.2838 12.1485 69.393 12.0711 69.4719 11.9725C69.5508 11.8724 69.591 11.7555 69.5925 11.622C69.591 11.5006 69.5554 11.4005 69.4856 11.3216C69.4158 11.2412 69.3179 11.1744 69.192 11.1213C69.0675 11.0667 68.9219 11.0181 68.755 10.9756L68.2247 10.8391C67.8408 10.7404 67.5373 10.591 67.3143 10.3907C67.0928 10.1889 66.982 9.9211 66.982 9.58729C66.982 9.31266 67.0564 9.07217 67.2051 8.86582C67.3553 8.65946 67.5593 8.49939 67.8173 8.38559C68.0752 8.27027 68.3673 8.21262 68.6935 8.21262C69.0243 8.21262 69.3141 8.27027 69.5629 8.38559C69.8133 8.49939 70.0098 8.65794 70.1524 8.86126C70.295 9.06306 70.3686 9.29521 70.3732 9.55771H69.5607ZM71.1897 12.9375V8.27634H74.2213V8.98417H72.0341V10.2496H74.0642V10.9574H72.0341V12.2297H74.2395V12.9375H71.1897Z" fill="white"/>
    <g clip-path="url(#clip0_1479_5207)">
        <rect x="7.81299" y="20.8145" width="68.3636" height="81.1818" rx="6.40909" fill="#EDF0F4"/>
        <path fill-rule="evenodd" clip-rule="evenodd" d="M44.2701 64.3932C42.9818 62.6043 41.0824 61.304 38.9008 60.7173L33.8338 59.3548V55.8588C35.9758 54.3142 37.3825 51.8836 37.469 49.1342C37.7684 49.2609 38.0988 49.3327 38.4472 49.3327C39.7881 49.3327 40.8753 48.2892 40.8753 47.0019C40.8753 45.7147 39.7881 44.6712 38.4472 44.6712C38.1016 44.6712 37.7736 44.7415 37.476 44.8664V44.2051C37.476 39.3779 33.3994 35.4648 28.3708 35.4648H28.3707C23.342 35.4648 19.2656 39.3779 19.2656 44.2051V44.8664C18.9679 44.7415 18.6398 44.6712 18.2943 44.6712C16.9533 44.6712 15.8663 45.7147 15.8663 47.0019C15.8663 48.2892 16.9533 49.3327 18.2943 49.3327C18.6426 49.3327 18.9731 49.261 19.2726 49.1342C19.3589 51.8836 20.7656 54.3142 22.9075 55.8588V59.3548L17.8406 60.7173C15.659 61.304 13.7597 62.6043 12.4713 64.3932L8.94629 69.2883V72.7564H47.7953V69.2883L44.2701 64.3932Z" fill="#FFBE9D"/>
        <path fill-rule="evenodd" clip-rule="evenodd" d="M28.3707 57.6073C27.2479 57.6073 26.1733 57.4111 25.1802 57.0543C26.5926 57.9204 28.2699 58.4231 30.0703 58.4231C31.413 58.4231 32.6864 58.1419 33.8338 57.6411V55.8594C32.312 56.9567 30.4205 57.6073 28.3707 57.6073Z" fill="#EB996E"/>
        <path d="M19.5821 47.3427C19.6131 47.2344 19.6297 47.1203 19.6297 47.0026C19.6297 46.2946 19.0318 45.7207 18.2943 45.7207C18.1099 45.7207 17.9342 45.7566 17.7744 45.8214" stroke="#263238" stroke-width="1.06818" stroke-linecap="round" stroke-linejoin="round"/>
        <path d="M37.1593 47.3427C37.1283 47.2344 37.1118 47.1203 37.1118 47.0026C37.1118 46.2946 37.7097 45.7207 38.4472 45.7207C38.6315 45.7207 38.8072 45.7566 38.9671 45.8214" stroke="#263238" stroke-width="1.06818" stroke-linecap="round" stroke-linejoin="round"/>
        <path fill-rule="evenodd" clip-rule="evenodd" d="M30.799 52.2461C30.799 53.5334 29.712 54.5768 28.3709 54.5768C27.0299 54.5768 25.9429 53.5334 25.9429 52.2461H30.799Z" fill="white"/>
        <path fill-rule="evenodd" clip-rule="evenodd" d="M33.3482 47.3503C33.3482 47.8651 32.9133 48.2825 32.377 48.2825C31.8406 48.2825 31.4058 47.8651 31.4058 47.3503C31.4058 46.8354 31.8406 46.418 32.377 46.418C32.9133 46.418 33.3482 46.8354 33.3482 47.3503Z" fill="#263238"/>
        <path fill-rule="evenodd" clip-rule="evenodd" d="M25.3355 47.3503C25.3355 47.8651 24.9007 48.2825 24.3643 48.2825C23.8279 48.2825 23.3931 47.8651 23.3931 47.3503C23.3931 46.8354 23.8279 46.418 24.3643 46.418C24.9007 46.418 25.3355 46.8354 25.3355 47.3503Z" fill="#263238"/>
        <path d="M28.3704 46.418L29.5844 50.3802L27.8848 50.6133" stroke="#263238" stroke-width="1.06818" stroke-linecap="round" stroke-linejoin="round"/>
        <path fill-rule="evenodd" clip-rule="evenodd" d="M38.0831 44.6989V44.2038C38.0831 42.6895 37.7065 41.2598 37.039 39.9957C37.3402 39.6923 37.6228 39.3681 37.883 39.0223L38.2716 38.5057C38.7998 37.8038 38.3742 36.8137 37.4841 36.6736L29.7048 35.4483C23.94 34.5404 18.7021 38.8106 18.7021 44.4182V44.7054C19.3605 44.8126 19.9288 45.1721 20.2933 45.6789L21.3917 41.4905L28.2096 42.7249C30.732 43.1815 33.2864 42.6555 35.3557 41.3462L36.4811 45.6371C36.8546 45.1417 37.4251 44.7942 38.0831 44.6989Z" fill="#263238"/>
        <path fill-rule="evenodd" clip-rule="evenodd" d="M47.7953 69.2871L44.2701 64.392C42.9819 62.6031 41.0825 61.3027 38.9008 60.7161L33.8339 59.3535C33.8339 62.2498 31.388 64.5976 28.3708 64.5976C25.3536 64.5976 22.9076 62.2498 22.9076 59.3535L17.8406 60.7161C15.659 61.3027 13.7597 62.6031 12.4713 64.392L8.94629 69.2871V72.7552H47.7953V69.2871Z" fill="#5CB97F"/>
    </g>
    <rect x="57.0278" y="24.0625" width="34.9676" height="4.54493" rx="2.27246" fill="#EDF0F4"/>
    <rect x="79.043" y="63.0234" width="34.9676" height="4.54493" rx="2.27246" fill="#EDF0F4"/>
    <rect x="57.0278" y="33.7988" width="56.9843" height="4.54493" rx="2.27246" fill="#EDF0F4"/>
    <rect x="57.0278" y="43.541" width="48.5662" height="4.54493" rx="2.27246" fill="#EDF0F4"/>
    <rect x="57.0278" y="53.2832" width="56.9843" height="4.54493" rx="2.27246" fill="#EDF0F4"/>
    <rect x="95.8799" y="24.0625" width="18.1314" height="4.54493" rx="2.27246" fill="#EDF0F4"/>
    <rect x="57.0278" y="63.0234" width="18.1314" height="4.54493" rx="2.27246" fill="#EDF0F4"/>
    <defs>
        <clipPath id="clip0_1479_5207">
            <rect x="7.81299" y="20.8145" width="41.4431" height="49.3449" rx="6.40909" fill="white"/>
        </clipPath>
    </defs>
</svg>
