<svg width="78" height="78" viewBox="0 0 78 78" fill="none" xmlns="http://www.w3.org/2000/svg">
<path fill-rule="evenodd" clip-rule="evenodd" d="M62.3335 47.3335C54.0552 47.3335 47.3335 54.0552 47.3335 62.3335C47.3335 70.6118 54.0552 77.3335 62.3335 77.3335C70.6118 77.3335 77.3335 70.6118 77.3335 62.3335C77.3335 54.0552 70.6118 47.3335 62.3335 47.3335ZM62.3335 50.6668C68.7718 50.6668 74.0002 55.8952 74.0002 62.3335C74.0002 68.7718 68.7718 74.0002 62.3335 74.0002C55.8952 74.0002 50.6668 68.7718 50.6668 62.3335C50.6668 55.8952 55.8952 50.6668 62.3335 50.6668Z" fill="#0B73EB"/>
<path fill-rule="evenodd" clip-rule="evenodd" d="M55.8085 63.525L59.3435 67.06C59.9939 67.7105 61.0497 67.7105 61.7001 67.06L68.7701 59.99C69.4206 59.3396 69.4206 58.2838 68.7701 57.6333C68.1197 56.9829 67.0639 56.9829 66.4135 57.6333L60.5218 63.525L58.1651 61.1683C57.5147 60.5179 56.4589 60.5179 55.8085 61.1683C55.158 61.8188 55.158 62.8746 55.8085 63.525Z" fill="#0B73EB"/>
<path fill-rule="evenodd" clip-rule="evenodd" d="M32.3333 13.9468C30.1317 13.9468 28.02 14.8184 26.4583 16.3701L26.44 16.3884C24.8783 17.9501 24 20.0701 24 22.2801V25.6134C24 27.8234 24.8783 29.9434 26.44 31.5068C28.0033 33.0684 30.1233 33.9468 32.3333 33.9468C34.5433 33.9468 36.6633 33.0684 38.2267 31.5068C39.7883 29.9434 40.6667 27.8234 40.6667 25.6134V22.2801C40.6667 20.0701 39.7883 17.9501 38.2267 16.3884C36.6633 14.8251 34.5433 13.9468 32.3333 13.9468ZM32.3333 17.2801C31.0117 17.2801 29.745 17.8034 28.8083 18.7334L28.7983 18.7451C27.86 19.6834 27.3333 20.9551 27.3333 22.2801V25.6134C27.3333 26.9351 27.8567 28.2018 28.7867 29.1384L28.7983 29.1501C29.735 30.0868 31.0067 30.6134 32.3333 30.6134C33.66 30.6134 34.9317 30.0868 35.8683 29.1501C36.8067 28.2118 37.3333 26.9401 37.3333 25.6134V22.2801C37.3333 20.9551 36.8067 19.6834 35.8683 18.7451C34.9317 17.8068 33.66 17.2801 32.3333 17.2801Z" fill="#0B73EB"/>
<path fill-rule="evenodd" clip-rule="evenodd" d="M47.3335 45.6668C47.3335 43.4568 46.4552 41.3368 44.8935 39.7735C43.3302 38.2118 41.2102 37.3335 39.0002 37.3335H25.6668C23.4568 37.3335 21.3368 38.2118 19.7735 39.7735C18.2118 41.3368 17.3335 43.4568 17.3335 45.6668C17.3335 46.5868 18.0802 47.3335 19.0002 47.3335C19.9202 47.3335 20.6668 46.5868 20.6668 45.6668C20.6668 44.3402 21.1935 43.0685 22.1318 42.1318C23.0685 41.1935 24.3402 40.6668 25.6668 40.6668H39.0002C40.3268 40.6668 41.5985 41.1935 42.5352 42.1318C43.4735 43.0685 44.0002 44.3402 44.0002 45.6668C44.0002 46.5868 44.7468 47.3335 45.6668 47.3335C46.5868 47.3335 47.3335 46.5868 47.3335 45.6668Z" fill="#0B73EB"/>
<path fill-rule="evenodd" clip-rule="evenodd" d="M42.5551 67.835C38.2918 70.95 34.4784 73.0133 32.6867 73.92C32.4684 74.0233 32.2151 74.0267 31.9951 73.9283C28.7184 72.27 19.2418 67.03 12.1784 58.7783C7.58508 53.4117 4.00008 46.755 4.00008 38.9467V25.6667C4.00008 24.7467 3.25342 24 2.33341 24C1.41341 24 0.666748 24.7467 0.666748 25.6667V38.9467C0.666748 47.595 4.55842 55.0017 9.64675 60.9467C17.0934 69.6467 27.0801 75.18 30.4951 76.905C30.5034 76.91 30.5134 76.915 30.5218 76.92C31.6668 77.4717 33.0034 77.4717 34.1484 76.9167C34.1567 76.9133 34.1651 76.9083 34.1734 76.905C36.0417 75.96 40.0451 73.7983 44.5218 70.525C45.2634 69.9833 45.4268 68.9383 44.8834 68.1967C44.3401 67.4533 43.2968 67.2917 42.5551 67.835Z" fill="#0B73EB"/>
<path fill-rule="evenodd" clip-rule="evenodd" d="M4.00008 19.0002V14.7085C4.00008 14.2602 4.35508 13.8935 4.80175 13.8768C4.81008 13.8751 4.81675 13.8752 4.82508 13.8752C13.2517 13.4452 22.3951 10.7268 31.8618 4.02014C32.1484 3.81681 32.5301 3.81682 32.8151 4.01849H32.8184C42.2101 10.5968 51.4567 13.4185 59.8384 13.8785C59.8484 13.8785 59.8567 13.8801 59.8651 13.8801C60.3084 13.8968 60.6584 14.2601 60.6584 14.7035V14.7068C60.6668 21.2768 60.6668 38.9468 60.6668 38.9468C60.6668 40.0285 60.5984 41.0885 60.4667 42.1268C60.3517 43.0385 61.0001 43.8735 61.9134 43.9885C62.8251 44.1035 63.6601 43.4552 63.7751 42.5435C63.9217 41.3702 64.0001 40.1718 64.0001 38.9468C64.0001 38.9468 64.0001 21.2752 63.9918 14.7018C63.9918 12.4785 62.2384 10.6485 60.0184 10.5501C52.1684 10.1185 43.5234 7.44682 34.7301 1.28849C33.2918 0.27849 31.3717 0.28183 29.9351 1.30016C21.0801 7.5735 12.5384 10.1435 4.65508 10.5468C2.42842 10.6418 0.666748 12.4751 0.666748 14.7068V19.0002C0.666748 19.9202 1.41341 20.6668 2.33341 20.6668C3.25341 20.6668 4.00008 19.9202 4.00008 19.0002Z" fill="#0B73EB"/>
</svg>
