<svg width="1183" height="575" viewBox="0 0 1183 575" fill="none" xmlns="http://www.w3.org/2000/svg">
<rect x="653.536" y="267.125" width="108.736" height="331.267" fill="white" stroke="#E9F1FF" stroke-width="3" stroke-linecap="round" stroke-linejoin="round"/>
<rect x="1140.32" y="287.355" width="103.679" height="311.037" fill="#F8FBFF" stroke="#E9F1FF" stroke-width="3" stroke-linecap="round" stroke-linejoin="round"/>
<rect x="1001.24" y="186.203" width="139.082" height="412.187" fill="white" stroke="#E9F1FF" stroke-width="3" stroke-linecap="round" stroke-linejoin="round"/>
<rect x="762.272" y="148.273" width="238.967" height="450.118" fill="#F8FBFF" stroke="#E9F1FF" stroke-width="3" stroke-linecap="round" stroke-linejoin="round"/>
<rect width="190.921" height="42.9888" transform="matrix(1 0 0 -1 786.295 148.273)" fill="white" stroke="#E9F1FF" stroke-width="3" stroke-linecap="round" stroke-linejoin="round"/>
<rect x="815.376" y="66.0879" width="132.76" height="39.1957" fill="#F8FBFF" stroke="#E9F1FF" stroke-width="3" stroke-linecap="round" stroke-linejoin="round"/>
<line x1="1242.5" y1="320.463" x2="1168.37" y2="320.463" stroke="#E9F1FF" stroke-width="3" stroke-linecap="round" stroke-linejoin="round"/>
<line x1="1242.5" y1="352.074" x2="1168.37" y2="352.074" stroke="#E9F1FF" stroke-width="3" stroke-linecap="round" stroke-linejoin="round"/>
<line x1="1242.5" y1="384.947" x2="1168.37" y2="384.947" stroke="#E9F1FF" stroke-width="3" stroke-linecap="round" stroke-linejoin="round"/>
<line x1="1242.5" y1="416.557" x2="1168.37" y2="416.557" stroke="#E9F1FF" stroke-width="3" stroke-linecap="round" stroke-linejoin="round"/>
<line x1="1242.5" y1="448.166" x2="1168.37" y2="448.166" stroke="#E9F1FF" stroke-width="3" stroke-linecap="round" stroke-linejoin="round"/>
<line x1="1242.5" y1="481.039" x2="1168.37" y2="481.039" stroke="#E9F1FF" stroke-width="3" stroke-linecap="round" stroke-linejoin="round"/>
<line x1="1116.06" y1="320.463" x2="1108.95" y2="320.463" stroke="#E9F1FF" stroke-width="3" stroke-linecap="round" stroke-linejoin="round"/>
<line x1="1116.06" y1="352.074" x2="1108.95" y2="352.074" stroke="#E9F1FF" stroke-width="3" stroke-linecap="round" stroke-linejoin="round"/>
<line x1="1116.06" y1="384.947" x2="1108.95" y2="384.947" stroke="#E9F1FF" stroke-width="3" stroke-linecap="round" stroke-linejoin="round"/>
<line x1="1116.06" y1="416.557" x2="1108.95" y2="416.557" stroke="#E9F1FF" stroke-width="3" stroke-linecap="round" stroke-linejoin="round"/>
<line x1="1116.06" y1="448.166" x2="1108.95" y2="448.166" stroke="#E9F1FF" stroke-width="3" stroke-linecap="round" stroke-linejoin="round"/>
<line x1="1116.06" y1="481.039" x2="1108.95" y2="481.039" stroke="#E9F1FF" stroke-width="3" stroke-linecap="round" stroke-linejoin="round"/>
<line x1="1033.88" y1="320.463" x2="1026.76" y2="320.463" stroke="#E9F1FF" stroke-width="3" stroke-linecap="round" stroke-linejoin="round"/>
<line x1="1033.88" y1="352.074" x2="1026.76" y2="352.074" stroke="#E9F1FF" stroke-width="3" stroke-linecap="round" stroke-linejoin="round"/>
<line x1="1033.88" y1="384.947" x2="1026.76" y2="384.947" stroke="#E9F1FF" stroke-width="3" stroke-linecap="round" stroke-linejoin="round"/>
<line x1="1033.88" y1="416.557" x2="1026.76" y2="416.557" stroke="#E9F1FF" stroke-width="3" stroke-linecap="round" stroke-linejoin="round"/>
<line x1="1033.88" y1="448.166" x2="1026.76" y2="448.166" stroke="#E9F1FF" stroke-width="3" stroke-linecap="round" stroke-linejoin="round"/>
<line x1="1033.88" y1="481.039" x2="1026.76" y2="481.039" stroke="#E9F1FF" stroke-width="3" stroke-linecap="round" stroke-linejoin="round"/>
<line x1="1090.77" y1="320.463" x2="1050.79" y2="320.463" stroke="#E9F1FF" stroke-width="3" stroke-linecap="round" stroke-linejoin="round"/>
<line x1="1090.77" y1="352.074" x2="1050.79" y2="352.074" stroke="#E9F1FF" stroke-width="3" stroke-linecap="round" stroke-linejoin="round"/>
<line x1="1090.77" y1="384.947" x2="1050.79" y2="384.947" stroke="#E9F1FF" stroke-width="3" stroke-linecap="round" stroke-linejoin="round"/>
<line x1="1116.06" y1="224.371" x2="1108.95" y2="224.371" stroke="#E9F1FF" stroke-width="3" stroke-linecap="round" stroke-linejoin="round"/>
<line x1="1116.06" y1="255.98" x2="1108.95" y2="255.98" stroke="#E9F1FF" stroke-width="3" stroke-linecap="round" stroke-linejoin="round"/>
<line x1="1116.06" y1="288.855" x2="1108.95" y2="288.855" stroke="#E9F1FF" stroke-width="3" stroke-linecap="round" stroke-linejoin="round"/>
<line x1="1033.88" y1="224.371" x2="1026.76" y2="224.371" stroke="#E9F1FF" stroke-width="3" stroke-linecap="round" stroke-linejoin="round"/>
<line x1="1033.88" y1="255.98" x2="1026.76" y2="255.98" stroke="#E9F1FF" stroke-width="3" stroke-linecap="round" stroke-linejoin="round"/>
<line x1="1033.88" y1="288.855" x2="1026.76" y2="288.855" stroke="#E9F1FF" stroke-width="3" stroke-linecap="round" stroke-linejoin="round"/>
<line x1="1090.77" y1="224.371" x2="1050.79" y2="224.371" stroke="#E9F1FF" stroke-width="3" stroke-linecap="round" stroke-linejoin="round"/>
<line x1="1090.77" y1="255.98" x2="1050.79" y2="255.98" stroke="#E9F1FF" stroke-width="3" stroke-linecap="round" stroke-linejoin="round"/>
<line x1="1090.77" y1="288.855" x2="1050.79" y2="288.855" stroke="#E9F1FF" stroke-width="3" stroke-linecap="round" stroke-linejoin="round"/>
<line x1="1090.77" y1="416.557" x2="1050.79" y2="416.557" stroke="#E9F1FF" stroke-width="3" stroke-linecap="round" stroke-linejoin="round"/>
<line x1="1090.77" y1="448.166" x2="1050.79" y2="448.166" stroke="#E9F1FF" stroke-width="3" stroke-linecap="round" stroke-linejoin="round"/>
<line x1="1090.77" y1="481.039" x2="1050.79" y2="481.039" stroke="#E9F1FF" stroke-width="3" stroke-linecap="round" stroke-linejoin="round"/>
<line x1="1242.5" y1="508.857" x2="1168.37" y2="508.857" stroke="#E9F1FF" stroke-width="3" stroke-linecap="round" stroke-linejoin="round"/>
<line x1="1242.5" y1="541.73" x2="1168.37" y2="541.73" stroke="#E9F1FF" stroke-width="3" stroke-linecap="round" stroke-linejoin="round"/>
<line x1="882.624" y1="3.10547" x2="882.624" y2="64.5887" stroke="#E9F1FF" stroke-width="3" stroke-linecap="round" stroke-linejoin="round"/>
<rect x="792.617" y="181.146" width="178.277" height="75.8627" fill="white" stroke="#E9F1FF" stroke-width="3" stroke-linecap="round" stroke-linejoin="round"/>
<line x1="794.117" y1="217.578" x2="969.394" y2="217.578" stroke="#E9F1FF" stroke-width="3" stroke-linecap="round" stroke-linejoin="round"/>
<line x1="844.692" y1="182.646" x2="844.692" y2="255.509" stroke="#E9F1FF" stroke-width="3" stroke-linecap="round" stroke-linejoin="round"/>
<line x1="882.624" y1="182.646" x2="882.624" y2="255.509" stroke="#E9F1FF" stroke-width="3" stroke-linecap="round" stroke-linejoin="round"/>
<line x1="921.819" y1="182.646" x2="921.819" y2="255.509" stroke="#E9F1FF" stroke-width="3" stroke-linecap="round" stroke-linejoin="round"/>
<rect x="792.617" y="287.355" width="178.277" height="75.8627" fill="white" stroke="#E9F1FF" stroke-width="3" stroke-linecap="round" stroke-linejoin="round"/>
<line x1="794.117" y1="323.785" x2="969.394" y2="323.785" stroke="#E9F1FF" stroke-width="3" stroke-linecap="round" stroke-linejoin="round"/>
<line x1="844.692" y1="288.855" x2="844.692" y2="361.718" stroke="#E9F1FF" stroke-width="3" stroke-linecap="round" stroke-linejoin="round"/>
<line x1="882.624" y1="288.855" x2="882.624" y2="361.718" stroke="#E9F1FF" stroke-width="3" stroke-linecap="round" stroke-linejoin="round"/>
<line x1="921.819" y1="288.855" x2="921.819" y2="361.718" stroke="#E9F1FF" stroke-width="3" stroke-linecap="round" stroke-linejoin="round"/>
<rect x="792.617" y="394.826" width="178.277" height="75.8627" fill="white" stroke="#E9F1FF" stroke-width="3" stroke-linecap="round" stroke-linejoin="round"/>
<rect x="849.514" y="504.828" width="64.4833" height="93.5639" fill="white" stroke="#E9F1FF" stroke-width="3" stroke-linecap="round" stroke-linejoin="round"/>
<line x1="794.117" y1="431.258" x2="969.394" y2="431.258" stroke="#E9F1FF" stroke-width="3" stroke-linecap="round" stroke-linejoin="round"/>
<line x1="844.692" y1="396.326" x2="844.692" y2="469.189" stroke="#E9F1FF" stroke-width="3" stroke-linecap="round" stroke-linejoin="round"/>
<line x1="882.624" y1="396.326" x2="882.624" y2="469.189" stroke="#E9F1FF" stroke-width="3" stroke-linecap="round" stroke-linejoin="round"/>
<line x1="921.819" y1="396.326" x2="921.819" y2="469.189" stroke="#E9F1FF" stroke-width="3" stroke-linecap="round" stroke-linejoin="round"/>
<line x1="692.967" y1="268.625" x2="692.967" y2="596.892" stroke="#E9F1FF" stroke-width="3" stroke-linecap="round" stroke-linejoin="round"/>
<line x1="722.841" y1="596.893" x2="722.841" y2="268.626" stroke="#E9F1FF" stroke-width="3" stroke-linecap="round" stroke-linejoin="round"/>
<rect x="2.3811" y="105.285" width="151.725" height="493.107" fill="white" stroke="#E9F1FF" stroke-width="3" stroke-linecap="round" stroke-linejoin="round"/>
<rect x="447.442" y="105.285" width="151.725" height="493.107" fill="white" stroke="#E9F1FF" stroke-width="3" stroke-linecap="round" stroke-linejoin="round"/>
<rect x="154.107" y="1.60547" width="293.336" height="596.786" fill="#F8FBFF" stroke="#E9F1FF" stroke-width="3" stroke-linecap="round" stroke-linejoin="round"/>
<rect x="498.017" y="155.859" width="50.5751" height="50.5751" stroke="#E9F1FF" stroke-width="3" stroke-linecap="round" stroke-linejoin="round"/>
<rect x="498.017" y="206.436" width="50.5751" height="50.5751" stroke="#E9F1FF" stroke-width="3" stroke-linecap="round" stroke-linejoin="round"/>
<rect x="498.017" y="257.01" width="50.5751" height="50.5751" stroke="#E9F1FF" stroke-width="3" stroke-linecap="round" stroke-linejoin="round"/>
<rect x="498.017" y="307.584" width="50.5751" height="50.5751" stroke="#E9F1FF" stroke-width="3" stroke-linecap="round" stroke-linejoin="round"/>
<rect x="498.017" y="358.16" width="50.5751" height="50.5751" stroke="#E9F1FF" stroke-width="3" stroke-linecap="round" stroke-linejoin="round"/>
<rect x="498.017" y="408.734" width="50.5751" height="50.5751" stroke="#E9F1FF" stroke-width="3" stroke-linecap="round" stroke-linejoin="round"/>
<rect width="151.725" height="25.2876" transform="matrix(1 0 0 -1 447.442 521.266)" stroke="#E9F1FF" stroke-width="3" stroke-linecap="round" stroke-linejoin="round"/>
<rect width="151.725" height="25.2876" transform="matrix(1 0 0 -1 447.442 546.553)" fill="#F8FBFF" stroke="#E9F1FF" stroke-width="3" stroke-linecap="round" stroke-linejoin="round"/>
<rect width="151.725" height="25.2876" transform="matrix(1 0 0 -1 2.3811 521.266)" stroke="#E9F1FF" stroke-width="3" stroke-linecap="round" stroke-linejoin="round"/>
<rect width="103.679" height="150.461" transform="matrix(1 0 0 -1 248.935 598.393)" fill="white" stroke="#E9F1FF" stroke-width="3" stroke-linecap="round" stroke-linejoin="round"/>
<rect x="193.302" y="43.3301" width="214.944" height="351.497" fill="white" stroke="#E9F1FF" stroke-width="3" stroke-linecap="round" stroke-linejoin="round"/>
<rect width="151.725" height="25.2876" transform="matrix(1 0 0 -1 2.3811 546.553)" fill="#F8FBFF" stroke="#E9F1FF" stroke-width="3" stroke-linecap="round" stroke-linejoin="round"/>
<rect x="52.9563" y="155.859" width="50.5751" height="50.5751" stroke="#E9F1FF" stroke-width="3" stroke-linecap="round" stroke-linejoin="round"/>
<rect x="52.9563" y="206.436" width="50.5751" height="50.5751" stroke="#E9F1FF" stroke-width="3" stroke-linecap="round" stroke-linejoin="round"/>
<rect x="52.9563" y="257.01" width="50.5751" height="50.5751" stroke="#E9F1FF" stroke-width="3" stroke-linecap="round" stroke-linejoin="round"/>
<rect x="52.9563" y="307.584" width="50.5751" height="50.5751" stroke="#E9F1FF" stroke-width="3" stroke-linecap="round" stroke-linejoin="round"/>
<rect x="52.9563" y="358.16" width="50.5751" height="50.5751" stroke="#E9F1FF" stroke-width="3" stroke-linecap="round" stroke-linejoin="round"/>
<rect x="52.9563" y="408.734" width="50.5751" height="50.5751" stroke="#E9F1FF" stroke-width="3" stroke-linecap="round" stroke-linejoin="round"/>
<line x1="230.205" y1="446.432" x2="367.551" y2="446.432" stroke="#E9F1FF" stroke-width="3" stroke-linecap="round" stroke-linejoin="round"/>
<line x1="275.722" y1="44.8301" x2="275.722" y2="393.327" stroke="#E9F1FF" stroke-width="3" stroke-linecap="round" stroke-linejoin="round"/>
<line x1="327.562" y1="44.8301" x2="327.562" y2="393.327" stroke="#E9F1FF" stroke-width="3" stroke-linecap="round" stroke-linejoin="round"/>
<line x1="194.802" y1="344.016" x2="406.746" y2="344.016" stroke="#E9F1FF" stroke-width="3" stroke-linecap="round" stroke-linejoin="round"/>
<line x1="194.802" y1="293.441" x2="406.746" y2="293.441" stroke="#E9F1FF" stroke-width="3" stroke-linecap="round" stroke-linejoin="round"/>
<line x1="194.802" y1="242.865" x2="406.746" y2="242.865" stroke="#E9F1FF" stroke-width="3" stroke-linecap="round" stroke-linejoin="round"/>
<line x1="194.802" y1="192.291" x2="406.746" y2="192.291" stroke="#E9F1FF" stroke-width="3" stroke-linecap="round" stroke-linejoin="round"/>
<line x1="194.802" y1="141.717" x2="406.746" y2="141.717" stroke="#E9F1FF" stroke-width="3" stroke-linecap="round" stroke-linejoin="round"/>
<line x1="194.802" y1="91.1406" x2="406.746" y2="91.1406" stroke="#E9F1FF" stroke-width="3" stroke-linecap="round" stroke-linejoin="round"/>
</svg>
