<svg width="26" height="26" viewBox="0 0 26 26" fill="none" xmlns="http://www.w3.org/2000/svg">
<path fill-rule="evenodd" clip-rule="evenodd" d="M7.91309 1.13043H18.087C18.7113 1.13043 19.2174 1.63655 19.2174 2.26087H6.78266C6.78266 1.63655 7.28877 1.13043 7.91309 1.13043ZM5.65222 3.3913V2.26087C5.65222 1.01223 6.66445 0 7.91309 0H18.087C19.3356 0 20.3479 1.01223 20.3479 2.26087V3.3913V21.4783V22.6087V23.7391C20.3479 24.9878 19.3356 26 18.087 26H7.91309C6.66445 26 5.65222 24.9878 5.65222 23.7391V22.6087V21.4783V3.3913ZM6.78266 21.4783V3.3913H19.2174V21.4783H6.78266ZM6.78266 22.6087V23.7391C6.78266 24.3635 7.28877 24.8696 7.91309 24.8696H18.087C18.7113 24.8696 19.2174 24.3635 19.2174 23.7391V22.6087H6.78266ZM11.3044 23.7391C11.3044 24.0513 11.0513 24.3043 10.7392 24.3043H10.4566C10.1444 24.3043 9.89135 24.0513 9.89135 23.7391C9.89135 23.427 10.1444 23.1739 10.4566 23.1739H10.7392C11.0513 23.1739 11.3044 23.427 11.3044 23.7391ZM11.8696 23.7391C11.8696 23.427 12.1227 23.1739 12.4348 23.1739H13.9892H15.5435C15.8557 23.1739 16.1087 23.427 16.1087 23.7391C16.1087 24.0513 15.8557 24.3043 15.5435 24.3043H13.9892H12.4348C12.1227 24.3043 11.8696 24.0513 11.8696 23.7391Z" fill="current"/>
</svg>
