<svg width="23" height="25" viewBox="0 0 23 25" fill="none" xmlns="http://www.w3.org/2000/svg">
<mask id="path-1-inside-1_1015_27743" fill="white">
<path fill-rule="evenodd" clip-rule="evenodd" d="M23 2C23 0.895431 22.1046 0 21 0H12C10.8954 0 10 0.895431 10 2V10C10 11.1046 9.10457 12 8 12H2C0.895431 12 0 12.8954 0 14V23C0 24.1046 0.89543 25 2 25H21C22.1046 25 23 24.1046 23 23V13V12V2Z"/>
</mask>
<path fill-rule="evenodd" clip-rule="evenodd" d="M23 2C23 0.895431 22.1046 0 21 0H12C10.8954 0 10 0.895431 10 2V10C10 11.1046 9.10457 12 8 12H2C0.895431 12 0 12.8954 0 14V23C0 24.1046 0.89543 25 2 25H21C22.1046 25 23 24.1046 23 23V13V12V2Z" fill="white"/>
<path d="M12 1H21V-1H12V1ZM11 10V2H9V10H11ZM2 13H8V11H2V13ZM1 23V14H-1V23H1ZM21 24H2V26H21V24ZM22 13V23H24V13H22ZM22 12V13H24V12H22ZM22 2V12H24V2H22ZM21 26C22.6569 26 24 24.6569 24 23H22C22 23.5523 21.5523 24 21 24V26ZM-1 23C-1 24.6569 0.343145 26 2 26V24C1.44772 24 1 23.5523 1 23H-1ZM2 11C0.343146 11 -1 12.3431 -1 14H1C1 13.4477 1.44772 13 2 13V11ZM9 10C9 10.5523 8.55229 11 8 11V13C9.65685 13 11 11.6569 11 10H9ZM21 1C21.5523 1 22 1.44772 22 2H24C24 0.343146 22.6569 -1 21 -1V1ZM12 -1C10.3431 -1 9 0.343146 9 2H11C11 1.44772 11.4477 1 12 1V-1Z" fill="#18214D" mask="url(#path-1-inside-1_1015_27743)"/>
<mask id="path-3-inside-2_1015_27743" fill="white">
<path fill-rule="evenodd" clip-rule="evenodd" d="M20.087 2C20.087 0.895431 19.1915 0 18.087 0H11.5652C10.4606 0 9.56522 0.895429 9.56522 2V9.47826C9.56522 10.5828 8.66979 11.4783 7.56522 11.4783H2C0.895431 11.4783 0 12.3737 0 13.4783V20C0 21.1046 0.89543 22 2 22H9.56522H10.5217H18.087C19.1915 22 20.087 21.1046 20.087 20V2Z"/>
</mask>
<path fill-rule="evenodd" clip-rule="evenodd" d="M20.087 2C20.087 0.895431 19.1915 0 18.087 0H11.5652C10.4606 0 9.56522 0.895429 9.56522 2V9.47826C9.56522 10.5828 8.66979 11.4783 7.56522 11.4783H2C0.895431 11.4783 0 12.3737 0 13.4783V20C0 21.1046 0.89543 22 2 22H9.56522H10.5217H18.087C19.1915 22 20.087 21.1046 20.087 20V2Z" fill="#A8C5F2"/>
<path d="M11.5652 1H18.087V-1H11.5652V1ZM10.5652 9.47826V2H8.56522V9.47826H10.5652ZM2 12.4783H7.56522V10.4783H2V12.4783ZM1 20V13.4783H-1V20H1ZM9.56522 21H2V23H9.56522V21ZM10.5217 21H9.56522V23H10.5217V21ZM18.087 21H10.5217V23H18.087V21ZM19.087 2V20H21.087V2H19.087ZM18.087 23C19.7438 23 21.087 21.6569 21.087 20H19.087C19.087 20.5523 18.6392 21 18.087 21V23ZM-1 20C-1 21.6569 0.343145 23 2 23V21C1.44772 21 1 20.5523 1 20H-1ZM2 10.4783C0.343144 10.4783 -1 11.8214 -1 13.4783H1C1 12.926 1.44772 12.4783 2 12.4783V10.4783ZM8.56522 9.47826C8.56522 10.0305 8.1175 10.4783 7.56522 10.4783V12.4783C9.22207 12.4783 10.5652 11.1351 10.5652 9.47826H8.56522ZM18.087 1C18.6392 1 19.087 1.44772 19.087 2H21.087C21.087 0.343145 19.7438 -1 18.087 -1V1ZM11.5652 -1C9.90836 -1 8.56522 0.343143 8.56522 2H10.5652C10.5652 1.44771 11.0129 1 11.5652 1V-1Z" fill="#18214D" mask="url(#path-3-inside-2_1015_27743)"/>
<line x1="14.5" y1="14.5" x2="14.5" y2="16.5" stroke="#18214D" stroke-linecap="round"/>
<line x1="7.5" y1="16.5" x2="14.5" y2="16.5" stroke="#18214D" stroke-linecap="round"/>
<line x1="7.41406" y1="15.7071" x2="6.70696" y2="16.4142" stroke="#18214D" stroke-linecap="round"/>
<line x1="7.41423" y1="17.1212" x2="6.70712" y2="16.4141" stroke="#18214D" stroke-linecap="round"/>
</svg>
