<svg width="26" height="26" viewBox="0 0 26 26" fill="none" xmlns="http://www.w3.org/2000/svg">
<circle cx="13" cy="13" r="12.5" fill="white" stroke="#18214D"/>
<circle cx="11.5" cy="11.5" r="11" fill="#A8C5F2" stroke="#18214D"/>
<path d="M13.059 9.783L12.198 17H10.294L11.155 9.783H13.059ZM13.479 7.732C13.479 7.89533 13.444 8.047 13.374 8.187C13.3087 8.327 13.22 8.45067 13.108 8.558C13.0007 8.66533 12.8747 8.74933 12.73 8.81C12.59 8.87067 12.4453 8.901 12.296 8.901C12.1467 8.901 12.002 8.87067 11.862 8.81C11.7267 8.74933 11.6053 8.66533 11.498 8.558C11.3953 8.45067 11.3113 8.327 11.246 8.187C11.1853 8.047 11.155 7.89533 11.155 7.732C11.155 7.57333 11.1877 7.424 11.253 7.284C11.3183 7.13933 11.4023 7.01333 11.505 6.906C11.6123 6.79867 11.7337 6.71467 11.869 6.654C12.009 6.58867 12.1537 6.556 12.303 6.556C12.457 6.556 12.604 6.58633 12.744 6.647C12.8887 6.70767 13.0147 6.79167 13.122 6.899C13.2293 7.00633 13.3157 7.13233 13.381 7.277C13.4463 7.417 13.479 7.56867 13.479 7.732Z" fill="#18214D"/>
</svg>
