<svg width="24" height="24" viewBox="0 0 24 24" fill="none" xmlns="http://www.w3.org/2000/svg">
  <path d="M7.5 7.6875C7.5 7.6875 7.5675 6.14063 9.07219 4.90031C9.96562 4.16391 11.0386 3.95063 12 3.9375C12.878 3.92672 13.6627 4.07531 14.1319 4.30406C14.9339 4.69688 16.5 5.65313 16.5 7.6875C16.5 9.82828 15.1322 10.7986 13.5773 11.8678C12.0225 12.937 11.625 13.9856 11.625 15.1875" stroke="white" stroke-width="3" stroke-miterlimit="10" stroke-linecap="round"/>
  <path d="M11.625 21.2495C12.4534 21.2495 13.125 20.578 13.125 19.7495C13.125 18.9211 12.4534 18.2495 11.625 18.2495C10.7966 18.2495 10.125 18.9211 10.125 19.7495C10.125 20.578 10.7966 21.2495 11.625 21.2495Z" fill="white"/>
</svg>
