<svg width="96" height="61" viewBox="0 0 96 61" fill="none" xmlns="http://www.w3.org/2000/svg">
<path d="M96 10.0041V4.28813C95.9966 3.30523 95.6046 2.36356 94.9096 1.66854C94.2146 0.973525 93.2729 0.581551 92.29 0.578125H3.71C2.72727 0.58155 1.78576 0.973386 1.09077 1.66819C0.39578 2.36299 0.00368951 3.3044 0 4.28713L0 10.0031H96V10.0041Z" fill="white"/>
<path d="M0 20.0322V57.0682C0.00342614 58.0511 0.3954 58.9928 1.09042 59.6878C1.78544 60.3828 2.7271 60.7748 3.71 60.7782H92.29C93.2729 60.7748 94.2146 60.3828 94.9096 59.6878C95.6046 58.9928 95.9966 58.0511 96 57.0682V20.0322H0ZM88.279 53.8252H7.72V50.4832H88.28V53.8252H88.279ZM88.279 45.1352H7.72V41.7922H88.28V45.1352H88.279Z" fill="white"/>
</svg>
