<svg width="80" height="80" viewBox="0 0 80 80" fill="none" xmlns="http://www.w3.org/2000/svg">
<g filter="url(#filter0_b)">
<circle cx="40" cy="40" r="40" fill="#C23F3F" fill-opacity="0.2"/>
</g>
<g filter="url(#filter1_b)">
<circle cx="40" cy="40" r="32" fill="#CC2233"/>
</g>
<path d="M40 41C40.5523 41 41 40.5523 41 40C41 39.4477 40.5523 39 40 39C39.4477 39 39 39.4477 39 40C39 40.5523 39.4477 41 40 41Z" stroke="white" stroke-width="2"/>
<path d="M40 41C40.5523 41 41 40.5523 41 40C41 39.4477 40.5523 39 40 39C39.4477 39 39 39.4477 39 40C39 40.5523 39.4477 41 40 41Z" stroke="#C23F3F" stroke-width="2"/>
<defs>
<filter id="filter0_b" x="-30" y="-30" width="140" height="140" filterUnits="userSpaceOnUse" color-interpolation-filters="sRGB">
<feFlood flood-opacity="0" result="BackgroundImageFix"/>
<feGaussianBlur in="BackgroundImage" stdDeviation="15"/>
<feComposite in2="SourceAlpha" operator="in" result="effect1_backgroundBlur"/>
<feBlend mode="normal" in="SourceGraphic" in2="effect1_backgroundBlur" result="shape"/>
</filter>
<filter id="filter1_b" x="-22" y="-22" width="124" height="124" filterUnits="userSpaceOnUse" color-interpolation-filters="sRGB">
<feFlood flood-opacity="0" result="BackgroundImageFix"/>
<feGaussianBlur in="BackgroundImage" stdDeviation="15"/>
<feComposite in2="SourceAlpha" operator="in" result="effect1_backgroundBlur"/>
<feBlend mode="normal" in="SourceGraphic" in2="effect1_backgroundBlur" result="shape"/>
</filter>
</defs>
</svg>
