<svg width="96" height="61" viewBox="0 0 96 61" fill="none" xmlns="http://www.w3.org/2000/svg">
<path d="M92.29 0.577148H3.71C2.7271 0.580575 1.78544 0.972549 1.09042 1.66757C0.3954 2.36259 0.00342614 3.30425 0 4.28715L0 57.0672C0.00316269 58.0502 0.39502 58.9921 1.09007 59.6874C1.78511 60.3826 2.72693 60.7747 3.71 60.7781H92.29C93.2729 60.7747 94.2146 60.3827 94.9096 59.6877C95.6046 58.9927 95.9966 58.051 96 57.0681V4.28815C95.9966 3.30525 95.6046 2.36359 94.9096 1.66857C94.2146 0.973549 93.2729 0.581575 92.29 0.578148V0.577148ZM38.34 36.5441C38.3379 37.2527 38.0555 37.9316 37.5545 38.4326C37.0535 38.9336 36.3745 39.216 35.666 39.2181H33.159C32.59 36.7451 31.254 35.0061 28.011 34.2041L25.337 33.5361L27.209 31.5301C28.646 29.9921 29.482 27.7531 29.482 25.4131C29.482 22.7391 28.847 16.5221 23.098 16.5221C18.15 16.5221 16.378 21.1021 16.378 25.4131C16.378 27.7531 17.215 29.9931 18.652 31.5301L20.524 33.5361L17.85 34.2041C14.908 34.9401 13.404 36.3771 12.735 39.2181H10.228C9.51946 39.216 8.84054 38.9336 8.33953 38.4326C7.83851 37.9316 7.55611 37.2527 7.554 36.5441V11.0741C7.55585 10.3654 7.83813 9.68626 8.33918 9.18503C8.84022 8.6838 9.51929 8.40126 10.228 8.39915H35.7C36.4085 8.40126 37.0875 8.68366 37.5885 9.18468C38.0895 9.68569 38.3719 10.3646 38.374 11.0731V36.5441H38.341H38.34ZM73.103 34.2711H47.164V30.9281H73.104V34.2711H73.103ZM88.312 53.8921H76.579V50.5501H88.312V53.8921ZM88.312 25.4801H47.164V22.1371H88.312V25.4801ZM88.312 16.6891H47.164V13.3461H88.312V16.6891Z" fill="white"/>
</svg>
