<svg width="80" height="80" viewBox="0 0 80 80" fill="none" xmlns="http://www.w3.org/2000/svg">
<g clip-path="url(#clip0_1232_24693)">
<path d="M41.5625 25.9375C40.7001 25.9375 40 26.6376 40 27.5C40 28.3624 40.7001 29.0625 41.5625 29.0625C42.4249 29.0625 43.125 28.3624 43.125 27.5C43.125 26.6376 42.4249 25.9375 41.5625 25.9375Z" fill="#0B73EB"/>
<path d="M41.5625 35.3125C40.7001 35.3125 40 36.0126 40 36.875C40 37.7374 40.7001 38.4375 41.5625 38.4375C42.4249 38.4375 43.125 37.7374 43.125 36.875C43.125 36.0126 42.4249 35.3125 41.5625 35.3125Z" fill="#0B73EB"/>
<path d="M19.6875 70.625C18.8251 70.625 18.125 71.3251 18.125 72.1875C18.125 73.0499 18.8251 73.75 19.6875 73.75C20.5499 73.75 21.25 73.0499 21.25 72.1875C21.25 71.3251 20.5499 70.625 19.6875 70.625Z" fill="#0B73EB"/>
<path d="M46.25 27.5C46.25 28.363 46.9495 29.0625 47.8125 29.0625H66.5625C67.4255 29.0625 68.125 28.363 68.125 27.5C68.125 26.637 67.4255 25.9375 66.5625 25.9375H47.8125C46.9495 25.9375 46.25 26.637 46.25 27.5Z" fill="#0B73EB"/>
<path d="M66.5625 35.3125H47.8125C46.9495 35.3125 46.25 36.012 46.25 36.875C46.25 37.738 46.9495 38.4375 47.8125 38.4375H66.5625C67.4255 38.4375 68.125 37.738 68.125 36.875C68.125 36.012 67.4255 35.3125 66.5625 35.3125Z" fill="#0B73EB"/>
<path d="M41.5625 0H10.3125C6.00464 0 2.5 3.50464 2.5 7.8125V72.1875C2.5 76.4954 6.00464 80 10.3125 80H41.5625C45.8704 80 49.375 76.4954 49.375 72.1875V51.7188L54.5831 47.8125H72.8125C75.3973 47.8125 77.5 45.7098 77.5 43.125V21.25C77.5 18.6652 75.3973 16.5625 72.8125 16.5625H49.375V7.8125C49.375 3.50464 45.8704 0 41.5625 0ZM10.3125 3.125H41.5625C43.5992 3.125 45.3363 4.43115 45.9814 6.25H5.89355C6.5387 4.43115 8.27576 3.125 10.3125 3.125ZM41.5625 76.875H10.3125C7.72766 76.875 5.625 74.7723 5.625 72.1875V67.5H46.25V72.1875C46.25 74.7723 44.1473 76.875 41.5625 76.875ZM74.375 21.25V43.125C74.375 43.9868 73.6743 44.6875 72.8125 44.6875H54.0625C53.7244 44.6875 53.3954 44.7974 53.125 45L43.125 52.5V46.25C43.125 45.387 42.4255 44.6875 41.5625 44.6875H35.3125C34.4507 44.6875 33.75 43.9868 33.75 43.125V21.25C33.75 20.3882 34.4507 19.6875 35.3125 19.6875H72.8125C73.6743 19.6875 74.375 20.3882 74.375 21.25ZM35.3125 16.5625C32.7277 16.5625 30.625 18.6652 30.625 21.25V43.125C30.625 45.7098 32.7277 47.8125 35.3125 47.8125H40V55.625C40 56.217 40.3345 56.7578 40.8636 57.0227C41.3916 57.2864 42.0258 57.2308 42.5 56.875L46.25 54.0625V64.375H5.625V9.375H46.25V16.5625H35.3125Z" fill="#0B73EB"/>
<path d="M32.1875 70.625H25.9375C25.0745 70.625 24.375 71.3245 24.375 72.1875C24.375 73.0505 25.0745 73.75 25.9375 73.75H32.1875C33.0505 73.75 33.75 73.0505 33.75 72.1875C33.75 71.3245 33.0505 70.625 32.1875 70.625Z" fill="#0B73EB"/>
</g>
<defs>
<clipPath id="clip0_1232_24693">
<rect width="80" height="80" fill="white"/>
</clipPath>
</defs>
</svg>
