<svg width="22" height="26" viewBox="0 0 22 26" fill="none" xmlns="http://www.w3.org/2000/svg">
<path d="M1.36154 21.491H10.0227V22.1718H1.36154V21.491Z" fill="current"/>
<path d="M5.69212 24.479C5.13862 24.479 4.68985 24.0303 4.68985 23.4768C4.68985 22.9233 5.13862 22.4745 5.69212 22.4745C6.24562 22.4745 6.69439 22.9233 6.69439 23.4768C6.69439 24.0303 6.24562 24.479 5.69212 24.479ZM5.69212 23.1427C5.50762 23.1427 5.35803 23.2923 5.35803 23.4768C5.35803 23.6613 5.50762 23.8108 5.69212 23.8108C5.87662 23.8108 6.02621 23.6613 6.02621 23.4768C6.02621 23.2923 5.87662 23.1427 5.69212 23.1427Z" fill="current"/>
<path d="M10.7146 23.8296C10.7146 24.3831 10.2649 24.8318 9.71013 24.8318H1.67416C1.11943 24.8318 0.669664 24.3831 0.669664 23.8296V7.12504C0.669664 6.57154 1.11943 6.12277 1.67416 6.12277H2.34383V6.45686C2.34383 7.01036 2.79359 7.45913 3.34832 7.45913H6.90591C7.46064 7.45913 7.14134 8.01263 7.14134 7.45913L7.31399 6.83271L7.91041 6.12277C7.91041 6.45686 7.91041 5.86176 7.91041 5.86176V5.45459H1.67416C0.749939 5.45573 0.00114445 6.20287 0 7.12504V23.8296C0.00114445 24.7517 0.749939 25.4989 1.67416 25.5H9.71013C10.6344 25.4989 11.3831 24.7517 11.3843 23.8296V18.087H10.7146V23.8296ZM3.01349 6.12277H5.69215H7.91041L6.90591 6.79095C7.09082 6.79095 6.90591 6.97545 6.90591 6.79095H3.34832C3.16341 6.79095 3.01349 6.64136 3.01349 6.45686V6.12277Z" fill="current"/>
<path d="M5.54854 16.9971C5.70539 16.9971 5.83254 16.8699 5.83254 16.7131V15.8048L6.61909 16.2589C6.66381 16.2848 6.71266 16.297 6.76083 16.297C6.85898 16.297 6.95444 16.2461 7.00704 16.155C7.08546 16.0192 7.03892 15.8455 6.90309 15.767L6.11655 15.3129L6.90309 14.8588C7.03892 14.7804 7.08546 14.6067 7.00704 14.4709C6.92862 14.335 6.75492 14.2885 6.61909 14.3669L5.83254 14.821V13.9128C5.83254 13.7559 5.70539 13.6288 5.54854 13.6288C5.39169 13.6288 5.26453 13.7559 5.26453 13.9128V14.821L4.47799 14.3669C4.34212 14.2884 4.16846 14.335 4.09004 14.4708C4.01161 14.6067 4.05815 14.7804 4.19398 14.8588L4.98053 15.3129L4.19398 15.767C4.05815 15.8454 4.01161 16.0191 4.09004 16.155C4.14263 16.2461 4.2381 16.297 4.33625 16.297C4.38442 16.297 4.43327 16.2847 4.47799 16.2589L5.26453 15.8048V16.713C5.26453 16.8699 5.39165 16.9971 5.54854 16.9971Z" fill="current"/>
<path d="M12.7787 16.155C12.8313 16.2461 12.9268 16.2971 13.0249 16.2971C13.0731 16.2971 13.1219 16.2848 13.1667 16.259L13.9532 15.8049V16.7131C13.9532 16.8699 14.0804 16.9971 14.2372 16.9971C14.3941 16.9971 14.5212 16.8699 14.5212 16.7131V15.8048L15.3078 16.2589C15.3525 16.2848 15.4013 16.297 15.4495 16.297C15.5477 16.297 15.6431 16.2461 15.6957 16.155C15.7741 16.0192 15.7276 15.8455 15.5918 15.767L14.8052 15.3129L15.5918 14.8588C15.7276 14.7804 15.7741 14.6067 15.6957 14.4709C15.6173 14.335 15.4436 14.2885 15.3078 14.3669L14.5212 14.821V13.9128C14.5212 13.7559 14.3941 13.6288 14.2372 13.6288C14.0804 13.6288 13.9532 13.7559 13.9532 13.9128V14.821L13.1667 14.3669C13.0308 14.2884 12.8571 14.335 12.7787 14.4708C12.7003 14.6067 12.7468 14.7804 12.8827 14.8588L13.6692 15.3129L12.8827 15.767C12.7468 15.8455 12.7003 16.0192 12.7787 16.155Z" fill="current"/>
<path d="M8.43431 16.1549C8.4869 16.246 8.58237 16.297 8.68052 16.297C8.72869 16.297 8.77754 16.2847 8.82226 16.2589L9.6088 15.8048V16.713C9.6088 16.8699 9.73596 16.997 9.89281 16.997C10.0497 16.997 10.1768 16.8699 10.1768 16.713V15.8048L10.9634 16.2589C11.0081 16.2847 11.0569 16.297 11.1051 16.297C11.2032 16.297 11.2987 16.246 11.3513 16.155C11.4297 16.0191 11.3832 15.8454 11.2474 15.767L10.4608 15.3129L11.2474 14.8588C11.3832 14.7804 11.4297 14.6067 11.3513 14.4708C11.2729 14.335 11.0992 14.2884 10.9634 14.3669L10.1768 14.821V13.9128C10.1768 13.7559 10.0497 13.6288 9.89281 13.6288C9.73596 13.6288 9.6088 13.7559 9.6088 13.9128V14.821L8.82226 14.3669C8.68639 14.2884 8.51273 14.335 8.43431 14.4709C8.35588 14.6067 8.40242 14.7804 8.53825 14.8588L9.3248 15.3129L8.53825 15.767C8.40242 15.8454 8.35588 16.0191 8.43431 16.1549Z" fill="current"/>
<path d="M17.123 16.1549C17.1756 16.246 17.271 16.297 17.3692 16.297C17.4174 16.297 17.4662 16.2847 17.5109 16.2589L18.2975 15.8048V16.713C18.2975 16.8699 18.4246 16.997 18.5815 16.997C18.7383 16.997 18.8655 16.8699 18.8655 16.713V15.8048L19.652 16.2589C19.6967 16.2847 19.7456 16.297 19.7938 16.297C19.8919 16.297 19.9874 16.246 20.04 16.155C20.1184 16.0191 20.0719 15.8454 19.936 15.767L19.1495 15.3129L19.936 14.8588C20.0719 14.7804 20.1184 14.6067 20.04 14.4708C19.9615 14.335 19.7879 14.2884 19.652 14.3669L18.8655 14.821V13.9128C18.8655 13.7559 18.7383 13.6288 18.5815 13.6288C18.4246 13.6288 18.2975 13.7559 18.2975 13.9128V14.821L17.5109 14.3669C17.3751 14.2884 17.2014 14.335 17.123 14.4709C17.0446 14.6067 17.0911 14.7804 17.2269 14.8588L18.0135 15.3129L17.2269 15.767C17.0911 15.8454 17.0445 16.0191 17.123 16.1549Z" fill="current"/>
<path d="M20.5466 11.9361H17.1563V9.21796C17.1563 9.06111 17.0292 8.93395 16.8723 8.93395C16.7155 8.93395 16.5883 9.06111 16.5883 9.21796V11.9361H13.3546L13.2035 10.5935C13.3365 10.381 13.4067 10.1359 13.4067 9.88367C13.4067 9.51492 13.2526 9.15855 12.9838 8.90601C12.7112 8.64976 12.3545 8.52158 11.9798 8.54483C11.3051 8.58648 10.766 9.12712 10.7258 9.80237C10.7091 10.0829 10.7782 10.3558 10.9266 10.5938L10.7755 11.936H7.54179V7.21667C7.54179 7.04149 7.68433 6.89896 7.8595 6.89896H16.2706C16.4458 6.89896 16.5883 7.04149 16.5883 7.21667V7.8926C16.5883 8.04945 16.7155 8.17661 16.8723 8.17661C17.0292 8.17661 17.1563 8.04945 17.1563 7.8926V7.21667C17.1563 6.72829 16.759 6.33095 16.2706 6.33095H16.2259V4.66099C16.2259 3.55008 15.7931 2.50501 15.007 1.71809C14.2208 0.932682 13.176 0.500122 12.0651 0.500122C9.77078 0.500122 7.90422 2.36668 7.90422 4.66099V6.33095H7.85954C7.37116 6.33095 6.97382 6.72829 6.97382 7.21667V11.9361H3.58351C2.9214 11.9361 2.38274 12.4747 2.38274 13.1369V17.1697C2.38274 17.8319 2.9214 18.3705 3.58351 18.3705H5.54845C5.7053 18.3705 5.83246 18.2434 5.83246 18.0865C5.83246 17.9297 5.7053 17.8025 5.54845 17.8025H3.58351C3.2346 17.8025 2.95075 17.5187 2.95075 17.1697V13.1369C2.95075 12.7879 3.2346 12.5041 3.58351 12.5041H20.5466C20.8955 12.5041 21.1794 12.7879 21.1794 13.1369V17.1697C21.1794 17.5187 20.8955 17.8025 20.5466 17.8025H6.87381C6.71697 17.8025 6.58981 17.9297 6.58981 18.0865C6.58981 18.2434 6.71697 18.3705 6.87381 18.3705H20.5466C21.2087 18.3705 21.7474 17.8319 21.7474 17.1697V13.1369C21.7474 12.4747 21.2087 11.9361 20.5466 11.9361ZM13.7971 6.33095H10.333V4.66099C10.333 3.70594 11.11 2.92894 12.0651 2.92894C12.5275 2.92894 12.9625 3.10896 13.2895 3.4356C13.6168 3.76331 13.7971 4.19848 13.7971 4.66096V6.33095ZM8.4722 4.66099C8.4722 2.67988 10.0839 1.06813 12.0651 1.06813C13.0244 1.06813 13.9266 1.44166 14.6054 2.11975C15.2841 2.7992 15.6579 3.7017 15.6579 4.66099V6.33095H14.3651V4.66099C14.3651 4.0469 14.1258 3.46916 13.6911 3.03398C13.2566 2.59998 12.6791 2.36097 12.0651 2.36097C10.7968 2.36097 9.76499 3.39278 9.76499 4.66103V6.33099H8.4722V4.66099ZM11.4141 10.3019C11.3249 10.1631 11.2829 10.0021 11.2928 9.83618C11.3156 9.45357 11.6327 9.13537 12.0149 9.11178C12.2316 9.09838 12.4377 9.17222 12.5949 9.31994C12.7521 9.4677 12.8387 9.6679 12.8387 9.88367C12.8387 10.0326 12.7964 10.177 12.7162 10.3013C12.6523 10.4005 12.624 10.5192 12.6367 10.6368L12.7829 11.9361H11.3471L11.4935 10.6355C11.5061 10.5187 11.4777 10.3998 11.4141 10.3019Z" fill="current"/>
</svg>
