<svg width="95" height="94" viewBox="0 0 95 94" fill="none" xmlns="http://www.w3.org/2000/svg">
    <path d="M85.2812 17.625H8.90625C7.73764 17.625 6.61689 18.0892 5.79056 18.9156C4.96423 19.7419 4.5 20.8626 4.5 22.0312V71.9688C4.5 73.1374 4.96423 74.2581 5.79056 75.0844C6.61689 75.9108 7.73764 76.375 8.90625 76.375H85.2812C86.4499 76.375 87.5706 75.9108 88.3969 75.0844C89.2233 74.2581 89.6875 73.1374 89.6875 71.9688V22.0312C89.6875 20.8626 89.2233 19.7419 88.3969 18.9156C87.5706 18.0892 86.4499 17.625 85.2812 17.625ZM7.4375 32.3125H86.75V35.25H7.4375V32.3125ZM8.90625 20.5625H85.2812C85.6708 20.5625 86.0444 20.7172 86.3198 20.9927C86.5953 21.2681 86.75 21.6417 86.75 22.0312V29.375H7.4375V22.0312C7.4375 21.6417 7.59224 21.2681 7.86769 20.9927C8.14313 20.7172 8.51671 20.5625 8.90625 20.5625ZM85.2812 73.4375H8.90625C8.51671 73.4375 8.14313 73.2828 7.86769 73.0073C7.59224 72.7319 7.4375 72.3583 7.4375 71.9688V38.1875H86.75V71.9688C86.75 72.3583 86.5953 72.7319 86.3198 73.0073C86.0444 73.2828 85.6708 73.4375 85.2812 73.4375Z" fill="#4B7DF3"/>
    <path d="M66.5589 58.5469H63.4482C63.3913 58.1444 63.2753 57.7869 63.1001 57.4744C62.925 57.1572 62.7 56.8873 62.4254 56.6648C62.1508 56.4422 61.8336 56.2718 61.4737 56.1534C61.1186 56.035 60.7327 55.9759 60.3161 55.9759C59.5632 55.9759 58.9074 56.1629 58.3487 56.5369C57.79 56.9062 57.3568 57.446 57.049 58.1562C56.7412 58.8617 56.5874 59.7187 56.5874 60.7273C56.5874 61.7642 56.7412 62.6354 57.049 63.3409C57.3615 64.0464 57.7971 64.5791 58.3558 64.9389C58.9145 65.2988 59.5608 65.4787 60.2947 65.4787C60.7067 65.4787 61.0878 65.4242 61.4382 65.3153C61.7933 65.2064 62.1082 65.0478 62.3828 64.8395C62.6574 64.6264 62.8847 64.3684 63.0646 64.0653C63.2493 63.7623 63.3771 63.4167 63.4482 63.0284L66.5589 63.0426C66.4785 63.7102 66.2772 64.3542 65.9553 64.9744C65.638 65.59 65.2095 66.1416 64.6697 66.6293C64.1347 67.1122 63.4955 67.4957 62.7521 67.7798C62.0135 68.0592 61.1778 68.1989 60.245 68.1989C58.9477 68.1989 57.7876 67.9053 56.7649 67.3182C55.7469 66.7311 54.942 65.8812 54.3501 64.7685C53.763 63.6558 53.4695 62.3087 53.4695 60.7273C53.4695 59.1411 53.7678 57.7917 54.3643 56.679C54.9609 55.5663 55.7706 54.7187 56.7933 54.1364C57.8161 53.5492 58.9666 53.2557 60.245 53.2557C61.0878 53.2557 61.8691 53.3741 62.5888 53.6108C63.3132 53.8475 63.9548 54.1932 64.5135 54.6477C65.0722 55.0975 65.5268 55.6491 65.8771 56.3026C66.2322 56.956 66.4595 57.7041 66.5589 58.5469ZM81.598 58.5469H78.4872C78.4304 58.1444 78.3144 57.7869 78.1392 57.4744C77.964 57.1572 77.7391 56.8873 77.4645 56.6648C77.1899 56.4422 76.8726 56.2718 76.5128 56.1534C76.1577 56.035 75.7718 55.9759 75.3551 55.9759C74.6023 55.9759 73.9465 56.1629 73.3878 56.5369C72.8291 56.9062 72.3958 57.446 72.0881 58.1562C71.7803 58.8617 71.6264 59.7187 71.6264 60.7273C71.6264 61.7642 71.7803 62.6354 72.0881 63.3409C72.4006 64.0464 72.8362 64.5791 73.3949 64.9389C73.9536 65.2988 74.5999 65.4787 75.3338 65.4787C75.7457 65.4787 76.1269 65.4242 76.4773 65.3153C76.8324 65.2064 77.1473 65.0478 77.4219 64.8395C77.6965 64.6264 77.9238 64.3684 78.1037 64.0653C78.2884 63.7623 78.4162 63.4167 78.4872 63.0284L81.598 63.0426C81.5175 63.7102 81.3163 64.3542 80.9943 64.9744C80.6771 65.59 80.2486 66.1416 79.7088 66.6293C79.1738 67.1122 78.5346 67.4957 77.7912 67.7798C77.0526 68.0592 76.2169 68.1989 75.2841 68.1989C73.9867 68.1989 72.8267 67.9053 71.804 67.3182C70.786 66.7311 69.9811 65.8812 69.3892 64.7685C68.8021 63.6558 68.5085 62.3087 68.5085 60.7273C68.5085 59.1411 68.8068 57.7917 69.4034 56.679C70 55.5663 70.8097 54.7187 71.8324 54.1364C72.8551 53.5492 74.0057 53.2557 75.2841 53.2557C76.1269 53.2557 76.9081 53.3741 77.6278 53.6108C78.3523 53.8475 78.9938 54.1932 79.5526 54.6477C80.1113 55.0975 80.5658 55.6491 80.9162 56.3026C81.2713 56.956 81.4986 57.7041 81.598 58.5469Z" fill="#4B7DF3"/>
    <path d="M32.8125 57.2812H15.1875C14.798 57.2812 14.4244 57.436 14.1489 57.7114C13.8735 57.9869 13.7188 58.3605 13.7188 58.75C13.7188 59.1395 13.8735 59.5131 14.1489 59.7886C14.4244 60.064 14.798 60.2188 15.1875 60.2188H32.8125C33.202 60.2188 33.5756 60.064 33.8511 59.7886C34.1265 59.5131 34.2812 59.1395 34.2812 58.75C34.2812 58.3605 34.1265 57.9869 33.8511 57.7114C33.5756 57.436 33.202 57.2812 32.8125 57.2812Z" fill="#4B7DF3"/>
    <path d="M32.8125 64.625H15.1875C14.798 64.625 14.4244 64.7797 14.1489 65.0552C13.8735 65.3306 13.7188 65.7042 13.7188 66.0938C13.7188 66.4833 13.8735 66.8569 14.1489 67.1323C14.4244 67.4078 14.798 67.5625 15.1875 67.5625H32.8125C33.202 67.5625 33.5756 67.4078 33.8511 67.1323C34.1265 66.8569 34.2812 66.4833 34.2812 66.0938C34.2812 65.7042 34.1265 65.3306 33.8511 65.0552C33.5756 64.7797 33.202 64.625 32.8125 64.625Z" fill="#4B7DF3"/>
</svg>
