<svg width="95" height="94" viewBox="0 0 95 94" fill="none" xmlns="http://www.w3.org/2000/svg">
    <path d="M85.2812 17.625H8.90625C7.73764 17.625 6.61689 18.0892 5.79056 18.9156C4.96423 19.7419 4.5 20.8626 4.5 22.0312V71.9688C4.5 73.1374 4.96423 74.2581 5.79056 75.0844C6.61689 75.9108 7.73764 76.375 8.90625 76.375H85.2812C86.4499 76.375 87.5706 75.9108 88.3969 75.0844C89.2233 74.2581 89.6875 73.1374 89.6875 71.9688V22.0312C89.6875 20.8626 89.2233 19.7419 88.3969 18.9156C87.5706 18.0892 86.4499 17.625 85.2812 17.625ZM7.4375 32.3125H86.75V35.25H7.4375V32.3125ZM8.90625 20.5625H85.2812C85.6708 20.5625 86.0444 20.7172 86.3198 20.9927C86.5953 21.2681 86.75 21.6417 86.75 22.0312V29.375H7.4375V22.0312C7.4375 21.6417 7.59224 21.2681 7.86769 20.9927C8.14313 20.7172 8.51671 20.5625 8.90625 20.5625ZM85.2812 73.4375H8.90625C8.51671 73.4375 8.14313 73.2828 7.86769 73.0073C7.59224 72.7319 7.4375 72.3583 7.4375 71.9688V38.1875H86.75V71.9688C86.75 72.3583 86.5953 72.7319 86.3198 73.0073C86.0444 73.2828 85.6708 73.4375 85.2812 73.4375Z" fill="#4B7DF3"/>
    <path d="M32.8125 57.2812H15.1875C14.798 57.2812 14.4244 57.436 14.1489 57.7114C13.8735 57.9869 13.7188 58.3605 13.7188 58.75C13.7188 59.1395 13.8735 59.5131 14.1489 59.7886C14.4244 60.064 14.798 60.2188 15.1875 60.2188H32.8125C33.202 60.2188 33.5756 60.064 33.8511 59.7886C34.1265 59.5131 34.2812 59.1395 34.2812 58.75C34.2812 58.3605 34.1265 57.9869 33.8511 57.7114C33.5756 57.436 33.202 57.2812 32.8125 57.2812Z" fill="#4B7DF3"/>
    <path d="M32.8125 64.625H15.1875C14.798 64.625 14.4244 64.7797 14.1489 65.0552C13.8735 65.3306 13.7188 65.7042 13.7188 66.0938C13.7188 66.4833 13.8735 66.8569 14.1489 67.1323C14.4244 67.4078 14.798 67.5625 15.1875 67.5625H32.8125C33.202 67.5625 33.5756 67.4078 33.8511 67.1323C34.1265 66.8569 34.2812 66.4833 34.2812 66.0938C34.2812 65.7042 34.1265 65.3306 33.8511 65.0552C33.5756 64.7797 33.202 64.625 32.8125 64.625Z" fill="#4B7DF3"/>
</svg>
