<svg width="19" height="20" viewBox="0 0 19 20" fill="none" xmlns="http://www.w3.org/2000/svg">
<path d="M16.8191 15.6278C16.8719 15.6717 16.9359 15.693 16.9996 15.693C17.0805 15.693 17.1608 15.6585 17.2166 15.5914C17.3162 15.4717 17.2999 15.2937 17.1802 15.1941L12.6808 11.4479C12.5611 11.3482 12.3831 11.3644 12.2834 11.4842C12.1836 11.6039 12.1999 11.7819 12.3197 11.8816L16.8191 15.6278Z" fill="current"/>
<path d="M2.00073 15.6929C2.06437 15.6929 2.12844 15.6716 2.18106 15.6277L6.68057 11.8814C6.8003 11.7818 6.81654 11.6038 6.71681 11.4841C6.61722 11.3642 6.43921 11.3479 6.31948 11.4477L1.82011 15.194C1.70023 15.2937 1.68399 15.4716 1.78373 15.5913C1.83953 15.6584 1.91984 15.6929 2.00073 15.6929Z" fill="current"/>
<path d="M16.8962 2.91211H15.7864C15.6304 2.91211 15.5042 3.03851 15.5042 3.19434C15.5042 3.35017 15.6304 3.47643 15.7864 3.47643H16.8962C17.7213 3.47643 18.3967 4.12889 18.4338 4.94501L11.4509 10.759C10.3206 11.7005 8.67953 11.7005 7.54886 10.7589L0.566208 4.94472C0.603462 4.12889 1.27882 3.47643 2.10378 3.47643H14.6576C14.8135 3.47643 14.9399 3.35017 14.9399 3.19434C14.9399 3.03851 14.8135 2.91211 14.6576 2.91211H2.10378C0.943825 2.91211 0 3.85593 0 5.01589V11.7476C0 11.9035 0.126404 12.0297 0.282234 12.0297C0.438065 12.0297 0.564323 11.9035 0.564323 11.7476V5.67763L7.18777 11.1926C7.85777 11.7505 8.67881 12.0294 9.50014 12.0294C10.321 12.0294 11.1424 11.7505 11.8121 11.1926L18.4357 5.67777V15.0718C18.4357 15.8921 17.7683 16.5595 16.9478 16.5595H2.05218C1.23171 16.5595 0.564323 15.8921 0.564323 15.0718V12.8764C0.564323 12.7206 0.438065 12.5942 0.282234 12.5942C0.126404 12.5942 0 12.7206 0 12.8764V15.0718C0 16.2034 0.920631 17.1238 2.05218 17.1238H16.9478C18.0794 17.1238 19 16.2034 19 15.0718V5.01589C19 3.85593 18.0562 2.91211 16.8962 2.91211Z" fill="current"/>
</svg>
