<svg width="40" height="40" viewBox="0 0 40 40" fill="none" xmlns="http://www.w3.org/2000/svg">
<g clip-path="url(#clip0_1234_25103)">
<path d="M35.8333 35H4.16667C1.87 35 0 33.13 0 30.8333V9.16667C0 6.87 1.87 5 4.16667 5H35.8333C38.13 5 40 6.87 40 9.16667V30.8333C40 33.13 38.13 35 35.8333 35ZM4.16667 6.66667C2.78833 6.66667 1.66667 7.78833 1.66667 9.16667V30.8333C1.66667 32.2117 2.78833 33.3333 4.16667 33.3333H35.8333C37.2117 33.3333 38.3333 32.2117 38.3333 30.8333V9.16667C38.3333 7.78833 37.2117 6.66667 35.8333 6.66667H4.16667Z" fill="#0B73EB"/>
<path d="M12.5002 20.0003C10.2035 20.0003 8.3335 18.1303 8.3335 15.8337C8.3335 13.537 10.2035 11.667 12.5002 11.667C14.7968 11.667 16.6668 13.537 16.6668 15.8337C16.6668 18.1303 14.7968 20.0003 12.5002 20.0003ZM12.5002 13.3337C11.1218 13.3337 10.0002 14.4553 10.0002 15.8337C10.0002 17.212 11.1218 18.3337 12.5002 18.3337C13.8785 18.3337 15.0002 17.212 15.0002 15.8337C15.0002 14.4553 13.8785 13.3337 12.5002 13.3337Z" fill="#0B73EB"/>
<path d="M19.1667 28.3337C18.7067 28.3337 18.3333 27.9603 18.3333 27.5003V25.8337C18.3333 24.4553 17.2117 23.3337 15.8333 23.3337H9.16667C7.78833 23.3337 6.66667 24.4553 6.66667 25.8337V27.5003C6.66667 27.9603 6.29333 28.3337 5.83333 28.3337C5.37333 28.3337 5 27.9603 5 27.5003V25.8337C5 23.537 6.87 21.667 9.16667 21.667H15.8333C18.13 21.667 20 23.537 20 25.8337V27.5003C20 27.9603 19.6267 28.3337 19.1667 28.3337Z" fill="#0B73EB"/>
<path d="M34.1668 14.9997H24.1668C23.7068 14.9997 23.3335 14.6263 23.3335 14.1663C23.3335 13.7063 23.7068 13.333 24.1668 13.333H34.1668C34.6268 13.333 35.0002 13.7063 35.0002 14.1663C35.0002 14.6263 34.6268 14.9997 34.1668 14.9997Z" fill="#0B73EB"/>
<path d="M34.1668 21.6667H24.1668C23.7068 21.6667 23.3335 21.2933 23.3335 20.8333C23.3335 20.3733 23.7068 20 24.1668 20H34.1668C34.6268 20 35.0002 20.3733 35.0002 20.8333C35.0002 21.2933 34.6268 21.6667 34.1668 21.6667Z" fill="#0B73EB"/>
<path d="M34.1668 28.3337H24.1668C23.7068 28.3337 23.3335 27.9603 23.3335 27.5003C23.3335 27.0403 23.7068 26.667 24.1668 26.667H34.1668C34.6268 26.667 35.0002 27.0403 35.0002 27.5003C35.0002 27.9603 34.6268 28.3337 34.1668 28.3337Z" fill="#0B73EB"/>
</g>
<defs>
<clipPath id="clip0_1234_25103">
<rect width="40" height="40" fill="white"/>
</clipPath>
</defs>
</svg>
