<svg width="26" height="26" viewBox="0 0 26 26" fill="none" xmlns="http://www.w3.org/2000/svg">
<circle cx="13" cy="13" r="12.5" fill="white" stroke="#18214D"/>
<circle cx="11.5" cy="11.5" r="11" fill="#A8C5F2" stroke="#18214D"/>
<path d="M12.786 9.783V17H10.854V9.783H12.786ZM13.017 7.732C13.017 7.89533 12.9843 8.047 12.919 8.187C12.8537 8.327 12.765 8.45067 12.653 8.558C12.5457 8.66533 12.4173 8.74933 12.268 8.81C12.1233 8.87067 11.967 8.901 11.799 8.901C11.6403 8.901 11.4887 8.87067 11.344 8.81C11.204 8.74933 11.0803 8.66533 10.973 8.558C10.8657 8.45067 10.7793 8.327 10.714 8.187C10.6533 8.047 10.623 7.89533 10.623 7.732C10.623 7.56867 10.6533 7.417 10.714 7.277C10.7793 7.13233 10.8657 7.00633 10.973 6.899C11.0803 6.79167 11.204 6.70767 11.344 6.647C11.4887 6.58633 11.6403 6.556 11.799 6.556C11.967 6.556 12.1233 6.58633 12.268 6.647C12.4173 6.70767 12.5457 6.79167 12.653 6.899C12.765 7.00633 12.8537 7.13233 12.919 7.277C12.9843 7.417 13.017 7.56867 13.017 7.732Z" fill="black"/>
</svg>
