<svg width="18" height="18" viewBox="0 0 18 18" fill="none" xmlns="http://www.w3.org/2000/svg">
<path d="M13.2188 13.7812C14.1507 13.7812 14.9062 13.0257 14.9062 12.0938C14.9062 11.1618 14.1507 10.4062 13.2188 10.4062C12.2868 10.4062 11.5312 11.1618 11.5312 12.0938C11.5312 13.0257 12.2868 13.7812 13.2188 13.7812Z" stroke="#current" stroke-width="1.5" stroke-linecap="round" stroke-linejoin="round"/>
<path d="M11.0391 15.4683C11.163 14.9843 11.4445 14.5553 11.8391 14.249C12.2338 13.9426 12.7192 13.7764 13.2188 13.7764C13.7183 13.7764 14.2037 13.9426 14.5984 14.249C14.993 14.5553 15.2745 14.9843 15.3984 15.4683" stroke="#current" stroke-width="1.5" stroke-linecap="round" stroke-linejoin="round"/>
<path d="M8.4375 14.625H2.8125C2.66332 14.625 2.52024 14.5657 2.41475 14.4602C2.30926 14.3548 2.25 14.2117 2.25 14.0625V4.5C2.25 4.35082 2.30926 4.20774 2.41475 4.10225C2.52024 3.99676 2.66332 3.9375 2.8125 3.9375H6.56016C6.68178 3.938 6.80005 3.97742 6.89766 4.05L8.85234 5.5125C8.94995 5.58508 9.06822 5.6245 9.18984 5.625H15.1875C15.3367 5.625 15.4798 5.68426 15.5852 5.78975C15.6907 5.89524 15.75 6.03832 15.75 6.1875V8.4375" stroke="#current" stroke-width="1.5" stroke-linecap="round" stroke-linejoin="round"/>
</svg>
