<svg width="48" height="34" viewBox="0 0 48 34" fill="none" xmlns="http://www.w3.org/2000/svg">
<path d="M26.2952 5.22852H5.46111C4.65571 5.22852 4.00049 5.88373 4.00049 6.68914V8.96164C4.00049 9.76705 4.65571 10.4223 5.46111 10.4223H14.2375C14.6258 10.4223 14.9406 10.1075 14.9406 9.71914C14.9406 9.33083 14.6258 9.01602 14.2375 9.01602H5.46111C5.43064 9.01602 5.40674 8.99211 5.40674 8.96164V6.68914C5.40674 6.65867 5.43064 6.63477 5.46111 6.63477H26.2952C26.3256 6.63477 26.3496 6.65867 26.3496 6.68914V8.96164C26.3496 8.99267 26.3261 9.01602 26.2952 9.01602H17.5188C17.1305 9.01602 16.8156 9.33083 16.8156 9.71914C16.8156 10.1075 17.1305 10.4223 17.5188 10.4223H26.2952C27.1006 10.4223 27.7558 9.76705 27.7558 8.96164V6.68914C27.7558 5.88373 27.1006 5.22852 26.2952 5.22852Z" fill="#677489"/>
<path d="M4.70312 17.999H7.54422C7.93253 17.999 8.24734 17.6842 8.24734 17.2959C8.24734 16.9076 7.93253 16.5928 7.54422 16.5928H4.70312C4.31481 16.5928 4 16.9076 4 17.2959C4 17.6842 4.31481 17.999 4.70312 17.999Z" fill="#677489"/>
<path d="M10.5747 17.999H19.4767C19.865 17.999 20.1799 17.6842 20.1799 17.2959C20.1799 16.9076 19.865 16.5928 19.4767 16.5928H10.5747C10.1864 16.5928 9.87158 16.9076 9.87158 17.2959C9.87158 17.6842 10.1864 17.999 10.5747 17.999Z" fill="#677489"/>
<path d="M10.5747 14.2109H19.4767C19.865 14.2109 20.1799 13.8961 20.1799 13.5078C20.1799 13.1195 19.865 12.8047 19.4767 12.8047H10.5747C10.1864 12.8047 9.87158 13.1195 9.87158 13.5078C9.87158 13.8961 10.1864 14.2109 10.5747 14.2109Z" fill="#677489"/>
<path d="M4.70312 14.2109H7.54422C7.93253 14.2109 8.24734 13.8961 8.24734 13.5078C8.24734 13.1195 7.93253 12.8047 7.54422 12.8047H4.70312C4.31481 12.8047 4 13.1195 4 13.5078C4 13.8961 4.31481 14.2109 4.70312 14.2109Z" fill="#677489"/>
<path d="M4.70312 21.7871H11.1429C11.5312 21.7871 11.846 21.4723 11.846 21.084C11.846 20.6957 11.5312 20.3809 11.1429 20.3809H4.70312C4.31481 20.3809 4 20.6957 4 21.084C4 21.4723 4.31481 21.7871 4.70312 21.7871Z" fill="#677489"/>
<path d="M41.3378 26H38.6622C38.2965 26 38 25.7761 38 25.5C38 25.2239 38.2965 25 38.6622 25H41.3378C41.7035 25 42 25.2239 42 25.5C42 25.7761 41.7035 26 41.3378 26Z" fill="#677489"/>
<path d="M36.3861 26H28.6139C28.2749 26 28 25.7761 28 25.5C28 25.2239 28.2749 25 28.6139 25H36.3861C36.7251 25 37 25.2239 37 25.5C37 25.7761 36.7251 26 36.3861 26Z" fill="#677489"/>
<path d="M36.3861 22H28.6139C28.2749 22 28 21.7761 28 21.5C28 21.2239 28.2749 21 28.6139 21H36.3861C36.7251 21 37 21.2239 37 21.5C37 21.7761 36.7251 22 36.3861 22Z" fill="#677489"/>
<path d="M41.3378 22H38.6622C38.2965 22 38 21.7761 38 21.5C38 21.2239 38.2965 21 38.6622 21H41.3378C41.7035 21 42 21.2239 42 21.5C42 21.7761 41.7035 22 41.3378 22Z" fill="#677489"/>
<path d="M41.3727 30H35.6273C35.2809 30 35 29.5523 35 29C35 28.4477 35.2809 28 35.6273 28H41.3727C41.7191 28 42 28.4477 42 29C42 29.5523 41.7191 30 41.3727 30Z" fill="#677489"/>
<path d="M39.6094 32.3966H3.54375C2.36512 32.3966 1.40625 31.4374 1.40625 30.2582V3.74195C1.40625 2.56277 2.36512 1.60352 3.54375 1.60352H5.10938C5.49769 1.60352 5.8125 1.2887 5.8125 0.900391C5.8125 0.512078 5.49769 0.197266 5.10938 0.197266H3.54375C1.58972 0.197266 0 1.78736 0 3.74195V30.2582C0 32.2128 1.58972 33.8029 3.54375 33.8029H39.6094C39.9977 33.8029 40.3125 33.4881 40.3125 33.0998C40.3125 32.7115 39.9977 32.3966 39.6094 32.3966Z" fill="#677489"/>
<path d="M44.4563 0.197266H8.39062C8.00231 0.197266 7.6875 0.512078 7.6875 0.900391C7.6875 1.2887 8.00231 1.60352 8.39062 1.60352H44.4563C45.6349 1.60352 46.5938 2.56277 46.5938 3.74195V30.2582C46.5938 31.4374 45.6349 32.3966 44.4563 32.3966H42.8906C42.5023 32.3966 42.1875 32.7115 42.1875 33.0998C42.1875 33.4881 42.5023 33.8029 42.8906 33.8029H44.4563C46.4103 33.8029 48 32.2128 48 30.2582V3.74195C48 1.78736 46.4103 0.197266 44.4563 0.197266Z" fill="#677489"/>
</svg>
