<svg width="20" height="21" viewBox="0 0 20 21" fill="none" xmlns="http://www.w3.org/2000/svg">
<path d="M10 13C11.7259 13 13.125 11.6009 13.125 9.875C13.125 8.14911 11.7259 6.75 10 6.75C8.27411 6.75 6.875 8.14911 6.875 9.875C6.875 11.6009 8.27411 13 10 13Z" stroke="#111729" stroke-width="1.5" stroke-miterlimit="10"/>
<path d="M4.98438 16.0786C5.45462 15.1524 6.17216 14.3744 7.05745 13.831C7.94275 13.2876 8.96123 13 10 13C11.0388 13 12.0572 13.2876 12.9425 13.831C13.8278 14.3744 14.5454 15.1524 15.0156 16.0786" stroke="#111729" stroke-width="1.5" stroke-linecap="round" stroke-linejoin="round"/>
<path d="M13.75 4.875H17.5" stroke="#111729" stroke-width="1.5" stroke-linecap="round" stroke-linejoin="round"/>
<path d="M15.625 3V6.75" stroke="#111729" stroke-width="1.5" stroke-linecap="round" stroke-linejoin="round"/>
<path d="M17.4063 9.32033C17.4694 9.71037 17.5008 10.1049 17.5 10.5C17.5 11.9834 17.0601 13.4334 16.236 14.6668C15.4119 15.9002 14.2406 16.8615 12.8701 17.4291C11.4997 17.9968 9.99168 18.1453 8.53683 17.8559C7.08197 17.5665 5.7456 16.8522 4.6967 15.8033C3.64781 14.7544 2.9335 13.418 2.64411 11.9632C2.35472 10.5083 2.50325 9.00033 3.07091 7.62989C3.63856 6.25944 4.59986 5.0881 5.83323 4.26399C7.0666 3.43988 8.51664 3.00001 10 3.00001C10.3951 2.99924 10.7897 3.03059 11.1797 3.09376" stroke="#111729" stroke-width="1.5" stroke-linecap="round" stroke-linejoin="round"/>
</svg>
