<svg width="38" height="38" viewBox="0 0 38 38" fill="none" xmlns="http://www.w3.org/2000/svg">
<g clip-path="url(#clip0_4274_70921)">
<path d="M37.9301 9.01093C37.7994 8.52457 37.4803 8.10995 37.0437 7.85857C36.6068 7.60596 36.0874 7.53763 35.6001 7.66842C35.1134 7.79952 34.6988 8.11829 34.4474 8.55487L34.1308 9.10585C33.83 8.93302 33.4456 9.03474 33.2697 9.33404L31.6613 12.0756L31.1103 11.759C30.9644 11.6746 30.7906 11.6517 30.628 11.6956C30.465 11.7399 30.3265 11.8468 30.2427 11.9934C30.0711 12.2961 30.1756 12.6807 30.4771 12.8545L31.0281 13.1711L25.6456 22.4985L24.3158 26.0511L23.6826 27.235C23.3119 27.88 23.3514 28.6817 23.784 29.2868L22.3592 31.0344L21.9604 30.0341C21.7804 29.5883 21.3639 29.2828 20.885 29.2454C20.4058 29.2077 19.9466 29.4445 19.6996 29.8567L19.4717 30.2428L19.2565 27.7099C19.207 27.1107 18.7429 26.629 18.1462 26.5567C17.5491 26.4846 16.9839 26.8424 16.7932 27.4125L15.2354 32.0856C15.1266 32.4162 15.3047 32.7723 15.6343 32.8837C15.6961 32.9124 15.7626 32.9297 15.8306 32.9341C16.1027 32.935 16.3451 32.7615 16.4323 32.5037L17.9835 27.8305L18.2052 30.4012C18.251 30.9497 18.6452 31.4057 19.1814 31.53C19.7175 31.6543 20.2722 31.4181 20.5545 30.9459L20.7888 30.5595L21.1815 31.5538C21.3482 31.9728 21.7251 32.2718 22.1712 32.3382C22.6174 32.4047 23.0651 32.2288 23.3471 31.8766L24.8226 30.0088C24.9858 30.0515 25.154 30.0728 25.3228 30.0722C26.0015 30.0774 26.6316 29.72 26.9755 29.1347L27.6087 28.0773L30.0213 25.1455L35.4606 15.704L36.0116 16.0206C36.1585 16.1047 36.2655 16.2436 36.3091 16.4071C36.353 16.5694 36.3301 16.7426 36.246 16.8882L33.7131 21.2766C33.6175 21.4207 33.5851 21.5975 33.6234 21.7663C33.6618 21.9349 33.7672 22.0805 33.9156 22.1692C34.0615 22.2539 34.2353 22.2768 34.3979 22.2329C34.5609 22.1887 34.6994 22.0817 34.7832 21.9352L37.3161 17.5468C37.5687 17.1099 37.637 16.5905 37.5059 16.1032C37.3748 15.6165 37.0561 15.2019 36.6195 14.9505L36.0685 14.6339L37.6516 11.892C37.8244 11.5911 37.7227 11.2071 37.4237 11.0309L37.7403 10.4799C37.9997 10.0362 38.0684 9.50626 37.9301 9.01093ZM35.5429 9.1881C35.6267 9.04154 35.7658 8.93425 35.9294 8.89066C36.092 8.85046 36.2639 8.87303 36.4105 8.95404C36.5573 9.03783 36.6643 9.17697 36.7082 9.34022C36.7484 9.50286 36.7258 9.67477 36.6448 9.82132L36.3282 10.3723L35.2263 9.73908L35.5429 9.1881ZM26.9121 26.868L26.5955 26.6844L25.6583 26.1396L26.5574 23.7334L28.552 24.8858L26.9121 26.868ZM25.0124 28.6978C24.745 28.5114 24.6627 28.1527 24.8226 27.8682L25.1392 27.3176L26.2408 27.9508L25.9242 28.4953C25.8355 28.6493 25.6864 28.7587 25.513 28.7974C25.3395 28.8357 25.158 28.7998 25.0124 28.6978ZM29.274 23.8475L27.0831 22.5811L32.1489 13.8043L34.3398 15.0708L29.274 23.8475ZM34.973 13.9753L32.7821 12.7089L34.0485 10.5179L36.2395 11.7844L34.973 13.9753Z" fill="#677489"/>
<path d="M9.99217 28.3812L7.75083 30.6167L6.40832 29.2741C6.16128 29.0286 5.76242 29.0286 5.51537 29.2741C5.39541 29.3932 5.328 29.5549 5.328 29.7237C5.328 29.8925 5.39541 30.0545 5.51537 30.1733L6.85789 31.5158C7.09535 31.7514 7.41629 31.8834 7.75083 31.8831C8.08723 31.885 8.41096 31.7529 8.64996 31.5158L10.8851 29.2741C11.1003 29.0228 11.0858 28.6483 10.852 28.4146C10.618 28.1805 10.2435 28.166 9.99217 28.3812Z" fill="#677489"/>
<path d="M2.5329 30.0845C2.5329 33.0574 4.94274 35.4669 7.91531 35.4669C10.8879 35.4669 13.2977 33.0574 13.2977 30.0845C13.2977 29.7348 13.0142 29.4513 12.6645 29.4513C12.3148 29.4513 12.0313 29.7348 12.0313 30.0845C12.0313 32.3577 10.1885 34.2005 7.91531 34.2005C5.64213 34.2005 3.79935 32.3577 3.79935 30.0845C3.79935 27.8113 5.64213 25.9686 7.91531 25.9686C8.80641 25.9661 9.67369 26.2552 10.3848 26.7919C10.6647 27.0019 11.0617 26.945 11.2713 26.6652C11.4812 26.3854 11.4246 25.9887 11.1448 25.7787C9.51384 24.5556 7.33156 24.3589 5.50825 25.2704C3.68464 26.1822 2.5329 28.046 2.5329 30.0845Z" fill="#677489"/>
<path d="M22.7961 5.07213C23.1458 5.07213 23.4293 4.78891 23.4293 4.4389C23.4293 4.08921 23.1458 3.80568 22.7961 3.80568H6.33226C5.98256 3.80568 5.69904 4.08921 5.69904 4.4389V6.97181C5.69904 7.32181 5.98256 7.60503 6.33226 7.60503H22.7961C23.1458 7.60503 23.4293 7.32181 23.4293 6.97181C23.4293 6.62211 23.1458 6.33858 22.7961 6.33858H6.96549V5.07213H22.7961Z" fill="#677489"/>
<path d="M8.23192 8.87149C7.88222 8.87149 7.59869 9.15502 7.59869 9.50472C7.59869 9.85472 7.88222 10.1379 8.23192 10.1379H20.8964C21.2461 10.1379 21.5297 9.85472 21.5297 9.50472C21.5297 9.15502 21.2461 8.87149 20.8964 8.87149H8.23192Z" fill="#677489"/>
<path d="M24.6958 13.3041H10.7648C10.4151 13.3041 10.1316 13.5876 10.1316 13.9373C10.1316 14.2873 10.4151 14.5705 10.7648 14.5705H24.6958C25.0455 14.5705 25.329 14.2873 25.329 13.9373C25.329 13.5876 25.0455 13.3041 24.6958 13.3041Z" fill="#677489"/>
<path d="M18.3635 17.7366C18.3635 17.387 18.08 17.1034 17.7303 17.1034H5.06578C4.71609 17.1034 4.43256 17.387 4.43256 17.7366C4.43256 18.0867 4.71609 18.3699 5.06578 18.3699H17.7303C18.08 18.3699 18.3635 18.0867 18.3635 17.7366Z" fill="#677489"/>
<path d="M24.6958 17.1034H20.2632C19.9135 17.1034 19.63 17.387 19.63 17.7366C19.63 18.0867 19.9135 18.3699 20.2632 18.3699H24.6958C25.0455 18.3699 25.329 18.0867 25.329 17.7366C25.329 17.387 25.0455 17.1034 24.6958 17.1034Z" fill="#677489"/>
<path d="M11.398 21.536C11.7477 21.536 12.0313 21.2528 12.0313 20.9028C12.0313 20.5531 11.7477 20.2695 11.398 20.2695H5.06578C4.71609 20.2695 4.43256 20.5531 4.43256 20.9028C4.43256 21.2528 4.71609 21.536 5.06578 21.536H11.398Z" fill="#677489"/>
<path d="M13.931 21.536H18.3635C18.7132 21.536 18.9968 21.2528 18.9968 20.9028C18.9968 20.5531 18.7132 20.2695 18.3635 20.2695H13.931C13.5813 20.2695 13.2977 20.5531 13.2977 20.9028C13.2977 21.2528 13.5813 21.536 13.931 21.536Z" fill="#677489"/>
<path d="M28.4951 29.1347C28.1455 29.1347 27.8619 29.4182 27.8619 29.7679V36.1002C27.8619 36.4502 27.5784 36.7334 27.2287 36.7334H1.89968C1.54998 36.7334 1.26645 36.4502 1.26645 36.1002V1.90601C1.26645 1.55631 1.54998 1.27278 1.89968 1.27278H27.2287C27.5784 1.27278 27.8619 1.55631 27.8619 1.90601V13.7982C27.8619 14.1479 28.1455 14.4314 28.4951 14.4314C28.8448 14.4314 29.1284 14.1479 29.1284 13.7982V1.90601C29.1284 0.85692 28.2778 0.0063324 27.2287 0.0063324H1.89968C0.850588 0.0063324 0 0.85692 0 1.90601V36.1002C0 37.1496 0.850588 37.9999 1.89968 37.9999H27.2287C28.2778 37.9999 29.1284 37.1496 29.1284 36.1002V29.7679C29.1284 29.4182 28.8448 29.1347 28.4951 29.1347Z" fill="#677489"/>
</g>
<defs>
<clipPath id="clip0_4274_70921">
<rect width="38" height="38" fill="white"/>
</clipPath>
</defs>
</svg>
