<svg width="18" height="18" viewBox="0 0 18 18" fill="none" xmlns="http://www.w3.org/2000/svg">
<path d="M1.125 8.4375H16.875" stroke="current" stroke-width="1.5" stroke-linecap="round" stroke-linejoin="round"/>
<path d="M15.75 12.9375V14.625C15.75 14.7742 15.6907 14.9173 15.5852 15.0227C15.4798 15.1282 15.3367 15.1875 15.1875 15.1875H13.5C13.3508 15.1875 13.2077 15.1282 13.1023 15.0227C12.9968 14.9173 12.9375 14.7742 12.9375 14.625V12.9375" stroke="current" stroke-width="1.5" stroke-linecap="round" stroke-linejoin="round"/>
<path d="M5.0625 12.9375V14.625C5.0625 14.7742 5.00324 14.9173 4.89775 15.0227C4.79226 15.1282 4.64918 15.1875 4.5 15.1875H2.8125C2.66332 15.1875 2.52024 15.1282 2.41475 15.0227C2.30926 14.9173 2.25 14.7742 2.25 14.625V12.9375" stroke="current" stroke-width="1.5" stroke-linecap="round" stroke-linejoin="round"/>
<path d="M4.5 10.6875H5.625" stroke="current" stroke-width="1.5" stroke-linecap="round" stroke-linejoin="round"/>
<path d="M12.375 10.6875H13.5" stroke="current" stroke-width="1.5" stroke-linecap="round" stroke-linejoin="round"/>
<path d="M15.75 8.4375L13.6477 3.7125C13.604 3.61254 13.5323 3.52742 13.4412 3.4675C13.35 3.40757 13.2434 3.37544 13.1344 3.375H4.86562C4.75656 3.37544 4.64997 3.40757 4.55884 3.4675C4.46771 3.52742 4.39597 3.61254 4.35234 3.7125L2.25 8.4375V12.9375H15.75V8.4375Z" stroke="current" stroke-width="1.5" stroke-linecap="round" stroke-linejoin="round"/>
</svg>
