<svg width="38" height="38" viewBox="0 0 38 38" fill="none" xmlns="http://www.w3.org/2000/svg">
<path d="M36.33 16.1425C35.6043 16.1425 34.9856 16.6078 34.7557 17.2558H31.58V16.6064C31.58 16.2991 31.331 16.0497 31.0234 16.0497C30.716 16.0497 30.4667 16.2991 30.4667 16.6064V19.32C30.4667 22.0959 29.5361 24.7098 27.8462 26.6798C25.486 29.4302 22.5103 31.5217 19 32.8973C15.8616 31.6675 13.1425 29.8599 10.9171 27.524C10.7049 27.3014 10.3526 27.2927 10.13 27.5049C9.90763 27.7168 9.89893 28.0691 10.1109 28.2917C10.8791 29.098 11.7037 29.8431 12.5801 30.5276V34.756C11.9324 34.9856 11.4668 35.6043 11.4668 36.3302C11.4668 37.251 12.2159 38.0001 13.1367 38.0001C14.0575 38.0001 14.8066 37.251 14.8066 36.3302C14.8066 35.6046 14.3413 34.9856 13.6933 34.756V31.3431C15.2212 32.3943 16.89 33.2742 18.6898 33.9715C18.7901 34.01 18.895 34.0295 19.0003 34.0295C19.1052 34.0295 19.2102 34.01 19.3099 33.9715C23.0333 32.5294 26.1896 30.3203 28.6913 27.4046C29.8486 26.0556 30.6824 24.4361 31.1486 22.6737H33.0302C33.2601 23.3217 33.8787 23.787 34.6044 23.787C35.5252 23.787 36.2743 23.0379 36.2743 22.1171C36.2743 21.1963 35.5252 20.4472 34.6044 20.4472C33.8787 20.4472 33.2601 20.9128 33.0302 21.5605H31.3907C31.5159 20.8299 31.58 20.0802 31.58 19.32V18.3691H34.7557C34.9856 19.017 35.6043 19.4823 36.33 19.4823C37.2508 19.4823 37.9999 18.7332 37.9999 17.8124C37.9999 16.8917 37.2508 16.1425 36.33 16.1425ZM13.1367 36.8866C12.8297 36.8866 12.5801 36.637 12.5801 36.3299C12.5801 36.0229 12.8297 35.7733 13.1367 35.7733C13.4437 35.7733 13.6933 36.0229 13.6933 36.3299C13.6933 36.637 13.4437 36.8866 13.1367 36.8866ZM34.6044 21.5605C34.9114 21.5605 35.161 21.8101 35.161 22.1171C35.161 22.4241 34.9114 22.6737 34.6044 22.6737C34.2974 22.6737 34.0478 22.4241 34.0478 22.1171C34.0478 21.8101 34.2974 21.5605 34.6044 21.5605ZM36.33 18.3691C36.023 18.3691 35.7733 18.1195 35.7733 17.8124C35.7733 17.5054 36.023 17.2558 36.33 17.2558C36.637 17.2558 36.8866 17.5054 36.8866 17.8124C36.8866 18.1195 36.637 18.3691 36.33 18.3691Z" fill="#677489"/>
<path d="M7.53323 19.32V9.19381C9.57511 8.7111 11.6964 7.81149 13.8424 6.5176C17.0236 4.5998 20.9763 4.5998 24.1576 6.5176C25.1126 7.09308 26.0623 7.59029 27.0025 8.00776C27.013 8.01269 27.0234 8.01762 27.0344 8.02168C28.1964 8.5357 29.3436 8.92825 30.4667 9.19381V14.225C30.4667 14.5326 30.7158 14.7816 31.0234 14.7816C31.331 14.7816 31.58 14.5326 31.58 14.225V8.98942C31.58 8.59137 31.3058 8.24144 30.9277 8.15736C29.9055 7.93007 28.8583 7.58855 27.7949 7.13802V3.24416C28.4428 3.01425 28.9082 2.39557 28.9082 1.66992C28.9082 0.749143 28.159 0 27.2382 0C26.3175 0 25.5683 0.749143 25.5683 1.66992C25.5683 2.39557 26.0339 3.01425 26.6816 3.24416V6.6298C26.0365 6.3135 25.3863 5.95835 24.7325 5.56435C21.1967 3.4326 16.8033 3.43289 13.2678 5.56435C11.1479 6.84201 9.06341 7.71466 7.07227 8.15736C6.69422 8.24144 6.41996 8.59137 6.41996 8.98942V12.3574H3.24422C3.01432 11.7094 2.39564 11.2441 1.66998 11.2441C0.749204 11.2441 6.10352e-05 11.9932 6.10352e-05 12.914C6.10352e-05 13.8348 0.749204 14.5839 1.66998 14.5839C2.39564 14.5839 3.01432 14.1186 3.24422 13.4706H6.41996V16.662H4.9698C4.7399 16.0141 4.12121 15.5488 3.39556 15.5488C2.47478 15.5488 1.72564 16.2979 1.72564 17.2187C1.72564 18.1395 2.47478 18.8886 3.39556 18.8886C4.12121 18.8886 4.7399 18.4233 4.9698 17.7753H6.41996V19.32C6.41996 21.9878 7.19055 24.4901 8.64796 26.556C8.75639 26.7097 8.9286 26.7917 9.10342 26.7917C9.21417 26.7917 9.32636 26.7587 9.42378 26.6899C9.67484 26.5125 9.73486 26.1652 9.55772 25.9141C8.23338 24.0369 7.53323 21.7567 7.53323 19.32ZM27.2382 1.11328C27.5453 1.11328 27.7949 1.36289 27.7949 1.66992C27.7949 1.97694 27.5453 2.22655 27.2382 2.22655C26.9312 2.22655 26.6816 1.97694 26.6816 1.66992C26.6816 1.36289 26.9312 1.11328 27.2382 1.11328ZM1.66998 13.4706C1.36296 13.4706 1.11334 13.221 1.11334 12.914C1.11334 12.607 1.36296 12.3574 1.66998 12.3574C1.977 12.3574 2.22661 12.607 2.22661 12.914C2.22661 13.221 1.977 13.4706 1.66998 13.4706ZM3.39556 17.7753C3.08853 17.7753 2.83892 17.5257 2.83892 17.2187C2.83892 16.9117 3.08853 16.662 3.39556 16.662C3.70258 16.662 3.95219 16.9117 3.95219 17.2187C3.95219 17.5257 3.70258 17.7753 3.39556 17.7753Z" fill="#677489"/>
<path d="M12.8764 9.58548C13.1518 9.44922 13.2648 9.11524 13.1286 8.83982C12.9923 8.5644 12.6583 8.45133 12.3826 8.58759C11.3294 9.10857 10.2718 9.54083 9.23965 9.8725C8.8848 9.98644 8.64648 10.3129 8.64648 10.6848V19.32C8.64648 21.8304 9.48173 24.1865 10.9983 25.9544C13.0744 28.3741 15.6624 30.262 18.6909 31.5666C18.7889 31.6089 18.8944 31.6301 19 31.6301C19.1055 31.6301 19.211 31.6089 19.3093 31.5666C22.3375 30.2623 24.9253 28.3743 27.0011 25.955C28.5179 24.1865 29.3534 21.8304 29.3534 19.32V10.6848C29.3534 10.3129 29.1151 9.98644 28.7603 9.8725C27.0643 9.32775 25.3224 8.51975 23.5829 7.47113C22.2006 6.63762 20.616 6.19724 19 6.19724C17.3843 6.19724 15.7996 6.63762 14.417 7.47113L14.2987 7.54215C14.0346 7.69958 13.9482 8.04139 14.1056 8.3055C14.263 8.56962 14.6045 8.65601 14.8687 8.49859C14.9098 8.47394 14.951 8.4493 14.9919 8.42466C16.2008 7.69581 17.5869 7.31051 19 7.31051C20.4133 7.31051 21.7994 7.69581 23.0083 8.42466C24.7603 9.48082 26.5195 10.3042 28.2402 10.8739V19.3197C28.2402 21.5645 27.5 23.6635 26.1562 25.2299C24.2216 27.4846 21.8145 29.2528 19 30.487C16.1852 29.2525 13.778 27.4843 11.8434 25.2296C10.4996 23.6632 9.75976 21.5645 9.75976 19.3197V10.8739C10.7869 10.5338 11.8344 10.1007 12.8764 9.58548Z" fill="#677489"/>
<path d="M19 13.0253C17.4655 13.0253 16.2168 14.2737 16.2168 15.8085V16.7363H16.0312C15.3152 16.7363 14.7324 17.319 14.7324 18.0351V22.4882C14.7324 23.2043 15.3152 23.787 16.0312 23.787H21.9687C22.6848 23.787 23.2675 23.2043 23.2675 22.4882V18.0351C23.2675 17.319 22.6848 16.7363 21.9687 16.7363H21.7832V15.8085C21.7832 14.2737 20.5348 13.0253 19 13.0253ZM17.3301 15.8085C17.3301 14.8878 18.0792 14.1386 19 14.1386C19.9208 14.1386 20.6699 14.8878 20.6699 15.8085V16.7363H17.3301V15.8085ZM22.1543 18.0351V22.4882C22.1543 22.5905 22.0711 22.6737 21.9687 22.6737H16.0312C15.9289 22.6737 15.8457 22.5905 15.8457 22.4882V18.0351C15.8457 17.9328 15.9289 17.8495 16.0312 17.8495H21.9687C22.0711 17.8495 22.1543 17.9328 22.1543 18.0351Z" fill="#677489"/>
<path d="M19 18.0351C18.0792 18.0351 17.3301 18.7842 17.3301 19.705C17.3301 20.4307 17.7957 21.0493 18.4434 21.2792V21.9315C18.4434 22.2389 18.6927 22.4882 19 22.4882C19.3076 22.4882 19.5566 22.2389 19.5566 21.9315V21.2792C20.2046 21.0493 20.6699 20.4307 20.6699 19.705C20.6699 18.7842 19.9208 18.0351 19 18.0351ZM19 20.2616C18.693 20.2616 18.4434 20.012 18.4434 19.705C18.4434 19.398 18.693 19.1484 19 19.1484C19.307 19.1484 19.5566 19.398 19.5566 19.705C19.5566 20.012 19.307 20.2616 19 20.2616Z" fill="#677489"/>
</svg>
