<svg width="18" height="18" viewBox="0 0 18 18" fill="none" xmlns="http://www.w3.org/2000/svg">
<path d="M9 11.8125C10.2426 11.8125 11.25 10.8051 11.25 9.5625C11.25 8.31986 10.2426 7.3125 9 7.3125C7.75736 7.3125 6.75 8.31986 6.75 9.5625C6.75 10.8051 7.75736 11.8125 9 11.8125Z" stroke="current" stroke-width="1.5" stroke-linecap="round" stroke-linejoin="round"/>
<path d="M5.625 13.5C6.01796 12.976 6.52752 12.5508 7.11332 12.2579C7.69911 11.965 8.34506 11.8125 9 11.8125C9.65494 11.8125 10.3009 11.965 10.8867 12.2579C11.4725 12.5508 11.982 12.976 12.375 13.5" stroke="current" stroke-width="1.5" stroke-linecap="round" stroke-linejoin="round"/>
<path d="M14.625 15.1875V2.8125C14.625 2.50184 14.3732 2.25 14.0625 2.25L3.9375 2.25C3.62684 2.25 3.375 2.50184 3.375 2.8125V15.1875C3.375 15.4982 3.62684 15.75 3.9375 15.75H14.0625C14.3732 15.75 14.625 15.4982 14.625 15.1875Z" stroke="current" stroke-width="1.5" stroke-linecap="round" stroke-linejoin="round"/>
<path d="M6.75 4.5H11.25" stroke="current" stroke-width="1.5" stroke-linecap="round" stroke-linejoin="round"/>
</svg>
