<svg width="48" height="34" viewBox="0 0 48 34" fill="none" xmlns="http://www.w3.org/2000/svg">
<path d="M43.5084 3.22852H22.6744C21.869 3.22852 21.2137 3.88373 21.2137 4.68914V6.96164C21.2137 7.76705 21.869 8.42227 22.6744 8.42227H31.4508C31.8391 8.42227 32.1539 8.10745 32.1539 7.71914C32.1539 7.33083 31.8391 7.01602 31.4508 7.01602H22.6744C22.6439 7.01602 22.62 6.99211 22.62 6.96164V4.68914C22.62 4.65867 22.6439 4.63477 22.6744 4.63477H43.5084C43.5389 4.63477 43.5628 4.65867 43.5628 4.68914V6.96164C43.5628 6.99267 43.5394 7.01602 43.5084 7.01602H34.732C34.3437 7.01602 34.0289 7.33083 34.0289 7.71914C34.0289 8.10745 34.3437 8.42227 34.732 8.42227H43.5084C44.3138 8.42227 44.9691 7.76705 44.9691 6.96164V4.68914C44.9691 3.88373 44.3138 3.22852 43.5084 3.22852Z" fill="#677489"/>
<path d="M21.9165 15.999H24.7576C25.1459 15.999 25.4607 15.6842 25.4607 15.2959C25.4607 14.9076 25.1459 14.5928 24.7576 14.5928H21.9165C21.5282 14.5928 21.2134 14.9076 21.2134 15.2959C21.2134 15.6842 21.5282 15.999 21.9165 15.999Z" fill="#677489"/>
<path d="M27.7882 15.999H36.6902C37.0786 15.999 37.3934 15.6842 37.3934 15.2959C37.3934 14.9076 37.0786 14.5928 36.6902 14.5928H27.7882C27.3999 14.5928 27.0851 14.9076 27.0851 15.2959C27.0851 15.6842 27.3999 15.999 27.7882 15.999Z" fill="#677489"/>
<path d="M27.7882 12.2109H36.6902C37.0786 12.2109 37.3934 11.8961 37.3934 11.5078C37.3934 11.1195 37.0786 10.8047 36.6902 10.8047H27.7882C27.3999 10.8047 27.0851 11.1195 27.0851 11.5078C27.0851 11.8961 27.3999 12.2109 27.7882 12.2109Z" fill="#677489"/>
<path d="M21.9165 12.2109H24.7576C25.1459 12.2109 25.4607 11.8961 25.4607 11.5078C25.4607 11.1195 25.1459 10.8047 24.7576 10.8047H21.9165C21.5282 10.8047 21.2134 11.1195 21.2134 11.5078C21.2134 11.8961 21.5282 12.2109 21.9165 12.2109Z" fill="#677489"/>
<path d="M21.9165 19.7871H28.3563C28.7446 19.7871 29.0594 19.4723 29.0594 19.084C29.0594 18.6957 28.7446 18.3809 28.3563 18.3809H21.9165C21.5282 18.3809 21.2134 18.6957 21.2134 19.084C21.2134 19.4723 21.5282 19.7871 21.9165 19.7871Z" fill="#677489"/>
<path d="M8.08984 25.957C7.70153 25.957 7.38672 26.2718 7.38672 26.6602C7.38672 27.0485 7.70153 27.3633 8.08984 27.3633H14.5296C14.9179 27.3633 15.2327 27.0485 15.2327 26.6602C15.2327 26.2718 14.9179 25.957 14.5296 25.957H8.08984Z" fill="#677489"/>
<path d="M19.5892 21.9242V4.87773C19.5892 3.96779 18.849 3.22754 17.939 3.22754H4.6807C3.77077 3.22754 3.03052 3.96779 3.03052 4.87773V21.9242C3.03052 22.8341 3.77077 23.5744 4.6807 23.5744H17.9391C18.849 23.5744 19.5892 22.8341 19.5892 21.9242ZM4.6807 4.63388H17.9391C18.0736 4.63388 18.1831 4.74329 18.1831 4.87782V17.4981C17.8747 17.0405 17.5194 16.6102 17.1178 16.2144C16.236 15.3457 15.1922 14.6983 14.0559 14.2997C15.1166 13.4774 15.8012 12.1923 15.8012 10.7494C15.8012 8.27288 13.7865 6.2582 11.31 6.2582C8.83346 6.2582 6.81877 8.27298 6.81877 10.7494C6.81877 12.1923 7.50342 13.4774 8.56411 14.2997C7.42777 14.6983 6.38405 15.3457 5.50224 16.2144C5.10061 16.6101 4.74521 17.0405 4.43696 17.4981V4.87773C4.43677 4.74329 4.54617 4.63388 4.6807 4.63388ZM8.22492 10.7493C8.22492 9.0482 9.60886 7.66435 11.3099 7.66435C13.011 7.66435 14.3949 9.04829 14.3949 10.7493C14.3949 12.4504 13.011 13.8343 11.3099 13.8343C9.60886 13.8343 8.22492 12.4504 8.22492 10.7493ZM4.44117 21.9676C4.47877 20.1677 5.20477 18.4812 6.48896 17.2162C7.78214 15.9422 9.49421 15.2406 11.3099 15.2406C13.1255 15.2406 14.8376 15.9422 16.1308 17.2162C17.415 18.4813 18.1411 20.1677 18.1786 21.9676C18.1579 22.0814 18.0586 22.1681 17.939 22.1681H4.6807C4.56108 22.1681 4.4618 22.0814 4.44117 21.9676Z" fill="#677489"/>
<path d="M33.0915 29.6358H37.069C37.308 29.6358 37.5023 29.8301 37.5023 30.0691C37.5023 30.4574 37.8171 30.7722 38.2054 30.7722C38.5938 30.7722 38.9086 30.4574 38.9086 30.0691C38.9086 29.8301 39.1029 29.6358 39.3419 29.6358H43.3194C44.2293 29.6358 44.9696 28.8955 44.9696 27.9856V22.3035C44.9696 21.3936 44.2293 20.6533 43.3194 20.6533H39.3419C38.9129 20.6533 38.5187 20.8021 38.2054 21.0492C37.8922 20.8021 37.498 20.6533 37.069 20.6533H33.0915C32.1815 20.6533 31.4413 21.3936 31.4413 22.3035V27.9856C31.4413 28.8955 32.1815 29.6358 33.0915 29.6358ZM39.3418 22.0596H43.3193C43.4538 22.0596 43.5633 22.169 43.5633 22.3035V27.9856C43.5633 28.1201 43.4538 28.2295 43.3193 28.2295H39.3418C39.1926 28.2295 39.0474 28.2473 38.9085 28.2811V22.4929C38.9085 22.254 39.1029 22.0596 39.3418 22.0596ZM32.8475 22.3035C32.8475 22.169 32.9569 22.0596 33.0915 22.0596H37.069C37.308 22.0596 37.5023 22.2539 37.5023 22.4929V28.2811C37.3634 28.2474 37.2182 28.2295 37.069 28.2295H33.0915C32.9569 28.2295 32.8475 28.1201 32.8475 27.9856V22.3035Z" fill="#677489"/>
<path d="M39.6094 32.3966H3.54375C2.36512 32.3966 1.40625 31.4374 1.40625 30.2582V3.74195C1.40625 2.56277 2.36512 1.60352 3.54375 1.60352H5.10938C5.49769 1.60352 5.8125 1.2887 5.8125 0.900391C5.8125 0.512078 5.49769 0.197266 5.10938 0.197266H3.54375C1.58972 0.197266 0 1.78736 0 3.74195V30.2582C0 32.2128 1.58972 33.8029 3.54375 33.8029H39.6094C39.9977 33.8029 40.3125 33.4881 40.3125 33.0998C40.3125 32.7115 39.9977 32.3966 39.6094 32.3966Z" fill="#677489"/>
<path d="M44.4563 0.197266H8.39062C8.00231 0.197266 7.6875 0.512078 7.6875 0.900391C7.6875 1.2887 8.00231 1.60352 8.39062 1.60352H44.4563C45.6349 1.60352 46.5938 2.56277 46.5938 3.74195V30.2582C46.5938 31.4374 45.6349 32.3966 44.4563 32.3966H42.8906C42.5023 32.3966 42.1875 32.7115 42.1875 33.0998C42.1875 33.4881 42.5023 33.8029 42.8906 33.8029H44.4563C46.4103 33.8029 48 32.2128 48 30.2582V3.74195C48 1.78736 46.4103 0.197266 44.4563 0.197266Z" fill="#677489"/>
</svg>
