<svg width="18" height="18" viewBox="0 0 18 18" fill="none" xmlns="http://www.w3.org/2000/svg">
<path d="M9 11.25C10.5533 11.25 11.8125 9.9908 11.8125 8.4375C11.8125 6.8842 10.5533 5.625 9 5.625C7.4467 5.625 6.1875 6.8842 6.1875 8.4375C6.1875 9.9908 7.4467 11.25 9 11.25Z" stroke="current" stroke-width="1.5" stroke-linecap="round" stroke-linejoin="round"/>
<path d="M15.1875 3.375H2.8125C2.50184 3.375 2.25 3.62684 2.25 3.9375V14.0625C2.25 14.3732 2.50184 14.625 2.8125 14.625H15.1875C15.4982 14.625 15.75 14.3732 15.75 14.0625V3.9375C15.75 3.62684 15.4982 3.375 15.1875 3.375Z" stroke="current" stroke-width="1.5" stroke-linecap="round" stroke-linejoin="round"/>
<path d="M4.22656 14.6246C4.57501 13.6367 5.22133 12.7813 6.07642 12.1762C6.9315 11.5711 7.95324 11.2461 9.00078 11.2461C10.0483 11.2461 11.0701 11.5711 11.9251 12.1762C12.7802 12.7813 13.4266 13.6367 13.775 14.6246" stroke="current" stroke-width="1.5" stroke-linecap="round" stroke-linejoin="round"/>
</svg>
