<svg width="18" height="18" viewBox="0 0 18 18" fill="none" xmlns="http://www.w3.org/2000/svg">
<path d="M10.6875 7.875H13.5" stroke="current" stroke-width="1.5" stroke-linecap="round" stroke-linejoin="round"/>
<path d="M10.6875 10.125H13.5" stroke="current" stroke-width="1.5" stroke-linecap="round" stroke-linejoin="round"/>
<path d="M6.47656 10.125C7.40854 10.125 8.16406 9.36948 8.16406 8.4375C8.16406 7.50552 7.40854 6.75 6.47656 6.75C5.54458 6.75 4.78906 7.50552 4.78906 8.4375C4.78906 9.36948 5.54458 10.125 6.47656 10.125Z" stroke="current" stroke-width="1.5" stroke-linecap="round" stroke-linejoin="round"/>
<path d="M4.29688 11.812C4.42079 11.328 4.70227 10.8991 5.09692 10.5927C5.49158 10.2864 5.97697 10.1201 6.47656 10.1201C6.97616 10.1201 7.46155 10.2864 7.8562 10.5927C8.25086 10.8991 8.53233 11.328 8.65625 11.812" stroke="current" stroke-width="1.5" stroke-linecap="round" stroke-linejoin="round"/>
<path d="M15.1875 3.375H2.8125C2.50184 3.375 2.25 3.62684 2.25 3.9375V14.0625C2.25 14.3732 2.50184 14.625 2.8125 14.625H15.1875C15.4982 14.625 15.75 14.3732 15.75 14.0625V3.9375C15.75 3.62684 15.4982 3.375 15.1875 3.375Z" stroke="current" stroke-width="1.5" stroke-linecap="round" stroke-linejoin="round"/>
</svg>
