<svg width="18" height="18" viewBox="0 0 18 18" fill="none" xmlns="http://www.w3.org/2000/svg">
<path d="M6.75 7.3125H11.25" stroke="current" stroke-width="1.5" stroke-linecap="round" stroke-linejoin="round"/>
<path d="M6.75 9.5625H11.25" stroke="current" stroke-width="1.5" stroke-linecap="round" stroke-linejoin="round"/>
<path d="M10.5258 13.7742L9.48516 15.5109C9.43419 15.5938 9.36284 15.6623 9.27791 15.7097C9.19298 15.7572 9.0973 15.7822 9 15.7822C8.9027 15.7822 8.80702 15.7572 8.72209 15.7097C8.63716 15.6623 8.56581 15.5938 8.51484 15.5109L7.47422 13.7742C7.42527 13.6909 7.35542 13.6217 7.27157 13.5736C7.18771 13.5255 7.09276 13.5002 6.99609 13.5H2.8125C2.66332 13.5 2.52024 13.4407 2.41475 13.3352C2.30926 13.2298 2.25 13.0867 2.25 12.9375V3.9375C2.25 3.78832 2.30926 3.64524 2.41475 3.53975C2.52024 3.43426 2.66332 3.375 2.8125 3.375H15.1875C15.3367 3.375 15.4798 3.43426 15.5852 3.53975C15.6907 3.64524 15.75 3.78832 15.75 3.9375V12.9375C15.75 13.0867 15.6907 13.2298 15.5852 13.3352C15.4798 13.4407 15.3367 13.5 15.1875 13.5H11.0039C10.9072 13.5002 10.8123 13.5255 10.7284 13.5736C10.6446 13.6217 10.5747 13.6909 10.5258 13.7742V13.7742Z" stroke="current" stroke-width="1.5" stroke-linecap="round" stroke-linejoin="round"/>
</svg>
