<svg width="48" height="48" viewBox="0 0 48 48" fill="none" xmlns="http://www.w3.org/2000/svg">
<path d="M14.25 9V6C14.25 5.55 13.95 5.25 13.5 5.25H10.5C8.4 5.25 6.75 6.9 6.75 9C6.75 11.1 8.4 12.75 10.5 12.75C12.6 12.75 14.25 11.1 14.25 9ZM12.75 9C12.75 10.275 11.775 11.25 10.5 11.25C9.225 11.25 8.25 10.275 8.25 9C8.25 7.725 9.225 6.75 10.5 6.75H12.75V9Z" fill="#677489"/>
<path d="M27 8.25H19.5C19.05 8.25 18.75 8.55 18.75 9C18.75 9.45 19.05 9.75 19.5 9.75H27C27.45 9.75 27.75 9.45 27.75 9C27.75 8.55 27.45 8.25 27 8.25Z" fill="#677489"/>
<path d="M27 14.25H19.5C19.05 14.25 18.75 14.55 18.75 15C18.75 15.45 19.05 15.75 19.5 15.75H27C27.45 15.75 27.75 15.45 27.75 15C27.75 14.55 27.45 14.25 27 14.25Z" fill="#677489"/>
<path d="M43.5 8.25H30C29.55 8.25 29.25 8.55 29.25 9C29.25 9.45 29.55 9.75 30 9.75H43.5C43.95 9.75 44.25 9.45 44.25 9C44.25 8.55 43.95 8.25 43.5 8.25Z" fill="#677489"/>
<path d="M43.5 14.25H30C29.55 14.25 29.25 14.55 29.25 15C29.25 15.45 29.55 15.75 30 15.75H43.5C43.95 15.75 44.25 15.45 44.25 15C44.25 14.55 43.95 14.25 43.5 14.25Z" fill="#677489"/>
<path d="M43.5 20.25H34.5C34.05 20.25 33.75 20.55 33.75 21C33.75 21.45 34.05 21.75 34.5 21.75H43.5C43.95 21.75 44.25 21.45 44.25 21C44.25 20.55 43.95 20.25 43.5 20.25Z" fill="#677489"/>
<path d="M43.5 26.25H37.65C37.2 26.25 36.9 26.55 36.9 27C36.9 27.45 37.2 27.75 37.65 27.75H43.5C43.95 27.75 44.25 27.45 44.25 27C44.25 26.55 43.95 26.25 43.5 26.25Z" fill="#677489"/>
<path d="M13.2751 15.8998C14.4001 16.2748 15.3001 17.0998 15.6751 18.2248C15.7501 18.5248 16.0501 18.7498 16.4251 18.7498C16.5001 18.7498 16.5751 18.7498 16.6501 18.6748C17.0251 18.5248 17.2501 18.1498 17.1001 17.6998C16.5751 16.1248 15.3001 14.9248 13.7251 14.3998C13.3501 14.2498 12.9001 14.4748 12.8251 14.9248C12.6751 15.3748 12.9001 15.7498 13.2751 15.8998Z" fill="#677489"/>
<path d="M3.75 27.0747C3.75 29.0997 5.4 30.7497 7.425 30.7497H10.5C10.95 30.7497 11.25 30.4497 11.25 29.9997C11.25 29.5497 10.95 29.2497 10.5 29.2497H7.425C6.15 29.2497 5.25 28.3497 5.25 27.0747V19.3497C5.25 17.7747 6.225 16.4247 7.725 15.8997C8.1 15.7497 8.325 15.3747 8.175 14.9247C8.025 14.5497 7.65 14.3247 7.2 14.4747C5.175 15.2247 3.75 17.1747 3.75 19.3497V27.0747Z" fill="#677489"/>
<path d="M11.25 18C11.25 17.55 10.95 17.25 10.5 17.25C10.05 17.25 9.75 17.55 9.75 18V27C9.75 27.45 10.05 27.75 10.5 27.75C10.95 27.75 11.25 27.45 11.25 27V18Z" fill="#677489"/>
<path d="M45.075 2.25H42.375C41.925 2.25 41.625 2.55 41.625 3C41.625 3.45 41.925 3.75 42.375 3.75H45.075C45.375 3.75 45.75 3.975 45.75 4.425V31.575C45.75 31.875 45.525 32.25 45.075 32.25H36.75C36.3 32.25 36 32.55 36 33C36 33.45 36.3 33.75 36.75 33.75H45.075C46.275 33.75 47.25 32.775 47.25 31.575V4.425C47.25 3.225 46.275 2.25 45.075 2.25Z" fill="#677489"/>
<path d="M37.425 3.75H39C39.45 3.75 39.75 3.45 39.75 3C39.75 2.55 39.45 2.25 39 2.25H37.425C36.975 2.25 36.675 2.55 36.675 3C36.675 3.45 36.975 3.75 37.425 3.75Z" fill="#677489"/>
<path d="M1.5 23.325C1.95 23.325 2.25 23.025 2.25 22.575V4.425C2.25 4.05 2.55 3.75 2.925 3.75H20.25V3.9C20.25 4.65 20.925 5.25 21.675 5.25H26.4C27.15 5.25 27.75 4.575 27.75 3.825V3.75H34.5C34.95 3.75 35.25 3.45 35.25 3C35.25 2.55 34.95 2.25 34.5 2.25H27.75V2.1C27.75 1.35 27.15 0.75 26.4 0.75H21.675C20.925 0.75 20.25 1.35 20.25 2.1V2.25H2.925C1.65 2.25 0.75 3.15 0.75 4.425V22.575C0.75 23.025 1.05 23.325 1.5 23.325ZM21.75 2.25H26.25V3.75H21.75V2.25Z" fill="#677489"/>
<path d="M11.25 32.2496H2.925C2.625 32.2496 2.25 32.0246 2.25 31.5746V25.7246C2.25 25.2746 1.95 24.9746 1.5 24.9746C1.05 24.9746 0.75 25.2746 0.75 25.7246V31.5746C0.75 32.7746 1.725 33.7496 2.925 33.7496H11.25C11.7 33.7496 12 33.4496 12 32.9996C12 32.5496 11.7 32.2496 11.25 32.2496Z" fill="#677489"/>
<path d="M39.9 41.1C39.6 40.8 39.15 40.8 38.85 41.1C38.55 41.4 38.55 41.85 38.85 42.15L41.1 44.4C41.4 44.7 41.4 45.15 41.1 45.45C40.8 45.75 40.35 45.75 40.05 45.45L31.425 36.975C31.8 36.675 32.175 36.3 32.475 35.925L37.125 40.575C37.275 40.725 37.5 40.8 37.65 40.8C37.8 40.8 38.025 40.725 38.175 40.575C38.475 40.275 38.475 39.825 38.175 39.525L33.375 34.725C34.575 32.925 35.25 30.75 35.25 28.5C35.25 22.275 30.225 17.25 24 17.25C17.775 17.25 12.75 22.275 12.75 28.5C12.75 31.35 13.875 34.125 15.825 36.225C16.125 36.525 16.575 36.525 16.875 36.225C17.175 35.925 17.175 35.475 16.875 35.175C15.225 33.375 14.25 30.975 14.25 28.5C14.25 23.1 18.6 18.75 24 18.75C29.4 18.75 33.75 23.1 33.75 28.5C33.75 30.6 33.075 32.55 31.95 34.125H31.875C31.8 34.2 31.725 34.275 31.725 34.35C29.925 36.75 27.15 38.25 24 38.25C22.275 38.25 20.55 37.8 19.05 36.9C18.675 36.675 18.225 36.825 18 37.125C17.775 37.5 17.925 37.95 18.225 38.175C19.95 39.225 21.975 39.75 24 39.75C26.325 39.75 28.425 39.075 30.225 37.875L38.925 46.5C39.375 46.95 39.9 47.175 40.5 47.175C41.1 47.175 41.625 46.95 42.075 46.5C42.525 46.05 42.75 45.525 42.75 44.925C42.75 44.325 42.525 43.8 42.075 43.35L39.9 41.1Z" fill="#677489"/>
<path d="M23.25 24C23.25 22.725 22.275 21.75 21 21.75C19.725 21.75 18.75 22.725 18.75 24V25.5C18.75 26.775 19.725 27.75 21 27.75C22.275 27.75 23.25 26.775 23.25 25.5V24ZM21.75 25.5C21.75 25.95 21.45 26.25 21 26.25C20.55 26.25 20.25 25.95 20.25 25.5V24C20.25 23.55 20.55 23.25 21 23.25C21.45 23.25 21.75 23.55 21.75 24V25.5Z" fill="#677489"/>
<path d="M26.25 27V22.5C26.25 22.05 25.95 21.75 25.5 21.75C25.05 21.75 24.75 22.05 24.75 22.5V27C24.75 27.45 25.05 27.75 25.5 27.75C25.95 27.75 26.25 27.45 26.25 27Z" fill="#677489"/>
<path d="M29.25 27V22.5C29.25 22.05 28.95 21.75 28.5 21.75C28.05 21.75 27.75 22.05 27.75 22.5V27C27.75 27.45 28.05 27.75 28.5 27.75C28.95 27.75 29.25 27.45 29.25 27Z" fill="#677489"/>
<path d="M24.75 33C24.75 34.275 25.725 35.25 27 35.25C28.275 35.25 29.25 34.275 29.25 33V31.5C29.25 30.225 28.275 29.25 27 29.25C25.725 29.25 24.75 30.225 24.75 31.5V33ZM26.25 31.5C26.25 31.05 26.55 30.75 27 30.75C27.45 30.75 27.75 31.05 27.75 31.5V33C27.75 33.45 27.45 33.75 27 33.75C26.55 33.75 26.25 33.45 26.25 33V31.5Z" fill="#677489"/>
<path d="M21.75 30V34.5C21.75 34.95 22.05 35.25 22.5 35.25C22.95 35.25 23.25 34.95 23.25 34.5V30C23.25 29.55 22.95 29.25 22.5 29.25C22.05 29.25 21.75 29.55 21.75 30Z" fill="#677489"/>
<path d="M18.75 34.5C18.75 34.95 19.05 35.25 19.5 35.25C19.95 35.25 20.25 34.95 20.25 34.5V30C20.25 29.55 19.95 29.25 19.5 29.25C19.05 29.25 18.75 29.55 18.75 30V34.5Z" fill="#677489"/>
<path d="M4.5 9.75C4.95 9.75 5.25 9.45 5.25 9V6.75H6C6.45 6.75 6.75 6.45 6.75 6C6.75 5.55 6.45 5.25 6 5.25H5.25C4.5 5.25 3.75 6 3.75 6.75V9C3.75 9.45 4.05 9.75 4.5 9.75Z" fill="#677489"/>
<path d="M3.75 13.5C3.75 13.95 4.05 14.25 4.5 14.25C4.95 14.25 5.25 13.95 5.25 13.5V12C5.25 11.55 4.95 11.25 4.5 11.25C4.05 11.25 3.75 11.55 3.75 12V13.5Z" fill="#677489"/>
<path d="M10.5 15.75C10.9142 15.75 11.25 15.4142 11.25 15C11.25 14.5858 10.9142 14.25 10.5 14.25C10.0858 14.25 9.75 14.5858 9.75 15C9.75 15.4142 10.0858 15.75 10.5 15.75Z" fill="#677489"/>
</svg>
