<svg width="18" height="18" viewBox="0 0 18 18" fill="none" xmlns="http://www.w3.org/2000/svg">
<path d="M6.50391 8.77484C7.08273 9.97016 8.04929 10.9342 9.24609 11.51C9.33437 11.5518 9.43202 11.5699 9.52942 11.5625C9.62681 11.5551 9.72061 11.5225 9.80156 11.4678L11.5594 10.2936C11.637 10.2409 11.7268 10.2088 11.8202 10.2002C11.9137 10.1916 12.0078 10.2068 12.0938 10.2444L15.3844 11.6577C15.4968 11.7045 15.5908 11.7869 15.6518 11.8924C15.7128 11.9978 15.7374 12.1204 15.7219 12.2412C15.6176 13.0553 15.2202 13.8034 14.6042 14.3457C13.9882 14.8879 13.1957 15.1872 12.375 15.1873C9.83887 15.1873 7.40661 14.1799 5.61329 12.3865C3.81997 10.5932 2.8125 8.16097 2.8125 5.62484C2.81268 4.80415 3.1119 4.01165 3.65416 3.39562C4.19642 2.7796 4.94456 2.38226 5.75859 2.27796C5.87942 2.26244 6.00199 2.28707 6.10745 2.34806C6.2129 2.40904 6.29538 2.503 6.34219 2.61546L7.75547 5.91312C7.79222 5.99774 7.8076 6.0901 7.80024 6.18206C7.79288 6.27402 7.76302 6.36276 7.71328 6.44046L6.53906 8.2264C6.48679 8.30718 6.4561 8.40002 6.44995 8.49604C6.44379 8.59206 6.46237 8.68805 6.50391 8.77484V8.77484Z" stroke="current" stroke-width="1.5" stroke-linecap="round" stroke-linejoin="round"/>
</svg>
