<svg width="38" height="38" viewBox="0 0 38 38" fill="none" xmlns="http://www.w3.org/2000/svg">
<path d="M38 16.6279C38 16.6269 38 16.626 38 16.625C38 16.6212 37.9995 16.6176 37.9994 16.6138C37.9991 16.5984 37.9986 16.5831 37.9971 16.5677C37.9964 16.5599 37.995 16.5523 37.9939 16.5447C37.9924 16.5333 37.9909 16.5219 37.9887 16.5105C37.9864 16.4989 37.9834 16.4875 37.9804 16.4762C37.9785 16.4689 37.977 16.4616 37.9748 16.4544C37.9702 16.4394 37.9649 16.4248 37.9593 16.4103C37.9579 16.4069 37.957 16.4035 37.9557 16.4001L37.9543 16.3966C37.9537 16.3951 37.9531 16.3937 37.9524 16.3922L32.612 3.33769C32.5923 3.28952 32.5664 3.24581 32.5365 3.20603C32.9695 2.88073 33.25 2.36313 33.25 1.78125C33.25 0.799113 32.451 0 31.4688 0C30.5162 0 29.736 0.751539 29.6897 1.69278L21.0504 4.14467C20.5167 3.2326 19.4141 2.75767 18.3517 3.059C17.7414 3.23215 17.2351 3.63264 16.926 4.18668C16.7158 4.56334 16.6143 4.98037 16.6251 5.40053L7.96946 7.85695C7.64512 7.41364 7.12136 7.125 6.53125 7.125C5.54904 7.125 4.75 7.92411 4.75 8.90625C4.75 9.46564 5.00947 9.96543 5.41411 10.2922L0.0472773 23.5176C0.0467578 23.5188 0.0463125 23.5201 0.045793 23.5213L0.0435664 23.5268C0.0419336 23.5308 0.0408945 23.5348 0.0393359 23.5389C0.0341406 23.5525 0.0290937 23.5662 0.0249375 23.5803C0.0226367 23.5879 0.0210039 23.5956 0.019 23.6033C0.0162539 23.6142 0.0132852 23.6251 0.0111328 23.6362C0.00890625 23.6477 0.00749609 23.659 0.0059375 23.6704C0.00489844 23.6781 0.0035625 23.6856 0.00282031 23.6933C0.00141016 23.7081 0.000890625 23.7228 0.00059375 23.7376C0.000519531 23.7418 0 23.7458 0 23.75C0 23.7514 7.42188e-05 23.7527 7.42188e-05 23.7542C7.42188e-05 23.7569 0.000148438 23.7596 0.000148438 23.7624C0.00690234 27.3581 2.93409 30.2812 6.53125 30.2812C10.129 30.2812 13.0565 27.3572 13.0624 23.7608C13.0624 23.7582 13.0624 23.7556 13.0624 23.7529C13.0624 23.7519 13.0624 23.751 13.0624 23.75C13.0624 23.7462 13.0619 23.7426 13.0618 23.7388C13.0615 23.7234 13.061 23.7081 13.0595 23.6927C13.0588 23.6849 13.0574 23.6773 13.0563 23.6697C13.0548 23.6583 13.0534 23.6469 13.0511 23.6355C13.0488 23.6239 13.0458 23.6125 13.0428 23.6012C13.041 23.5939 13.0394 23.5866 13.0372 23.5794C13.0327 23.5644 13.0273 23.5498 13.0217 23.5353C13.0203 23.5319 13.0195 23.5285 13.0181 23.5251L13.0167 23.5216C13.0161 23.5201 13.0155 23.5187 13.0149 23.5172L7.67437 10.4626C7.65462 10.4144 7.6288 10.3707 7.59889 10.331C8.00969 10.0223 8.28326 9.54037 8.31005 8.99465L16.9496 6.54283C17.0347 6.68837 17.1354 6.82152 17.247 6.94346C17.2289 7.00068 17.2188 7.06162 17.2188 7.125V31.4688C16.2365 31.4688 15.4375 32.2679 15.4375 33.25V34.4375H12.4688C11.4866 34.4375 10.6875 35.2366 10.6875 36.2188V37.4062C10.6875 37.7341 10.9534 38 11.2812 38H26.7188C27.0466 38 27.3125 37.7341 27.3125 37.4062V36.2188C27.3125 35.2366 26.5134 34.4375 25.5312 34.4375H22.5625V33.25C22.5625 32.2679 21.7635 31.4688 20.7812 31.4688V7.125C20.7812 7.06258 20.7715 7.00239 20.7536 6.94584C20.8757 6.81172 20.9836 6.66306 21.0741 6.50082C21.2843 6.12416 21.3858 5.70713 21.3751 5.2869L30.0306 2.83048C30.1226 2.95621 30.2306 3.06946 30.3517 3.16721L24.9849 16.3926C24.9843 16.3938 24.9839 16.3951 24.9834 16.3963L24.9811 16.4018C24.9795 16.4058 24.9785 16.4098 24.9769 16.4139C24.9717 16.4275 24.9667 16.4412 24.9625 16.4553C24.9602 16.4629 24.9586 16.4706 24.9566 16.4783C24.9538 16.4892 24.9509 16.5001 24.9487 16.5112C24.9465 16.5227 24.9451 16.534 24.9435 16.5454C24.9425 16.5531 24.9411 16.5606 24.9404 16.5683C24.939 16.5831 24.9385 16.5978 24.9382 16.6126C24.9381 16.6168 24.9376 16.6208 24.9376 16.625C24.9376 16.6264 24.9376 16.6277 24.9376 16.6292C24.9376 16.6319 24.9377 16.6346 24.9377 16.6374C24.9444 20.2331 27.8716 23.1562 31.4688 23.1562C35.0665 23.1562 37.994 20.2322 37.9999 16.6358C37.9999 16.6332 37.9999 16.6306 38 16.6279ZM31.4688 1.1875C31.7961 1.1875 32.0625 1.45387 32.0625 1.78125C32.0625 2.10863 31.7961 2.375 31.4688 2.375C31.1414 2.375 30.875 2.10863 30.875 1.78125C30.875 1.45387 31.1414 1.1875 31.4688 1.1875ZM17.9629 4.76521C18.1175 4.48823 18.3706 4.28791 18.6758 4.20138C18.7838 4.17072 18.8925 4.1561 18.9996 4.1561C19.5169 4.1561 19.994 4.49743 20.1422 5.01919C20.1422 5.01934 20.1423 5.01941 20.1423 5.01956C20.1423 5.01964 20.1424 5.01971 20.1424 5.01979C20.2288 5.32482 20.1914 5.64537 20.0369 5.92229C19.8824 6.19927 19.6292 6.39959 19.324 6.48612C18.6942 6.66492 18.0363 6.29791 17.8575 5.66823C17.8575 5.66816 17.8576 5.66809 17.8575 5.66801C17.8575 5.66794 17.8574 5.66794 17.8574 5.66786C17.771 5.36268 17.8084 5.0422 17.9629 4.76521ZM6.53125 8.3125C6.85863 8.3125 7.125 8.57887 7.125 8.90625C7.125 9.23363 6.85863 9.5 6.53125 9.5C6.20387 9.5 5.9375 9.23363 5.9375 8.90625C5.9375 8.57887 6.20387 8.3125 6.53125 8.3125ZM11.5844 23.1562H11.2812C10.9534 23.1562 10.6875 23.4221 10.6875 23.75C10.6875 24.0779 10.9534 24.3438 11.2812 24.3438H11.8423C11.5459 27.0118 9.27712 29.0938 6.53125 29.0938C3.78538 29.0938 1.51659 27.0118 1.22023 24.3438H8.90625C9.23415 24.3438 9.5 24.0779 9.5 23.75C9.5 23.4221 9.23415 23.1562 8.90625 23.1562H1.47547L6.53169 10.6962C6.53273 10.7683 6.54646 10.8415 6.57541 10.9123L11.5844 23.1562ZM21.375 33.25V35.0305C21.375 35.0307 21.375 35.031 21.375 35.0312C21.375 35.3591 21.6409 35.625 21.9688 35.625H25.5312C25.8586 35.625 26.125 35.8914 26.125 36.2188V36.8125H11.875V36.2188C11.875 35.8914 12.1414 35.625 12.4688 35.625H19.5938C19.9216 35.625 20.1875 35.3591 20.1875 35.0312C20.1875 34.7034 19.9216 34.4375 19.5938 34.4375H16.625V33.25C16.625 32.9226 16.8914 32.6562 17.2188 32.6562H20.7812C21.1086 32.6562 21.375 32.9226 21.375 33.25ZM18.4062 31.4688V7.64193C18.5986 7.69196 18.798 7.71905 19.0008 7.71905C19.1969 7.71905 19.3958 7.69314 19.5938 7.64201V31.4688H18.4062ZM31.4688 21.9688C28.7229 21.9688 26.4541 19.8868 26.1577 17.2188H33.8438C34.1716 17.2188 34.4375 16.9529 34.4375 16.625C34.4375 16.2971 34.1716 16.0312 33.8438 16.0312H26.413L31.4692 3.57118C31.4702 3.64332 31.484 3.7165 31.5129 3.78731L36.5219 16.0312H36.2188C35.8909 16.0312 35.625 16.2971 35.625 16.625C35.625 16.9529 35.8909 17.2188 36.2188 17.2188H36.7798C36.4834 19.8868 34.2146 21.9688 31.4688 21.9688Z" fill="#677489"/>
</svg>
