<svg width="20" height="21" viewBox="0 0 20 21" fill="none" xmlns="http://www.w3.org/2000/svg">
<g clip-path="url(#clip0_3635_40805)">
<path d="M10 13C11.3807 13 12.5 11.8807 12.5 10.5C12.5 9.11929 11.3807 8 10 8C8.61929 8 7.5 9.11929 7.5 10.5C7.5 11.8807 8.61929 13 10 13Z" stroke="#111729" stroke-width="1.5" stroke-linecap="round" stroke-linejoin="round"/>
<path d="M16.1673 12.9997C16.0564 13.251 16.0233 13.5298 16.0723 13.8002C16.1213 14.0705 16.2502 14.3199 16.4423 14.5163L16.4923 14.5663C16.6473 14.7211 16.7702 14.9049 16.8541 15.1073C16.938 15.3096 16.9811 15.5265 16.9811 15.7455C16.9811 15.9645 16.938 16.1814 16.8541 16.3837C16.7702 16.5861 16.6473 16.7699 16.4923 16.9247C16.3375 17.0796 16.1537 17.2026 15.9514 17.2864C15.7491 17.3703 15.5322 17.4135 15.3131 17.4135C15.0941 17.4135 14.8772 17.3703 14.6749 17.2864C14.4726 17.2026 14.2888 17.0796 14.134 16.9247L14.084 16.8747C13.8876 16.6826 13.6381 16.5537 13.3678 16.5047C13.0975 16.4557 12.8187 16.4887 12.5673 16.5997C12.3208 16.7053 12.1106 16.8807 11.9626 17.1043C11.8145 17.3279 11.7351 17.5899 11.734 17.858V17.9997C11.734 18.4417 11.5584 18.8656 11.2458 19.1782C10.9333 19.4907 10.5093 19.6663 10.0673 19.6663C9.62529 19.6663 9.20137 19.4907 8.88881 19.1782C8.57625 18.8656 8.40065 18.4417 8.40065 17.9997V17.9247C8.3942 17.6488 8.30492 17.3813 8.14441 17.1569C7.9839 16.9325 7.7596 16.7616 7.50065 16.6663C7.2493 16.5554 6.97049 16.5223 6.70016 16.5713C6.42983 16.6204 6.18038 16.7492 5.98398 16.9413L5.93398 16.9913C5.7792 17.1463 5.59538 17.2692 5.39305 17.3531C5.19072 17.437 4.97384 17.4802 4.75482 17.4802C4.53579 17.4802 4.31891 17.437 4.11658 17.3531C3.91425 17.2692 3.73044 17.1463 3.57565 16.9913C3.42069 16.8366 3.29776 16.6527 3.21388 16.4504C3.13001 16.2481 3.08684 16.0312 3.08684 15.8122C3.08684 15.5931 3.13001 15.3763 3.21388 15.1739C3.29776 14.9716 3.42069 14.7878 3.57565 14.633L3.62565 14.583C3.81776 14.3866 3.94664 14.1372 3.99565 13.8668C4.04467 13.5965 4.01158 13.3177 3.90065 13.0663C3.79501 12.8199 3.61961 12.6097 3.39604 12.4616C3.17246 12.3135 2.91047 12.2341 2.64232 12.233H2.50065C2.05862 12.233 1.6347 12.0574 1.32214 11.7449C1.00958 11.4323 0.833984 11.0084 0.833984 10.5663C0.833984 10.1243 1.00958 9.70039 1.32214 9.38783C1.6347 9.07527 2.05862 8.89967 2.50065 8.89967H2.57565C2.85148 8.89322 3.11899 8.80394 3.3434 8.64343C3.56781 8.48293 3.73875 8.25862 3.83398 7.99967C3.94491 7.74833 3.978 7.46951 3.92899 7.19918C3.87997 6.92885 3.7511 6.67941 3.55898 6.48301L3.50898 6.43301C3.35402 6.27822 3.23109 6.0944 3.14722 5.89207C3.06334 5.68974 3.02017 5.47287 3.02017 5.25384C3.02017 5.03481 3.06334 4.81794 3.14722 4.61561C3.23109 4.41328 3.35402 4.22946 3.50898 4.07467C3.66377 3.91971 3.84759 3.79678 4.04992 3.71291C4.25225 3.62903 4.46912 3.58586 4.68815 3.58586C4.90718 3.58586 5.12405 3.62903 5.32638 3.71291C5.52871 3.79678 5.71253 3.91971 5.86732 4.07467L5.91732 4.12467C6.11372 4.31679 6.36316 4.44566 6.63349 4.49468C6.90382 4.54369 7.18264 4.5106 7.43398 4.39967H7.50065C7.74712 4.29404 7.95733 4.11864 8.10539 3.89506C8.25346 3.67149 8.33291 3.4095 8.33398 3.14134V2.99967C8.33398 2.55765 8.50958 2.13372 8.82214 1.82116C9.1347 1.5086 9.55862 1.33301 10.0007 1.33301C10.4427 1.33301 10.8666 1.5086 11.1792 1.82116C11.4917 2.13372 11.6673 2.55765 11.6673 2.99967V3.07467C11.6684 3.34283 11.7478 3.60482 11.8959 3.8284C12.044 4.05197 12.2542 4.22737 12.5006 4.33301C12.752 4.44394 13.0308 4.47703 13.3011 4.42801C13.5715 4.379 13.8209 4.25012 14.0173 4.05801L14.0673 4.00801C14.2221 3.85305 14.4059 3.73012 14.6082 3.64624C14.8106 3.56237 15.0275 3.5192 15.2465 3.5192C15.4655 3.5192 15.6824 3.56237 15.8847 3.64624C16.087 3.73012 16.2709 3.85305 16.4256 4.00801C16.5806 4.1628 16.7035 4.34661 16.7874 4.54894C16.8713 4.75127 16.9145 4.96815 16.9145 5.18717C16.9145 5.4062 16.8713 5.62308 16.7874 5.82541C16.7035 6.02774 16.5806 6.21155 16.4256 6.36634L16.3756 6.41634C16.1835 6.61274 16.0547 6.86219 16.0056 7.13252C15.9566 7.40285 15.9897 7.68166 16.1006 7.93301V7.99967C16.2063 8.24615 16.3817 8.45635 16.6053 8.60442C16.8288 8.75248 17.0908 8.83194 17.359 8.83301H17.5006C17.9427 8.83301 18.3666 9.0086 18.6792 9.32116C18.9917 9.63372 19.1673 10.0576 19.1673 10.4997C19.1673 10.9417 18.9917 11.3656 18.6792 11.6782C18.3666 11.9907 17.9427 12.1663 17.5006 12.1663H17.4256C17.1575 12.1674 16.8955 12.2469 16.6719 12.3949C16.4484 12.543 16.273 12.7532 16.1673 12.9997V12.9997Z" stroke="#111729" stroke-width="1.5" stroke-linecap="round" stroke-linejoin="round"/>
</g>
<defs>
<clipPath id="clip0_3635_40805">
<rect width="20" height="20" fill="white" transform="translate(0 0.5)"/>
</clipPath>
</defs>
</svg>
