<svg width="20" height="21" viewBox="0 0 20 21" fill="none" xmlns="http://www.w3.org/2000/svg">
<path d="M9.99935 18.8337C14.6017 18.8337 18.3327 15.1027 18.3327 10.5003C18.3327 5.89795 14.6017 2.16699 9.99935 2.16699C5.39698 2.16699 1.66602 5.89795 1.66602 10.5003C1.66602 15.1027 5.39698 18.8337 9.99935 18.8337Z" stroke="#111729" stroke-width="1.5" stroke-linecap="round" stroke-linejoin="round"/>
<path d="M7.57422 8.00047C7.77014 7.44353 8.15685 6.9739 8.66585 6.67475C9.17485 6.37561 9.7733 6.26626 10.3552 6.36607C10.9371 6.46588 11.4649 6.76841 11.8451 7.22008C12.2253 7.67175 12.4334 8.24341 12.4326 8.83381C12.4326 10.5005 9.93255 11.3338 9.93255 11.3338" stroke="#111729" stroke-width="1.5" stroke-linecap="round" stroke-linejoin="round"/>
<path d="M10 14.667H10.0083" stroke="#111729" stroke-width="1.5" stroke-linecap="round" stroke-linejoin="round"/>
</svg>
