<?xml version="1.0" standalone="no"?>
<!DOCTYPE svg PUBLIC "-//W3C//DTD SVG 20010904//EN"
 "http://www.w3.org/TR/2001/REC-SVG-20010904/DTD/svg10.dtd">
<svg version="1.0" xmlns="http://www.w3.org/2000/svg"
 width="2592.000000pt" height="1712.000000pt" viewBox="0 0 2592.000000 1712.000000"
 preserveAspectRatio="xMidYMid meet">

<g transform="translate(0.000000,1712.000000) scale(0.100000,-0.100000)"
fill="#0177FB" stroke="none">
<path d="M692 17109 c-80 -10 -195 -46 -235 -73 -52 -36 -72 -72 -72 -131 0
-64 15 -87 42 -63 39 35 134 79 208 98 78 20 109 20 3478 20 l3399 0 -7 28
c-11 46 -39 85 -75 107 l-35 20 -3320 1 c-1826 1 -3348 -2 -3383 -7z"/>
<path d="M18517 17106 c-59 -22 -85 -51 -101 -118 l-6 -28 3401 0 c3006 0
3408 -2 3460 -15 76 -20 141 -48 196 -85 25 -17 48 -28 53 -25 14 9 22 64 15
101 -13 73 -81 120 -235 161 -61 17 -262 18 -3405 20 -2780 2 -3346 0 -3378
-11z"/>
<path d="M155 16726 c-63 -29 -99 -92 -131 -232 -18 -76 -19 -171 -19 -2239 0
-2155 0 -2160 20 -2195 22 -36 61 -63 108 -74 l27 -6 0 2216 c0 1947 2 2223
15 2275 20 76 48 141 86 197 20 29 27 48 20 55 -16 16 -94 18 -126 3z"/>
<path d="M25653 16730 c-24 -10 -30 -25 -13 -35 22 -14 82 -138 100 -210 20
-77 20 -112 20 -2293 l0 -2214 28 7 c46 11 85 39 107 75 20 35 20 43 23 2145
2 1417 -1 2140 -8 2201 -11 98 -48 223 -78 263 -43 58 -124 85 -179 61z"/>
<path d="M90 5118 c-26 -14 -53 -37 -65 -58 -20 -35 -20 -48 -23 -2145 -2
-1417 1 -2140 8 -2201 11 -98 48 -223 78 -263 36 -48 70 -66 127 -66 64 0 87
15 63 42 -35 39 -79 134 -98 208 -20 77 -20 109 -20 2292 0 1799 -2 2213 -13
2213 -7 0 -33 -10 -57 -22z"/>
<path d="M25760 2924 c0 -1947 -2 -2223 -15 -2275 -20 -76 -48 -141 -85 -196
-17 -25 -28 -48 -25 -53 9 -14 70 -23 104 -15 74 16 122 90 157 240 18 77 19
164 19 2240 0 2155 0 2160 -20 2195 -22 36 -61 63 -107 74 l-28 6 0 -2216z"/>
<path d="M390 264 c-20 -51 -7 -109 33 -153 29 -32 105 -65 202 -87 77 -18
190 -19 3425 -19 l3345 0 35 20 c36 22 63 61 74 108 l6 27 -3401 0 c-3006 0
-3408 2 -3460 15 -76 20 -141 48 -196 85 -24 17 -46 30 -49 30 -2 0 -9 -12
-14 -26z"/>
<path d="M25495 281 c-14 -23 -137 -82 -210 -101 -77 -20 -113 -20 -3478 -20
l-3399 0 7 -27 c11 -47 39 -86 75 -108 l35 -20 3355 0 c3256 0 3357 1 3425 19
150 40 217 87 231 162 11 58 -20 129 -41 95z"/>
</g>
</svg>
