<svg width="18" height="18" viewBox="0 0 18 18" fill="#0B9F6E" xmlns="http://www.w3.org/2000/svg">
<path opacity="0.5" d="M3.5494 15.5363C4.60952 15.5363 5.46892 14.6769 5.46892 13.6168C5.46892 12.5567 4.60952 11.6973 3.5494 11.6973C2.48928 11.6973 1.62988 12.5567 1.62988 13.6168C1.62988 14.6769 2.48928 15.5363 3.5494 15.5363Z" fill="#0B9F6E"/>
<path opacity="0.2" d="M15.8994 13.8359C16.8195 13.8359 17.5654 13.09 17.5654 12.1699C17.5654 11.2498 16.8195 10.5039 15.8994 10.5039C14.9793 10.5039 14.2334 11.2498 14.2334 12.1699C14.2334 13.09 14.9793 13.8359 15.8994 13.8359Z" fill="#0B9F6E"/>
<path opacity="0.1" d="M14.3782 5.4322C15.1383 5.4322 15.7545 4.81603 15.7545 4.05594C15.7545 3.29586 15.1383 2.67969 14.3782 2.67969C13.6181 2.67969 13.002 3.29586 13.002 4.05594C13.002 4.81603 13.6181 5.4322 14.3782 5.4322Z" fill="#0B9F6E"/>
<path opacity="0.6" d="M2.03704 10.8517C3.16207 10.8517 4.07408 9.96194 4.07408 8.86434C4.07408 7.76674 3.16207 6.87695 2.03704 6.87695C0.912015 6.87695 0 7.76674 0 8.86434C0 9.96194 0.912015 10.8517 2.03704 10.8517Z" fill="#0B9F6E"/>
<path opacity="0.4" d="M7.88897 17.9997C8.91173 17.9997 9.74083 17.1918 9.74083 16.1952C9.74083 15.1985 8.91173 14.3906 7.88897 14.3906C6.86622 14.3906 6.03711 15.1985 6.03711 16.1952C6.03711 17.1918 6.86622 17.9997 7.88897 17.9997Z" fill="#0B9F6E"/>
<path opacity="0.3" d="M12.6479 17.2091C13.6195 17.2091 14.4072 16.4422 14.4072 15.4962C14.4072 14.5501 13.6195 13.7832 12.6479 13.7832C11.6763 13.7832 10.8887 14.5501 10.8887 15.4962C10.8887 16.4422 11.6763 17.2091 12.6479 17.2091Z" fill="#0B9F6E"/>
<path opacity="0.8" d="M4.24094 6.23565C5.41709 6.23565 6.37055 5.30496 6.37055 4.15689C6.37055 3.00882 5.41709 2.07812 4.24094 2.07812C3.06479 2.07812 2.11133 3.00882 2.11133 4.15689C2.11133 5.30496 3.06479 6.23565 4.24094 6.23565Z" fill="#0B9F6E"/>
<path opacity="0.15" d="M16.4256 9.38469C17.295 9.38469 17.9997 8.69302 17.9997 7.83981C17.9997 6.98659 17.295 6.29492 16.4256 6.29492C15.5563 6.29492 14.8516 6.98659 14.8516 7.83981C14.8516 8.69302 15.5563 9.38469 16.4256 9.38469Z" fill="#0B9F6E"/>
<path d="M9.52477 4.49095C10.7649 4.49095 11.7702 3.48561 11.7702 2.24547C11.7702 1.00533 10.7649 0 9.52477 0C8.28463 0 7.2793 1.00533 7.2793 2.24547C7.2793 3.48561 8.28463 4.49095 9.52477 4.49095Z" fill="#0B9F6E"/>
</svg>
