<svg width="23" height="23" viewBox="0 0 23 23" fill="none" xmlns="http://www.w3.org/2000/svg">
<rect x="0.5" y="0.5" width="22" height="22" rx="1.5" fill="white" stroke="#18214D"/>
<rect x="0.5" y="0.5" width="19" height="19" rx="1.5" fill="#A8C5F2" stroke="#18214D"/>
<path d="M12.853 13.229C13.063 13.229 13.2263 13.2873 13.343 13.404C13.4643 13.5207 13.525 13.6747 13.525 13.866V15H6.483V14.37C6.483 14.2487 6.50867 14.118 6.56 13.978C6.61133 13.8333 6.69767 13.7027 6.819 13.586L9.829 10.569C10.0857 10.3123 10.312 10.0673 10.508 9.834C10.704 9.596 10.8673 9.365 10.998 9.141C11.1287 8.91233 11.2267 8.68133 11.292 8.448C11.3573 8.21467 11.39 7.96967 11.39 7.713C11.39 7.26033 11.2733 6.91733 11.04 6.684C10.8067 6.446 10.4777 6.327 10.053 6.327C9.86633 6.327 9.69367 6.355 9.535 6.411C9.381 6.46233 9.241 6.53467 9.115 6.628C8.99367 6.72133 8.88867 6.831 8.8 6.957C8.71133 7.083 8.646 7.22067 8.604 7.37C8.52 7.60333 8.40567 7.75967 8.261 7.839C8.121 7.91367 7.92033 7.93 7.659 7.888L6.637 7.706C6.71167 7.21133 6.85167 6.77733 7.057 6.404C7.26233 6.03067 7.519 5.72033 7.827 5.473C8.135 5.22567 8.48733 5.04133 8.884 4.92C9.28067 4.794 9.70767 4.731 10.165 4.731C10.6457 4.731 11.082 4.80333 11.474 4.948C11.8707 5.088 12.209 5.28633 12.489 5.543C12.769 5.795 12.986 6.10067 13.14 6.46C13.294 6.81933 13.371 7.216 13.371 7.65C13.371 8.02333 13.3173 8.36867 13.21 8.686C13.1027 9.00333 12.9557 9.30667 12.769 9.596C12.587 9.88067 12.3747 10.1583 12.132 10.429C11.8893 10.6997 11.6327 10.9727 11.362 11.248L9.206 13.453C9.444 13.383 9.67967 13.3293 9.913 13.292C10.1463 13.25 10.3657 13.229 10.571 13.229H12.853Z" fill="#18214D"/>
</svg>
