<svg width="23" height="23" viewBox="0 0 23 23" fill="none" xmlns="http://www.w3.org/2000/svg">
<rect x="0.5" y="0.5" width="22" height="22" rx="1.5" fill="white" stroke="#18214D"/>
<rect x="0.5" y="0.5" width="19" height="19" rx="1.5" fill="#A8C5F2" stroke="#18214D"/>
<path d="M6.693 7.706C6.76767 7.21133 6.90767 6.77733 7.113 6.404C7.31833 6.03067 7.575 5.72033 7.883 5.473C8.191 5.22567 8.541 5.04133 8.933 4.92C9.32967 4.794 9.75667 4.731 10.214 4.731C10.6993 4.731 11.1333 4.801 11.516 4.941C11.9033 5.07633 12.23 5.263 12.496 5.501C12.762 5.739 12.965 6.01667 13.105 6.334C13.2497 6.65133 13.322 6.992 13.322 7.356C13.322 7.678 13.287 7.96267 13.217 8.21C13.1517 8.45267 13.0513 8.665 12.916 8.847C12.7853 9.029 12.622 9.183 12.426 9.309C12.2347 9.435 12.013 9.54 11.761 9.624C12.9277 10.0067 13.511 10.7837 13.511 11.955C13.511 12.473 13.4153 12.9303 13.224 13.327C13.0327 13.719 12.776 14.048 12.454 14.314C12.132 14.58 11.7563 14.7807 11.327 14.916C10.9023 15.0467 10.4567 15.112 9.99 15.112C9.49533 15.112 9.059 15.056 8.681 14.944C8.303 14.832 7.96933 14.664 7.68 14.44C7.39533 14.216 7.15033 13.936 6.945 13.6C6.73967 13.2593 6.56 12.8627 6.406 12.41L7.26 12.06C7.484 11.9667 7.69167 11.941 7.883 11.983C8.079 12.025 8.219 12.1277 8.303 12.291C8.39633 12.4683 8.49433 12.6317 8.597 12.781C8.70433 12.9303 8.82333 13.061 8.954 13.173C9.08467 13.2803 9.23167 13.3643 9.395 13.425C9.563 13.4857 9.75433 13.516 9.969 13.516C10.2397 13.516 10.4753 13.4717 10.676 13.383C10.8767 13.2943 11.0447 13.18 11.18 13.04C11.3153 12.8953 11.4157 12.7343 11.481 12.557C11.551 12.375 11.586 12.1953 11.586 12.018C11.586 11.7847 11.565 11.5747 11.523 11.388C11.481 11.1967 11.383 11.0357 11.229 10.905C11.0797 10.7697 10.8557 10.667 10.557 10.597C10.263 10.5223 9.86167 10.485 9.353 10.485V9.127C9.77767 9.127 10.1253 9.092 10.396 9.022C10.6667 8.952 10.879 8.854 11.033 8.728C11.187 8.602 11.292 8.45033 11.348 8.273C11.4087 8.09567 11.439 7.902 11.439 7.692C11.439 7.24867 11.3223 6.91033 11.089 6.677C10.8603 6.44367 10.5337 6.327 10.109 6.327C9.92233 6.327 9.74967 6.355 9.591 6.411C9.437 6.46233 9.297 6.53467 9.171 6.628C9.04967 6.72133 8.94467 6.831 8.856 6.957C8.76733 7.083 8.702 7.22067 8.66 7.37C8.57133 7.60333 8.457 7.75967 8.317 7.839C8.177 7.91367 7.974 7.93 7.708 7.888L6.693 7.706Z" fill="#18214D"/>
</svg>
