<svg width="23" height="23" viewBox="0 0 23 23" fill="none" xmlns="http://www.w3.org/2000/svg">
<rect x="0.5" y="0.5" width="22" height="22" rx="1.5" fill="white" stroke="#18214D"/>
<rect x="0.5" y="0.5" width="19" height="19" rx="1.5" fill="#A8C5F2" stroke="#18214D"/>
<path d="M13.294 13.579V15H7.596V13.579H9.612V8.021C9.612 7.89967 9.61433 7.776 9.619 7.65C9.62367 7.524 9.63067 7.39567 9.64 7.265L8.31 8.371C8.21667 8.441 8.12567 8.48533 8.037 8.504C7.94833 8.52267 7.86433 8.525 7.785 8.511C7.70567 8.49233 7.63567 8.46433 7.575 8.427C7.51433 8.385 7.46767 8.343 7.435 8.301L6.826 7.482L9.948 4.836H11.537V13.579H13.294Z" fill="#18214D"/>
</svg>
