<svg width="41" height="40" viewBox="0 0 41 40" fill="none" xmlns="http://www.w3.org/2000/svg">
    <g clip-path="url(#clip0_1015_31027)">
        <path d="M40.7285 31.8619L32.1035 23.2369C32.1463 23.2034 32.1912 23.1727 32.2379 23.1451L34.5367 21.9219C35.1245 21.6129 35.5684 21.0864 35.7735 20.4547C35.9787 19.823 35.9289 19.1362 35.6348 18.5407L34.4898 16.1988C34.4019 16.0203 34.3562 15.824 34.3562 15.6251C34.3562 15.4261 34.4019 15.2298 34.4898 15.0513L35.6348 12.7094C35.9289 12.1139 35.9787 11.4271 35.7735 10.7954C35.5684 10.1638 35.1245 9.63725 34.5367 9.32819L32.2354 8.10631C32.0595 8.01363 31.9072 7.88171 31.7904 7.72078C31.6735 7.55984 31.5953 7.37419 31.5617 7.17819L31.111 4.61069C30.9989 3.95624 30.6356 3.37147 30.0986 2.98104C29.5615 2.59062 28.8932 2.42543 28.236 2.52069L25.6548 2.88631C25.4579 2.91373 25.2574 2.89607 25.0684 2.83468C24.8794 2.7733 24.7067 2.66978 24.5635 2.53194L22.6885 0.71944C22.2131 0.255674 21.5752 -0.00390625 20.911 -0.00390625C20.2469 -0.00390625 19.609 0.255674 19.1335 0.71944L17.2585 2.53194C17.1154 2.66978 16.9427 2.7733 16.7537 2.83468C16.5647 2.89607 16.3641 2.91373 16.1673 2.88631L13.5854 2.52069C12.9284 2.42576 12.2602 2.59108 11.7232 2.98145C11.1862 3.37181 10.8228 3.95639 10.7104 4.61069L10.2598 7.17819C10.2262 7.37429 10.1479 7.56001 10.0309 7.72096C9.91399 7.88192 9.76154 8.01377 9.58542 8.10631L7.28667 9.32819C6.69881 9.63725 6.25497 10.1638 6.04983 10.7954C5.84468 11.4271 5.89446 12.1139 6.18855 12.7094L7.33355 15.0513C7.42144 15.2298 7.46715 15.4261 7.46715 15.6251C7.46715 15.824 7.42144 16.0203 7.33355 16.1988L6.18605 18.5407C5.89196 19.1362 5.84218 19.823 6.04733 20.4547C6.25247 21.0864 6.69631 21.6129 7.28417 21.9219L9.58792 23.1438C9.63438 23.1716 9.67905 23.2023 9.72167 23.2357L1.09667 31.8607C1.0177 31.9396 0.96129 32.0381 0.933301 32.1462C0.905312 32.2542 0.906767 32.3678 0.937513 32.4751C0.968259 32.5824 1.02717 32.6795 1.10814 32.7563C1.1891 32.8331 1.28916 32.8869 1.39792 32.9119L6.7623 34.1501L8.00042 39.5144C8.0255 39.6232 8.07924 39.7233 8.15606 39.8042C8.23288 39.8852 8.32998 39.9441 8.43727 39.9749C8.54457 40.0056 8.65813 40.0071 8.76618 39.9791C8.87422 39.9511 8.9728 39.8947 9.05167 39.8157L18.7285 30.1382L19.1342 30.5313C19.6097 30.9949 20.2475 31.2544 20.9117 31.2544C21.5758 31.2544 22.2136 30.9949 22.6892 30.5313L23.0948 30.1382L32.7735 39.8169C32.8524 39.8959 32.951 39.9523 33.059 39.9803C33.1671 40.0083 33.2807 40.0068 33.3879 39.9761C33.4952 39.9454 33.5923 39.8864 33.6692 39.8055C33.746 39.7245 33.7997 39.6244 33.8248 39.5157L35.0629 34.1513L40.4273 32.9132C40.5361 32.8881 40.6361 32.8344 40.7171 32.7576C40.798 32.6807 40.857 32.5836 40.8877 32.4763C40.9184 32.369 40.9199 32.2555 40.8919 32.1474C40.8639 32.0394 40.8075 31.9408 40.7285 31.8619V31.8619ZM8.96292 38.1357L7.89105 33.4894C7.86473 33.3752 7.80683 33.2707 7.72394 33.1878C7.64105 33.1049 7.53653 33.047 7.4223 33.0207L2.77605 31.9488L10.3204 24.4044L10.7123 26.6394C10.825 27.2936 11.1885 27.878 11.7254 28.2683C12.2623 28.6586 12.9303 28.824 13.5873 28.7294L16.1685 28.3638C16.3654 28.3367 16.5658 28.3545 16.7548 28.4158C16.9438 28.4772 17.1164 28.5806 17.2598 28.7182L17.8292 29.2688L8.96292 38.1357ZM20.0035 29.6326L19.1629 28.8201L18.1292 27.8201C17.6549 27.3584 17.0192 27.1001 16.3573 27.1001C16.2358 27.1003 16.1145 27.1088 15.9942 27.1257L13.4117 27.4913C13.0757 27.5407 12.7338 27.4565 12.4592 27.2569C12.1845 27.0572 11.999 26.758 11.9423 26.4232L11.4917 23.8557C11.4364 23.5642 11.3306 23.2846 11.1792 23.0294C11.165 22.999 11.1485 22.9698 11.1298 22.9419C10.8965 22.5623 10.567 22.251 10.1748 22.0394L7.87167 20.8176C7.57102 20.66 7.3439 20.3911 7.23881 20.0683C7.13371 19.7455 7.15896 19.3945 7.30917 19.0901L8.45417 16.7501C8.62594 16.4006 8.71526 16.0164 8.71526 15.6269C8.71526 15.2375 8.62594 14.8533 8.45417 14.5038L7.30917 12.1619C7.15896 11.8575 7.13371 11.5065 7.23881 11.1837C7.3439 10.8609 7.57102 10.592 7.87167 10.4344L10.1742 9.21256C10.5187 9.03131 10.817 8.77323 11.0459 8.45829C11.2748 8.14336 11.4281 7.78 11.4942 7.39631L11.9448 4.82881C12.0005 4.49389 12.1853 4.19418 12.4596 3.99409C12.7339 3.79401 13.0757 3.70953 13.4117 3.75881L15.9935 4.12444C16.3788 4.17975 16.7717 4.14592 17.1418 4.02553C17.5119 3.90515 17.8495 3.70143 18.1285 3.43006L20.0035 1.61756C20.2464 1.38049 20.5723 1.24778 20.9117 1.24778C21.251 1.24778 21.577 1.38049 21.8198 1.61756L23.6948 3.43006C23.9737 3.70149 24.3111 3.9053 24.6812 4.02579C25.0512 4.14628 25.4439 4.18025 25.8292 4.12506L28.4117 3.75881C28.7476 3.70928 29.0896 3.79336 29.3643 3.99304C29.639 4.19272 29.8245 4.49208 29.881 4.82694L30.3317 7.39444C30.3977 7.77803 30.5511 8.14132 30.7798 8.45623C31.0086 8.77115 31.3067 9.02928 31.651 9.21069L33.9542 10.4326C34.2548 10.5902 34.4819 10.8591 34.587 11.1818C34.6921 11.5046 34.6669 11.8557 34.5167 12.1601L33.3692 14.5001C33.1974 14.8495 33.1081 15.2338 33.1081 15.6232C33.1081 16.0126 33.1974 16.3968 33.3692 16.7463L34.5142 19.0882C34.6644 19.3926 34.6896 19.7437 34.5845 20.0664C34.4794 20.3892 34.2523 20.6581 33.9517 20.8157L31.6492 22.0376C31.3046 22.2188 31.0064 22.4769 30.7775 22.7918C30.5486 23.1068 30.3952 23.4701 30.3292 23.8538L29.8785 26.4213C29.8221 26.7559 29.6371 27.0551 29.363 27.255C29.0889 27.455 28.7475 27.5398 28.4117 27.4913L25.8285 27.1251C25.4433 27.0698 25.0505 27.1037 24.6803 27.224C24.3102 27.3444 23.9726 27.5481 23.6935 27.8194L21.8185 29.6319C21.5758 29.8687 21.2502 30.0013 20.9112 30.0014C20.5721 30.0015 20.2464 29.8692 20.0035 29.6326V29.6326ZM34.401 33.0207C34.2868 33.047 34.1823 33.1049 34.0994 33.1878C34.0165 33.2707 33.9586 33.3752 33.9323 33.4894L32.8604 38.1357L23.9935 29.2688L24.5623 28.7182C24.7057 28.5807 24.8784 28.4775 25.0674 28.4161C25.2563 28.3547 25.4567 28.3369 25.6535 28.3638L28.2354 28.7294C28.8925 28.8242 29.5605 28.6588 30.0975 28.2685C30.6344 27.8781 30.9979 27.2937 31.1104 26.6394L31.5023 24.4044L39.0473 31.9488L34.401 33.0207Z" fill="current"/>
        <path d="M30.2866 15.6248C30.287 13.3802 29.4814 11.21 28.0166 9.50919C27.9653 9.44068 27.9005 9.38344 27.8262 9.34101C27.7518 9.29858 27.6696 9.27187 27.5845 9.26253C27.4994 9.2532 27.4133 9.26144 27.3316 9.28674C27.2498 9.31204 27.1741 9.35387 27.1092 9.40962C27.0443 9.46538 26.9915 9.53388 26.9541 9.61088C26.9167 9.68788 26.8955 9.77173 26.8919 9.85724C26.8883 9.94275 26.9022 10.0281 26.9329 10.108C26.9636 10.1879 27.0104 10.2606 27.0704 10.3217C28.4116 11.8818 29.1102 13.893 29.0249 15.9486C28.9397 18.0041 28.0769 19.9506 26.6112 21.3943C25.1454 22.838 23.1861 23.6711 21.1295 23.7251C19.0728 23.7792 17.0724 23.0501 15.5329 21.6854C13.9934 20.3207 13.0296 18.4222 12.8365 16.3739C12.6434 14.3257 13.2354 12.2806 14.4928 10.6522C15.7502 9.02382 17.5792 7.93378 19.6097 7.60255C21.6402 7.27131 23.7207 7.7236 25.4304 8.86794C25.4984 8.91654 25.5755 8.95099 25.6571 8.96925C25.7387 8.98752 25.8231 8.98923 25.9054 8.97428C25.9877 8.95933 26.0661 8.92803 26.136 8.88223C26.206 8.83642 26.266 8.77705 26.3126 8.70762C26.3592 8.6382 26.3914 8.56013 26.4073 8.47804C26.4232 8.39595 26.4224 8.31151 26.4051 8.22972C26.3877 8.14792 26.3541 8.07044 26.3063 8.00186C26.2585 7.93328 26.1974 7.87499 26.1266 7.83044C24.3897 6.66773 22.3139 6.11883 20.2293 6.27097C18.1446 6.4231 16.1706 7.26754 14.6208 8.67011C13.0711 10.0727 12.0345 11.9529 11.6757 14.0121C11.317 16.0713 11.6567 18.1913 12.6409 20.0353C13.6251 21.8794 15.1973 23.3416 17.1077 24.1897C19.0181 25.0378 21.1571 25.2232 23.185 24.7163C25.2128 24.2094 27.0131 23.0395 28.2998 21.3922C29.5865 19.745 30.2858 17.715 30.2866 15.6248Z" fill="current"/>
        <path d="M24.5211 12.6949L19.6511 17.8237L17.3186 15.1662C17.2661 15.0992 17.2006 15.0436 17.1259 15.0028C17.0513 14.9621 16.9691 14.937 16.8844 14.9291C16.7997 14.9212 16.7143 14.9307 16.6334 14.957C16.5525 14.9832 16.4778 15.0257 16.4139 15.0819C16.35 15.138 16.2982 15.2066 16.2617 15.2835C16.2253 15.3603 16.2049 15.4438 16.2018 15.5288C16.1988 15.6138 16.2131 15.6986 16.2439 15.7779C16.2747 15.8571 16.3214 15.9293 16.3811 15.9899L19.1617 19.1618C19.2189 19.2272 19.2892 19.2799 19.368 19.3166C19.4468 19.3533 19.5323 19.3731 19.6192 19.3749H19.6317C19.7165 19.3748 19.8004 19.3575 19.8783 19.324C19.9562 19.2905 20.0265 19.2415 20.0848 19.1799L25.4254 13.5549C25.485 13.496 25.5322 13.4258 25.5641 13.3483C25.596 13.2709 25.612 13.1878 25.6111 13.104C25.6103 13.0203 25.5926 12.9375 25.5591 12.8607C25.5257 12.7839 25.4771 12.7147 25.4164 12.657C25.3556 12.5993 25.2839 12.5545 25.2054 12.5251C25.127 12.4957 25.0434 12.4824 24.9597 12.4859C24.8761 12.4894 24.7939 12.5098 24.7183 12.5457C24.6426 12.5816 24.5749 12.6323 24.5192 12.6949H24.5211Z" fill="current"/>
    </g>
    <defs>
        <clipPath id="clip0_1015_31027">
            <rect width="40" height="40" fill="white" transform="translate(0.911621)"/>
        </clipPath>
    </defs>
</svg>
