<svg width="61" height="60" viewBox="0 0 61 60" fill="none" xmlns="http://www.w3.org/2000/svg">
    <path d="M54.0185 55.2757C54.1852 55.4144 54.387 55.4821 54.588 55.4821C54.8434 55.4821 55.097 55.3727 55.2733 55.1608C55.5882 54.7827 55.5369 54.221 55.1584 53.906L40.9517 42.0774C40.5736 41.7625 40.0119 41.8138 39.6965 42.1923C39.382 42.5704 39.4333 43.1321 39.8114 43.4471L54.0185 55.2757Z" fill="#0B73EB"/>
    <path d="M7.2288 55.4817C7.42976 55.4817 7.63209 55.4144 7.79872 55.2757L22.0059 43.4466C22.384 43.1322 22.4353 42.57 22.1203 42.1919C21.8054 41.8138 21.2437 41.7625 20.8656 42.0775L6.65889 53.9061C6.28032 54.221 6.22905 54.7827 6.54399 55.1608C6.71977 55.3728 6.97383 55.4817 7.2288 55.4817Z" fill="#0B73EB"/>
    <path d="M17.8411 26.4647H36.6112C37.1033 26.4647 37.502 26.0655 37.502 25.5734C37.502 25.0813 37.1033 24.6826 36.6112 24.6826H17.8411C17.349 24.6826 16.9498 25.0813 16.9498 25.5734C16.9498 26.0655 17.349 26.4647 17.8411 26.4647Z" fill="#0B73EB"/>
    <path d="M43.9762 29.8574H17.8411C17.349 29.8574 16.9498 30.2566 16.9498 30.7487C16.9498 31.2408 17.349 31.6395 17.8411 31.6395H43.9762C44.4688 31.6395 44.8675 31.2408 44.8675 30.7487C44.8675 30.2566 44.4683 29.8574 43.9762 29.8574Z" fill="#0B73EB"/>
    <path d="M17.8411 16.1151H30.9089C31.401 16.1151 31.7997 15.7159 31.7997 15.2238C31.7997 14.7322 31.401 14.333 30.9089 14.333H17.8411C17.349 14.333 16.9498 14.7322 16.9498 15.2238C16.9498 15.7159 17.349 16.1151 17.8411 16.1151Z" fill="#0B73EB"/>
    <path d="M25.7106 20.3991C25.7106 20.8912 26.1097 21.2899 26.6018 21.2899H33.0471C33.5392 21.2899 33.938 20.8912 33.938 20.3991C33.938 19.907 33.5392 19.5078 33.0471 19.5078H26.6018C26.1097 19.5078 25.7106 19.907 25.7106 20.3991Z" fill="#0B73EB"/>
    <path d="M17.8411 21.2899H23.6313C24.1234 21.2899 24.5226 20.8912 24.5226 20.3991C24.5226 19.907 24.1234 19.5078 23.6313 19.5078H17.8411C17.349 19.5078 16.9498 19.907 16.9498 20.3991C16.9498 20.8912 17.349 21.2899 17.8411 21.2899Z" fill="#0B73EB"/>
    <path d="M50.8793 7.28749L46.1039 18.4304L41.8678 13.3858C41.5515 13.0091 40.9898 12.9601 40.6126 13.2764C40.2358 13.5932 40.1869 14.1553 40.5036 14.5321L45.6704 20.6849C45.8412 20.8881 46.0916 21.003 46.3525 21.003C46.3955 21.003 46.439 20.9998 46.4829 20.9934C46.7887 20.9481 47.0497 20.7476 47.1714 20.4628L52.5172 7.98924C52.7113 7.53697 52.5016 7.01329 52.0494 6.8192C51.5971 6.62556 51.0734 6.83522 50.8793 7.28749Z" fill="#0B73EB"/>
    <path d="M60.1387 20.9009L58.2852 19.3578C59.2026 17.5441 59.7171 15.5034 59.7171 13.3652C59.7171 10.9473 59.0616 8.57929 57.8224 6.51798C57.5684 6.09592 57.0209 5.95997 56.5993 6.21357C56.1777 6.46717 56.0413 7.01466 56.2949 7.43626C57.3679 9.22016 57.935 11.2705 57.935 13.3648C57.935 18.8597 54.0289 23.6155 48.6465 24.672C47.9146 24.8162 47.1625 24.8894 46.4117 24.8894C40.0575 24.8894 34.888 19.7194 34.888 13.3648C34.888 7.01099 40.0575 1.84147 46.4117 1.84147C47.1625 1.84147 47.9141 1.91471 48.6465 2.05891C50.7326 2.46861 52.6643 3.45188 54.2336 4.90345C54.5947 5.23716 55.1587 5.21519 55.4929 4.85401C55.827 4.49284 55.8046 3.92887 55.4434 3.5947C53.6316 1.91929 51.4 0.783577 48.9908 0.310249C48.1453 0.144081 47.2778 0.0593948 46.4117 0.0593948C43.391 0.0593948 40.6032 1.07197 38.367 2.77439L38.2091 2.64256C33.9793 -0.880852 27.8384 -0.880852 23.6073 2.64256L23.2068 2.97672H14.8618C10.8064 2.97672 7.50687 6.27537 7.50687 10.3302V16.1081L1.47858 21.1271C1.46072 21.1344 1.44287 21.1417 1.42502 21.1504C1.11191 21.2969 0.912323 21.6114 0.912323 21.957V46.4624C0.912323 46.9545 1.31104 47.3532 1.80313 47.3532C2.29523 47.3532 2.6944 46.9545 2.6944 46.4624V23.8585L23.6078 41.2719C25.7231 43.0333 28.3159 43.9145 30.9087 43.9141C33.5014 43.9141 36.0942 43.0333 38.2086 41.2719L59.1229 23.8585V53.5202C59.1229 56.1107 57.0158 58.2178 54.4254 58.2178H7.39151C4.80103 58.2178 2.69394 56.1107 2.69394 53.5202V50.0266C2.69394 49.5345 2.29477 49.1358 1.80267 49.1358C1.31104 49.1358 0.911865 49.5345 0.911865 50.0266V53.5202C0.911865 57.0931 3.81866 59.9999 7.39151 59.9999H54.4254C57.9982 59.9999 60.905 57.0931 60.905 53.5202V21.9812C60.905 21.9808 60.905 21.9803 60.905 21.9799C60.916 21.5482 60.7823 21.437 60.1387 20.9009V20.9009ZM35.5504 2.97672H26.2665C29.1518 1.38599 32.666 1.38599 35.5504 2.97672ZM7.50687 18.4267V25.5468L3.23135 21.9867L7.50687 18.4267ZM37.0683 39.9027C33.4996 42.8754 28.3182 42.8754 24.7481 39.9022L9.28894 27.0304V10.3302C9.28894 7.25773 11.7888 4.75834 14.8618 4.75834H23.5323H23.5355H36.2732C34.2993 7.08012 33.1064 10.0858 33.1064 13.3652C33.1064 20.7022 39.0752 26.6715 46.4117 26.6715C47.2778 26.6715 48.1458 26.5873 48.9903 26.4206C50.2478 26.1739 51.4343 25.7495 52.5288 25.181V27.0299L37.0683 39.9027ZM54.3109 25.5463V24.0696C55.4984 23.1907 56.5306 22.1213 57.3651 20.9105C57.7547 21.2346 58.2262 21.6274 58.6221 21.957L54.3109 25.5463Z" fill="#0B73EB"/>
</svg>
