<svg width="48" height="48" viewBox="0 0 48 48" fill="none" xmlns="http://www.w3.org/2000/svg">
<g clip-path="url(#clip0)">
<path d="M24 26C20.14 26 17 22.86 17 19C17 15.14 20.14 12 24 12C27.86 12 31 15.14 31 19C31 22.86 27.86 26 24 26ZM24 14C21.244 14 19 16.244 19 19C19 21.756 21.244 24 24 24C26.756 24 29 21.756 29 19C29 16.244 26.756 14 24 14Z" fill="white"/>
<path d="M24 41.9999C10.542 41.9999 0 36.7279 0 29.9999C0 28.1999 0.786 26.414 2.272 24.834C2.652 24.432 3.284 24.414 3.686 24.792C4.088 25.17 4.106 25.804 3.728 26.206C2.582 27.4239 2 28.6999 2 29.9999C2 35.4199 12.076 39.9999 24 39.9999C24.552 39.9999 25 40.4479 25 40.9999C25 41.5519 24.552 41.9999 24 41.9999Z" fill="white"/>
<path d="M29.0723 41.7318C28.5683 41.7318 28.1342 41.3518 28.0782 40.8398C28.0182 40.2898 28.4162 39.7978 28.9662 39.7378C38.8362 38.6758 46.0002 34.5798 46.0002 29.9999C46.0002 28.6819 45.4202 27.4079 44.2782 26.2099C43.8962 25.8119 43.9102 25.1779 44.3102 24.7959C44.7102 24.4119 45.3422 24.4279 45.7242 24.8279C47.2122 26.3879 48.0002 28.1759 48.0002 29.9999C48.0002 35.7118 40.2602 40.5338 29.1782 41.7258C29.1422 41.7298 29.1063 41.7318 29.0723 41.7318Z" fill="white"/>
<path d="M38 32H10C7.794 32 6 30.206 6 28V12C6 9.794 7.794 8 10 8H15.382L17.552 3.658C18.064 2.636 19.092 2 20.236 2H27.764C28.908 2 29.936 2.636 30.448 3.658L32.618 8H38C40.206 8 42 9.794 42 12V28C42 30.206 40.206 32 38 32ZM10 10C8.898 10 8 10.898 8 12V28C8 29.102 8.898 30 10 30H38C39.102 30 40 29.102 40 28V12C40 10.898 39.102 10 38 10H32C31.622 10 31.276 9.786 31.106 9.448L28.658 4.554C28.488 4.212 28.146 4 27.764 4H20.236C19.854 4 19.512 4.212 19.342 4.552L16.894 9.448C16.724 9.786 16.378 10 16 10H10Z" fill="white"/>
<path d="M19.0004 45.9999C18.7064 45.9999 18.4164 45.8719 18.2184 45.6239C17.8744 45.1919 17.9444 44.5639 18.3744 44.2179L22.4004 40.9999L18.3764 37.7819C17.9464 37.4359 17.8764 36.8079 18.2204 36.3759C18.5664 35.9459 19.1964 35.8759 19.6264 36.2199L24.6264 40.2199C24.8644 40.4099 25.0024 40.6979 25.0024 41.0019C25.0024 41.3059 24.8644 41.5919 24.6264 41.7839L19.6264 45.7839C19.4404 45.9279 19.2204 45.9999 19.0004 45.9999Z" fill="white"/>
</g>
<defs>
<clipPath id="clip0">
<rect width="48" height="48" fill="white"/>
</clipPath>
</defs>
</svg>
