<svg width="23" height="23" viewBox="0 0 23 23" fill="none" xmlns="http://www.w3.org/2000/svg">
<path d="M9.34375 6.46875C8.9468 6.46875 8.625 6.79055 8.625 7.1875V8.35547C8.625 8.55395 8.78589 8.71484 8.98438 8.71484C9.18286 8.71484 9.34375 8.55395 9.34375 8.35547V7.1875H10.332V8.35547C10.332 8.55395 10.4929 8.71484 10.6914 8.71484C10.8899 8.71484 11.0508 8.55395 11.0508 8.35547V7.1875C11.0508 6.79055 10.729 6.46875 10.332 6.46875H9.34375Z" fill="#18214D"/>
<path d="M13.1172 6.46875C12.7202 6.46875 12.3984 6.79055 12.3984 7.1875V8.35547C12.3984 8.55395 12.5593 8.71484 12.7578 8.71484C12.9563 8.71484 13.1172 8.55395 13.1172 8.35547V7.1875H14.1055V8.35547C14.1055 8.55395 14.2664 8.71484 14.4648 8.71484C14.6633 8.71484 14.8242 8.55395 14.8242 8.35547V7.1875C14.8242 6.79055 14.5024 6.46875 14.1055 6.46875H13.1172Z" fill="#18214D"/>
<path d="M9.34375 9.34375C8.9468 9.34375 8.625 9.66555 8.625 10.0625V11.2305C8.625 11.429 8.78589 11.5898 8.98438 11.5898C9.18286 11.5898 9.34375 11.429 9.34375 11.2305V10.0625H10.332V11.2305C10.332 11.429 10.4929 11.5898 10.6914 11.5898C10.8899 11.5898 11.0508 11.429 11.0508 11.2305V10.0625C11.0508 9.66555 10.729 9.34375 10.332 9.34375H9.34375Z" fill="#18214D"/>
<path d="M13.1172 9.34375C12.7202 9.34375 12.3984 9.66555 12.3984 10.0625V11.2305C12.3984 11.429 12.5593 11.5898 12.7578 11.5898C12.9563 11.5898 13.1172 11.429 13.1172 11.2305V10.0625H14.1055V11.2305C14.1055 11.429 14.2664 11.5898 14.4648 11.5898C14.6633 11.5898 14.8242 11.429 14.8242 11.2305V10.0625C14.8242 9.66555 14.5024 9.34375 14.1055 9.34375H13.1172Z" fill="#18214D"/>
<path d="M9.34375 12.7578C8.9468 12.7578 8.625 13.0796 8.625 13.4766V14.6445C8.625 14.843 8.78589 15.0039 8.98438 15.0039C9.18286 15.0039 9.34375 14.843 9.34375 14.6445V13.4766H10.332V14.6445C10.332 14.843 10.4929 15.0039 10.6914 15.0039C10.8899 15.0039 11.0508 14.843 11.0508 14.6445V13.4766C11.0508 13.0796 10.729 12.7578 10.332 12.7578H9.34375Z" fill="#18214D"/>
<path d="M13.1172 12.7578C12.7202 12.7578 12.3984 13.0796 12.3984 13.4766V14.6445C12.3984 14.843 12.5593 15.0039 12.7578 15.0039C12.9563 15.0039 13.1172 14.843 13.1172 14.6445V13.4766H14.1055V14.6445C14.1055 14.843 14.2664 15.0039 14.4648 15.0039C14.6633 15.0039 14.8242 14.843 14.8242 14.6445V13.4766C14.8242 13.0796 14.5024 12.7578 14.1055 12.7578H13.1172Z" fill="#18214D"/>
<path fill-rule="evenodd" clip-rule="evenodd" d="M8.44531 2.24609C8.04836 2.24609 7.72656 2.5679 7.72656 2.96484V4.04297H7.1875C6.79055 4.04297 6.46875 4.36477 6.46875 4.76172V20.3945C6.46875 20.7915 6.79055 21.1133 7.1875 21.1133H16.1719C16.5688 21.1133 16.8906 20.7915 16.8906 20.3945V4.76172C16.8906 4.36477 16.5688 4.04297 16.1719 4.04297H15.4531V2.96484C15.4531 2.5679 15.1313 2.24609 14.7344 2.24609H8.44531ZM14.7344 4.04297H8.44531V2.96484H14.7344V4.04297ZM7.1875 4.76172H16.1719V20.3945H13.1172V17.3398C13.1172 17.1414 12.9563 16.9805 12.7578 16.9805H10.6016C10.4031 16.9805 10.2422 17.1414 10.2422 17.3398V20.3945H7.1875V4.76172ZM10.9609 20.3945H12.3984V17.6992H10.9609V20.3945Z" fill="#18214D"/>
<path d="M3.68359 8.08594C3.68359 7.68899 4.0054 7.36719 4.40234 7.36719H5.48047C5.67895 7.36719 5.83984 7.52808 5.83984 7.72656C5.83984 7.92505 5.67895 8.08594 5.48047 8.08594H4.40234V9.07422H5.48047C5.67895 9.07422 5.83984 9.23511 5.83984 9.43359C5.83984 9.63208 5.67895 9.79297 5.48047 9.79297H2.96484V20.3945H5.48047C5.67895 20.3945 5.83984 20.5554 5.83984 20.7539C5.83984 20.9525 5.67895 21.1133 5.48047 21.1133H2.96484C2.5679 21.1133 2.24609 20.7915 2.24609 20.3945V9.79297C2.24609 9.39602 2.5679 9.07422 2.96484 9.07422H3.68359V8.08594Z" fill="#18214D"/>
<path d="M17.5195 11.8594C17.5195 11.6609 17.6804 11.5 17.8789 11.5H19.1367C19.5336 11.5 19.8555 11.8218 19.8555 12.2188V13.1172H20.0352C20.4321 13.1172 20.7539 13.439 20.7539 13.8359V20.3945C20.7539 20.7915 20.4321 21.1133 20.0352 21.1133H17.8789C17.6804 21.1133 17.5195 20.9525 17.5195 20.7539C17.5195 20.5554 17.6804 20.3945 17.8789 20.3945H20.0352V13.8359H17.8789C17.6804 13.8359 17.5195 13.675 17.5195 13.4766C17.5195 13.2781 17.6804 13.1172 17.8789 13.1172H19.1367V12.2188H17.8789C17.6804 12.2188 17.5195 12.0579 17.5195 11.8594Z" fill="#18214D"/>
</svg>
