<svg width="40" height="40" viewBox="0 0 40 40" fill="none" xmlns="http://www.w3.org/2000/svg">
<path d="M16.25 11.25C15.5597 11.25 15 11.8097 15 12.5V14.5312C15 14.8764 15.2798 15.1562 15.625 15.1562C15.9702 15.1562 16.25 14.8764 16.25 14.5312V12.5H17.9688V14.5312C17.9688 14.8764 18.2486 15.1562 18.5938 15.1562C18.9389 15.1562 19.2188 14.8764 19.2188 14.5312V12.5C19.2188 11.8097 18.6591 11.25 17.9688 11.25H16.25Z" fill="current"/>
<path d="M22.8125 11.25C22.1222 11.25 21.5625 11.8097 21.5625 12.5V14.5312C21.5625 14.8764 21.8423 15.1562 22.1875 15.1562C22.5327 15.1562 22.8125 14.8764 22.8125 14.5312V12.5H24.5312V14.5312C24.5312 14.8764 24.8111 15.1562 25.1562 15.1562C25.5014 15.1562 25.7812 14.8764 25.7812 14.5312V12.5C25.7812 11.8097 25.2216 11.25 24.5312 11.25H22.8125Z" fill="current"/>
<path d="M16.25 16.25C15.5597 16.25 15 16.8097 15 17.5V19.5312C15 19.8764 15.2798 20.1562 15.625 20.1562C15.9702 20.1562 16.25 19.8764 16.25 19.5312V17.5H17.9688V19.5312C17.9688 19.8764 18.2486 20.1562 18.5938 20.1562C18.9389 20.1562 19.2188 19.8764 19.2188 19.5312V17.5C19.2188 16.8097 18.6591 16.25 17.9688 16.25H16.25Z" fill="current"/>
<path d="M22.8125 16.25C22.1222 16.25 21.5625 16.8097 21.5625 17.5V19.5312C21.5625 19.8764 21.8423 20.1562 22.1875 20.1562C22.5327 20.1562 22.8125 19.8764 22.8125 19.5312V17.5H24.5312V19.5312C24.5312 19.8764 24.8111 20.1562 25.1562 20.1562C25.5014 20.1562 25.7812 19.8764 25.7812 19.5312V17.5C25.7812 16.8097 25.2216 16.25 24.5312 16.25H22.8125Z" fill="current"/>
<path d="M16.25 22.1875C15.5597 22.1875 15 22.7472 15 23.4375V25.4688C15 25.8139 15.2798 26.0938 15.625 26.0938C15.9702 26.0938 16.25 25.8139 16.25 25.4688V23.4375H17.9688V25.4688C17.9688 25.8139 18.2486 26.0938 18.5938 26.0938C18.9389 26.0938 19.2188 25.8139 19.2188 25.4688V23.4375C19.2188 22.7472 18.6591 22.1875 17.9688 22.1875H16.25Z" fill="current"/>
<path d="M22.8125 22.1875C22.1222 22.1875 21.5625 22.7472 21.5625 23.4375V25.4688C21.5625 25.8139 21.8423 26.0938 22.1875 26.0938C22.5327 26.0938 22.8125 25.8139 22.8125 25.4688V23.4375H24.5312V25.4688C24.5312 25.8139 24.8111 26.0938 25.1562 26.0938C25.5014 26.0938 25.7812 25.8139 25.7812 25.4688V23.4375C25.7812 22.7472 25.2216 22.1875 24.5312 22.1875H22.8125Z" fill="current"/>
<path fill-rule="evenodd" clip-rule="evenodd" d="M14.6875 3.90625C13.9972 3.90625 13.4375 4.46591 13.4375 5.15625V7.03125H12.5C11.8097 7.03125 11.25 7.59091 11.25 8.28125V35.4688C11.25 36.1591 11.8097 36.7188 12.5 36.7188H28.125C28.8153 36.7188 29.375 36.1591 29.375 35.4688V8.28125C29.375 7.59091 28.8153 7.03125 28.125 7.03125H26.875V5.15625C26.875 4.46591 26.3153 3.90625 25.625 3.90625H14.6875ZM25.625 7.03125H14.6875V5.15625H25.625V7.03125ZM12.5 8.28125H28.125V35.4688H22.8125V30.1562C22.8125 29.8111 22.5327 29.5312 22.1875 29.5312H18.4375C18.0923 29.5312 17.8125 29.8111 17.8125 30.1562V35.4688H12.5V8.28125ZM19.0625 35.4688H21.5625V30.7812H19.0625V35.4688Z" fill="current"/>
<path d="M6.40625 14.0625C6.40625 13.3722 6.96591 12.8125 7.65625 12.8125H9.53125C9.87644 12.8125 10.1562 13.0923 10.1562 13.4375C10.1562 13.7827 9.87644 14.0625 9.53125 14.0625H7.65625V15.7812H9.53125C9.87644 15.7812 10.1562 16.0611 10.1562 16.4062C10.1562 16.7514 9.87644 17.0312 9.53125 17.0312H5.15625V35.4688H9.53125C9.87644 35.4688 10.1562 35.7484 10.1562 36.0938C10.1562 36.4391 9.87644 36.7188 9.53125 36.7188H5.15625C4.46591 36.7188 3.90625 36.1591 3.90625 35.4688V17.0312C3.90625 16.3409 4.46591 15.7812 5.15625 15.7812H6.40625V14.0625Z" fill="current"/>
<path d="M30.4688 20.625C30.4688 20.2798 30.7486 20 31.0938 20H33.2812C33.9716 20 34.5312 20.5597 34.5312 21.25V22.8125H34.8438C35.5341 22.8125 36.0938 23.3722 36.0938 24.0625V35.4688C36.0938 36.1591 35.5341 36.7188 34.8438 36.7188H31.0938C30.7486 36.7188 30.4688 36.4391 30.4688 36.0938C30.4688 35.7484 30.7486 35.4688 31.0938 35.4688H34.8438V24.0625H31.0938C30.7486 24.0625 30.4688 23.7827 30.4688 23.4375C30.4688 23.0923 30.7486 22.8125 31.0938 22.8125H33.2812V21.25H31.0938C30.7486 21.25 30.4688 20.9702 30.4688 20.625Z" fill="current"/>
</svg>
