<svg width="23" height="23" viewBox="0 0 23 23" fill="none" xmlns="http://www.w3.org/2000/svg">
<g clip-path="url(#clip0_1098_65849)">
<path d="M20.2975 10.3859L19.0602 10.18C18.9023 10.1539 18.7523 10.0929 18.6211 10.0015C18.4898 9.91001 18.3807 9.79041 18.3015 9.65138L16.5927 6.66137C16.3093 6.1667 15.9005 5.75552 15.4075 5.46931C14.9144 5.18311 14.3546 5.032 13.7845 5.03125H7.77795C7.2079 5.03197 6.64812 5.18302 6.15509 5.46916C5.66206 5.7553 5.25321 6.16641 4.9698 6.66102L3.22683 9.71103C3.15433 9.83717 3.05718 9.94743 2.94117 10.0352C2.82516 10.123 2.69265 10.1866 2.55156 10.2221L1.36059 10.5196C1.06406 10.5939 0.791461 10.7427 0.568718 10.9521C0.345976 11.1614 0.180504 11.4243 0.0880469 11.7156C0.0840937 11.725 0.0837344 11.7361 0.0805 11.7458C0.0284704 11.9133 0.00134711 12.0876 0 12.263L0 14.7344C0.000570636 15.2108 0.190067 15.6675 0.526923 16.0043C0.863779 16.3412 1.32049 16.5307 1.79688 16.5312H3.12117C3.32443 16.9612 3.64565 17.3246 4.04743 17.5791C4.44921 17.8336 4.91503 17.9687 5.39062 17.9687C5.86622 17.9687 6.33204 17.8336 6.73382 17.5791C7.1356 17.3246 7.45683 16.9612 7.66008 16.5312H15.3399C15.5432 16.9612 15.8644 17.3246 16.2662 17.5791C16.668 17.8336 17.1338 17.9687 17.6094 17.9687C18.085 17.9687 18.5508 17.8336 18.9526 17.5791C19.3544 17.3246 19.6756 16.9612 19.8788 16.5312H21.2031C21.6795 16.5307 22.1362 16.3412 22.4731 16.0043C22.8099 15.6675 22.9994 15.2108 23 14.7344V13.5761C23.0019 12.81 22.731 12.0682 22.2358 11.4837C21.7406 10.8991 21.0535 10.51 20.2975 10.3859ZM21.8838 12.2188C22.0259 12.4403 22.1323 12.6829 22.199 12.9375H21.9219C21.6368 12.9374 21.3632 12.8248 21.1607 12.6241C21.0469 12.5094 20.9598 12.371 20.9056 12.2188H21.8838ZM0.722344 12.2188H1.33652L1.15683 12.9375H0.71875V12.263C0.71875 12.2479 0.721984 12.2335 0.722344 12.2188ZM5.39062 17.25C5.03524 17.25 4.68783 17.1446 4.39233 16.9472C4.09684 16.7497 3.86653 16.4691 3.73053 16.1408C3.59453 15.8124 3.55894 15.4511 3.62828 15.1026C3.69761 14.754 3.86875 14.4338 4.12004 14.1825C4.37134 13.9312 4.69151 13.7601 5.04007 13.6908C5.38863 13.6214 5.74992 13.657 6.07826 13.793C6.4066 13.929 6.68723 14.1593 6.88467 14.4548C7.08212 14.7503 7.1875 15.0977 7.1875 15.4531C7.18693 15.9295 6.99743 16.3862 6.66058 16.7231C6.32372 17.0599 5.86701 17.2494 5.39062 17.25ZM17.6094 17.25C17.254 17.25 16.9066 17.1446 16.6111 16.9472C16.3156 16.7497 16.0853 16.4691 15.9493 16.1408C15.8133 15.8124 15.7777 15.4511 15.847 15.1026C15.9164 14.754 16.0875 14.4338 16.3388 14.1825C16.5901 13.9312 16.9103 13.7601 17.2588 13.6908C17.6074 13.6214 17.9687 13.657 18.297 13.793C18.6253 13.929 18.906 14.1593 19.1034 14.4548C19.3009 14.7503 19.4062 15.0977 19.4062 15.4531C19.4057 15.9295 19.2162 16.3862 18.8793 16.7231C18.5425 17.0599 18.0858 17.2494 17.6094 17.25ZM21.2031 15.8125H20.0962C20.1509 15.4542 20.1275 15.0884 20.0276 14.74C19.9277 14.3916 19.7537 14.0689 19.5176 13.794C19.2814 13.5191 18.9886 13.2985 18.6593 13.1472C18.3299 12.9959 17.9718 12.9176 17.6094 12.9176C17.247 12.9176 16.8888 12.9959 16.5595 13.1472C16.2301 13.2985 15.9373 13.5191 15.7012 13.794C15.465 14.0689 15.291 14.3916 15.1912 14.74C15.0913 15.0884 15.0679 15.4542 15.1225 15.8125H7.8775C7.93214 15.4542 7.90871 15.0884 7.80883 14.74C7.70896 14.3916 7.53498 14.0689 7.29882 13.794C7.06265 13.5191 6.76988 13.2985 6.44053 13.1472C6.11119 12.9959 5.75304 12.9176 5.39062 12.9176C5.02821 12.9176 4.67007 12.9959 4.34072 13.1472C4.01137 13.2985 3.7186 13.5191 3.48243 13.794C3.24627 14.0689 3.07229 14.3916 2.97242 14.74C2.87254 15.0884 2.84911 15.4542 2.90375 15.8125H1.79688C1.51094 15.8125 1.23671 15.6989 1.03453 15.4967C0.832338 15.2945 0.71875 15.0203 0.71875 14.7344V13.6562H1.4375C1.51761 13.6562 1.59543 13.6295 1.65859 13.5802C1.72175 13.5309 1.76663 13.4619 1.78609 13.3842L2.14547 11.9467C2.15874 11.8937 2.15976 11.8384 2.14845 11.785C2.13714 11.7315 2.11379 11.6813 2.08018 11.6383C2.04658 11.5952 2.00359 11.5604 1.9545 11.5364C1.90541 11.5125 1.8515 11.5 1.79688 11.5H1.03823C1.17524 11.3625 1.34703 11.2647 1.53525 11.2172L2.72658 10.9193C2.9615 10.8599 3.18209 10.754 3.37521 10.6076C3.56833 10.4613 3.73003 10.2776 3.8507 10.0675L5.59367 7.01752C5.81416 6.63284 6.13219 6.31312 6.51568 6.09058C6.89918 5.86804 7.33457 5.75057 7.77795 5.75H13.7845C14.2279 5.75057 14.6633 5.86804 15.0468 6.09058C15.4303 6.31312 15.7483 6.63284 15.9688 7.01752L17.6773 10.0075C17.8091 10.2394 17.991 10.4389 18.2098 10.5914C18.4286 10.744 18.6788 10.8456 18.9419 10.8891L20.1793 11.0953C20.5411 11.1552 20.8855 11.2933 21.1884 11.5H20.4844C20.3891 11.5 20.2977 11.5379 20.2303 11.6053C20.1629 11.6727 20.125 11.7641 20.125 11.8594C20.1248 12.0954 20.1711 12.3292 20.2613 12.5473C20.3515 12.7654 20.4839 12.9636 20.6508 13.1305C20.8177 13.2974 21.0158 13.4297 21.234 13.52C21.4521 13.6102 21.6858 13.6565 21.9219 13.6562H22.2812V14.7344C22.2812 15.0203 22.1677 15.2945 21.9655 15.4967C21.7633 15.6989 21.4891 15.8125 21.2031 15.8125Z" fill="#18214D"/>
<path d="M16.3365 8.43992C16.2874 8.35819 16.2078 8.29931 16.1153 8.27622C16.0228 8.25314 15.925 8.26775 15.8432 8.31684C15.7615 8.36592 15.7026 8.44546 15.6795 8.53797C15.6564 8.63047 15.6711 8.72835 15.7201 8.81008L16.256 9.70312H11.8594V6.82812H13.9204C14.1065 6.82863 14.2894 6.87708 14.4513 6.96879C14.6133 7.0605 14.7489 7.19239 14.8451 7.35173L15.0729 7.73195C15.122 7.81368 15.2015 7.87257 15.294 7.89565C15.3865 7.91873 15.4844 7.90412 15.5661 7.85504C15.6479 7.80595 15.7068 7.72641 15.7298 7.63391C15.7529 7.54141 15.7383 7.44353 15.6892 7.3618L15.461 6.98158C15.3008 6.71611 15.0748 6.4964 14.805 6.34364C14.5351 6.19087 14.2305 6.11019 13.9204 6.10938H11.5C11.4047 6.10938 11.3133 6.14724 11.2459 6.21463C11.1785 6.28203 11.1406 6.37344 11.1406 6.46875V10.0625C11.1406 10.1578 11.1785 10.2492 11.2459 10.3166C11.3133 10.384 11.4047 10.4219 11.5 10.4219H16.8906C16.9542 10.4219 17.0167 10.405 17.0716 10.3729C17.1266 10.3409 17.172 10.2948 17.2034 10.2394C17.2347 10.1841 17.2507 10.1214 17.2499 10.0578C17.2491 9.99419 17.2314 9.93195 17.1986 9.87742L16.3365 8.43992Z" fill="#18214D"/>
<path d="M10.0625 6.10938H7.6421C7.33201 6.11019 7.02736 6.19087 6.75751 6.34364C6.48767 6.4964 6.26172 6.71611 6.10146 6.98158L4.36388 9.87742C4.33113 9.93195 4.31343 9.99419 4.31259 10.0578C4.31176 10.1214 4.32782 10.1841 4.35914 10.2394C4.39046 10.2948 4.43591 10.3409 4.49085 10.3729C4.54579 10.405 4.60826 10.4219 4.67187 10.4219H10.0625C10.1578 10.4219 10.2492 10.384 10.3166 10.3166C10.384 10.2492 10.4219 10.1578 10.4219 10.0625V6.46875C10.4219 6.37344 10.384 6.28203 10.3166 6.21463C10.2492 6.14724 10.1578 6.10938 10.0625 6.10938ZM9.70312 9.70312H5.30652L6.71743 7.35173C6.81361 7.19239 6.94921 7.0605 7.11117 6.96879C7.27313 6.87708 7.45598 6.82863 7.6421 6.82812H9.70312V9.70312Z" fill="#18214D"/>
<path d="M12.2188 10.7812H11.5C11.4047 10.7812 11.3133 10.8191 11.2459 10.8865C11.1785 10.9539 11.1406 11.0453 11.1406 11.1406C11.1406 11.2359 11.1785 11.3273 11.2459 11.3947C11.3133 11.4621 11.4047 11.5 11.5 11.5H12.2188C12.3141 11.5 12.4055 11.4621 12.4729 11.3947C12.5403 11.3273 12.5781 11.2359 12.5781 11.1406C12.5781 11.0453 12.5403 10.9539 12.4729 10.8865C12.4055 10.8191 12.3141 10.7812 12.2188 10.7812Z" fill="#18214D"/>
<path d="M5.39062 10.7812H4.67188C4.57656 10.7812 4.48515 10.8191 4.41776 10.8865C4.35036 10.9539 4.3125 11.0453 4.3125 11.1406C4.3125 11.2359 4.35036 11.3273 4.41776 11.3947C4.48515 11.4621 4.57656 11.5 4.67188 11.5H5.39062C5.48594 11.5 5.57735 11.4621 5.64474 11.3947C5.71214 11.3273 5.75 11.2359 5.75 11.1406C5.75 11.0453 5.71214 10.9539 5.64474 10.8865C5.57735 10.8191 5.48594 10.7812 5.39062 10.7812Z" fill="#18214D"/>
<path d="M17.6094 14.375C17.3961 14.375 17.1877 14.4382 17.0104 14.5567C16.8331 14.6752 16.6949 14.8435 16.6133 15.0405C16.5317 15.2375 16.5104 15.4543 16.552 15.6635C16.5936 15.8726 16.6962 16.0647 16.847 16.2155C16.9978 16.3663 17.1899 16.4689 17.399 16.5105C17.6082 16.5521 17.825 16.5308 18.022 16.4492C18.219 16.3676 18.3873 16.2294 18.5058 16.0521C18.6243 15.8748 18.6875 15.6664 18.6875 15.4531C18.6875 15.1672 18.5739 14.893 18.3717 14.6908C18.1695 14.4886 17.8953 14.375 17.6094 14.375ZM17.6094 15.8125C17.5383 15.8125 17.4688 15.7914 17.4097 15.7519C17.3506 15.7124 17.3046 15.6563 17.2774 15.5907C17.2502 15.525 17.243 15.4527 17.2569 15.383C17.2708 15.3133 17.305 15.2493 17.3553 15.199C17.4055 15.1487 17.4696 15.1145 17.5393 15.1007C17.609 15.0868 17.6812 15.0939 17.7469 15.1211C17.8126 15.1483 17.8687 15.1944 17.9082 15.2535C17.9477 15.3126 17.9688 15.382 17.9688 15.4531C17.9688 15.5484 17.9309 15.6398 17.8635 15.7072C17.7961 15.7746 17.7047 15.8125 17.6094 15.8125Z" fill="#18214D"/>
<path d="M5.39063 14.375C5.17739 14.375 4.96895 14.4382 4.79165 14.5567C4.61435 14.6752 4.47617 14.8435 4.39457 15.0405C4.31297 15.2375 4.29162 15.4543 4.33322 15.6635C4.37482 15.8726 4.4775 16.0647 4.62828 16.2155C4.77905 16.3663 4.97116 16.4689 5.18029 16.5105C5.38943 16.5521 5.6062 16.5308 5.80321 16.4492C6.00021 16.3676 6.16859 16.2294 6.28705 16.0521C6.40552 15.8748 6.46875 15.6664 6.46875 15.4531C6.46875 15.1672 6.35516 14.893 6.15298 14.6908C5.95079 14.4886 5.67656 14.375 5.39063 14.375ZM5.39063 15.8125C5.31955 15.8125 5.25007 15.7914 5.19097 15.7519C5.13187 15.7124 5.08581 15.6563 5.05861 15.5907C5.03141 15.525 5.02429 15.4527 5.03816 15.383C5.05202 15.3133 5.08625 15.2493 5.13651 15.199C5.18677 15.1487 5.2508 15.1145 5.32052 15.1007C5.39023 15.0868 5.46249 15.0939 5.52815 15.1211C5.59382 15.1483 5.64995 15.1944 5.68944 15.2535C5.72892 15.3126 5.75 15.382 5.75 15.4531C5.75 15.5484 5.71214 15.6398 5.64474 15.7072C5.57735 15.7746 5.48594 15.8125 5.39063 15.8125Z" fill="#18214D"/>
</g>
<defs>
<clipPath id="clip0_1098_65849">
<rect width="23" height="23" fill="white"/>
</clipPath>
</defs>
</svg>
