<svg width="23" height="23" viewBox="0 0 23 23" fill="none" xmlns="http://www.w3.org/2000/svg">
<g clip-path="url(#clip0_1098_65865)">
<path d="M22.8946 16.1719C22.8077 15.916 22.6712 15.6798 22.4927 15.4768C22.3143 15.2739 22.0975 15.1082 21.8548 14.9893C21.6121 14.8704 21.3484 14.8007 21.0786 14.784C20.8089 14.7674 20.5386 14.8043 20.2831 14.8925L18.2083 15.5394C18.2374 15.2709 18.2093 14.9994 18.1261 14.7425C18.0429 14.4856 17.9063 14.2492 17.7253 14.0488C17.5444 13.8484 17.3231 13.6885 17.0761 13.5795C16.829 13.4706 16.5617 13.4151 16.2917 13.4167H11.1646C9.34375 12.1996 7.81042 12.4583 4.79167 12.4583V11.9792C4.79167 11.8521 4.74118 11.7302 4.65132 11.6403C4.56146 11.5505 4.43958 11.5 4.3125 11.5H0.479167C0.352084 11.5 0.230206 11.5505 0.140345 11.6403C0.0504835 11.7302 0 11.8521 0 11.9792L0 19.6458C0 19.7729 0.0504835 19.8948 0.140345 19.9847C0.230206 20.0745 0.352084 20.125 0.479167 20.125H4.3125C4.43958 20.125 4.56146 20.0745 4.65132 19.9847C4.74118 19.8948 4.79167 19.7729 4.79167 19.6458C4.79167 19.4781 4.74854 19.4877 4.93062 19.5931C6.81546 20.678 8.92306 21.3183 11.0928 21.4653C13.2626 21.6123 15.4373 21.262 17.4512 20.4412L21.7637 18.6923C22.2323 18.4886 22.608 18.1172 22.8172 17.651C23.0264 17.1848 23.054 16.6574 22.8946 16.1719ZM3.83333 19.1667H0.958333V12.4583H3.83333V19.1667ZM21.4044 17.8058L17.0919 19.55C15.2132 20.3174 13.184 20.6452 11.1592 20.5081C9.13451 20.3711 7.16791 19.7729 5.40979 18.7594L4.79167 18.4096V13.4167C7.94937 13.4167 9.12813 13.2106 10.6327 14.2121C10.9681 14.4373 10.7621 14.375 16.2917 14.375C16.4735 14.3756 16.6514 14.428 16.8047 14.5259C16.9579 14.6239 17.0801 14.7634 17.1569 14.9282C17.2338 15.093 17.2622 15.2763 17.2388 15.4566C17.2154 15.637 17.1412 15.8069 17.0248 15.9467C16.4881 16.4258 16.9529 16.2917 11.0208 16.2917C10.8938 16.2917 10.7719 16.3422 10.682 16.432C10.5921 16.5219 10.5417 16.6438 10.5417 16.7708C10.5417 16.8979 10.5921 17.0198 10.682 17.1097C10.7719 17.1995 10.8938 17.25 11.0208 17.25C16.421 17.25 16.8667 17.4273 17.6094 16.7229L20.6042 15.8125C20.8658 15.7233 21.1516 15.7375 21.403 15.8523C21.6545 15.967 21.8526 16.1735 21.9567 16.4295C22.0608 16.6856 22.0631 16.9717 21.9631 17.2294C21.8631 17.487 21.6683 17.6967 21.4188 17.8154L21.4044 17.8058Z" fill="#18214D"/>
<path d="M2.05565 17.3898C1.98903 17.457 1.94378 17.5423 1.92561 17.6352C1.90744 17.728 1.91716 17.8242 1.95354 17.9115C1.98992 17.9988 2.05134 18.0734 2.13005 18.1259C2.20877 18.1784 2.30125 18.2064 2.39585 18.2064C2.49046 18.2064 2.58294 18.1784 2.66166 18.1259C2.74037 18.0734 2.80179 17.9988 2.83817 17.9115C2.87455 17.8242 2.88427 17.728 2.8661 17.6352C2.84793 17.5423 2.80268 17.457 2.73606 17.3898C2.69152 17.3449 2.63852 17.3092 2.58013 17.2849C2.52174 17.2606 2.45911 17.248 2.39585 17.248C2.3326 17.248 2.26997 17.2606 2.21158 17.2849C2.15319 17.3092 2.10019 17.3449 2.05565 17.3898Z" fill="#18214D"/>
<path d="M15.3333 8.14518H13.4167C13.2896 8.14518 13.1677 8.19567 13.0778 8.28553C12.988 8.37539 12.9375 8.49727 12.9375 8.62435C12.9375 8.75143 12.988 8.87331 13.0778 8.96317C13.1677 9.05303 13.2896 9.10352 13.4167 9.10352H14.375V9.58268C14.375 9.70977 14.4255 9.83164 14.5153 9.92151C14.6052 10.0114 14.7271 10.0618 14.8542 10.0618C14.9812 10.0618 15.1031 10.0114 15.193 9.92151C15.2829 9.83164 15.3333 9.70977 15.3333 9.58268V9.10352C15.7146 9.10352 16.0802 8.95207 16.3498 8.68248C16.6194 8.4129 16.7708 8.04727 16.7708 7.66602C16.7708 7.28477 16.6194 6.91913 16.3498 6.64955C16.0802 6.37997 15.7146 6.22852 15.3333 6.22852H14.375C14.2479 6.22852 14.126 6.17803 14.0362 6.08817C13.9463 5.99831 13.8958 5.87643 13.8958 5.74935C13.8958 5.62227 13.9463 5.50039 14.0362 5.41053C14.126 5.32067 14.2479 5.27018 14.375 5.27018H16.2917C16.4187 5.27018 16.5406 5.2197 16.6305 5.12984C16.7204 5.03998 16.7708 4.9181 16.7708 4.79102C16.7708 4.66393 16.7204 4.54206 16.6305 4.45219C16.5406 4.36233 16.4187 4.31185 16.2917 4.31185H15.3333V3.83268C15.3333 3.7056 15.2829 3.58372 15.193 3.49386C15.1031 3.404 14.9812 3.35352 14.8542 3.35352C14.7271 3.35352 14.6052 3.404 14.5153 3.49386C14.4255 3.58372 14.375 3.7056 14.375 3.83268V4.31185C13.9938 4.31185 13.6281 4.4633 13.3585 4.73288C13.089 5.00247 12.9375 5.3681 12.9375 5.74935C12.9375 6.1306 13.089 6.49623 13.3585 6.76582C13.6281 7.0354 13.9938 7.18685 14.375 7.18685H15.3333C15.4604 7.18685 15.5823 7.23733 15.6722 7.32719C15.762 7.41706 15.8125 7.53893 15.8125 7.66602C15.8125 7.7931 15.762 7.91498 15.6722 8.00484C15.5823 8.0947 15.4604 8.14518 15.3333 8.14518Z" fill="#18214D"/>
<path d="M14.8541 11.9792C15.8966 11.9792 16.9157 11.67 17.7825 11.0909C18.6492 10.5117 19.3248 9.68852 19.7238 8.7254C20.1227 7.76228 20.2271 6.70249 20.0237 5.68005C19.8203 4.65761 19.3183 3.71843 18.5812 2.98129C17.844 2.24415 16.9049 1.74216 15.8824 1.53878C14.86 1.3354 13.8002 1.43978 12.8371 1.83872C11.874 2.23766 11.0508 2.91323 10.4716 3.78002C9.89244 4.6468 9.58331 5.66586 9.58331 6.70834C9.58331 8.10625 10.1386 9.44691 11.1271 10.4354C12.1156 11.4239 13.4562 11.9792 14.8541 11.9792ZM14.8541 2.39584C15.7071 2.39584 16.5409 2.64876 17.25 3.12262C17.9592 3.59649 18.512 4.27001 18.8384 5.05801C19.1648 5.84602 19.2502 6.71312 19.0838 7.54966C18.9174 8.38621 18.5067 9.15462 17.9035 9.75773C17.3004 10.3608 16.532 10.7716 15.6955 10.938C14.8589 11.1044 13.9918 11.019 13.2038 10.6926C12.4158 10.3662 11.7423 9.81342 11.2684 9.10423C10.7946 8.39505 10.5416 7.56127 10.5416 6.70834C10.5416 5.56459 10.996 4.46769 11.8047 3.65894C12.6135 2.85019 13.7104 2.39584 14.8541 2.39584Z" fill="#18214D"/>
</g>
<defs>
<clipPath id="clip0_1098_65865">
<rect width="23" height="23" fill="white"/>
</clipPath>
</defs>
</svg>
