<svg width="23" height="23" viewBox="0 0 23 23" fill="none" xmlns="http://www.w3.org/2000/svg">
<rect x="0.5" y="0.5" width="22" height="22" rx="1.5" fill="white" stroke="#18214D"/>
<rect x="0.5" y="0.5" width="19" height="19" rx="1.5" fill="#A8C5F2" stroke="#18214D"/>
<path d="M12.426 11.143L11.327 8.035C11.2617 7.87167 11.1917 7.68033 11.117 7.461C11.047 7.24167 10.9793 7.00367 10.914 6.747C10.8487 7.00833 10.7787 7.251 10.704 7.475C10.634 7.69433 10.5663 7.88567 10.501 8.049L9.409 11.143H12.426ZM15.954 15H14.323C14.141 15 13.9917 14.958 13.875 14.874C13.763 14.7853 13.679 14.6733 13.623 14.538L12.937 12.599H8.891L8.205 14.538C8.15833 14.6547 8.07667 14.762 7.96 14.86C7.84333 14.9533 7.69633 15 7.519 15H5.874L9.843 4.843H11.992L15.954 15Z" fill="#18214D"/>
</svg>
