<svg width="23" height="23" viewBox="0 0 23 23" fill="none" xmlns="http://www.w3.org/2000/svg">
<rect x="0.5" y="0.5" width="22" height="22" rx="1.5" fill="white" stroke="#18214D"/>
<rect x="0.5" y="0.5" width="19" height="19" rx="1.5" fill="#A8C5F2" stroke="#18214D"/>
<path d="M10.963 13.39C11.299 13.39 11.5743 13.3503 11.789 13.271C12.0083 13.187 12.1833 13.0773 12.314 12.942C12.4447 12.8067 12.5357 12.6527 12.587 12.48C12.6383 12.3027 12.664 12.1207 12.664 11.934C12.664 11.7287 12.6337 11.5443 12.573 11.381C12.5123 11.2177 12.4143 11.08 12.279 10.968C12.1437 10.8513 11.9663 10.7627 11.747 10.702C11.5323 10.6413 11.2663 10.611 10.949 10.611H9.164V13.39H10.963ZM9.164 6.439V9.183H10.543C10.837 9.183 11.0983 9.15967 11.327 9.113C11.5557 9.06167 11.747 8.98233 11.901 8.875C12.055 8.76767 12.1717 8.62767 12.251 8.455C12.335 8.27767 12.377 8.06533 12.377 7.818C12.377 7.566 12.342 7.35133 12.272 7.174C12.2067 6.99667 12.104 6.85433 11.964 6.747C11.824 6.63967 11.6467 6.56267 11.432 6.516C11.2173 6.46467 10.963 6.439 10.669 6.439H9.164ZM10.669 4.843C11.3503 4.843 11.9313 4.90833 12.412 5.039C12.8973 5.165 13.2917 5.347 13.595 5.585C13.903 5.81833 14.127 6.103 14.267 6.439C14.407 6.775 14.477 7.15067 14.477 7.566C14.477 7.79933 14.442 8.02333 14.372 8.238C14.3067 8.45267 14.2017 8.65567 14.057 8.847C13.917 9.03367 13.735 9.204 13.511 9.358C13.287 9.512 13.021 9.64267 12.713 9.75C13.4037 9.91333 13.9147 10.1793 14.246 10.548C14.5773 10.9167 14.743 11.395 14.743 11.983C14.743 12.4123 14.659 12.8113 14.491 13.18C14.3277 13.5487 14.0873 13.8683 13.77 14.139C13.4527 14.4097 13.0607 14.622 12.594 14.776C12.132 14.9253 11.6 15 10.998 15H7.064V4.843H10.669Z" fill="#18214D"/>
</svg>
