<svg width="23" height="23" viewBox="0 0 23 23" fill="none" xmlns="http://www.w3.org/2000/svg">
<rect x="0.5" y="0.5" width="22" height="22" rx="1.5" fill="white" stroke="#18214D"/>
<rect x="0.5" y="0.5" width="19" height="19" rx="1.5" fill="#A8C5F2" stroke="#18214D"/>
<path d="M13.98 12.501C14.0967 12.501 14.1947 12.543 14.274 12.627L15.107 13.516C14.6963 14.0387 14.1853 14.4353 13.574 14.706C12.9673 14.9767 12.244 15.112 11.404 15.112C10.6433 15.112 9.95967 14.9837 9.353 14.727C8.74633 14.4657 8.23067 14.104 7.806 13.642C7.38133 13.18 7.05467 12.6317 6.826 11.997C6.59733 11.3623 6.483 10.6693 6.483 9.918C6.483 9.414 6.53667 8.93567 6.644 8.483C6.756 8.02567 6.917 7.60567 7.127 7.223C7.337 6.84033 7.589 6.495 7.883 6.187C8.18167 5.879 8.51767 5.61767 8.891 5.403C9.26433 5.18367 9.67033 5.018 10.109 4.906C10.5523 4.78933 11.0237 4.731 11.523 4.731C11.8963 4.731 12.2487 4.76367 12.58 4.829C12.916 4.89433 13.2287 4.98533 13.518 5.102C13.8073 5.21867 14.0733 5.361 14.316 5.529C14.5633 5.69233 14.785 5.872 14.981 6.068L14.274 7.034C14.232 7.09467 14.1783 7.14833 14.113 7.195C14.0477 7.24167 13.959 7.265 13.847 7.265C13.735 7.265 13.6207 7.22533 13.504 7.146C13.392 7.06667 13.252 6.978 13.084 6.88C12.9207 6.782 12.713 6.69333 12.461 6.614C12.2137 6.53467 11.8987 6.495 11.516 6.495C11.0913 6.495 10.7017 6.572 10.347 6.726C9.99233 6.88 9.68667 7.104 9.43 7.398C9.178 7.68733 8.982 8.04433 8.842 8.469C8.702 8.89367 8.632 9.37667 8.632 9.918C8.632 10.464 8.70667 10.9517 8.856 11.381C9.01 11.8057 9.21767 12.165 9.479 12.459C9.745 12.753 10.053 12.977 10.403 13.131C10.7577 13.2803 11.1357 13.355 11.537 13.355C11.775 13.355 11.9897 13.3433 12.181 13.32C12.377 13.2967 12.5567 13.257 12.72 13.201C12.888 13.145 13.0443 13.0727 13.189 12.984C13.3383 12.8953 13.4877 12.7833 13.637 12.648C13.6883 12.606 13.742 12.571 13.798 12.543C13.854 12.515 13.9147 12.501 13.98 12.501Z" fill="#18214D"/>
</svg>
