<svg width="28" height="20" viewBox="0 0 28 20" fill="none" xmlns="http://www.w3.org/2000/svg">
    <rect width="28" height="20" rx="2" fill="white"/>
    <mask id="mask0_1815_5479" style="mask-type:alpha" maskUnits="userSpaceOnUse" x="0" y="0" width="28" height="20">
        <rect width="28" height="20" rx="2" fill="white"/>
    </mask>
    <g mask="url(#mask0_1815_5479)">
        <path fill-rule="evenodd" clip-rule="evenodd" d="M28 0H0V1.33333H28V0ZM28 2.66602H0V3.99935H28V2.66602ZM0 5.33398H28V6.66732H0V5.33398ZM28 8H0V9.33333H28V8ZM0 10.666H28V11.9993H0V10.666ZM28 13.334H0V14.6673H28V13.334ZM0 16H28V17.3333H0V16ZM28 18.666H0V19.9993H28V18.666Z" fill="#D02F44"/>
        <rect width="12" height="9.33333" fill="#46467F"/>
        <g filter="url(#filter0_d_1815_5479)">
            <path fill-rule="evenodd" clip-rule="evenodd" d="M2.66634 2.00065C2.66634 2.36884 2.36786 2.66732 1.99967 2.66732C1.63148 2.66732 1.33301 2.36884 1.33301 2.00065C1.33301 1.63246 1.63148 1.33398 1.99967 1.33398C2.36786 1.33398 2.66634 1.63246 2.66634 2.00065ZM5.33333 2.00065C5.33333 2.36884 5.03486 2.66732 4.66667 2.66732C4.29848 2.66732 4 2.36884 4 2.00065C4 1.63246 4.29848 1.33398 4.66667 1.33398C5.03486 1.33398 5.33333 1.63246 5.33333 2.00065ZM7.33268 2.66732C7.70087 2.66732 7.99935 2.36884 7.99935 2.00065C7.99935 1.63246 7.70087 1.33398 7.33268 1.33398C6.96449 1.33398 6.66602 1.63246 6.66602 2.00065C6.66602 2.36884 6.96449 2.66732 7.33268 2.66732ZM10.6663 2.00065C10.6663 2.36884 10.3679 2.66732 9.99967 2.66732C9.63148 2.66732 9.33301 2.36884 9.33301 2.00065C9.33301 1.63246 9.63148 1.33398 9.99967 1.33398C10.3679 1.33398 10.6663 1.63246 10.6663 2.00065ZM3.33268 4.0013C3.70087 4.0013 3.99935 3.70283 3.99935 3.33464C3.99935 2.96645 3.70087 2.66797 3.33268 2.66797C2.96449 2.66797 2.66602 2.96645 2.66602 3.33464C2.66602 3.70283 2.96449 4.0013 3.33268 4.0013ZM6.66634 3.33464C6.66634 3.70283 6.36786 4.0013 5.99967 4.0013C5.63148 4.0013 5.33301 3.70283 5.33301 3.33464C5.33301 2.96645 5.63148 2.66797 5.99967 2.66797C6.36786 2.66797 6.66634 2.96645 6.66634 3.33464ZM8.66667 4.0013C9.03486 4.0013 9.33333 3.70283 9.33333 3.33464C9.33333 2.96645 9.03486 2.66797 8.66667 2.66797C8.29848 2.66797 8 2.96645 8 3.33464C8 3.70283 8.29848 4.0013 8.66667 4.0013ZM10.6663 4.66667C10.6663 5.03486 10.3679 5.33333 9.99967 5.33333C9.63148 5.33333 9.33301 5.03486 9.33301 4.66667C9.33301 4.29848 9.63148 4 9.99967 4C10.3679 4 10.6663 4.29848 10.6663 4.66667ZM7.33268 5.33333C7.70087 5.33333 7.99935 5.03486 7.99935 4.66667C7.99935 4.29848 7.70087 4 7.33268 4C6.96449 4 6.66602 4.29848 6.66602 4.66667C6.66602 5.03486 6.96449 5.33333 7.33268 5.33333ZM5.33333 4.66667C5.33333 5.03486 5.03486 5.33333 4.66667 5.33333C4.29848 5.33333 4 5.03486 4 4.66667C4 4.29848 4.29848 4 4.66667 4C5.03486 4 5.33333 4.29848 5.33333 4.66667ZM1.99967 5.33333C2.36786 5.33333 2.66634 5.03486 2.66634 4.66667C2.66634 4.29848 2.36786 4 1.99967 4C1.63148 4 1.33301 4.29848 1.33301 4.66667C1.33301 5.03486 1.63148 5.33333 1.99967 5.33333ZM3.99935 6.00065C3.99935 6.36884 3.70087 6.66732 3.33268 6.66732C2.96449 6.66732 2.66602 6.36884 2.66602 6.00065C2.66602 5.63246 2.96449 5.33398 3.33268 5.33398C3.70087 5.33398 3.99935 5.63246 3.99935 6.00065ZM5.99967 6.66732C6.36786 6.66732 6.66634 6.36884 6.66634 6.00065C6.66634 5.63246 6.36786 5.33398 5.99967 5.33398C5.63148 5.33398 5.33301 5.63246 5.33301 6.00065C5.33301 6.36884 5.63148 6.66732 5.99967 6.66732ZM9.33333 6.00065C9.33333 6.36884 9.03486 6.66732 8.66667 6.66732C8.29848 6.66732 8 6.36884 8 6.00065C8 5.63246 8.29848 5.33398 8.66667 5.33398C9.03486 5.33398 9.33333 5.63246 9.33333 6.00065ZM9.99967 8.0013C10.3679 8.0013 10.6663 7.70283 10.6663 7.33464C10.6663 6.96645 10.3679 6.66797 9.99967 6.66797C9.63148 6.66797 9.33301 6.96645 9.33301 7.33464C9.33301 7.70283 9.63148 8.0013 9.99967 8.0013ZM7.99935 7.33464C7.99935 7.70283 7.70087 8.0013 7.33268 8.0013C6.96449 8.0013 6.66602 7.70283 6.66602 7.33464C6.66602 6.96645 6.96449 6.66797 7.33268 6.66797C7.70087 6.66797 7.99935 6.96645 7.99935 7.33464ZM4.66667 8.0013C5.03486 8.0013 5.33333 7.70283 5.33333 7.33464C5.33333 6.96645 5.03486 6.66797 4.66667 6.66797C4.29848 6.66797 4 6.96645 4 7.33464C4 7.70283 4.29848 8.0013 4.66667 8.0013ZM2.66634 7.33464C2.66634 7.70283 2.36786 8.0013 1.99967 8.0013C1.63148 8.0013 1.33301 7.70283 1.33301 7.33464C1.33301 6.96645 1.63148 6.66797 1.99967 6.66797C2.36786 6.66797 2.66634 6.96645 2.66634 7.33464Z" fill="url(#paint0_linear_1815_5479)"/>
        </g>
    </g>
    <defs>
        <filter id="filter0_d_1815_5479" x="1.33301" y="1.33398" width="9.33301" height="7.66797" filterUnits="userSpaceOnUse" color-interpolation-filters="sRGB">
            <feFlood flood-opacity="0" result="BackgroundImageFix"/>
            <feColorMatrix in="SourceAlpha" type="matrix" values="0 0 0 0 0 0 0 0 0 0 0 0 0 0 0 0 0 0 127 0" result="hardAlpha"/>
            <feOffset dy="1"/>
            <feColorMatrix type="matrix" values="0 0 0 0 0 0 0 0 0 0 0 0 0 0 0 0 0 0 0.06 0"/>
            <feBlend mode="normal" in2="BackgroundImageFix" result="effect1_dropShadow_1815_5479"/>
            <feBlend mode="normal" in="SourceGraphic" in2="effect1_dropShadow_1815_5479" result="shape"/>
        </filter>
        <linearGradient id="paint0_linear_1815_5479" x1="1.33301" y1="1.33398" x2="1.33301" y2="8.0013" gradientUnits="userSpaceOnUse">
            <stop stop-color="white"/>
            <stop offset="1" stop-color="#F0F0F0"/>
        </linearGradient>
    </defs>
</svg>
