<svg width="56" height="56" fill="none" xmlns="http://www.w3.org/2000/svg"><g clip-path="url(#clip0)"><path d="M29.273 54.727h-28C.509 54.727 0 54.218 0 53.454V50.91c0-.764.51-1.273 1.273-1.273h28c.763 0 1.272.51 1.272 1.273v2.545c0 .764-.509 1.273-1.272 1.273z" fill="#F6B545"/><path d="M24.182 50.91H0c0-.764.51-1.273 1.273-1.273h22.909v1.272z" fill="#FFCB5B"/><path d="M24.182 50.91v1.272c0 .764-.51 1.273-1.273 1.273H0c0 .763.51 1.272 1.273 1.272h28c.763 0 1.272-.509 1.272-1.272v-2.546h-6.363z" fill="#F19920"/><path d="M3.818 53.455v-1.91c0-.381-.254-.636-.636-.636s-.637.255-.637.636v1.91M7.636 53.455v-1.91c0-.381-.254-.636-.636-.636s-.636.255-.636.636v1.91M11.455 53.455v-1.91c0-.381-.255-.636-.636-.636-.382 0-.637.255-.637.636v1.91M15.273 53.455v-1.91c0-.381-.255-.636-.637-.636-.381 0-.636.255-.636.636v1.91M19.09 53.455v-1.91c0-.381-.254-.636-.636-.636s-.636.255-.636.636v1.91M22.91 53.455v-1.91c0-.381-.255-.636-.637-.636s-.636.255-.636.636v1.91" fill="#F19920"/><path d="M31.818 49.636h-28c-.764 0-1.273-.509-1.273-1.272v-2.546c0-.764.51-1.273 1.273-1.273h28c.764 0 1.273.51 1.273 1.273v2.546c0 .763-.51 1.272-1.273 1.272z" fill="#F6B545"/><path d="M26.727 45.818H2.545c0-.764.51-1.273 1.273-1.273h22.91v1.273z" fill="#FFCB5B"/><path d="M26.727 45.818v1.273c0 .763-.509 1.272-1.273 1.272H2.546c0 .764.51 1.273 1.273 1.273h28c.764 0 1.273-.51 1.273-1.273v-2.545h-6.364z" fill="#F19920"/><path d="M6.364 48.363v-1.909c0-.382-.255-.636-.637-.636s-.636.254-.636.636v1.91M10.182 48.363v-1.909c0-.382-.255-.636-.636-.636-.382 0-.637.254-.637.636v1.91M14 48.363v-1.909c0-.382-.254-.636-.636-.636s-.637.254-.637.636v1.91M17.818 48.363v-1.909c0-.382-.254-.636-.636-.636s-.637.254-.637.636v1.91M21.636 48.363v-1.909c0-.382-.255-.636-.636-.636-.382 0-.637.254-.637.636v1.91M25.454 48.363v-1.909c0-.382-.254-.636-.636-.636s-.636.254-.636.636v1.91" fill="#F19920"/><path d="M34.364 39.455h-28c-.764 0-1.273-.51-1.273-1.273v-2.546c0-.763.509-1.272 1.273-1.272h28c.763 0 1.272.509 1.272 1.273v2.545c0 .764-.509 1.273-1.273 1.273z" fill="#F6B545"/><path d="M29.273 35.636H5.09c0-.763.509-1.272 1.273-1.272h22.909v1.273z" fill="#FFCB5B"/><path d="M29.273 35.636v1.273c0 .764-.51 1.273-1.273 1.273H5.09c0 .763.51 1.272 1.274 1.272h28c.763 0 1.272-.509 1.272-1.272v-2.546h-6.363z" fill="#F19920"/><path d="M8.91 38.182v-1.91c0-.381-.255-.636-.637-.636s-.636.255-.636.637v1.909M12.727 38.182v-1.91c0-.381-.254-.636-.636-.636s-.636.255-.636.637v1.909M16.546 38.182v-1.91c0-.381-.255-.636-.637-.636s-.636.255-.636.637v1.909M20.363 38.182v-1.91c0-.381-.254-.636-.636-.636s-.636.255-.636.637v1.909M24.182 38.182v-1.91c0-.381-.255-.636-.636-.636-.382 0-.637.255-.637.637v1.909M28 38.182v-1.91c0-.381-.254-.636-.636-.636s-.637.255-.637.637v1.909" fill="#F19920"/><path d="M31.818 34.363h-28c-.764 0-1.273-.509-1.273-1.272v-2.546c0-.764.51-1.273 1.273-1.273h28c.764 0 1.273.51 1.273 1.273v2.546c0 .763-.51 1.272-1.273 1.272z" fill="#F6B545"/><path d="M26.727 30.545H2.545c0-.764.51-1.273 1.273-1.273h22.91v1.273z" fill="#FFCB5B"/><path d="M26.727 30.546v1.272c0 .764-.509 1.273-1.273 1.273H2.546c0 .764.51 1.273 1.273 1.273h28c.764 0 1.273-.51 1.273-1.273v-2.546h-6.364z" fill="#F19920"/><path d="M6.364 33.09v-1.908c0-.382-.255-.637-.637-.637s-.636.255-.636.637v1.909M10.182 33.09v-1.908c0-.382-.255-.637-.636-.637-.382 0-.637.255-.637.637v1.909M14 33.09v-1.908c0-.382-.254-.637-.636-.637s-.637.255-.637.637v1.909M17.818 33.09v-1.908c0-.382-.254-.637-.636-.637s-.637.255-.637.637v1.909M21.636 33.09v-1.908c0-.382-.255-.637-.636-.637-.382 0-.637.255-.637.637v1.909M25.454 33.09v-1.908c0-.382-.254-.637-.636-.637s-.636.255-.636.637v1.909" fill="#F19920"/><path d="M29.273 44.546h-28c-.764 0-1.273-.51-1.273-1.273v-2.546c0-.763.51-1.272 1.273-1.272h28c.763 0 1.272.509 1.272 1.272v2.546c0 .763-.509 1.273-1.272 1.273z" fill="#F6B545"/><path d="M24.182 40.727H0c0-.763.51-1.272 1.273-1.272h22.909v1.272z" fill="#FFCB5B"/><path d="M24.182 40.728V42c0 .764-.51 1.273-1.273 1.273H0c0 .764.51 1.273 1.273 1.273h28c.763 0 1.272-.51 1.272-1.273v-2.546h-6.363z" fill="#F19920"/><path d="M3.818 43.273v-1.91c0-.38-.254-.636-.636-.636s-.637.255-.637.637v1.909M7.636 43.273v-1.91c0-.38-.254-.636-.636-.636s-.636.255-.636.637v1.909M11.455 43.273v-1.91c0-.38-.255-.636-.636-.636-.382 0-.637.255-.637.637v1.909M15.273 43.273v-1.91c0-.38-.255-.636-.637-.636-.381 0-.636.255-.636.637v1.909M19.09 43.273v-1.91c0-.38-.254-.636-.636-.636s-.636.255-.636.637v1.909M22.91 43.273v-1.91c0-.38-.255-.636-.637-.636s-.636.255-.636.637v1.909" fill="#F19920"/><path d="M53.455 46.454c-1.655-1.145-2.546-3.054-2.546-5.09a29.082 29.082 0 00-8.527-20.619l-5.473-5.472v-3.819l4.455-5.6c.382-.509.636-1.145.636-1.782 0-1.527-1.273-2.8-2.8-2.8h-4.836L33.09 3.818l-2.546-2.546h-6.109c-1.527 0-2.8 1.273-2.8 2.8 0 .637.255 1.273.637 1.782l4.454 5.6v3.819l-5.473 5.472a29.083 29.083 0 00-8.527 20.618c0 2.037-.89 3.946-2.545 5.091-1.655 1.146-2.546 3.055-2.546 5.091a3.15 3.15 0 003.182 3.182h42A3.15 3.15 0 0056 51.545c0-2.036-.89-3.945-2.545-5.09z" fill="#C97629"/><path d="M53.455 46.454c-1.655-1.272-2.546-3.181-2.546-5.218.127-8.018-3.564-15.527-9.164-21.254l-4.836-4.71v-3.818l4.455-5.6c.763-.89.89-2.163.254-3.309-.51-.89-1.527-1.273-2.545-1.273-.891 0-1.4 1.019-1.146 1.782.127.255.255.637.255 1.018 0 .637-.255 1.273-.637 1.782l-4.454 5.6v3.819h-6.364l-1.273 1.272h8.91l4.709 4.71c5.218 5.218 7.254 12.345 6.745 19.6-.127 2.163.764 4.2 2.418 5.472.128.127.255.255.382.255 1.91 2.036.255 5.472-2.672 5.472H7.764c.254 1.4 1.527 2.546 3.054 2.546H52.82A3.15 3.15 0 0056 51.418v-.255c0-1.909-1.018-3.563-2.545-4.709z" fill="#B06328"/><path d="M37.545 15.272H26.091c-1.018 0-1.91-.89-1.91-1.909 0-1.018.892-1.909 1.91-1.909h11.454c1.018 0 1.91.891 1.91 1.91 0 1.018-.891 1.908-1.91 1.908z" fill="#FFCB5B"/><path d="M26.09 11.455h6.365c.381 0 .636.254.636.636s-.255.636-.636.636H26.09c-.382 0-.636-.254-.636-.636s.254-.636.636-.636z" fill="#FFE278"/><path d="M37.545 11.455h-.636v1.272c0 .764-.51 1.273-1.273 1.273H24.31c.255.764 1.018 1.273 1.782 1.273h11.454c1.019 0 1.91-.891 1.91-1.91 0-1.018-.891-1.908-1.91-1.908z" fill="#F6B545"/><path d="M33.727 14h3.818c.382 0 .637.255.637.636 0 .382-.255.637-.637.637h-3.818c-.382 0-.636-.255-.636-.637 0-.381.254-.636.636-.636z" fill="#F19920"/><path d="M33.09 15.273h-2.545v10.181h2.546V15.273z" fill="#F6B545"/><path d="M30.545 15.273v1.272h1.273v8.91h1.273V15.271h-2.546z" fill="#F19920"/><path d="M31.818 44.546C37.441 44.546 42 39.987 42 34.364S37.44 24.182 31.818 24.182s-10.182 4.559-10.182 10.182 4.559 10.182 10.182 10.182z" fill="#F6B545"/><path d="M39.582 27.873C41.109 29.654 42 31.818 42 34.363c0 5.6-4.582 10.182-10.182 10.182-2.546 0-4.71-.89-6.49-2.418 1.908 2.291 4.708 3.691 7.763 3.691 5.6 0 10.182-4.582 10.182-10.182 0-3.182-1.4-5.982-3.691-7.763z" fill="#B06328"/><path d="M31.818 43.273a8.91 8.91 0 100-17.818 8.91 8.91 0 000 17.818z" fill="#FFCB5B"/><path d="M40.727 34.364a8.854 8.854 0 01-8.91 8.909v1.273c5.6 0 10.183-4.582 10.183-10.182h-1.273z" fill="#F19920"/><path d="M31.818 25.455v-1.273c-5.6 0-10.182 4.582-10.182 10.182h1.273a8.854 8.854 0 018.91-8.91z" fill="#FFE27A"/><path d="M33.091 33.09h-2.545c-.764 0-1.273-.509-1.273-1.272 0-.764.51-1.273 1.273-1.273h3.818c.763 0 1.272-.509 1.272-1.273 0-.763-.509-1.272-1.272-1.272H33.09c0-.764-.51-1.273-1.273-1.273-.763 0-1.272.51-1.272 1.273-2.164 0-3.819 1.654-3.819 3.818s1.655 3.818 3.819 3.818h2.545c.764 0 1.273.51 1.273 1.273 0 .763-.51 1.273-1.273 1.273h-3.818c-.764 0-1.273.509-1.273 1.272 0 .764.51 1.273 1.273 1.273h1.273c0 .764.509 1.273 1.272 1.273.764 0 1.273-.51 1.273-1.273 2.164 0 3.818-1.655 3.818-3.818 0-2.164-1.654-3.819-3.818-3.819z" fill="#E78825"/></g><defs><clipPath id="clip0"><path fill="#fff" d="M0 0h56v56H0z"/></clipPath></defs></svg>