<svg width="56" height="56" viewBox="0 0 56 56" fill="none" xmlns="http://www.w3.org/2000/svg">
<path fill-rule="evenodd" clip-rule="evenodd" d="M37.5457 4C37.873 4 38.2003 4.10913 38.4184 4.43641C38.6367 4.7636 38.7457 5.09088 38.5276 5.41816L36.3458 11.9636C36.2367 12.3999 35.8004 12.7272 35.364 12.7272H24.4548C23.8003 12.7272 23.3639 12.2908 23.3639 11.6363C23.3639 10.9819 23.8002 10.5455 24.4548 10.5455H34.6004L36.0185 6.18185H19.4366L21.073 11.2C21.2912 11.8546 20.9639 12.4 20.4185 12.6182C20.3093 12.7273 20.2003 12.7273 20.0912 12.7273C19.6548 12.7273 19.2185 12.4001 19.1093 11.9637L16.9275 5.41825C16.7093 5.09097 16.8185 4.65466 17.0366 4.43641C17.2548 4.21816 17.5821 4 17.9093 4H37.5457ZM43.5455 23.3091L36.1274 15.2363C35.691 14.7999 35.0365 14.7999 34.6001 15.1272C34.1637 15.5636 34.1637 16.2181 34.491 16.6545L41.9091 24.7273C44.6364 27.7818 46.1637 31.7091 46.1637 35.7454V46.5455C46.1637 48.4001 44.7455 49.8182 42.891 49.8182H12.4546C10.6 49.8182 9.18185 48.4001 9.18185 46.5455V35.8546C9.18185 31.7091 10.7091 27.7818 13.4364 24.8364L20.5273 17.0909H26.6365V21.5636C20.5273 22.1091 15.7273 27.2364 15.7273 33.4546C15.7273 40.1091 21.0728 45.4546 27.7273 45.4546C34.3819 45.4546 39.7274 40.1091 39.7274 33.4546C39.7274 27.2364 34.9274 22.1091 28.8182 21.5636V17.0909H31.0001C31.6546 17.0909 32.0909 16.6545 32.0909 16C32.0909 15.3456 31.6545 14.9092 31.0001 14.9092H20.0909C19.7636 14.9092 19.5455 15.0183 19.3273 15.2364L11.9091 23.3092C8.74544 26.8 7 31.2727 7 35.8546V46.5455C7 49.6001 9.40001 52.0001 12.4546 52.0001H43.0001C46.0547 52.0001 48.4547 49.6001 48.4547 46.5455V35.8546C48.4547 31.2727 46.7092 26.8 43.5455 23.3091ZM37.5455 33.4546C37.5455 38.9091 33.1819 43.2728 27.7273 43.2728C22.2728 43.2728 17.9092 38.9091 17.9092 33.4546C17.9092 28 22.2728 23.6364 27.7273 23.6364C33.1819 23.6364 37.5455 28 37.5455 33.4546ZM28.8183 32.3634H26.6364C25.9819 32.3634 25.5455 31.927 25.5455 31.2725C25.5455 30.6181 25.982 30.1817 26.6364 30.1817H29.9092C30.5637 30.1817 31 29.7453 31 29.0908C31 28.4363 30.5638 27.9998 29.9092 27.9998H28.8184V26.9089C28.8184 26.2544 28.382 25.8181 27.7275 25.8181C27.073 25.8181 26.6366 26.2545 26.6366 26.9089V27.9998C24.782 27.9998 23.3639 29.418 23.3639 31.2725C23.3639 33.1271 24.782 34.5453 26.6366 34.5453H28.8185C29.473 34.5453 29.9093 34.9817 29.9093 35.6362C29.9093 36.2907 29.4729 36.727 28.8185 36.727H25.5457C24.8912 36.727 24.4549 37.1634 24.4549 37.8179C24.4549 38.4724 24.8913 38.9088 25.5457 38.9088H26.6366V39.9999C26.6366 40.6544 27.073 41.0907 27.7275 41.0907C28.382 41.0907 28.8184 40.6543 28.8184 39.9999V38.909C30.6729 38.909 32.0911 37.4908 32.0911 35.6362C32.091 33.7817 30.6728 32.3634 28.8183 32.3634Z" fill="#9F9FA3"/>
</svg>
