<svg width="56" height="56" fill="none" xmlns="http://www.w3.org/2000/svg"><path fill-rule="evenodd" clip-rule="evenodd" d="M51.762 2H4.714C2.61 2 1 3.61 1 5.714v27.238c0 2.105 1.61 3.715 3.714 3.715H20.81c.742 0 1.238-.496 1.238-1.239 0-.742-.496-1.237-1.238-1.237H4.713c-.743 0-1.238-.496-1.238-1.239V5.714c0-.743.495-1.238 1.238-1.238h47.048c.743 0 1.238.496 1.238 1.238v19.81c0 .743.495 1.238 1.238 1.238s1.238-.495 1.238-1.238V5.714C55.476 3.61 53.866 2 51.762 2zM20.81 19.333c0-4.086 3.343-7.428 7.428-7.428 4.086 0 7.429 3.342 7.429 7.428s-3.343 7.429-7.429 7.429c-4.085 0-7.428-3.343-7.428-7.429zm2.476 0a4.967 4.967 0 004.952 4.953 4.967 4.967 0 004.953-4.953 4.967 4.967 0 00-4.953-4.952 4.967 4.967 0 00-4.952 4.952zm-7.43 2.476a2.476 2.476 0 10.001-4.952 2.476 2.476 0 000 4.952zm24.763 0a2.476 2.476 0 100-4.952 2.476 2.476 0 000 4.952zm7.305-13.618c0 .743.495 1.238 1.238 1.238.742 0 1.238.495 1.238 1.238V21.81c0 .742-.496 1.238-1.239 1.238-.742 0-1.238-.495-1.238-1.238V11.657c-.99-.37-1.857-1.114-2.228-2.228H10.657c-.371.99-1.114 1.857-2.229 2.228V27.01c.99.371 1.857 1.114 2.229 2.228h11.39c.743 0 1.238.495 1.238 1.238s-.495 1.238-1.238 1.238H9.667c-.743 0-1.239-.495-1.239-1.238 0-.742-.495-1.238-1.238-1.238-.742 0-1.238-.495-1.238-1.238V10.667c0-.743.496-1.238 1.238-1.238.743 0 1.238-.495 1.238-1.238s.496-1.238 1.238-1.238h37.02c.742 0 1.238.495 1.238 1.238zm-3.59 16.095a9.577 9.577 0 00-4.21.99c-.62.248-.867.99-.62 1.61.248.619.991.866 1.61.619a7.223 7.223 0 013.22-.743c4.085 0 7.428 3.343 7.428 7.428 0 1.486-.495 2.972-1.362 4.21-.371.619-.248 1.362.248 1.733.247.124.495.248.742.248.372 0 .743-.124.99-.495 1.115-1.61 1.734-3.59 1.734-5.696.124-5.447-4.333-9.904-9.78-9.904zm-1.239 7.428c0-.742.496-1.238 1.239-1.238.742 0 1.237.495 1.237 1.238v1.239c0 .742-.495 1.237-1.237 1.237-.743 0-1.239-.495-1.239-1.237v-1.239zm-2.847-1.98c-1.858-1.858-4.334-2.972-7.057-2.972-5.448 0-9.905 4.457-9.905 9.905 0 2.724 1.114 5.2 2.971 7.057.248.247.495.371.867.371.371 0 .619-.124.866-.371a1.197 1.197 0 000-1.733c-1.485-1.486-2.228-3.343-2.228-5.324 0-4.086 3.343-7.429 7.428-7.429 1.981 0 3.962.743 5.324 2.229a1.197 1.197 0 001.733 0 1.197 1.197 0 000-1.734zM29.476 44.094c0-5.447 4.457-9.905 9.905-9.905 5.447 0 9.904 4.458 9.904 9.905 0 5.448-4.457 9.905-9.904 9.905-5.448 0-9.905-4.457-9.905-9.905zm2.476 0c0 4.086 3.343 7.429 7.429 7.429 4.085 0 7.428-3.343 7.428-7.429s-3.343-7.428-7.428-7.428c-4.086 0-7.429 3.342-7.429 7.428zm7.429-3.714c-.743 0-1.238.495-1.238 1.238v4.952c0 .743.495 1.238 1.238 1.238.742 0 1.238-.495 1.238-1.238V41.62c0-.743-.495-1.238-1.238-1.238zm-4.952-6.19a1.238 1.238 0 11-2.476 0 1.238 1.238 0 012.476 0z" fill="#9F9FA3"/></svg>