<svg width="59" height="58" viewBox="0 0 59 58" fill="none" xmlns="http://www.w3.org/2000/svg">
<g clip-path="url(#clip0)">
<path d="M56.318 35.0752H2.68184C1.20685 35.0752 0 33.8636 0 32.3829V2.76754C0 1.28678 1.20685 0.0752106 2.68184 0.0752106H56.3182C57.7932 0.0752106 59 1.28678 59 2.76754V32.3829C58.9999 33.8636 57.793 35.0752 56.318 35.0752Z" fill="#0E9347"/>
<path d="M49.524 24.0752C46.4104 24.0752 43.5676 25.5877 41.9432 28.0627C40.5895 27.3753 39.1004 26.8252 37.3406 26.8252C32.6027 26.8252 28.6768 30.4003 28 35.0752H56.2925C57.6462 35.0752 58.7292 34.1128 59 32.7377C58.4585 27.9252 54.3973 24.0752 49.524 24.0752Z" fill="#0D8944"/>
<path d="M51.6 33.0752H8.39995C8.39995 30.0752 5.97 27.6207 3 27.6207V8.52972C5.97 8.52972 8.39995 6.07522 8.39995 3.07521H51.6C51.6 6.07522 54.03 8.52972 57 8.52972V27.6207C54.03 27.6207 51.6 30.0752 51.6 33.0752Z" fill="#3BB54A"/>
<g clip-path="url(#clip1)">
<path d="M49.3095 24.3623C46.1927 24.3623 43.3469 25.8392 41.7208 28.2559C40.3657 27.5847 38.875 27.0476 37.1134 27.0476C33.3191 27.0476 30.0668 29.1958 28.5762 32.4182H50.6647C50.6647 29.4643 52.9684 27.1818 55.9497 27.0476C54.1879 25.4364 51.8843 24.3623 49.3095 24.3623Z" fill="#0E9347"/>
<path d="M28.9826 29.7328C34.9699 29.7328 39.8236 24.3227 39.8236 17.649C39.8236 10.9752 34.9699 5.56508 28.9826 5.56508C22.9953 5.56508 18.1416 10.9752 18.1416 17.649C18.1416 24.3227 22.9953 29.7328 28.9826 29.7328Z" fill="#0E9347"/>
<path d="M12.721 20.3343C14.2179 20.3343 15.4313 19.132 15.4313 17.649C15.4313 16.1659 14.2179 14.9636 12.721 14.9636C11.2242 14.9636 10.0107 16.1659 10.0107 17.649C10.0107 19.132 11.2242 20.3343 12.721 20.3343Z" fill="#0E9347"/>
<path d="M45.2435 20.3343C46.7403 20.3343 47.9538 19.132 47.9538 17.649C47.9538 16.1659 46.7403 14.9636 45.2435 14.9636C43.7466 14.9636 42.5332 16.1659 42.5332 17.649C42.5332 19.132 43.7466 20.3343 45.2435 20.3343Z" fill="#0E9347"/>
</g>
<path d="M30.875 16.7418H28.1249C27.2999 16.7418 26.7499 16.2084 26.7499 15.4085C26.7499 14.6084 27.3 14.0752 28.1249 14.0752H32.2499C33.075 14.0752 33.6249 13.5418 33.6249 12.7418C33.6249 11.9418 33.0749 11.4085 32.2499 11.4085H30.875C30.875 10.6085 30.3249 10.0752 29.5 10.0752C28.675 10.0752 28.125 10.6086 28.125 11.4085C25.7875 11.4085 24 13.1419 24 15.4086C24 17.6753 25.7875 19.4086 28.125 19.4086H30.8751C31.7001 19.4086 32.2501 19.942 32.2501 20.742C32.2501 21.542 31.7 22.0753 30.8751 22.0753H26.7501C25.925 22.0753 25.3751 22.6087 25.3751 23.4086C25.3751 24.2086 25.9251 24.7419 26.7501 24.7419H28.125C28.125 25.5419 28.6751 26.0752 29.5 26.0752C30.325 26.0752 30.875 25.5418 30.875 24.7419C33.2125 24.7419 35 23.0086 35 20.7418C35 18.4751 33.2125 16.7418 30.875 16.7418Z" fill="#89C763"/>
<path d="M34.5 46.0752C39.7467 46.0752 44 41.8219 44 36.5752C44 31.3285 39.7467 27.0752 34.5 27.0752C29.2533 27.0752 25 31.3285 25 36.5752C25 41.8219 29.2533 46.0752 34.5 46.0752Z" fill="#FFCA5D"/>
<path d="M46.5 43.0752C51.7467 43.0752 56 38.8219 56 33.5752C56 28.3285 51.7467 24.0752 46.5 24.0752C41.2533 24.0752 37 28.3285 37 33.5752C37 38.8219 41.2533 43.0752 46.5 43.0752Z" fill="#F6B545"/>
<path fill-rule="evenodd" clip-rule="evenodd" d="M37 33.5752C37 28.2824 41.2072 24.0752 46.5 24.0752C51.7928 24.0752 56 28.2824 56 33.5752C56 38.8681 51.7928 43.0752 46.5 43.0752C41.2072 43.0752 37 38.8681 37 33.5752ZM39.7143 33.5752C39.7143 37.3752 42.7 40.3609 46.5 40.3609C50.3 40.3609 53.2857 37.3752 53.2857 33.5752C53.2857 29.7752 50.3 26.7895 46.5 26.7895C42.7 26.7895 39.7143 29.7752 39.7143 33.5752Z" fill="#FFCB5B"/>
<path d="M47 43.0722C52.0143 43.2027 56 39.0301 56 34.0752H55.8714C55.2286 34.0752 54.7142 34.5968 54.5857 35.2488C54.3286 37.0743 53.4286 38.7693 52.1429 39.9429C51.1143 40.986 49.7001 41.6379 48.1572 41.8987C47.5142 41.8987 47 42.4203 47 43.0722Z" fill="#F6B545"/>
<path d="M47 25.0782C41.9857 24.9478 38 29.1204 38 34.0752H38.1286C38.7714 34.0752 39.2858 33.5536 39.4143 32.9017C39.6714 31.0762 40.5714 29.3811 41.8571 28.2076C42.8857 27.1644 44.2999 26.5125 45.8428 26.2516C46.4857 26.2517 47 25.7301 47 25.0782Z" fill="#FFE27A"/>
<path d="M40.9438 34.8479C40.9438 31.0297 43.9101 28.0297 47.6854 28.0297C49.3034 28.0297 50.7866 28.5752 52 29.6661C50.6517 28.0297 48.8989 27.0752 46.7416 27.0752C42.9663 27.0752 40 30.0752 40 33.8934C40 36.0752 40.9438 37.8479 42.4269 39.0752C41.4832 37.9843 40.9438 36.4843 40.9438 34.8479Z" fill="#F19920"/>
<path d="M50.6585 38.0752C50.5121 38.0752 50.3659 38.0752 50.2195 37.9363C49.9268 37.6585 49.9268 37.2419 50.2195 36.9641C51.0976 36.1308 51.5366 34.8807 51.5366 33.7696C51.5366 33.353 51.8293 33.0752 52.2683 33.0752C52.7073 33.0752 53 33.353 53 33.7696C53 35.2974 52.4146 36.8252 51.3902 37.9363C51.0976 38.0752 50.8048 38.0752 50.6585 38.0752Z" fill="#FFCB5B"/>
<g clip-path="url(#clip2)">
<path d="M47.103 39.9263C46.3211 39.9263 45.7998 39.3905 45.7998 38.5869V33.2292C45.7998 32.4255 46.3212 31.8898 47.103 31.8898C47.8849 31.8898 48.4063 32.4256 48.4063 33.2292V38.5869C48.4063 39.3905 47.885 39.9263 47.103 39.9263Z" fill="#F19920"/>
<path d="M51.9251 43.8106C51.0129 40.462 48.6669 37.7831 45.6693 36.5777C45.148 33.497 43.1931 30.8182 40.7169 29.2108C39.153 30.952 38.1104 33.2291 38.1104 35.774C38.1104 40.9979 42.1505 45.1501 47.2333 45.1501C48.9276 45.284 50.4915 44.7483 51.9251 43.8106Z" fill="#F19920"/>
</g>
<g clip-path="url(#clip3)">
<path d="M42.4046 41.3008C41.4737 40.1107 40.8087 38.6561 40.8087 37.0694C40.8087 35.2182 41.6066 33.4992 42.9365 32.3091C42.6705 31.9124 42.4045 31.648 42.1385 31.3835C40.8087 32.5736 40.0107 34.2926 40.0107 36.2761C40.0109 38.3917 40.9417 40.1107 42.4046 41.3008Z" fill="#E78825"/>
<path d="M45.3301 37.0694V38.9207C45.3301 39.7141 45.8621 40.243 46.6599 40.243C47.4577 40.243 47.9897 39.714 47.9897 38.9207V38.6563C47.1919 37.995 46.261 37.4661 45.3301 37.0694Z" fill="#E78825"/>
</g>
<path d="M52 41.5963C51.7383 40.6552 51.4766 39.8485 50.9533 39.0417C49.9066 39.8485 48.5982 40.3862 47.1589 40.3862C43.4954 40.3862 40.6169 37.4282 40.6169 33.6635C40.6169 31.6467 41.4019 29.8988 42.7103 28.6887C42.0561 28.0164 41.4019 27.4786 40.6169 27.0752C39.0467 28.8231 38 31.1088 38 33.6634C38 38.9071 42.0561 43.0752 47.1589 43.0752C48.9907 43.0753 50.5607 42.5376 52 41.5963Z" fill="#F6B545"/>
<path d="M51.5946 40.0752C50.6487 40.8252 49.4325 41.2752 48.2162 41.5752C47.5406 41.7253 47 42.3252 47 43.0752C48.8919 43.0752 50.5135 42.4751 52 41.4252C51.8649 40.9751 51.7298 40.5252 51.5946 40.0752Z" fill="#F19920"/>
<path d="M39.7587 27.0752C38.1035 28.9323 37 31.3609 37 34.0752H37.138C37.8276 34.0752 38.3794 33.5037 38.5173 32.7895C38.7931 30.7894 39.7587 29.0751 41 27.7895C40.5863 27.6466 40.1725 27.3609 39.7587 27.0752Z" fill="#FFCB5B"/>
<path d="M34.5 46.0752C39.7467 46.0752 44 41.8219 44 36.5752C44 31.3285 39.7467 27.0752 34.5 27.0752C29.2533 27.0752 25 31.3285 25 36.5752C25 41.8219 29.2533 46.0752 34.5 46.0752Z" fill="#F6B545"/>
<path d="M33 43.4085C33 44.3418 33.1375 45.1418 33.4125 46.0752C33.6875 46.0752 34.1 46.0752 34.375 46.0752C39.7375 46.0752 44 41.9419 44 36.7419C44 35.8086 43.8625 35.0086 43.5875 34.0752C43.3125 34.0752 42.9 34.0752 42.625 34.0752C37.2625 34.0753 33 38.2087 33 43.4085Z" fill="#F19920"/>
<path fill-rule="evenodd" clip-rule="evenodd" d="M25 36.5752C25 31.2824 29.2072 27.0752 34.5 27.0752C39.7928 27.0752 44 31.2825 44 36.5752C44 41.8679 39.7928 46.0752 34.5 46.0752C29.2072 46.0752 25 41.8681 25 36.5752ZM27.7143 36.5751C27.7143 40.3751 30.7 43.3608 34.5 43.3608C38.3 43.3608 41.2857 40.3751 41.2857 36.5751C41.2857 32.7751 38.3 29.7894 34.5 29.7894C30.7 29.7894 27.7143 32.7751 27.7143 36.5751Z" fill="#FFCB5B"/>
<path d="M35 46.0722C40.0143 46.2027 44 42.0301 44 37.0752H43.8714C43.2286 37.0752 42.7142 37.5968 42.5857 38.2488C42.3286 40.0743 41.4286 41.7694 40.1429 42.9429C39.1143 43.9861 37.7001 44.638 36.1572 44.8989C35.5143 44.8988 35 45.4203 35 46.0722Z" fill="#F6B545"/>
<path d="M35 27.0782C29.9857 26.9478 26 31.1204 26 36.0752H26.1286C26.7714 36.0752 27.2858 35.5536 27.4143 34.9017C27.6714 33.0762 28.5714 31.3811 29.8571 30.2076C30.8857 29.1644 32.2999 28.5125 33.8428 28.2516C34.4858 28.2516 35 27.7301 35 27.0782Z" fill="#FFE27A"/>
<path d="M28.9439 37.8479C28.9439 34.0297 31.9102 31.0297 35.6855 31.0297C37.3035 31.0297 38.7866 31.5752 40 32.6661C38.6517 31.0297 36.8988 30.0752 34.7416 30.0752C30.9663 30.0752 28 33.0752 28 36.8934C28 39.0752 28.9438 40.8479 30.4269 42.0752C29.4833 40.9843 28.9439 39.4843 28.9439 37.8479Z" fill="#F19920"/>
<path d="M38.6585 41.0752C38.5121 41.0752 38.3659 41.0752 38.2195 40.9363C37.9268 40.6585 37.9268 40.2419 38.2195 39.9641C39.0976 39.1308 39.5366 37.8807 39.5366 36.7696C39.5366 36.353 39.8293 36.0752 40.2683 36.0752C40.7073 36.0752 41 36.353 41 36.7696C41 38.2974 40.4146 39.8252 39.3902 40.9363C39.0974 41.0752 38.8048 41.0752 38.6585 41.0752Z" fill="#FFCB5B"/>
<path d="M34.5 40.0752C33.5999 40.0752 33 39.5418 33 38.7419V33.4085C33 32.6085 33.6001 32.0752 34.5 32.0752C35.4001 32.0752 36 32.6086 36 33.4085V38.7419C36.0001 39.5418 35.4001 40.0752 34.5 40.0752Z" fill="#F19920"/>
<g clip-path="url(#clip4)">
<path d="M40.9293 36.9182C41.1988 37.7161 41.4686 38.5141 41.4686 39.4449C41.4686 43.1686 38.5027 46.0943 34.728 46.0943C34.3235 46.0943 33.7843 46.0943 33.3799 45.9613V46.0943C33.3799 47.0252 33.5147 47.8231 33.7843 48.7541C34.0539 48.7541 34.4584 48.7541 34.728 48.7541C39.9856 48.7541 44.1648 44.6315 44.1648 39.4449C44.1648 38.5141 44.03 37.7161 43.7604 36.7852C43.4908 36.7852 43.0863 36.7852 42.8167 36.7852C42.1425 36.7853 41.6033 36.7853 40.9293 36.9182Z" fill="#F6B545"/>
<path d="M41.4681 56.7334C46.6799 56.7334 50.905 52.5656 50.905 47.4243C50.905 42.283 46.6799 38.1151 41.4681 38.1151C36.2563 38.1151 32.0312 42.283 32.0312 47.4243C32.0312 52.5656 36.2563 56.7334 41.4681 56.7334Z" fill="#F6B545"/>
</g>
<path fill-rule="evenodd" clip-rule="evenodd" d="M32 44.5752C32 39.2824 36.2072 35.0752 41.5 35.0752C46.7928 35.0752 51 39.2824 51 44.5752C51 49.8681 46.7928 54.0752 41.5 54.0752C36.2072 54.0752 32 49.8681 32 44.5752ZM34.7143 44.5752C34.7143 48.3752 37.7 51.3609 41.5 51.3609C45.3 51.3609 48.2857 48.3752 48.2857 44.5752C48.2857 40.7752 45.3 37.7895 41.5 37.7895C37.7 37.7895 34.7143 40.7752 34.7143 44.5752Z" fill="#FFCB5B"/>
<path d="M42 54.0722C47.0143 54.2027 51 50.0301 51 45.0752H50.8714C50.2286 45.0752 49.7142 45.5968 49.5857 46.2488C49.3286 48.0743 48.4286 49.7693 47.1429 50.9429C46.1143 51.986 44.7001 52.6379 43.1572 52.8988C42.5143 52.8987 42 53.4202 42 54.0722Z" fill="#F6B545"/>
<path d="M41 35.0782C35.9857 34.9478 32 39.1204 32 44.0752H32.1286C32.7714 44.0752 33.2858 43.5536 33.4143 42.9017C33.6714 41.0762 34.5714 39.3811 35.8571 38.2076C36.8857 37.1644 38.2999 36.5125 39.8428 36.2516C40.4858 36.2517 41 35.7301 41 35.0782Z" fill="#FFE27A"/>
<path d="M35.9439 45.8479C35.9439 42.0297 38.9102 39.0297 42.6855 39.0297C44.3035 39.0297 45.7866 39.5752 47 40.6661C45.6517 39.0297 43.8988 38.0752 41.7416 38.0752C37.9663 38.0752 35 41.0752 35 44.8934C35 47.0752 35.9438 48.8479 37.4269 50.0752C36.4831 48.9843 35.9439 47.4843 35.9439 45.8479Z" fill="#F19920"/>
<path d="M45.6585 49.0752C45.5121 49.0752 45.3659 49.0752 45.2195 48.9363C44.9268 48.6585 44.9268 48.2419 45.2195 47.9641C46.0976 47.1308 46.5366 45.8807 46.5366 44.7696C46.5366 44.353 46.8293 44.0752 47.2683 44.0752C47.7073 44.0752 48 44.353 48 44.7696C48 46.2974 47.4146 47.8252 46.3902 48.9363C46.0976 49.0752 45.8049 49.0752 45.6585 49.0752Z" fill="#FFCB5B"/>
<path d="M41.5 49.0752C40.5999 49.0752 40 48.5418 40 47.7419V42.4085C40 41.6085 40.6001 41.0752 41.5 41.0752C42.4001 41.0752 43 41.6086 43 42.4085V47.7418C43.0001 48.5418 42.4001 49.0752 41.5 49.0752Z" fill="#F19920"/>
</g>
<defs>
<clipPath id="clip0">
<rect y="0.0752106" width="59" height="57.0747" fill="white"/>
</clipPath>
<clipPath id="clip1">
<rect x="10" y="5.47069" width="46" height="27.0354" fill="white"/>
</clipPath>
<clipPath id="clip2">
<rect x="38" y="29.2108" width="14" height="16.021" fill="white"/>
</clipPath>
<clipPath id="clip3">
<rect x="40" y="31.369" width="8" height="10.0131" fill="white"/>
</clipPath>
<clipPath id="clip4">
<rect x="32" y="36.7645" width="19" height="20.0262" fill="white"/>
</clipPath>
</defs>
</svg>
