<svg width="56" height="57" fill="none" xmlns="http://www.w3.org/2000/svg"><path fill-rule="evenodd" clip-rule="evenodd" d="M29.032 40.753h10.612c.707 0 1.18.471 1.18 1.179 0 .707-.472 1.179-1.18 1.179-.118 3.655-.943 7.193-2.24 10.612-.236.708-.944 1.18-1.77 1.18H20.189c-.707 0-1.415-.472-1.768-1.18-1.416-3.42-2.123-6.957-2.24-10.612-.708 0-1.18-.472-1.18-1.18 0-.706.472-1.178 1.18-1.178h5.895c.707 0 1.179.471 1.179 1.179 0 .707-.472 1.179-1.18 1.179h-3.537c.118 3.302.708 6.367 1.887 9.433h14.975c1.18-3.066 1.769-6.25 1.887-9.433h-9.434c-.707 0-1.179-.472-1.179-1.18v-2.357c-1.886-.118-3.655-.826-4.952-2.123-1.65-1.65-2.358-3.773-2.122-6.25 0-.589.471-1.06 1.06-1.06 2.359-.236 4.482.471 6.014 1.886v-5.542c-5.895-.59-10.612-5.542-10.612-11.673 0-6.486 5.306-11.91 11.792-11.91 6.485 0 11.791 5.307 11.79 11.792 0 4.48-2.475 8.49-6.366 10.494-.472.354-1.18 0-1.533-.472-.354-.471-.118-1.179.471-1.533 3.066-1.65 5.07-4.834 5.07-8.371 0-5.189-4.244-9.433-9.432-9.433-5.189 0-9.434 4.244-9.434 9.433 0 5.188 4.245 9.433 9.434 9.433.707 0 1.179.471 1.179 1.179v3.066c1.65-1.415 3.655-2.123 6.013-1.887.59 0 1.061.472 1.061 1.061.236 2.476-.589 4.717-2.122 6.25-1.297 1.297-3.066 2.004-4.952 2.122V40.753zm4.716-11.792c-1.297.118-2.476.59-3.301 1.415a5.594 5.594 0 00-1.415 3.302c1.297-.118 2.476-.472 3.301-1.415a5.594 5.594 0 001.415-3.302zM21.957 32.5c.118 1.297.59 2.476 1.415 3.301.825.826 2.004 1.297 3.302 1.415-.119-1.297-.59-2.476-1.415-3.301a5.594 5.594 0 00-3.302-1.415zm4.716-18.867h2.359c2.004 0 3.537 1.533 3.537 3.538 0 2.004-1.533 3.537-3.538 3.537 0 .708-.471 1.18-1.179 1.18-.707 0-1.179-.472-1.179-1.18h-1.179c-.707 0-1.179-.471-1.179-1.179 0-.707.472-1.179 1.18-1.179h3.537c.707 0 1.179-.472 1.179-1.179 0-.707-.472-1.18-1.18-1.18h-2.358c-2.004 0-3.537-1.532-3.537-3.537 0-2.004 1.533-3.537 3.537-3.537 0-.707.472-1.179 1.18-1.179.707 0 1.178.472 1.178 1.18h1.18c.707 0 1.179.47 1.179 1.178s-.472 1.18-1.18 1.18h-3.537c-.707 0-1.179.47-1.179 1.178s.472 1.18 1.18 1.18z" fill="#9F9FA3"/></svg>