<svg width="27" height="55" viewBox="0 0 27 55" fill="none" xmlns="http://www.w3.org/2000/svg">
<path d="M14.6712 39.3062H25.7672C26.5068 39.3062 27 39.796 27 40.5307C27 41.2653 26.5069 41.7552 25.7672 41.7552C25.6438 45.551 24.7809 49.2246 23.4247 52.7756C23.178 53.5102 22.4383 54 21.5753 54H5.42467C4.68492 54 3.94517 53.5103 3.5753 52.7756C2.09581 49.2246 1.35617 45.5511 1.23284 41.7552C0.4932 41.7552 0 41.2654 0 40.5307C0 39.7961 0.493094 39.3063 1.23284 39.3063H12.2054V38.0817C10.2328 37.9593 8.38344 37.2246 7.02727 35.8777C5.30134 34.1634 4.56159 31.9592 4.80814 29.3878C4.80814 28.7756 5.30134 28.2858 5.91776 28.2858C8.38344 28.0409 10.6027 28.7755 12.2054 30.2449V24.4898L14.6712 24.4898V26.5714C16.3971 25.102 18.493 24.3673 20.9588 24.6122C21.5752 24.6122 22.0684 25.102 22.0684 25.7143C22.3151 28.2858 21.452 30.6123 19.8493 32.2041C18.4931 33.551 16.6438 34.2856 14.6712 34.4081V36.1224V39.3062Z" fill="#3BB54A"/>
<path d="M16.1504 28.5306C17.0134 27.6735 18.2463 27.1837 19.6025 27.0612C19.4791 28.4081 18.9861 29.5102 18.123 30.4898C17.2599 31.4694 16.0271 31.8367 14.6709 31.9592C14.7942 30.6123 15.2874 29.5102 16.1504 28.5306Z" fill="#0E9347"/>
<path d="M8.75293 34.1634C7.88986 33.3063 7.39676 32.0817 7.27344 30.7348C8.6296 30.8572 9.73922 31.347 10.7255 32.2042C11.5885 33.0613 12.0817 34.2858 12.205 35.6328C10.8488 35.5103 9.6159 35.0204 8.75293 34.1634Z" fill="#0E9347"/>
<circle cx="13.5" cy="13.5" r="12.5" fill="#F6B545"/>
<circle cx="12.5" cy="12.5" r="12.5" fill="#FFCB5B"/>
<circle cx="12.5" cy="12.5" r="9.5" fill="#F6B545"/>
<path d="M4.33716 14.0113C4.33716 8.6022 8.5394 4.3522 13.8877 4.3522C16.1799 4.3522 18.281 5.125 20 6.67044C18.09 4.3522 15.6067 3 12.5506 3C7.20223 3 3 7.25 3 12.6591C3 15.75 4.337 18.2613 6.43812 20C5.10112 18.4546 4.33716 16.3296 4.33716 14.0113Z" fill="#F19920"/>
<path d="M13.625 11.8332H11.3749C10.6999 11.8332 10.25 11.3665 10.25 10.6666C10.25 9.96657 10.7 9.49995 11.3749 9.49995H14.75C15.425 9.49995 15.8749 9.03323 15.8749 8.3333C15.8749 7.63337 15.4249 7.16665 14.75 7.16665H13.625C13.625 6.46662 13.1749 6 12.5 6C11.825 6 11.375 6.46672 11.375 7.16665C9.46249 7.16665 8 8.68331 8 10.6667C8 12.6501 9.46249 14.1668 11.375 14.1668H13.6251C14.3001 14.1668 14.75 14.6335 14.75 15.3334C14.75 16.0333 14.3 16.5 13.6251 16.5H10.25C9.57502 16.5 9.12507 16.9668 9.12507 17.6667C9.12507 18.3667 9.57512 18.8334 10.25 18.8334H11.375C11.375 19.5334 11.8251 20 12.5 20C13.175 20 13.625 19.5333 13.625 18.8334C15.5375 18.8334 17 17.3167 17 15.3333C17 13.3499 15.5375 11.8332 13.625 11.8332Z" fill="#F19920"/>
<path d="M14.6712 39.3062H25.7672C26.5068 39.3062 27 39.796 27 40.5307C27 41.2653 26.5069 41.7552 25.7672 41.7552C25.6438 45.551 24.7809 49.2246 23.4247 52.7756C23.178 53.5102 22.4383 54 21.5753 54H5.42467C4.68492 54 3.94517 53.5103 3.5753 52.7756C2.09581 49.2246 1.35617 45.5511 1.23284 41.7552C0.4932 41.7552 0 41.2654 0 40.5307C0 39.7961 0.493094 39.3063 1.23284 39.3063H13.4382L14.6712 39.3062Z" fill="#B5673B"/>
<path d="M23 42H13.4402H4C4.11943 45.15 4.717 48.075 5.91194 51H21.0881C22.283 48.075 22.8805 45.0375 23 42Z" fill="#8D4922"/>
</svg>
