<svg width="40" height="40" viewBox="0 0 40 40" fill="none" xmlns="http://www.w3.org/2000/svg">
<g clip-path="url(#clip0_1015_27803)">
<path d="M39.9618 39.2061L34.1024 23.7709C34.0537 23.6427 33.9616 23.5357 33.8423 23.4684L27.6012 19.9523L29.4233 17.0633C30.5416 15.2888 31.1327 13.2381 31.1327 11.1329C31.1327 4.99425 26.1386 0.00012207 19.9999 0.00012207C13.8613 0.00012207 8.86715 4.99425 8.86715 11.1329C8.86715 13.2386 9.45855 15.2894 10.5775 17.0634C10.6074 17.111 12.3991 19.9525 12.3991 19.9525L6.15778 23.4684C6.03833 23.5357 5.94622 23.6427 5.89754 23.7709L0.0381805 39.2061C-0.0493975 39.4367 0.0169305 39.6975 0.203883 39.8583C0.39107 40.0193 0.658648 40.0457 0.87357 39.9246L10.2929 34.6179L19.7123 39.9246C19.8908 40.0251 20.109 40.0251 20.2875 39.9246L29.7069 34.6179L39.1262 39.9246C39.2161 39.9752 39.3152 40 39.4138 40C39.551 40 39.6871 39.952 39.796 39.8584C39.9831 39.6975 40.0494 39.4367 39.9618 39.2061ZM20.586 30.3681C20.9525 30.2387 21.2703 29.9895 21.486 29.648C21.5158 29.6012 26.5039 21.6923 26.5039 21.6923L29.0445 33.646L20.586 38.4113V30.3681ZM11.5687 16.4382C10.568 14.8515 10.0391 13.017 10.0391 11.1328C10.0391 5.64035 14.5075 1.17192 20 1.17192C25.4925 1.17192 29.9609 5.64035 29.9609 11.1328C29.9609 13.0166 29.4322 14.8513 28.4321 16.4382C28.3539 16.5622 20.6335 28.8053 20.4988 29.0168C20.4975 29.0186 20.4964 29.0205 20.4953 29.0223C20.3866 29.1941 20.2015 29.2969 20 29.2969C19.7984 29.2969 19.6124 29.1937 19.5036 29.0226C19.4253 28.8984 11.6895 16.6311 11.5714 16.4425C11.5705 16.4411 11.5696 16.4397 11.5687 16.4382ZM6.91778 24.3852L12.38 21.3081L11.4284 25.785C11.3611 26.1016 11.5632 26.4126 11.8796 26.48C11.9207 26.4887 11.9618 26.493 12.0021 26.493C12.2728 26.493 12.516 26.3041 12.5746 26.0287L13.4962 21.6927L18.5135 29.6496C18.7299 29.9901 19.048 30.2388 19.4139 30.368V38.4115L10.9556 33.6461L12.0874 28.3212C12.1546 28.0046 11.9526 27.6935 11.6361 27.6262C11.3193 27.5585 11.0084 27.761 10.9411 28.0774L9.7748 33.5646L1.70794 38.1094L6.91778 24.3852ZM30.2252 33.5647L27.6202 21.3081L33.0822 24.3852L38.2921 38.1094L30.2252 33.5647Z" fill="current"/>
<path d="M26.4453 11.1328C26.4453 7.57891 23.5539 4.6875 20 4.6875C16.4461 4.6875 13.5547 7.57891 13.5547 11.1328C13.5547 14.6867 16.4461 17.5781 20 17.5781C23.5539 17.5781 26.4453 14.6867 26.4453 11.1328ZM14.7266 11.1328C14.7266 8.225 17.0922 5.85938 20 5.85938C22.9078 5.85938 25.2734 8.225 25.2734 11.1328C25.2734 14.0406 22.9078 16.4062 20 16.4062C17.0922 16.4062 14.7266 14.0406 14.7266 11.1328Z" fill="current"/>
<path d="M24.1016 11.1328C24.1016 8.87125 22.2616 7.03125 20 7.03125C17.7384 7.03125 15.8984 8.87125 15.8984 11.1328C15.8984 13.3944 17.7384 15.2344 20 15.2344C22.2616 15.2344 24.1016 13.3944 24.1016 11.1328ZM17.0703 11.1328C17.0703 9.51734 18.3845 8.20312 20 8.20312C21.6155 8.20312 22.9297 9.51734 22.9297 11.1328C22.9297 12.7483 21.6155 14.0625 20 14.0625C18.3845 14.0625 17.0703 12.7483 17.0703 11.1328Z" fill="current"/>
</g>
<defs>
<clipPath id="clip0_1015_27803">
<rect width="40" height="40" fill="white"/>
</clipPath>
</defs>
</svg>
