<?xml version="1.0" standalone="no"?>
<!DOCTYPE svg PUBLIC "-//W3C//DTD SVG 20010904//EN"
 "http://www.w3.org/TR/2001/REC-SVG-20010904/DTD/svg10.dtd">
<svg version="1.0" xmlns="http://www.w3.org/2000/svg"
 width="128.000000pt" height="128.000000pt" viewBox="0 0 128.000000 128.000000"
 preserveAspectRatio="xMidYMid meet">

<g transform="translate(0.000000,128.000000) scale(0.100000,-0.100000)"
fill="#000000" stroke="none">
<path d="M335 1108 c-88 -31 -135 -105 -135 -210 0 -63 -1 -66 -27 -73 -44
-11 -89 -51 -113 -101 -47 -95 -5 -212 93 -262 l47 -25 0 -94 c0 -86 2 -96 25
-118 l24 -25 391 0 391 0 24 25 c23 22 25 31 25 125 0 91 2 100 18 100 33 0
98 56 122 105 46 95 6 212 -90 262 l-45 24 -6 76 c-8 91 -40 144 -108 180 -43
23 -50 23 -325 22 -168 0 -293 -5 -311 -11z m627 -105 c29 -29 33 -40 36 -102
4 -68 4 -68 -24 -75 -64 -16 -134 -103 -134 -164 0 -22 -1 -22 -199 -22 l-199
0 -7 40 c-9 55 -55 113 -110 140 l-47 23 4 63 c4 66 27 105 73 125 11 4 145 7
297 6 l278 -2 32 -32z m-638 -282 c31 -31 31 -31 36 -168 4 -115 8 -138 23
-147 12 -8 22 -8 35 0 13 9 18 28 20 83 l3 71 199 0 199 0 3 -71 c2 -55 7 -74
21 -83 12 -8 22 -8 35 0 14 9 18 32 22 147 l5 137 33 32 c28 28 39 33 82 33
42 0 54 -5 80 -30 38 -39 48 -90 26 -137 -18 -38 -62 -68 -98 -68 -42 0 -48
-17 -48 -132 l0 -108 -360 0 -360 0 0 108 c0 112 -6 132 -43 132 -37 0 -85 31
-102 67 -29 61 -1 137 60 164 37 16 96 3 129 -30z"/>
</g>
</svg>
