<?xml version="1.0" standalone="no"?>
<!DOCTYPE svg PUBLIC "-//W3C//DTD SVG 20010904//EN"
 "http://www.w3.org/TR/2001/REC-SVG-20010904/DTD/svg10.dtd">
<svg version="1.0" xmlns="http://www.w3.org/2000/svg"
 width="128.000000pt" height="128.000000pt" viewBox="0 0 128.000000 128.000000"
 preserveAspectRatio="xMidYMid meet">

<g transform="translate(0.000000,128.000000) scale(0.100000,-0.100000)"
fill="#677489" stroke="none">
<path d="M145 1135 l-25 -24 0 -435 0 -435 -31 -3 c-39 -4 -59 -30 -43 -55 10
-17 50 -18 594 -18 544 0 584 1 594 18 16 25 -4 51 -43 55 l-31 3 0 275 0 275
-25 24 c-24 25 -27 25 -200 25 l-175 0 0 135 c0 131 -1 137 -25 160 l-24 25
-271 0 -271 0 -24 -25z m535 -475 l0 -420 -240 0 -240 0 0 420 0 420 240 0
240 0 0 -420z m400 -160 l0 -260 -160 0 -160 0 0 260 0 260 160 0 160 0 0
-260z"/>
<path d="M292 948 c-6 -6 -12 -20 -12 -29 0 -32 25 -40 125 -37 80 2 100 6
109 21 8 12 8 22 0 35 -9 14 -29 18 -110 20 -69 2 -103 -1 -112 -10z"/>
<path d="M372 628 c-6 -6 -12 -20 -12 -29 0 -32 25 -40 125 -37 80 2 100 6
109 21 8 12 8 22 0 35 -9 14 -29 18 -110 20 -69 2 -103 -1 -112 -10z"/>
<path d="M292 428 c-6 -6 -12 -20 -12 -29 0 -32 25 -40 125 -37 80 2 100 6
109 21 8 12 8 22 0 35 -9 14 -29 18 -110 20 -69 2 -103 -1 -112 -10z"/>
<path d="M852 628 c-16 -16 -15 -43 2 -57 22 -19 126 -10 140 12 8 12 8 22 0
35 -14 21 -122 30 -142 10z"/>
<path d="M852 428 c-16 -16 -15 -43 2 -57 22 -19 126 -10 140 12 8 12 8 22 0
35 -14 21 -122 30 -142 10z"/>
</g>
</svg>
