<?xml version="1.0" standalone="no"?>
<!DOCTYPE svg PUBLIC "-//W3C//DTD SVG 20010904//EN"
 "http://www.w3.org/TR/2001/REC-SVG-20010904/DTD/svg10.dtd">
<svg version="1.0" xmlns="http://www.w3.org/2000/svg"
 width="128.000000pt" height="128.000000pt" viewBox="0 0 128.000000 128.000000"
 preserveAspectRatio="xMidYMid meet">

<g transform="translate(0.000000,128.000000) scale(0.100000,-0.100000)"
fill="#677489" stroke="none">
<path d="M297 1058 c-14 -13 -55 -94 -93 -180 l-69 -157 -39 -3 c-70 -5 -77
-69 -7 -76 l31 -3 0 -215 c0 -215 0 -215 25 -239 22 -23 32 -25 115 -25 83 0
93 2 115 25 21 20 25 34 25 80 l0 55 240 0 240 0 0 -55 c0 -46 4 -60 25 -80
22 -23 32 -25 115 -25 83 0 93 2 115 25 25 24 25 24 25 239 l0 215 31 3 c69 7
63 71 -7 76 l-39 3 -70 161 c-42 97 -79 168 -94 179 -22 18 -44 19 -342 19
-316 0 -318 0 -342 -22z m700 -198 l61 -140 -418 0 -418 0 61 140 62 139 295
0 295 0 62 -139z m83 -340 l0 -120 -440 0 -440 0 0 120 0 120 440 0 440 0 0
-120z m-760 -240 l0 -40 -60 0 -60 0 0 40 0 40 60 0 60 0 0 -40z m760 0 l0
-40 -60 0 -60 0 0 40 0 40 60 0 60 0 0 -40z"/>
<path d="M292 548 c-16 -16 -15 -43 2 -57 22 -19 126 -10 140 12 8 12 8 22 0
35 -14 21 -122 30 -142 10z"/>
<path d="M852 548 c-16 -16 -15 -43 2 -57 22 -19 126 -10 140 12 8 12 8 22 0
35 -14 21 -122 30 -142 10z"/>
</g>
</svg>
