<?xml version="1.0" standalone="no"?>
<!DOCTYPE svg PUBLIC "-//W3C//DTD SVG 20010904//EN"
 "http://www.w3.org/TR/2001/REC-SVG-20010904/DTD/svg10.dtd">
<svg version="1.0" xmlns="http://www.w3.org/2000/svg"
 width="128.000000pt" height="128.000000pt" viewBox="0 0 128.000000 128.000000"
 preserveAspectRatio="xMidYMid meet">

<g transform="translate(0.000000,128.000000) scale(0.100000,-0.100000)"
fill="#677489" stroke="none">
<path d="M415 1146 c-66 -29 -105 -106 -91 -181 13 -66 85 -125 154 -125 23 0
32 -7 45 -36 17 -35 17 -36 -7 -65 -30 -35 -40 -78 -32 -133 7 -41 5 -44 -49
-95 -49 -47 -59 -52 -83 -45 -52 16 -129 10 -158 -12 -53 -39 -69 -71 -69
-134 0 -63 16 -95 69 -134 39 -29 133 -29 172 0 55 41 69 70 69 146 l0 71 55
49 c41 36 60 47 75 43 52 -16 102 -16 139 -1 l38 16 51 -41 51 -40 1 -64 c0
-103 56 -160 155 -160 63 0 95 16 134 69 29 39 29 133 0 172 -50 67 -126 90
-198 60 l-39 -16 -54 41 c-51 40 -53 43 -47 78 9 47 9 48 40 55 20 5 33 0 60
-23 64 -57 154 -53 215 8 65 65 65 157 0 222 -89 90 -234 48 -265 -76 -10 -39
-18 -51 -40 -58 -23 -8 -32 -5 -54 16 -31 30 -72 47 -111 47 -21 0 -31 8 -44
36 -17 35 -17 36 7 65 105 125 -39 311 -189 245z m120 -91 c50 -49 15 -135
-55 -135 -41 0 -80 39 -80 80 0 41 39 80 80 80 19 0 40 -9 55 -25z m520 -240
c16 -15 25 -36 25 -55 0 -19 -9 -40 -25 -55 -15 -16 -36 -25 -55 -25 -19 0
-40 9 -55 25 -16 15 -25 36 -25 55 0 19 9 40 25 55 15 16 36 25 55 25 19 0 40
-9 55 -25z m-360 -120 c50 -49 15 -135 -55 -135 -19 0 -40 9 -55 25 -50 49
-15 135 55 135 19 0 40 -9 55 -25z m360 -280 c50 -49 15 -135 -55 -135 -41 0
-80 39 -80 80 0 41 39 80 80 80 19 0 40 -9 55 -25z m-720 -40 c50 -49 15 -135
-55 -135 -41 0 -80 39 -80 80 0 41 39 80 80 80 19 0 40 -9 55 -25z"/>
</g>
</svg>
