<?xml version="1.0" standalone="no"?>
<!DOCTYPE svg PUBLIC "-//W3C//DTD SVG 20010904//EN"
 "http://www.w3.org/TR/2001/REC-SVG-20010904/DTD/svg10.dtd">
<svg version="1.0" xmlns="http://www.w3.org/2000/svg"
 width="128.000000pt" height="128.000000pt" viewBox="0 0 128.000000 128.000000"
 preserveAspectRatio="xMidYMid meet">

<g transform="translate(0.000000,128.000000) scale(0.100000,-0.100000)"
fill="#677489" stroke="none">
<path d="M381 1080 c-124 -70 -233 -138 -243 -150 -16 -20 -18 -46 -18 -294 1
-200 4 -275 13 -287 23 -30 475 -279 507 -279 41 0 495 256 509 288 7 14 11
124 11 291 0 265 0 268 -22 289 -13 11 -124 77 -247 146 -162 92 -232 126
-255 125 -20 -1 -108 -45 -255 -129z m462 -60 c103 -58 187 -107 187 -110 0
-8 -132 -83 -145 -83 -11 0 -374 200 -389 213 -9 9 132 92 149 88 6 -2 95 -50
198 -108z m-242 -132 l201 -111 -38 -23 c-22 -13 -57 -34 -80 -46 l-41 -21
-196 109 c-109 60 -197 111 -197 114 0 4 94 61 147 89 1 1 93 -49 204 -111z
m-193 -163 l192 -107 0 -225 0 -225 -42 24 c-24 13 -114 64 -200 112 l-158 88
0 225 c0 123 3 222 8 220 4 -2 94 -52 200 -112z m672 -109 l0 -224 -192 -107
c-106 -60 -196 -110 -201 -112 -4 -2 -6 96 -5 218 l3 223 70 42 c39 24 73 43
78 43 4 1 7 -40 7 -90 0 -102 10 -129 45 -129 37 0 45 28 45 157 l0 119 73 42
c39 23 73 42 75 42 1 0 2 -101 2 -224z"/>
</g>
</svg>
