<svg width="176" height="161" viewBox="0 0 176 161" fill="none" xmlns="http://www.w3.org/2000/svg">
<circle cx="135" cy="26.4751" r="10" fill="#FFEEB9"/>
<circle cx="141" cy="122.475" r="5" fill="#AAD2FE"/>
<circle cx="27" cy="35.4751" r="7" fill="#AEDFCF"/>
<circle cx="11" cy="72.4751" r="3" fill="#F3BCC4"/>
<path opacity="0.1" d="M72 31.4033C79.4256 27.1161 88.5744 27.1161 96 31.4033L123.962 47.5469C131.387 51.8341 135.962 59.7571 135.962 68.3315V100.619C135.962 109.193 131.387 117.116 123.962 121.403L96 137.547C88.5744 141.834 79.4256 141.834 72 137.547L44.0385 121.403C36.6128 117.116 32.0385 109.193 32.0385 100.619V68.3315C32.0385 59.7571 36.6128 51.8341 44.0385 47.5469L72 31.4033Z" fill="#0177FB"/>
<path d="M84 84.4751L99 69.4751" stroke="#0177FB" stroke-width="3" stroke-linecap="round" stroke-linejoin="round"/>
<path d="M94.6061 73.8685C91.949 71.2166 88.3934 69.6587 84.6426 69.5028C80.8919 69.3469 77.2192 70.6045 74.3513 73.0268C71.4833 75.449 69.629 78.8595 69.1551 82.5835C68.6812 86.3074 69.6223 90.0736 71.7922 93.1369C73.9621 96.2003 77.2027 98.3376 80.873 99.126C84.5432 99.9145 88.3758 99.2967 91.6123 97.3948C94.8489 95.493 97.2537 92.4456 98.3511 88.8555C99.4485 85.2655 99.1584 81.3944 97.5383 78.008" stroke="#0177FB" stroke-width="3" stroke-linecap="round" stroke-linejoin="round"/>
<path d="M89.3029 79.1718C88.0629 77.9319 86.4277 77.1657 84.6815 77.0063C82.9352 76.8469 81.1883 77.3045 79.7444 78.2994C78.3005 79.2944 77.2509 80.7638 76.7779 82.4523C76.305 84.1409 76.4387 85.9417 77.1557 87.5419C77.8728 89.1421 79.1278 90.4405 80.7028 91.2114C82.2778 91.9822 84.0731 92.1768 85.7767 91.7614C87.4803 91.3459 88.9844 90.3467 90.0277 88.9373C91.071 87.528 91.5875 85.7976 91.4874 84.0469" stroke="#0177FB" stroke-width="3" stroke-linecap="round" stroke-linejoin="round"/>
</svg>
