<svg width="42" height="35" viewBox="0 0 42 35" fill="none" xmlns="http://www.w3.org/2000/svg">
    <path d="M29.5555 33V29.5555C29.5555 27.7285 28.8298 25.9763 27.5378 24.6844C26.2459 23.3924 24.4937 22.6667 22.6667 22.6667H8.88889C7.06184 22.6667 5.30963 23.3924 4.01771 24.6844C2.72579 25.9763 2 27.7285 2 29.5555V33" stroke="black" stroke-width="4" stroke-linecap="round" stroke-linejoin="round"/>
    <path d="M15.7778 15.7778C19.5824 15.7778 22.6667 12.6935 22.6667 8.88889C22.6667 5.08426 19.5824 2 15.7778 2C11.9732 2 8.88892 5.08426 8.88892 8.88889C8.88892 12.6935 11.9732 15.7778 15.7778 15.7778Z" stroke="black" stroke-width="4" stroke-linecap="round" stroke-linejoin="round"/>
    <path d="M39.8888 33V29.5556C39.8877 28.0292 39.3797 26.5464 38.4445 25.3401C37.5094 24.1338 36.2001 23.2722 34.7222 22.8906" stroke="black" stroke-width="4" stroke-linecap="round" stroke-linejoin="round"/>
    <path d="M27.8333 2.22389C29.3151 2.6033 30.6285 3.4651 31.5664 4.67343C32.5043 5.88175 33.0134 7.36788 33.0134 8.8975C33.0134 10.4271 32.5043 11.9132 31.5664 13.1216C30.6285 14.3299 29.3151 15.1917 27.8333 15.5711" stroke="black" stroke-width="4" stroke-linecap="round" stroke-linejoin="round"/>
</svg>
