<svg width="24" height="24" viewBox="0 0 24 24" fill="none" xmlns="http://www.w3.org/2000/svg">
    <path fill-rule="evenodd" clip-rule="evenodd" d="M11.9984 21.5984C14.5445 21.5984 16.9863 20.587 18.7867 18.7867C20.587 16.9863 21.5984 14.5445 21.5984 11.9984C21.5984 9.45236 20.587 7.01056 18.7867 5.21021C16.9863 3.40986 14.5445 2.39844 11.9984 2.39844C9.45236 2.39844 7.01056 3.40986 5.21021 5.21021C3.40986 7.01056 2.39844 9.45236 2.39844 11.9984C2.39844 14.5445 3.40986 16.9863 5.21021 18.7867C7.01056 20.587 9.45236 21.5984 11.9984 21.5984ZM16.4468 10.4468C16.6654 10.2205 16.7864 9.91739 16.7836 9.60276C16.7809 9.28812 16.6547 8.98715 16.4322 8.76466C16.2097 8.54217 15.9088 8.41596 15.5941 8.41323C15.2795 8.41049 14.9764 8.53145 14.75 8.75004L10.7984 12.7016L9.24684 11.15C9.02051 10.9314 8.71739 10.8105 8.40276 10.8132C8.08812 10.816 7.78715 10.9422 7.56466 11.1647C7.34217 11.3871 7.21596 11.6881 7.21323 12.0028C7.21049 12.3174 7.33145 12.6205 7.55004 12.8468L9.95004 15.2468C10.1751 15.4718 10.4802 15.5982 10.7984 15.5982C11.1166 15.5982 11.4218 15.4718 11.6468 15.2468L16.4468 10.4468Z" fill="white"/>
</svg>
