<svg width="112" height="112" viewBox="0 0 112 112" fill="none" xmlns="http://www.w3.org/2000/svg">
    <g filter="url(#filter0_d_127_46643)">
        <circle cx="56" cy="52" r="52" fill="#CDD5E0"/>
        <path d="M54.5878 41.8369L59.1102 43.0099C59.2638 43.0452 59.4013 43.1295 59.5012 43.2497C59.6011 43.3698 59.6579 43.5191 59.6627 43.6743C59.6627 44.0516 59.3219 44.3634 58.9028 44.3634H55.9361C55.6165 44.3624 55.2999 44.3012 55.0037 44.1829C54.567 44.0024 54.0637 44.0434 53.7287 44.347L52.1454 45.7825C52.0722 45.8456 52.009 45.9191 51.9579 46.0007C51.8925 46.1062 51.849 46.2235 51.8299 46.3456C51.8108 46.4678 51.8164 46.5925 51.8465 46.7125C51.8765 46.8325 51.9304 46.9455 52.005 47.0449C52.0796 47.1444 52.1735 47.2283 52.2812 47.2918C53.1581 47.8098 54.1398 48.1318 55.157 48.2352V49.6871C55.157 50.4089 55.8095 50.9995 56.6045 50.9995H58.0519C58.8478 50.9995 59.5002 50.4089 59.5002 49.6871V48.2434C62.2443 47.948 64.3201 45.7004 63.9585 43.0755C63.696 41.1888 62.0869 39.6877 60.0786 39.1627L55.5562 37.9897C55.4026 37.9543 55.2651 37.87 55.1652 37.7499C55.0653 37.6297 55.0085 37.4804 55.0037 37.3252C55.0037 36.9479 55.3445 36.6362 55.7637 36.6362H58.7303C59.0511 36.6367 59.3688 36.6979 59.6661 36.8166C60.1019 36.9971 60.606 36.9561 60.941 36.6526L62.5243 35.2171C62.5951 35.1553 62.6561 35.0834 62.7052 35.0038C62.7711 34.8983 62.8151 34.781 62.8347 34.6586C62.8543 34.5362 62.8491 34.4113 62.8193 34.2909C62.7896 34.1706 62.7359 34.0572 62.6614 33.9574C62.5869 33.8576 62.493 33.7733 62.3852 33.7094C61.508 33.1914 60.526 32.8694 59.5086 32.766V31.3125C59.5086 30.5906 58.8569 30 58.0611 30H56.6136C55.8178 30 55.1662 30.5906 55.1662 31.3125V32.7562C52.4254 33.0515 50.3454 35.2991 50.7071 37.924C50.9688 39.8107 52.5829 41.3119 54.5878 41.8369ZM79.1048 56.9139C78.1215 56.0362 76.5882 56.0936 75.5549 56.9139L67.8551 62.9758C66.9099 63.7223 65.7335 64.1276 64.5218 64.1243H54.6662C54.3126 64.1243 53.9734 63.986 53.7234 63.7398C53.4733 63.4937 53.3329 63.1599 53.3329 62.8118C53.3329 62.4637 53.4733 62.1299 53.7234 61.8837C53.9734 61.6376 54.3126 61.4993 54.6662 61.4993H61.1902C62.5152 61.4993 63.7493 60.6052 63.961 59.3173C63.9871 59.1694 63.9999 59.0196 63.9993 58.8695C63.998 58.1741 63.7165 57.5077 63.2165 57.0165C62.7166 56.5253 62.0391 56.2494 61.3327 56.2494H47.9997C45.751 56.25 43.571 57.0114 41.8248 58.406L37.9499 61.4993H33.3333C32.9797 61.4993 32.6406 61.6376 32.3905 61.8837C32.1405 62.1299 32 62.4637 32 62.8118V70.6866C32 71.0347 32.1405 71.3685 32.3905 71.6147C32.6406 71.8608 32.9797 71.9991 33.3333 71.9991H63.0635C64.2748 72 65.4504 71.595 66.3968 70.8507L78.999 60.9251C79.3021 60.6864 79.5487 60.3855 79.7214 60.0433C79.8942 59.7011 79.9889 59.3259 79.9991 58.9439C80.0092 58.5619 79.9346 58.1823 79.7802 57.8317C79.6259 57.4811 79.3957 57.1678 79.1057 56.9139H79.1048Z" fill="white"/>
    </g>
    <defs>
        <filter id="filter0_d_127_46643" x="0" y="0" width="112" height="112" filterUnits="userSpaceOnUse" color-interpolation-filters="sRGB">
            <feFlood flood-opacity="0" result="BackgroundImageFix"/>
            <feColorMatrix in="SourceAlpha" type="matrix" values="0 0 0 0 0 0 0 0 0 0 0 0 0 0 0 0 0 0 127 0" result="hardAlpha"/>
            <feOffset dy="4"/>
            <feGaussianBlur stdDeviation="2"/>
            <feComposite in2="hardAlpha" operator="out"/>
            <feColorMatrix type="matrix" values="0 0 0 0 0 0 0 0 0 0 0 0 0 0 0 0 0 0 0.25 0"/>
            <feBlend mode="normal" in2="BackgroundImageFix" result="effect1_dropShadow_127_46643"/>
            <feBlend mode="normal" in="SourceGraphic" in2="effect1_dropShadow_127_46643" result="shape"/>
        </filter>
    </defs>
</svg>
