<svg width="16" height="16" viewBox="0 0 16 16" fill="none" xmlns="http://www.w3.org/2000/svg">
    <path fill-rule="evenodd" clip-rule="evenodd" d="M3.99844 7.20156V5.60156C3.99844 4.5407 4.41987 3.52328 5.17001 2.77314C5.92016 2.02299 6.93757 1.60156 7.99844 1.60156C9.0593 1.60156 10.0767 2.02299 10.8269 2.77314C11.577 3.52328 11.9984 4.5407 11.9984 5.60156V7.20156C12.4228 7.20156 12.8298 7.37014 13.1298 7.67019C13.4299 7.97025 13.5984 8.37722 13.5984 8.80156V12.8016C13.5984 13.2259 13.4299 13.6329 13.1298 13.9329C12.8298 14.233 12.4228 14.4016 11.9984 14.4016H3.99844C3.57409 14.4016 3.16712 14.233 2.86707 13.9329C2.56701 13.6329 2.39844 13.2259 2.39844 12.8016V8.80156C2.39844 8.37722 2.56701 7.97025 2.86707 7.67019C3.16712 7.37014 3.57409 7.20156 3.99844 7.20156ZM10.3984 5.60156V7.20156H5.59844V5.60156C5.59844 4.96504 5.85129 4.35459 6.30138 3.90451C6.75147 3.45442 7.36192 3.20156 7.99844 3.20156C8.63496 3.20156 9.24541 3.45442 9.6955 3.90451C10.1456 4.35459 10.3984 4.96504 10.3984 5.60156Z" fill="#677489"/>
</svg>
