<svg width="17" height="16" viewBox="0 0 17 16" fill="none" xmlns="http://www.w3.org/2000/svg">
    <path fill-rule="evenodd" clip-rule="evenodd" d="M4.01406 7.20156V5.60156C4.01406 4.5407 4.43549 3.52328 5.18564 2.77314C5.93578 2.02299 6.9532 1.60156 8.01406 1.60156C9.07493 1.60156 10.0923 2.02299 10.8425 2.77314C11.5926 3.52328 12.0141 4.5407 12.0141 5.60156V7.20156C12.4384 7.20156 12.8454 7.37014 13.1454 7.67019C13.4455 7.97025 13.6141 8.37722 13.6141 8.80156V12.8016C13.6141 13.2259 13.4455 13.6329 13.1454 13.9329C12.8454 14.233 12.4384 14.4016 12.0141 14.4016H4.01406C3.58972 14.4016 3.18275 14.233 2.88269 13.9329C2.58263 13.6329 2.41406 13.2259 2.41406 12.8016V8.80156C2.41406 8.37722 2.58263 7.97025 2.88269 7.67019C3.18275 7.37014 3.58972 7.20156 4.01406 7.20156ZM10.4141 5.60156V7.20156H5.61406V5.60156C5.61406 4.96504 5.86692 4.35459 6.31701 3.90451C6.76709 3.45442 7.37754 3.20156 8.01406 3.20156C8.65058 3.20156 9.26103 3.45442 9.71112 3.90451C10.1612 4.35459 10.4141 4.96504 10.4141 5.60156Z" fill="white"/>
</svg>
