<svg width="16" height="16" viewBox="0 0 16 16" fill="none" xmlns="http://www.w3.org/2000/svg">
    <path d="M7.33594 4.66927H8.66927V6.0026H7.33594V4.66927ZM7.33594 7.33594H8.66927V11.3359H7.33594V7.33594ZM8.0026 1.33594C4.3226 1.33594 1.33594 4.3226 1.33594 8.0026C1.33594 11.6826 4.3226 14.6693 8.0026 14.6693C11.6826 14.6693 14.6693 11.6826 14.6693 8.0026C14.6693 4.3226 11.6826 1.33594 8.0026 1.33594ZM8.0026 13.3359C5.0626 13.3359 2.66927 10.9426 2.66927 8.0026C2.66927 5.0626 5.0626 2.66927 8.0026 2.66927C10.9426 2.66927 13.3359 5.0626 13.3359 8.0026C13.3359 10.9426 10.9426 13.3359 8.0026 13.3359Z" fill="#677489"/>
</svg>
