<svg width="112" height="112" viewBox="0 0 112 112" fill="none" xmlns="http://www.w3.org/2000/svg">
    <g filter="url(#filter0_d_127_46649)">
        <circle cx="56" cy="52" r="52" fill="#F1F4F8"/>
        <circle cx="56" cy="52" r="51.5" stroke="#223C78"/>
    </g>
    <path d="M79.1057 56.5656C78.1225 55.674 76.5892 55.7323 75.5559 56.5656L67.8564 62.724C66.9147 63.4823 65.7398 63.8906 64.5232 63.8906H54.6654C53.9321 63.8906 53.3322 63.2906 53.3322 62.5573C53.3322 61.824 53.9321 61.224 54.6654 61.224H61.1901C62.515 61.224 63.7482 60.3156 63.9649 59.0073C64.2399 57.3406 62.9566 55.8906 61.3317 55.8906H47.9991C45.7492 55.8906 43.5744 56.6656 41.8245 58.0823L37.9497 61.224H33.3333C32.6 61.224 32 61.824 32 62.5573V70.5573C32 71.2906 32.6 71.8906 33.3333 71.8906H63.065C64.2732 71.8906 65.4482 71.4823 66.3981 70.724L78.9974 60.6406C80.264 59.6323 80.364 57.699 79.1057 56.5656Z" fill="#223C78"/>
    <path d="M62.2222 30.2891C61.6635 30.2891 61.2064 30.7462 61.2064 31.3049V32.3208H53.0794V31.3049C53.0794 30.7462 52.6222 30.2891 52.0635 30.2891C51.5048 30.2891 51.0476 30.7462 51.0476 31.3049V32.3208H50.0317C48.9041 32.3208 48.0102 33.2351 48.0102 34.3526L48 48.5748C48 49.1136 48.2141 49.6304 48.5951 50.0114C48.9761 50.3925 49.4929 50.6065 50.0317 50.6065H64.254C65.3714 50.6065 66.2857 49.6922 66.2857 48.5748V34.3526C66.2857 33.2351 65.3714 32.3208 64.254 32.3208H63.2381V31.3049C63.2381 30.7462 62.781 30.2891 62.2222 30.2891ZM64.254 48.5748H50.0317V38.416H64.254V48.5748ZM56.127 41.4637C56.127 40.9049 56.5841 40.4478 57.1429 40.4478C57.7016 40.4478 58.1587 40.9049 58.1587 41.4637C58.1587 42.0224 57.7016 42.4795 57.1429 42.4795C56.5841 42.4795 56.127 42.0224 56.127 41.4637ZM52.0635 41.4637C52.0635 40.9049 52.5206 40.4478 53.0794 40.4478C53.6381 40.4478 54.0952 40.9049 54.0952 41.4637C54.0952 42.0224 53.6381 42.4795 53.0794 42.4795C52.5206 42.4795 52.0635 42.0224 52.0635 41.4637ZM60.1905 41.4637C60.1905 40.9049 60.6476 40.4478 61.2064 40.4478C61.7651 40.4478 62.2222 40.9049 62.2222 41.4637C62.2222 42.0224 61.7651 42.4795 61.2064 42.4795C60.6476 42.4795 60.1905 42.0224 60.1905 41.4637ZM56.127 45.5272C56.127 44.9684 56.5841 44.5113 57.1429 44.5113C57.7016 44.5113 58.1587 44.9684 58.1587 45.5272C58.1587 46.0859 57.7016 46.543 57.1429 46.543C56.5841 46.543 56.127 46.0859 56.127 45.5272ZM52.0635 45.5272C52.0635 44.9684 52.5206 44.5113 53.0794 44.5113C53.6381 44.5113 54.0952 44.9684 54.0952 45.5272C54.0952 46.0859 53.6381 46.543 53.0794 46.543C52.5206 46.543 52.0635 46.0859 52.0635 45.5272ZM60.1905 45.5272C60.1905 44.9684 60.6476 44.5113 61.2064 44.5113C61.7651 44.5113 62.2222 44.9684 62.2222 45.5272C62.2222 46.0859 61.7651 46.543 61.2064 46.543C60.6476 46.543 60.1905 46.0859 60.1905 45.5272Z" fill="#223C78"/>
    <defs>
        <filter id="filter0_d_127_46649" x="0" y="0" width="112" height="112" filterUnits="userSpaceOnUse" color-interpolation-filters="sRGB">
            <feFlood flood-opacity="0" result="BackgroundImageFix"/>
            <feColorMatrix in="SourceAlpha" type="matrix" values="0 0 0 0 0 0 0 0 0 0 0 0 0 0 0 0 0 0 127 0" result="hardAlpha"/>
            <feOffset dy="4"/>
            <feGaussianBlur stdDeviation="2"/>
            <feComposite in2="hardAlpha" operator="out"/>
            <feColorMatrix type="matrix" values="0 0 0 0 0 0 0 0 0 0 0 0 0 0 0 0 0 0 0.25 0"/>
            <feBlend mode="normal" in2="BackgroundImageFix" result="effect1_dropShadow_127_46649"/>
            <feBlend mode="normal" in="SourceGraphic" in2="effect1_dropShadow_127_46649" result="shape"/>
        </filter>
    </defs>
</svg>
