<svg width="64" height="64" viewBox="0 0 64 64" fill="none" xmlns="http://www.w3.org/2000/svg">
<path d="M49.7495 38.8875V47.275L46.337 43.7C46.337 43.7 51.8745 33.3875 43.612 25.2C35.3495 17.0125 45.1995 6.69995 45.1995 6.69995C45.1995 6.69995 62.062 10.6625 61.712 23.4C61.362 36.1375 49.7495 38.8875 49.7495 38.8875Z" fill="url(#paint0_linear)"/>
<path d="M14.1875 49.0625C43.475 45.025 6.675 20.0625 23.2 19.2625C34.9875 18.6875 44.6125 26.85 44.6125 36.1625C44.6125 45.4875 35.0125 53.0625 23.2 53.0625C22.475 53.0625 21.75 53.0375 21.0375 52.975L14.1875 59.825V49.0625Z" fill="url(#paint1_linear)"/>
<path d="M49.3256 48.2749C49.0631 48.2749 48.8131 48.1749 48.6131 47.9874L45.0756 44.4499C44.6881 44.0624 44.6881 43.4249 45.0756 43.0374C45.4631 42.6499 46.1006 42.6499 46.4881 43.0374L48.3131 44.8624V38.9874C48.3131 38.9249 48.3131 38.8624 48.3256 38.7874C48.3506 38.6374 48.4131 38.4999 48.4881 38.3874C48.5756 38.2749 48.6756 38.1624 48.8131 38.0874C48.8631 38.0499 48.9256 38.0249 48.9881 38.0124C55.5631 35.5874 60.7131 29.2624 60.7131 23.6124C60.7131 23.0624 61.1631 22.6124 61.7131 22.6124C62.2631 22.6124 62.7131 23.0624 62.7131 23.6124C62.7131 26.7749 61.3756 30.1874 58.9256 33.2124C56.6506 36.0249 53.6131 38.2999 50.3131 39.6374V47.2624C50.3131 47.6624 50.0756 48.0374 49.7006 48.1874C49.5881 48.2499 49.4506 48.2749 49.3256 48.2749ZM60.4381 18.8374C60.0631 18.8374 59.7006 18.6249 59.5256 18.2624C56.6131 11.9499 48.8881 7.7124 40.3131 7.7124C32.0631 7.7124 24.6631 11.5624 21.4631 17.5124C21.2006 17.9999 20.6006 18.1874 20.1131 17.9249C19.6256 17.6624 19.4381 17.0624 19.7006 16.5749C23.2381 9.9749 31.3256 5.7124 40.3131 5.7124C44.9631 5.7124 49.4131 6.8374 53.2006 8.9749C56.9506 11.0874 59.7631 13.9999 61.3381 17.4249C61.5756 17.9249 61.3506 18.5249 60.8506 18.7499C60.7131 18.7999 60.5756 18.8374 60.4381 18.8374ZM14.8881 60.5374L21.4131 54.0124C22.0131 54.0499 22.6006 54.0749 23.2006 54.0749C35.5631 54.0749 45.6131 46.0374 45.6131 36.1749C45.6131 26.2999 35.5631 18.2749 23.2006 18.2749C10.8381 18.2749 0.788086 26.3124 0.788086 36.1749C0.788086 39.2999 1.82559 42.3874 3.77559 45.0749C5.63809 47.6499 8.31309 49.8374 11.4881 51.3999C11.9881 51.6374 12.5881 51.4374 12.8256 50.9374C13.0631 50.4374 12.8631 49.8374 12.3631 49.5999C6.36309 46.6499 2.77559 41.6249 2.77559 36.1624C2.77559 27.3874 11.9381 20.2624 23.1881 20.2624C34.4381 20.2624 43.6006 27.3999 43.6006 36.1624C43.6006 44.9249 34.4381 52.0624 23.1881 52.0624C22.5006 52.0624 21.7881 52.0374 21.1006 51.9749C20.8131 51.9499 20.5256 52.0624 20.3131 52.2624L15.1756 57.3999V49.0499C15.1756 48.4999 14.7256 48.0499 14.1756 48.0499C13.6256 48.0499 13.1756 48.4999 13.1756 49.0499V59.8124C13.1756 60.2124 13.4131 60.5874 13.7881 60.7374C13.9131 60.7874 14.0381 60.8124 14.1756 60.8124C14.4381 60.8374 14.7006 60.7249 14.8881 60.5374Z" fill="#047A40"/>
<path d="M52.9744 17.8376C52.9744 17.2876 53.4244 16.8376 53.9744 16.8376H62.2119C62.7619 16.8376 63.2119 17.2876 63.2119 17.8376C63.2119 18.3876 62.7619 18.8376 62.2119 18.8376H53.9744C53.4244 18.8376 52.9744 18.3876 52.9744 17.8376ZM62.2119 22.4376H58.0994C57.5494 22.4376 57.0994 22.8876 57.0994 23.4376C57.0994 23.9876 57.5494 24.4376 58.0994 24.4376H62.2119C62.7619 24.4376 63.2119 23.9876 63.2119 23.4376C63.2119 22.8876 62.7619 22.4376 62.2119 22.4376ZM12.7119 9.66255C10.6619 9.66255 8.98691 11.3376 8.98691 13.3876C8.98691 13.9376 9.43691 14.3876 9.98691 14.3876C10.5369 14.3876 10.9869 13.9376 10.9869 13.3876C10.9869 12.4376 11.7619 11.6626 12.7119 11.6626C13.2619 11.6626 13.7119 11.2126 13.7119 10.6626C13.7119 10.1126 13.2619 9.66255 12.7119 9.66255ZM5.23691 9.66255C4.68691 9.66255 4.23691 10.1126 4.23691 10.6626C4.23691 11.2126 4.68691 11.6626 5.23691 11.6626C6.18691 11.6626 6.96191 12.4376 6.96191 13.3876C6.96191 13.9376 7.41191 14.3876 7.96191 14.3876C8.51191 14.3876 8.96191 13.9376 8.96191 13.3876C8.97441 11.3376 7.29941 9.66255 5.23691 9.66255ZM7.97441 4.92505C7.42441 4.92505 6.97441 5.37505 6.97441 5.92505C6.97441 6.87505 6.19941 7.65005 5.24941 7.65005C4.69941 7.65005 4.24941 8.10005 4.24941 8.65005C4.24941 9.20005 4.69941 9.65005 5.24941 9.65005C7.29941 9.65005 8.97441 7.97505 8.97441 5.92505C8.97441 5.37505 8.52441 4.92505 7.97441 4.92505ZM12.7119 7.65005C11.7619 7.65005 10.9869 6.87505 10.9869 5.92505C10.9869 5.37505 10.5369 4.92505 9.98691 4.92505C9.43691 4.92505 8.98691 5.37505 8.98691 5.92505C8.98691 7.97505 10.6619 9.65005 12.7119 9.65005C13.2619 9.65005 13.7119 9.20005 13.7119 8.65005C13.7119 8.10005 13.2619 7.65005 12.7119 7.65005ZM59.5869 54.8751H57.6994V52.9876C57.6994 52.4376 57.2494 51.9876 56.6994 51.9876C56.1494 51.9876 55.6994 52.4376 55.6994 52.9876V54.8751H53.8119C53.2619 54.8751 52.8119 55.3251 52.8119 55.8751C52.8119 56.4251 53.2619 56.8751 53.8119 56.8751H55.6994V58.7626C55.6994 59.3126 56.1494 59.7626 56.6994 59.7626C57.2494 59.7626 57.6994 59.3126 57.6994 58.7626V56.8751H59.5869C60.1369 56.8751 60.5869 56.4251 60.5869 55.8751C60.5869 55.3251 60.1369 54.8751 59.5869 54.8751ZM45.8369 55.8751C45.8369 56.5501 45.2869 57.1126 44.5994 57.1126C43.9119 57.1126 43.3619 56.5626 43.3619 55.8751C43.3619 55.1876 43.9119 54.6376 44.5994 54.6376C45.2869 54.6376 45.8369 55.2001 45.8369 55.8751ZM38.5494 55.8751C38.5494 56.5501 37.9994 57.1126 37.3119 57.1126C36.6244 57.1126 36.0744 56.5626 36.0744 55.8751C36.0744 55.1876 36.6244 54.6376 37.3119 54.6376C37.9994 54.6376 38.5494 55.2001 38.5494 55.8751ZM22.2244 5.31255H18.9369C18.3869 5.31255 17.9369 5.76255 17.9369 6.31255C17.9369 6.86255 18.3869 7.31255 18.9369 7.31255H22.2244C22.7744 7.31255 23.2244 6.86255 23.2244 6.31255C23.2244 5.76255 22.7744 5.31255 22.2244 5.31255ZM7.38691 59.1501H4.08691C3.53691 59.1501 3.08691 59.6001 3.08691 60.1501C3.08691 60.7001 3.53691 61.1501 4.08691 61.1501H7.37441C7.92441 61.1501 8.37441 60.7001 8.37441 60.1501C8.37441 59.6001 7.93691 59.1501 7.38691 59.1501Z" fill="#047A40"/>
<defs>
<linearGradient id="paint0_linear" x1="51.014" y1="6.69995" x2="51.014" y2="47.275" gradientUnits="userSpaceOnUse">
<stop stop-color="#1FC974"/>
<stop offset="1" stop-color="#1FC974" stop-opacity="0.25"/>
</linearGradient>
<linearGradient id="paint1_linear" x1="29.4" y1="19.2339" x2="29.4" y2="59.825" gradientUnits="userSpaceOnUse">
<stop stop-color="#1FC974"/>
<stop offset="1" stop-color="#1FC974" stop-opacity="0.25"/>
</linearGradient>
</defs>
</svg>
