<svg width="64" height="64" viewBox="0 0 64 64" fill="none" xmlns="http://www.w3.org/2000/svg">
<path d="M57.9749 33.7251C57.9499 46.0001 47.8624 55.9876 35.6 55.9001C33.5375 55.8876 31.55 55.5876 29.6625 55.0501C27.5375 54.4501 26.575 51.9376 27.8125 50.1126C31.7125 44.3751 46.8375 47.0376 46.8375 33.6126C46.8375 18.5626 35.4625 22.8376 32.4 16.9376C31.1125 14.4751 32.9375 11.5001 35.725 11.4876C35.7375 11.4876 35.75 11.4876 35.775 11.4876C48.05 11.4751 57.9999 21.4376 57.9749 33.7251Z" fill="url(#paint0_linear)"/>
<path d="M37.0748 50.2999H34.4623C33.9123 50.2999 33.4623 49.8498 33.4623 49.2999V46.1249C29.6248 45.1874 26.9248 42.2624 26.9248 38.8999C26.9248 38.3499 27.3748 37.8999 27.9248 37.8999H30.5373C31.0873 37.8999 31.5373 38.3499 31.5373 38.8999C31.5373 39.4499 31.0873 39.8999 30.5373 39.8999H29.0373C29.5623 42.0749 31.7373 43.8624 34.6123 44.3124C35.0998 44.3874 35.4498 44.8124 35.4498 45.2999V48.2874H37.0623C37.6123 48.2874 38.0623 48.7374 38.0623 49.2874C38.0623 49.8374 37.6248 50.2999 37.0748 50.2999ZM37.0748 46.3874C36.5623 46.3874 36.1248 45.9999 36.0748 45.4749C36.0248 44.9249 36.4373 44.4374 36.9873 44.3874C41.1373 44.0249 42.6123 41.2624 42.6123 39.0124C42.6123 36.8624 41.3623 35.1499 38.8998 33.9124C38.0373 33.4749 37.0123 33.0999 35.8498 32.7999C31.3748 31.6124 29.5498 30.1374 29.5498 27.7249C29.5498 25.5624 31.3873 23.9874 34.3498 23.6249C34.6373 23.5874 34.9248 23.6749 35.1373 23.8624C35.3498 24.0499 35.4748 24.3249 35.4748 24.6124V27.8624C35.6623 27.9374 35.8748 27.9999 36.0873 28.0624V24.6999C36.0873 24.1499 36.5373 23.6999 37.0873 23.6999C37.6373 23.6999 38.0873 24.1499 38.0873 24.6999V29.3999C38.0873 29.7124 37.9373 30.0124 37.6873 30.1999C37.4373 30.3874 37.1123 30.4499 36.8123 30.3624C36.7498 30.3499 36.6998 30.3249 36.6498 30.3124C36.6123 30.2999 36.5748 30.2874 36.5248 30.2749C35.5623 30.0124 34.7623 29.7499 34.0748 29.4624C33.6998 29.2999 33.4623 28.9374 33.4623 28.5374V25.8374C32.5623 26.1124 31.5373 26.6499 31.5373 27.7249C31.5373 28.3249 31.5373 29.5874 36.3498 30.8624C37.6373 31.1999 38.7873 31.6249 39.7748 32.1249C43.7623 34.1249 44.5873 36.9749 44.5873 39.0124C44.5873 42.3499 42.2873 45.9249 37.1498 46.3874C37.1373 46.3874 37.0998 46.3874 37.0748 46.3874ZM37.0748 43.7624C36.8248 43.7624 36.5998 43.6749 36.4123 43.5124C36.1998 43.3249 36.0748 43.0499 36.0748 42.7624V38.3874C35.8873 38.2999 35.6748 38.2249 35.4623 38.1499V42.6249C35.4623 43.1749 35.0123 43.6249 34.4623 43.6249C33.9123 43.6249 33.4623 43.1749 33.4623 42.6249V36.7999C33.4623 36.4874 33.6123 36.1999 33.8498 36.0124C34.0998 35.8249 34.4123 35.7624 34.7123 35.8374L35.0123 35.9124C35.9623 36.1624 36.8373 36.4874 37.5373 36.8624C37.8623 37.0374 38.0748 37.3749 38.0748 37.7499V41.5374C39.0998 41.1999 39.9998 40.4874 39.9998 39.0249C39.9998 38.4749 40.4498 38.0249 40.9998 38.0249C41.5498 38.0249 41.9998 38.4749 41.9998 39.0249C41.9998 41.6374 40.1998 43.4124 37.1998 43.7624C37.1498 43.7624 37.1123 43.7624 37.0748 43.7624ZM43.6123 29.4624H40.9998C40.4498 29.4624 39.9998 29.0124 39.9998 28.4624C39.9998 27.9124 40.4498 27.4624 40.9998 27.4624H42.4998C41.9873 25.2624 39.7998 23.4749 36.9373 23.0374C36.3873 22.9499 36.0123 22.4499 36.0998 21.8999C36.1873 21.3499 36.6873 20.9749 37.2373 21.0624C41.5123 21.7124 44.6123 24.8249 44.6123 28.4624C44.6123 29.0124 44.1623 29.4624 43.6123 29.4624ZM27.9248 28.7249C27.3748 28.7249 26.9248 28.2749 26.9248 27.7249C26.9248 24.3749 29.5123 21.8124 33.4623 21.1249V18.0624C33.4623 17.5124 33.9123 17.0624 34.4623 17.0624H37.0748C37.6248 17.0624 38.0748 17.5124 38.0748 18.0624C38.0748 18.6124 37.6248 19.0624 37.0748 19.0624H35.4623V21.9999C35.4623 22.5124 35.0748 22.9499 34.5623 22.9999C31.1498 23.3249 28.9373 25.1874 28.9373 27.7374C28.9248 28.2874 28.4873 28.7249 27.9248 28.7249ZM58.9748 33.6874C58.9748 20.8874 48.5623 10.4749 35.7623 10.4749C22.9623 10.4749 12.5498 20.8874 12.5498 33.6874C12.5498 34.2374 12.9998 34.6874 13.5498 34.6874C14.0998 34.6874 14.5498 34.2374 14.5498 33.6874C14.5498 21.9999 24.0623 12.4749 35.7623 12.4749C47.4623 12.4749 56.9748 21.9874 56.9748 33.6874C56.9748 45.3749 47.4623 54.8999 35.7623 54.8999C25.4748 54.8999 16.6998 47.5499 14.8873 37.4374C14.7873 36.8874 14.2748 36.5374 13.7248 36.6249C13.1873 36.7249 12.8248 37.2374 12.9123 37.7874C13.8623 43.0749 16.6498 47.9124 20.7873 51.4124C24.9623 54.9499 30.2873 56.8999 35.7498 56.8999C48.5623 56.8874 58.9748 46.4749 58.9748 33.6874Z" fill="#097B40"/>
<path d="M14.8631 10.9376C14.8631 10.2001 15.4631 9.58765 16.2131 9.58765C16.9631 9.58765 17.5631 10.1876 17.5631 10.9376C17.5631 11.6876 16.9631 12.2876 16.2131 12.2876C15.4631 12.2876 14.8631 11.6876 14.8631 10.9376ZM12.7256 45.3876C12.7256 44.8377 12.2756 44.3876 11.7256 44.3876H2.72559C2.17559 44.3876 1.72559 44.8377 1.72559 45.3876C1.72559 45.9376 2.17559 46.3876 2.72559 46.3876H11.7256C12.2756 46.3876 12.7256 45.9501 12.7256 45.3876ZM25.8256 59.2377H8.17559C7.62559 59.2377 7.17559 59.6876 7.17559 60.2377C7.17559 60.7877 7.62559 61.2377 8.17559 61.2377H25.8256C26.3756 61.2377 26.8256 60.7877 26.8256 60.2377C26.8256 59.6876 26.3756 59.2377 25.8256 59.2377ZM11.0131 34.6877H22.9756C23.5256 34.6877 23.9756 34.2376 23.9756 33.6877C23.9756 33.1376 23.5256 32.6877 22.9756 32.6877H11.0131C10.4631 32.6877 10.0131 33.1376 10.0131 33.6877C10.0131 34.2376 10.4631 34.6877 11.0131 34.6877ZM5.45059 38.4627H18.4631C19.0131 38.4627 19.4631 38.0127 19.4631 37.4627C19.4631 36.9127 19.0131 36.4627 18.4631 36.4627H5.45059C4.90059 36.4627 4.45059 36.9127 4.45059 37.4627C4.45059 38.0127 4.90059 38.4627 5.45059 38.4627ZM60.9506 9.93765H58.9756V7.96265C58.9756 7.41265 58.5256 6.96265 57.9756 6.96265C57.4256 6.96265 56.9756 7.41265 56.9756 7.96265V9.93765H55.0006C54.4506 9.93765 54.0006 10.3876 54.0006 10.9376C54.0006 11.4876 54.4506 11.9376 55.0006 11.9376H56.9756V13.9126C56.9756 14.4626 57.4256 14.9126 57.9756 14.9126C58.5256 14.9126 58.9756 14.4626 58.9756 13.9126V11.9376H60.9506C61.5006 11.9376 61.9506 11.4876 61.9506 10.9376C61.9506 10.3876 61.5006 9.93765 60.9506 9.93765Z" fill="#097B40"/>
<defs>
<linearGradient id="paint0_linear" x1="42.6198" y1="11.4875" x2="42.6198" y2="55.9006" gradientUnits="userSpaceOnUse">
<stop stop-color="#1FC974"/>
<stop offset="1" stop-color="#1FC974" stop-opacity="0.25"/>
</linearGradient>
</defs>
</svg>
