<svg width="208" height="186" viewBox="0 0 208 186" fill="none"
  xmlns="http://www.w3.org/2000/svg">
  <g clip-path="url(#clip0)">
    <path d="M132.576 182.463H75.4229L82.8716 152.932L86.8525 137.159H121.147L125.128 152.932L132.576 182.463Z" fill="#A9B8C1"/>
    <path d="M125.128 152.932H82.8716L86.8524 137.159H121.147L125.128 152.932Z" fill="#6E8796"/>
    <path d="M132.579 184.979H75.4215C74.6444 184.979 73.9113 184.621 73.4341 184.008C72.9569 183.395 72.7885 182.597 72.979 181.843L81.9748 146.195C82.3154 144.845 83.685 144.029 85.034 144.368C86.3829 144.709 87.2008 146.078 86.8601 147.427L78.656 179.94H129.345L121.068 147.137C120.727 145.788 121.545 144.418 122.894 144.078C124.245 143.738 125.613 144.555 125.953 145.905L135.021 181.843C135.212 182.597 135.044 183.395 134.566 184.008C134.089 184.621 133.356 184.979 132.579 184.979Z" fill="#444647"/>
    <path d="M204.781 10.1482V138.266C204.781 142.439 201.395 145.825 197.223 145.825H10.7773C6.605 145.825 3.21875 142.439 3.21875 138.266V10.1482C3.21875 5.97585 6.605 2.5896 10.7773 2.5896H197.223C201.395 2.5896 204.781 5.97585 204.781 10.1482Z" fill="white"/>
    <path d="M204.781 26.8647V10.1497C204.781 5.9753 201.397 2.59106 197.223 2.59106H10.7773C6.60298 2.59106 3.21875 5.9753 3.21875 10.1497V26.8647H204.781Z" fill="#E3E8EB"/>
    <path d="M205.082 29.1018H3.51965C2.12786 29.1018 1.00012 27.9736 1.00012 26.5823C1.00012 25.191 2.12786 24.0627 3.51965 24.0627H205.082C206.474 24.0627 207.602 25.191 207.602 26.5823C207.602 27.9736 206.474 29.1018 205.082 29.1018Z" fill="#444647"/>
    <path d="M3.21814 120.434V138.267C3.21814 142.441 6.60237 145.825 10.7767 145.825H197.222C201.396 145.825 204.781 142.441 204.781 138.267V120.434H3.21814Z" fill="#C6D1D7"/>
    <path d="M204.503 122.953H19.3225C17.9307 122.953 16.803 121.825 16.803 120.434C16.803 119.042 17.9307 117.914 19.3225 117.914H204.502C205.894 117.914 207.022 119.042 207.022 120.434C207.022 121.825 205.894 122.953 204.503 122.953Z" fill="#444647"/>
    <path d="M142.264 184.979H65.7365C64.3447 184.979 63.2169 183.851 63.2169 182.459C63.2169 181.068 64.3447 179.94 65.7365 179.94H142.263C143.655 179.94 144.783 181.068 144.783 182.459C144.783 183.851 143.655 184.979 142.264 184.979Z" fill="#444647"/>
    <path d="M22.4086 17.2845C21.0168 17.2845 19.889 16.1563 19.889 14.765V14.6914C19.889 13.3001 21.0168 12.1719 22.4086 12.1719C23.8004 12.1719 24.9281 13.3001 24.9281 14.6914V14.765C24.9281 16.1563 23.8004 17.2845 22.4086 17.2845Z" fill="#444647"/>
    <path d="M32.1462 17.2845C30.7545 17.2845 29.6267 16.1563 29.6267 14.765V14.6914C29.6267 13.3001 30.7545 12.1719 32.1462 12.1719C33.538 12.1719 34.6658 13.3001 34.6658 14.6914V14.765C34.6658 16.1563 33.538 17.2845 32.1462 17.2845Z" fill="#A9B8C1"/>
    <path d="M41.884 17.2845C40.4922 17.2845 39.3645 16.1563 39.3645 14.765V14.6914C39.3645 13.3001 40.4922 12.1719 41.884 12.1719C43.2758 12.1719 44.4036 13.3001 44.4036 14.6914V14.765C44.4036 16.1563 43.2758 17.2845 41.884 17.2845Z" fill="#6E8796"/>
    <path d="M197.223 148.344H10.7773C5.22027 148.344 0.699219 143.823 0.699219 138.266V10.1497C0.699219 4.59258 5.22027 0.0715332 10.7773 0.0715332H197.223C202.78 0.0715332 207.301 4.59258 207.301 10.1497V26.8647C207.301 28.256 206.173 29.3843 204.781 29.3843C203.389 29.3843 202.262 28.256 202.262 26.8647V10.1497C202.262 7.37112 200.001 5.1106 197.223 5.1106H10.7773C7.9988 5.1106 5.73828 7.37112 5.73828 10.1497V138.267C5.73828 141.045 7.9988 143.306 10.7773 143.306H197.223C200.001 143.306 202.262 141.045 202.262 138.267V40.7428C202.262 39.3515 203.389 38.2233 204.781 38.2233C206.173 38.2233 207.301 39.3515 207.301 40.7428V138.267C207.301 143.823 202.78 148.344 197.223 148.344Z" fill="#444647"/>
    <path fill-rule="evenodd" clip-rule="evenodd" d="M98.7544 41.9019C101.818 40.0299 105.818 40.9956 107.69 44.0588L139.805 96.6111C140.429 97.6316 140.759 98.8044 140.759 100C140.759 103.59 137.849 106.5 134.259 106.5H72.9481C71.8434 106.5 70.757 106.219 69.7914 105.683C66.6533 103.939 65.5227 99.9819 67.2661 96.8438L96.4618 44.2915C97.0068 43.3104 97.7967 42.4871 98.7544 41.9019ZM102.57 47.1875C102.426 46.9518 102.119 46.8776 101.883 47.0216C101.809 47.0666 101.749 47.1299 101.707 47.2054L72.511 99.7577C72.3769 99.9991 72.4639 100.303 72.7053 100.438C72.7795 100.479 72.8631 100.5 72.9481 100.5H134.259C134.535 100.5 134.759 100.277 134.759 100C134.759 99.9085 134.734 99.8183 134.686 99.7398L102.57 47.1875ZM105.5 65.0001C105.5 63.0671 103.933 61.5001 102 61.5001C100.067 61.5001 98.5001 63.0671 98.5001 65.0001V82.5001C98.5001 84.4331 100.067 86.0001 102 86.0001C103.933 86.0001 105.5 84.4331 105.5 82.5001V65.0001ZM102 89.5003C103.933 89.5003 105.5 91.0673 105.5 93.0003C105.5 94.9333 103.933 96.5003 102 96.5003C100.067 96.5003 98.5001 94.9333 98.5001 93.0003C98.5001 91.0673 100.067 89.5003 102 89.5003Z" fill="#FA9802"/>
  </g>
  <defs>
    <clipPath id="clip0">
      <rect width="208" height="185" fill="white" transform="translate(0 0.0627441)"/>
    </clipPath>
  </defs>
</svg>
