<svg width="208" height="186" viewBox="0 0 208 186" fill="none"
  xmlns="http://www.w3.org/2000/svg">
  <g clip-path="url(#clip0)">
    <path d="M132.576 182.9H75.4229L82.8716 153.369L86.8525 137.597H121.147L125.128 153.369L132.576 182.9Z" fill="#A9B8C1"/>
    <path d="M125.128 153.369H82.8716L86.8524 137.597H121.147L125.128 153.369Z" fill="#6E8796"/>
    <path d="M132.578 185.416H75.4214C74.6444 185.416 73.9112 185.058 73.434 184.445C72.9568 183.832 72.7885 183.034 72.979 182.28L81.9747 146.632C82.3153 145.283 83.685 144.466 85.0339 144.805C86.3829 145.146 87.2007 146.516 86.8601 147.865L78.656 180.377H129.345L121.068 147.574C120.727 146.225 121.545 144.855 122.894 144.515C124.245 144.176 125.613 144.992 125.953 146.342L135.021 182.28C135.212 183.034 135.044 183.832 134.566 184.445C134.089 185.058 133.355 185.416 132.578 185.416Z" fill="#444647"/>
    <path d="M204.781 10.5854V138.704C204.781 142.876 201.395 146.262 197.223 146.262H10.7773C6.605 146.262 3.21875 142.876 3.21875 138.704V10.5854C3.21875 6.41311 6.605 3.02686 10.7773 3.02686H197.223C201.395 3.02686 204.781 6.41311 204.781 10.5854Z" fill="white"/>
    <path d="M204.781 27.302V10.5869C204.781 6.41255 201.397 3.02832 197.223 3.02832H10.7773C6.60298 3.02832 3.21875 6.41255 3.21875 10.5869V27.302H204.781Z" fill="#E3E8EB"/>
    <path d="M205.082 29.5391H3.51965C2.12786 29.5391 1.00012 28.4108 1.00012 27.0195C1.00012 25.6282 2.12786 24.5 3.51965 24.5H205.082C206.474 24.5 207.602 25.6282 207.602 27.0195C207.602 28.4108 206.474 29.5391 205.082 29.5391Z" fill="#444647"/>
    <path d="M3.2182 120.871V138.704C3.2182 142.878 6.60243 146.263 10.7768 146.263H197.222C201.396 146.263 204.781 142.878 204.781 138.704V120.871H3.2182Z" fill="#C6D1D7"/>
    <path d="M204.503 123.39H19.3225C17.9307 123.39 16.803 122.262 16.803 120.871C16.803 119.48 17.9307 118.351 19.3225 118.351H204.502C205.894 118.351 207.022 119.48 207.022 120.871C207.022 122.262 205.894 123.39 204.503 123.39Z" fill="#444647"/>
    <path d="M142.264 185.416H65.7365C64.3447 185.416 63.2169 184.288 63.2169 182.897C63.2169 181.505 64.3447 180.377 65.7365 180.377H142.263C143.655 180.377 144.783 181.505 144.783 182.897C144.783 184.288 143.655 185.416 142.264 185.416Z" fill="#444647"/>
    <path d="M22.4085 17.7218C21.0167 17.7218 19.889 16.5935 19.889 15.2022V15.1287C19.889 13.7374 21.0167 12.6091 22.4085 12.6091C23.8003 12.6091 24.9281 13.7374 24.9281 15.1287V15.2022C24.9281 16.5935 23.8003 17.7218 22.4085 17.7218Z" fill="#444647"/>
    <path d="M32.1463 17.7218C30.7545 17.7218 29.6267 16.5935 29.6267 15.2022V15.1287C29.6267 13.7374 30.7545 12.6091 32.1463 12.6091C33.5381 12.6091 34.6658 13.7374 34.6658 15.1287V15.2022C34.6658 16.5935 33.5381 17.7218 32.1463 17.7218Z" fill="#A9B8C1"/>
    <path d="M41.884 17.7218C40.4922 17.7218 39.3645 16.5935 39.3645 15.2022V15.1287C39.3645 13.7374 40.4922 12.6091 41.884 12.6091C43.2758 12.6091 44.4036 13.7374 44.4036 15.1287V15.2022C44.4036 16.5935 43.2758 17.7218 41.884 17.7218Z" fill="#6E8796"/>
    <path d="M197.223 148.782H10.7773C5.22027 148.782 0.699219 144.261 0.699219 138.704V10.5869C0.699219 5.02984 5.22027 0.508789 10.7773 0.508789H197.223C202.78 0.508789 207.301 5.02984 207.301 10.5869V27.302C207.301 28.6933 206.173 29.8215 204.781 29.8215C203.389 29.8215 202.262 28.6933 202.262 27.302V10.5869C202.262 7.80837 200.001 5.54785 197.223 5.54785H10.7773C7.9988 5.54785 5.73828 7.80837 5.73828 10.5869V138.704C5.73828 141.483 7.9988 143.743 10.7773 143.743H197.223C200.001 143.743 202.262 141.483 202.262 138.704V41.1801C202.262 39.7888 203.389 38.6605 204.781 38.6605C206.173 38.6605 207.301 39.7888 207.301 41.1801V138.704C207.301 144.261 202.78 148.782 197.223 148.782Z" fill="#444647"/>
    <circle cx="107" cy="74.5" r="30" fill="#5CB97F" stroke="#444647" stroke-width="4"/>
    <path d="M125.862 65.4363L125.873 65.4246L125.882 65.4123C126.635 64.4442 126.567 63.0453 125.678 62.1558C124.714 61.1925 123.153 61.1925 122.189 62.1558C122.189 62.1558 122.189 62.1558 122.189 62.1558L102.3 82.0435L94.2109 73.9558L94.2 73.9448L94.1884 73.9346L94.0031 73.771L93.9914 73.7606L93.979 73.751C93.011 72.9983 91.612 73.0664 90.7226 73.9558C89.7593 74.9191 89.7593 76.4809 90.7226 77.4442L100.556 87.2775L100.567 87.2885L100.578 87.2988L100.764 87.4624L100.775 87.4727L100.788 87.4823C101.756 88.235 103.155 88.167 104.044 87.2775L125.678 65.6442L125.689 65.6332L125.699 65.6216L125.862 65.4363Z" fill="white" stroke="white"/>
  </g>
  <defs>
    <clipPath id="clip0">
      <rect width="208" height="185" fill="white" transform="translate(0 0.5)"/>
    </clipPath>
  </defs>
</svg>
