<svg width="168" height="168" viewBox="0 0 168 168" fill="none" xmlns="http://www.w3.org/2000/svg">
<circle cx="135" cy="26" r="10" fill="#FFEEB9"/>
<circle cx="141" cy="122" r="5" fill="#AAD2FE"/>
<circle cx="27" cy="35" r="7" fill="#AEDFCF"/>
<circle cx="11" cy="72" r="3" fill="#F3BCC4"/>
<path opacity="0.1" d="M72 30.9282C79.4256 26.641 88.5744 26.641 96 30.9282L123.962 47.0718C131.387 51.359 135.962 59.282 135.962 67.8564V100.144C135.962 108.718 131.387 116.641 123.962 120.928L96 137.072C88.5744 141.359 79.4256 141.359 72 137.072L44.0385 120.928C36.6128 116.641 32.0385 108.718 32.0385 100.144V67.8564C32.0385 59.282 36.6128 51.359 44.0385 47.0718L72 30.9282Z" fill="#0177FB"/>
<path d="M84.0013 87.3333C83.5593 87.3333 83.1354 87.5089 82.8228 87.8215C82.5102 88.1341 82.3346 88.558 82.3346 89V92.3333C82.3346 92.7754 82.5102 93.1993 82.8228 93.5118C83.1354 93.8244 83.5593 94 84.0013 94C84.4433 94 84.8673 93.8244 85.1798 93.5118C85.4924 93.1993 85.668 92.7754 85.668 92.3333V89C85.668 88.558 85.4924 88.1341 85.1798 87.8215C84.8673 87.5089 84.4433 87.3333 84.0013 87.3333ZM84.6346 82.4667C84.3329 82.3268 83.9963 82.2803 83.668 82.3333L83.368 82.4333L83.068 82.5833L82.818 82.7833C82.6595 82.943 82.5349 83.1331 82.4518 83.3422C82.3688 83.5513 82.3289 83.7751 82.3346 84C82.3334 84.2193 82.3754 84.4368 82.4584 84.6398C82.5413 84.8429 82.6635 85.0276 82.818 85.1833C82.9765 85.3351 83.1634 85.454 83.368 85.5333C83.5658 85.6266 83.7827 85.6723 84.0013 85.6667C84.2206 85.6679 84.4381 85.6259 84.6411 85.543C84.8442 85.46 85.0289 85.3378 85.1846 85.1833C85.3391 85.0276 85.4613 84.8429 85.5443 84.6398C85.6272 84.4368 85.6692 84.2193 85.668 84C85.6692 83.7807 85.6272 83.5632 85.5443 83.3602C85.4613 83.1571 85.3391 82.9724 85.1846 82.8167C85.0226 82.6695 84.8366 82.5511 84.6346 82.4667ZM97.3346 78.9C97.3173 78.7469 97.2838 78.5961 97.2346 78.45V78.3C97.1545 78.1286 97.0476 77.9711 96.918 77.8333L86.918 67.8333C86.7802 67.7037 86.6227 67.5968 86.4513 67.5167H86.2846C86.1226 67.43 85.9484 67.3682 85.768 67.3333H75.668C74.3419 67.3333 73.0701 67.8601 72.1324 68.7978C71.1948 69.7355 70.668 71.0073 70.668 72.3333V95.6667C70.668 96.9928 71.1948 98.2645 72.1324 99.2022C73.0701 100.14 74.3419 100.667 75.668 100.667H92.3346C93.6607 100.667 94.9325 100.14 95.8702 99.2022C96.8079 98.2645 97.3346 96.9928 97.3346 95.6667V79C97.3346 79 97.3346 79 97.3346 78.9ZM87.3346 73.0167L91.6513 77.3333H89.0013C88.5593 77.3333 88.1354 77.1577 87.8228 76.8452C87.5102 76.5326 87.3346 76.1087 87.3346 75.6667V73.0167ZM94.0013 95.6667C94.0013 96.1087 93.8257 96.5326 93.5131 96.8452C93.2006 97.1577 92.7767 97.3333 92.3346 97.3333H75.668C75.2259 97.3333 74.802 97.1577 74.4895 96.8452C74.1769 96.5326 74.0013 96.1087 74.0013 95.6667V72.3333C74.0013 71.8913 74.1769 71.4674 74.4895 71.1548C74.802 70.8423 75.2259 70.6667 75.668 70.6667H84.0013V75.6667C84.0013 76.9928 84.5281 78.2645 85.4658 79.2022C86.4034 80.1399 87.6752 80.6667 89.0013 80.6667H94.0013V95.6667Z" fill="#0177FB"/>
</svg>
