<svg width="122" height="122" viewBox="0 0 122 122" fill="none" xmlns="http://www.w3.org/2000/svg">
    <circle cx="61" cy="61" r="60.5" fill="#FAFBFB" stroke="#F1F4F8"/>
    <path d="M35.584 81.3359H86.4173" stroke="#97A3B6" stroke-width="2" stroke-linecap="round" stroke-linejoin="round"/>
    <path d="M56.3438 52.3566L57.0121 51.6127L56.3438 52.3566ZM67.7813 62.632L67.113 63.3759L67.7813 62.632ZM68.6243 81.3306V82.3306C69.1766 82.3306 69.6243 81.8829 69.6243 81.3306H68.6243ZM41.5091 62.632L42.1774 63.3759H42.1774L41.5091 62.632ZM52.9466 52.3566L53.6149 53.1005V53.1005L52.9466 52.3566ZM68.3066 80.3307C67.7544 80.3307 67.3066 80.7784 67.3066 81.3307C67.3066 81.883 67.7544 82.3307 68.3066 82.3307V80.3307ZM47.291 56.5392C47.291 57.0914 47.7387 57.5392 48.291 57.5392C48.8433 57.5392 49.291 57.0914 49.291 56.5392H47.291ZM55.6755 53.1005L67.113 63.3759L68.4496 61.8881L57.0121 51.6127L55.6755 53.1005ZM67.6243 64.5227V81.3306H69.6243V64.5227H67.6243ZM41.666 78.7889V64.5227H39.666V78.7889H41.666ZM42.1774 63.3759L53.6149 53.1005L52.2783 51.6127L40.8408 61.8881L42.1774 63.3759ZM68.6243 80.3306H43.2077V82.3306H68.6243V80.3306ZM41.666 64.5227C41.666 64.0852 41.8519 63.6683 42.1774 63.3759L40.8408 61.8881C40.0931 62.5599 39.666 63.5176 39.666 64.5227H41.666ZM39.666 78.7889C39.666 80.7449 41.2517 82.3306 43.2077 82.3306V80.3306C42.3562 80.3306 41.666 79.6404 41.666 78.7889H39.666ZM67.113 63.3759C67.4384 63.6683 67.6243 64.0852 67.6243 64.5227H69.6243C69.6243 63.5176 69.1973 62.5599 68.4496 61.8881L67.113 63.3759ZM57.0121 51.6127C55.6659 50.4033 53.6245 50.4033 52.2783 51.6127L53.6149 53.1005C54.2009 52.5741 55.0895 52.5741 55.6755 53.1005L57.0121 51.6127ZM78.791 39.6641H50.8327V41.6641H78.791V39.6641ZM68.3066 82.3307H78.791V80.3307H68.3066V82.3307ZM82.3327 78.7891V43.2057H80.3327V78.7891H82.3327ZM47.291 43.2057V56.5392H49.291V43.2057H47.291ZM78.791 82.3307C80.747 82.3307 82.3327 80.7451 82.3327 78.7891H80.3327C80.3327 79.6405 79.6425 80.3307 78.791 80.3307V82.3307ZM50.8327 39.6641C48.8767 39.6641 47.291 41.2497 47.291 43.2057H49.291C49.291 42.3543 49.9812 41.6641 50.8327 41.6641V39.6641ZM78.791 41.6641C79.6425 41.6641 80.3327 42.3543 80.3327 43.2057H82.3327C82.3327 41.2497 80.747 39.6641 78.791 39.6641V41.6641Z" fill="#97A3B6"/>
</svg>
