<svg width="16" height="16" viewBox="0 0 16 16" fill="none" xmlns="http://www.w3.org/2000/svg">
<path d="M13.0565 9C13.058 9.20506 12.9956 9.4055 12.878 9.5735C12.7604 9.7415 12.5934 9.86872 12.4003 9.9375L9.13776 11.1375L7.93776 14.4C7.86672 14.5914 7.73882 14.7564 7.57123 14.873C7.40364 14.9895 7.20439 15.052 7.00026 15.052C6.79612 15.052 6.59688 14.9895 6.42929 14.873C6.2617 14.7564 6.13379 14.5914 6.06276 14.4L4.86276 11.1375L1.60026 9.9375C1.40888 9.86646 1.24383 9.73856 1.12727 9.57097C1.01072 9.40338 0.948242 9.20414 0.948242 9C0.948242 8.79586 1.01072 8.59662 1.12727 8.42903C1.24383 8.26144 1.40888 8.13354 1.60026 8.0625L4.86276 6.8625L6.06276 3.6C6.13379 3.40862 6.2617 3.24357 6.42929 3.12701C6.59688 3.01046 6.79612 2.94799 7.00026 2.94799C7.20439 2.94799 7.40364 3.01046 7.57123 3.12701C7.73882 3.24357 7.86672 3.40862 7.93776 3.6L9.13776 6.8625L12.4003 8.0625C12.5934 8.13128 12.7604 8.2585 12.878 8.4265C12.9956 8.5945 13.058 8.79494 13.0565 9ZM9.50026 3H10.5003V4C10.5003 4.13261 10.5529 4.25979 10.6467 4.35355C10.7405 4.44732 10.8676 4.5 11.0003 4.5C11.1329 4.5 11.26 4.44732 11.3538 4.35355C11.4476 4.25979 11.5003 4.13261 11.5003 4V3H12.5003C12.6329 3 12.76 2.94732 12.8538 2.85355C12.9476 2.75979 13.0003 2.63261 13.0003 2.5C13.0003 2.36739 12.9476 2.24021 12.8538 2.14645C12.76 2.05268 12.6329 2 12.5003 2H11.5003V1C11.5003 0.867392 11.4476 0.740215 11.3538 0.646447C11.26 0.552678 11.1329 0.5 11.0003 0.5C10.8676 0.5 10.7405 0.552678 10.6467 0.646447C10.5529 0.740215 10.5003 0.867392 10.5003 1V2H9.50026C9.36765 2 9.24047 2.05268 9.1467 2.14645C9.05293 2.24021 9.00026 2.36739 9.00026 2.5C9.00026 2.63261 9.05293 2.75979 9.1467 2.85355C9.24047 2.94732 9.36765 3 9.50026 3ZM15.0003 5H14.5003V4.5C14.5003 4.36739 14.4476 4.24021 14.3538 4.14645C14.26 4.05268 14.1329 4 14.0003 4C13.8676 4 13.7405 4.05268 13.6467 4.14645C13.5529 4.24021 13.5003 4.36739 13.5003 4.5V5H13.0003C12.8676 5 12.7405 5.05268 12.6467 5.14645C12.5529 5.24021 12.5003 5.36739 12.5003 5.5C12.5003 5.63261 12.5529 5.75979 12.6467 5.85355C12.7405 5.94732 12.8676 6 13.0003 6H13.5003V6.5C13.5003 6.63261 13.5529 6.75979 13.6467 6.85355C13.7405 6.94732 13.8676 7 14.0003 7C14.1329 7 14.26 6.94732 14.3538 6.85355C14.4476 6.75979 14.5003 6.63261 14.5003 6.5V6H15.0003C15.1329 6 15.26 5.94732 15.3538 5.85355C15.4476 5.75979 15.5003 5.63261 15.5003 5.5C15.5003 5.36739 15.4476 5.24021 15.3538 5.14645C15.26 5.05268 15.1329 5 15.0003 5Z" fill="#5CB97F"/>
</svg>
