<svg width="176" height="162" viewBox="0 0 176 162" fill="none" xmlns="http://www.w3.org/2000/svg">
<circle cx="135" cy="26.0703" r="10" fill="#FFEEB9"/>
<circle cx="141" cy="122.07" r="5" fill="#AAD2FE"/>
<circle cx="27" cy="35.0703" r="7" fill="#AEDFCF"/>
<circle cx="11" cy="72.0703" r="3" fill="#F3BCC4"/>
<path opacity="0.1" d="M72 30.9985C79.4256 26.7113 88.5744 26.7113 96 30.9985L123.962 47.1421C131.387 51.4293 135.962 59.3523 135.962 67.9267V100.214C135.962 108.788 131.387 116.711 123.962 120.998L96 137.142C88.5744 141.429 79.4256 141.429 72 137.142L44.0385 120.998C36.6128 116.711 32.0385 108.788 32.0385 100.214V67.9267C32.0385 59.3523 36.6128 51.4293 44.0385 47.1421L72 30.9985Z" fill="#0177FB"/>
<path d="M93.2091 92.4697L91.8383 92.3864C92.0246 92.0576 92.1424 91.7052 92.1909 91.3513L92.1914 91.3476C92.3977 89.6544 90.9553 88.2584 89.1709 88.2584H83.5776C81.3293 86.796 78.5352 85.955 75.7405 85.955H73.9575V84.8567C73.9575 84.624 73.8707 84.4143 73.7065 84.2646C73.5445 84.1169 73.3265 84.0449 73.0914 84.0449H66.8075C66.5724 84.0449 66.3544 84.1169 66.1924 84.2646C66.0282 84.4143 65.9414 84.624 65.9414 84.8567V96.5421C65.9414 96.7748 66.0282 96.9844 66.1924 97.1341C66.3544 97.2819 66.5724 97.3539 66.8075 97.3539H73.0914C73.3265 97.3539 73.5445 97.2819 73.7065 97.1341C73.8707 96.9844 73.9575 96.7748 73.9575 96.5421V95.914L85.8401 99.1429L85.8401 99.1431L85.8501 99.1454C86.3582 99.2612 86.8082 99.3202 87.3227 99.3202C87.8906 99.3202 88.4744 99.2631 89.0027 99.0829L105.255 93.918C105.599 93.8344 105.87 93.5204 105.87 93.1713C105.87 90.9532 103.525 89.4657 101.36 90.1226C101.359 90.1228 101.359 90.1229 101.358 90.1231L93.2091 92.4697ZM73.8959 87.5786H75.6789C78.2169 87.5786 80.693 88.3504 82.6832 89.7253L82.7015 89.7379L82.7216 89.7471C82.727 89.7495 82.7324 89.752 82.7381 89.7546C82.849 89.8054 83.0162 89.882 83.195 89.882H89.1093C89.9162 89.882 90.4984 90.51 90.4021 91.1688L90.4009 91.1771L90.4002 91.1855C90.3513 91.8099 89.7557 92.2965 89.0027 92.2477C89.0026 92.2477 89.0024 92.2477 89.0023 92.2477L83.2737 91.8545L83.2652 91.8539H83.2566C82.8486 91.8539 82.425 92.1441 82.3347 92.5559L82.3289 92.5824V92.6095C82.3289 93.025 82.6759 93.3982 83.0885 93.4734L83.1024 93.476L83.1165 93.4769L93.0969 94.1511L93.1053 94.1516H93.1137H93.1141H93.1145H93.1148H93.1152H93.1156H93.1159H93.1163H93.1167H93.117H93.1174H93.1178H93.1182H93.1185H93.1189H93.1193H93.1197H93.1201H93.1205H93.1208H93.1212H93.1216H93.122H93.1224H93.1228H93.1232H93.1236H93.124H93.1244H93.1248H93.1252H93.1256H93.126H93.1264H93.1268H93.1272H93.1276H93.128H93.1284H93.1288H93.1292H93.1297H93.1301H93.1305H93.1309H93.1313H93.1317H93.1322H93.1326H93.133H93.1334H93.1339H93.1343H93.1347H93.1351H93.1356H93.136H93.1364H93.1369H93.1373H93.1377H93.1382H93.1386H93.139H93.1395H93.1399H93.1404H93.1408H93.1412H93.1417H93.1421H93.1426H93.143H93.1435H93.1439H93.1444H93.1448H93.1453H93.1457H93.1462H93.1467H93.1471H93.1476H93.148H93.1485H93.1489H93.1494H93.1499H93.1503H93.1508H93.1513H93.1517H93.1522H93.1527H93.1531H93.1536H93.1541H93.1545H93.155H93.1555H93.156H93.1564H93.1569H93.1574H93.1579H93.1583H93.1588H93.1593H93.1598H93.1603H93.1607H93.1612H93.1617H93.1622H93.1627H93.1632H93.1637H93.1641H93.1646H93.1651H93.1656H93.1661H93.1666H93.1671H93.1676H93.1681H93.1686H93.1691H93.1696H93.1701H93.1706H93.1711H93.1716H93.1721H93.1726H93.1731H93.1736H93.1741H93.1746H93.1751H93.1756H93.1761H93.1766H93.1771H93.1776H93.1781H93.1786H93.1791H93.1796H93.1801H93.1806H93.1812H93.1817H93.1822H93.1827H93.1832H93.1837H93.1842H93.1847H93.1853H93.1858H93.1863H93.1868H93.1873H93.1878H93.1884H93.1889H93.1894H93.1899H93.1904H93.191H93.1915H93.192H93.1925H93.193H93.1936H93.1941H93.1946H93.1951H93.1957H93.1962H93.1967H93.1972H93.1978H93.1983H93.1988H93.1994H93.1999H93.2004H93.2009H93.2015H93.202H93.2025H93.2031H93.2036H93.2041H93.2047H93.2052H93.2057H93.2062H93.2068H93.2073H93.2078H93.2084H93.2089H93.2094H93.21H93.2105H93.2111H93.2116H93.2121H93.2127H93.2132H93.2137H93.2143H93.2148H93.2153H93.2159H93.2164H93.217H93.2175H93.218H93.2186H93.2191H93.2196H93.2202H93.2207H93.2213H93.2218H93.2223H93.2229H93.2234H93.224H93.2245H93.225H93.2256H93.2261H93.2267H93.2272H93.2277H93.2283H93.2288H93.2294H93.2299H93.2304H93.231H93.2315H93.2321H93.2326H93.2332H93.2337H93.2342H93.2348H93.2353H93.2359H93.2364H93.2369H93.2375H93.238H93.2386H93.2391H93.2397H93.2402H93.2407H93.2413H93.2418H93.2424H93.2429H93.2434H93.244H93.2445H93.2451H93.2456H93.2461H93.2467H93.2472H93.2478H93.2483H93.2488H93.2494H93.2499H93.2505H93.251H93.2515H93.2521H93.2526H93.2532H93.2537H93.2542H93.2548H93.2553H93.2559H93.2564H93.2569H93.2575H93.258H93.2585H93.2591H93.2596H93.2602H93.2607H93.2612H93.2618H93.2623H93.2628H93.2634H93.2639H93.2644H93.265H93.2655H93.266H93.2666H93.2671H93.2676H93.2682H93.2687H93.2692H93.2698H93.2703H93.2708H93.2714H93.2719H93.2724H93.2729H93.2735H93.274H93.2745H93.2751H93.2756H93.2761H93.2766H93.2772H93.2777H93.2782H93.2787H93.2793H93.2798H93.2803H93.2808H93.2814H93.2819H93.2824H93.2829H93.2834H93.284H93.2845H93.285H93.2855H93.286H93.2866H93.2871H93.2876H93.2881H93.2886H93.2891H93.2897H93.2902H93.2907H93.2912H93.2917H93.2922H93.2927H93.2932H93.2938H93.2943H93.2948H93.2953H93.2958H93.2963H93.2968H93.2973H93.2978H93.2983H93.2988H93.2993H93.2998H93.3003H93.3008H93.3013H93.3018H93.3023H93.3028H93.3033H93.3038H93.3043H93.3048H93.3053H93.3058H93.3063H93.3068H93.3073H93.3078H93.3083H93.3088H93.3093H93.3097H93.3102H93.3107H93.3112H93.3117H93.3122H93.3127H93.3131H93.3136H93.3141H93.3146H93.3151H93.3155H93.316H93.3165H93.317H93.3175H93.3179H93.3184H93.3189H93.3193H93.3198H93.3203H93.3208H93.3212H93.3217H93.3222H93.3226H93.3231H93.3236H93.324H93.3245H93.3249H93.3254H93.3259H93.3263H93.3268H93.3272H93.3277H93.3281H93.3286H93.3291H93.3295H93.33H93.3304H93.3309H93.3313H93.3317H93.3322H93.3326H93.3331H93.3335H93.334H93.3344H93.3348H93.3353H93.3357H93.3362H93.3366H93.337H93.3375H93.3379H93.3383H93.3388H93.3392H93.3396H93.34H93.3405H93.3409H93.3413H93.3417H93.3421H93.3426H93.343H93.3434H93.3438H93.3442H93.3446H93.3451H93.3455H93.3459H93.3463H93.3467H93.3471H93.3475H93.3479H93.3483H93.3487H93.3491H93.3495H93.3499H93.3503H93.3507H93.3511H93.3515H93.3519H93.3523H93.3527H93.3531H93.3534H93.3538H93.3542H93.3546H93.355H93.3553H93.3557H93.3561H93.3565H93.3569H93.3572H93.3576H93.358H93.3583H93.3587H93.3591H93.3594H93.3598H93.3602H93.3957L93.4299 94.1417L101.746 91.7261C101.746 91.7261 101.747 91.726 101.747 91.726C102.703 91.451 103.632 91.9341 103.948 92.6716L88.4205 97.5389C88.4202 97.539 88.4198 97.5391 88.4195 97.5392C87.7293 97.7487 86.9754 97.7506 86.2743 97.5916L73.8959 94.2163V87.5786ZM72.2253 95.7303H67.6735V85.6685H72.2253V85.6738V85.6902V85.7067V85.7233V85.7399V85.7566V85.7733V85.7901V85.807V85.8239V85.8409V85.8579V85.875V85.8921V85.9093V85.9265V85.9438V85.9612V85.9786V85.996V86.0135V86.0311V86.0487V86.0664V86.0841V86.1019V86.1197V86.1376V86.1555V86.1735V86.1915V86.2096V86.2277V86.2459V86.2641V86.2824V86.3007V86.3191V86.3375V86.356V86.3745V86.3931V86.4117V86.4304V86.4491V86.4678V86.4867V86.5055V86.5244V86.5434V86.5623V86.5814V86.6005V86.6196V86.6388V86.658V86.6772V86.6965V86.7159V86.7353V86.7547V86.7742V86.7937V86.8133V86.8329V86.8526V86.8722V86.892V86.9118V86.9316V86.9514V86.9713V86.9913V87.0113V87.0313V87.0513V87.0714V87.0916V87.1117V87.132V87.1522V87.1725V87.1928V87.2132V87.2336V87.2541V87.2745V87.2951V87.3156V87.3362V87.3568V87.3775V87.3982V87.4189V87.4397V87.4605V87.4813V87.5022V87.5231V87.5441V87.565V87.5861V87.6071V87.6282V87.6493V87.6704V87.6916V87.7128V87.734V87.7553V87.7766V87.7979V87.8193V87.8407V87.8621V87.8836V87.905V87.9265V87.9481V87.9697V87.9913V88.0129V88.0345V88.0562V88.0779V88.0997V88.1214V88.1432V88.165V88.1869V88.2088V88.2307V88.2526V88.2745V88.2965V88.3185V88.3405V88.3626V88.3847V88.4068V88.4289V88.451V88.4732V88.4954V88.5176V88.5399V88.5621V88.5844V88.6067V88.629V88.6514V88.6738V88.6962V88.7186V88.741V88.7635V88.7859V88.8084V88.8309V88.8535V88.876V88.8986V88.9212V88.9438V88.9664V88.9891V89.0117V89.0344V89.0571V89.0798V89.1025V89.1253V89.1481V89.1708V89.1936V89.2164V89.2393V89.2621V89.2849V89.3078V89.3307V89.3536V89.3765V89.3994V89.4224V89.4453V89.4683V89.4913V89.5142V89.5372V89.5603V89.5833V89.6063V89.6294V89.6524V89.6755V89.6986V89.7216V89.7447V89.7678V89.791V89.8141V89.8372V89.8604V89.8835V89.9067V89.9298V89.953V89.9762V89.9994V90.0226V90.0458V90.069V90.0922V90.1154V90.1386V90.1619V90.1851V90.2084V90.2316V90.2549V90.2781V90.3014V90.3246V90.3479V90.3712V90.3944V90.4177V90.441V90.4643V90.4876V90.5108V90.5341V90.5574V90.5807V90.604V90.6273V90.6506V90.6739V90.6972V90.7205V90.7437V90.767V90.7903V90.8136V90.8369V90.8602V90.8834V90.9067V90.93V90.9533V90.9765V90.9998V91.0231V91.0463V91.0696V91.0928V91.1161V91.1393V91.1626V91.1858V91.209V91.2322V91.2554V91.2786V91.3019V91.325V91.3482V91.3714V91.3946V91.4177V91.4409V91.4641V91.4872V91.5103V91.5334V91.5566V91.5797V91.6028V91.6258V91.6489V91.672V91.695V91.7181V91.7411V91.7641V91.7871V91.8101V91.8331V91.8561V91.879V91.902V91.9249V91.9478V91.9707V91.9936V92.0165V92.0394V92.0622V92.0851V92.1079V92.1307V92.1535V92.1763V92.199V92.2218V92.2445V92.2672V92.2899V92.3126V92.3352V92.3578V92.3805V92.4031V92.4257V92.4482V92.4708V92.4933V92.5158V92.5383V92.5608V92.5832V92.6056V92.628V92.6504V92.6728V92.6951V92.7175V92.7398V92.762V92.7843V92.8065V92.8287V92.8509V92.8731V92.8952V92.9173V92.9394V92.9615V92.9836V93.0056V93.0276V93.0495V93.0715V93.0934V93.1153V93.1372V93.159V93.1808V93.2026V93.2244V93.2461V93.2678V93.2895V93.3111V93.3327V93.3543V93.3759V93.3974V93.4189V93.4404V93.4618V93.4832V93.5046V93.526V93.5473V93.5686V93.5899V93.6111V93.6323V93.6534V93.6746V93.6957V93.7167V93.7378V93.7588V93.7797V93.8007V93.8216V93.8424V93.8633V93.8841V93.9048V93.9255V93.9462V93.9669V93.9875V94.0081V94.0286V94.0491V94.0696V94.09V94.1104V94.1308V94.1511V94.1714V94.1916V94.2118V94.232V94.2521V94.2722V94.2923V94.3123V94.3322V94.3522V94.3721V94.3919V94.4117V94.4315V94.4512V94.4709V94.4905V94.5101V94.5297V94.5492V94.5687V94.5881V94.6075V94.6268V94.6461V94.6653V94.6845V94.7037V94.7228V94.7419V94.7609V94.7799V94.7988V94.8177V94.8366V94.8553V94.8741V94.8928V94.9114V94.9301V94.9486V94.9671V94.9856V95.004V95.0223V95.0407V95.0589V95.0771V95.0953V95.1134V95.1315V95.1495V95.1675V95.1854V95.2032V95.221V95.2388V95.2565V95.2742V95.2918V95.3093V95.3268V95.3442V95.3616V95.379V95.3962V95.4135V95.4306V95.4478V95.4648V95.4818V95.4988V95.5157V95.5325V95.5493V95.566V95.5827V95.5993V95.6158V95.6323V95.6488V95.6652V95.6815V95.6978V95.714V95.7301V95.7303Z" fill="#0177FB" stroke="#0177FB" stroke-width="0.5"/>
<path d="M95.9296 84.7606L95.9296 84.7607L95.9326 84.7579C97.8268 82.9729 98.9067 80.6053 98.9067 78.1152C98.9067 75.6252 97.8265 73.2544 95.8649 71.5233C93.9096 69.7977 91.3866 68.8203 88.6763 68.8203L88.6147 68.8203L88.6121 68.8203C83.0165 68.8776 78.3823 73.068 78.446 78.2307C78.5095 83.3868 83.0765 87.5226 88.6763 87.5226H88.7379C91.4496 87.5226 94.0355 86.4879 95.9296 84.7606ZM80.1781 78.2276L80.1781 78.2241C80.1187 73.9476 83.9254 70.4439 88.6147 70.4439H88.6763C90.9553 70.4439 93.0524 71.2636 94.6703 72.6835C96.2855 74.1573 97.1745 76.0578 97.1745 78.1152C97.1745 80.1801 96.3413 82.1354 94.7302 83.6047C93.1134 85.079 91.0174 85.899 88.7379 85.899H88.6763C83.9844 85.899 80.1781 82.4482 80.1781 78.2276Z" fill="#0177FB" stroke="#0177FB" stroke-width="0.5"/>
<path d="M84.6719 81.2049C85.7808 82.0476 86.9513 82.5532 88.3067 82.6656V83.6768H89.2308V82.7217C91.1406 82.6094 92.5576 81.6543 92.5576 79.9689C92.5576 78.1712 91.1406 77.6094 89.2308 77.2161H89.1692V74.688C89.9085 74.8004 90.6478 75.0251 91.3254 75.4745L92.2496 74.2386C91.2638 73.6206 90.2781 73.2835 89.1692 73.2273V72.5532H88.2451V73.2273C86.3969 73.3397 85.0415 74.3509 85.0415 75.9802C85.0415 77.7217 86.3969 78.2835 88.3067 78.6768V81.3172C87.4442 81.2049 86.5817 80.8116 85.7192 80.1375L84.6719 81.2049ZM90.8326 80.0251C90.8326 80.7554 90.0933 81.0925 89.2924 81.2049V78.7891C90.1549 79.0139 90.771 79.2948 90.8326 80.0251ZM86.8897 75.6993C86.8897 75.0251 87.5674 74.6318 88.3067 74.5757V76.9352C87.4442 76.6543 86.8897 76.4296 86.8897 75.6993Z" fill="#0177FB"/>
<path d="M84.6719 81.2049C85.7808 82.0476 86.9513 82.5532 88.3067 82.6656V83.6768H89.2308V82.7217C91.1406 82.6094 92.5576 81.6543 92.5576 79.9689C92.5576 78.1712 91.1406 77.6094 89.2308 77.2161H89.1692V74.688C89.9085 74.8004 90.6478 75.0251 91.3254 75.4745L92.2496 74.2386C91.2638 73.6206 90.2781 73.2835 89.1692 73.2273V72.5532H88.2451V73.2273C86.3969 73.3397 85.0415 74.3509 85.0415 75.9802C85.0415 77.7217 86.3969 78.2835 88.3067 78.6768V81.3172C87.4442 81.2049 86.5817 80.8116 85.7192 80.1375L84.6719 81.2049ZM90.8326 80.0251C90.8326 80.7554 90.0933 81.0925 89.2924 81.2049V78.7891C90.1549 79.0139 90.771 79.2948 90.8326 80.0251ZM86.8897 75.6993C86.8897 75.0251 87.5674 74.6318 88.3067 74.5757V76.9352C87.4442 76.6543 86.8897 76.4296 86.8897 75.6993Z" stroke="#0177FB"/>
</svg>
