<svg width="25" height="24" viewBox="0 0 25 24" fill="none" xmlns="http://www.w3.org/2000/svg">
<path d="M7.04549 19.2114V11.6354L4.64899 9.48598L2.5 8.29318V17.8744C2.5 18.6142 3.11133 19.2114 3.86368 19.2114H7.04549Z" fill="#0B429C"/>
<path d="M17.9531 19.2113H21.1349C21.8895 19.2113 22.4986 18.6119 22.4986 17.8743V8.29318L20.0645 9.65939L17.9531 11.6354V19.2113Z" fill="#34A853"/>
<path d="M7.04484 11.634L6.71875 8.67384L7.04484 5.8407L12.4994 9.85147L17.9539 5.8407L18.3187 8.52088L17.9539 11.634L12.4994 15.6447L7.04484 11.634Z" fill="#EA4335"/>
<path d="M17.9531 5.84126V11.6345L22.4986 8.29227V6.5097C22.4986 4.85641 20.5736 3.91392 19.2259 4.90543L17.9531 5.84126Z" fill="#FBBC04"/>
<path d="M2.5 8.29231L4.59055 9.82955L7.04549 11.6346V5.84129L5.77267 4.90547C4.42266 3.91388 2.5 4.85645 2.5 6.50965V8.29223V8.29231Z" fill="#C5221F"/>
</svg>
