<svg width="226" height="227" fill="none" xmlns="http://www.w3.org/2000/svg">
  <path opacity=".1" d="M100.412 187.541a2.205 2.205 0 00-3.118.152L73.15 214.311a2.208 2.208 0 003.27 2.966l24.144-26.618c.819-.904.751-2.3-.152-3.118zM75.367 150.256a2.207 2.207 0 00-3.117.152L31.3 195.553a2.207 2.207 0 103.27 2.965l40.95-45.144c.818-.904.75-2.3-.153-3.118zM68.272 169.72l-4.727 5.211a2.207 2.207 0 103.27 2.965l4.726-5.21a2.208 2.208 0 00-3.27-2.966zM36.735 137.237c.6 0 1.2-.244 1.635-.725l4.726-5.21a2.208 2.208 0 00-3.27-2.966l-4.725 5.21a2.208 2.208 0 001.634 3.691z" fill="#6E8796"/>
  <path opacity=".1" d="M193.638 59.468l-83.043 20.463v-13.76c0-15.236-12.12-27.937-27.356-28.134-15.48-.2-28.092 12.288-28.092 27.721 0 10.468 5.804 19.579 14.367 24.296l-25.54 6.294c-1.865.46-2.293 2.918-.693 3.981l24.384 16.204-21.995 24.249a2.208 2.208 0 003.27 2.966l22.443-24.744 11.488 7.635.07-.042-.07.336 6.739 46.832c.266 1.854 2.576 2.554 3.827 1.16l17.447-19.436 16.073 18.661-33.313 36.727a2.208 2.208 0 003.27 2.966l32.945-36.322 7.023 8.154a2.207 2.207 0 003.683-.529l55.61-122.623c.762-1.678-.748-3.496-2.537-3.055z" fill="#6E8796"/>
  <path d="M198.056 43.813L85.67 99.129l-2.799 13.238 7.41 51.506 107.775-120.06z" fill="#A9B8C1"/>
  <path d="M100.295 128.627l-10.013 35.246 20.602-22.95-10.589-12.296z" fill="#6E8796"/>
  <path d="M198.057 43.812l-58.919 129.915-38.844-45.099 97.763-84.816z" fill="#E3E8EB"/>
  <path d="M82.871 112.073l115.185-68.26-158.957 39.17 43.772 29.09z" fill="#E3E8EB"/>
  <path d="M110.597 65.366v18.239a3.48 3.48 0 01-3.479 3.478H82.872c-8.427 0-15.979-3.76-21.06-9.698l48.785-12.019z" fill="#6E8796"/>
  <path d="M107.119 78.915H82.871c-15.311 0-27.723-12.412-27.723-27.723 0-15.312 12.412-27.724 27.723-27.724 15.312 0 27.724 12.412 27.724 27.724v24.247a3.476 3.476 0 01-3.476 3.476z" fill="#5CB97F"/>
  <path d="M95.553 55.31a4.118 4.118 0 100-8.237 4.118 4.118 0 000 8.237zM82.87 55.31a4.118 4.118 0 100-8.237 4.118 4.118 0 000 8.237zM70.189 55.31a4.118 4.118 0 100-8.237 4.118 4.118 0 000 8.237z" fill="#fff"/>
  <path d="M200.255 43.69a2.04 2.04 0 00-.024-.207 2.008 2.008 0 00-.029-.17c-.017-.075-.043-.149-.068-.223-.013-.038-.02-.076-.035-.114-.004-.01-.01-.018-.015-.027a2.104 2.104 0 00-.121-.233c-.02-.036-.037-.075-.06-.11-.048-.074-.106-.142-.163-.21-.026-.03-.048-.064-.074-.093-.05-.053-.109-.099-.164-.147-.042-.037-.08-.077-.124-.11l-.003-.003c-.06-.045-.124-.078-.186-.115-.046-.028-.088-.06-.136-.085a2.197 2.197 0 00-.352-.142c-.031-.009-.064-.012-.095-.02a2.262 2.262 0 00-.274-.058c-.049-.006-.099-.004-.148-.007-.078-.005-.155-.01-.233-.007-.048.002-.095.011-.143.017-.082.01-.164.019-.244.037-.012.003-.024.003-.037.006l-84.725 20.878V51.191c0-16.504-13.427-29.931-29.931-29.931S52.94 34.687 52.94 51.19c0 9.43 4.388 17.85 11.225 23.34L38.57 80.84a2.206 2.206 0 00-.694 3.98l30.537 20.294-22.743 25.074a2.208 2.208 0 003.269 2.966l23.192-25.568 8.648 5.747 7.317 50.855c.004.029.015.056.02.085a2.16 2.16 0 00.189.569c.026.054.052.106.082.157.034.058.074.113.114.168.034.047.066.094.104.138.045.053.095.101.145.149.04.039.08.08.125.117.05.042.106.078.16.116.052.035.102.072.157.103.012.007.021.016.033.022.087.047.176.087.266.122l.06.019a2.272 2.272 0 00.708.127l.018.001c.105 0 .21-.008.317-.023.026-.004.049-.014.075-.018.068-.013.134-.032.201-.051.082-.022.161-.045.238-.077.06-.024.116-.053.174-.083a2.139 2.139 0 00.376-.243c.072-.057.138-.119.202-.185.025-.026.055-.045.079-.072l18.694-21.314 16.583 19.253-33.575 37.015a2.208 2.208 0 003.27 2.966l33.207-36.611 7.346 8.529a2.208 2.208 0 003.682-.529l8.249-18.188a2.208 2.208 0 00-4.021-1.824l-6.821 15.042-35.155-40.815 88.474-76.758-40.371 89.021a2.206 2.206 0 104.02 1.823l44.541-98.215c.017-.036.025-.073.039-.11.023-.057.044-.115.062-.175a2.224 2.224 0 00.089-.573c.005-.058.006-.116.003-.176zM69.245 77.826a29.737 29.737 0 0013.626 3.295h4.308a2.207 2.207 0 100-4.414H82.87c-14.07 0-25.517-11.446-25.517-25.516 0-14.07 11.447-25.517 25.517-25.517s25.517 11.447 25.517 25.517V75.44c0 .7-.569 1.268-1.269 1.268h-5.082a2.207 2.207 0 100 4.414h5.082a5.689 5.689 0 005.683-5.682v-8.346l71.277-17.564-101.14 59.937-38.437-25.543 24.743-6.097zm38.481 62.81l-12.644 14.417 6.216-21.881 6.428 7.464zm-8.853-13.698l-.003.002-.022.019c-.033.029-.058.064-.09.095-.069.068-.139.135-.2.212-.044.057-.078.12-.117.181-.038.06-.08.117-.113.181-.045.089-.076.182-.109.275-.014.041-.035.077-.047.12l-.007.025v.002l-7.174 25.251-5.764-40.06L178.1 58.205l-79.226 68.734z" fill="#444647"/>
  <path d="M100.412 176.947a2.207 2.207 0 00-3.118.152L73.15 203.717a2.207 2.207 0 003.27 2.966l24.144-26.618a2.207 2.207 0 00-.152-3.118zM75.367 139.663a2.206 2.206 0 00-3.117.151L31.3 184.959a2.208 2.208 0 003.27 2.966l40.95-45.145a2.207 2.207 0 00-.153-3.117zM68.272 159.126l-4.727 5.21a2.208 2.208 0 003.27 2.966l4.726-5.21a2.208 2.208 0 00-3.27-2.966zM38.37 125.919l4.726-5.211a2.207 2.207 0 00-3.27-2.966l-4.725 5.211a2.208 2.208 0 003.27 2.966z" fill="#444647"/>
</svg>
