<svg width="94" height="62" viewBox="0 0 94 62" fill="none" xmlns="http://www.w3.org/2000/svg">
<path d="M94 3.87255C94 1.93142 92.4264 0.357834 90.4853 0.357834H3.51472C1.57358 0.357834 0 1.93142 0 3.87255V8.8685L40.7229 16.1008L94 8.8685V3.87255Z" fill="url(#paint0_linear_38_629)"/>
<path d="M0 8.86852V58.1273C0 60.0684 1.57358 61.642 3.51472 61.642H90.4853C92.4264 61.642 94 60.0684 94 58.1273V8.86852H0Z" fill="#F1F4F6"/>
<path d="M0 8.86852V58.1273C0 60.0684 1.57358 61.642 3.51472 61.642H90.4853C92.4264 61.642 94 60.0684 94 58.1273V8.86852H0Z" fill="url(#paint1_linear_38_629)"/>
<path d="M86.4347 8.86852V38.6415C86.4347 49.2553 77.8305 57.8594 67.2168 57.8594H0V58.1275C0 60.0686 1.57358 61.6422 3.51472 61.6422H90.4853C92.4264 61.6422 94 60.0686 94 58.1275V8.86852H86.4347Z" fill="#DFEAEF"/>
<path d="M86.4347 8.86852V38.6415C86.4347 49.2553 77.8305 57.8594 67.2168 57.8594H0V58.1275C0 60.0686 1.57358 61.6422 3.51472 61.6422H90.4853C92.4264 61.6422 94 60.0686 94 58.1275V8.86852H86.4347Z" fill="url(#paint2_linear_38_629)"/>
<path d="M30.4 13.597H5.59354C5.11693 13.597 4.73047 13.9835 4.73047 14.4601V40.66C4.73047 41.1366 5.11693 41.5231 5.59354 41.5231H9.54485L17.5348 39.1417L26.4489 41.5231H30.4002C30.8768 41.5231 31.2633 41.1366 31.2633 40.66V14.4601C31.2631 13.9835 30.8768 13.597 30.4 13.597Z" fill="url(#paint3_linear_38_629)"/>
<path d="M17.8699 37.9402C20.1079 37.9402 21.9832 34.3636 22.4781 32.2769H21.2987C20.7556 32.2769 20.3156 31.8366 20.3156 31.2938V30.3088C19.5017 30.8654 16.4862 30.8654 15.6723 30.3088V31.2938C15.6723 31.8368 15.232 32.2771 14.689 32.2771H13.2617C13.7565 34.3634 15.6319 37.9402 17.8699 37.9402Z" fill="#EAAC9D"/>
<path d="M77.1884 58.3323H84.1556C84.3675 58.3323 84.5393 58.1605 84.5393 57.9486V46.9655C82.8572 50.4606 80.1487 53.3683 76.8047 55.2983V57.9486C76.8047 58.1605 76.9765 58.3323 77.1884 58.3323Z" fill="#475959"/>
<path d="M58.1064 58.3323H62.2365C62.4484 58.3323 62.6202 58.1605 62.6202 57.9486V57.8594H57.7227V57.9486C57.7227 58.1605 57.8945 58.3323 58.1064 58.3323Z" fill="#475959"/>
<path d="M89.27 45.9429C88.4864 45.9429 87.8516 46.5779 87.8516 47.3613V56.9137C87.8516 57.6971 88.4866 58.3321 89.27 58.3321C90.0534 58.3321 90.6885 57.6971 90.6885 56.9137V47.3613C90.6886 46.5781 90.0536 45.9429 89.27 45.9429Z" fill="#475959"/>
<path d="M54.0519 57.8594H51.9375C52.1973 58.1497 52.5746 58.3322 52.9946 58.3322C53.4149 58.3323 53.7923 58.1497 54.0519 57.8594Z" fill="#475959"/>
<path d="M73.4953 56.9137V56.8091C72.6227 57.1107 71.7215 57.3514 70.7969 57.5256C71.0254 58.0026 71.5125 58.3321 72.0769 58.3321C72.8603 58.3323 73.4953 57.6971 73.4953 56.9137Z" fill="#475959"/>
<path d="M68.4406 57.821C68.0355 57.8465 67.6268 57.8596 67.215 57.8596H66.293C66.5528 58.1499 66.93 58.3323 67.3503 58.3323C67.7885 58.3323 68.1805 58.1333 68.4406 57.821Z" fill="#475959"/>
<path d="M89.6292 18.2323C88.5767 17.9573 87.5089 17.7517 86.4336 17.6156V20.4781C87.2669 20.5972 88.0946 20.7635 88.9119 20.9771C89.0322 21.0085 89.1528 21.0235 89.2716 21.0235C89.9013 21.0235 90.4763 20.6011 90.643 19.9633C90.8411 19.2056 90.3873 18.4304 89.6292 18.2323Z" fill="#738B95"/>
<path fill-rule="evenodd" clip-rule="evenodd" d="M83.2558 27.0311C79.1621 27.0297 75.832 23.6987 75.832 19.6047C75.832 15.5098 79.1635 12.1783 83.2584 12.1783C87.3116 12.1783 90.6169 15.4424 90.6837 19.4799C90.6909 19.5612 90.6911 19.6437 90.6838 19.7269C90.6184 23.7614 87.3195 27.0241 83.2713 27.0311L83.2626 27.0311L83.2558 27.0311ZM83.2584 15.0154C85.1362 15.0154 86.7541 16.149 87.4639 17.7677C84.6824 17.298 81.8335 17.2985 79.0522 17.7692C79.7617 16.1497 81.38 15.0154 83.2584 15.0154ZM84.681 20.2976C85.6991 20.3621 86.7133 20.4962 87.7157 20.6998C87.3368 22.2415 86.1768 23.4795 84.681 23.9684V20.2976ZM81.8441 23.9711C80.3448 23.4843 79.1815 22.2452 78.8015 20.7014C79.8064 20.4969 80.8234 20.3623 81.8441 20.2976V23.9711ZM70.1793 19.696H37.7309C37.2905 19.696 36.9336 19.3391 36.9336 18.8986V14.3941C36.9336 13.9537 37.2905 13.5968 37.7309 13.5968H70.1793C70.6197 13.5968 70.9767 13.9537 70.9767 14.3941V18.8986C70.9767 19.3391 70.6197 19.696 70.1793 19.696ZM58.1087 45.9429H62.2389C62.4507 45.9429 62.6226 46.1147 62.6226 46.3266V57.9484C62.6226 58.1603 62.4507 58.3321 62.2389 58.3321H58.1087C57.8969 58.3321 57.725 58.1603 57.725 57.9484V46.3266C57.725 46.1147 57.8969 45.9429 58.1087 45.9429ZM84.5424 57.9486V46.3268C84.5424 46.1149 84.3705 45.9431 84.1587 45.9431H77.1915C76.9796 45.9431 76.8078 46.1149 76.8078 46.3268V57.9486C76.8078 58.1605 76.9796 58.3323 77.1915 58.3323H84.1587C84.3705 58.3323 84.5424 58.1605 84.5424 57.9486ZM68.7695 56.9137V47.3613C68.7695 46.5779 68.1344 45.9429 67.351 45.9429C66.5676 45.9429 65.9326 46.5779 65.9326 47.3613V56.9137C65.9326 57.6971 66.5676 58.3321 67.351 58.3321C68.1344 58.3321 68.7695 57.6971 68.7695 56.9137ZM54.415 56.9137V47.3613C54.415 46.5779 53.78 45.9429 52.9966 45.9429C52.2132 45.9429 51.5781 46.5779 51.5781 47.3613V56.9137C51.5781 57.6971 52.2132 58.3321 52.9966 58.3321C53.78 58.3321 54.415 57.6971 54.415 56.9137ZM90.6893 56.9137V47.3613C90.6893 46.5779 90.0542 45.9429 89.2708 45.9429C88.4874 45.9429 87.8524 46.5779 87.8524 47.3613V56.9137C87.8524 57.6971 88.4874 58.3321 89.2708 58.3321C90.0542 58.3321 90.6893 57.6971 90.6893 56.9137ZM73.4979 56.9137V47.3613C73.4979 46.5779 72.8629 45.9429 72.0795 45.9429C71.2961 45.9429 70.661 46.5779 70.661 47.3613V56.9137C70.661 57.6971 71.2961 58.3321 72.0795 58.3321C72.8629 58.3321 73.4979 57.6971 73.4979 56.9137ZM36.9341 36.2453H42.8599C43.6433 36.2453 44.2786 35.6102 44.2784 34.8268C44.2784 34.0434 43.6433 33.4084 42.8599 33.4084H36.9341C36.1507 33.4084 35.5156 34.0434 35.5156 34.8268C35.5156 35.6102 36.1507 36.2453 36.9341 36.2453ZM70.9764 36.2453H48.5747C47.7911 36.2453 47.1562 35.6102 47.1562 34.8268C47.1562 34.0434 47.7913 33.4084 48.5747 33.4084H70.9764C71.76 33.4084 72.3949 34.0434 72.3949 34.8268C72.3949 35.6102 71.7598 36.2453 70.9764 36.2453ZM48.5747 40.9737H55.8327C56.6161 40.9737 57.2512 40.3387 57.2512 39.5553C57.2512 38.7719 56.6163 38.1368 55.8327 38.1368H48.5747C47.7913 38.1368 47.1562 38.7719 47.1562 39.5553C47.1562 40.3387 47.7911 40.9737 48.5747 40.9737ZM42.8599 26.7885H36.9341C36.1507 26.7885 35.5156 26.1535 35.5156 25.3701C35.5156 24.5867 36.1507 23.9516 36.9341 23.9516H42.8599C43.6433 23.9516 44.2784 24.5867 44.2784 25.3701C44.2784 26.1535 43.6433 26.7885 42.8599 26.7885ZM48.5747 26.7885H70.9764C71.7598 26.7885 72.3949 26.1535 72.3949 25.3701C72.3949 24.5867 71.76 23.9516 70.9764 23.9516H48.5747C47.7913 23.9516 47.1562 24.5867 47.1562 25.3701C47.1562 26.1535 47.7911 26.7885 48.5747 26.7885ZM70.9786 31.517H67.1958C66.4122 31.517 65.7773 30.8819 65.7773 30.0985C65.7773 29.3151 66.4124 28.6801 67.1958 28.6801H70.9786C71.7621 28.6801 72.397 29.3151 72.397 30.0985C72.397 30.8819 71.762 31.517 70.9786 31.517ZM58.4731 31.517H62.4678C63.2513 31.517 63.8862 30.8819 63.8862 30.0985C63.8862 29.3151 63.2513 28.6801 62.4678 28.6801H58.4731C57.6897 28.6801 57.0547 29.3151 57.0547 30.0985C57.0547 30.8819 57.6896 31.517 58.4731 31.517ZM7.11765 55.5089C6.75891 55.5089 6.3998 55.3735 6.12368 55.1022C5.56482 54.5532 5.55674 53.6551 6.10587 53.0962L10.3792 48.7464C10.8527 48.2642 11.5358 48.0324 12.2043 48.1265C12.8735 48.2206 13.4658 48.6311 13.7883 49.225L13.9907 49.5975L15.4302 48.7469C16.2669 48.2523 17.3343 48.3845 18.0255 49.0682L20.9395 51.951H31.8701C32.6535 51.951 33.2886 52.586 33.2886 53.3694C33.2886 54.1528 32.6535 54.7879 31.8701 54.7879H20.6537C20.086 54.7879 19.5514 54.5681 19.1478 54.169L16.4117 51.4623L14.813 52.407C14.3154 52.7012 13.7103 52.7816 13.1531 52.6275C12.5959 52.4733 12.118 52.0936 11.8421 51.5856L11.7442 51.4055L8.1298 55.0846C7.85184 55.3671 7.48484 55.5089 7.11765 55.5089Z" fill="#617881"/>
<path fill-rule="evenodd" clip-rule="evenodd" d="M83.2558 27.0311C79.1621 27.0297 75.832 23.6987 75.832 19.6047C75.832 15.5098 79.1635 12.1783 83.2584 12.1783C87.3116 12.1783 90.6169 15.4424 90.6837 19.4799C90.6909 19.5612 90.6911 19.6437 90.6838 19.7269C90.6184 23.7614 87.3195 27.0241 83.2713 27.0311L83.2626 27.0311L83.2558 27.0311ZM83.2584 15.0154C85.1362 15.0154 86.7541 16.149 87.4639 17.7677C84.6824 17.298 81.8335 17.2985 79.0522 17.7692C79.7617 16.1497 81.38 15.0154 83.2584 15.0154ZM84.681 20.2976C85.6991 20.3621 86.7133 20.4962 87.7157 20.6998C87.3368 22.2415 86.1768 23.4795 84.681 23.9684V20.2976ZM81.8441 23.9711C80.3448 23.4843 79.1815 22.2452 78.8015 20.7014C79.8064 20.4969 80.8234 20.3623 81.8441 20.2976V23.9711ZM70.1793 19.696H37.7309C37.2905 19.696 36.9336 19.3391 36.9336 18.8986V14.3941C36.9336 13.9537 37.2905 13.5968 37.7309 13.5968H70.1793C70.6197 13.5968 70.9767 13.9537 70.9767 14.3941V18.8986C70.9767 19.3391 70.6197 19.696 70.1793 19.696ZM58.1087 45.9429H62.2389C62.4507 45.9429 62.6226 46.1147 62.6226 46.3266V57.9484C62.6226 58.1603 62.4507 58.3321 62.2389 58.3321H58.1087C57.8969 58.3321 57.725 58.1603 57.725 57.9484V46.3266C57.725 46.1147 57.8969 45.9429 58.1087 45.9429ZM84.5424 57.9486V46.3268C84.5424 46.1149 84.3705 45.9431 84.1587 45.9431H77.1915C76.9796 45.9431 76.8078 46.1149 76.8078 46.3268V57.9486C76.8078 58.1605 76.9796 58.3323 77.1915 58.3323H84.1587C84.3705 58.3323 84.5424 58.1605 84.5424 57.9486ZM68.7695 56.9137V47.3613C68.7695 46.5779 68.1344 45.9429 67.351 45.9429C66.5676 45.9429 65.9326 46.5779 65.9326 47.3613V56.9137C65.9326 57.6971 66.5676 58.3321 67.351 58.3321C68.1344 58.3321 68.7695 57.6971 68.7695 56.9137ZM54.415 56.9137V47.3613C54.415 46.5779 53.78 45.9429 52.9966 45.9429C52.2132 45.9429 51.5781 46.5779 51.5781 47.3613V56.9137C51.5781 57.6971 52.2132 58.3321 52.9966 58.3321C53.78 58.3321 54.415 57.6971 54.415 56.9137ZM90.6893 56.9137V47.3613C90.6893 46.5779 90.0542 45.9429 89.2708 45.9429C88.4874 45.9429 87.8524 46.5779 87.8524 47.3613V56.9137C87.8524 57.6971 88.4874 58.3321 89.2708 58.3321C90.0542 58.3321 90.6893 57.6971 90.6893 56.9137ZM73.4979 56.9137V47.3613C73.4979 46.5779 72.8629 45.9429 72.0795 45.9429C71.2961 45.9429 70.661 46.5779 70.661 47.3613V56.9137C70.661 57.6971 71.2961 58.3321 72.0795 58.3321C72.8629 58.3321 73.4979 57.6971 73.4979 56.9137ZM36.9341 36.2453H42.8599C43.6433 36.2453 44.2786 35.6102 44.2784 34.8268C44.2784 34.0434 43.6433 33.4084 42.8599 33.4084H36.9341C36.1507 33.4084 35.5156 34.0434 35.5156 34.8268C35.5156 35.6102 36.1507 36.2453 36.9341 36.2453ZM70.9764 36.2453H48.5747C47.7911 36.2453 47.1562 35.6102 47.1562 34.8268C47.1562 34.0434 47.7913 33.4084 48.5747 33.4084H70.9764C71.76 33.4084 72.3949 34.0434 72.3949 34.8268C72.3949 35.6102 71.7598 36.2453 70.9764 36.2453ZM48.5747 40.9737H55.8327C56.6161 40.9737 57.2512 40.3387 57.2512 39.5553C57.2512 38.7719 56.6163 38.1368 55.8327 38.1368H48.5747C47.7913 38.1368 47.1562 38.7719 47.1562 39.5553C47.1562 40.3387 47.7911 40.9737 48.5747 40.9737ZM42.8599 26.7885H36.9341C36.1507 26.7885 35.5156 26.1535 35.5156 25.3701C35.5156 24.5867 36.1507 23.9516 36.9341 23.9516H42.8599C43.6433 23.9516 44.2784 24.5867 44.2784 25.3701C44.2784 26.1535 43.6433 26.7885 42.8599 26.7885ZM48.5747 26.7885H70.9764C71.7598 26.7885 72.3949 26.1535 72.3949 25.3701C72.3949 24.5867 71.76 23.9516 70.9764 23.9516H48.5747C47.7913 23.9516 47.1562 24.5867 47.1562 25.3701C47.1562 26.1535 47.7911 26.7885 48.5747 26.7885ZM70.9786 31.517H67.1958C66.4122 31.517 65.7773 30.8819 65.7773 30.0985C65.7773 29.3151 66.4124 28.6801 67.1958 28.6801H70.9786C71.7621 28.6801 72.397 29.3151 72.397 30.0985C72.397 30.8819 71.762 31.517 70.9786 31.517ZM58.4731 31.517H62.4678C63.2513 31.517 63.8862 30.8819 63.8862 30.0985C63.8862 29.3151 63.2513 28.6801 62.4678 28.6801H58.4731C57.6897 28.6801 57.0547 29.3151 57.0547 30.0985C57.0547 30.8819 57.6896 31.517 58.4731 31.517ZM7.11765 55.5089C6.75891 55.5089 6.3998 55.3735 6.12368 55.1022C5.56482 54.5532 5.55674 53.6551 6.10587 53.0962L10.3792 48.7464C10.8527 48.2642 11.5358 48.0324 12.2043 48.1265C12.8735 48.2206 13.4658 48.6311 13.7883 49.225L13.9907 49.5975L15.4302 48.7469C16.2669 48.2523 17.3343 48.3845 18.0255 49.0682L20.9395 51.951H31.8701C32.6535 51.951 33.2886 52.586 33.2886 53.3694C33.2886 54.1528 32.6535 54.7879 31.8701 54.7879H20.6537C20.086 54.7879 19.5514 54.5681 19.1478 54.169L16.4117 51.4623L14.813 52.407C14.3154 52.7012 13.7103 52.7816 13.1531 52.6275C12.5959 52.4733 12.118 52.0936 11.8421 51.5856L11.7442 51.4055L8.1298 55.0846C7.85184 55.3671 7.48484 55.5089 7.11765 55.5089Z" fill="url(#paint4_linear_38_629)"/>
<path d="M17.9399 18.3252C15.2769 18.3579 13.2588 20.6115 13.4545 23.2676L13.7609 27.4273C13.9243 29.6462 16.6601 31.184 17.9974 31.184C19.3347 31.184 22.0704 29.6462 22.2338 27.4273L22.5437 23.2184C22.7398 20.557 20.6167 18.2926 17.9399 18.3252Z" fill="#FFCBBE"/>
<path d="M23.1625 32.2769H22.4792C21.9844 34.3636 20.109 35.9159 17.871 35.9159C15.633 35.9159 13.7575 34.3636 13.2628 32.2769H12.8273C11.0134 32.2769 9.54297 33.7473 9.54297 35.5612V41.523H26.447V35.5612C26.4468 33.7473 24.9764 32.2769 23.1625 32.2769Z" fill="url(#paint5_linear_38_629)"/>
<defs>
<linearGradient id="paint0_linear_38_629" x1="14.3875" y1="0.357834" x2="18.8859" y2="21.7373" gradientUnits="userSpaceOnUse">
<stop stop-color="#4A81D5"/>
<stop offset="1" stop-color="#3264B0"/>
</linearGradient>
<linearGradient id="paint1_linear_38_629" x1="42.9167" y1="38.2403" x2="43.8824" y2="118.038" gradientUnits="userSpaceOnUse">
<stop stop-color="#F7F7F7"/>
<stop offset="1" stop-color="#A3A3A3"/>
</linearGradient>
<linearGradient id="paint2_linear_38_629" x1="42.9167" y1="38.2404" x2="37.6944" y2="87.6347" gradientUnits="userSpaceOnUse">
<stop stop-color="#F7F7F7"/>
<stop offset="1" stop-color="#A3A3A3"/>
</linearGradient>
<linearGradient id="paint3_linear_38_629" x1="17.9969" y1="13.597" x2="17.9969" y2="41.5231" gradientUnits="userSpaceOnUse">
<stop stop-color="#B8D8FF"/>
<stop offset="1" stop-color="#73B0FB"/>
</linearGradient>
<linearGradient id="paint4_linear_38_629" x1="50.3222" y1="17.3696" x2="49.0931" y2="33.3052" gradientUnits="userSpaceOnUse">
<stop stop-color="#677FAA"/>
<stop offset="1" stop-color="#3E4F6D"/>
</linearGradient>
<linearGradient id="paint5_linear_38_629" x1="17.995" y1="32.2769" x2="17.995" y2="41.523" gradientUnits="userSpaceOnUse">
<stop stop-color="#FFECB3"/>
<stop offset="1" stop-color="#FFD964"/>
</linearGradient>
</defs>
</svg>
