<svg width="48" height="49" viewBox="0 0 48 49" fill="none"
  xmlns="http://www.w3.org/2000/svg">
  <circle cx="24" cy="24.9976" r="24" fill="url(#paint0_linear)" fill-opacity="0.1"/>
  <path d="M44.4897 6.19616C46.2362 6.66412 47.2727 8.45933 46.8047 10.2058L37.0603 46.5725C36.5924 48.319 34.7971 49.3554 33.0506 48.8874L14.0767 43.8033C12.3302 43.3353 11.2938 41.5401 11.7618 39.7936L21.5062 3.42709C21.9741 1.68058 23.7693 0.644096 25.5158 1.11216L44.4897 6.19616Z" fill="#F5F9EC"/>
  <path d="M29.8052 11.0208H19.4712L11.7618 39.7937C11.2938 41.5402 12.3304 43.3354 14.0769 43.8033L33.0507 48.8871C34.7971 49.3551 36.5923 48.3189 37.0603 46.5724L43.0402 24.2556L29.8052 11.0208Z" fill="#E4E8DB"/>
  <path d="M44.4896 6.19606C46.2361 6.66402 47.2726 8.45923 46.8045 10.2057L42.5678 26.0173L17.2695 19.2386L21.5062 3.42709C21.9742 1.68058 23.7694 0.644096 25.5159 1.11216L44.4896 6.19606Z" fill="#DCC69F"/>
  <path d="M22.8305 42.7565L25.7959 31.689L24.2148 31.2653L21.2494 42.3328L22.8305 42.7565Z" fill="#C8BEB2"/>
  <path d="M26.644 28.5286L27.4912 25.3665L25.9101 24.9428L25.0629 28.105L26.644 28.5286Z" fill="#C8BEB2"/>
  <path d="M31.3901 29.7952L32.2373 26.6331L30.6562 26.2094L29.809 29.3715L31.3901 29.7952Z" fill="#C8BEB2"/>
  <path d="M36.1293 31.0679L36.9766 27.9058L35.3955 27.4821L34.5482 30.6442L36.1293 31.0679Z" fill="#C8BEB2"/>
  <path d="M27.5698 44.0284L30.5352 32.9609L28.954 32.5373L25.9887 43.6048L27.5698 44.0284Z" fill="#C8BEB2"/>
  <path d="M32.3198 45.3016L35.2852 34.2341L33.704 33.8105L30.7387 44.878L32.3198 45.3016Z" fill="#C8BEB2"/>
  <path d="M38.8989 8.08732L37.5436 7.72412L32.7029 12.2374C31.4342 11.8975 30.0111 11.5161 29.7666 11.4506C28.8631 11.2085 27.8385 11.4182 27.7175 11.8699C27.5965 12.3217 28.3789 13.0155 29.2824 13.2576C29.5268 13.3231 30.95 13.7044 32.2186 14.0443L34.1542 20.3733L35.5095 20.7365L35.3809 14.8917C36.2712 15.1303 37.1798 15.3737 37.7755 15.5333L38.8278 17.3889L39.7313 17.6309L39.5759 15.0473L41.0023 12.8874L40.0988 12.6454L38.2599 13.7262C37.6642 13.5666 36.7556 13.3232 35.8652 13.0847L38.8989 8.08732Z" fill="#F5F9EC"/>
  <path d="M17.2695 19.2387L42.5681 26.0173L43.04 24.2558L29.8051 11.0208H19.4715L17.2695 19.2387Z" fill="#CDB994"/>
  <path d="M29.7664 11.4507C28.8628 11.2085 27.8381 11.4182 27.7175 11.8699C27.5965 12.3217 28.3785 13.0157 29.2825 13.2577C29.5266 13.3233 30.9498 13.7047 32.2182 14.0445L34.1541 20.3736L35.5093 20.7367L35.4194 16.6347L30.4067 11.6222C30.0886 11.537 29.8524 11.4737 29.7664 11.4507Z" fill="#E4E8DB"/>
  <path d="M27.097 1.53582L15.6579 44.227L14.0767 43.8034C12.3302 43.3354 11.2938 41.5402 11.7618 39.7937L21.5063 3.42709C21.9742 1.68058 23.7694 0.644096 25.5159 1.11216L27.097 1.53582Z" fill="#EA672C"/>
  <path d="M30.5478 42.5524C30.5478 44.3605 29.082 45.8263 27.2739 45.8263H2.71994C1.81584 45.8263 1.08301 45.0934 1.08301 44.1893V11.4507C1.08301 10.5466 1.81584 9.81372 2.71994 9.81372H27.2739C29.082 9.81372 30.5478 11.2795 30.5478 13.0876V42.5524Z" fill="#125D9D"/>
  <path d="M15.8157 14.7246C10.3915 14.7246 5.99414 19.1219 5.99414 24.5462C5.99414 29.9705 10.3915 34.3678 15.8157 34.3678C21.24 34.3678 25.6373 29.9705 25.6373 24.5462C25.6373 19.1219 21.2401 14.7246 15.8157 14.7246ZM23.0844 20.8631H19.5448C19.2062 19.1668 18.6775 17.7958 18.1376 16.738C20.3005 17.3835 22.0762 18.8833 23.0844 20.8631ZM18.2711 24.5462C18.2711 25.2769 18.2164 25.9481 18.1412 26.5924H13.4906C13.4151 25.9481 13.3602 25.2768 13.3602 24.5462C13.3602 23.8152 13.4142 23.1441 13.4889 22.5H18.1427C18.2172 23.1441 18.2711 23.8153 18.2711 24.5462ZM13.762 20.8631C14.2165 18.8119 14.9662 17.3218 15.5776 16.3855C15.6583 16.3831 15.7342 16.3615 15.8157 16.3615C15.8981 16.3615 15.9743 16.3835 16.0563 16.3859C16.6705 17.3283 17.4175 18.819 17.8698 20.8631H13.762ZM13.4939 16.738C12.9559 17.7936 12.4268 19.1661 12.0879 20.8631H8.54704C9.55539 18.8833 11.331 17.3839 13.4939 16.738ZM7.92163 22.5H11.8393C11.771 23.1483 11.7234 23.8225 11.7234 24.5462C11.7234 25.2704 11.7722 25.9437 11.8417 26.5924H7.92153C7.75047 25.9345 7.63097 25.2568 7.63097 24.5462C7.63107 23.8357 7.75057 23.1579 7.92163 22.5ZM8.54704 28.2293H12.0919C12.434 29.9294 12.9635 31.3122 13.4915 32.3537C11.3298 31.7078 9.55498 30.2084 8.54704 28.2293ZM15.5776 32.7069C14.9909 31.8046 14.2268 30.3105 13.7641 28.2293H17.8676C17.4056 30.309 16.6423 31.8025 16.0537 32.7069C15.973 32.7093 15.8975 32.7309 15.8159 32.7309C15.7344 32.7309 15.6587 32.7094 15.5776 32.7069ZM18.1409 32.3537C18.6696 31.3111 19.1988 29.9295 19.5401 28.2293H23.0845C22.0766 30.2083 20.3022 31.7074 18.1409 32.3537ZM23.71 26.5924H19.7902C19.8594 25.9437 19.9081 25.2704 19.9081 24.5462C19.9081 23.8225 19.8609 23.1483 19.7926 22.5H23.7099C23.8809 23.1579 24.0004 23.8356 24.0004 24.5462C24.0004 25.2568 23.8809 25.9346 23.71 26.5924Z" fill="#E7BE29"/>
  <path d="M7.06836 40.9172V38.5737H7.95241C8.10802 38.5737 8.2268 38.5812 8.30885 38.5961C8.42394 38.6154 8.52032 38.6519 8.59818 38.7056C8.67593 38.7594 8.73854 38.8349 8.78601 38.9318C8.83338 39.0288 8.85712 39.1354 8.85712 39.2515C8.85712 39.4508 8.79369 39.6195 8.66693 39.7574C8.54006 39.8956 8.311 39.9644 7.97952 39.9644H7.37846V40.9172H7.06836ZM7.37846 39.6879H7.98433C8.18465 39.6879 8.32696 39.6506 8.41116 39.5759C8.49536 39.5014 8.5374 39.3964 8.5374 39.261C8.5374 39.163 8.51265 39.0791 8.46303 39.0093C8.41351 38.9395 8.34813 38.8933 8.26721 38.8709C8.21493 38.8571 8.11855 38.8502 7.97788 38.8502H7.37846V39.6879Z" fill="white"/>
  <path d="M8.75195 40.9172L9.65196 38.5737H9.9861L10.9452 40.9172H10.592L10.3186 40.2074H9.33869L9.08128 40.9172H8.75195ZM9.42811 39.9548H10.2226L9.97802 39.3057C9.90343 39.1086 9.84798 38.9466 9.81176 38.8198C9.78189 38.9701 9.73984 39.1193 9.68552 39.2674L9.42811 39.9548Z" fill="white"/>
  <path d="M11.0869 40.1641L11.3794 40.1386C11.3932 40.2558 11.4255 40.352 11.4761 40.4271C11.5267 40.5022 11.6053 40.5629 11.7119 40.6093C11.8185 40.6556 11.9383 40.6789 12.0716 40.6789C12.1899 40.6789 12.2944 40.6613 12.385 40.6261C12.4755 40.5909 12.543 40.5428 12.5873 40.4814C12.6315 40.4201 12.6536 40.3533 12.6536 40.2808C12.6536 40.2072 12.6323 40.1431 12.5896 40.0881C12.547 40.0333 12.4767 39.9873 12.3786 39.9498C12.3156 39.9254 12.1766 39.8873 11.9613 39.8355C11.7461 39.7839 11.5953 39.7352 11.5089 39.6892C11.397 39.6307 11.3136 39.558 11.2588 39.471C11.2039 39.3841 11.1764 39.287 11.1764 39.1792C11.1764 39.061 11.21 38.9505 11.2771 38.8475C11.3442 38.7447 11.4422 38.6667 11.5712 38.6134C11.7001 38.56 11.8435 38.5334 12.0012 38.5334C12.175 38.5334 12.3281 38.5614 12.4608 38.6173C12.5935 38.6733 12.6955 38.7557 12.7669 38.8643C12.8383 38.9731 12.8767 39.0961 12.882 39.2335L12.5847 39.256C12.5687 39.1079 12.5146 38.996 12.4224 38.9203C12.3303 38.8447 12.1941 38.8068 12.014 38.8068C11.8265 38.8068 11.6898 38.8412 11.604 38.9099C11.5181 38.9787 11.4753 39.0616 11.4753 39.1586C11.4753 39.2428 11.5057 39.312 11.5664 39.3663C11.6261 39.4207 11.7819 39.4764 12.034 39.5334C12.286 39.5905 12.4589 39.6403 12.5527 39.6829C12.6891 39.7458 12.7897 39.8255 12.8548 39.9219C12.9198 40.0184 12.9523 40.1295 12.9523 40.2552C12.9523 40.3799 12.9166 40.4974 12.8452 40.6077C12.7738 40.7179 12.6712 40.8038 12.5374 40.8651C12.4036 40.9263 12.2531 40.9569 12.0858 40.9569C11.8738 40.9569 11.6961 40.9259 11.5527 40.8642C11.4094 40.8024 11.297 40.7094 11.2154 40.5852C11.1341 40.4612 11.0912 40.3208 11.0869 40.1641Z" fill="white"/>
  <path d="M13.2705 40.1641L13.563 40.1386C13.5768 40.2558 13.609 40.352 13.6597 40.4271C13.7103 40.5022 13.7889 40.5629 13.8955 40.6093C14.0021 40.6556 14.1219 40.6789 14.2552 40.6789C14.3735 40.6789 14.4779 40.6613 14.5686 40.6261C14.6591 40.5909 14.7266 40.5428 14.7709 40.4814C14.8151 40.4201 14.8372 40.3533 14.8372 40.2808C14.8372 40.2072 14.8159 40.1431 14.7732 40.0881C14.7305 40.0333 14.6603 39.9873 14.5621 39.9498C14.4992 39.9254 14.3602 39.8873 14.1449 39.8355C13.9297 39.7839 13.7789 39.7352 13.6925 39.6892C13.5806 39.6307 13.4972 39.558 13.4424 39.471C13.3874 39.3841 13.36 39.287 13.36 39.1792C13.36 39.061 13.3936 38.9505 13.4607 38.8475C13.5278 38.7447 13.6258 38.6667 13.7548 38.6134C13.8837 38.56 14.0271 38.5334 14.1848 38.5334C14.3586 38.5334 14.5117 38.5614 14.6444 38.6173C14.7771 38.6733 14.8791 38.7557 14.9505 38.8643C15.0219 38.9731 15.0603 39.0961 15.0656 39.2335L14.7683 39.256C14.7523 39.1079 14.6982 38.996 14.606 38.9203C14.5139 38.8447 14.3777 38.8068 14.1976 38.8068C14.0101 38.8068 13.8734 38.8412 13.7876 38.9099C13.7017 38.9787 13.6589 39.0616 13.6589 39.1586C13.6589 39.2428 13.6893 39.312 13.75 39.3663C13.8097 39.4207 13.9655 39.4764 14.2176 39.5334C14.4696 39.5905 14.6425 39.6403 14.7363 39.6829C14.8727 39.7458 14.9733 39.8255 15.0384 39.9219C15.1034 40.0184 15.1359 40.1295 15.1359 40.2552C15.1359 40.3799 15.1002 40.4974 15.0288 40.6077C14.9574 40.7179 14.8548 40.8038 14.721 40.8651C14.5872 40.9263 14.4367 40.9569 14.2694 40.9569C14.0574 40.9569 13.8797 40.9259 13.7363 40.8642C13.593 40.8024 13.4805 40.7094 13.399 40.5852C13.3177 40.4612 13.2747 40.3208 13.2705 40.1641Z" fill="white"/>
  <path d="M15.5596 40.9172V38.5737H16.4436C16.5992 38.5737 16.718 38.5812 16.8001 38.5961C16.9152 38.6154 17.0115 38.6519 17.0894 38.7056C17.1671 38.7594 17.2298 38.8349 17.2772 38.9318C17.3246 39.0288 17.3483 39.1354 17.3483 39.2515C17.3483 39.4508 17.2849 39.6195 17.1581 39.7574C17.0313 39.8956 16.8022 39.9644 16.4707 39.9644H15.8697V40.9172H15.5596ZM15.8697 39.6879H16.4755C16.6759 39.6879 16.8182 39.6506 16.9024 39.5759C16.9866 39.5014 17.0286 39.3964 17.0286 39.261C17.0286 39.163 17.0039 39.0791 16.9542 39.0093C16.9047 38.9395 16.8393 38.8933 16.7584 38.8709C16.7061 38.8571 16.6098 38.8502 16.4691 38.8502H15.8697V39.6879Z" fill="white"/>
  <path d="M17.6494 39.7757C17.6494 39.3868 17.7539 39.0823 17.9628 38.8621C18.1717 38.6422 18.4413 38.532 18.7716 38.532C18.9879 38.532 19.183 38.5837 19.3567 38.6871C19.5305 38.7905 19.6628 38.9347 19.754 39.1195C19.8452 39.3045 19.8907 39.5141 19.8907 39.7485C19.8907 39.9862 19.8427 40.1988 19.7468 40.3863C19.6509 40.574 19.515 40.716 19.3392 40.8123C19.1634 40.9088 18.9737 40.957 18.7701 40.957C18.5495 40.957 18.3524 40.9037 18.1787 40.7971C18.0049 40.6906 17.8734 40.5451 17.7838 40.3606C17.6941 40.1765 17.6494 39.9815 17.6494 39.7757ZM17.9691 39.7806C17.9691 40.063 18.045 40.2855 18.197 40.4479C18.3488 40.6105 18.5393 40.6917 18.7685 40.6917C19.0018 40.6917 19.194 40.6097 19.3448 40.4456C19.4956 40.2815 19.571 40.0486 19.571 39.747C19.571 39.5563 19.5387 39.3897 19.4743 39.2474C19.4098 39.1051 19.3155 38.9948 19.1913 38.9166C19.0671 38.8382 18.9278 38.7991 18.7733 38.7991C18.5537 38.7991 18.3649 38.8745 18.2066 39.0253C18.0482 39.1761 17.9691 39.4279 17.9691 39.7806Z" fill="white"/>
  <path d="M20.2949 40.9172V38.5737H21.334C21.5429 38.5737 21.7017 38.5948 21.8103 38.6369C21.9191 38.679 22.0058 38.7534 22.0709 38.8599C22.1359 38.9665 22.1684 39.0842 22.1684 39.2132C22.1684 39.3794 22.1146 39.5196 22.0069 39.6335C21.8993 39.7476 21.7331 39.82 21.5082 39.8509C21.5902 39.8904 21.6526 39.9293 21.6952 39.9677C21.7858 40.0509 21.8716 40.1547 21.9526 40.2794L22.3602 40.9172H21.9701L21.66 40.4296C21.5694 40.2889 21.4948 40.1813 21.4362 40.1067C21.3775 40.0321 21.3251 39.98 21.2787 39.9501C21.2324 39.9203 21.1852 39.8995 21.1372 39.8878C21.102 39.8804 21.0445 39.8766 20.9645 39.8766H20.6048V40.9173H20.2949V40.9172ZM20.605 39.608H21.2717C21.4134 39.608 21.5243 39.5933 21.6042 39.564C21.6841 39.5347 21.7448 39.4879 21.7864 39.4233C21.8279 39.3588 21.8487 39.2889 21.8487 39.2131C21.8487 39.1023 21.8084 39.0111 21.728 38.9397C21.6474 38.8684 21.5204 38.8326 21.3467 38.8326H20.6049V39.608H20.605Z" fill="white"/>
  <path d="M23.192 40.9172V38.8503H22.4199V38.5737H24.2774V38.8503H23.5021V40.9172H23.192Z" fill="white"/>
  <defs>
    <linearGradient id="paint0_linear" x1="24" y1="30.0976" x2="24" y2="48.9976" gradientUnits="userSpaceOnUse">
      <stop/>
      <stop offset="1" stop-opacity="0"/>
    </linearGradient>
  </defs>
</svg>
