<svg width="48" height="49" viewBox="0 0 48 49" fill="none"
  xmlns="http://www.w3.org/2000/svg">
  <circle cx="24" cy="24.9976" r="24" fill="url(#paint0_linear)" fill-opacity="0.1"/>
  <path d="M48 11.1475C48 10.1563 47.1965 9.35278 46.2052 9.35278H1.79475C0.803531 9.35278 -4.62623e-08 10.1563 -1.0333e-07 11.1475L-2.50208e-07 13.6987L20.7947 17.3918L48 13.6987L48 11.1475Z" fill="#125D9D"/>
  <path d="M46.2051 9.35278L44.1367 9.35278L44.1367 15.1271L47.9999 13.6987L47.9999 11.1475C47.9999 10.1563 47.1963 9.35278 46.2051 9.35278Z" fill="#0D416E"/>
  <path d="M0 13.6987L-1.41298e-06 38.8521C-1.46866e-06 39.8434 0.80353 40.6469 1.79475 40.6469L46.2052 40.6469C47.1965 40.6469 48 39.8434 48 38.8521L48 13.6987L0 13.6987Z" fill="#F1F4F6"/>
  <path d="M44.1368 13.6987L44.1368 28.902C44.1368 34.3218 39.7432 38.7154 34.3235 38.7154L-2.18049e-06 38.7154L-2.19242e-06 38.8522C-2.27882e-06 39.8435 0.803529 40.647 1.79475 40.647L46.2052 40.647C47.1965 40.647 48 39.8435 48 38.8522L48 13.6987L44.1368 13.6987Z" fill="#DFEAEF"/>
  <path d="M15.5229 16.1133L2.85576 16.1133C2.61238 16.1133 2.41504 16.3106 2.41504 16.554L2.41504 29.9327C2.41504 30.1761 2.61238 30.3734 2.85576 30.3734L4.87345 30.3734L8.95345 29.1574L13.5053 30.3734L15.523 30.3734C15.7664 30.3734 15.9637 30.1761 15.9637 29.9327L15.9637 16.554C15.9636 16.3106 15.7664 16.1133 15.5229 16.1133Z" fill="#B9E4EF"/>
  <path d="M9.12559 28.5439C10.2684 28.5439 11.226 26.7175 11.4787 25.652L10.8765 25.652C10.5991 25.652 10.3744 25.4272 10.3744 25.1499L10.3744 24.647C9.95884 24.9312 8.41899 24.9312 8.0034 24.647L8.0034 25.1499C8.0034 25.4273 7.77859 25.6521 7.50127 25.6521L6.77246 25.6521C7.02512 26.7174 7.98277 28.5439 9.12559 28.5439Z" fill="#EAAC9D"/>
  <path d="M35.8378 19.2275L19.2685 19.2275C19.0436 19.2275 18.8613 19.0453 18.8613 18.8204L18.8613 16.5202C18.8613 16.2953 19.0436 16.113 19.2685 16.113L35.8378 16.113C36.0628 16.113 36.245 16.2953 36.245 16.5202L36.245 18.8204C36.245 19.0453 36.0628 19.2275 35.8378 19.2275Z" fill="#617881"/>
  <path d="M29.6727 32.6304L31.7817 32.6304C31.8899 32.6304 31.9776 32.7181 31.9776 32.8263L31.9776 38.7609C31.9776 38.8691 31.8899 38.9568 31.7817 38.9568L29.6727 38.9568C29.5645 38.9568 29.4767 38.8691 29.4767 38.7609L29.4767 32.8263C29.4767 32.7181 29.5645 32.6304 29.6727 32.6304ZM43.1707 38.761L43.1707 32.8264C43.1707 32.7182 43.083 32.6305 42.9748 32.6305L39.417 32.6305C39.3089 32.6305 39.2211 32.7182 39.2211 32.8264L39.2211 38.761C39.2211 38.8692 39.3089 38.9569 39.417 38.9569L42.9748 38.9569C43.083 38.9569 43.1707 38.8692 43.1707 38.761ZM35.1165 38.2325L35.1165 33.3547C35.1165 32.9547 34.7922 32.6304 34.3921 32.6304C33.9921 32.6304 33.6678 32.9547 33.6678 33.3547L33.6678 38.2325C33.6678 38.6325 33.9921 38.9568 34.3921 38.9568C34.7922 38.9568 35.1165 38.6325 35.1165 38.2325ZM27.7865 38.2325L27.7865 33.3547C27.7865 32.9547 27.4622 32.6304 27.0622 32.6304C26.6622 32.6304 26.3379 32.9547 26.3379 33.3547L26.3379 38.2325C26.3379 38.6325 26.6622 38.9568 27.0622 38.9568C27.4622 38.9568 27.7865 38.6325 27.7865 38.2325ZM46.3095 38.2325L46.3095 33.3547C46.3095 32.9547 45.9853 32.6304 45.5852 32.6304C45.1852 32.6304 44.8609 32.9547 44.8609 33.3547L44.8609 38.2325C44.8609 38.6325 45.1852 38.9568 45.5852 38.9568C45.9853 38.9568 46.3095 38.6325 46.3095 38.2325ZM37.531 38.2325L37.531 33.3547C37.531 32.9547 37.2067 32.6304 36.8067 32.6304C36.4066 32.6304 36.0824 32.9547 36.0824 33.3547L36.0824 38.2325C36.0824 38.6325 36.4066 38.9568 36.8067 38.9568C37.2067 38.9568 37.531 38.6325 37.531 38.2325Z" fill="#617881"/>
  <path d="M39.4166 38.9567L42.9744 38.9567C43.0826 38.9567 43.1703 38.8689 43.1703 38.7607L43.1703 33.1523C42.3114 34.9371 40.9283 36.4219 39.2207 37.4074L39.2207 38.7607C39.2207 38.8689 39.3085 38.9567 39.4166 38.9567Z" fill="#475959"/>
  <path d="M29.6735 38.9566L31.7825 38.9566C31.8907 38.9566 31.9784 38.8688 31.9784 38.7606L31.9784 38.7151L29.4775 38.7151L29.4775 38.7606C29.4775 38.8688 29.5653 38.9566 29.6735 38.9566Z" fill="#475959"/>
  <path d="M45.5847 32.6301C45.1845 32.6301 44.8604 32.9544 44.8604 33.3544L44.8604 38.2323C44.8604 38.6323 45.1846 38.9566 45.5847 38.9566C45.9847 38.9566 46.309 38.6323 46.309 38.2323L46.309 33.3544C46.3091 32.9545 45.9848 32.6301 45.5847 32.6301Z" fill="#475959"/>
  <path d="M27.6022 38.7151L26.5225 38.7151C26.6551 38.8633 26.8478 38.9565 27.0623 38.9565C27.2769 38.9566 27.4696 38.8633 27.6022 38.7151Z" fill="#475959"/>
  <path d="M37.5313 38.2321L37.5313 38.1787C37.0857 38.3327 36.6254 38.4556 36.1533 38.5446C36.27 38.7882 36.5188 38.9565 36.8069 38.9565C37.207 38.9566 37.5313 38.6322 37.5313 38.2321Z" fill="#475959"/>
  <path d="M34.9482 38.6956C34.7413 38.7086 34.5327 38.7152 34.3224 38.7152L33.8516 38.7152C33.9842 38.8635 34.1769 38.9566 34.3915 38.9566C34.6152 38.9566 34.8154 38.855 34.9482 38.6956Z" fill="#475959"/>
  <path d="M21.886 27.6784L18.8601 27.6784C18.46 27.6784 18.1357 27.3541 18.1357 26.954C18.1357 26.554 18.46 26.2297 18.8601 26.2297L21.886 26.2297C22.2861 26.2297 22.6103 26.554 22.6103 26.954C22.6104 27.3541 22.2861 27.6784 21.886 27.6784Z" fill="#617881"/>
  <path d="M36.2436 27.6781L24.8044 27.6781C24.4043 27.6781 24.0801 27.3538 24.0801 26.9538C24.0801 26.5538 24.4044 26.2295 24.8044 26.2295L36.2436 26.2295C36.6437 26.2295 36.9679 26.5538 36.9679 26.9538C36.9679 27.3538 36.6436 27.6781 36.2436 27.6781Z" fill="#617881"/>
  <path d="M28.5116 30.0927L24.8054 30.0927C24.4052 30.0927 24.0811 29.7684 24.0811 29.3684C24.0811 28.9683 24.4053 28.644 24.8054 28.644L28.5116 28.644C28.9117 28.644 29.2359 28.9683 29.2359 29.3684C29.2359 29.7684 28.9116 30.0927 28.5116 30.0927Z" fill="#617881"/>
  <path d="M21.886 22.8493L18.8601 22.8493C18.46 22.8493 18.1357 22.525 18.1357 22.1249C18.1357 21.7249 18.46 21.4006 18.8601 21.4006L21.886 21.4006C22.2861 21.4006 22.6103 21.7249 22.6103 22.1249C22.6103 22.525 22.2861 22.8493 21.886 22.8493Z" fill="#617881"/>
  <path d="M36.2436 22.8493L24.8044 22.8493C24.4043 22.8493 24.0801 22.525 24.0801 22.1249C24.0801 21.7249 24.4044 21.4006 24.8044 21.4006L36.2436 21.4006C36.6437 21.4006 36.9679 21.7249 36.9679 22.1249C36.9679 22.525 36.6436 22.8493 36.2436 22.8493Z" fill="#617881"/>
  <path d="M36.2438 25.2638L34.3122 25.2638C33.9121 25.2638 33.5879 24.9395 33.5879 24.5395C33.5879 24.1395 33.9122 23.8152 34.3122 23.8152L36.2438 23.8152C36.644 23.8152 36.9681 24.1395 36.9681 24.5395C36.9681 24.9395 36.6439 25.2638 36.2438 25.2638Z" fill="#617881"/>
  <path d="M31.8989 25.2638L29.8591 25.2638C29.459 25.2638 29.1348 24.9395 29.1348 24.5395C29.1348 24.1395 29.459 23.8152 29.8591 23.8152L31.8989 23.8152C32.299 23.8152 32.6232 24.1395 32.6232 24.5395C32.6232 24.9395 32.299 25.2638 31.8989 25.2638Z" fill="#617881"/>
  <path d="M45.7689 18.4802C43.6421 17.9242 41.3937 17.9242 39.2669 18.4802C38.8798 18.5813 38.6481 18.9772 38.7493 19.3642C38.8504 19.7512 39.2462 19.9828 39.6333 19.8818C40.3421 19.6966 41.0659 19.5809 41.7936 19.5348L41.7936 22.2488C41.7936 22.6489 42.1179 22.9732 42.5179 22.9732C42.9179 22.9732 43.2422 22.6489 43.2422 22.2488L43.2422 19.5348C43.9699 19.5809 44.6937 19.6966 45.4025 19.8818C45.4639 19.8979 45.5255 19.9056 45.5861 19.9056C45.9077 19.9056 46.2013 19.6898 46.2865 19.3642C46.3877 18.9772 46.156 18.5813 45.7689 18.4802Z" fill="#86A0AF"/>
  <path d="M45.7685 18.4802C45.2311 18.3398 44.6858 18.2348 44.1367 18.1653L44.1367 19.6269C44.5622 19.6878 44.9849 19.7727 45.4022 19.8818C45.4636 19.8978 45.5252 19.9055 45.5859 19.9055C45.9075 19.9055 46.2011 19.6898 46.2862 19.3641C46.3874 18.9772 46.1556 18.5813 45.7685 18.4802Z" fill="#738B95"/>
  <path d="M3.63544 37.5151C3.45225 37.5151 3.26888 37.446 3.12788 37.3074C2.8425 37.0271 2.83838 36.5685 3.11878 36.2831L5.30091 34.0619C5.54269 33.8157 5.89153 33.6973 6.23288 33.7454C6.5746 33.7934 6.87703 34.003 7.04175 34.3063L7.14506 34.4965L7.88016 34.0622C8.30738 33.8096 8.85244 33.8771 9.20541 34.2262L10.6934 35.6983L16.275 35.6983C16.675 35.6983 16.9993 36.0226 16.9993 36.4226C16.9993 36.8227 16.675 37.1469 16.275 37.1469L10.5474 37.1469C10.2576 37.1469 9.98456 37.0347 9.7785 36.8309L8.38135 35.4488L7.56497 35.9312C7.31091 36.0814 7.00191 36.1224 6.71738 36.0438C6.43285 35.965 6.18881 35.7712 6.04791 35.5118L5.99794 35.4198L4.15228 37.2984C4.01035 37.4427 3.82294 37.5151 3.63544 37.5151Z" fill="#617881"/>
  <path d="M42.5178 22.9733C40.4268 22.9733 38.7256 21.2721 38.7256 19.1811C38.7256 17.0901 40.4268 15.3889 42.5178 15.3889C44.6088 15.3889 46.31 17.0901 46.31 19.1811C46.31 21.2721 44.6088 22.9733 42.5178 22.9733ZM42.5178 16.8376C41.2255 16.8376 40.1743 17.8889 40.1743 19.1811C40.1743 20.4733 41.2255 21.5246 42.5178 21.5246C43.81 21.5246 44.8612 20.4733 44.8612 19.1811C44.8612 17.8889 43.81 16.8376 42.5178 16.8376Z" fill="#617881"/>
  <path d="M44.1367 15.7522L44.1367 17.4884C44.5829 17.9153 44.861 18.5162 44.861 19.181C44.861 19.8458 44.5828 20.4467 44.1367 20.8737L44.1367 22.6098C45.4201 22.0014 46.3098 20.6932 46.3098 19.181C46.3098 17.6688 45.4201 16.3607 44.1367 15.7522Z" fill="#475959"/>
  <path d="M9.15941 18.5275C7.79956 18.5442 6.76906 19.695 6.869 21.0513L7.02547 23.1754C7.10891 24.3084 8.50588 25.0937 9.18875 25.0937C9.87162 25.0937 11.2686 24.3084 11.352 23.1754L11.5103 21.0261C11.6104 19.6671 10.5263 18.5108 9.15941 18.5275Z" fill="#FFCBBE"/>
  <path d="M11.8287 25.6519L11.4797 25.6519C11.2271 26.7174 10.2694 27.5101 9.12662 27.5101C7.9838 27.5101 7.02615 26.7174 6.77349 25.6519L6.55112 25.6519C5.62487 25.6519 4.87402 26.4027 4.87402 27.329L4.87402 30.3733L13.5059 30.3733L13.5059 27.3289C13.5058 26.4027 12.7549 25.6519 11.8287 25.6519Z" fill="#F4DD45"/>
  <defs>
    <linearGradient id="paint0_linear" x1="24" y1="30.0976" x2="24" y2="48.9976" gradientUnits="userSpaceOnUse">
      <stop/>
      <stop offset="1" stop-opacity="0"/>
    </linearGradient>
  </defs>
</svg>
