<svg width="88" height="88" viewBox="0 0 88 88" fill="none" xmlns="http://www.w3.org/2000/svg">
<path d="M71.5 44V82.5C71.5 84.0189 70.2689 85.25 68.75 85.25H16.5C14.9811 85.25 13.75 84.0189 13.75 82.5V44H71.5Z" fill="#125D9D"/>
<path d="M71.5 44V82.5C71.5 84.0189 70.2689 85.25 68.75 85.25H16.5C14.9811 85.25 13.75 84.0189 13.75 82.5V44H71.5Z" fill="url(#paint0_linear_38_728)"/>
<path d="M68.75 46.75V79.75C68.75 81.2689 67.5189 82.5 66 82.5H13.75C12.2311 82.5 11 81.2689 11 79.75V46.75C11 45.2311 12.2311 44 13.75 44H71.5C69.9811 44 68.75 45.2311 68.75 46.75Z" fill="#F1F4F6"/>
<path d="M68.75 46.75V79.75C68.75 81.2689 67.5189 82.5 66 82.5H13.75C12.2311 82.5 11 81.2689 11 79.75V46.75C11 45.2311 12.2311 44 13.75 44H71.5C69.9811 44 68.75 45.2311 68.75 46.75Z" fill="url(#paint1_linear_38_728)"/>
<path d="M71.5 5.5V44H13.75V5.5C13.75 3.98114 14.9811 2.75 16.5 2.75H68.75C70.2689 2.75 71.5 3.98114 71.5 5.5Z" fill="#094578"/>
<path d="M71.5 5.5V44H13.75V5.5C13.75 3.98114 14.9811 2.75 16.5 2.75H68.75C70.2689 2.75 71.5 3.98114 71.5 5.5Z" fill="url(#paint2_linear_38_728)"/>
<path d="M68.75 41.25V8.25C68.75 6.73114 67.5189 5.5 66 5.5H13.75C12.2311 5.5 11 6.73114 11 8.25V41.25C11 42.7689 12.2311 44 13.75 44H71.5C69.9811 44 68.75 42.7689 68.75 41.25Z" fill="#DFEAEF"/>
<path d="M68.75 41.25V8.25C68.75 6.73114 67.5189 5.5 66 5.5H13.75C12.2311 5.5 11 6.73114 11 8.25V41.25C11 42.7689 12.2311 44 13.75 44H71.5C69.9811 44 68.75 42.7689 68.75 41.25Z" fill="url(#paint3_linear_38_728)"/>
<path d="M33.6368 49.5H17.6992C16.9226 49.5 16.293 50.1296 16.293 50.9062V70.5938C16.293 71.3704 16.9226 72 17.6992 72H33.6368C34.4134 72 35.043 71.3704 35.043 70.5938V50.9062C35.043 50.1296 34.4134 49.5 33.6368 49.5Z" fill="url(#paint4_linear_38_728)"/>
<path d="M25.3796 69.0747C27.2069 69.0747 28.738 66.1546 29.1421 64.4508H28.1791C27.7357 64.4508 27.3764 64.0914 27.3764 63.6481V62.8439C26.7119 63.2984 24.2499 63.2984 23.5854 62.8439V63.6481C23.5854 64.0915 23.2259 64.451 22.7825 64.451H21.6172C22.0212 66.1544 23.5524 69.0747 25.3796 69.0747Z" fill="#EAAC9D"/>
<path d="M25.4346 53.0598C23.2603 53.0864 21.6126 54.9264 21.7724 57.095L22.0226 60.4913C22.156 62.3029 24.3897 63.5585 25.4815 63.5585C26.5734 63.5585 28.807 62.3029 28.9404 60.4913L29.1934 57.0549C29.3535 54.8819 27.6201 53.0331 25.4346 53.0598Z" fill="#FFCBBE"/>
<path d="M29.698 64.4508H29.1401C28.7361 66.1546 27.2049 67.422 25.3777 67.422C23.5504 67.422 22.0192 66.1546 21.6152 64.4508H21.2597C19.7787 64.4508 18.5781 65.6514 18.5781 67.1324V72H32.3797V67.1324C32.3796 65.6514 31.179 64.4508 29.698 64.4508Z" fill="url(#paint5_linear_38_728)"/>
<path fill-rule="evenodd" clip-rule="evenodd" d="M42.625 52.25H39.875C39.1157 52.25 38.5 51.6343 38.5 50.875C38.5 50.1157 39.1157 49.5 39.875 49.5H42.625C43.3843 49.5 44 50.1157 44 50.875C44 51.6343 43.3843 52.25 42.625 52.25ZM61.875 52.25H48.125C47.3657 52.25 46.75 51.6343 46.75 50.875C46.75 50.1157 47.3657 49.5 48.125 49.5H61.875C62.6343 49.5 63.25 50.1157 63.25 50.875C63.25 51.6343 62.6343 52.25 61.875 52.25ZM39.875 57.75H42.625C43.3843 57.75 44 57.1343 44 56.375C44 55.6157 43.3843 55 42.625 55H39.875C39.1157 55 38.5 55.6157 38.5 56.375C38.5 57.1343 39.1157 57.75 39.875 57.75ZM61.875 57.75H48.125C47.3657 57.75 46.75 57.1343 46.75 56.375C46.75 55.6157 47.3657 55 48.125 55H61.875C62.6343 55 63.25 55.6157 63.25 56.375C63.25 57.1343 62.6343 57.75 61.875 57.75ZM39.875 63.25H42.625C43.3843 63.25 44 62.6343 44 61.875C44 61.1157 43.3843 60.5 42.625 60.5H39.875C39.1157 60.5 38.5 61.1157 38.5 61.875C38.5 62.6343 39.1157 63.25 39.875 63.25ZM61.875 63.25H48.125C47.3657 63.25 46.75 62.6343 46.75 61.875C46.75 61.1157 47.3657 60.5 48.125 60.5H61.875C62.6343 60.5 63.25 61.1157 63.25 61.875C63.25 62.6343 62.6343 63.25 61.875 63.25ZM39.875 68.75H42.625C43.3843 68.75 44 68.1343 44 67.375C44 66.6157 43.3843 66 42.625 66H39.875C39.1157 66 38.5 66.6157 38.5 67.375C38.5 68.1343 39.1157 68.75 39.875 68.75ZM61.875 68.75H48.125C47.3657 68.75 46.75 68.1343 46.75 67.375C46.75 66.6157 47.3657 66 48.125 66H61.875C62.6343 66 63.25 66.6157 63.25 67.375C63.25 68.1343 62.6343 68.75 61.875 68.75ZM16.5 75.625C16.5 76.3843 17.1157 77 17.875 77H61.875C62.6343 77 63.25 76.3843 63.25 75.625C63.25 74.8657 62.6343 74.25 61.875 74.25H17.875C17.1157 74.25 16.5 74.8657 16.5 75.625Z" fill="#A5C3DC"/>
<path fill-rule="evenodd" clip-rule="evenodd" d="M42.625 52.25H39.875C39.1157 52.25 38.5 51.6343 38.5 50.875C38.5 50.1157 39.1157 49.5 39.875 49.5H42.625C43.3843 49.5 44 50.1157 44 50.875C44 51.6343 43.3843 52.25 42.625 52.25ZM61.875 52.25H48.125C47.3657 52.25 46.75 51.6343 46.75 50.875C46.75 50.1157 47.3657 49.5 48.125 49.5H61.875C62.6343 49.5 63.25 50.1157 63.25 50.875C63.25 51.6343 62.6343 52.25 61.875 52.25ZM39.875 57.75H42.625C43.3843 57.75 44 57.1343 44 56.375C44 55.6157 43.3843 55 42.625 55H39.875C39.1157 55 38.5 55.6157 38.5 56.375C38.5 57.1343 39.1157 57.75 39.875 57.75ZM61.875 57.75H48.125C47.3657 57.75 46.75 57.1343 46.75 56.375C46.75 55.6157 47.3657 55 48.125 55H61.875C62.6343 55 63.25 55.6157 63.25 56.375C63.25 57.1343 62.6343 57.75 61.875 57.75ZM39.875 63.25H42.625C43.3843 63.25 44 62.6343 44 61.875C44 61.1157 43.3843 60.5 42.625 60.5H39.875C39.1157 60.5 38.5 61.1157 38.5 61.875C38.5 62.6343 39.1157 63.25 39.875 63.25ZM61.875 63.25H48.125C47.3657 63.25 46.75 62.6343 46.75 61.875C46.75 61.1157 47.3657 60.5 48.125 60.5H61.875C62.6343 60.5 63.25 61.1157 63.25 61.875C63.25 62.6343 62.6343 63.25 61.875 63.25ZM39.875 68.75H42.625C43.3843 68.75 44 68.1343 44 67.375C44 66.6157 43.3843 66 42.625 66H39.875C39.1157 66 38.5 66.6157 38.5 67.375C38.5 68.1343 39.1157 68.75 39.875 68.75ZM61.875 68.75H48.125C47.3657 68.75 46.75 68.1343 46.75 67.375C46.75 66.6157 47.3657 66 48.125 66H61.875C62.6343 66 63.25 66.6157 63.25 67.375C63.25 68.1343 62.6343 68.75 61.875 68.75ZM16.5 75.625C16.5 76.3843 17.1157 77 17.875 77H61.875C62.6343 77 63.25 76.3843 63.25 75.625C63.25 74.8657 62.6343 74.25 61.875 74.25H17.875C17.1157 74.25 16.5 74.8657 16.5 75.625Z" fill="url(#paint6_linear_38_728)"/>
<path d="M63.2695 13.75H66.0006C67.5195 13.75 68.7506 12.5189 68.7506 11V8.7084C65.8674 8.7084 63.5024 10.927 63.2695 13.75Z" fill="#FFD205"/>
<path fill-rule="evenodd" clip-rule="evenodd" d="M74.25 14.2084C74.25 16.2442 73.144 18.0216 71.5 18.9726V27.5H81.125C81.8843 27.5 82.5 28.1157 82.5 28.875V33C82.5 33.7593 81.8843 34.375 81.125 34.375H56.375C55.6157 34.375 55 33.7593 55 33V28.875C55 28.1157 55.6157 27.5 56.375 27.5H66V18.9726C64.356 18.0216 63.25 16.2442 63.25 14.2084C63.25 11.1708 65.7124 8.7084 68.75 8.7084C71.7876 8.7084 74.25 11.1708 74.25 14.2084Z" fill="#FFD205"/>
<path fill-rule="evenodd" clip-rule="evenodd" d="M74.25 14.2084C74.25 16.2442 73.144 18.0216 71.5 18.9726V27.5H81.125C81.8843 27.5 82.5 28.1157 82.5 28.875V33C82.5 33.7593 81.8843 34.375 81.125 34.375H56.375C55.6157 34.375 55 33.7593 55 33V28.875C55 28.1157 55.6157 27.5 56.375 27.5H66V18.9726C64.356 18.0216 63.25 16.2442 63.25 14.2084C63.25 11.1708 65.7124 8.7084 68.75 8.7084C71.7876 8.7084 74.25 11.1708 74.25 14.2084Z" fill="url(#paint7_linear_38_728)"/>
<path d="M57.75 37.125H79.75C80.5093 37.125 81.125 36.5093 81.125 35.75V34.375H56.375V35.75C56.375 36.5093 56.9907 37.125 57.75 37.125Z" fill="#289BC3"/>
<path d="M57.75 37.125H79.75C80.5093 37.125 81.125 36.5093 81.125 35.75V34.375H56.375V35.75C56.375 36.5093 56.9907 37.125 57.75 37.125Z" fill="url(#paint8_linear_38_728)"/>
<path fill-rule="evenodd" clip-rule="evenodd" d="M24.75 24.75C24.75 33.0899 31.5351 39.875 39.875 39.875C48.2149 39.875 55 33.0899 55 24.75C55 16.4101 48.2149 9.625 39.875 9.625C31.5351 9.625 24.75 16.4101 24.75 24.75ZM27.5 24.75C27.5 17.9264 33.0514 12.375 39.875 12.375C46.6986 12.375 52.25 17.9264 52.25 24.75C52.25 31.5736 46.6986 37.125 39.875 37.125C33.0514 37.125 27.5 31.5736 27.5 24.75ZM29.5625 24.75C29.5625 30.4363 34.1887 35.0625 39.875 35.0625C45.5613 35.0625 50.1875 30.4363 50.1875 24.75C50.1875 19.0637 45.5613 14.4375 39.875 14.4375C34.1887 14.4375 29.5625 19.0637 29.5625 24.75ZM30.9375 24.75C30.9375 19.8218 34.9468 15.8125 39.875 15.8125C41.0784 15.8125 42.227 16.0516 43.2759 16.4847L31.6097 28.1509C31.1766 27.102 30.9375 25.9534 30.9375 24.75ZM32.2677 29.4371L44.5621 17.1427C45.7464 17.8751 46.7478 18.8761 47.4806 20.0601L35.1851 32.3556C34.0011 31.6228 33.0001 30.6214 32.2677 29.4371ZM36.471 33.014C37.5207 33.448 38.6704 33.6875 39.875 33.6875C44.8032 33.6875 48.8125 29.6782 48.8125 24.75C48.8125 23.5454 48.573 22.3957 48.139 21.346L36.471 33.014Z" fill="#289BC3"/>
<path fill-rule="evenodd" clip-rule="evenodd" d="M24.75 24.75C24.75 33.0899 31.5351 39.875 39.875 39.875C48.2149 39.875 55 33.0899 55 24.75C55 16.4101 48.2149 9.625 39.875 9.625C31.5351 9.625 24.75 16.4101 24.75 24.75ZM27.5 24.75C27.5 17.9264 33.0514 12.375 39.875 12.375C46.6986 12.375 52.25 17.9264 52.25 24.75C52.25 31.5736 46.6986 37.125 39.875 37.125C33.0514 37.125 27.5 31.5736 27.5 24.75ZM29.5625 24.75C29.5625 30.4363 34.1887 35.0625 39.875 35.0625C45.5613 35.0625 50.1875 30.4363 50.1875 24.75C50.1875 19.0637 45.5613 14.4375 39.875 14.4375C34.1887 14.4375 29.5625 19.0637 29.5625 24.75ZM30.9375 24.75C30.9375 19.8218 34.9468 15.8125 39.875 15.8125C41.0784 15.8125 42.227 16.0516 43.2759 16.4847L31.6097 28.1509C31.1766 27.102 30.9375 25.9534 30.9375 24.75ZM32.2677 29.4371L44.5621 17.1427C45.7464 17.8751 46.7478 18.8761 47.4806 20.0601L35.1851 32.3556C34.0011 31.6228 33.0001 30.6214 32.2677 29.4371ZM36.471 33.014C37.5207 33.448 38.6704 33.6875 39.875 33.6875C44.8032 33.6875 48.8125 29.6782 48.8125 24.75C48.8125 23.5454 48.573 22.3957 48.139 21.346L36.471 33.014Z" fill="url(#paint9_linear_38_728)"/>
<defs>
<linearGradient id="paint0_linear_38_728" x1="22.5891" y1="44" x2="51.6678" y2="76.4045" gradientUnits="userSpaceOnUse">
<stop stop-color="#4A81D5"/>
<stop offset="1" stop-color="#3264B0"/>
</linearGradient>
<linearGradient id="paint1_linear_38_728" x1="38.6219" y1="65.4277" x2="39.4204" y2="123.64" gradientUnits="userSpaceOnUse">
<stop stop-color="#F7F7F7"/>
<stop offset="1" stop-color="#A3A3A3"/>
</linearGradient>
<linearGradient id="paint2_linear_38_728" x1="22.5891" y1="2.75" x2="51.6678" y2="35.1545" gradientUnits="userSpaceOnUse">
<stop stop-color="#4A81D5"/>
<stop offset="1" stop-color="#3264B0"/>
</linearGradient>
<linearGradient id="paint3_linear_38_728" x1="38.6219" y1="26.9277" x2="39.4204" y2="85.1401" gradientUnits="userSpaceOnUse">
<stop stop-color="#F7F7F7"/>
<stop offset="1" stop-color="#A3A3A3"/>
</linearGradient>
<linearGradient id="paint4_linear_38_728" x1="25.668" y1="49.5" x2="25.668" y2="72" gradientUnits="userSpaceOnUse">
<stop stop-color="#B8D8FF"/>
<stop offset="1" stop-color="#73B0FB"/>
</linearGradient>
<linearGradient id="paint5_linear_38_728" x1="25.4789" y1="64.4508" x2="25.4789" y2="72" gradientUnits="userSpaceOnUse">
<stop stop-color="#FFECB3"/>
<stop offset="1" stop-color="#FFD964"/>
</linearGradient>
<linearGradient id="paint6_linear_38_728" x1="41.0455" y1="52.5931" x2="40.2531" y2="62.0784" gradientUnits="userSpaceOnUse">
<stop stop-color="#677FAA"/>
<stop offset="1" stop-color="#3E4F6D"/>
</linearGradient>
<linearGradient id="paint7_linear_38_728" x1="68.75" y1="8.7084" x2="68.75" y2="34.375" gradientUnits="userSpaceOnUse">
<stop stop-color="#FFECB3"/>
<stop offset="1" stop-color="#FFD964"/>
</linearGradient>
<linearGradient id="paint8_linear_38_728" x1="69.3697" y1="34.6843" x2="69.3546" y2="35.6392" gradientUnits="userSpaceOnUse">
<stop stop-color="#677FAA"/>
<stop offset="1" stop-color="#3E4F6D"/>
</linearGradient>
<linearGradient id="paint9_linear_38_728" x1="36.8316" y1="30.7092" x2="38.3268" y2="31.9469" gradientUnits="userSpaceOnUse">
<stop stop-color="#4A81D5"/>
<stop offset="1" stop-color="#3264B0"/>
</linearGradient>
</defs>
</svg>
