<svg width="88" height="88" viewBox="0 0 88 88" fill="none" xmlns="http://www.w3.org/2000/svg">
<g clip-path="url(#clip0_38_687)">
<path d="M81.5627 9.52663C84.7647 10.3846 86.6649 13.6758 85.8068 16.8777L67.9421 83.5498C67.0842 86.7517 63.793 88.652 60.5911 87.7939L25.8056 78.473C22.6037 77.6151 20.7034 74.3239 21.5615 71.1219L39.4262 4.44999C40.2841 1.24806 43.5753 -0.652165 46.7773 0.205946L81.5627 9.52663Z" fill="#F5F9EC"/>
<path d="M54.641 18.3716H35.6954L21.5614 71.1221C20.7035 74.3239 22.6039 77.6151 25.8059 78.473L60.5912 87.7933C63.7929 88.6512 67.0841 86.7516 67.942 83.5496L78.9052 42.6355L54.641 18.3716Z" fill="#F1F4F6"/>
<path d="M54.641 18.3716H35.6954L21.5614 71.1221C20.7035 74.3239 22.6039 77.6151 25.8059 78.473L60.5912 87.7933C63.7929 88.6512 67.0841 86.7516 67.942 83.5496L78.9052 42.6355L54.641 18.3716Z" fill="url(#paint0_linear_38_687)"/>
<path d="M81.5636 9.52662C84.7655 10.3845 86.6657 13.6758 85.8076 16.8777L78.0404 45.8655L31.6602 33.438L39.4274 4.45017C40.2853 1.24824 43.5766 -0.651982 46.7785 0.206129L81.5636 9.52662Z" fill="#617881"/>
<path d="M81.5636 9.52662C84.7655 10.3845 86.6657 13.6758 85.8076 16.8777L78.0404 45.8655L31.6602 33.438L39.4274 4.45017C40.2853 1.24824 43.5766 -0.651982 46.7785 0.206129L81.5636 9.52662Z" fill="url(#paint1_linear_38_687)"/>
<path d="M41.8564 76.5538L47.293 56.2634L44.3943 55.4867L38.9577 75.7771L41.8564 76.5538Z" fill="#617881"/>
<path d="M48.8451 50.4694L50.3984 44.6722L47.4997 43.8955L45.9464 49.6927L48.8451 50.4694Z" fill="#617881"/>
<path d="M50.5439 78.886L55.9805 58.5956L53.0818 57.8189L47.6452 78.1093L50.5439 78.886Z" fill="#617881"/>
<path fill-rule="evenodd" clip-rule="evenodd" d="M57.9385 51.3418L58.7151 48.4432C58.9296 47.6428 58.4545 46.82 57.6541 46.6055C56.8536 46.3911 56.0309 46.8661 55.8164 47.6666L55.0398 50.5651C54.8253 51.3655 55.3003 52.1883 56.1008 52.4028C56.9012 52.6172 57.724 52.1422 57.9385 51.3418ZM66.626 53.6754L67.4026 50.7769C67.6171 49.9765 67.142 49.1537 66.3416 48.9392C65.5411 48.7247 64.7184 49.1998 64.5039 50.0002L63.7273 52.8988C63.5128 53.6992 63.9878 54.522 64.7883 54.7365C65.5887 54.9509 66.4115 54.4759 66.626 53.6754ZM64.3049 62.3789L59.6451 79.7706C59.4306 80.571 58.6078 81.0461 57.8074 80.8316C57.0069 80.6171 56.5319 79.7944 56.7464 78.9939L61.4062 61.6022C61.6207 60.8017 62.4435 60.3267 63.2439 60.5412C64.0444 60.7557 64.5194 61.5784 64.3049 62.3789Z" fill="#617881"/>
<path fill-rule="evenodd" clip-rule="evenodd" d="M57.9385 51.3418L58.7151 48.4432C58.9296 47.6428 58.4545 46.82 57.6541 46.6055C56.8536 46.3911 56.0309 46.8661 55.8164 47.6666L55.0398 50.5651C54.8253 51.3655 55.3003 52.1883 56.1008 52.4028C56.9012 52.6172 57.724 52.1422 57.9385 51.3418ZM66.626 53.6754L67.4026 50.7769C67.6171 49.9765 67.142 49.1537 66.3416 48.9392C65.5411 48.7247 64.7184 49.1998 64.5039 50.0002L63.7273 52.8988C63.5128 53.6992 63.9878 54.522 64.7883 54.7365C65.5887 54.9509 66.4115 54.4759 66.626 53.6754ZM64.3049 62.3789L59.6451 79.7706C59.4306 80.571 58.6078 81.0461 57.8074 80.8316C57.0069 80.6171 56.5319 79.7944 56.7464 78.9939L61.4062 61.6022C61.6207 60.8017 62.4435 60.3267 63.2439 60.5412C64.0444 60.7557 64.5194 61.5784 64.3049 62.3789Z" fill="url(#paint2_linear_38_687)"/>
<path d="M71.3149 12.994L68.8302 12.3281L59.9556 20.6024C57.6298 19.9793 55.0207 19.28 54.5725 19.16C52.9161 18.7162 51.0376 19.1005 50.8157 19.9286C50.5938 20.7569 52.0283 22.029 53.6847 22.4728C54.1328 22.5928 56.742 23.2918 59.0678 23.9151L62.6164 35.5183L65.1011 36.1841L64.8653 25.4687C66.4975 25.9061 68.1632 26.3524 69.2554 26.645L71.1846 30.0468L72.8409 30.4906L72.5562 25.7538L75.1712 21.7941L73.5149 21.3504L70.1434 23.332C69.0514 23.0394 67.3856 22.593 65.7532 22.1558L71.3149 12.994Z" fill="#F5F9EC"/>
<path d="M71.3149 12.994L68.8302 12.3281L59.9556 20.6024C57.6298 19.9793 55.0207 19.28 54.5725 19.16C52.9161 18.7162 51.0376 19.1005 50.8157 19.9286C50.5938 20.7569 52.0283 22.029 53.6847 22.4728C54.1328 22.5928 56.742 23.2918 59.0678 23.9151L62.6164 35.5183L65.1011 36.1841L64.8653 25.4687C66.4975 25.9061 68.1632 26.3524 69.2554 26.645L71.1846 30.0468L72.8409 30.4906L72.5562 25.7538L75.1712 21.7941L73.5149 21.3504L70.1434 23.332C69.0514 23.0394 67.3856 22.593 65.7532 22.1558L71.3149 12.994Z" fill="url(#paint3_linear_38_687)"/>
<path d="M49.68 0.982653L28.7083 79.2499L25.8095 78.4732C22.6076 77.6153 20.7073 74.3241 21.5654 71.1221L39.4303 4.44999C40.2882 1.24806 43.5794 -0.652165 46.7813 0.205946L49.68 0.982653Z" fill="#86A0AF"/>
<path d="M49.68 0.982653L28.7083 79.2499L25.8095 78.4732C22.6076 77.6153 20.7073 74.3241 21.5654 71.1221L39.4303 4.44999C40.2882 1.24806 43.5794 -0.652165 46.7813 0.205946L49.68 0.982653Z" fill="url(#paint4_linear_38_687)"/>
<path d="M49.68 0.982653L28.7083 79.2499L25.8095 78.4732C22.6076 77.6153 20.7073 74.3241 21.5654 71.1221L39.4303 4.44999C40.2882 1.24806 43.5794 -0.652165 46.7813 0.205946L49.68 0.982653Z" fill="url(#paint5_linear_38_687)"/>
<path d="M49.68 0.982653L28.7083 79.2499L25.8095 78.4732C22.6076 77.6153 20.7073 74.3241 21.5654 71.1221L39.4303 4.44999C40.2882 1.24806 43.5794 -0.652165 46.7813 0.205946L49.68 0.982653Z" fill="url(#paint6_linear_38_687)"/>
<path d="M56.0032 76.1798C56.0032 79.4947 53.3159 82.1819 50.0011 82.1819H4.98542C3.3279 82.1819 1.98438 80.8384 1.98438 79.1809V19.16C1.98438 17.5025 3.3279 16.1589 4.98542 16.1589H50.0011C53.3159 16.1589 56.0032 18.8462 56.0032 22.161V76.1798Z" fill="url(#paint7_linear_38_687)"/>
<path d="M28.9946 25.1621C19.05 25.1621 10.9883 33.2238 10.9883 43.1683C10.9883 53.1129 19.05 61.1746 28.9946 61.1746C38.9391 61.1746 47.0008 53.1129 47.0008 43.1683C47.0008 33.2238 38.9393 25.1621 28.9946 25.1621ZM42.3205 36.416H35.8311C35.2105 33.3062 34.2411 30.7926 33.2513 28.8534C37.2167 30.0367 40.472 32.7864 42.3205 36.416ZM33.4961 43.1683C33.4961 44.5079 33.3958 45.7386 33.2579 46.9197H24.7318C24.5933 45.7386 24.4928 44.5077 24.4928 43.1683C24.4928 41.8282 24.5916 40.5978 24.7288 39.417H33.2607C33.3973 40.5978 33.4961 41.8284 33.4961 43.1683ZM25.2294 36.416C26.0625 32.6555 27.437 29.9236 28.5579 28.207C28.7059 28.2027 28.8451 28.1631 28.9946 28.1631C29.1455 28.1631 29.2853 28.2035 29.4355 28.2078C30.5617 29.9354 31.9311 32.6684 32.7603 36.416H25.2294ZM24.7378 28.8534C23.7515 30.7885 22.7814 33.3049 22.1602 36.416H15.6686C17.5172 32.7864 20.7724 30.0375 24.7378 28.8534ZM14.522 39.417H21.7044C21.5792 40.6055 21.4919 41.8415 21.4919 43.1683C21.4919 44.4959 21.5814 45.7305 21.7088 46.9197H14.5218C14.2082 45.7136 13.9891 44.4712 13.9891 43.1683C13.9893 41.8657 14.2084 40.6231 14.522 39.417ZM15.6686 49.9207H22.1675C22.7948 53.0375 23.7654 55.5726 24.7334 57.482C20.7704 56.2979 17.5165 53.549 15.6686 49.9207ZM28.5579 58.1297C27.4824 56.4754 26.0815 53.7361 25.2331 49.9207H32.7564C31.9093 53.7335 30.5099 56.4716 29.4308 58.1297C29.2828 58.134 29.1444 58.1736 28.9949 58.1736C28.8454 58.1736 28.7066 58.1342 28.5579 58.1297ZM33.2573 57.482C34.2267 55.5707 35.1968 53.0377 35.8225 49.9207H42.3207C40.4728 53.5488 37.2197 56.2972 33.2573 57.482ZM43.4673 46.9197H36.2811C36.4079 45.7305 36.4972 44.4959 36.4972 43.1683C36.4972 41.8415 36.4107 40.6055 36.2854 39.417H43.4671C43.7807 40.6231 43.9998 41.8655 43.9998 43.1683C43.9998 44.4712 43.7807 45.7138 43.4673 46.9197Z" fill="url(#paint8_linear_38_687)"/>
<path d="M12.957 73.182V68.8856H14.5778C14.8631 68.8856 15.0808 68.8993 15.2313 68.9267C15.4423 68.962 15.619 69.0289 15.7617 69.1274C15.9042 69.2261 16.019 69.3645 16.1061 69.5421C16.1929 69.7199 16.2364 69.9154 16.2364 70.1282C16.2364 70.4936 16.1201 70.8029 15.8877 71.0558C15.6552 71.309 15.2352 71.4352 14.6275 71.4352H13.5255V73.182H12.957ZM13.5255 70.9282H14.6363C15.0036 70.9282 15.2645 70.8599 15.4188 70.723C15.5732 70.5863 15.6503 70.3938 15.6503 70.1457C15.6503 69.966 15.6049 69.8122 15.5139 69.6841C15.4231 69.5562 15.3033 69.4716 15.1549 69.4305C15.0591 69.4052 14.8824 69.3924 14.6245 69.3924H13.5255V70.9282Z" fill="white"/>
<path d="M16.043 73.182L17.693 68.8856H18.3056L20.064 73.182H19.4163L18.9152 71.8807H17.1187L16.6467 73.182H16.043ZM17.2826 71.4176H18.7392L18.2908 70.2276C18.154 69.8662 18.0524 69.5693 17.986 69.3367C17.9312 69.6122 17.8541 69.8859 17.7545 70.1573L17.2826 71.4176Z" fill="white"/>
<path d="M20.3242 71.8015L20.8605 71.7546C20.8858 71.9696 20.9449 72.1459 21.0377 72.2835C21.1306 72.4212 21.2746 72.5326 21.4701 72.6176C21.6655 72.7026 21.8851 72.7451 22.1295 72.7451C22.3464 72.7451 22.5379 72.7129 22.704 72.6484C22.87 72.5838 22.9936 72.4957 23.0749 72.3831C23.1559 72.2708 23.1964 72.1483 23.1964 72.0153C23.1964 71.8805 23.1574 71.7629 23.0792 71.6621C23.001 71.5616 22.8721 71.4772 22.6922 71.4085C22.5769 71.3637 22.322 71.2939 21.9273 71.199C21.5327 71.1043 21.2562 71.015 21.0979 70.9308C20.8927 70.8235 20.7399 70.6902 20.6393 70.5307C20.5386 70.3715 20.4883 70.1933 20.4883 69.9958C20.4883 69.779 20.5499 69.5764 20.6729 69.3877C20.7959 69.1992 20.9756 69.0561 21.2122 68.9584C21.4485 68.8607 21.7113 68.8119 22.0005 68.8119C22.319 68.8119 22.5998 68.8631 22.843 68.9657C23.0863 69.0683 23.2733 69.2193 23.4042 69.4185C23.5351 69.6179 23.6055 69.8435 23.6152 70.0954L23.0702 70.1365C23.0409 69.8651 22.9417 69.6599 22.7727 69.5211C22.6037 69.3825 22.3541 69.3131 22.0239 69.3131C21.6801 69.3131 21.4295 69.3761 21.2722 69.5021C21.1148 69.6282 21.0362 69.7801 21.0362 69.9579C21.0362 70.1123 21.0919 70.2393 21.2033 70.3389C21.3127 70.4385 21.5984 70.5407 22.0605 70.6452C22.5225 70.7498 22.8395 70.8412 23.0115 70.9192C23.2615 71.0345 23.4461 71.1807 23.5653 71.3573C23.6845 71.5342 23.7441 71.7379 23.7441 71.9684C23.7441 72.1971 23.6786 72.4124 23.5477 72.6146C23.4168 72.8168 23.2287 72.9742 22.9835 73.0865C22.7382 73.1989 22.4623 73.2549 22.1556 73.2549C21.7668 73.2549 21.441 73.1981 21.1782 73.085C20.9154 72.9717 20.7093 72.8012 20.5598 72.5735C20.4107 72.3462 20.3321 72.0887 20.3242 71.8015Z" fill="white"/>
<path d="M24.3281 71.8015L24.8644 71.7546C24.8897 71.9696 24.9488 72.1459 25.0416 72.2835C25.1345 72.4212 25.2785 72.5326 25.474 72.6176C25.6694 72.7026 25.889 72.7451 26.1334 72.7451C26.3503 72.7451 26.5418 72.7129 26.708 72.6484C26.8739 72.5838 26.9976 72.4957 27.0788 72.3831C27.1598 72.2708 27.2003 72.1483 27.2003 72.0153C27.2003 71.8805 27.1613 71.7629 27.0831 71.6621C27.0049 71.5616 26.876 71.4772 26.6961 71.4085C26.5808 71.3637 26.3259 71.2939 25.9312 71.199C25.5366 71.1043 25.2601 71.015 25.1018 70.9308C24.8966 70.8235 24.7438 70.6902 24.6432 70.5307C24.5425 70.3715 24.4922 70.1933 24.4922 69.9958C24.4922 69.779 24.5538 69.5764 24.6768 69.3877C24.7999 69.1992 24.9795 69.0561 25.2161 68.9584C25.4524 68.8607 25.7152 68.8119 26.0044 68.8119C26.3229 68.8119 26.6037 68.8631 26.8469 68.9657C27.0902 69.0683 27.2772 69.2193 27.4081 69.4185C27.5391 69.6179 27.6094 69.8435 27.6191 70.0954L27.0741 70.1365C27.0448 69.8651 26.9456 69.6599 26.7766 69.5211C26.6076 69.3825 26.358 69.3131 26.0278 69.3131C25.684 69.3131 25.4334 69.3761 25.2761 69.5021C25.1187 69.6282 25.0401 69.7801 25.0401 69.9579C25.0401 70.1123 25.0958 70.2393 25.2072 70.3389C25.3166 70.4385 25.6023 70.5407 26.0644 70.6452C26.5264 70.7498 26.8434 70.8412 27.0154 70.9192C27.2654 71.0345 27.45 71.1807 27.5693 71.3573C27.6884 71.5342 27.748 71.7379 27.748 71.9684C27.748 72.1971 27.6825 72.4124 27.5516 72.6146C27.4207 72.8168 27.2326 72.9742 26.9874 73.0865C26.7421 73.1989 26.4662 73.2549 26.1595 73.2549C25.7707 73.2549 25.4449 73.1981 25.1821 73.085C24.9193 72.9717 24.7132 72.8012 24.5637 72.5735C24.4146 72.3462 24.3358 72.0887 24.3281 71.8015Z" fill="white"/>
<path d="M28.5234 73.182V68.8856H30.1442C30.4295 68.8856 30.6472 68.8993 30.7977 68.9267C31.0087 68.962 31.1854 69.0289 31.3281 69.1274C31.4707 69.2261 31.5854 69.3645 31.6725 69.5421C31.7593 69.7199 31.8028 69.9154 31.8028 70.1282C31.8028 70.4936 31.6865 70.8029 31.4541 71.0558C31.2216 71.309 30.8016 71.4352 30.1939 71.4352H29.0919V73.182H28.5234ZM29.0919 70.9282H30.2027C30.57 70.9282 30.8309 70.8599 30.9852 70.723C31.1396 70.5863 31.2167 70.3938 31.2167 70.1457C31.2167 69.966 31.1713 69.8122 31.0803 69.6841C30.9895 69.5562 30.8697 69.4716 30.7213 69.4305C30.6255 69.4052 30.4488 69.3924 30.1909 69.3924H29.0919V70.9282Z" fill="white"/>
<path d="M32.3555 71.0893C32.3555 70.3762 32.547 69.818 32.93 69.4144C33.313 69.0111 33.8072 68.8091 34.4129 68.8091C34.8094 68.8091 35.1671 68.904 35.4856 69.0934C35.804 69.2831 36.0468 69.5473 36.2139 69.8863C36.381 70.2254 36.4645 70.6097 36.4645 71.0394C36.4645 71.4751 36.3765 71.8649 36.2007 72.2087C36.0248 72.5527 35.7757 72.813 35.4535 72.9897C35.1311 73.1666 34.7833 73.2549 34.4101 73.2549C34.0057 73.2549 33.6442 73.1572 33.3257 72.9618C33.0073 72.7665 32.7661 72.4998 32.6019 72.1616C32.4374 71.824 32.3555 71.4665 32.3555 71.0893ZM32.9416 71.0981C32.9416 71.616 33.0808 72.0239 33.3593 72.3216C33.6377 72.6197 33.9869 72.7686 34.4071 72.7686C34.8349 72.7686 35.1871 72.6182 35.4636 72.3173C35.7401 72.0165 35.8783 71.5896 35.8783 71.0366C35.8783 70.687 35.8192 70.3816 35.7011 70.1207C35.5829 69.8598 35.41 69.6576 35.1823 69.5141C34.9546 69.3705 34.6991 69.2988 34.4159 69.2988C34.0134 69.2988 33.6671 69.437 33.3769 69.7135C33.0866 69.99 32.9416 70.4516 32.9416 71.0981Z" fill="white"/>
<path d="M37.207 73.182V68.8856H39.1119C39.495 68.8856 39.7861 68.9243 39.9852 69.0013C40.1846 69.0786 40.3437 69.215 40.463 69.4102C40.5821 69.6057 40.6417 69.8216 40.6417 70.0579C40.6417 70.3627 40.5431 70.6197 40.3457 70.8286C40.1484 71.0377 39.8436 71.1705 39.4314 71.2272C39.5818 71.2996 39.696 71.3709 39.7742 71.4412C39.9402 71.5937 40.0976 71.7841 40.2462 72.0127L40.9934 73.182H40.2782L39.7097 72.2881C39.5435 72.0302 39.4068 71.8328 39.2993 71.6961C39.1918 71.5594 39.0956 71.4637 39.0107 71.4089C38.9257 71.3544 38.8392 71.3163 38.7513 71.2947C38.6867 71.2812 38.5813 71.2743 38.4346 71.2743H37.7752V73.1822H37.207V73.182ZM37.7755 70.7817H38.9977C39.2575 70.7817 39.4608 70.7549 39.6073 70.7011C39.7538 70.6474 39.8652 70.5615 39.9414 70.4432C40.0175 70.325 40.0556 70.1967 40.0556 70.0577C40.0556 69.8546 39.9817 69.6875 39.8343 69.5565C39.6866 69.4258 39.4537 69.3602 39.1352 69.3602H37.7754V70.7817H37.7755Z" fill="white"/>
<path d="M42.5171 73.182V69.3926H41.1016V68.8856H44.507V69.3926H43.0856V73.182H42.5171Z" fill="white"/>
</g>
<defs>
<linearGradient id="paint0_linear_38_687" x1="47.6304" y1="57.1239" x2="33.3573" y2="119.769" gradientUnits="userSpaceOnUse">
<stop stop-color="#F7F7F7"/>
<stop offset="1" stop-color="#A3A3A3"/>
</linearGradient>
<linearGradient id="paint1_linear_38_687" x1="60.1978" y1="5.15885" x2="67.7545" y2="25.5421" gradientUnits="userSpaceOnUse">
<stop stop-color="#677FAA"/>
<stop offset="1" stop-color="#3E4F6D"/>
</linearGradient>
<linearGradient id="paint2_linear_38_687" x1="61.5333" y1="50.4153" x2="70.0548" y2="57.4585" gradientUnits="userSpaceOnUse">
<stop stop-color="#677FAA"/>
<stop offset="1" stop-color="#3E4F6D"/>
</linearGradient>
<linearGradient id="paint3_linear_38_687" x1="61.9231" y1="25.6055" x2="57.899" y2="47.442" gradientUnits="userSpaceOnUse">
<stop stop-color="#F7F7F7"/>
<stop offset="1" stop-color="#A3A3A3"/>
</linearGradient>
<linearGradient id="paint4_linear_38_687" x1="38" y1="7.5" x2="50" y2="10" gradientUnits="userSpaceOnUse">
<stop stop-color="#88A2D0"/>
<stop offset="1" stop-color="#3E4F6D" stop-opacity="0"/>
<stop offset="1" stop-color="#3E4F6D"/>
</linearGradient>
<linearGradient id="paint5_linear_38_687" x1="31" y1="-2.5" x2="38.9245" y2="-0.949835" gradientUnits="userSpaceOnUse">
<stop stop-color="#4A81D5"/>
<stop offset="1" stop-color="#3264B0"/>
</linearGradient>
<linearGradient id="paint6_linear_38_687" x1="36.2287" y1="8.91364" x2="49.0564" y2="17.7657" gradientUnits="userSpaceOnUse">
<stop stop-color="#677FAA"/>
<stop offset="1" stop-color="#3E4F6D"/>
</linearGradient>
<linearGradient id="paint7_linear_38_687" x1="10.2524" y1="16.1589" x2="53.0697" y2="44.044" gradientUnits="userSpaceOnUse">
<stop stop-color="#4A81D5"/>
<stop offset="1" stop-color="#3264B0"/>
</linearGradient>
<linearGradient id="paint8_linear_38_687" x1="28.9945" y1="25.1621" x2="28.9945" y2="61.1746" gradientUnits="userSpaceOnUse">
<stop stop-color="#FFECB3"/>
<stop offset="1" stop-color="#FFD964"/>
</linearGradient>
<clipPath id="clip0_38_687">
<rect width="88" height="88" fill="white"/>
</clipPath>
</defs>
</svg>
