<svg width="94" height="62" viewBox="0 0 94 62" fill="none" xmlns="http://www.w3.org/2000/svg">
<path d="M94 3.87255C94 1.93142 92.4264 0.357834 90.4853 0.357834H3.51472C1.57358 0.357834 0 1.93142 0 3.87255V8.8685L40.7229 16.1008L94 8.8685V3.87255Z" fill="url(#paint0_linear_49_728)"/>
<path d="M0 8.86852V58.1273C0 60.0684 1.57358 61.642 3.51472 61.642H90.4853C92.4264 61.642 94 60.0684 94 58.1273V8.86852H0Z" fill="#F1F4F6"/>
<path d="M0 8.86852V58.1273C0 60.0684 1.57358 61.642 3.51472 61.642H90.4853C92.4264 61.642 94 60.0684 94 58.1273V8.86852H0Z" fill="url(#paint1_linear_49_728)"/>
<path d="M86.4347 8.86852V38.6415C86.4347 49.2553 77.8305 57.8594 67.2168 57.8594H0V58.1275C0 60.0686 1.57358 61.6422 3.51472 61.6422H90.4853C92.4264 61.6422 94 60.0686 94 58.1275V8.86852H86.4347Z" fill="#DFEAEF"/>
<path d="M86.4347 8.86852V38.6415C86.4347 49.2553 77.8305 57.8594 67.2168 57.8594H0V58.1275C0 60.0686 1.57358 61.6422 3.51472 61.6422H90.4853C92.4264 61.6422 94 60.0686 94 58.1275V8.86852H86.4347Z" fill="url(#paint2_linear_49_728)"/>
<path d="M30.4 13.597H5.59354C5.11693 13.597 4.73047 13.9835 4.73047 14.4601V40.66C4.73047 41.1366 5.11693 41.5231 5.59354 41.5231H9.54485L17.5348 39.1417L26.4489 41.5231H30.4002C30.8768 41.5231 31.2633 41.1366 31.2633 40.66V14.4601C31.2631 13.9835 30.8768 13.597 30.4 13.597Z" fill="url(#paint3_linear_49_728)"/>
<path d="M17.8699 37.9402C20.1079 37.9402 21.9832 34.3636 22.4781 32.2769H21.2987C20.7556 32.2769 20.3156 31.8366 20.3156 31.2938V30.3088C19.5017 30.8654 16.4862 30.8654 15.6723 30.3088V31.2938C15.6723 31.8368 15.232 32.2771 14.689 32.2771H13.2617C13.7565 34.3634 15.6319 37.9402 17.8699 37.9402Z" fill="#EAAC9D"/>
<path d="M17.9399 18.3252C15.2769 18.3579 13.2588 20.6115 13.4545 23.2676L13.7609 27.4273C13.9243 29.6462 16.6601 31.184 17.9974 31.184C19.3347 31.184 22.0704 29.6462 22.2338 27.4273L22.5437 23.2184C22.7398 20.557 20.6167 18.2926 17.9399 18.3252Z" fill="#FFCBBE"/>
<path d="M23.1625 32.2769H22.4792C21.9844 34.3636 20.109 35.9159 17.871 35.9159C15.633 35.9159 13.7575 34.3636 13.2628 32.2769H12.8273C11.0134 32.2769 9.54297 33.7473 9.54297 35.5612V41.523H26.447V35.5612C26.4468 33.7473 24.9764 32.2769 23.1625 32.2769Z" fill="url(#paint4_linear_49_728)"/>
<path fill-rule="evenodd" clip-rule="evenodd" d="M64.9062 12.25C64.9062 11.6977 65.354 11.25 65.9062 11.25H67.4062C67.9585 11.25 68.4062 11.6977 68.4062 12.25V13.75C68.4062 14.3023 67.9585 14.75 67.4062 14.75H65.9062C65.354 14.75 64.9062 14.3023 64.9062 13.75V12.25ZM43.9062 22.75C43.9062 22.1977 44.354 21.75 44.9062 21.75H49.9062C50.4585 21.75 50.9062 22.1977 50.9062 22.75V24.25C50.9062 24.8023 50.4585 25.25 49.9062 25.25H44.9062C44.354 25.25 43.9062 24.8023 43.9062 24.25V22.75ZM43.9062 29.75C43.9062 29.1977 44.354 28.75 44.9062 28.75H67.4062C67.9585 28.75 68.4062 29.1977 68.4062 29.75V31.25C68.4062 31.8023 67.9585 32.25 67.4062 32.25H44.9062C44.354 32.25 43.9062 31.8023 43.9062 31.25V29.75ZM43.9062 47.25C43.9062 46.6977 44.354 46.25 44.9062 46.25H46.4062C46.9585 46.25 47.4062 46.6977 47.4062 47.25V52.25C47.4062 52.8023 46.9585 53.25 46.4062 53.25H44.9062C44.354 53.25 43.9062 52.8023 43.9062 52.25V47.25ZM50.9062 47.25C50.9062 46.6977 51.354 46.25 51.9062 46.25H53.4062C53.9585 46.25 54.4062 46.6977 54.4062 47.25V52.25C54.4062 52.8023 53.9585 53.25 53.4062 53.25H51.9062C51.354 53.25 50.9062 52.8023 50.9062 52.25V47.25ZM58.9062 46.25C58.354 46.25 57.9062 46.6977 57.9062 47.25V52.25C57.9062 52.8023 58.354 53.25 58.9062 53.25H63.9062C64.4585 53.25 64.9062 52.8023 64.9062 52.25V47.25C64.9062 46.6977 64.4585 46.25 63.9062 46.25H58.9062ZM68.4062 47.25C68.4062 46.6977 68.854 46.25 69.4062 46.25H70.9062C71.4585 46.25 71.9062 46.6977 71.9062 47.25V52.25C71.9062 52.8023 71.4585 53.25 70.9062 53.25H69.4062C68.854 53.25 68.4062 52.8023 68.4062 52.25V47.25ZM76.4062 46.25C75.854 46.25 75.4062 46.6977 75.4062 47.25V52.25C75.4062 52.8023 75.854 53.25 76.4062 53.25H81.4062C81.9585 53.25 82.4062 52.8023 82.4062 52.25V47.25C82.4062 46.6977 81.9585 46.25 81.4062 46.25H76.4062ZM72.9062 28.75C72.354 28.75 71.9062 29.1977 71.9062 29.75V31.25C71.9062 31.8023 72.354 32.25 72.9062 32.25H81.4062C81.9585 32.25 82.4062 31.8023 82.4062 31.25V29.75C82.4062 29.1977 81.9585 28.75 81.4062 28.75H72.9062ZM57.9062 36.75C57.9062 36.1977 58.354 35.75 58.9062 35.75H81.4062C81.9585 35.75 82.4062 36.1977 82.4062 36.75V38.25C82.4062 38.8023 81.9585 39.25 81.4062 39.25H58.9062C58.354 39.25 57.9062 38.8023 57.9062 38.25V36.75ZM44.9062 35.75C44.354 35.75 43.9062 36.1977 43.9062 36.75V38.25C43.9062 38.8023 44.354 39.25 44.9062 39.25H53.4062C53.9585 39.25 54.4062 38.8023 54.4062 38.25V36.75C54.4062 36.1977 53.9585 35.75 53.4062 35.75H44.9062ZM55.4062 21.75C54.854 21.75 54.4062 22.1977 54.4062 22.75V24.25C54.4062 24.8023 54.854 25.25 55.4062 25.25H67.4062C67.9585 25.25 68.4062 24.8023 68.4062 24.25V22.75C68.4062 22.1977 67.9585 21.75 67.4062 21.75H55.4062ZM72.9062 11.25C72.354 11.25 71.9062 11.6977 71.9062 12.25V13.75C71.9062 14.3023 72.354 14.75 72.9062 14.75H74.4062C74.9585 14.75 75.4062 14.3023 75.4062 13.75V12.25C75.4062 11.6977 74.9585 11.25 74.4062 11.25H72.9062ZM78.9062 12.25C78.9062 11.6977 79.354 11.25 79.9062 11.25H81.4062C81.9585 11.25 82.4062 11.6977 82.4062 12.25V13.75C82.4062 14.3023 81.9585 14.75 81.4062 14.75H79.9062C79.354 14.75 78.9062 14.3023 78.9062 13.75V12.25ZM44.9062 14.75C44.354 14.75 43.9062 15.1977 43.9062 15.75V17.25C43.9062 17.8023 44.354 18.25 44.9062 18.25H58.6562C59.2085 18.25 59.6562 17.8023 59.6562 17.25V15.75C59.6562 15.1977 59.2085 14.75 58.6562 14.75H44.9062Z" fill="url(#paint5_linear_49_728)"/>
<defs>
<linearGradient id="paint0_linear_49_728" x1="14.3875" y1="0.357834" x2="18.8859" y2="21.7373" gradientUnits="userSpaceOnUse">
<stop stop-color="#4A81D5"/>
<stop offset="1" stop-color="#3264B0"/>
</linearGradient>
<linearGradient id="paint1_linear_49_728" x1="42.9167" y1="38.2403" x2="43.8824" y2="118.038" gradientUnits="userSpaceOnUse">
<stop stop-color="#F7F7F7"/>
<stop offset="1" stop-color="#A3A3A3"/>
</linearGradient>
<linearGradient id="paint2_linear_49_728" x1="42.9167" y1="38.2404" x2="37.6944" y2="87.6347" gradientUnits="userSpaceOnUse">
<stop stop-color="#F7F7F7"/>
<stop offset="1" stop-color="#A3A3A3"/>
</linearGradient>
<linearGradient id="paint3_linear_49_728" x1="17.9969" y1="13.597" x2="17.9969" y2="41.5231" gradientUnits="userSpaceOnUse">
<stop stop-color="#B8D8FF"/>
<stop offset="1" stop-color="#73B0FB"/>
</linearGradient>
<linearGradient id="paint4_linear_49_728" x1="17.995" y1="32.2769" x2="17.995" y2="41.523" gradientUnits="userSpaceOnUse">
<stop stop-color="#FFECB3"/>
<stop offset="1" stop-color="#FFD964"/>
</linearGradient>
<linearGradient id="paint5_linear_49_728" x1="64.1202" y1="15.974" x2="61.9131" y2="30.2197" gradientUnits="userSpaceOnUse">
<stop stop-color="#677FAA"/>
<stop offset="1" stop-color="#3E4F6D"/>
</linearGradient>
</defs>
</svg>
