<svg width="160" height="96" viewBox="0 0 160 96" fill="none" xmlns="http://www.w3.org/2000/svg">
<g clip-path="url(#clip0_20_24148)">
<path d="M150.539 0H9.46072C4.23571 0 0 4.21129 0 9.40618V86.5938C0 91.7887 4.23571 96 9.46072 96H150.539C155.764 96 160 91.7887 160 86.5938V9.40618C160 4.21129 155.764 0 150.539 0Z" fill="#C1C9D9"/>
<path d="M34.3896 32.7882H18.2008C15.7891 32.7882 13.834 34.732 13.834 37.1298V45.4577C13.834 47.8555 15.7891 49.7993 18.2008 49.7993H34.3896C36.8013 49.7993 38.7564 47.8555 38.7564 45.4577V37.1298C38.7564 34.732 36.8013 32.7882 34.3896 32.7882Z" fill="#198AFF"/>
<path d="M19.9575 32.7882H19.4004V49.7993H19.9575V32.7882Z" fill="#F1F4F8"/>
<path d="M19.678 37.2593H13.834V37.8132H19.678V37.2593Z" fill="#F1F4F8"/>
<path d="M19.678 44.5988H13.834V45.1527H19.678V44.5988Z" fill="#F1F4F8"/>
<path d="M33.1919 32.7882H32.6348V49.7993H33.1919V32.7882Z" fill="#F1F4F8"/>
<path d="M38.7561 37.2593H32.9121V37.8132H38.7561V37.2593Z" fill="#F1F4F8"/>
<path d="M38.7561 44.5988H32.9121V45.1527H38.7561V44.5988Z" fill="#F1F4F8"/>
<path d="M32.9125 39.2058H19.6777V39.7598H32.9125V39.2058Z" fill="#F1F4F8"/>
<path d="M32.9125 42.9702H19.6777V43.5242H32.9125V42.9702Z" fill="#F1F4F8"/>
<path d="M11.623 68.99L14.9145 65.4941L14.8693 65.9989L13.0375 62.6815H13.9898L15.4679 65.3771L15.0702 65.3409L17.5638 62.6815H18.5977L15.5055 65.981L15.5327 65.4762L17.4734 68.9921H16.5014L14.9417 66.125L15.3406 66.1525L12.711 68.9921L11.623 68.99Z" fill="white"/>
<path d="M19.3652 68.99L22.6567 65.4941L22.611 65.9989L20.7797 62.6815H21.7316L23.2096 65.3771L22.8128 65.3409L25.3064 62.6815H26.3399L23.2481 65.981L23.2753 65.4762L25.2155 68.9921H24.2436L22.6839 66.125L23.0828 66.1525L20.4532 68.9921L19.3652 68.99Z" fill="white"/>
<path d="M27.1094 68.99L30.4012 65.4941L30.3556 65.9989L28.5238 62.6815H29.4761L30.9542 65.3771L30.5553 65.3409L33.0489 62.6815H34.0824L30.9902 65.981L31.0174 65.4762L32.958 68.9921H31.9877L30.428 66.125L30.8274 66.1525L28.1977 68.9921L27.1094 68.99Z" fill="white"/>
<path d="M34.8535 68.99L38.1449 65.4941L38.0997 65.9989L36.268 62.6815H37.2203L38.6983 65.3771L38.299 65.3409L40.7926 62.6815H41.8265L38.7343 65.981L38.7615 65.4762L40.7022 68.9921H39.7318L38.1722 66.125L38.5711 66.1525L35.9414 68.9921L34.8535 68.99Z" fill="white"/>
<path d="M47.0215 68.99L50.3129 65.4941L50.2677 65.9989L48.4359 62.6815H49.3882L50.8663 65.3771L50.467 65.3409L52.9605 62.6815H53.9945L50.9019 65.9789L50.9291 65.4741L52.8697 68.99H51.8994L50.3397 66.1229L50.7386 66.1504L48.1094 68.99H47.0215Z" fill="white"/>
<path d="M54.7656 68.99L58.0571 65.4941L58.0118 65.9989L56.1801 62.6815H57.132L58.61 65.3771L58.2111 65.3409L60.7047 62.6815H61.7382L58.6464 65.9789L58.6736 65.4741L60.6138 68.99H59.644L58.0843 66.1229L58.4832 66.1504L55.8536 68.99H54.7656Z" fill="white"/>
<path d="M62.5078 68.99L65.7997 65.4941L65.754 65.9989L63.9227 62.6815H64.8746L66.3526 65.3771L65.9537 65.3409L68.4473 62.6815H69.4808L66.3895 65.9789L66.4167 65.4741L68.3569 68.99H67.3866L65.8273 66.1229L66.2262 66.1504L63.5966 68.99H62.5078Z" fill="white"/>
<path opacity="0.5" d="M90.5 96L63 0H75.5L102 96H90.5Z" fill="#E3E8EF"/>
<path opacity="0.2" d="M125.5 96L98 0H110.5L137 96H125.5Z" fill="#E3E8EF"/>
<path d="M70.252 68.99L73.5434 65.4941L73.4982 65.9989L71.6664 62.6815H72.6187L74.0968 65.3771L73.6978 65.3409L76.1914 62.6815H77.2249L74.134 65.9789L74.1612 65.4741L76.1018 68.99H75.1303L73.5706 66.1229L73.9695 66.1504L71.3403 68.99H70.252Z" fill="white"/>
<path d="M82.4219 68.99L85.7133 65.4941L85.6681 65.9989L83.8363 62.6815H84.7886L86.2667 65.3771L85.8678 65.3409L88.3613 62.6815H89.3949L86.3027 65.981L86.3299 65.4762L88.2705 68.9921H87.3002L85.7405 66.125L86.1394 66.1525L83.5102 68.99H82.4219Z" fill="white"/>
<path d="M90.1641 68.99L93.4555 65.4941L93.4103 65.9989L91.5785 62.6815H92.5308L94.0085 65.3771L93.6095 65.3409L96.1031 62.6815H97.1371L94.0449 65.981L94.0721 65.4762L96.0127 68.9921H95.0424L93.4827 66.125L93.8816 66.1525L91.252 68.9921L90.1641 68.99Z" fill="white"/>
<path d="M97.9062 68.99L101.198 65.4941L101.152 65.9989L99.3207 62.6815H100.273L101.751 65.3771L101.352 65.3409L103.845 62.6815H104.879L101.787 65.981L101.814 65.4762L103.754 68.9921H102.785L101.225 66.125L101.624 66.1525L98.9942 68.9921L97.9062 68.99Z" fill="white"/>
<path d="M105.65 68.99L108.942 65.4941L108.897 65.9989L107.065 62.6815H108.017L109.495 65.3771L109.096 65.3409L111.59 62.6815H112.623L109.531 65.981L109.559 65.4762L111.499 68.9921H110.529L108.969 66.125L109.368 66.1525L106.739 68.9921L105.65 68.99Z" fill="white"/>
<path d="M117.818 68.99L121.11 65.4941L121.064 65.9989L119.233 62.6815H120.185L121.663 65.3771L121.264 65.3409L123.757 62.6815H124.791L121.699 65.981L121.726 65.4762L123.667 68.9921H122.696L121.137 66.125L121.536 66.1525L118.906 68.9921L117.818 68.99Z" fill="white"/>
<path d="M125.562 68.99L128.854 65.4941L128.809 65.9989L126.977 62.6815H127.929L129.407 65.3771L129.008 65.3409L131.502 62.6815H132.535L129.443 65.981L129.471 65.4762L131.411 68.9921H130.441L128.881 66.125L129.28 66.1525L126.651 68.9921L125.562 68.99Z" fill="white"/>
<path d="M133.305 68.99L136.596 65.4941L136.551 65.9989L134.719 62.6815H135.671L137.149 65.3771L136.75 65.3409L139.244 62.6815H140.277L137.186 65.981L137.213 65.4762L139.153 68.9921H138.183L136.623 66.125L137.022 66.1525L134.393 68.9921L133.305 68.99Z" fill="white"/>
<path d="M141.049 68.99L144.34 65.4941L144.295 65.9989L142.463 62.6815H143.415L144.893 65.3771L144.494 65.3409L146.988 62.6815H148.021L144.93 65.981L144.956 65.4762L146.897 68.9921H145.927L144.367 66.125L144.766 66.1525L142.137 68.9921L141.049 68.99Z" fill="white"/>
<path d="M117.317 21.0556C116.809 21.0611 116.304 20.9719 115.829 20.7926C115.391 20.6259 114.991 20.3735 114.653 20.0503C114.315 19.7271 114.046 19.3397 113.862 18.911C113.489 17.9938 113.489 16.9686 113.862 16.0514C114.045 15.6251 114.313 15.24 114.65 14.9194C114.993 14.5938 115.397 14.3391 115.839 14.1702C116.827 13.8095 117.914 13.8202 118.895 14.2002C119.36 14.3888 119.771 14.6867 120.095 15.0684L119.258 15.8525C119.016 15.5935 118.724 15.3858 118.399 15.2419C118.08 15.1051 117.737 15.0358 117.39 15.0384C117.047 15.0341 116.706 15.0946 116.385 15.2169C116.091 15.331 115.822 15.5033 115.596 15.7234C115.372 15.9444 115.193 16.2077 115.072 16.498C114.818 17.1291 114.818 17.8329 115.072 18.464C115.193 18.7543 115.371 19.0176 115.596 19.2385C115.822 19.4587 116.09 19.631 116.385 19.745C116.705 19.8673 117.046 19.9279 117.39 19.9236C117.736 19.9262 118.08 19.8569 118.398 19.7201C118.725 19.5748 119.017 19.3634 119.257 19.0995L120.095 19.884C119.771 20.2662 119.36 20.5658 118.896 20.758C118.423 20.9564 117.896 21.0556 117.317 21.0556Z" fill="white"/>
<path d="M122.201 20.9561L125.347 14.0059H126.626L129.782 20.9561H128.413L125.717 14.6913H126.236L123.528 20.9561H122.201ZM123.649 19.3476L124.009 18.335H127.774L128.123 19.3476H123.649Z" fill="white"/>
<path d="M132.668 20.9561V14.0059H135.542C136.161 14.0059 136.692 14.103 137.135 14.2972C137.578 14.4914 137.92 14.7754 138.161 15.1491C138.4 15.5204 138.52 15.9643 138.52 16.4809C138.52 16.9909 138.401 17.4279 138.161 17.7919C137.921 18.1559 137.58 18.4373 137.137 18.6359C136.694 18.8346 136.163 18.9338 135.544 18.9335H133.397L133.966 18.3537V20.9549L132.668 20.9561ZM133.966 18.494L133.397 17.8697H135.484C136.056 17.8697 136.487 17.7472 136.777 17.5022C137.067 17.2572 137.212 16.9162 137.211 16.4792C137.211 16.0425 137.067 15.7033 136.777 15.4617C136.488 15.22 136.057 15.0992 135.484 15.0992H133.397L133.966 14.4637V18.494ZM137.242 20.9561L135.474 18.4341H136.862L138.64 20.9561H137.242Z" fill="white"/>
<path d="M141.965 20.9561V14.0059H145.031C145.776 14.0059 146.437 14.1499 147.014 14.4379C147.569 14.7073 148.035 15.1294 148.356 15.6539C148.676 16.1772 148.836 16.7862 148.836 17.481C148.836 18.1757 148.676 18.7848 148.356 19.308C148.035 19.8329 147.569 20.2551 147.014 20.5246C146.438 20.812 145.777 20.9559 145.031 20.9561H141.965ZM143.262 19.8641H144.95C145.476 19.8641 145.931 19.7647 146.314 19.5661C146.686 19.3777 146.997 19.0893 147.212 18.7337C147.428 18.3764 147.537 17.9593 147.537 17.4827C147.537 16.993 147.429 16.5726 147.212 16.2216C146.995 15.8698 146.684 15.5847 146.314 15.3976C145.931 15.1992 145.476 15.0999 144.95 15.0996H143.262V19.8641Z" fill="white"/>
</g>
<defs>
<clipPath id="clip0_20_24148">
<rect width="160" height="96" fill="white"/>
</clipPath>
</defs>
</svg>
