<svg width="151" height="104" viewBox="0 0 151 104" fill="none" xmlns="http://www.w3.org/2000/svg">
<g clip-path="url(#clip0_20_24281)">
<path d="M56.4274 10.4064C59.9106 17.5716 56.0927 22.7611 49.7595 25.893C43.4264 29.025 37.0028 28.852 33.4743 21.6868C30.3349 15.1498 35.9714 2.4309 36.9847 0.254942C37.0246 0.160357 37.0964 0.0829548 37.1874 0.0363333C37.2784 -0.0102883 37.3828 -0.0231466 37.4823 1.73785e-05C39.8075 0.546284 53.2427 3.8694 56.4274 10.4064Z" fill="#97A3B6"/>
<path d="M124.048 47.5798C124.048 24.2997 101.095 5.46264 72.7856 5.46264C61.9178 5.37122 51.2368 8.30804 41.9252 13.948C35.2769 17.9604 29.7753 23.638 25.9566 30.427C25.5539 31.1788 24.9752 31.8205 24.2705 32.2964C23.5658 32.7723 22.7564 33.0682 21.9125 33.1583L16.5293 33.6864V61.373L21.8582 61.9102C22.6845 61.9851 23.4799 62.2635 24.1741 62.7207C24.8683 63.178 25.4401 63.8001 25.839 64.5322C30.2993 72.8719 37.9443 79.7913 47.5526 84.2616L49.0997 93.366C49.2343 94.1587 49.6434 94.8778 50.2544 95.3961C50.8654 95.9143 51.639 96.1982 52.4382 96.1975H62.6436C63.4427 96.1982 64.2163 95.9143 64.8273 95.3961C65.4384 94.8778 65.8474 94.1587 65.982 93.366L66.6425 89.4693C68.66 89.6696 70.7047 89.7788 72.7856 89.7788C75.5575 89.776 78.326 89.5875 81.073 89.2144L81.7787 93.366C81.9133 94.1587 82.3223 94.8778 82.9334 95.3961C83.5444 95.9143 84.318 96.1982 85.1171 96.1975H95.3497C96.1488 96.1982 96.9224 95.9143 97.5334 95.3961C98.1445 94.8778 98.5535 94.1587 98.6881 93.366L100.498 83.0962C114.639 75.5668 124.048 62.4746 124.048 47.5798Z" fill="#C1C9D9"/>
<path d="M69.6007 27.6592C67.7912 35.4344 62.0461 36.0626 55.7582 33.2494C49.4703 30.4361 45.0371 25.2466 46.8285 17.4714C48.448 10.4336 59.7572 5.99068 61.8923 5.2168C61.9896 5.18274 62.0956 5.18312 62.1926 5.21788C62.2897 5.25265 62.3721 5.31972 62.4261 5.408C63.738 7.59306 71.2382 20.5578 69.6007 27.6592Z" fill="#97A3B6"/>
<path d="M107.664 16.6702C111.769 21.8684 114.035 28.2946 114.106 34.9337C114.106 55.1091 92.5821 71.4607 66.0372 71.4607C50.7563 71.4607 38.2529 66.9085 28.9974 58.4869C25.8128 55.8101 27.8032 51.9226 25.9394 50.7208C18.8916 48.5812 16.5664 46.3051 16.5664 46.3051V61.373L21.8953 61.9101C22.7217 61.985 23.517 62.2634 24.2112 62.7207C24.9055 63.1779 25.4772 63.8001 25.8761 64.5322C30.3364 72.8719 37.9814 79.7912 47.5897 84.2615L49.1368 93.366C49.2714 94.1586 49.6805 94.8778 50.2915 95.396C50.9026 95.9143 51.6762 96.1982 52.4753 96.1974H62.6445C63.4436 96.1982 64.2172 95.9143 64.8282 95.396C65.4393 94.8778 65.8483 94.1586 65.9829 93.366L66.6434 89.4693C68.661 89.6696 70.7057 89.7788 72.7865 89.7788C75.5584 89.776 78.327 89.5874 81.0739 89.2143L81.7796 93.366C81.9142 94.1586 82.3233 94.8778 82.9343 95.396C83.5453 95.9143 84.3189 96.1982 85.1181 96.1974H95.3506C96.1497 96.1982 96.9233 95.9143 97.5344 95.396C98.1454 94.8778 98.5545 94.1586 98.6891 93.366L100.499 83.0961C114.685 75.6032 124.094 62.5201 124.094 47.5888C124.049 35.3616 117.725 24.3725 107.664 16.6702Z" fill="#97A3B6"/>
<path d="M20.2574 47.5251C20.2574 55.1911 18.647 61.4094 16.6385 61.4094C14.63 61.4094 13.0195 55.1911 13.0195 47.5251C13.0195 39.8592 14.6842 33.6864 16.6656 33.6864C18.647 33.6864 20.2574 39.8592 20.2574 47.5251Z" fill="#E3E8EF"/>
<path d="M18.9989 47.8803C18.9989 49.8651 18.5827 51.4766 18.0942 51.4766C17.6056 51.4766 17.1895 49.8651 17.1895 47.8803C17.1895 45.8955 17.6056 44.2385 18.0942 44.2385C18.5827 44.2385 18.9989 45.8864 18.9989 47.8803Z" fill="#97A3B6"/>
<path d="M15.8954 47.079C15.8954 49.0638 15.4792 50.6753 14.9907 50.6753C14.5021 50.6753 14.0859 49.0638 14.0859 47.079C14.0859 45.0943 14.5021 43.4373 14.9907 43.4373C15.4792 43.4373 15.8954 45.0852 15.8954 47.079Z" fill="#97A3B6"/>
<path d="M41.2656 31.638C41.2656 35.3435 39.1305 38.3388 36.4977 38.3388C33.8649 38.3388 31.7207 35.3435 31.7207 31.638C31.7207 27.9324 33.8649 24.928 36.4977 24.928C39.1305 24.928 41.2656 27.9324 41.2656 31.638Z" fill="#F1F4F8"/>
<path d="M38.1801 30.6182C38.1801 32.6667 37.004 34.3328 35.5383 34.3328C34.0726 34.3328 32.8965 32.6667 32.8965 30.6182C32.8965 28.5697 34.0817 26.9036 35.5383 26.9036C36.9949 26.9036 38.1801 28.5606 38.1801 30.6182Z" fill="#47546B"/>
<path d="M35.5381 30.3178C36.3326 30.3178 36.9767 29.6942 36.9767 28.9248C36.9767 28.1555 36.3326 27.5319 35.5381 27.5319C34.7437 27.5319 34.0996 28.1555 34.0996 28.9248C34.0996 29.6942 34.7437 30.3178 35.5381 30.3178Z" fill="#C1C9D9"/>
<path d="M56.6182 94.6133H52.6192C52.2587 94.6134 51.9108 94.4796 51.6421 94.2378C51.3734 93.9959 51.2027 93.6629 51.1626 93.3023L50.6017 88.3768C50.5742 88.1399 50.6042 87.8999 50.6891 87.6773C50.774 87.4546 50.9113 87.2561 51.0892 87.0985C51.2671 86.941 51.4803 86.8292 51.7105 86.7727C51.9408 86.7163 52.1812 86.7169 52.4112 86.7744L56.9348 87.7941C57.2581 87.8678 57.5473 88.0489 57.7558 88.3082C57.9642 88.5675 58.0798 88.89 58.0838 89.2235V93.1202C58.0862 93.3154 58.0501 93.5092 57.9775 93.6902C57.9049 93.8713 57.7973 94.036 57.661 94.1749C57.5247 94.3138 57.3623 94.4241 57.1833 94.4994C57.0042 94.5746 56.8122 94.6134 56.6182 94.6133Z" fill="#C1C9D9"/>
<path d="M85.5603 94.6134H88.9168C89.278 94.6141 89.627 94.4823 89.8985 94.2426C90.17 94.003 90.3453 93.6719 90.3916 93.3114L90.8801 89.5149C90.9129 89.2748 90.8872 89.0302 90.8051 88.8023C90.723 88.5745 90.587 88.3702 90.4088 88.207C90.2307 88.0439 90.0158 87.9269 89.7826 87.866C89.5495 87.8052 89.3051 87.8024 89.0706 87.8579L84.7912 88.8229C84.4222 88.9062 84.0983 89.1273 83.885 89.4417C83.6717 89.756 83.5849 90.1401 83.6422 90.5164L84.0765 93.3478C84.1327 93.7024 84.3133 94.025 84.5855 94.2571C84.8577 94.4893 85.2035 94.6157 85.5603 94.6134Z" fill="#C1C9D9"/>
<path d="M46.611 80.9749C54.826 85.4725 77.2272 93.8304 102.931 78.4075C102.99 78.3782 103.043 78.3374 103.087 78.2875C103.131 78.2375 103.164 78.1794 103.186 78.1164C103.207 78.0534 103.216 77.9868 103.212 77.9204C103.208 77.8539 103.19 77.789 103.161 77.7292C103.132 77.6694 103.092 77.616 103.042 77.572C102.992 77.5279 102.935 77.4942 102.872 77.4726C102.81 77.4511 102.743 77.4421 102.677 77.4463C102.611 77.4505 102.547 77.4677 102.487 77.497C83.4065 85.2085 66.6327 86.2373 47.0453 80.0554C46.9241 79.9974 46.785 79.9903 46.6586 80.0355C46.5322 80.0808 46.4288 80.1747 46.3712 80.2966C46.3137 80.4186 46.3066 80.5585 46.3515 80.6857C46.3965 80.813 46.4898 80.917 46.611 80.9749Z" fill="#C1C9D9"/>
<path d="M48.8555 23.107C48.1226 21.8324 47.3898 18.7096 50.104 14.913C51.9135 12.4093 55.3062 9.71441 60.7799 6.66442C60.8037 6.65524 60.8299 6.65413 60.8545 6.66126C60.8791 6.66839 60.9006 6.68338 60.916 6.70396C60.9313 6.72454 60.9396 6.74958 60.9395 6.7753C60.9394 6.80102 60.931 6.82602 60.9156 6.84651C52.9177 15.0405 51.3164 26.2936 48.8555 23.107Z" fill="#E3E8EF"/>
<path d="M37.6919 1.25646C37.6856 1.23608 37.673 1.21827 37.6559 1.20562C37.6388 1.19298 37.6181 1.18616 37.5969 1.18616C37.5757 1.18616 37.5551 1.19298 37.538 1.20562C37.5209 1.21827 37.5083 1.23608 37.5019 1.25646C36.5972 3.4051 33.9916 11.6446 34.5796 14.731C35.1677 17.8174 38.9314 14.467 39.1033 10.6613C39.1861 7.46725 38.7083 4.2835 37.6919 1.25646Z" fill="#E3E8EF"/>
<path d="M72.7494 7.52941C71.3923 7.52941 70.8585 7.57493 69.6462 7.65687C69.5628 7.66452 69.4837 7.69729 69.4192 7.75088C69.3546 7.80448 69.3076 7.87642 69.2843 7.95731L68.5605 10.9254C68.5443 10.9847 68.5425 11.0472 68.5554 11.1074C68.5683 11.1675 68.5954 11.2237 68.6345 11.2711C68.6736 11.3185 68.7235 11.3556 68.7799 11.3795C68.8363 11.4033 68.8976 11.413 68.9586 11.4079C70.2162 11.3351 71.4737 11.2986 72.7494 11.2986C79.2515 11.2831 85.7143 12.3127 91.8936 14.3486C91.9569 14.3688 92.0243 14.3727 92.0895 14.36C92.1548 14.3473 92.2158 14.3184 92.2671 14.2758C92.3183 14.2333 92.3582 14.1785 92.3831 14.1165C92.4079 14.0544 92.4169 13.9871 92.4093 13.9207L92.0021 11.0437C91.9912 10.9693 91.9601 10.8993 91.9122 10.8415C91.8643 10.7837 91.8015 10.7402 91.7307 10.716C85.625 8.59395 79.209 7.51684 72.7494 7.52941Z" fill="#47546B"/>
<path d="M135.321 49.337C134.214 49.2441 133.133 48.9543 132.127 48.4811C128.714 49.7326 124.948 49.5755 121.65 48.0441L122.383 43.9653C124.663 45.1307 127.269 46.0412 129.268 45.7862C128.495 44.7952 127.917 43.664 127.567 42.454C126.993 40.8229 127.045 39.0345 127.715 37.4406C128.385 35.8467 129.623 34.5627 131.186 33.8412C133.34 32.9308 136.615 33.2858 138.623 37.1825L138.687 37.3282C139.817 40.1779 138.867 43.4555 136.217 45.8864C135.969 46.113 135.709 46.3258 135.439 46.5237C135.668 46.5778 135.901 46.6143 136.135 46.6329C137.588 46.8347 139.069 46.6444 140.425 46.0812C141.781 45.5181 142.964 44.6025 143.853 43.4282C143.881 43.3859 143.924 43.3559 143.973 43.3444C144.022 43.3328 144.074 43.3406 144.118 43.3661C144.162 43.3916 144.194 43.4329 144.209 43.4817C144.223 43.5304 144.219 43.5829 144.196 43.6285C143.52 45.2384 142.41 46.6264 140.992 47.6364C139.575 48.6465 137.905 49.2386 136.171 49.3461C135.888 49.3722 135.603 49.3691 135.321 49.337ZM133.285 36.4178C132.975 36.423 132.669 36.4847 132.381 36.5998C131.521 37.0479 130.854 37.7972 130.505 38.7063C130.157 39.6155 130.151 40.6215 130.49 41.5345C130.862 42.7917 131.547 43.9324 132.48 44.8485C133.132 44.5136 133.74 44.0977 134.29 43.6103C135.99 42.0443 136.633 40.1415 136.018 38.4845C135.239 37.1643 134.29 36.4178 133.285 36.4178Z" fill="#97A3B6"/>
<path d="M115.142 96.9766C115.142 98.9159 109.062 100.491 101.571 100.491C94.0798 100.491 88 98.9159 88 96.9766V92.4244C88 92.4244 94.9303 88.9192 101.571 88.9192C108.212 88.9192 114.002 90.7401 115.142 92.4244V96.9766Z" fill="#1E80E6"/>
<path d="M91.9727 99.4622C92.3979 99.5714 92.8774 99.6716 93.3479 99.7626V92.5337H91.9727V99.4622ZM94.9402 100.045L96.3154 100.218V92.5337H94.9402V100.045ZM97.9168 100.354C98.3601 100.354 98.8215 100.418 99.292 100.436V92.5337H97.953L97.9168 100.354ZM88.9961 98.2968C89.4319 98.5629 89.8925 98.7855 90.3713 98.9614V92.5337H88.9961V98.2968ZM109.805 99.7626C110.284 99.6716 110.755 99.5714 111.18 99.4622V92.5337H109.796L109.805 99.7626ZM100.893 100.482H102.269V92.5337H100.884L100.893 100.482ZM112.782 92.5337V98.9614C113.26 98.7855 113.721 98.5629 114.157 98.2968V92.5337H112.782ZM106.837 100.218L108.213 100.045V92.5337H106.828L106.837 100.218ZM103.861 100.436C104.331 100.436 104.766 100.436 105.236 100.354V92.5337H103.852L103.861 100.436Z" fill="#146ECC"/>
<path d="M101.571 95.9115C109.066 95.9115 115.142 94.3422 115.142 92.4063C115.142 90.4705 109.066 88.9011 101.571 88.9011C94.0759 88.9011 88 90.4705 88 92.4063C88 94.3422 94.0759 95.9115 101.571 95.9115Z" fill="#1488FF"/>
<path d="M101.571 95.6201C108.441 95.6201 114.011 94.1812 114.011 92.4062C114.011 90.6313 108.441 89.1924 101.571 89.1924C94.7005 89.1924 89.1309 90.6313 89.1309 92.4062C89.1309 94.1812 94.7005 95.6201 101.571 95.6201Z" fill="#49A3FF"/>
<path d="M101.571 95.2196C107.582 95.2196 112.455 93.96 112.455 92.4063C112.455 90.8526 107.582 89.593 101.571 89.593C95.5604 89.593 90.6875 90.8526 90.6875 92.4063C90.6875 93.96 95.5604 95.2196 101.571 95.2196Z" fill="#198AFF"/>
<path d="M93.4284 92.0695H95.0388C95.1655 92.0695 95.274 92.0695 95.2831 92.0057C95.3601 91.8112 95.4762 91.6348 95.6241 91.4875C95.772 91.3403 95.9485 91.2253 96.1426 91.1499C96.2378 91.1278 96.3369 91.1278 96.4321 91.1499L98.4949 91.2865C98.6487 91.2865 98.7301 91.3411 98.6577 91.3775C98.2144 91.6143 97.8344 91.9147 97.8344 92.288C97.8344 92.6613 98.323 92.8342 99.2006 92.8342C99.8881 92.8718 100.566 92.6584 101.11 92.2334C101.897 91.6234 103 91.2046 105.127 91.2046C106.999 91.2046 108.483 91.5414 108.99 92.115C109.064 92.1569 109.149 92.1759 109.234 92.1696H110.863C111.007 92.1696 111.116 92.1696 111.116 92.2334V92.6613C111.116 92.6613 111.007 92.725 110.863 92.725H109.406C109.279 92.725 109.162 92.725 109.153 92.7887C109.102 92.9425 109.022 93.0845 108.916 93.2065C108.811 93.3285 108.682 93.4279 108.537 93.4989C108.439 93.5209 108.337 93.5209 108.239 93.4989L106.258 93.3623C106.104 93.3623 106.022 93.3623 106.086 93.2804C106.339 93.1256 106.71 92.8798 106.71 92.5247C106.71 92.1696 106.095 92.0422 105.479 92.0422C104.793 92.0445 104.128 92.2857 103.598 92.725C102.693 93.3987 101.462 93.6354 99.4901 93.6354C97.5178 93.6354 95.9616 93.2986 95.464 92.725C95.464 92.725 95.3374 92.6704 95.2198 92.6704H93.4284C93.2836 92.6704 93.166 92.6704 93.166 92.5975V92.1787C93.166 92.1787 93.3017 92.0695 93.4284 92.0695Z" fill="#49A3FF"/>
<path d="M117.404 90.1482C117.404 92.0875 111.324 93.6626 103.833 93.6626C96.3415 93.6626 90.2617 92.0875 90.2617 90.1482V85.596C90.2617 85.596 97.192 82.0908 103.833 82.0908C110.473 82.0908 116.264 83.9117 117.404 85.596V90.1482Z" fill="#1E80E5"/>
<path d="M94.2344 92.6338C94.6596 92.7431 95.1391 92.8432 95.6096 92.9342V85.7053H94.2344V92.6338ZM97.2019 93.2165L98.5771 93.3895V85.7053H97.2019V93.2165ZM100.178 93.526C100.622 93.526 101.083 93.5898 101.554 93.608V85.7053H100.178V93.526ZM91.2578 91.4684C91.6936 91.7345 92.1542 91.9571 92.633 92.1331V85.7053H91.2578V91.4684ZM112.067 92.9342C112.546 92.8432 113.017 92.7431 113.442 92.6338V85.7053H112.058L112.067 92.9342ZM103.155 93.6535H104.53V85.7053H103.146L103.155 93.6535ZM115.043 85.7053V92.1331C115.522 91.9571 115.983 91.7345 116.418 91.4684V85.7053H115.043ZM109.099 93.3895L110.474 93.2165V85.7053H109.09L109.099 93.3895ZM106.095 93.608C106.566 93.608 107 93.608 107.471 93.526V85.7053H106.095V93.608Z" fill="#146ECC"/>
<path d="M103.833 89.0832C111.328 89.0832 117.404 87.5138 117.404 85.578C117.404 83.6421 111.328 82.0728 103.833 82.0728C96.3377 82.0728 90.2617 83.6421 90.2617 85.578C90.2617 87.5138 96.3377 89.0832 103.833 89.0832Z" fill="#1488FF"/>
<path d="M103.833 88.7917C110.703 88.7917 116.273 87.3528 116.273 85.5779C116.273 83.8029 110.703 82.364 103.833 82.364C96.9622 82.364 91.3926 83.8029 91.3926 85.5779C91.3926 87.3528 96.9622 88.7917 103.833 88.7917Z" fill="#49A3FF"/>
<path d="M103.833 88.3912C109.844 88.3912 114.717 87.1317 114.717 85.5779C114.717 84.0242 109.844 82.7646 103.833 82.7646C97.8221 82.7646 92.9492 84.0242 92.9492 85.5779C92.9492 87.1317 97.8221 88.3912 103.833 88.3912Z" fill="#198AFF"/>
<path d="M95.7087 85.241H97.301C97.4277 85.241 97.5363 85.241 97.5453 85.1772C97.6203 84.9845 97.7336 84.8091 97.8783 84.662C98.023 84.5148 98.196 84.3989 98.3867 84.3214C98.482 84.2993 98.581 84.2993 98.6762 84.3214L100.739 84.458C100.893 84.458 100.974 84.5126 100.902 84.549C100.459 84.7858 100.079 85.0862 100.079 85.4595C100.079 85.8328 100.567 86.0058 101.445 86.0058C102.151 86.0296 102.84 85.7896 103.381 85.332C104.168 84.722 105.272 84.3032 107.398 84.3032C109.271 84.3032 110.754 84.6401 111.261 85.2137C111.335 85.2556 111.42 85.2746 111.505 85.2683H113.134C113.279 85.2683 113.387 85.2683 113.387 85.332V85.7599C113.387 85.7599 113.279 85.8237 113.134 85.8237H111.668C111.542 85.8237 111.424 85.8237 111.415 85.8874C111.365 86.0411 111.284 86.1832 111.179 86.3051C111.073 86.4271 110.944 86.5265 110.8 86.5975C110.701 86.6196 110.599 86.6196 110.501 86.5975L108.52 86.461C108.366 86.461 108.285 86.461 108.348 86.379C108.601 86.2243 108.972 85.9784 108.972 85.6234C108.972 85.2683 108.357 85.1408 107.742 85.1408C107.055 85.1432 106.39 85.3844 105.86 85.8237C104.955 86.4974 103.725 86.7341 101.752 86.7341C99.78 86.7341 98.2239 86.3972 97.7263 85.8237C97.7263 85.8237 97.5996 85.769 97.482 85.769H95.6725C95.5278 85.769 95.4102 85.769 95.4102 85.6962V85.2774C95.4102 85.2774 95.564 85.241 95.7087 85.241Z" fill="#E3E8EF"/>
<path d="M131.427 98.7975C129.862 102.23 123.076 102.439 116.264 99.3074C109.451 96.1755 105.19 90.8767 106.719 87.4079C106.891 87.0164 108.402 83.7661 108.402 83.7661C108.402 83.7661 117.53 80.4703 123.565 83.2563C129.6 86.0422 133.354 91.778 133.065 95.1558L131.427 98.7975Z" fill="#1E80E6"/>
<path d="M108.321 93.4624C108.619 93.8357 108.963 94.209 109.325 94.5823L113.152 86.188L111.904 85.6053L108.321 93.4624ZM110.556 95.7295C110.908 96.039 111.279 96.3303 111.668 96.6399L115.857 87.4535L114.609 86.8708L110.556 95.7295ZM112.998 97.5503C113.387 97.7962 113.776 98.0329 114.184 98.2696L118.553 88.6917L117.305 88.1455L112.998 97.5503ZM106.557 90.1666C106.723 90.778 106.966 91.3654 107.28 91.9147L110.456 84.9498L109.208 84.3762L106.557 90.1666ZM124.28 101.483C124.778 101.51 125.276 101.51 125.773 101.483L129.392 93.6354L128.144 93.0527L124.28 101.483ZM115.604 99.0071C115.812 99.1072 116.011 99.2165 116.219 99.3075C116.427 99.3985 116.644 99.4896 116.853 99.5806L121.259 89.9663L120.01 89.3837L115.604 99.0071ZM130.803 94.3365L127.628 101.31C128.255 101.191 128.863 100.989 129.437 100.71L132.088 94.9192L130.803 94.3365ZM121.213 101.037C121.684 101.137 122.118 101.229 122.607 101.301L126.66 92.4245L125.402 91.8419L121.213 101.037ZM118.336 100.127C118.78 100.291 119.241 100.436 119.648 100.564L123.955 91.1317L122.706 90.549L118.336 100.127Z" fill="#146ECC"/>
<path d="M133.065 95.1104C131.5 98.5427 124.715 98.7521 117.902 95.6202C111.089 92.4883 106.837 87.144 108.402 83.7207C109.968 80.2974 116.753 80.0789 123.566 83.2109C130.378 86.3428 134.631 91.6871 133.065 95.1104Z" fill="#1488FF"/>
<path d="M132.042 94.6368C130.604 97.7778 124.379 97.9872 118.137 95.1011C111.894 92.215 107.995 87.335 109.424 84.1758C110.854 81.0165 117.078 80.8253 123.33 83.7114C129.582 86.5975 133.472 91.4957 132.042 94.6368Z" fill="#49A3FF"/>
<path d="M130.622 93.9813C129.374 96.7126 123.927 96.9129 118.463 94.391C112.998 91.869 109.587 87.599 110.836 84.8495C112.084 82.1 117.54 81.9179 123.004 84.4398C128.469 86.9617 131.88 91.2317 130.622 93.9813Z" fill="#198AFF"/>
<path d="M124.651 95.0193L123.864 94.036C123.827 93.9892 123.78 93.9511 123.727 93.9243C123.674 93.8976 123.616 93.8829 123.556 93.8813C122.529 93.8616 121.509 93.7179 120.516 93.4533C120.414 93.4276 120.326 93.3621 120.272 93.2712L119.666 91.9784C119.666 91.8874 119.711 91.8327 119.865 91.8692C120.862 92.1572 121.895 92.2983 122.932 92.288C123.918 92.288 124.361 91.9329 123.918 91.3775C123.475 90.8222 122.697 90.5581 121.14 90.2577C118.888 89.8298 117.078 89.1925 116.029 87.8723C115.124 86.7069 115.377 85.751 116.879 85.3777C116.961 85.3777 116.979 85.2958 116.924 85.2229L116.119 84.2123C116.047 84.1304 116.119 84.0576 116.192 84.0485L117.485 84.0029C117.549 84.0052 117.611 84.0201 117.668 84.0467C117.726 84.0732 117.777 84.111 117.82 84.1577L118.526 85.0682C118.611 85.1578 118.728 85.2101 118.852 85.2138C119.684 85.2266 120.513 85.3335 121.321 85.5325C121.375 85.5425 121.427 85.5639 121.472 85.5952C121.517 85.6266 121.555 85.6673 121.584 85.7146L122.163 86.9528C122.163 87.0529 122.118 87.1075 121.973 87.0711C121.126 86.846 120.252 86.7387 119.376 86.7525C118.254 86.798 118.191 87.1895 118.472 87.5719C118.752 87.9543 119.666 88.282 121.484 88.6735C124.008 89.1743 125.438 89.8935 126.415 91.1226C127.392 92.3517 127.13 93.3441 125.51 93.7083C125.429 93.7083 125.411 93.7993 125.51 93.8721L126.415 94.9738C126.487 95.0557 126.415 95.1377 126.343 95.1377H125.049C124.978 95.1492 124.905 95.1446 124.837 95.1241C124.768 95.1036 124.704 95.0678 124.651 95.0193Z" fill="#E3E8EF"/>
</g>
<defs>
<clipPath id="clip0_20_24281">
<rect width="151" height="104" fill="white"/>
</clipPath>
</defs>
</svg>
