<svg width="140" height="113" viewBox="0 0 140 113" fill="none" xmlns="http://www.w3.org/2000/svg">
<g clip-path="url(#clip0_20_24243)">
<path d="M109.76 46.4998H1.70049C0.761337 46.4998 0 47.2675 0 48.2146V109.446C0 110.394 0.761337 111.161 1.70049 111.161H109.76C110.699 111.161 111.46 110.394 111.46 109.446V48.2146C111.46 47.2675 110.699 46.4998 109.76 46.4998Z" fill="#C1C9D9"/>
<path d="M109.76 46.4998H55.7324V111.161H109.76C109.983 111.161 110.204 111.117 110.411 111.031C110.617 110.945 110.804 110.818 110.962 110.659C111.12 110.5 111.245 110.311 111.331 110.103C111.416 109.895 111.46 109.672 111.46 109.446V48.2146C111.46 47.7598 111.281 47.3236 110.962 47.002C110.643 46.6804 110.211 46.4998 109.76 46.4998V46.4998Z" fill="#97A3B6"/>
<path d="M106.026 94.0837V63.5773C102.976 63.5773 100.051 62.3555 97.8943 60.1807C95.7376 58.0059 94.5261 55.0562 94.5261 51.9806H16.9353C16.9356 53.5036 16.6383 55.0117 16.0605 56.4188C15.4827 57.8259 14.6356 59.1044 13.5677 60.1814C12.4998 61.2583 11.232 62.1125 9.83664 62.6952C8.4413 63.2778 6.94579 63.5776 5.43555 63.5773V94.0837C6.94579 94.0834 8.4413 94.3832 9.83664 94.9659C11.232 95.5485 12.4998 96.4027 13.5677 97.4797C14.6356 98.5566 15.4827 99.8351 16.0605 101.242C16.6383 102.649 16.9356 104.157 16.9353 105.68H94.5261C94.5261 102.605 95.7376 99.6551 97.8943 97.4803C100.051 95.3055 102.976 94.0837 106.026 94.0837V94.0837Z" fill="#F1F4F8"/>
<path d="M94.5256 51.9806H55.7324V105.68H94.5256C94.5256 102.605 95.7372 99.6551 97.8938 97.4803C100.05 95.3055 102.975 94.0837 106.025 94.0837V63.5773C102.975 63.5773 100.05 62.3555 97.8938 60.1807C95.7372 58.0059 94.5256 55.0562 94.5256 51.9806V51.9806Z" fill="#F1F4F8"/>
<path d="M21.5267 83.2069C24.1941 82.7702 26.0055 80.2356 25.5725 77.5457C25.1395 74.8558 22.6262 73.0291 19.9587 73.4657C17.2913 73.9024 15.4799 76.437 15.9129 79.1269C16.3459 81.8168 18.8593 83.6435 21.5267 83.2069Z" fill="#3196FF"/>
<path d="M91.8422 83.1464C94.4723 82.5204 96.1011 79.8629 95.4804 77.2106C94.8596 74.5583 92.2243 72.9157 89.5942 73.5417C86.9641 74.1677 85.3353 76.8253 85.956 79.4775C86.5768 82.1298 89.2121 83.7724 91.8422 83.1464Z" fill="#198AFF"/>
<path d="M68.9124 92.1236C76.1925 84.7821 76.1925 72.8792 68.9124 65.5378C61.6323 58.1963 49.829 58.1963 42.5489 65.5378C35.2689 72.8792 35.2689 84.7821 42.5489 92.1236C49.829 99.4651 61.6323 99.4651 68.9124 92.1236Z" fill="#97A3B6"/>
<path d="M74.383 78.8294C74.383 73.8412 72.418 69.0573 68.9204 65.5302C65.4227 62.003 60.6789 60.0215 55.7324 60.0215V97.6306C60.6777 97.6306 65.4206 95.65 68.918 92.1243C72.4155 88.5985 74.3813 83.8164 74.383 78.8294V78.8294Z" fill="#198AFF"/>
<path d="M59.5924 78.316C60.4423 78.6547 61.2068 79.1801 61.8304 79.8538C62.4997 80.5956 62.9137 81.5353 63.0109 82.5334C63.1323 83.3427 63.0655 84.1694 62.8157 84.9482C62.5659 85.7269 62.14 86.4365 61.5715 87.0207C60.391 88.2967 58.7088 89.167 56.5249 89.6317L56.5534 93.2893C56.5561 93.4662 56.5202 93.6416 56.4481 93.803C56.3761 93.9644 56.2697 94.1078 56.1365 94.223C55.8564 94.4699 55.508 94.6244 55.1382 94.6656C54.8127 94.7279 54.4758 94.6622 54.1969 94.4819C54.0674 94.3891 53.9638 94.2642 53.8961 94.1192C53.8285 93.9743 53.7991 93.8142 53.8107 93.6544V89.9171C52.0041 89.9053 50.5253 89.5019 49.374 88.7068C48.2228 87.9117 47.5646 86.8791 47.3993 85.609C47.2881 84.752 47.4212 84.0616 47.7986 83.538C47.9671 83.2904 48.186 83.0819 48.4406 82.9262C48.6952 82.7706 48.9797 82.6713 49.2753 82.6352C49.8809 82.5526 50.3526 82.6647 50.6906 82.9715C51.0263 83.2769 51.3005 83.788 51.5178 84.5071C51.6436 85.0267 51.9312 85.492 52.3384 85.8347C52.7705 86.1809 53.2939 86.3917 53.8436 86.441L53.859 80.8318C52.8204 80.5833 51.804 80.2488 50.82 79.8317C49.9675 79.4568 49.2105 78.8917 48.6061 78.1788C47.9785 77.4501 47.5894 76.4986 47.4388 75.3244C47.3062 74.4828 47.37 73.6216 47.6252 72.8093C47.8804 71.9969 48.3199 71.2557 48.9089 70.6446C50.123 69.3391 51.7657 68.4754 53.837 68.0535L53.7975 64.3207C53.7809 64.1507 53.8054 63.9792 53.8688 63.8209C53.9322 63.6625 54.0327 63.522 54.1618 63.4113C54.4277 63.1778 54.7573 63.0306 55.1074 62.9887C55.4429 62.9345 55.7865 63.002 56.0773 63.179C56.2124 63.2578 56.323 63.373 56.3967 63.5118C56.4703 63.6506 56.5041 63.8074 56.4942 63.9645L56.4744 67.8168C58.0616 67.8581 59.3583 68.2357 60.3647 68.9497C60.851 69.2839 61.2597 69.7205 61.5628 70.2293C61.8658 70.7381 62.0559 71.307 62.1201 71.897C62.2283 72.7289 62.0959 73.3751 61.7229 73.8353C61.3469 74.2973 60.8051 74.5908 60.2155 74.6518C59.9865 74.6901 59.7522 74.6823 59.5263 74.6288C59.3003 74.5752 59.0871 74.477 58.899 74.3398C58.5166 74.0429 58.2665 73.6053 58.2034 73.1228C57.9972 72.102 57.4238 71.4921 56.4832 71.2929L56.4525 77.3513C57.5189 77.6033 58.5678 77.9255 59.5924 78.316ZM52.2726 75.7471C52.7526 76.1307 53.2934 76.4299 53.8721 76.6321L53.8348 71.4788C53.1264 71.643 52.4929 72.0419 52.0356 72.6117C51.8428 72.8748 51.7045 73.1744 51.6291 73.4926C51.5537 73.8108 51.5427 74.1411 51.5967 74.4637C51.6494 74.9634 51.8915 75.4232 52.2726 75.7471V75.7471ZM58.3461 85.151C58.5457 84.9303 58.6935 84.6672 58.7786 84.381C58.8636 84.0949 58.8838 83.7932 58.8376 83.4981C58.8076 83.2592 58.7307 83.0286 58.6112 82.82C58.4918 82.6114 58.3323 82.429 58.142 82.2834C57.6353 81.9075 57.0651 81.6279 56.4591 81.458L56.481 86.202C57.3148 85.969 57.9365 85.6186 58.3461 85.151V85.151Z" fill="#F1F8FF"/>
<path d="M8.69527 46.4998L2.58008 80.1969L25.9218 46.4998H8.69527Z" fill="#97A3B6"/>
<path d="M107.645 112.265L3.74849 82.3122C3.31443 82.1871 2.9474 81.8933 2.72809 81.4953C2.50878 81.0974 2.45515 80.628 2.57899 80.1902L19.2658 21.3259C19.3898 20.8882 19.6812 20.5181 20.0758 20.2969C20.4703 20.0758 20.9359 20.0217 21.37 20.1466L125.267 50.0931C125.701 50.2182 126.068 50.512 126.287 50.91C126.507 51.3079 126.56 51.7773 126.436 52.2151L109.75 111.088C109.625 111.526 109.334 111.895 108.939 112.116C108.544 112.337 108.079 112.39 107.645 112.265Z" fill="#C1C9D9"/>
<path d="M125.266 50.0932L73.3188 35.1199L55.6973 97.2965L107.645 112.27C108.078 112.395 108.544 112.341 108.938 112.12C109.333 111.9 109.624 111.53 109.749 111.093L126.436 52.2196C126.498 52.0025 126.516 51.7752 126.491 51.5508C126.466 51.3264 126.397 51.1092 126.288 50.9116C126.18 50.7141 126.034 50.5401 125.858 50.3997C125.683 50.2592 125.482 50.1551 125.266 50.0932V50.0932Z" fill="#97A3B6"/>
<path d="M108.71 94.8116L117.023 65.4779C115.571 65.0597 114.215 64.3571 113.032 63.4103C111.849 62.4634 110.863 61.2909 110.13 59.9597C109.396 58.6285 108.93 57.1646 108.757 55.6516C108.585 54.1387 108.71 52.6063 109.124 51.1419L34.5221 29.65C34.1073 31.1144 33.4106 32.482 32.4717 33.6748C31.5328 34.8677 30.3701 35.8623 29.05 36.602C27.7299 37.3417 26.2783 37.8119 24.778 37.9859C23.2776 38.1598 21.7581 38.034 20.306 37.6157L11.9922 66.9339C13.4443 67.3522 14.8005 68.0548 15.9833 69.0016C17.1662 69.9484 18.1525 71.1209 18.886 72.4521C19.6195 73.7834 20.0858 75.2473 20.2583 76.7602C20.4308 78.2732 20.3061 79.8056 19.8913 81.2699L94.4936 102.773C94.9083 101.309 95.605 99.9411 96.544 98.7484C97.483 97.5558 98.6458 96.5614 99.966 95.8221C101.286 95.0827 102.738 94.613 104.238 94.4396C105.738 94.2662 107.258 94.3926 108.71 94.8116Z" fill="#F1F4F8"/>
<path d="M109.126 51.142L71.8247 40.3905L57.1895 92.0215L94.4906 102.773C94.9049 101.308 95.6013 99.9403 96.5401 98.7471C97.4788 97.554 98.6416 96.5591 99.9618 95.8194C101.282 95.0796 102.734 94.6094 104.234 94.4358C105.735 94.2621 107.255 94.3883 108.707 94.8073L117.02 65.4736C114.09 64.6279 111.612 62.6432 110.131 59.9558C108.651 57.2684 108.289 54.0982 109.126 51.142V51.142Z" fill="#F1F4F8"/>
<path d="M33.3731 60.3486C35.7355 59.0253 36.5868 56.0214 35.2746 53.6391C33.9624 51.2567 30.9836 50.3982 28.6212 51.7215C26.2588 53.0447 25.4075 56.0487 26.7197 58.431C28.0319 60.8133 31.0107 61.6718 33.3731 60.3486Z" fill="#3196FF"/>
<path d="M98.8094 80.3357C101.496 80.0433 103.439 77.6099 103.149 74.9004C102.859 72.191 100.446 70.2317 97.7593 70.5241C95.0726 70.8165 93.1296 73.25 93.4196 75.9594C93.7096 78.6688 96.1227 80.6282 98.8094 80.3357Z" fill="#198AFF"/>
<path d="M77.6878 79.4991C84.9679 72.1576 84.9679 60.2547 77.6878 52.9132C70.4077 45.5718 58.6044 45.5718 51.3243 52.9133C44.0442 60.2547 44.0442 72.1576 51.3243 79.4991C58.6044 86.8406 70.4077 86.8406 77.6878 79.4991Z" fill="#97A3B6"/>
<path d="M82.4305 71.3726C83.7843 66.5799 83.1967 61.4413 80.7966 57.0852C78.3965 52.7291 74.3802 49.5116 69.6297 48.1393L59.3828 84.2814C64.1366 85.6493 69.2344 85.0581 73.5561 82.6375C77.8778 80.217 81.0698 76.1652 82.4305 71.3726V71.3726Z" fill="#198AFF"/>
<path d="M68.3598 66.7813C69.0834 67.3436 69.6753 68.0598 70.0933 68.8789C70.5341 69.78 70.6756 70.8001 70.497 71.7886C70.3927 72.6003 70.103 73.3765 69.6506 74.0561C69.1983 74.7358 68.5957 75.3002 67.8903 75.7051C66.407 76.6064 64.55 76.9752 62.3193 76.8114L61.3494 80.3362C61.3038 80.5077 61.2211 80.6668 61.1073 80.8022C60.9935 80.9376 60.8514 81.046 60.6912 81.1195C60.3539 81.2811 59.9758 81.3351 59.6072 81.2744C59.2809 81.2401 58.9796 81.0819 58.7647 80.8319C58.6652 80.7069 58.5996 80.558 58.5742 80.3997C58.5488 80.2415 58.5646 80.0794 58.6199 79.9291L59.6402 76.3379C57.9068 75.826 56.5946 75.028 55.7038 73.9438C54.813 72.8595 54.4612 71.6794 54.6484 70.4035C54.7757 69.5494 55.0916 68.9224 55.5963 68.5227C55.8257 68.3314 56.0928 68.1915 56.3799 68.1121C56.667 68.0328 56.9676 68.0159 57.2617 68.0624C57.8673 68.1554 58.29 68.3943 58.5299 68.7793C58.7713 69.1643 58.8963 69.733 58.9095 70.4853C58.8881 71.0206 59.0373 71.5486 59.3352 71.9922C59.6573 72.4445 60.1034 72.7921 60.6188 72.9923L62.1547 67.6022C61.2236 67.0766 60.3377 66.4734 59.5063 65.7988C58.7867 65.1996 58.2119 64.4429 57.8256 63.5861C57.4218 62.7143 57.3077 61.6921 57.4833 60.5194C57.5845 59.6735 57.8802 58.8631 58.3469 58.1528C58.8135 57.4425 59.4382 56.8519 60.1712 56.4281C61.6939 55.5076 63.5085 55.1315 65.6149 55.2996L66.5957 51.6996C66.6252 51.5318 66.695 51.3739 66.7991 51.2396C66.9031 51.1054 67.0382 50.9989 67.1925 50.9295C67.5114 50.7769 67.8689 50.726 68.2172 50.7835C68.5522 50.8226 68.8629 50.9793 69.0949 51.226C69.2032 51.3396 69.2782 51.4811 69.3115 51.635C69.3448 51.7889 69.3352 51.9491 69.2836 52.0979L68.2128 55.7953C69.7268 56.2762 70.8707 56.999 71.6445 57.9637C72.0204 58.4199 72.2936 58.9529 72.4451 59.5259C72.5966 60.099 72.6229 60.6984 72.5222 61.2827C72.3993 62.1132 72.0958 62.6981 71.6116 63.0374C71.1248 63.377 70.5244 63.5083 69.9419 63.4025C69.711 63.3763 69.4875 63.3041 69.2845 63.1902C69.0815 63.0762 68.9029 62.9228 68.7592 62.7387C68.4722 62.3482 68.3507 61.8587 68.4213 61.3779C68.5003 60.3453 68.1156 59.5996 67.2671 59.1409L65.6061 64.9779C66.5621 65.5177 67.482 66.1201 68.3598 66.7813V66.7813ZM62.023 62.2829C62.3773 62.7875 62.8144 63.2275 63.3154 63.5839L64.6846 58.6187C63.842 58.6187 63.1626 58.8163 62.6462 59.2117C62.3878 59.4102 62.1718 59.6594 62.0112 59.9442C61.8506 60.229 61.7486 60.5435 61.7115 60.869C61.6323 61.3631 61.7438 61.8691 62.023 62.2829ZM65.299 73.0189C65.5508 72.8617 65.7645 72.6495 65.924 72.3979C66.0835 72.1462 66.1848 71.8616 66.2205 71.5651C66.2573 71.3268 66.2466 71.0835 66.1889 70.8495C66.1313 70.6154 66.0279 70.3953 65.8848 70.2021C65.4991 69.7014 65.0272 69.2749 64.4915 68.9431L63.2189 73.5101C64.0856 73.5079 64.7789 73.3419 65.299 73.0189Z" fill="#F1F8FF"/>
<path d="M122.692 49.3431L28.6519 22.2465L13.0293 52.7816L78.6354 74.7227L125.104 56.9437C124.31 54.2354 123.504 51.6554 122.692 49.3431Z" fill="#97A3B6"/>
<path d="M105.32 112.741L13.5748 55.1536C13.385 55.0347 13.2202 54.8792 13.09 54.6961C12.9598 54.5129 12.8666 54.3057 12.8159 54.0862C12.7652 53.8667 12.7578 53.6393 12.7943 53.417C12.8308 53.1947 12.9103 52.9818 13.0284 52.7904L45.1162 0.809872C45.3547 0.423694 45.7355 0.148765 46.1749 0.0454628C46.6142 -0.0578396 47.0763 0.0189298 47.4596 0.258912L139.196 57.8464C139.386 57.9653 139.551 58.1208 139.681 58.304C139.811 58.4871 139.904 58.6944 139.955 58.9138C140.006 59.1333 140.013 59.3607 139.977 59.583C139.94 59.8054 139.861 60.0183 139.743 60.2096L107.655 112.184C107.417 112.568 107.039 112.843 106.602 112.947C106.164 113.052 105.704 112.978 105.32 112.741V112.741Z" fill="#C1C9D9"/>
<path d="M139.198 57.8464L93.3391 29.0526L59.4434 83.9473L105.322 112.741C105.705 112.978 106.165 113.052 106.603 112.947C107.04 112.843 107.419 112.568 107.656 112.183L139.744 60.2095C139.862 60.0182 139.942 59.8053 139.978 59.583C140.015 59.3606 140.007 59.1332 139.957 58.9138C139.906 58.6943 139.813 58.487 139.682 58.3039C139.552 58.1208 139.387 57.9653 139.198 57.8464Z" fill="#97A3B6"/>
<path d="M111.089 96.2521L127.076 70.3636C124.487 68.7376 122.645 66.1415 121.954 63.1461C121.263 60.1507 121.78 57.0012 123.392 54.3902L57.52 13.0305C55.9084 15.6392 53.3358 17.4961 50.3674 18.1931C47.399 18.8901 44.2776 18.3703 41.689 16.7478L25.6934 42.6474C28.2821 44.2726 30.1247 46.8682 30.816 49.8633C31.5072 52.8583 30.9906 56.0077 29.3796 58.6186L95.2512 99.9694C96.8629 97.3589 99.4367 95.5007 102.407 94.8036C105.377 94.1065 108.5 94.6275 111.089 96.2521Z" fill="#F1F4F8"/>
<path d="M123.392 54.3813L90.4549 33.7059L62.3145 79.294L95.2514 99.9694C96.863 97.3589 99.4369 95.5007 102.407 94.8036C105.377 94.1065 108.5 94.6275 111.089 96.2521L127.076 70.3636C125.793 69.5585 124.68 68.5063 123.8 67.2672C122.921 66.0281 122.292 64.6264 121.95 63.1422C121.608 61.658 121.559 60.1204 121.807 58.6171C122.054 57.1139 122.593 55.6745 123.392 54.3813V54.3813Z" fill="#F1F4F8"/>
<path d="M50.3598 40.9536C52.2899 39.0463 52.3212 35.9222 50.4298 33.9758C48.5384 32.0294 45.4405 31.9978 43.5104 33.9052C41.5803 35.8125 41.5489 38.9366 43.4403 40.883C45.3317 42.8294 48.4297 42.861 50.3598 40.9536Z" fill="#198AFF"/>
<path d="M110.06 77.9412C111.822 75.8746 111.588 72.7592 109.539 70.9829C107.489 69.2065 104.4 69.4419 102.639 71.5085C100.877 73.5751 101.111 76.6905 103.16 78.4668C105.209 80.2432 108.299 80.0078 110.06 77.9412Z" fill="#198AFF"/>
<path d="M89.5687 69.7928C96.8487 62.4513 96.8487 50.5484 89.5687 43.207C82.2886 35.8655 70.4853 35.8655 63.2052 43.207C55.9251 50.5484 55.9251 62.4513 63.2052 69.7928C70.4853 77.1343 82.2886 77.1343 89.5687 69.7928Z" fill="#C1C9D9"/>
<path d="M92.2137 66.4361C94.8223 62.2032 95.6583 57.0992 94.5381 52.2452C93.4178 47.3912 90.4329 43.184 86.2389 40.5476L66.5352 72.4679C70.734 75.1001 75.7974 75.9433 80.6125 74.8122C85.4277 73.6812 89.6004 70.6684 92.2137 66.4361V66.4361Z" fill="#97A3B6"/>
<path d="M79.9345 58.1208C80.479 58.8613 80.8537 59.7146 81.0316 60.6189C81.2117 61.6073 81.07 62.628 80.6279 63.5286C80.3071 64.2803 79.8174 64.9465 79.1975 65.4745C78.5775 66.0025 77.8443 66.3779 77.0557 66.571C75.3837 67.0254 73.4975 66.8661 71.3969 66.0931L69.5033 69.213C69.4132 69.3649 69.291 69.4948 69.1454 69.5935C68.9997 69.6921 68.8342 69.7572 68.6608 69.7839C68.2927 69.8462 67.9145 69.7937 67.5768 69.6334C67.272 69.5083 67.0257 69.271 66.8879 68.9696C66.8262 68.8216 66.8036 68.66 66.8225 68.5006C66.8413 68.3412 66.9009 68.1894 66.9954 68.0602L68.9504 64.8872C67.4232 63.9166 66.3788 62.7859 65.8171 61.4951C65.2554 60.2044 65.2386 58.9749 65.7666 57.8066C66.1206 57.0189 66.5953 56.5026 67.1907 56.2577C67.4635 56.1376 67.7585 56.0773 68.0562 56.0808C68.3539 56.0842 68.6474 56.1513 68.9175 56.2776C69.4748 56.5343 69.8171 56.8795 69.9422 57.3176C70.0672 57.7557 70.0343 58.3376 69.8412 59.0634C69.6744 59.572 69.6744 60.1213 69.8412 60.63C70.0236 61.159 70.3582 61.6212 70.8023 61.9576L73.7535 57.2047C73.0023 56.4397 72.3147 55.6138 71.6975 54.7354C71.1704 53.9622 70.8238 53.0786 70.6838 52.1509C70.5375 51.2024 70.7057 50.1875 71.1885 49.1063C71.5167 48.3212 72.022 47.6243 72.6642 47.0708C73.3064 46.5172 74.0678 46.1224 74.8879 45.9178C76.6037 45.4561 78.4512 45.5977 80.4304 46.3426L82.3503 43.1475C82.425 42.9949 82.5354 42.8629 82.6718 42.7627C82.8082 42.6625 82.9667 42.5971 83.1336 42.5722C83.4825 42.5148 83.8404 42.5649 84.1605 42.716C84.4727 42.85 84.7282 43.0905 84.8824 43.3953C84.9549 43.5338 84.9879 43.6897 84.9778 43.846C84.9678 44.0022 84.915 44.1526 84.8253 44.2804L82.7891 47.5397C84.1144 48.4248 85.0177 49.436 85.4989 50.5733C85.736 51.1163 85.8536 51.7046 85.8438 52.2977C85.8339 52.8909 85.6968 53.4749 85.4419 54.0096C85.0967 54.7752 84.6454 55.2539 84.0881 55.4456C83.5266 55.637 82.9129 55.5964 82.381 55.3328C82.1664 55.2433 81.9715 55.1117 81.8077 54.9458C81.6438 54.7798 81.5143 54.5827 81.4265 54.3658C81.2569 53.9106 81.2734 53.406 81.4726 52.963C81.8325 51.9865 81.6657 51.1633 80.9723 50.4936L77.771 55.6204C78.546 56.4049 79.2688 57.2402 79.9345 58.1208V58.1208ZM75.0656 52.0403C75.27 52.6235 75.5713 53.1675 75.9564 53.6489L78.6246 49.2545C77.9367 49.0183 77.1907 49.0183 76.5028 49.2545C76.2014 49.3738 75.9268 49.5528 75.695 49.7808C75.4633 50.0088 75.2791 50.2813 75.1534 50.5821C74.9385 51.0385 74.907 51.5611 75.0656 52.0403V52.0403ZM75.285 63.2609C75.5698 63.1796 75.8328 63.0347 76.0546 62.8371C76.2764 62.6395 76.4513 62.3941 76.5664 62.1191C76.6672 61.9004 76.7234 61.6636 76.7316 61.4226C76.7399 61.1817 76.7002 60.9414 76.6147 60.7163C76.3811 60.1274 76.0436 59.5861 75.6185 59.1187L73.1523 63.1569C73.9875 63.4032 74.7014 63.4379 75.2938 63.2609H75.285Z" fill="#E3E8EF"/>
</g>
<defs>
<clipPath id="clip0_20_24243">
<rect width="140" height="113" fill="white"/>
</clipPath>
</defs>
</svg>
