<svg width="19" height="19" viewBox="0 0 19 19" fill="none" xmlns="http://www.w3.org/2000/svg">
<g clip-path="url(#clip0_875_87926)">
<path d="M8.73184 12.2943C8.50176 12.5281 8.12324 12.5281 7.89316 12.2943L5.81504 10.2162C5.58125 9.98613 5.58125 9.60762 5.81504 9.37754C6.04512 9.14375 6.42363 9.14375 6.65371 9.37754L8.3125 11.0363L12.0494 7.29941C12.2795 7.06562 12.658 7.06562 12.8881 7.29941C13.1219 7.52949 13.1219 7.90801 12.8881 8.13809L8.73184 12.2943ZM12.7322 1.6933C13.9568 1.47213 15.2705 1.83432 16.2168 2.78246C17.1668 3.72949 17.5268 5.04316 17.3078 6.26777C18.3283 6.94316 19 8.16035 19 9.4666C19 10.8396 18.3283 12.0234 17.3078 12.7322C17.5268 13.9568 17.1668 15.2705 16.2168 16.2168C15.2705 17.1668 13.9568 17.5268 12.7322 17.3078C12.0234 18.3283 10.8396 19 9.5 19C8.16035 19 6.94316 18.3283 6.26777 17.3078C5.04316 17.5268 3.72949 17.1668 2.78246 16.2168C1.83432 15.2705 1.47213 13.9568 1.6933 12.7322C0.670938 12.0234 0 10.8396 0 9.4666C0 8.16035 0.670938 6.94316 1.6933 6.26777C1.47213 5.04316 1.83432 3.72949 2.78246 2.78246C3.72949 1.83432 5.04316 1.47213 6.26777 1.6933C6.94316 0.670938 8.16035 0 9.4666 0C10.8396 0 12.0234 0.670938 12.7322 1.6933ZM6.84297 3.08305L6.37168 2.93906C5.4291 2.64961 4.36406 2.87857 3.62225 3.62225C2.87857 4.36406 2.64961 5.4291 2.93906 6.37168L3.08305 6.84297L2.64961 7.07305C1.77865 7.5332 1.1875 8.44981 1.1875 9.4666C1.1875 10.5502 1.77865 11.4334 2.64961 11.927L3.08305 12.157L2.93906 12.6283C2.64961 13.5709 2.87857 14.6322 3.62225 15.3781C4.36406 16.1203 5.4291 16.3504 6.37168 16.0609L6.84297 15.9162L7.07305 16.3504C7.5332 17.2225 8.4498 17.8125 9.5 17.8125C10.5502 17.8125 11.4334 17.2225 11.927 16.3504L12.157 15.9162L12.6283 16.0609C13.5709 16.3504 14.6322 16.1203 15.3781 15.3781C16.1203 14.6322 16.3504 13.5709 16.0609 12.6283L15.9162 12.157L16.3504 11.927C17.2225 11.4334 17.8125 10.5502 17.8125 9.4666C17.8125 8.44981 17.2225 7.5332 16.3504 7.07305L15.9162 6.84297L16.0609 6.37168C16.3504 5.4291 16.1203 4.36406 15.3781 3.62188C14.6359 2.8782 13.5709 2.64961 12.6283 2.93906L12.157 3.08305L11.927 2.64961C11.4334 1.77865 10.5502 1.1541 9.5 1.1541C8.4498 1.1541 7.5332 1.77865 7.07305 2.64961L6.84297 3.08305Z" fill="#111F39"/>
</g>
<defs>
<clipPath id="clip0_875_87926">
<rect width="19" height="19" fill="white"/>
</clipPath>
</defs>
</svg>
