<svg width="139" height="95" viewBox="0 0 139 95" fill="none" xmlns="http://www.w3.org/2000/svg">
<g clip-path="url(#clip0_20_24677)">
<path d="M8.87542e-05 89.5059L0.516722 4.63807C0.524282 3.40034 1.01956 2.21633 1.89361 1.34648C2.76766 0.476634 3.94888 -0.00780795 5.17746 -0.000279765L134.396 0.798129C135.625 0.805745 136.8 1.30471 137.663 2.18527C138.527 3.06583 139.008 4.25585 139 5.49358L138.483 90.3614C138.48 90.9742 138.356 91.5804 138.12 92.1452C137.884 92.7101 137.54 93.2225 137.107 93.6533C136.674 94.084 136.162 94.4247 135.598 94.6558C135.035 94.8869 134.432 95.004 133.823 95.0002L4.60465 94.2018C3.99623 94.1981 3.3945 94.0737 2.83382 93.8357C2.27313 93.5977 1.76448 93.2507 1.33689 92.8147C0.909313 92.3786 0.571182 91.862 0.341811 91.2942C0.112441 90.7265 -0.00367725 90.1188 8.87542e-05 89.5059Z" fill="#C1C9D9"/>
<path d="M0.457534 13.9007L0.316406 37.1754L138.8 38.0277L138.941 14.753L0.457534 13.9007Z" fill="#47546B"/>
<g clip-path="url(#clip1_20_24677)">
<circle cx="120" cy="74" r="10" fill="#F1F4F8"/>
</g>
<rect x="10" y="77" width="30" height="7" rx="2" fill="#97A3B6"/>
<rect x="44" y="77" width="21" height="7" rx="2" fill="#97A3B6"/>
<g clip-path="url(#clip2_20_24677)">
<path d="M120 67C121.006 67 121.881 67.566 122.321 68.3973C123.221 68.1211 124.238 68.3398 124.949 69.0508C125.66 69.7617 125.879 70.7816 125.603 71.6785C126.434 72.1188 127 72.9938 127 74C127 75.0063 126.434 75.8812 125.603 76.3215C125.879 77.2211 125.66 78.2383 124.949 78.9492C124.238 79.6602 123.218 79.8789 122.321 79.6027C121.881 80.434 121.006 81 120 81C118.994 81 118.119 80.434 117.679 79.6027C116.779 79.8789 115.762 79.6602 115.051 78.9492C114.34 78.2383 114.121 77.2184 114.397 76.3215C113.566 75.8812 113 75.0063 113 74C113 72.9938 113.566 72.1188 114.397 71.6785C114.121 70.7789 114.34 69.7617 115.051 69.0508C115.762 68.3398 116.782 68.1211 117.679 68.3973C118.119 67.566 118.994 67 120 67ZM120.574 71.0824C120.574 70.7789 120.328 70.5328 120.025 70.5328C119.721 70.5328 119.475 70.7789 119.475 71.0824V71.3148C119.292 71.3504 119.117 71.4023 118.955 71.4762C118.515 71.6758 118.138 72.0449 118.045 72.5754C117.993 72.8734 118.02 73.1605 118.143 73.4203C118.264 73.6746 118.452 73.8551 118.649 73.9891C118.994 74.2215 119.45 74.3609 119.809 74.4676L119.871 74.4867C120.293 74.6125 120.591 74.7137 120.779 74.8504C120.861 74.9105 120.897 74.9598 120.913 74.998C120.93 75.0336 120.946 75.1047 120.924 75.2359C120.902 75.3645 120.829 75.4711 120.645 75.5477C120.446 75.6324 120.134 75.6707 119.737 75.6105C119.549 75.5805 119.218 75.4656 118.928 75.3672C118.863 75.3453 118.797 75.3234 118.739 75.3043C118.452 75.2086 118.143 75.3645 118.048 75.6516C117.952 75.9387 118.108 76.2477 118.395 76.3434C118.433 76.357 118.48 76.3707 118.532 76.3898C118.786 76.4773 119.185 76.6141 119.475 76.6742V76.9176C119.475 77.2211 119.721 77.4672 120.025 77.4672C120.328 77.4672 120.574 77.2211 120.574 76.9176V76.6988C120.752 76.6688 120.919 76.6223 121.077 76.5539C121.539 76.357 121.906 75.977 122.002 75.4219C122.054 75.1156 122.032 74.8258 121.917 74.5633C121.805 74.3008 121.619 74.1094 121.422 73.9672C121.061 73.7047 120.58 73.5598 120.208 73.4477L120.186 73.4422C119.759 73.3137 119.456 73.218 119.262 73.0867C119.177 73.0293 119.144 72.9855 119.13 72.9555C119.12 72.9309 119.1 72.8789 119.122 72.7668C119.136 72.682 119.202 72.5699 119.407 72.477C119.614 72.384 119.929 72.3348 120.312 72.3949C120.446 72.4168 120.859 72.4961 120.976 72.5289C121.269 72.6055 121.567 72.4332 121.646 72.1406C121.725 71.848 121.55 71.55 121.258 71.4707C121.113 71.4324 120.768 71.3641 120.574 71.3285V71.0879V71.0824Z" fill="#198AFF"/>
</g>
</g>
<defs>
<clipPath id="clip0_20_24677">
<rect width="139" height="95" fill="white"/>
</clipPath>
<clipPath id="clip1_20_24677">
<rect width="20" height="20" fill="white" transform="translate(110 64)"/>
</clipPath>
<clipPath id="clip2_20_24677">
<rect width="14" height="14" fill="white" transform="translate(113 67)"/>
</clipPath>
</defs>
</svg>
