<svg width="145" height="118" viewBox="0 0 145 118" fill="none" xmlns="http://www.w3.org/2000/svg">
<g clip-path="url(#clip0_20_24738)">
<path d="M137.645 25.6108L33.0383 0.27249C27.8848 -0.97583 22.7002 2.21119 21.4582 7.3909L6.0593 71.6106C4.81729 76.7904 7.9882 82.0013 13.1417 83.2496L117.748 108.588C122.901 109.836 128.086 106.649 129.328 101.47L144.727 37.2498C145.969 32.0701 142.798 26.8591 137.645 25.6108Z" fill="#C1C9D9"/>
<path d="M137.649 25.6041L44.543 3.05652L109.186 106.504L117.759 108.58C118.984 108.877 120.255 108.928 121.5 108.731C122.745 108.534 123.939 108.092 125.014 107.431C126.09 106.77 127.025 105.903 127.766 104.878C128.507 103.854 129.041 102.693 129.336 101.461L144.731 37.2404C145.027 36.0089 145.078 34.731 144.882 33.4797C144.686 32.2284 144.246 31.0282 143.588 29.9476C142.931 28.8671 142.067 27.9273 141.048 27.182C140.029 26.4368 138.874 25.9006 137.649 25.6041Z" fill="#97A3B6"/>
<path d="M143.431 42.6492L20.1621 12.7903L15.4417 32.4763L138.711 62.3352L143.431 42.6492Z" fill="#5E6B85"/>
<path d="M9.4668 57.4114L90.2851 32.3859L16.3093 28.8715L9.4668 57.4114Z" fill="#47546B"/>
<path d="M84.6333 57.0691L28.3711 43.4409L25.373 55.944L81.6353 69.5722L84.6333 57.0691Z" fill="#FFE197"/>
<path d="M113.991 64.1777L92.3613 58.9384L89.3633 71.4415L110.993 76.6808L113.991 64.1777Z" fill="#FFCE33"/>
<path d="M102.568 90.8015L21.709 71.2152L20.2591 77.2619L101.119 96.8482L102.568 90.8015Z" fill="#FFE197"/>
<path d="M72.0178 73.0745L24.0488 61.4552L22.5989 67.5019L70.5679 79.1213L72.0178 73.0745Z" fill="#FFE197"/>
<path d="M71.3896 46.0224L138.716 62.3249L143.437 42.6399L56.0527 21.4801L71.3896 46.0224Z" fill="#47546B"/>
<path d="M126.799 42.2943L97.9082 103.774L117.754 108.58C118.979 108.877 120.251 108.928 121.496 108.731C122.741 108.534 123.935 108.093 125.011 107.431C126.086 106.77 127.021 105.903 127.763 104.879C128.505 103.854 129.039 102.693 129.334 101.461L131.486 92.4716L126.799 42.2943Z" fill="#47546B"/>
<path d="M117.2 32.6499H9.59846C4.29738 32.6499 0 36.9691 0 42.2971V108.356C0 113.684 4.29738 118.003 9.59846 118.003H117.2C122.501 118.003 126.798 113.684 126.798 108.356V42.2971C126.798 36.9691 122.501 32.6499 117.2 32.6499Z" fill="#C1C9D9"/>
<path d="M126.798 42.2943C126.798 39.7365 125.787 37.2834 123.987 35.4747C122.188 33.666 119.747 32.6499 117.202 32.6499H29.6113L103.249 117.992H117.202C119.747 117.992 122.188 116.975 123.987 115.167C125.787 113.358 126.798 110.905 126.798 108.347V42.2943Z" fill="#97A3B6"/>
<path d="M31.1014 63H17.8986C15.1932 63 13 64.7164 13 66.8336V77.1663C13 79.2836 15.1932 81 17.8986 81H31.1014C33.8068 81 36 79.2836 36 77.1663V66.8336C36 64.7164 33.8068 63 31.1014 63Z" fill="#198AFF"/>
<path d="M114.276 40.6537H36.1914V53.3687H114.276V40.6537Z" fill="#F1F4F8"/>
<path d="M60.1853 72.2249H43.6074V82.1474H60.1853V72.2249Z" fill="#E3E8EF"/>
<path d="M83.5232 72.2249H66.9453V82.1474H83.5232V72.2249Z" fill="#F1F4F8"/>
<path d="M106.863 72.2249H90.2852V82.1474H106.863V72.2249Z" fill="#E3E8EF"/>
<path d="M95.8093 104.288H12.6348V110.508H95.8093V104.288Z" fill="#E3E8EF"/>
<path d="M61.9771 94.2472H12.6348V100.467H61.9771V94.2472Z" fill="#E3E8EF"/>
<path d="M19 63H18V77H19V63Z" fill="#F1F4F8"/>
<path d="M36 68H18V69H36V68Z" fill="#F1F4F8"/>
<path d="M30 68V81H31V68H30Z" fill="#F1F4F8"/>
<path d="M31 77H13V76H31V77Z" fill="#F1F4F8"/>
<path d="M47.4857 53.3687H114.278V40.6565H36.5176L47.4857 53.3687Z" fill="#E3E8EF"/>
<path d="M66.9453 75.9247L72.312 82.1446H83.5232V72.222H66.9453V75.9247Z" fill="#E3E8EF"/>
</g>
<defs>
<clipPath id="clip0_20_24738">
<rect width="145" height="118" fill="white"/>
</clipPath>
</defs>
</svg>
