<svg width="148" height="114" viewBox="0 0 148 114" fill="none" xmlns="http://www.w3.org/2000/svg">
<g clip-path="url(#clip0_20_24482)">
<path d="M26.946 8.45508H19.043V114.009H26.946V8.45508Z" fill="#E3E8EF"/>
<path d="M128.958 8.45508H121.055V114.009H128.958V8.45508Z" fill="#E3E8EF"/>
<path d="M148 0.0552979H0V17.7122H148V0.0552979Z" fill="#E3E8EF"/>
<path d="M14.1562 17.7214H2.56445L12.6807 0H24.2725L14.1562 17.7214Z" fill="#2B2D38"/>
<path d="M38.436 17.7214H26.8535L36.9698 0H48.5615L38.436 17.7214Z" fill="#2B2D38"/>
<path d="M62.7265 17.7214H51.1348L61.251 0H72.8428L62.7265 17.7214Z" fill="#2B2D38"/>
<path d="M87.0078 17.7214H75.416L85.5415 0H97.1333L87.0078 17.7214Z" fill="#2B2D38"/>
<path d="M111.297 17.7214H99.7051L109.821 0H121.413L111.297 17.7214Z" fill="#2B2D38"/>
<path d="M135.578 17.7214H123.986L134.103 0H145.694L135.578 17.7214Z" fill="#2B2D38"/>
<g style="mix-blend-mode:multiply">
<path d="M0 9.43237V17.7122H2.57287L2.56365 17.7214H14.1554L14.1646 17.7122H26.8538V17.7214H38.4363L38.4455 17.7122H51.1439L51.1347 17.7214H62.7264V17.7122H75.4248L75.4155 17.7214H87.0073L87.0165 17.7122H99.7057V17.7214H111.297V17.7122H123.996L123.987 17.7214H135.578L135.588 17.7122H148V9.43237H0Z" fill="#C1C9D9"/>
</g>
<path d="M148 30.4454H0V48.1023H148V30.4454Z" fill="#E3E8EF"/>
<path d="M14.1562 48.1209H2.56445L12.6807 30.3994H24.2725L14.1562 48.1209Z" fill="#2B2D38"/>
<path d="M38.436 48.1209H26.8535L36.9698 30.3994H48.5615L38.436 48.1209Z" fill="#2B2D38"/>
<path d="M62.7265 48.1209H51.1348L61.251 30.3994H72.8428L62.7265 48.1209Z" fill="#2B2D38"/>
<path d="M87.0078 48.1209H75.416L85.5415 30.3994H97.1333L87.0078 48.1209Z" fill="#2B2D38"/>
<path d="M111.297 48.1209H99.7051L109.821 30.3994H121.413L111.297 48.1209Z" fill="#2B2D38"/>
<path d="M135.578 48.1209H123.986L134.103 30.3994H145.694L135.578 48.1209Z" fill="#2B2D38"/>
<g style="mix-blend-mode:multiply">
<path d="M0 39.8225V48.1024H2.57287L2.56365 48.1208H14.1554L14.1646 48.1024H26.8538V48.1208H38.4363L38.4455 48.1024H51.1439L51.1347 48.1208H62.7264V48.1024H75.4248L75.4155 48.1208H87.0073L87.0165 48.1024H99.7057V48.1208H111.297V48.1024H123.996L123.987 48.1208H135.578L135.588 48.1024H148V39.8225H0Z" fill="#C1C9D9"/>
</g>
</g>
<defs>
<clipPath id="clip0_20_24482">
<rect width="148" height="114" fill="white"/>
</clipPath>
</defs>
</svg>
