<svg width="20" height="21" viewBox="0 0 20 21" fill="none" xmlns="http://www.w3.org/2000/svg">
<path d="M11.875 9.25H15" stroke="#47546B" stroke-linecap="round" stroke-linejoin="round"/>
<path d="M11.875 11.75H15" stroke="#47546B" stroke-linecap="round" stroke-linejoin="round"/>
<path d="M7.19531 11.75C8.23085 11.75 9.07031 10.9105 9.07031 9.875C9.07031 8.83947 8.23085 8 7.19531 8C6.15978 8 5.32031 8.83947 5.32031 9.875C5.32031 10.9105 6.15978 11.75 7.19531 11.75Z" stroke="#47546B" stroke-linecap="round" stroke-linejoin="round"/>
<path d="M4.77344 13.625C4.91113 13.0873 5.22388 12.6106 5.66238 12.2702C6.10089 11.9299 6.64021 11.7451 7.19531 11.7451C7.75042 11.7451 8.28974 11.9299 8.72824 12.2702C9.16675 12.6106 9.4795 13.0873 9.61719 13.625" stroke="#47546B" stroke-linecap="round" stroke-linejoin="round"/>
<path d="M16.875 4.25H3.125C2.77982 4.25 2.5 4.52982 2.5 4.875V16.125C2.5 16.4702 2.77982 16.75 3.125 16.75H16.875C17.2202 16.75 17.5 16.4702 17.5 16.125V4.875C17.5 4.52982 17.2202 4.25 16.875 4.25Z" stroke="#47546B" stroke-linecap="round" stroke-linejoin="round"/>
</svg>
