<svg width="20" height="21" viewBox="0 0 20 21" fill="none" xmlns="http://www.w3.org/2000/svg">
<path d="M10 0.5C4.47656 0.5 0 4.97656 0 10.5C0 16.0234 4.47656 20.5 10 20.5C15.5234 20.5 20 16.0234 20 10.5C20 4.97656 15.5234 0.5 10 0.5ZM10 18.625C5.51953 18.625 1.875 14.9801 1.875 10.5C1.875 6.01992 5.51953 2.375 10 2.375C14.4805 2.375 18.125 6.01992 18.125 10.5C18.125 14.9801 14.4805 18.625 10 18.625ZM11.5625 13.625H10.9375V10.1875C10.9375 9.67188 10.5195 9.25 10 9.25H8.75C8.23438 9.25 7.8125 9.67188 7.8125 10.1875C7.8125 10.7031 8.23438 11.125 8.75 11.125H9.0625V13.625H8.4375C7.92188 13.625 7.5 14.0469 7.5 14.5625C7.5 15.0781 7.92188 15.5 8.4375 15.5H11.5625C12.0801 15.5 12.5 15.0801 12.5 14.5625C12.5 14.0449 12.082 13.625 11.5625 13.625ZM10 8C10.6902 8 11.25 7.44023 11.25 6.75C11.25 6.05977 10.6902 5.5 10 5.5C9.30977 5.5 8.75 6.05859 8.75 6.75C8.75 7.44141 9.30859 8 10 8Z" fill="#C1C9D9"/>
</svg>
