<svg width="21" height="20" viewBox="0 0 21 20" fill="none" xmlns="http://www.w3.org/2000/svg">
<path d="M10.5 0C4.70039 0 0 4.47656 0 10C0 15.5234 4.70039 20 10.5 20C16.2996 20 21 15.5234 21 10C21 4.47656 16.2996 0 10.5 0ZM10.5 18.75C5.43457 18.75 1.3125 14.8242 1.3125 10C1.3125 5.17578 5.43457 1.25 10.5 1.25C15.5654 1.25 19.6875 5.17578 19.6875 10C19.6875 14.8242 15.5654 18.75 10.5 18.75ZM10.5 11.875C10.8627 11.875 11.1562 11.5955 11.1562 11.25V5C11.1562 4.65453 10.8627 4.375 10.5 4.375C10.1373 4.375 9.84375 4.65625 9.84375 5V11.25C9.84375 11.5938 10.1391 11.875 10.5 11.875ZM10.5 13.4375C9.95654 13.4375 9.51562 13.8574 9.51562 14.375C9.51562 14.8926 9.95654 15.3125 10.5 15.3125C11.0435 15.3125 11.4844 14.8926 11.4844 14.375C11.4844 13.8574 11.0455 13.4375 10.5 13.4375Z" fill="#FF0000"/>
</svg>
