<svg width="170" height="125" viewBox="0 0 170 125" fill="none" xmlns="http://www.w3.org/2000/svg">
<g clip-path="url(#clip0_20_24069)">
<path d="M90.9669 52.2893C91.0099 49.6416 83.3473 47.3729 73.8521 47.222C64.3569 47.0711 56.6247 49.0952 56.5817 51.7429C56.5387 54.3906 64.2013 56.6593 73.6965 56.8102C83.1917 56.9611 90.924 54.9371 90.9669 52.2893Z" fill="#198AFF"/>
<path d="M90.9691 52.2898L91.1144 49.2302L87.9837 49.641L56.7287 48.6833L56.582 51.7429L66.7952 55.0707L81.3674 53.4794L90.9691 52.2898Z" fill="#198AFF"/>
<path d="M91.1134 49.2286C91.1564 46.5808 83.4938 44.3121 73.9986 44.1612C64.5034 44.0103 56.7711 46.0344 56.7282 48.6821C56.6852 51.3298 64.3478 53.5985 73.843 53.7494C83.3382 53.9003 91.0705 51.8763 91.1134 49.2286Z" fill="#6AB3FF"/>
<path d="M60.7403 48.4346L63.9862 48.4865C64.0268 47.9681 64.6147 47.4381 65.4266 47.1375L67.5766 47.3876C66.7988 47.6973 66.1808 48.1534 66.1729 48.6562C66.1624 49.2925 67.4731 49.7435 69.3063 49.7733C71.0739 49.8005 72.1725 49.4687 73.1467 48.8208C74.4482 47.9266 75.9357 47.3863 78.7325 47.4303C81.3997 47.4731 83.4162 48.0342 83.885 48.8661L87.1322 48.918L87.1231 49.4739L84.0054 49.4234C83.9321 49.9612 83.4123 50.3201 82.861 50.5715L80.7437 50.3123C81.1366 50.1296 81.8449 49.7733 81.8541 49.2005C81.8659 48.5098 80.3915 48.226 79.1044 48.2065C77.4323 48.1793 76.5917 48.4981 75.4211 49.2588C74.0567 50.1659 72.3781 50.6 69.5171 50.5547C66.9769 50.5145 64.6069 49.9832 64.0753 49.0515L60.7324 48.9983L60.7403 48.4346Z" fill="white"/>
<path d="M70.2011 50.3227C79.6967 50.473 87.43 48.4502 87.4732 45.8014C87.5164 43.1527 79.8526 40.8849 70.3569 40.7345C60.8612 40.5842 53.1293 42.6071 53.0861 45.2546C53.0429 47.902 60.7067 50.1711 70.2011 50.3227Z" fill="#198AFF"/>
<path d="M87.473 45.8014L87.6183 42.7418L84.4876 43.1526L53.2326 42.1949L53.0859 45.2545L63.2991 48.581L77.8713 46.991L87.473 45.8014Z" fill="#198AFF"/>
<path d="M87.6173 42.7417C87.6603 40.094 79.9977 37.8253 70.5025 37.6744C61.0073 37.5235 53.275 39.5476 53.2321 42.1953C53.1891 44.843 60.8517 47.1117 70.3469 47.2626C79.8421 47.4135 87.5744 45.3895 87.6173 42.7417Z" fill="#6AB3FF"/>
<path d="M57.2442 41.9461L60.4901 41.9979C60.5307 41.4796 61.1187 40.9496 61.9305 40.6489L64.0805 40.899C63.3027 41.2087 62.6847 41.6649 62.6768 42.1677C62.6663 42.804 63.977 43.2549 65.8102 43.2834C67.5778 43.3119 68.6764 42.9802 69.6506 42.3323C70.9521 41.4381 72.4396 40.8977 75.2364 40.9418C77.9037 40.9846 79.9201 41.5457 80.3889 42.3776L83.6361 42.4295L83.627 42.9841L80.5093 42.9348C80.436 43.4713 79.9162 43.8316 79.3649 44.083L77.2463 43.8238C77.6392 43.6411 78.3488 43.2847 78.358 42.712C78.3698 42.0213 76.8954 41.7375 75.6083 41.7167C73.9362 41.6908 73.0956 42.0096 71.925 42.7703C70.5606 43.6774 68.882 44.1115 66.021 44.0661C63.4808 44.026 61.1108 43.4947 60.5792 42.5629L57.2363 42.5098L57.2442 41.9461Z" fill="white"/>
<path d="M74.328 46.2887C83.8237 46.4403 91.5556 44.4161 91.5988 41.7687C91.642 39.1212 83.9795 36.8521 74.4839 36.7005C64.9882 36.5489 57.2563 38.573 57.2131 41.2218C57.1699 43.8706 64.8324 46.1332 74.328 46.2887Z" fill="#198AFF"/>
<path d="M91.5986 41.7686L91.7453 38.709L88.6132 39.1198L57.3582 38.1609L57.2129 41.2217L67.4261 44.5482L81.9982 42.9582L91.5986 41.7686Z" fill="#198AFF"/>
<path d="M74.4745 43.2291C83.9688 43.3807 91.7021 41.3566 91.7453 38.7091C91.7885 36.0616 84.1247 33.7925 74.6356 33.6409C65.1464 33.4893 57.4067 35.5135 57.3635 38.1609C57.3203 40.8084 64.9788 43.0788 74.4745 43.2291Z" fill="#6AB3FF"/>
<path d="M61.3685 37.9134L64.6158 37.9652C64.6564 37.4469 65.243 36.9169 66.0561 36.6162L68.2061 36.865C67.4297 37.176 66.8116 37.6322 66.8038 38.1337C66.7933 38.77 68.104 39.2209 69.9358 39.2507C71.7035 39.2792 72.8021 38.9462 73.7776 38.2983C75.0778 37.4054 76.5665 36.8637 79.3621 36.9078C82.0306 36.9505 84.0471 37.5117 84.5158 38.3436L87.7618 38.3954L87.7526 38.9514L84.635 38.9021C84.5616 39.4386 84.0418 39.7976 83.4919 40.049L81.3733 39.7898C81.7661 39.6084 82.4758 39.252 82.485 38.6779C82.4954 37.9885 81.0211 37.7047 79.7353 37.684C78.0645 37.6581 77.2225 37.9756 76.0533 38.7376C74.6876 39.6447 73.0089 40.0788 70.1479 40.0334C67.609 39.992 65.2377 39.4619 64.7074 38.5302L61.3633 38.4771L61.3685 37.9134Z" fill="white"/>
<path d="M74.3528 41.7271C83.8484 41.8774 91.5804 39.8533 91.6236 37.2058C91.6668 34.5583 84.0043 32.2892 74.5034 32.1376C65.0025 31.986 57.2745 34.0115 57.2326 36.6589C57.1907 39.3064 64.8571 41.5755 74.3528 41.7271Z" fill="#198AFF"/>
<path d="M91.624 37.2058L91.7707 34.1462L88.6386 34.557L57.3836 33.5994L57.2383 36.6589L67.4515 39.9854L82.0223 38.3954L91.624 37.2058Z" fill="#198AFF"/>
<path d="M91.7697 34.1448C91.8126 31.4971 84.1501 29.2284 74.6548 29.0775C65.1596 28.9266 57.4274 30.9506 57.3844 33.5983C57.3415 36.2461 65.004 38.5148 74.4993 38.6657C83.9945 38.8166 91.7267 36.7925 91.7697 34.1448Z" fill="#6AB3FF"/>
<path d="M61.3939 33.3506L64.6412 33.4025C64.6818 32.8841 65.2684 32.3541 66.0815 32.0535L68.2315 32.3023C67.4551 32.6133 66.837 33.0694 66.8279 33.5709C66.8187 34.2072 68.1294 34.6595 69.9612 34.688C71.7289 34.7165 72.8275 34.3847 73.803 33.7368C75.1032 32.8427 76.5906 32.301 79.3875 32.3463C82.056 32.3878 84.0725 32.9489 84.5412 33.7822L87.7872 33.8327L87.778 34.3886L84.6565 34.3407C84.5831 34.8772 84.0633 35.2361 83.5121 35.4875L81.3948 35.2284C81.7876 35.0469 82.4973 34.6906 82.5064 34.1165C82.5169 33.4271 81.0426 33.1433 79.7567 33.1226C78.086 33.0966 77.244 33.4141 76.0748 34.1761C74.7091 35.0832 73.0304 35.5173 70.1694 35.472C67.6305 35.4305 65.2592 34.9005 64.7276 33.9688L61.3848 33.9156L61.3939 33.3506Z" fill="white"/>
<path d="M74.3723 37.3859C83.8679 37.5376 91.5999 35.5134 91.6431 32.8659C91.6863 30.2185 84.0238 27.9494 74.5281 27.7978C65.0324 27.6461 57.3018 29.6755 57.2599 32.3191C57.218 34.9627 64.8792 37.2356 74.3723 37.3859Z" fill="#198AFF"/>
<path d="M91.6455 32.866L91.7922 29.8065L88.6601 30.2172L57.4051 29.2583L57.2598 32.3192L67.473 35.6457L82.0438 34.0556L91.6455 32.866Z" fill="#198AFF"/>
<path d="M74.5208 34.3265C84.0164 34.4781 91.7497 32.4539 91.7876 29.8052C91.8256 27.1564 84.167 24.8886 74.6714 24.737C65.1757 24.5854 57.4438 26.6095 57.4006 29.257C57.3574 31.9045 65.0264 34.1761 74.5208 34.3265Z" fill="#6AB3FF"/>
<path d="M61.4167 29.0107L64.664 29.0625C64.7046 28.5442 65.2912 28.0141 66.1043 27.7135L68.2543 27.9623C67.4778 28.2733 66.8598 28.7295 66.8506 29.231C66.8415 29.8672 68.1522 30.3195 69.984 30.348C71.7517 30.3765 72.8502 30.0435 73.8257 29.3955C75.126 28.5027 76.6134 27.961 79.4103 28.0051C82.0788 28.0478 84.0952 28.609 84.564 29.4409L87.81 29.4927L87.8008 30.0487L84.6832 29.9994C84.6098 30.5359 84.09 30.8949 83.5388 31.1463L81.4215 30.8871C81.8143 30.7057 82.524 30.3493 82.5331 29.7752C82.5436 29.0858 81.0693 28.802 79.7834 28.7813C78.1127 28.7554 77.2707 29.0729 76.1015 29.8348C74.7358 30.742 73.0571 31.1761 70.1961 31.1307C67.6572 31.0893 65.2859 30.5592 64.7543 29.6275L61.4102 29.5757L61.4167 29.0107Z" fill="white"/>
<path d="M73.6262 33.9519C83.1219 34.1023 90.8538 32.0794 90.897 29.4306C90.9402 26.7819 83.2777 24.5193 73.782 24.3689C64.2864 24.2186 56.5532 26.2415 56.5099 28.889C56.4667 31.5364 64.1306 33.8055 73.6262 33.9519Z" fill="#198AFF"/>
<path d="M90.8968 29.4358L91.0422 26.3762L87.9114 26.787L56.6564 25.8293L56.5098 28.8889L66.7243 32.2154L81.2951 30.6254L90.8968 29.4358Z" fill="#198AFF"/>
<path d="M91.0412 26.3756C91.0841 23.7279 83.4215 21.4592 73.9263 21.3083C64.4311 21.1574 56.6989 23.1815 56.6559 25.8292C56.613 28.4769 64.2755 30.7456 73.7707 30.8965C83.266 31.0474 90.9982 29.0234 91.0412 26.3756Z" fill="#6AB3FF"/>
<path d="M60.6661 25.5805L63.9133 25.6323C63.9539 25.114 64.5405 24.584 65.3537 24.2833L67.5037 24.5334C66.7272 24.8431 66.1079 25.2993 66.1 25.8021C66.0895 26.4384 67.4015 26.8893 69.2334 26.9178C71.001 26.9463 72.0996 26.6146 73.0751 25.9667C74.3753 25.0725 75.8628 24.5308 78.6596 24.5762C81.3281 24.619 83.3446 25.1801 83.8134 26.012L87.0593 26.0639L87.0502 26.6185L83.9312 26.5654C83.8579 27.1019 83.3381 27.4621 82.7868 27.7135L80.6695 27.4543C81.0623 27.2716 81.7707 26.9152 81.7799 26.3412C81.7917 25.6518 80.3173 25.368 79.0302 25.3472C77.3581 25.3213 76.5175 25.6388 75.3482 26.4008C73.9825 27.3079 72.3039 27.742 69.4429 27.6967C66.904 27.6565 64.5327 27.1252 64.0011 26.1934L60.6582 26.1403L60.6661 25.5805Z" fill="white"/>
<path d="M91.2892 24.6332C91.3322 21.9855 83.6696 19.7168 74.1744 19.5659C64.6791 19.415 56.9469 21.439 56.904 24.0867C56.861 26.7345 64.5236 29.0032 74.0188 29.1541C83.514 29.305 91.2462 27.2809 91.2892 24.6332Z" fill="#198AFF"/>
<path d="M91.292 24.6332L91.4386 21.5737L88.3066 21.9832L57.0516 21.0255L56.9062 24.0864L67.1194 27.4129L81.6903 25.8228L91.292 24.6332Z" fill="#198AFF"/>
<path d="M74.1672 26.0937C83.6615 26.2453 91.3948 24.2212 91.438 21.5737C91.4812 18.9262 83.8174 16.6559 74.323 16.5055C64.8287 16.3552 57.0889 18.3781 57.0509 21.0256C57.0129 23.673 64.6715 25.9421 74.1672 26.0937Z" fill="#6AB3FF"/>
<path d="M61.0619 20.778L64.3092 20.8298C64.3498 20.3115 64.9364 19.7815 65.7495 19.4808L67.8995 19.7296C67.123 20.0407 66.505 20.4968 66.4972 20.9983C66.4867 21.6346 67.7974 22.0855 69.6292 22.1153C71.3969 22.1439 72.4954 21.8108 73.4709 21.1629C74.7712 20.27 76.2586 19.7283 79.0555 19.7724C81.724 19.8152 83.7404 20.3763 84.2092 21.2082L87.4552 21.2601L87.446 21.816L84.3244 21.7706C84.2511 22.3071 83.7313 22.6661 83.1813 22.9175L81.0628 22.6583C81.4556 22.4769 82.1653 22.1205 82.1744 21.5465C82.1849 20.8558 80.7105 20.5733 79.4247 20.5525C77.7539 20.5253 76.912 20.8441 75.7427 21.6061C74.377 22.5067 72.6984 22.9473 69.8374 22.9019C67.2985 22.8618 64.9272 22.3318 64.3969 21.3987L61.0527 21.3456L61.0619 20.778Z" fill="white"/>
<path d="M89.8029 20.466C89.8458 17.8183 82.1833 15.5495 72.688 15.3986C63.1928 15.2477 55.4606 17.2718 55.4176 19.9195C55.3747 22.5672 63.0372 24.836 72.5325 24.9869C82.0277 25.1378 89.7599 23.1137 89.8029 20.466Z" fill="#198AFF"/>
<path d="M89.8037 20.4683L89.9504 17.4087L86.8183 17.8182L55.5633 16.8606L55.418 19.9202L65.6312 23.248L80.2033 21.6579L89.8037 20.4683Z" fill="#198AFF"/>
<path d="M72.6809 21.9288C82.1766 22.0804 89.9085 20.0563 89.9517 17.4075C89.9949 14.7587 82.3324 12.4909 72.8367 12.3406C63.3411 12.1903 55.6078 14.2132 55.5646 16.8606C55.5214 19.5081 63.1853 21.7772 72.6809 21.9288Z" fill="#6AB3FF"/>
<path d="M59.5775 16.6118L62.8235 16.6636C62.8641 16.1453 63.4507 15.6166 64.2638 15.3159L66.4138 15.5647C65.6373 15.8744 65.0193 16.3319 65.0115 16.8334C65.001 17.4697 66.3117 17.9206 68.1435 17.9504C69.9112 17.9776 71.0097 17.6459 71.9852 16.998C73.2855 16.1038 74.7742 15.5634 77.5698 15.6075C80.2383 15.6503 82.2547 16.2114 82.7235 17.0433L85.9695 17.0952L85.9603 17.6511L82.8426 17.6018C82.7706 18.1383 82.2495 18.4973 81.6996 18.7487L79.581 18.4895C79.9738 18.3068 80.6835 17.9517 80.6926 17.3777C80.7031 16.687 79.2287 16.4045 77.9429 16.3837C76.2722 16.3565 75.4302 16.6753 74.2609 17.436C72.8966 18.3431 71.2166 18.7772 68.3556 18.7318C65.8167 18.6917 63.4454 18.1604 62.9151 17.2286L59.5723 17.1755L59.5775 16.6118Z" fill="white"/>
<path d="M70.2824 20.4255C79.7781 20.5771 87.51 18.553 87.5532 15.9055C87.5964 13.258 79.9339 10.989 70.4448 10.8373C60.9557 10.6857 53.2172 12.7099 53.174 15.3586C53.1308 18.0074 60.7868 20.2752 70.2824 20.4255Z" fill="#198AFF"/>
<path d="M87.5537 15.9056L87.7004 12.846L84.5683 13.2555L53.3133 12.2979L53.168 15.3587L63.3812 18.6852L77.9533 17.0952L87.5537 15.9056Z" fill="#198AFF"/>
<path d="M70.429 17.3647C79.9246 17.5163 87.6565 15.4921 87.6997 12.8447C87.743 10.1972 80.0791 7.92942 70.5848 7.77521C61.0904 7.621 53.3559 9.65034 53.3127 12.2978C53.2695 14.9453 60.9333 17.2144 70.429 17.3647Z" fill="#6AB3FF"/>
<path d="M57.3249 12.0517L60.5709 12.1035C60.6115 11.5852 61.1981 11.0552 62.0112 10.7545L64.1599 11.002C63.3834 11.313 62.7654 11.7692 62.7575 12.2707C62.7471 12.907 64.0578 13.3579 65.8896 13.3877C67.6573 13.4162 68.7558 13.0832 69.7313 12.4353C71.0315 11.5424 72.5203 11.0007 75.3159 11.0448C77.9844 11.0876 80.0008 11.6487 80.4696 12.4806L83.7155 12.5325L83.7064 13.0884L80.5887 13.0391C80.5154 13.5756 79.9956 13.9346 79.4456 14.186L77.3271 13.9268C77.7199 13.7454 78.4296 13.389 78.4387 12.815C78.4492 12.1243 76.9748 11.8418 75.689 11.821C74.0182 11.7938 73.1763 12.1126 72.007 12.8746C70.6427 13.7817 68.9627 14.2158 66.1017 14.1704C63.5628 14.1303 61.1915 13.6003 60.6612 12.6685L57.3184 12.6141L57.3249 12.0517Z" fill="white"/>
<path d="M72.5819 16.0857C82.0776 16.2373 89.8095 14.2131 89.8527 11.5657C89.8959 8.91819 82.2295 6.64911 72.7378 6.49749C63.246 6.34588 55.5102 8.37003 55.467 11.0149C55.4238 13.6598 63.0863 15.9392 72.5819 16.0857Z" fill="#198AFF"/>
<path d="M89.8525 11.5657L89.9992 8.50616L86.8671 8.91566L55.6121 7.95801L55.4668 11.0176L65.68 14.3454L80.2508 12.7553L89.8525 11.5657Z" fill="#198AFF"/>
<path d="M72.7278 13.0261C82.2287 13.1777 89.9541 11.1535 89.9986 8.50607C90.0431 5.8586 82.378 3.58823 72.8836 3.43791C63.3893 3.28759 55.6547 5.31304 55.6115 7.95792C55.5683 10.6028 63.2321 12.8745 72.7278 13.0261Z" fill="#6AB3FF"/>
<path d="M59.6224 7.71045L62.8697 7.76099C62.9103 7.24264 63.4969 6.71393 64.31 6.41199L66.4601 6.66209C65.6836 6.9731 65.0656 7.42925 65.0577 7.93075C65.0472 8.56703 66.3579 9.01799 68.1898 9.0478C69.9574 9.07501 71.056 8.74326 72.0315 8.09533C73.3317 7.20117 74.8205 6.6608 77.616 6.70486C80.2845 6.74762 82.301 7.30873 82.7697 8.14068L86.0157 8.19252L86.0065 8.74845L82.8837 8.6992C82.8103 9.2357 82.2905 9.59465 81.7406 9.84605L79.6233 9.58947C80.0161 9.40675 80.7258 9.05168 80.735 8.47761C80.7454 7.78691 79.2711 7.50441 77.9853 7.48368C76.3145 7.45646 75.4725 7.77525 74.3033 8.53593C72.9376 9.44304 71.2589 9.87715 68.3979 9.8318C65.859 9.79163 63.4878 9.26032 62.9561 8.32858L59.6133 8.27545L59.6224 7.71045Z" fill="white"/>
<path d="M68.7226 12.6555C78.2182 12.8071 85.9515 10.783 85.9947 8.13548C86.0379 5.48801 78.374 3.21893 68.8745 3.06732C59.3749 2.9157 51.6508 4.93985 51.6076 7.58862C51.5644 10.2374 59.2269 12.5052 68.7226 12.6555Z" fill="#198AFF"/>
<path d="M85.9945 8.13547L86.1398 5.07591L83.0078 5.4867L51.7541 4.52905L51.6074 7.58861L61.8206 10.9151L76.3928 9.32508L85.9945 8.13547Z" fill="#198AFF"/>
<path d="M86.1388 5.07609C86.1818 2.42837 78.5192 0.159641 69.024 0.00873615C59.5288 -0.142169 51.7965 1.8819 51.7536 4.52961C51.7106 7.17733 59.3732 9.44606 68.8684 9.59697C78.3636 9.74787 86.0958 7.72381 86.1388 5.07609Z" fill="#6AB3FF"/>
<path d="M55.7644 4.27642L59.0103 4.32825C59.0509 3.8099 59.6389 3.27989 60.4507 2.97925L62.602 3.22806C61.8242 3.53907 61.2062 3.99521 61.1983 4.49672C61.1879 5.13299 62.4985 5.58525 64.3304 5.61376C66.0994 5.64227 67.1979 5.31053 68.1721 4.66129C69.4736 3.76844 70.9611 3.22676 73.7579 3.27212C76.4252 3.31358 78.4416 3.8747 78.9104 4.70794L82.1576 4.75848L82.1445 5.31312L79.0269 5.26387C78.9536 5.80037 78.4324 6.15932 77.8825 6.41072L75.7639 6.15155C76.1567 5.97013 76.8664 5.61376 76.8756 5.03969C76.8874 4.35028 75.413 4.06649 74.1259 4.04575C72.4538 4.01983 71.6132 4.33732 70.4426 5.0993C69.0782 6.00641 67.3983 6.44053 64.5386 6.39517C61.9984 6.3537 59.6284 5.82369 59.0968 4.89196L55.7539 4.83883L55.7644 4.27642Z" fill="white"/>
<path d="M49.0864 62.9925C58.514 63.1428 66.1857 61.1342 66.2289 58.5062C66.2721 55.8781 58.6606 53.6259 49.2409 53.4756C39.8212 53.3252 32.1417 55.3339 32.0998 57.9632C32.0579 60.5925 39.6628 62.8421 49.0864 62.9925Z" fill="#198AFF"/>
<path d="M66.2287 58.5062L66.3727 55.4686L63.2656 55.8768L32.245 54.9257L32.0996 57.9632L42.2369 61.2651L56.699 59.6867L66.2287 58.5062Z" fill="#198AFF"/>
<path d="M49.2329 59.9562C58.6605 60.1052 66.3322 58.0966 66.3741 55.4686C66.416 52.8406 58.8124 50.5896 49.3874 50.4393C39.9625 50.289 32.2882 52.2976 32.2463 54.9256C32.2044 57.5537 39.8053 59.8059 49.2329 59.9562Z" fill="#6AB3FF"/>
<path d="M36.2253 54.6859L39.4477 54.7378C39.487 54.2194 40.071 53.7011 40.8736 53.3978L43.0066 53.6453C42.2367 53.9538 41.6226 54.4073 41.6147 54.9049C41.6043 55.5373 42.9058 55.9844 44.7232 56.0129C46.4791 56.0414 47.5685 55.7123 48.5361 55.0682C49.8272 54.1818 51.3042 53.6427 54.0801 53.6881C56.7276 53.7309 58.7297 54.2881 59.1945 55.1136L62.4169 55.1654L62.4077 55.7161L59.315 55.6604C59.243 56.193 58.7271 56.5507 58.1797 56.7995L56.0782 56.5403C56.4645 56.3589 57.1715 56.0051 57.1807 55.4362C57.1925 54.7507 55.7286 54.4695 54.4532 54.4501C52.7942 54.4229 51.9589 54.7391 50.7974 55.4946C49.4435 56.39 47.7767 56.8254 44.9366 56.7801C42.4174 56.7399 40.0644 56.2138 39.5367 55.2885L36.2188 55.2354L36.2253 54.6859Z" fill="white"/>
<path d="M45.6158 56.5533C55.0433 56.7023 62.715 54.6937 62.7582 52.0657C62.8014 49.4376 55.1952 47.1854 45.7703 47.0403C36.3453 46.8951 28.6749 48.8947 28.6291 51.5227C28.5833 54.1507 36.1921 56.403 45.6158 56.5533Z" fill="#198AFF"/>
<path d="M62.758 52.0656L62.902 49.0294L59.7949 49.4363L28.7729 48.4851L28.6289 51.5226L38.7649 54.8245L53.2283 53.2462L62.758 52.0656Z" fill="#198AFF"/>
<path d="M45.7616 53.5196C55.1891 53.6699 62.8608 51.6613 62.9027 49.0332C62.9446 46.4052 55.341 44.153 45.9161 44.0027C36.4911 43.8523 28.8168 45.8622 28.7736 48.489C28.7304 51.1157 36.3366 53.3654 45.7616 53.5196Z" fill="#6AB3FF"/>
<path d="M32.7565 48.239L35.9789 48.2908C36.0182 47.7724 36.6022 47.2541 37.4048 46.9521L39.5444 47.1997C38.7745 47.5081 38.1604 47.9603 38.1525 48.458C38.142 49.0903 39.4436 49.5374 41.261 49.5672C43.0156 49.5944 44.1063 49.2653 45.0739 48.6225C46.365 47.7349 47.8419 47.1971 50.6178 47.2424C53.2654 47.2839 55.2675 47.8411 55.7323 48.6679L58.9547 48.7197L58.9455 49.2718L55.8501 49.2225C55.7781 49.7551 55.2622 50.1115 54.7149 50.3603L52.6133 50.1011C52.9996 49.9197 53.7067 49.5672 53.7158 48.997C53.7276 48.3128 52.2637 48.0316 50.9884 48.0109C49.3294 47.985 48.494 48.2999 47.3326 49.0553C45.9787 49.9508 44.3118 50.3875 41.4718 50.3422C38.9525 50.302 36.5996 49.7746 36.0719 48.8506L32.7539 48.7975L32.7565 48.239Z" fill="white"/>
<path d="M49.7114 52.549C59.139 52.6994 66.8107 50.6907 66.8539 48.0627C66.8971 45.4347 59.2909 43.1824 49.8659 43.0334C40.441 42.8844 32.7667 44.8917 32.7248 47.5197C32.6829 50.1478 40.2878 52.4 49.7114 52.549Z" fill="#198AFF"/>
<path d="M66.8537 48.0627L66.9977 45.0264L63.8906 45.4333L32.87 44.4822L32.7246 47.5197L42.8606 50.8216L57.324 49.2432L66.8537 48.0627Z" fill="#198AFF"/>
<path d="M49.856 49.5127C59.2836 49.663 66.9553 47.6531 66.9972 45.0264C67.0391 42.3997 59.4355 40.1461 50.0105 39.9958C40.5856 39.8455 32.9113 41.8567 32.8654 44.4821C32.8196 47.1076 40.4311 49.3624 49.856 49.5127Z" fill="#6AB3FF"/>
<path d="M36.851 44.2359L40.0734 44.2877C40.1126 43.7694 40.6966 43.251 41.4993 42.9491L43.6323 43.1966C42.8623 43.5037 42.2482 43.9573 42.2404 44.4549C42.2299 45.0873 43.5314 45.5344 45.3489 45.5642C47.1034 45.5914 48.1942 45.2622 49.1618 44.6195C50.4529 43.7318 51.9298 43.194 54.7057 43.2394C57.3533 43.2808 59.354 43.8381 59.8202 44.6648L63.0426 44.7167L63.0334 45.2687L59.938 45.2195C59.866 45.7521 59.3501 46.1084 58.8028 46.3572L56.7012 46.0981C57.094 45.9167 57.7946 45.5642 57.8037 44.994C57.8155 44.3098 56.3516 44.0273 55.0763 44.0078C53.4173 43.9806 52.5819 44.2968 51.4205 45.0523C50.0666 45.9478 48.3997 46.3845 45.5597 46.3391C43.0404 46.2989 40.6875 45.7715 40.1598 44.8463L36.8418 44.7944L36.851 44.2359Z" fill="white"/>
<path d="M49.7362 48.0211C59.1638 48.1715 66.8355 46.1629 66.8774 43.5348C66.9193 40.9068 59.3144 38.6546 49.8868 38.5042C40.4592 38.3539 32.7875 40.3638 32.7443 42.9919C32.7011 45.6199 40.3113 47.8708 49.7362 48.0211Z" fill="#198AFF"/>
<path d="M66.8778 43.5348L67.0231 40.4973L63.9147 40.9055L32.894 39.9543L32.75 42.9906L42.8859 46.2938L57.3494 44.7154L66.8778 43.5348Z" fill="#198AFF"/>
<path d="M49.8879 44.9836C59.3155 45.1339 66.9859 43.1253 67.0291 40.4973C67.0723 37.8693 59.4661 35.617 50.0424 35.468C40.6188 35.319 32.9379 37.3211 32.8947 39.9543C32.8515 42.5875 40.4603 44.8372 49.8879 44.9836Z" fill="#6AB3FF"/>
<path d="M36.875 39.7081L40.0974 39.7587C40.138 39.2403 40.7207 38.722 41.5233 38.42L43.6576 38.6676C42.8864 38.976 42.2736 39.4282 42.2644 39.9271C42.2553 40.5582 43.5555 41.0066 45.3742 41.0351C47.1288 41.0636 48.2195 40.7332 49.1871 40.0904C50.4782 39.204 51.9552 38.665 54.7298 38.7103C57.3787 38.7531 59.3794 39.309 59.8455 40.1358L63.0666 40.1863L63.0575 40.7384L59.9699 40.6904C59.8979 41.223 59.3807 41.5794 58.8347 41.8295L56.7397 41.5703C57.1246 41.3902 57.833 41.0364 57.8422 40.4675C57.8526 39.782 56.3901 39.5008 55.1134 39.4801C53.4544 39.4542 52.6256 39.7703 51.4589 40.5258C50.1037 41.4213 48.4382 41.8567 45.5981 41.8113C43.0776 41.7712 40.7246 41.245 40.1969 40.3198L36.8789 40.2667L36.875 39.7081Z" fill="white"/>
<path d="M49.7557 43.7137C59.1833 43.864 66.855 41.8554 66.8969 39.2273C66.9388 36.5993 59.3339 34.3471 49.9102 34.1968C40.4866 34.0464 32.811 36.055 32.7678 38.6831C32.7246 41.3111 40.3281 43.5633 49.7557 43.7137Z" fill="#198AFF"/>
<path d="M66.9006 39.2274L67.0459 36.1898L63.9375 36.598L32.9168 35.6469L32.7715 38.6831L42.9087 41.9863L57.3709 40.4079L66.9006 39.2274Z" fill="#198AFF"/>
<path d="M49.9042 40.6762C59.3317 40.8265 67.0021 38.8179 67.0453 36.1899C67.0885 33.5619 59.4823 31.3096 50.0587 31.1606C40.635 31.0116 32.9594 33.0189 32.9162 35.6469C32.873 38.275 40.4792 40.5272 49.9042 40.6762Z" fill="#6AB3FF"/>
<path d="M36.8972 35.4006L40.1195 35.4512C40.1601 34.9328 40.7428 34.4145 41.5455 34.1125L43.6798 34.3601C42.9085 34.6685 42.2931 35.1181 42.2931 35.6197C42.284 36.2507 43.5842 36.6991 45.4029 36.7276C47.1575 36.7561 48.2482 36.4257 49.2158 35.7829C50.5069 34.8966 51.9839 34.3575 54.7585 34.4028C57.4074 34.4456 59.4081 35.0015 59.8729 35.8283L63.0953 35.8788L63.0862 36.4309L59.9921 36.3816C59.9201 36.9142 59.4029 37.2706 58.8568 37.5207L56.7553 37.2615C57.1402 37.0814 57.8486 36.7276 57.8578 36.1587C57.8683 35.4732 56.4057 35.192 55.129 35.1713C53.47 35.1454 52.6412 35.4616 51.4745 36.2171C50.1193 37.1112 48.4525 37.5479 45.6137 37.5026C43.0932 37.4624 40.7402 36.9363 40.2125 36.011L36.8945 35.9579L36.8972 35.4006Z" fill="white"/>
<path d="M45.9283 40.3095C55.3559 40.4598 63.0275 38.4512 63.0707 35.8231C63.114 33.1951 55.5077 30.9429 46.0828 30.7926C36.6578 30.6422 28.9835 32.656 28.9377 35.2802C28.8919 37.9043 36.5046 40.1591 45.9283 40.3095Z" fill="#198AFF"/>
<path d="M63.0705 35.8232L63.2145 32.7856L60.1074 33.1938L29.0867 32.2427L28.9414 35.2802L39.0787 38.5821L53.5408 37.0037L63.0705 35.8232Z" fill="#198AFF"/>
<path d="M46.0728 37.2732C55.5003 37.4223 63.172 35.4136 63.2139 32.7856C63.2558 30.1576 55.6483 27.9067 46.2273 27.7563C36.8062 27.606 29.128 29.6146 29.0861 32.2426C29.0442 34.8707 36.6478 37.1229 46.0728 37.2732Z" fill="#6AB3FF"/>
<path d="M33.0678 31.9965L36.2902 32.047C36.3294 31.5287 36.9134 31.0103 37.7161 30.7084L39.8491 30.9559C39.0791 31.2643 38.465 31.7179 38.4572 32.2155C38.4467 32.8466 39.7482 33.2949 41.5657 33.3234C43.3215 33.352 44.411 33.0228 45.3786 32.3788C46.6696 31.4924 48.1466 30.9533 50.9225 30.9987C53.5701 31.0414 55.5721 31.5986 56.037 32.4241L59.2594 32.4759L59.2502 33.0267L56.1561 32.9774C56.0828 33.5101 55.5669 33.8664 55.0196 34.1165L52.918 33.8573C53.3043 33.6772 54.0114 33.3234 54.0205 32.7546C54.0323 32.069 52.5684 31.7878 51.2931 31.7671C49.6341 31.7412 48.7987 32.0574 47.6373 32.8129C46.2834 33.7083 44.6165 34.1437 41.7765 34.0984C39.2572 34.0582 36.9043 33.5321 36.3766 32.6068L33.0586 32.5537L33.0678 31.9965Z" fill="white"/>
<path d="M51.1874 33.0357C60.6149 33.186 68.2853 31.1761 68.3285 28.5494C68.3717 25.9226 60.7655 23.6691 51.3419 23.5188C41.9182 23.3685 34.2426 25.3771 34.1994 28.0051C34.1562 30.6331 41.769 32.8854 51.1874 33.0357Z" fill="#198AFF"/>
<path d="M68.3283 28.5494L68.4737 25.5118L65.3652 25.9187L34.3446 24.9689L34.1992 28.0051L44.3365 31.307L58.7986 29.7299L68.3283 28.5494Z" fill="#198AFF"/>
<path d="M51.3286 29.9982C60.7562 30.1486 68.4278 28.14 68.4711 25.5119C68.5143 22.8839 60.9081 20.6317 51.4831 20.4826C42.0582 20.3336 34.3878 22.3409 34.3459 24.969C34.304 27.597 41.9089 29.8492 51.3286 29.9982Z" fill="#6AB3FF"/>
<path d="M38.3256 24.7227L41.5479 24.7732C41.5885 24.2549 42.1712 23.7365 42.9739 23.4346L45.1082 23.6821C44.3369 23.9905 43.7228 24.4428 43.715 24.9417C43.7045 25.5728 45.006 26.0211 46.8248 26.0496C48.5793 26.0782 49.6701 25.7477 50.6377 25.105C51.9287 24.2186 53.4044 23.6795 56.1803 23.7248C58.8279 23.7676 60.8299 24.3235 61.2948 25.1503L64.5172 25.2008L64.508 25.7529L61.41 25.7036C61.3367 26.2363 60.8208 26.5926 60.2748 26.8427L58.1719 26.5835C58.5582 26.4034 59.2665 26.0496 59.2757 25.4808C59.2862 24.7952 57.8236 24.514 56.5469 24.4933C54.888 24.4674 54.0526 24.7836 52.8925 25.5391C51.5372 26.4332 49.8704 26.8699 47.0316 26.8246C44.5189 26.787 42.162 26.2609 41.6383 25.3356L38.3203 25.2825L38.3256 24.7227Z" fill="white"/>
<path d="M170.001 99.2639C156.966 87.7099 131.897 65.2071 126.515 58.3143C120.333 50.3991 109.538 37.4806 102.215 35.2322C95.3067 33.1109 83.974 34.5571 70.0945 35.1843C53.5963 35.9294 43.0073 37.9056 40.4671 39.1548C36.9605 40.8783 38.2595 45.3323 42.9549 47.819C47.3741 50.1594 68.4879 46.4752 71.2703 52.238C72.1791 54.117 47.7014 56.7113 43.8296 56.1049C39.9577 55.4984 19.7369 36.4918 12.2865 32.2258C4.83611 27.9598 -0.0596821 31.4897 0.000549547 32.4331C0.144582 34.6867 29.5324 70.0303 38.8107 77.7265C48.089 85.4227 93.2287 76.1974 99.4915 76.5278C104.106 76.774 137.177 114.446 146.293 125C157.88 124.99 154.254 105.128 165.263 101.113C166.855 100.533 168.435 99.9162 170.001 99.2639Z" fill="#FFBE9D"/>
</g>
<defs>
<clipPath id="clip0_20_24069">
<rect width="170" height="125" fill="white"/>
</clipPath>
</defs>
</svg>
