<svg width="117" height="108" viewBox="0 0 117 108" fill="none" xmlns="http://www.w3.org/2000/svg">
<rect y="14.0829" width="107.881" height="118.917" rx="6.25878" fill="#47546B"/>
<path d="M0 20.3417C0 16.8851 2.80215 14.0829 6.25878 14.0829H12.0919V133H6.25878C2.80215 133 0 130.198 0 126.741V20.3417Z" fill="white" fill-opacity="0.08"/>
<path d="M59.7235 96.9418C72.9638 96.9418 83.6971 86.3793 83.6971 73.3498C83.6971 60.3203 72.9638 49.7578 59.7235 49.7578C46.4833 49.7578 35.75 60.3203 35.75 73.3498C35.75 86.3793 46.4833 96.9418 59.7235 96.9418Z" stroke="#C1C9D9" stroke-width="3.12939" stroke-linecap="round" stroke-linejoin="round"/>
<path d="M50.1337 73.3498C50.1337 86.3793 54.427 96.9418 59.7231 96.9418C65.0192 96.9418 69.3125 86.3793 69.3125 73.3498C69.3125 60.3203 65.0192 49.7578 59.7231 49.7578C54.427 49.7578 50.1337 60.3203 50.1337 73.3498Z" stroke="#C1C9D9" stroke-width="3.12939" stroke-linecap="round" stroke-linejoin="round"/>
<path d="M35.75 73.3493H83.6971" stroke="#C1C9D9" stroke-width="3.12939" stroke-linecap="round" stroke-linejoin="round"/>
<rect x="80.4375" width="36.5625" height="44.3331" rx="6.04542" fill="#DCC69F"/>
<path d="M80.4375 6.04542C80.4375 2.70663 83.1441 0 86.4829 0H110.955C114.293 0 117 2.70663 117 6.04542H80.4375Z" fill="#EA672C"/>
<path d="M96.7944 32.6462L94.2286 34.4598V36.2735L98.7188 35.0644L103.209 36.2735V34.4598L100.643 32.6462V25.9963L110.906 29.019V26.6008L100.643 20.5554V13.9054C100.643 12.9019 99.7836 12.0918 98.7188 12.0918C97.654 12.0918 96.7944 12.9019 96.7944 13.9054V20.5554L86.5312 26.6008V29.019L96.7944 25.9963V32.6462Z" fill="white"/>
</svg>
