<svg width="16" height="23" viewBox="0 0 16 23" fill="none" xmlns="http://www.w3.org/2000/svg">
<path d="M12.5 0H3.5C1.84297 0 0.5 1.28701 0.5 2.875V20.125C0.5 21.713 1.84297 23 3.5 23H12.5C14.157 23 15.5 21.713 15.5 20.125V2.875C15.5 1.28701 14.1547 0 12.5 0ZM14 20.125C14 20.9174 13.3269 21.5625 12.5 21.5625H3.5C2.67312 21.5625 2 20.9174 2 20.125V2.875C2 2.08258 2.67312 1.4375 3.5 1.4375H12.5C13.3269 1.4375 14 2.08258 14 2.875V20.125ZM9.5 17.9688H6.5C6.08581 17.9688 5.75 18.2905 5.75 18.6875C5.75 19.0844 6.08581 19.4062 6.5 19.4062H9.5C9.91419 19.4062 10.25 19.0844 10.25 18.6875C10.25 18.2922 9.9125 17.9688 9.5 17.9688Z" fill="#47546B"/>
</svg>
