<svg width="18" height="21" viewBox="0 0 18 21" fill="none" xmlns="http://www.w3.org/2000/svg">
<g clip-path="url(#clip0_875_87920)">
<path d="M15.0601 1.75H2.51001C1.12362 1.75 0 2.86914 0 4.25V16.75C0 18.1309 1.12362 19.25 2.51001 19.25H15.0601C16.4465 19.25 17.5701 18.1309 17.5701 16.75V4.25C17.5701 2.86914 16.4445 1.75 15.0601 1.75ZM16.3151 16.75C16.3151 17.4391 15.7519 18 15.0601 18H2.51001C1.81819 18 1.25501 17.4391 1.25501 16.75V4.25C1.25501 3.56094 1.81819 3 2.51001 3H15.0601C15.7519 3 16.3151 3.56094 16.3151 4.25V16.75ZM12.1069 10.6836L9.41255 13.3672V6.125C9.41255 5.77953 9.13198 5.5 8.82034 5.5C8.50871 5.5 8.15754 5.78125 8.15754 6.125V13.3672L5.4632 10.6836C5.21808 10.4395 4.82079 10.4395 4.57607 10.6836C4.33134 10.9277 4.33095 11.3234 4.57607 11.5672L8.34109 15.3172C8.46345 15.4375 8.62425 15.5 8.78505 15.5C8.94584 15.5 9.10601 15.439 9.22861 15.3169L12.9936 11.5669C13.2388 11.3227 13.2388 10.927 12.9936 10.6833C12.7485 10.4395 12.3501 10.4375 12.1069 10.6836Z" fill="#111F39"/>
</g>
<defs>
<clipPath id="clip0_875_87920">
<rect width="17.5701" height="20" fill="white" transform="translate(0 0.5)"/>
</clipPath>
</defs>
</svg>
