<svg width="20" height="21" viewBox="0 0 20 21" fill="none" xmlns="http://www.w3.org/2000/svg">
<path d="M9.99967 17.1666C13.6816 17.1666 16.6663 14.1818 16.6663 10.4999C16.6663 6.81802 13.6816 3.83325 9.99967 3.83325C6.31778 3.83325 3.33301 6.81802 3.33301 10.4999C3.33301 14.1818 6.31778 17.1666 9.99967 17.1666Z" stroke="#111729" stroke-width="1.5" stroke-linecap="round" stroke-linejoin="round"/>
<path d="M8.05957 8.49989C8.21631 8.05434 8.52567 7.67863 8.93287 7.43931C9.34007 7.2 9.81883 7.11252 10.2844 7.19237C10.7499 7.27222 11.1721 7.51424 11.4763 7.87558C11.7805 8.23691 11.9469 8.69424 11.9462 9.16656C11.9462 10.4999 9.94624 11.1666 9.94624 11.1666" stroke="#111729" stroke-width="1.5" stroke-linecap="round" stroke-linejoin="round"/>
<path d="M10 13.8333H10.0067" stroke="#111729" stroke-width="1.5" stroke-linecap="round" stroke-linejoin="round"/>
</svg>
