<svg width="114" height="114" viewBox="0 0 114 114" fill="none" xmlns="http://www.w3.org/2000/svg">
<g clip-path="url(#clip0_20_24462)">
<path d="M90.5361 90.5359C109.057 72.0152 109.057 41.987 90.5361 23.4663C72.0153 4.94551 41.9872 4.94551 23.4665 23.4663C4.94569 41.987 4.94569 72.0151 23.4665 90.5359C41.9872 109.057 72.0153 109.057 90.5361 90.5359Z" fill="#C1C9D9"/>
<path opacity="0.1" d="M56.6854 5.30446C28.1352 5.47703 5.12899 28.7637 5.30372 57.3138C5.47845 85.864 28.763 108.87 57.3131 108.696C85.8633 108.521 108.869 85.2363 108.695 56.6861C108.52 28.136 85.2355 5.12972 56.6854 5.30446ZM57.2613 100.004C33.5044 100.149 14.1309 81.0082 13.9863 57.2534C13.8418 33.4987 32.9824 14.1316 56.7328 13.9871C80.4833 13.8425 99.8763 32.9831 100.012 56.7336C100.148 80.484 81.0161 99.877 57.2613 100.013V100.004Z" fill="#47546B"/>
<path d="M56.6529 -0.000284132C25.1733 0.191704 -0.190726 25.8664 -0.000894483 57.3459C0.188937 88.8255 25.8657 114.19 57.3453 114C88.8249 113.81 114.189 88.1331 113.999 56.6535C113.809 25.1739 88.1325 -0.190115 56.6529 -0.000284132ZM57.2871 104.424C31.0947 104.584 9.73226 83.4822 9.57479 57.2877C9.41731 31.0932 30.5188 9.73503 56.7111 9.5754C82.9035 9.41577 104.266 30.5194 104.423 56.7117C104.581 82.9041 83.4816 104.267 57.2871 104.424Z" fill="#E3E8EF"/>
<path d="M45.6045 70.1772C44.699 68.6599 44.5193 66.1381 47.1554 65.8219C49.3519 65.5581 51.6007 67.2294 53.5946 68.1798C55.2916 68.9733 57.1449 69.3738 59.0172 69.3514C61.1342 69.3514 62.8317 68.8347 64.1097 67.8013C65.3878 66.7679 66.0268 65.41 66.0268 63.7278C66.0268 62.0215 65.5125 60.8078 64.484 60.0869C63.4555 59.3659 61.6931 59.0054 59.197 59.0054H57.548C53.4753 59.0054 50.3701 58.1522 48.2324 56.4459C46.0947 54.7396 45.0259 52.2643 45.0259 49.0199C45.0259 45.852 46.0697 43.3887 48.1572 41.6299C50.2448 39.8712 53.1757 38.9946 56.9498 39C58.5485 39.0094 60.1358 39.271 61.6534 39.7751C64.9759 40.85 70.2319 43.4668 69.3101 46.8554C67.8572 52.202 62.1698 45.1611 60.1237 44.2795C58.9252 43.7639 57.5175 43.5056 55.9006 43.5045C54.0222 43.5045 52.5094 44.0031 51.3621 45.0005C50.8084 45.4638 50.3659 46.0464 50.0677 46.7048C49.7695 47.3633 49.6231 48.0807 49.6396 48.8036C49.6396 50.3177 50.229 51.3991 51.4079 52.048C52.5868 52.6969 55.1232 53.0694 59.0172 53.1655C63.1706 53.2868 66.206 54.1579 68.1236 55.779C70.0412 57.4001 71 59.9055 71 63.2952C71 66.5396 69.9415 69.1345 67.8245 71.0801C65.7076 73.0256 62.8519 73.9989 59.2575 74C57.9811 73.9866 56.7085 73.8599 55.4544 73.6215C52.5486 73.0971 48.1867 73.1299 46.0849 70.8195C45.9041 70.6218 45.7431 70.4067 45.6045 70.1772Z" fill="#F1F4F8"/>
<path d="M57.0292 82H56.9687C55.3288 82 54 80.8243 54 79.3745V34.6255C54 33.1757 55.3288 32 56.9687 32H57.0292C58.6691 32 60 33.1757 60 34.6255V79.3745C60 80.8243 58.6691 82 57.0292 82Z" fill="#F1F4F8"/>
</g>
<defs>
<clipPath id="clip0_20_24462">
<rect width="114" height="114" fill="white"/>
</clipPath>
</defs>
</svg>
