<svg width="97" height="116" viewBox="0 0 97 116" fill="none" xmlns="http://www.w3.org/2000/svg">
<g clip-path="url(#clip0_20_24228)">
<path d="M35.2852 29.705C32.124 28.026 29.0978 24.3863 27.1774 21.6826C25.3873 19.17 23.7439 15.982 23.5297 12.8592C23.3155 9.73637 25.5689 7.24465 28.6858 7.01876C30.2266 6.90481 31.7565 7.3532 32.9923 8.28092C34.0724 9.10296 34.4215 11.2617 35.902 11.5178C38.586 11.9836 39.2797 7.4356 39.9082 5.61688C40.7369 3.23927 43.1415 0.232903 45.8581 0.016333C50.5254 -0.363247 49.3498 5.73331 50.5463 8.42763C50.9793 9.39637 51.9244 10.2161 52.9835 10.1648C53.8402 10.1229 54.5851 9.53144 55.0786 8.82584C55.5721 8.12024 55.8514 7.30054 56.2122 6.52275C57.7695 3.13913 61.4544 -0.980355 65.6003 0.654399C73.3356 3.70035 69.9207 13.928 66.8782 19.1863C63.0373 25.8301 55.4883 29.91 48.0718 31.0627C44.2915 31.6518 40.3388 31.5075 36.6842 30.3105C36.201 30.1502 35.7328 29.9476 35.2852 29.705Z" fill="#E3E8EF"/>
<path d="M36.6843 30.3081C40.3389 31.5051 44.2915 31.6495 48.0719 31.0603C55.4883 29.9099 63.0374 25.83 66.8783 19.1839C69.6019 14.4706 72.628 5.77053 67.6535 1.82336C69.6135 12.6588 58.0699 20.7697 46.9173 22.5489C35.7648 24.328 25.1406 18.285 25.1406 18.285C25.7299 19.4704 26.4134 20.6066 27.1844 21.6826C29.1072 24.3862 32.1264 28.026 35.2922 29.705C35.7377 29.9464 36.2035 30.1482 36.6843 30.3081Z" fill="#97A3B6"/>
<path d="M30.0285 27.4578C29.74 27.459 29.4592 27.3638 29.2308 27.1874C29.0024 27.011 28.8393 26.7634 28.7674 26.4838C28.6955 26.2042 28.719 25.9086 28.834 25.6438C28.949 25.379 29.149 25.1602 29.4024 25.022C40.3431 19.0116 54.2262 18.1918 64.7572 22.9261C64.9125 22.996 65.0525 23.0958 65.1692 23.2198C65.286 23.3438 65.3772 23.4896 65.4376 23.6489C65.498 23.8081 65.5265 23.9777 65.5213 24.148C65.5162 24.3183 65.4777 24.4859 65.4078 24.6412C65.338 24.7966 65.2382 24.9366 65.1142 25.0534C64.9903 25.1702 64.8445 25.2614 64.6853 25.3219C64.5261 25.3823 64.3566 25.4108 64.1864 25.4057C64.0162 25.4006 63.8487 25.362 63.6934 25.2921C53.877 20.8675 40.9064 21.6546 30.6501 27.2878C30.4607 27.3964 30.2468 27.4549 30.0285 27.4578Z" fill="#198AFF"/>
<path d="M96.9527 76.7986C98.1026 51.2014 77.2827 22.4907 48.8833 22.4907C29.8814 22.4907 12.779 37.8835 4.50357 53.9493C-4.39333 71.226 0.313507 92.1215 15.2464 105.009C30.8707 118.48 55.641 118.678 73.8841 110.42C89.3873 103.395 96.3382 90.5496 96.9527 76.7986Z" fill="#C1C9D9"/>
<path d="M75.5586 31.88C82.1975 41.5768 85.8592 53.3041 85.3587 64.4493C84.7325 78.198 77.791 91.0525 62.2784 98.0712C45.1387 105.828 22.24 106.122 6.57617 94.9578C8.9464 98.7206 11.8651 102.108 15.2356 105.008C30.8599 118.48 55.6302 118.678 73.8733 110.42C89.3881 103.395 96.3367 90.5495 96.9535 76.7985C97.6961 60.2646 89.2741 42.436 75.5586 31.88Z" fill="#97A3B6"/>
<path d="M58.8946 68.5712C56.7623 66.792 54.1024 65.6774 50.9148 65.2271L46.9273 64.6031C45.8185 64.4648 44.7741 64.0059 43.9221 63.2827C43.5171 62.9294 43.1966 62.4897 42.9843 61.996C42.7719 61.5022 42.6732 60.9671 42.6953 60.43C42.6953 59.2377 43.1756 58.1743 44.1362 57.2397C45.0969 56.3051 46.3446 55.8393 47.8794 55.8424C49.4111 55.8424 50.6681 56.1623 51.6504 56.8019C52.4931 57.3515 53.0945 58.3039 53.4545 59.6592C53.5116 59.859 53.6349 60.0334 53.804 60.1539C53.9732 60.2745 54.1782 60.3341 54.3856 60.3229L60.3611 60.09C60.4807 60.0889 60.5989 60.0636 60.7085 60.0158C60.8181 59.9679 60.9169 59.8984 60.9991 59.8115C61.0812 59.7245 61.145 59.6219 61.1866 59.5097C61.2281 59.3975 61.2467 59.278 61.241 59.1585C61.0671 56.8909 60.0396 54.7737 58.3662 53.2343C56.5691 51.5266 54.1877 50.415 51.2221 49.8996C51.0192 49.8674 50.8341 49.7648 50.6992 49.6098C50.5643 49.4549 50.4882 49.2574 50.4842 49.0519V46.9188C50.4769 46.6825 50.3763 46.4586 50.2044 46.2963C50.0325 46.1339 49.8033 46.0463 49.567 46.0526H45.2094C45.0912 46.0476 44.9732 46.0661 44.8623 46.1071C44.7513 46.148 44.6496 46.2106 44.563 46.2912C44.4764 46.3717 44.4066 46.4687 44.3577 46.5765C44.3089 46.6842 44.2818 46.8006 44.2782 46.9188V49.1917C44.2756 49.3903 44.2048 49.582 44.0776 49.7347C43.9505 49.8873 43.7748 49.9916 43.5799 50.03C40.8765 50.6401 38.7148 51.8378 37.0946 53.6232C35.3348 55.5607 34.4556 57.9981 34.4572 60.9353C34.4588 63.8726 35.2867 66.1889 36.941 67.8842C38.5953 69.5795 40.854 70.6515 43.7172 71.1002L49.3855 71.7196H49.4576C52.2138 72.176 53.5918 73.6431 53.5918 76.1208C53.5918 77.5041 52.9711 78.611 51.7296 79.4416C50.4881 80.2722 48.9447 80.6867 47.0996 80.6851C45.2606 80.6851 43.9011 80.2194 43.0212 79.2879C42.2686 78.4884 41.8379 77.2705 41.7293 75.6341C41.7085 75.3998 41.5972 75.1828 41.4189 75.0293C41.2407 74.8758 41.0096 74.7979 40.7749 74.8121L34.8785 75.045C34.7605 75.0465 34.644 75.0714 34.5357 75.1181C34.4274 75.1649 34.3294 75.2327 34.2473 75.3176C34.1653 75.4024 34.1009 75.5027 34.0578 75.6126C34.0147 75.7225 33.9938 75.8398 33.9963 75.9578C34.1515 79.0317 35.116 81.4536 36.8898 83.2234C38.6636 84.9932 40.8905 86.1576 43.5706 86.7165C43.7658 86.7559 43.9416 86.8611 44.0687 87.0145C44.1958 87.1679 44.2665 87.3602 44.2689 87.5595V91.5811C44.2725 91.6994 44.2995 91.8158 44.3484 91.9235C44.3973 92.0313 44.4671 92.1282 44.5537 92.2088C44.6403 92.2894 44.742 92.352 44.853 92.3929C44.9639 92.4339 45.0819 92.4524 45.2001 92.4474H49.5577C49.6748 92.4508 49.7914 92.4311 49.9009 92.3894C50.0104 92.3477 50.1106 92.2849 50.1958 92.2044C50.2809 92.124 50.3494 92.0275 50.3973 91.9206C50.4452 91.8136 50.4716 91.6983 50.4749 91.5811V87.5036C50.4808 87.2998 50.5567 87.1042 50.6898 86.9499C50.823 86.7955 51.0052 86.6917 51.2058 86.6559C53.9284 86.0848 56.4684 84.8515 58.6013 83.0651C60.9105 81.1307 62.0658 78.6762 62.0674 75.7017C62.069 72.7271 61.0113 70.3503 58.8946 68.5712Z" fill="#F1F4F8"/>
</g>
<defs>
<clipPath id="clip0_20_24228">
<rect width="97" height="116" fill="white"/>
</clipPath>
</defs>
</svg>
