<svg width="40" height="32" viewBox="0 0 40 32" fill="none" xmlns="http://www.w3.org/2000/svg">
<g clip-path="url(#clip0_20_24474)">
<path d="M4.94169 31.8996L13.1048 24.2389C13.1614 24.1856 13.2008 24.1157 13.2175 24.0385C13.2343 23.9614 13.2276 23.8808 13.1984 23.8077C13.1692 23.7346 13.1189 23.6725 13.0543 23.63C12.9897 23.5874 12.914 23.5665 12.8374 23.5699L8.21253 23.8251C10.0718 17.1327 14.0565 11.4237 19.5743 7.6168C25.4302 3.56576 32.3435 2.14093 39.0643 3.58645C39.1604 3.60779 39.2607 3.589 39.3434 3.5342C39.426 3.4794 39.4843 3.39305 39.5054 3.29404L39.9906 1.08438C40.0017 1.03464 40.003 0.983136 39.9945 0.932866C39.986 0.882596 39.968 0.834565 39.9413 0.791566C39.9147 0.748568 39.8801 0.711461 39.8394 0.682404C39.7988 0.653348 39.753 0.632922 39.7046 0.622314C32.1871 -1.00251 24.4665 0.579554 17.9288 5.09542C11.7801 9.34093 7.35706 15.7161 5.32933 23.1782L0.538684 20.7465C0.47055 20.7128 0.394115 20.7013 0.319495 20.7134C0.24488 20.7256 0.175597 20.7608 0.120822 20.8145C0.0660468 20.8682 0.0283575 20.9378 0.0127516 21.014C-0.00285432 21.0903 0.00435546 21.1697 0.0334196 21.2416L4.34955 31.7658C4.37297 31.8219 4.40903 31.8715 4.45472 31.9104C4.50042 31.9493 4.55445 31.9765 4.61233 31.9895C4.67021 32.0026 4.73027 32.0013 4.78755 31.9856C4.84483 31.97 4.89767 31.9405 4.94169 31.8996Z" fill="#198AFF"/>
</g>
<defs>
<clipPath id="clip0_20_24474">
<rect width="32" height="40" fill="white" transform="translate(40) rotate(90)"/>
</clipPath>
</defs>
</svg>
