<svg width="212" height="111" viewBox="0 0 212 111" fill="none" xmlns="http://www.w3.org/2000/svg">
<rect width="212" height="135.68" rx="9.09862" fill="white"/>
<path d="M0 9.09862C0 4.07359 4.07359 0 9.09862 0H202.901C207.926 0 212 4.07359 212 9.09862V22.6133H0V9.09862Z" fill="#47546B"/>
<path d="M80.2647 9.18145C80.2421 8.96982 80.1468 8.80504 79.9788 8.6871C79.8124 8.56917 79.5959 8.5102 79.3293 8.5102C79.1419 8.5102 78.9812 8.53848 78.8471 8.59502C78.713 8.65156 78.6104 8.7283 78.5394 8.82523C78.4683 8.92216 78.4319 9.03283 78.4303 9.15722C78.4303 9.26061 78.4537 9.35028 78.5006 9.42621C78.549 9.50214 78.6145 9.56676 78.6969 9.62007C78.7793 9.67176 78.8705 9.71538 78.9707 9.75093C79.0709 9.78647 79.1718 9.81635 79.2736 9.84059L79.7389 9.9569C79.9263 10.0005 80.1064 10.0595 80.2793 10.1338C80.4537 10.2081 80.6096 10.3018 80.747 10.4149C80.8859 10.528 80.9958 10.6645 81.0765 10.8244C81.1573 10.9844 81.1977 11.1718 81.1977 11.3866C81.1977 11.6774 81.1234 11.9335 80.9748 12.1548C80.8261 12.3745 80.6113 12.5466 80.3302 12.671C80.0507 12.7938 79.7122 12.8552 79.3148 12.8552C78.9287 12.8552 78.5935 12.7954 78.3091 12.6758C78.0264 12.5563 77.8051 12.3818 77.6452 12.1524C77.4868 11.923 77.4012 11.6435 77.3883 11.3139H78.2728C78.2857 11.4868 78.339 11.6306 78.4327 11.7453C78.5264 11.86 78.6484 11.9456 78.7986 12.0022C78.9505 12.0587 79.1201 12.087 79.3075 12.087C79.503 12.087 79.6743 12.0579 79.8213 11.9997C79.9699 11.94 80.0862 11.8576 80.1702 11.7526C80.2542 11.6459 80.297 11.5215 80.2987 11.3794C80.297 11.2501 80.2591 11.1435 80.1848 11.0595C80.1105 10.9739 80.0062 10.9028 79.8722 10.8462C79.7397 10.7881 79.5846 10.7364 79.4069 10.6912L78.8423 10.5458C78.4335 10.4408 78.1104 10.2816 77.873 10.0684C77.6371 9.85351 77.5192 9.56837 77.5192 9.21296C77.5192 8.92055 77.5983 8.66449 77.7566 8.44478C77.9166 8.22506 78.1339 8.05463 78.4085 7.93346C78.6831 7.81068 78.9941 7.74929 79.3415 7.74929C79.6936 7.74929 80.0022 7.81068 80.2672 7.93346C80.5337 8.05463 80.7429 8.22345 80.8948 8.43993C81.0466 8.65479 81.125 8.90197 81.1298 9.18145H80.2647ZM81.7811 8.57079V7.81715H85.7407V8.57079H84.2068V12.78H83.315V8.57079H81.7811ZM86.5416 12.78H85.582L87.3292 7.81715H88.4391L90.1887 12.78H89.2291L87.9035 8.83492H87.8648L86.5416 12.78ZM86.5731 10.8341H89.1903V11.5563H86.5731V10.8341ZM90.0245 8.57079V7.81715H93.9841V8.57079H92.4502V12.78H91.5584V8.57079H90.0245ZM94.7475 12.78V7.81715H97.9753V8.57079H95.6465V9.91813H97.8081V10.6718H95.6465V12.0264H97.9947V12.78H94.7475ZM101.11 9.93752V10.6597H98.8755V9.93752H101.11ZM102.97 7.81715V12.78H102.071V7.81715H102.97ZM106.641 9.18145C106.618 8.96982 106.523 8.80504 106.355 8.6871C106.189 8.56917 105.972 8.5102 105.706 8.5102C105.518 8.5102 105.357 8.53848 105.223 8.59502C105.089 8.65156 104.987 8.7283 104.916 8.82523C104.844 8.92216 104.808 9.03283 104.807 9.15722C104.807 9.26061 104.83 9.35028 104.877 9.42621C104.925 9.50214 104.991 9.56676 105.073 9.62007C105.155 9.67176 105.247 9.71538 105.347 9.75093C105.447 9.78647 105.548 9.81635 105.65 9.84059L106.115 9.9569C106.303 10.0005 106.483 10.0595 106.655 10.1338C106.83 10.2081 106.986 10.3018 107.123 10.4149C107.262 10.528 107.372 10.6645 107.453 10.8244C107.534 10.9844 107.574 11.1718 107.574 11.3866C107.574 11.6774 107.5 11.9335 107.351 12.1548C107.202 12.3745 106.987 12.5466 106.706 12.671C106.427 12.7938 106.088 12.8552 105.691 12.8552C105.305 12.8552 104.97 12.7954 104.685 12.6758C104.403 12.5563 104.181 12.3818 104.021 12.1524C103.863 11.923 103.777 11.6435 103.765 11.3139H104.649C104.662 11.4868 104.715 11.6306 104.809 11.7453C104.903 11.86 105.025 11.9456 105.175 12.0022C105.327 12.0587 105.496 12.087 105.684 12.087C105.879 12.087 106.05 12.0579 106.197 11.9997C106.346 11.94 106.462 11.8576 106.546 11.7526C106.63 11.6459 106.673 11.5215 106.675 11.3794C106.673 11.2501 106.635 11.1435 106.561 11.0595C106.487 10.9739 106.382 10.9028 106.248 10.8462C106.116 10.7881 105.961 10.7364 105.783 10.6912L105.218 10.5458C104.81 10.4408 104.487 10.2816 104.249 10.0684C104.013 9.85351 103.895 9.56837 103.895 9.21296C103.895 8.92055 103.975 8.66449 104.133 8.44478C104.293 8.22506 104.51 8.05463 104.785 7.93346C105.059 7.81068 105.37 7.74929 105.718 7.74929C106.07 7.74929 106.378 7.81068 106.643 7.93346C106.91 8.05463 107.119 8.22345 107.271 8.43993C107.423 8.65479 107.501 8.90197 107.506 9.18145H106.641ZM111.073 9.18145C111.05 8.96982 110.955 8.80504 110.787 8.6871C110.62 8.56917 110.404 8.5102 110.137 8.5102C109.95 8.5102 109.789 8.53848 109.655 8.59502C109.521 8.65156 109.418 8.7283 109.347 8.82523C109.276 8.92216 109.24 9.03283 109.238 9.15722C109.238 9.26061 109.262 9.35028 109.308 9.42621C109.357 9.50214 109.422 9.56676 109.505 9.62007C109.587 9.67176 109.678 9.71538 109.779 9.75093C109.879 9.78647 109.98 9.81635 110.081 9.84059L110.547 9.9569C110.734 10.0005 110.914 10.0595 111.087 10.1338C111.262 10.2081 111.417 10.3018 111.555 10.4149C111.694 10.528 111.804 10.6645 111.884 10.8244C111.965 10.9844 112.006 11.1718 112.006 11.3866C112.006 11.6774 111.931 11.9335 111.783 12.1548C111.634 12.3745 111.419 12.5466 111.138 12.671C110.858 12.7938 110.52 12.8552 110.123 12.8552C109.737 12.8552 109.401 12.7954 109.117 12.6758C108.834 12.5563 108.613 12.3818 108.453 12.1524C108.295 11.923 108.209 11.6435 108.196 11.3139H109.081C109.094 11.4868 109.147 11.6306 109.241 11.7453C109.334 11.86 109.456 11.9456 109.606 12.0022C109.758 12.0587 109.928 12.087 110.115 12.087C110.311 12.087 110.482 12.0579 110.629 11.9997C110.778 11.94 110.894 11.8576 110.978 11.7526C111.062 11.6459 111.105 11.5215 111.106 11.3794C111.105 11.2501 111.067 11.1435 110.993 11.0595C110.918 10.9739 110.814 10.9028 110.68 10.8462C110.547 10.7881 110.392 10.7364 110.215 10.6912L109.65 10.5458C109.241 10.4408 108.918 10.2816 108.681 10.0684C108.445 9.85351 108.327 9.56837 108.327 9.21296C108.327 8.92055 108.406 8.66449 108.564 8.44478C108.724 8.22506 108.942 8.05463 109.216 7.93346C109.491 7.81068 109.802 7.74929 110.149 7.74929C110.501 7.74929 110.81 7.81068 111.075 7.93346C111.342 8.05463 111.551 8.22345 111.703 8.43993C111.854 8.65479 111.933 8.90197 111.938 9.18145H111.073ZM115.935 7.81715H116.834V11.0595C116.834 11.4149 116.75 11.7275 116.582 11.9973C116.416 12.2671 116.182 12.4779 115.88 12.6298C115.578 12.78 115.225 12.8552 114.821 12.8552C114.415 12.8552 114.061 12.78 113.759 12.6298C113.457 12.4779 113.223 12.2671 113.057 11.9973C112.89 11.7275 112.807 11.4149 112.807 11.0595V7.81715H113.706V10.9844C113.706 11.1912 113.751 11.3753 113.842 11.5369C113.934 11.6984 114.063 11.8253 114.229 11.9173C114.396 12.0078 114.593 12.053 114.821 12.053C115.049 12.053 115.246 12.0078 115.412 11.9173C115.58 11.8253 115.709 11.6984 115.8 11.5369C115.89 11.3753 115.935 11.1912 115.935 10.9844V7.81715ZM117.812 12.78V7.81715H121.039V8.57079H118.711V9.91813H120.872V10.6718H118.711V12.0264H121.059V12.78H117.812ZM123.638 12.78H121.957V7.81715H123.672C124.165 7.81715 124.588 7.9165 124.942 8.11521C125.298 8.3123 125.571 8.59583 125.761 8.96578C125.952 9.33574 126.047 9.77839 126.047 10.2937C126.047 10.8107 125.951 11.255 125.759 11.6265C125.568 11.9981 125.293 12.2833 124.933 12.482C124.574 12.6807 124.143 12.78 123.638 12.78ZM122.856 12.0022H123.595C123.941 12.0022 124.229 11.9392 124.46 11.8131C124.691 11.6855 124.865 11.4957 124.981 11.2437C125.097 10.99 125.155 10.6734 125.155 10.2937C125.155 9.91409 125.097 9.59907 124.981 9.34866C124.865 9.09664 124.693 8.90843 124.465 8.78404C124.239 8.65802 123.958 8.59502 123.622 8.59502H122.856V12.0022ZM129.493 7.81715V12.78H128.594V7.81715H129.493ZM132.148 12.78H130.467V7.81715H132.182C132.675 7.81715 133.098 7.9165 133.452 8.11521C133.808 8.3123 134.081 8.59583 134.271 8.96578C134.462 9.33574 134.557 9.77839 134.557 10.2937C134.557 10.8107 134.461 11.255 134.269 11.6265C134.078 11.9981 133.803 12.2833 133.442 12.482C133.084 12.6807 132.652 12.78 132.148 12.78ZM131.366 12.0022H132.105C132.451 12.0022 132.739 11.9392 132.97 11.8131C133.201 11.6855 133.375 11.4957 133.491 11.2437C133.607 10.99 133.665 10.6734 133.665 10.2937C133.665 9.91409 133.607 9.59907 133.491 9.34866C133.375 9.09664 133.203 8.90843 132.975 8.78404C132.749 8.65802 132.468 8.59502 132.131 8.59502H131.366V12.0022Z" fill="white"/>
<g clip-path="url(#clip0_20_23459)">
<rect x="13.5332" y="36.1807" width="72.789" height="86.4369" rx="6.82397" fill="#EDF0F4"/>
<path fill-rule="evenodd" clip-rule="evenodd" d="M77.0178 107.584C74.7743 104.469 71.4667 102.204 67.6675 101.183L58.8437 98.8099V92.7219C62.5739 90.0321 65.0236 85.7994 65.1741 81.0115C65.6955 81.2321 66.2709 81.3571 66.8777 81.3571C69.2128 81.3571 71.106 79.54 71.106 77.2983C71.106 75.0566 69.2128 73.2395 66.8777 73.2395C66.2758 73.2395 65.7046 73.3619 65.1864 73.5794V72.4277C65.1864 64.0216 58.0873 57.2073 49.3303 57.2073H49.3301C40.573 57.2073 33.4742 64.0216 33.4742 72.4277V73.5794C32.9558 73.3619 32.3845 73.2395 31.7828 73.2395C29.4476 73.2395 27.5545 75.0566 27.5545 77.2983C27.5545 79.54 29.4476 81.3571 31.7828 81.3571C32.3894 81.3571 32.9649 81.2323 33.4864 81.0115C33.6367 85.7994 36.0864 90.0321 39.8164 92.7219V98.8099L30.9928 101.183C27.1937 102.204 23.8861 104.469 21.6425 107.584L15.5039 116.108V122.148H83.1566V116.108L77.0178 107.584Z" fill="#FFBE9D"/>
<path fill-rule="evenodd" clip-rule="evenodd" d="M49.3294 95.7667C47.3743 95.7667 45.5028 95.4249 43.7734 94.8037C46.233 96.312 49.1539 97.1872 52.2892 97.1872C54.6275 97.1872 56.845 96.6976 58.8431 95.8255V92.7228C56.193 94.6337 52.8992 95.7667 49.3294 95.7667Z" fill="#EB996E"/>
<path d="M34.0269 77.8906C34.0808 77.702 34.1097 77.5033 34.1097 77.2984C34.1097 76.0655 33.0685 75.066 31.7842 75.066C31.463 75.066 31.1571 75.1285 30.8789 75.2414" stroke="#263238" stroke-width="1.13733" stroke-linecap="round" stroke-linejoin="round"/>
<path d="M64.6354 77.8906C64.5815 77.702 64.5527 77.5033 64.5527 77.2984C64.5527 76.0655 65.594 75.066 66.8783 75.066C67.1992 75.066 67.5051 75.1285 67.7836 75.2414" stroke="#263238" stroke-width="1.13733" stroke-linecap="round" stroke-linejoin="round"/>
<path fill-rule="evenodd" clip-rule="evenodd" d="M53.5582 86.4313C53.5582 88.6729 51.6651 90.4901 49.3299 90.4901C46.9946 90.4901 45.1016 88.6729 45.1016 86.4313H53.5582Z" fill="white"/>
<path fill-rule="evenodd" clip-rule="evenodd" d="M58.0018 77.9062C58.0018 78.8028 57.2445 79.5297 56.3105 79.5297C55.3764 79.5297 54.6191 78.8028 54.6191 77.9062C54.6191 77.0096 55.3764 76.2827 56.3105 76.2827C57.2445 76.2827 58.0018 77.0096 58.0018 77.9062Z" fill="#263238"/>
<path fill-rule="evenodd" clip-rule="evenodd" d="M44.0467 77.9062C44.0467 78.8028 43.2894 79.5297 42.3554 79.5297C41.4214 79.5297 40.6641 78.8028 40.6641 77.9062C40.6641 77.0096 41.4214 76.2827 42.3554 76.2827C43.2894 76.2827 44.0467 77.0096 44.0467 77.9062Z" fill="#263238"/>
<path d="M49.3339 76.2827L51.4481 83.1827L48.4883 83.5885" stroke="#263238" stroke-width="1.13733" stroke-linecap="round" stroke-linejoin="round"/>
<path fill-rule="evenodd" clip-rule="evenodd" d="M66.2446 73.2889V72.4266C66.2446 69.7896 65.5888 67.3 64.4264 65.0985C64.951 64.5702 65.4431 64.0057 65.8962 63.4035L66.5729 62.5039C67.4928 61.2816 66.7516 59.5574 65.2015 59.3133L51.6544 57.1796C41.6154 55.5985 32.4941 63.0348 32.4941 72.8V73.3001C33.6406 73.4868 34.6303 74.1129 35.2649 74.9954L37.1778 67.7016L49.0507 69.8513C53.4432 70.6465 57.8916 69.7304 61.4952 67.4504L63.455 74.9226C64.1053 74.0599 65.0987 73.4547 66.2446 73.2889Z" fill="#263238"/>
<path fill-rule="evenodd" clip-rule="evenodd" d="M83.1586 116.107L77.0197 107.583C74.7764 104.467 71.4688 102.203 67.6695 101.181L58.8459 98.8085C58.8459 103.852 54.5865 107.941 49.3322 107.941C44.0779 107.941 39.8186 103.852 39.8186 98.8085L30.9947 101.181C27.1956 102.203 23.888 104.467 21.6445 107.583L15.5059 116.107V122.147H83.1586V116.107Z" fill="#016F3C"/>
</g>
<rect x="99.2344" y="41.834" width="60.8936" height="7.91467" rx="3.95733" fill="#EDF0F4"/>
<rect x="137.574" y="109.674" width="60.8936" height="7.91467" rx="3.95733" fill="#EDF0F4"/>
<rect x="99.2344" y="58.7946" width="99.234" height="7.91467" rx="3.95733" fill="#EDF0F4"/>
<rect x="99.2344" y="75.7557" width="84.5745" height="7.91467" rx="3.95733" fill="#EDF0F4"/>
<rect x="99.2344" y="92.714" width="99.234" height="7.91467" rx="3.95733" fill="#EDF0F4"/>
<rect x="166.895" y="41.834" width="31.5745" height="7.91467" rx="3.95733" fill="#EDF0F4"/>
<rect x="99.2344" y="109.674" width="31.5745" height="7.91467" rx="3.95733" fill="#EDF0F4"/>
<defs>
<clipPath id="clip0_20_23459">
<rect x="13.5332" y="36.1807" width="72.1702" height="85.9307" rx="6.82397" fill="white"/>
</clipPath>
</defs>
</svg>
