<svg width="112" height="119" viewBox="0 0 112 119" fill="none" xmlns="http://www.w3.org/2000/svg">
<g clip-path="url(#clip0_20_24428)">
<path d="M0.416016 113.722V23.6694H111.607V113.722C111.607 115.122 111.055 116.464 110.072 117.454C109.088 118.444 107.755 119 106.364 119H5.6594C4.26885 119 2.93525 118.444 1.95194 117.454C0.968627 116.464 0.416143 115.122 0.416016 113.722Z" fill="#C1C9D9"/>
<path d="M111.809 24.9906C111.809 29.331 108.211 32.8806 103.817 33.3003H8.19866C3.80354 32.8806 0.208984 29.331 0.208984 24.9906V20.0641C0.208984 15.7251 3.80354 12.175 8.19866 12.175H103.817C108.211 12.175 111.809 15.7251 111.809 20.0641V24.9906Z" fill="#97A3B6"/>
<path d="M112 21.7394C112 26.1347 108.389 29.7298 103.979 29.7298H8.01859C3.60709 29.7298 0 26.1347 0 21.7394V16.7508C0 12.3565 3.60709 8.76135 8.01811 8.76135H103.979C108.389 8.76135 112 12.3565 112 16.7508L112 21.7394Z" fill="#C1C9D9"/>
<path d="M18.5192 0C20.6491 0 22.3875 1.95624 22.3875 4.34818V17.219C22.3875 19.611 20.6491 21.5667 18.5192 21.5667C16.3894 21.5667 14.6523 19.611 14.6523 17.219V4.34818C14.6523 1.95624 16.3966 0 18.5192 0Z" fill="#97A3B6"/>
<path d="M92.7248 0C94.8546 0 96.5936 1.95624 96.5936 4.34818V17.219C96.5936 19.611 94.8546 21.5667 92.7248 21.5667C90.6041 21.5667 88.8594 19.611 88.8594 17.219V4.34818C88.8594 1.95624 90.6027 0 92.7248 0Z" fill="#97A3B6"/>
<path d="M21.514 41.2402H13.2838C12.3623 41.2402 11.6152 41.9923 11.6152 42.9199V51.2049C11.6152 52.1325 12.3623 52.8845 13.2838 52.8845H21.514C22.4355 52.8845 23.1826 52.1325 23.1826 51.2049V42.9199C23.1826 41.9923 22.4355 41.2402 21.514 41.2402Z" fill="#F1F4F8"/>
<path d="M40.7933 41.2402H32.5631C31.6416 41.2402 30.8945 41.9923 30.8945 42.9199V51.2049C30.8945 52.1325 31.6416 52.8845 32.5631 52.8845H40.7933C41.7148 52.8845 42.4619 52.1325 42.4619 51.2049V42.9199C42.4619 41.9923 41.7148 41.2402 40.7933 41.2402Z" fill="#F1F4F8"/>
<path d="M60.0726 41.2402H51.8424C50.9209 41.2402 50.1738 41.9923 50.1738 42.9199V51.2049C50.1738 52.1325 50.9209 52.8845 51.8424 52.8845H60.0726C60.9941 52.8845 61.7412 52.1325 61.7412 51.2049V42.9199C61.7412 41.9923 60.9941 41.2402 60.0726 41.2402Z" fill="#F1F4F8"/>
<path d="M79.3519 41.2402H71.1217C70.2002 41.2402 69.4531 41.9923 69.4531 42.9199V51.2049C69.4531 52.1325 70.2002 52.8845 71.1217 52.8845H79.3519C80.2734 52.8845 81.0205 52.1325 81.0205 51.2049V42.9199C81.0205 41.9923 80.2734 41.2402 79.3519 41.2402Z" fill="#F1F4F8"/>
<path d="M98.6312 41.2402H90.401C89.4795 41.2402 88.7324 41.9923 88.7324 42.9199V51.2049C88.7324 52.1325 89.4795 52.8845 90.401 52.8845H98.6312C99.5527 52.8845 100.3 52.1325 100.3 51.2049V42.9199C100.3 41.9923 99.5527 41.2402 98.6312 41.2402Z" fill="#F1F4F8"/>
<path d="M21.514 60.6475H13.2838C12.3623 60.6475 11.6152 61.3995 11.6152 62.3272V70.6121C11.6152 71.5397 12.3623 72.2918 13.2838 72.2918H21.514C22.4355 72.2918 23.1826 71.5397 23.1826 70.6121V62.3272C23.1826 61.3995 22.4355 60.6475 21.514 60.6475Z" fill="#F1F4F8"/>
<path d="M40.7933 60.6475H32.5631C31.6416 60.6475 30.8945 61.3995 30.8945 62.3272V70.6121C30.8945 71.5397 31.6416 72.2918 32.5631 72.2918H40.7933C41.7148 72.2918 42.4619 71.5397 42.4619 70.6121V62.3272C42.4619 61.3995 41.7148 60.6475 40.7933 60.6475Z" fill="#F1F4F8"/>
<path d="M60.0726 60.6475H51.8424C50.9209 60.6475 50.1738 61.3995 50.1738 62.3272V70.6121C50.1738 71.5397 50.9209 72.2918 51.8424 72.2918H60.0726C60.9941 72.2918 61.7412 71.5397 61.7412 70.6121V62.3272C61.7412 61.3995 60.9941 60.6475 60.0726 60.6475Z" fill="#F1F4F8"/>
<path d="M79.3519 60.6475H71.1217C70.2002 60.6475 69.4531 61.3995 69.4531 62.3272V70.6121C69.4531 71.5397 70.2002 72.2918 71.1217 72.2918H79.3519C80.2734 72.2918 81.0205 71.5397 81.0205 70.6121V62.3272C81.0205 61.3995 80.2734 60.6475 79.3519 60.6475Z" fill="#F1F4F8"/>
<path d="M98.6312 60.6475H90.401C89.4795 60.6475 88.7324 61.3995 88.7324 62.3272V70.6121C88.7324 71.5397 89.4795 72.2918 90.401 72.2918H98.6312C99.5527 72.2918 100.3 71.5397 100.3 70.6121V62.3272C100.3 61.3995 99.5527 60.6475 98.6312 60.6475Z" fill="#F1F4F8"/>
<path d="M21.514 80.0547H13.2838C12.3623 80.0547 11.6152 80.8067 11.6152 81.7344V90.0193C11.6152 90.947 12.3623 91.699 13.2838 91.699H21.514C22.4355 91.699 23.1826 90.947 23.1826 90.0193V81.7344C23.1826 80.8067 22.4355 80.0547 21.514 80.0547Z" fill="#F1F4F8"/>
<path d="M40.7933 80.0547H32.5631C31.6416 80.0547 30.8945 80.8067 30.8945 81.7344V90.0193C30.8945 90.947 31.6416 91.699 32.5631 91.699H40.7933C41.7148 91.699 42.4619 90.947 42.4619 90.0193V81.7344C42.4619 80.8067 41.7148 80.0547 40.7933 80.0547Z" fill="#F1F4F8"/>
<path d="M60.0726 80.0547H51.8424C50.9209 80.0547 50.1738 80.8067 50.1738 81.7344V90.0193C50.1738 90.947 50.9209 91.699 51.8424 91.699H60.0726C60.9941 91.699 61.7412 90.947 61.7412 90.0193V81.7344C61.7412 80.8067 60.9941 80.0547 60.0726 80.0547Z" fill="#F1F4F8"/>
<path d="M79.3519 80.0547H71.1217C70.2002 80.0547 69.4531 80.8067 69.4531 81.7344V90.0193C69.4531 90.947 70.2002 91.699 71.1217 91.699H79.3519C80.2734 91.699 81.0205 90.947 81.0205 90.0193V81.7344C81.0205 80.8067 80.2734 80.0547 79.3519 80.0547Z" fill="#198AFF"/>
<path d="M98.6312 80.0547H90.401C89.4795 80.0547 88.7324 80.8067 88.7324 81.7344V90.0193C88.7324 90.947 89.4795 91.699 90.401 91.699H98.6312C99.5527 91.699 100.3 90.947 100.3 90.0193V81.7344C100.3 80.8067 99.5527 80.0547 98.6312 80.0547Z" fill="#F1F4F8"/>
<path d="M21.514 99.4618H13.2838C12.3623 99.4618 11.6152 100.214 11.6152 101.141V109.426C11.6152 110.354 12.3623 111.106 13.2838 111.106H21.514C22.4355 111.106 23.1826 110.354 23.1826 109.426V101.141C23.1826 100.214 22.4355 99.4618 21.514 99.4618Z" fill="#F1F4F8"/>
<path d="M40.7933 99.4618H32.5631C31.6416 99.4618 30.8945 100.214 30.8945 101.141V109.426C30.8945 110.354 31.6416 111.106 32.5631 111.106H40.7933C41.7148 111.106 42.4619 110.354 42.4619 109.426V101.141C42.4619 100.214 41.7148 99.4618 40.7933 99.4618Z" fill="#F1F4F8"/>
<path d="M60.0726 99.4618H51.8424C50.9209 99.4618 50.1738 100.214 50.1738 101.141V109.426C50.1738 110.354 50.9209 111.106 51.8424 111.106H60.0726C60.9941 111.106 61.7412 110.354 61.7412 109.426V101.141C61.7412 100.214 60.9941 99.4618 60.0726 99.4618Z" fill="#F1F4F8"/>
<path d="M79.3519 99.4618H71.1217C70.2002 99.4618 69.4531 100.214 69.4531 101.141V109.426C69.4531 110.354 70.2002 111.106 71.1217 111.106H79.3519C80.2734 111.106 81.0205 110.354 81.0205 109.426V101.141C81.0205 100.214 80.2734 99.4618 79.3519 99.4618Z" fill="#F1F4F8"/>
<path d="M98.6312 99.4618H90.401C89.4795 99.4618 88.7324 100.214 88.7324 101.141V109.426C88.7324 110.354 89.4795 111.106 90.401 111.106H98.6312C99.5527 111.106 100.3 110.354 100.3 109.426V101.141C100.3 100.214 99.5527 99.4618 98.6312 99.4618Z" fill="#F1F4F8"/>
</g>
<defs>
<clipPath id="clip0_20_24428">
<rect width="112" height="119" fill="white"/>
</clipPath>
</defs>
</svg>
