<svg width="3000" height="2000" viewBox="0 0 3000 2000" fill="none" xmlns="http://www.w3.org/2000/svg">
<path d="M2646.34 1817.87C2646.34 1817.87 3172 1011.16 2613.92 790.52C2473.35 734.95 2424.31 -43.11 1799.92 345.92C1551.58 500.63 1194 313.41 851.61 415.74C537.14 509.74 529.91 780.81 569.67 878.4C613.12 985.04 439.87 1112.53 262.44 1200.09C-15.8801 1337.45 188.78 1820.16 451.71 1822.47C714.64 1824.78 2646.34 1817.87 2646.34 1817.87Z" fill="#EBF3FA"/>
<path d="M2012.39 682.64C2012.39 682.64 2208.54 365.53 2313.16 401.49C2417.78 437.45 2058.16 689.18 2058.16 689.18L2012.39 682.64Z" fill="#A8D29F"/>
<path d="M2175.85 669.56C2175.85 669.56 2313.16 529 2378.54 561.68C2443.92 594.36 2339.31 656.49 2175.85 669.56Z" fill="#A8D29F"/>
<path d="M880.42 1818.24L2294.74 1820.42C2294.74 1820.42 2192.32 1739.79 2118.22 1768.12C2044.12 1796.45 1898.12 1776.83 1878.51 1717.99C1858.9 1659.15 1786.98 1598.14 1601.75 1589.42C1416.52 1580.7 1333.75 1685.31 1242.17 1713.64C1197.51 1727.29 1150.39 1730.9 1104.17 1724.21C1066.66 1588.88 973 1321.78 819.1 1326.66C613.1 1333.2 789.68 1418.2 851.79 1457.43C891.44 1482.43 975.04 1622.06 1030.33 1719.76C1007.48 1722.01 988.09 1726.23 971.63 1731.76C931.3 1661.54 855 1554.4 766.79 1558.76C636.02 1565.3 724.29 1640.49 792.94 1679.76C828.61 1700.14 883.68 1729.34 928.37 1752.7C885.88 1781.65 880.42 1818.24 880.42 1818.24V1818.24Z" fill="#A8D29F"/>
<path d="M2723.48 1823.69H192.23C191.434 1823.69 190.671 1823.37 190.109 1822.81C189.546 1822.25 189.23 1821.49 189.23 1820.69C189.23 1819.89 189.546 1819.13 190.109 1818.57C190.671 1818.01 191.434 1817.69 192.23 1817.69H2723.48C2724.28 1817.69 2725.04 1818.01 2725.6 1818.57C2726.16 1819.13 2726.48 1819.89 2726.48 1820.69C2726.48 1821.49 2726.16 1822.25 2725.6 1822.81C2725.04 1823.37 2724.28 1823.69 2723.48 1823.69V1823.69Z" fill="#202F4E"/>
<path d="M1824.3 806.16L1787.3 805.31C1799.18 820.71 1801.85 834.89 1794.45 846.9C1787.05 859.15 1769.35 869.21 1742.91 876.9C1775.43 789.461 1781.65 694.416 1760.81 603.483C1739.97 512.55 1692.97 429.704 1625.61 365.158C1558.26 300.611 1473.48 257.185 1381.75 240.234C1290.01 223.282 1195.32 233.546 1109.34 269.76C1102.34 272.76 1095.27 275.94 1088.48 279.21H1088.42C1067.87 272.95 1047.86 267.81 1028.56 263.9C931.12 244.1 862 257.77 833.87 302.36C807.14 344.78 821.69 408.62 874.74 483.09C867.58 496.31 861.16 509.89 855.22 523.96C850.765 534.429 846.719 545.067 843.09 555.85C743.42 561.79 690.09 579.33 670.66 611.1C648.11 648.1 678.91 697.72 777.49 745.98C791.07 752.65 805.62 759.2 820.9 765.75C826.008 810.512 837.567 854.3 855.22 895.75C891.619 981.875 952.487 1055.43 1030.28 1107.29C1108.08 1159.16 1199.38 1187.06 1292.88 1187.54C1386.38 1188.01 1477.97 1161.05 1556.29 1109.98C1634.61 1058.91 1696.22 985.979 1733.5 900.23C1782.12 890.17 1814.13 874.4 1826.87 853.55C1835.7 839.14 1834.61 823.13 1824.3 806.16V806.16ZM1710.19 884.37C1677.82 890.19 1637.44 893.58 1590.27 894.07C1517.08 894.96 1433.01 889.18 1344.43 877.51C1351.88 861.277 1359.17 844.61 1366.31 827.51C1392.38 836.339 1418.97 843.566 1445.93 849.15C1475.08 855.07 1501.67 857.99 1525.42 857.99C1581.07 857.99 1620.94 841.93 1640.63 810.67C1643.88 805.523 1646.54 800.029 1648.56 794.29H1620.19C1619.72 795.15 1619.19 796.01 1618.69 796.84C1604.07 820.06 1571.38 832.05 1525.48 832.04C1503.48 832.04 1478.54 829.3 1451.08 823.73C1425.72 818.474 1400.7 811.705 1376.15 803.46C1382.98 786.373 1389.6 768.977 1396.03 751.27C1413.33 703.58 1428.13 656.32 1440.11 610.93C1494.69 618.93 1553.27 623.01 1615.52 623.01C1654.27 623.01 1694.42 621.447 1735.96 618.32C1742.15 648.432 1745.26 679.097 1745.24 709.84C1745.38 769.778 1733.46 829.132 1710.19 884.37V884.37ZM1119.19 1121.16C1105.39 1116.16 1098.38 1096.35 1094.94 1080.62C1089.49 1055.76 1088.51 1020.84 1092.09 979.62C1093.9 958.78 1096.82 936.62 1100.74 913.45C1157.75 928.684 1213.59 948.008 1267.83 971.27C1255.55 992.45 1243.13 1012.09 1230.71 1029.9C1207.05 1063.82 1183.9 1089.99 1163.79 1105.58C1151 1115.45 1132.94 1126.16 1119.14 1121.16H1119.19ZM1280.33 949.11C1223.57 924.617 1165.08 904.355 1105.33 888.49C1107.42 877.73 1109.71 866.793 1112.2 855.68C1128.68 859.42 1145.39 863.04 1162.32 866.54C1211.86 876.67 1261.32 885.27 1309.63 892.23C1300 912.077 1290.21 931.037 1280.28 949.11H1280.33ZM1173.14 848.6C1154 844.66 1135.16 840.55 1116.61 836.27C1125.33 799.96 1136.05 762.11 1148.61 723.54C1213.61 763.54 1279.82 796.06 1342.46 819.14C1334.6 837.9 1326.53 856.2 1318.28 873.9C1270.66 867.07 1222 858.61 1173.14 848.6V848.6ZM1014.26 358.49C1019.5 369.144 1025.38 379.476 1031.85 389.43C1064.73 440.25 1108.16 477.09 1138.85 499.05C1156.85 511.893 1175.65 523.583 1195.13 534.05C1176.96 573.63 1159.66 615.88 1143.75 659.75C1140.78 667.93 1137.89 676.093 1135.08 684.24C1040.08 622.39 959.59 551.41 906.81 482.71C920.042 460.147 935.209 438.777 952.14 418.84C959.14 410.6 966.45 402.59 974.09 394.84L977.24 391.69C988.968 379.96 1001.33 368.877 1014.26 358.49V358.49ZM1420.61 289.94C1434.41 294.94 1441.41 314.75 1444.86 330.48C1450.3 355.34 1451.29 390.26 1447.7 431.48C1443.78 476.58 1434.7 527.81 1421.31 582.35C1405.08 579.557 1389.23 576.39 1373.78 572.85C1320.43 560.58 1271.78 543.8 1228.37 522.72C1254.28 468.67 1281.69 420.48 1309.09 381.2C1332.75 347.28 1355.89 321.11 1376.01 305.52C1386.51 297.38 1400.63 288.68 1413.01 288.68C1415.6 288.653 1418.17 289.079 1420.61 289.94V289.94ZM1366.38 597.1C1382.18 600.767 1398.39 604.04 1415.02 606.92C1403.35 650.81 1389.02 696.52 1372.25 742.68C1365.79 760.473 1359.12 777.963 1352.25 795.15C1289.37 772.06 1222.62 739.04 1157 698.25C1160.39 688.337 1163.9 678.393 1167.51 668.42C1183.06 625.54 1199.94 584.27 1217.64 545.61C1262.23 567.23 1312 584.47 1366.38 597.1V597.1ZM1613.38 391.69C1669.36 447.476 1709.6 517.066 1730.02 593.41C1626.31 601 1531.28 598.61 1446.33 586.32C1459.81 531.24 1468.88 479.43 1472.86 433.66C1477.26 383.12 1476.72 323.26 1456.23 289.57C1460.98 291.397 1465.71 293.303 1470.42 295.29C1523.9 317.831 1572.47 350.574 1613.43 391.69H1613.38ZM1295.37 259.88C1326.2 259.853 1356.96 262.99 1387.15 269.24C1351.81 284.63 1315.72 327.45 1288.33 366.71C1260.33 406.9 1232.33 456.08 1205.87 511.14C1188.4 501.688 1171.52 491.2 1155.31 479.73C1102.73 442.43 1071.23 403.37 1054.06 377.17C1046.83 366.238 1040.42 354.783 1034.89 342.9C1053.35 329.759 1072.77 318.032 1093 307.82C1101.26 303.647 1109.67 299.737 1118.23 296.09L1120.09 295.29L1120.52 295.11C1122.34 294.337 1124.17 293.583 1126.01 292.85L1127.48 292.26C1180.84 270.764 1237.84 259.77 1295.37 259.88V259.88ZM855.81 316.19C870.44 293 903.13 281 949 281C971 281 995.94 283.74 1023.41 289.31C1033.84 291.423 1044.47 293.91 1055.32 296.77C1019.53 317.49 986.637 342.846 957.49 372.18C951.3 378.24 945.36 384.55 939.54 391.1C932.27 399.1 925.36 407.47 918.69 415.95C908.075 429.516 898.198 443.643 889.1 458.27C848.57 398.08 836.38 347 855.81 316.19V316.19ZM880.66 534.78C884.66 525.56 888.78 516.47 893.27 507.62C948.85 577.09 1030.76 648.1 1126.47 709.69C1112.9 750.99 1101.32 791.59 1091.98 830.49C1022.35 813.64 957.82 794.58 901.26 774.17C889.38 769.93 877.86 765.56 866.83 761.17C860.28 758.62 853.83 755.95 847.55 753.29C846.55 743.59 845.85 733.76 845.61 723.94C845.49 719.21 845.36 714.61 845.36 709.88C845.36 704.42 845.49 698.88 845.61 693.38C847.129 652.869 854.061 612.743 866.22 574.07C868.28 567.52 870.46 561.07 872.89 554.66C875.33 548 877.87 541.33 880.66 534.78V534.78ZM799.54 731.7C713.54 689.7 674.28 649.25 691.86 620.51C706.05 597.23 757.7 581.51 836.77 575.64C827.078 608.504 821.057 642.34 818.82 676.53C818.09 686.71 817.73 696.9 817.61 707.21V709.88C817.61 720.18 817.97 730.49 818.61 740.68C812 737.77 805.72 734.73 799.54 731.7V731.7ZM864.78 783.24C876.42 787.6 888.3 791.97 900.55 796.24C956.85 815.75 1019.96 833.88 1087.46 849.97C1085.01 860.91 1082.74 871.687 1080.67 882.3C1075.16 880.967 1069.64 879.663 1064.11 878.39C970.78 857.15 900.75 852.83 868.29 852.1C860.242 827.898 854.32 803.041 850.59 777.81L864.78 783.24ZM880.66 885C879.633 882.56 878.633 880.113 877.66 877.66C917.14 879.26 982.75 885.76 1059.45 903.28C1065.01 904.547 1070.56 905.88 1076.1 907.28C1071.88 931.89 1068.76 955.41 1066.84 977.52C1063.2 1019.41 1062.94 1067.7 1074.62 1102.18C987.803 1053.13 919.618 976.787 880.66 885V885ZM1470.47 1124.49C1371.62 1166.13 1261.19 1171.22 1158.93 1138.85C1192.21 1121.4 1225.66 1081.33 1251.41 1044.41C1264.7 1025.41 1277.97 1004.3 1291.08 981.55C1367.17 1016.08 1439.68 1058.03 1507.54 1106.78C1495.5 1113.2 1483.14 1119.09 1470.47 1124.46V1124.49ZM1613.47 1028.09C1588.82 1052.84 1561.35 1074.61 1531.63 1092.96C1460.33 1040.78 1383.89 996.022 1303.5 959.37C1314.5 939.27 1325.28 918.04 1335.84 895.87C1408.84 905.55 1479.11 911.36 1543.22 912.87C1559.96 913.36 1576.22 913.36 1591.97 913.24C1632.83 912.75 1669.21 910.33 1700.37 905.96C1678.47 951.264 1649.08 992.545 1613.43 1028.06L1613.47 1028.09Z" fill="#ADCBF9"/>
<path d="M1191.86 203.8L1078.85 222.99L1152.77 169.69L1157.03 186.03L1184.75 190.3L1191.86 203.8Z" fill="#456AA3"/>
<path d="M1078.85 222.99L1171.96 171.82L1264.36 164.71L1078.85 222.99V222.99Z" fill="#ADCBF9"/>
<path d="M1152.77 169.69L1078.85 222.99L1135 141.25L1152.77 169.69Z" fill="#ADCBF9"/>
<path d="M695.61 479.49L802.58 520.7L740.69 453.8L733.27 468.98L705.25 467.67L695.61 479.49V479.49Z" fill="#456AA3"/>
<path d="M802.58 520.7L721.45 452.09L632.3 426.81L802.58 520.7Z" fill="#ADCBF9"/>
<path d="M740.69 453.8L802.58 520.7L763.74 429.45L740.69 453.8V453.8Z" fill="#ADCBF9"/>
<path d="M2768.45 834.92H2511.7C2508.81 834.938 2506.04 836.096 2503.99 838.142C2501.95 840.187 2500.79 842.957 2500.77 845.85V956.93C2500.79 959.821 2501.95 962.588 2504 964.632C2506.04 966.676 2508.81 967.832 2511.7 967.85H2526.27V997L2571.68 967.86H2768.45C2771.34 967.839 2774.11 966.682 2776.15 964.638C2778.19 962.595 2779.35 959.83 2779.37 956.94V845.85C2779.35 842.959 2778.2 840.191 2776.15 838.145C2774.11 836.1 2771.34 834.941 2768.45 834.92V834.92Z" fill="#F7C78F"/>
<path d="M2743 879.54H2537.19C2535.26 879.532 2533.41 878.761 2532.05 877.395C2530.68 876.03 2529.92 874.18 2529.91 872.25C2529.92 870.322 2530.69 868.475 2532.05 867.111C2533.41 865.747 2535.26 864.978 2537.19 864.97H2743C2744.93 864.978 2746.78 865.747 2748.14 867.111C2749.5 868.475 2750.27 870.322 2750.28 872.25C2750.27 874.18 2749.51 876.03 2748.14 877.395C2746.78 878.761 2744.93 879.532 2743 879.54Z" fill="#E2923D"/>
<path d="M2743 905.94H2537.19C2535.26 905.932 2533.41 905.163 2532.05 903.799C2530.69 902.435 2529.92 900.588 2529.91 898.66C2529.92 896.73 2530.68 894.88 2532.05 893.515C2533.41 892.149 2535.26 891.378 2537.19 891.37H2743C2744.93 891.378 2746.78 892.149 2748.14 893.515C2749.51 894.88 2750.27 896.73 2750.28 898.66C2750.27 900.588 2749.5 902.435 2748.14 903.799C2746.78 905.163 2744.93 905.932 2743 905.94V905.94Z" fill="#E2923D"/>
<path d="M2743 932.34H2537.19C2535.26 932.335 2533.41 931.566 2532.05 930.202C2530.68 928.838 2529.92 926.989 2529.91 925.06C2529.92 923.131 2530.68 921.282 2532.05 919.918C2533.41 918.554 2535.26 917.785 2537.19 917.78H2743C2744.93 917.785 2746.78 918.554 2748.14 919.918C2749.51 921.282 2750.27 923.131 2750.28 925.06C2750.27 926.989 2749.51 928.838 2748.14 930.202C2746.78 931.566 2744.93 932.335 2743 932.34Z" fill="#E2923D"/>
<path d="M256 508H512.72C515.611 508.018 518.379 509.174 520.425 511.218C522.471 513.262 523.629 516.029 523.65 518.92V630C523.629 632.891 522.471 635.658 520.425 637.702C518.379 639.746 515.611 640.902 512.72 640.92H498.15V670.06L452.74 640.92H256C253.105 640.907 250.332 639.753 248.282 637.709C246.232 635.665 245.071 632.895 245.05 630V518.93C245.068 516.033 246.229 513.261 248.279 511.215C250.329 509.168 253.103 508.013 256 508V508Z" fill="#F7C78F"/>
<path d="M281.47 552.62H487.23C489.158 552.612 491.005 551.843 492.369 550.479C493.733 549.115 494.502 547.268 494.51 545.34C494.505 543.41 493.736 541.56 492.372 540.195C491.009 538.829 489.16 538.058 487.23 538.05H281.47C279.538 538.055 277.687 538.825 276.321 540.191C274.955 541.557 274.185 543.408 274.18 545.34C274.188 547.27 274.959 549.119 276.324 550.483C277.69 551.846 279.54 552.615 281.47 552.62V552.62Z" fill="#E2923D"/>
<path d="M281.47 579H487.23C489.159 578.995 491.008 578.226 492.372 576.862C493.736 575.498 494.505 573.649 494.51 571.72C494.505 569.791 493.736 567.942 492.372 566.578C491.008 565.214 489.159 564.445 487.23 564.44H281.47C279.539 564.443 277.688 565.21 276.322 566.575C274.955 567.939 274.185 569.789 274.18 571.72C274.185 573.651 274.955 575.501 276.322 576.865C277.688 578.23 279.539 578.997 281.47 579Z" fill="#E2923D"/>
<path d="M281.47 605.43H487.23C489.16 605.422 491.009 604.651 492.372 603.285C493.736 601.92 494.505 600.07 494.51 598.14C494.502 596.212 493.733 594.365 492.369 593.001C491.005 591.637 489.158 590.868 487.23 590.86H281.47C279.54 590.865 277.69 591.634 276.324 592.997C274.959 594.361 274.188 596.21 274.18 598.14C274.185 600.072 274.955 601.923 276.321 603.289C277.687 604.655 279.538 605.425 281.47 605.43V605.43Z" fill="#E2923D"/>
<path d="M1747.93 1031.8L1810.24 1772.61C1810.24 1772.61 1816.76 1817.51 1783.36 1817.61C1728.44 1817.74 1510 1817.61 1510 1817.61C1510 1817.61 1551.34 1808.26 1550.84 1787.23C1550.25 1762.44 1478.02 1024.81 1478.02 1024.81L1747.93 1031.8Z" fill="#D86713"/>
<path d="M1765.2 1804.15C1711.71 1804.84 1503.08 1804.15 1492.27 1804.15C1496.34 1804.15 1527.72 1803.38 1532.15 1779.76C1532.52 1777.78 1532.7 1775.77 1532.68 1773.76C1532.68 1769.14 1530.12 1739.83 1526 1695.17C1522.31 1655.11 1517.36 1602.72 1511.8 1544.74C1490.28 1320.02 1459.86 1011.34 1459.86 1011.34L1729.78 1018.34L1774.05 1544.74L1782.69 1647.48L1790.46 1739.91L1792.08 1759.16C1792.08 1759.16 1799.7 1803.71 1765.2 1804.15V1804.15Z" fill="#EE9849"/>
<path d="M2403.44 628.67L2251.68 1238.27L2230.9 1321.76L2160.22 1605.69H847.04L1107.56 628.67H2403.44V628.67Z" fill="#F1A34F"/>
<path d="M2403.44 628.67L2424.48 635.68L2188.18 1626.9L2160.22 1605.69L2403.44 628.67V628.67Z" fill="#EE9849"/>
<path d="M2188.18 1626.9H883.08L847.04 1605.69H2160.22L2188.18 1626.9V1626.9Z" fill="#D86713"/>
<path d="M1447.29 1804.45H1729.86V1817.88H1447.29V1804.45Z" fill="#F1A34F"/>
<path d="M1784.45 1626.47L1782.69 1647.47L1782.62 1648.24C1782.62 1648.24 1599.07 1665.84 1526 1695.16C1524.16 1675.08 1522 1651.89 1519.58 1626.45L1784.45 1626.47Z" fill="#D86713"/>
<path d="M1765.2 1804.15C1711.71 1804.84 1503.08 1804.15 1492.27 1804.15C1496.34 1804.15 1527.72 1803.38 1532.15 1779.76C1553.64 1780.88 1673.15 1784.69 1790.46 1739.92L1792.08 1759.17C1792.08 1759.17 1799.7 1803.71 1765.2 1804.15V1804.15Z" fill="black"/>
<path d="M2206.26 1413.89L2158.51 1605.69H1716.39C1903.33 1546.3 1991.82 1459.42 2027.48 1413.89H2206.26Z" fill="black"/>
<path d="M1107.57 628.67L897.88 1413.89H897.31L1105.73 628.67H1107.57V628.67Z" fill="#9ED9F0"/>
<path d="M2393.54 641.59L2206.26 1413.89H913.86L1123.73 641.59H2393.54V641.59Z" fill="#9ED9F0"/>
<path d="M897.88 1413.89H913.86L910.66 1425.66L895.2 1423.91L897.88 1413.89V1413.89Z" fill="#F1A34F"/>
<path d="M2405.54 628.67V641.59H2393.54L2396.67 628.67H2405.54Z" fill="#F1A34F"/>
<path d="M1134.42 1356.76H1616.07L1777.5 709.3H1295.85L1134.42 1356.76V1356.76Z" fill="white"/>
<path d="M1406.82 805.442H1413.01L1410.41 777.558H1403.35L1385.68 805.442H1391.83L1394.93 800.423H1406.44L1406.82 805.442ZM1398.14 795.284L1405.18 783.891L1406.06 795.284H1398.14Z" fill="#476BA7"/>
<path d="M1450.48 790.464H1435.99L1434.67 795.324H1443.42C1441.57 798.511 1438.11 800.622 1433.57 800.622C1427.54 800.622 1424.76 796.718 1426.17 791.54C1427.6 786.242 1432.62 782.338 1438.11 782.338C1441.62 782.338 1444.11 783.971 1444.82 786.202L1450.43 783.493C1449.03 779.669 1445.09 777 1439.6 777C1430.97 777 1422.7 783.453 1420.51 791.54C1418.35 799.507 1423.03 806 1432.07 806C1440.37 806 1447.71 800.662 1449.89 792.615L1450.48 790.464Z" fill="#476BA7"/>
<path d="M1469.62 805.442H1475.77L1472.22 794.926C1475.92 793.452 1479.05 790.305 1480 786.799C1481.38 781.701 1478.21 777.558 1472.88 777.558H1461.33L1453.77 805.442H1459.47L1462.09 795.762H1466.42L1469.62 805.442ZM1465.63 782.696H1471.49C1473.64 782.696 1474.93 784.489 1474.3 786.799C1473.67 789.11 1471.4 790.942 1469.26 790.942H1463.4L1465.63 782.696Z" fill="#476BA7"/>
<path d="M1489.54 800.184L1491.24 793.93H1502.18L1503.58 788.751H1492.64L1494.25 782.816H1506.22L1507.64 777.558H1489.98L1482.42 805.442H1500.3L1501.72 800.184H1489.54Z" fill="#476BA7"/>
<path d="M1514.73 800.184L1516.43 793.93H1527.36L1528.77 788.751H1517.83L1519.44 782.816H1531.41L1532.83 777.558H1515.17L1507.61 805.442H1525.48L1526.91 800.184H1514.73Z" fill="#476BA7"/>
<path d="M1568.62 777.558H1562.76L1550.94 790.743L1546.21 777.558H1540.35L1532.8 805.442H1538.49L1543.38 787.397L1548.02 800.304H1548.68L1560.32 787.357L1555.42 805.442H1561.07L1568.62 777.558Z" fill="#476BA7"/>
<path d="M1576.87 800.184L1578.57 793.93H1589.51L1590.91 788.751H1579.97L1581.58 782.816H1593.55L1594.97 777.558H1577.31L1569.75 805.442H1587.62L1589.05 800.184H1576.87Z" fill="#476BA7"/>
<path d="M1619.21 777.558L1614.6 794.567L1606.83 777.558H1602.5L1594.94 805.442H1600.64L1605.26 788.393L1613.02 805.442H1617.35L1624.91 777.558H1619.21Z" fill="#476BA7"/>
<path d="M1652.68 777.558H1631.42L1630 782.816H1637.76L1631.63 805.442H1637.32L1643.45 782.816H1651.25L1652.68 777.558Z" fill="#476BA7"/>
<g opacity="0.5">
<path opacity="0.5" d="M1304.39 1007.71H1623.46C1625.53 1007.61 1627.51 1006.86 1629.12 1005.57C1630.74 1004.28 1631.91 1002.51 1632.46 1000.52L1633.13 997.83C1634.13 993.83 1631.69 990.64 1627.74 990.64H1308.65C1306.58 990.741 1304.6 991.49 1302.99 992.78C1301.37 994.071 1300.2 995.838 1299.65 997.83L1298.98 1000.52C1298 1004.48 1300.44 1007.71 1304.39 1007.71Z" fill="#699DEE"/>
<path opacity="0.5" d="M1332.78 893.86H1651.84C1653.9 893.758 1655.89 893.008 1657.5 891.718C1659.12 890.427 1660.28 888.661 1660.84 886.67L1661.51 883.98C1662.51 879.98 1660.07 876.79 1656.11 876.79H1337C1334.94 876.892 1332.95 877.642 1331.34 878.932C1329.72 880.223 1328.56 881.989 1328 883.98L1327.33 886.67C1326.4 890.63 1328.82 893.86 1332.78 893.86Z" fill="#699DEE"/>
<path opacity="0.5" d="M1322.92 933.41H1642C1644.06 933.308 1646.05 932.558 1647.66 931.268C1649.28 929.977 1650.44 928.211 1651 926.22L1651.67 923.53C1652.67 919.53 1650.23 916.34 1646.27 916.34H1327.18C1325.12 916.442 1323.13 917.192 1321.52 918.482C1319.9 919.773 1318.74 921.539 1318.18 923.53L1317.51 926.22C1316.54 930.18 1319 933.41 1322.92 933.41Z" fill="#699DEE"/>
<path opacity="0.5" d="M1313.66 970.56H1632.72C1634.78 970.458 1636.77 969.708 1638.38 968.418C1640 967.127 1641.16 965.361 1641.72 963.37L1642.39 960.68C1643.39 956.68 1640.94 953.49 1636.99 953.49H1317.91C1315.85 953.592 1313.86 954.342 1312.25 955.632C1310.63 956.923 1309.47 958.689 1308.91 960.68L1308.24 963.37C1307.27 967.33 1309.7 970.56 1313.66 970.56Z" fill="#699DEE"/>
<path opacity="0.5" d="M1285.52 1083.43H1604.58C1606.64 1083.33 1608.63 1082.58 1610.24 1081.29C1611.86 1080 1613.02 1078.23 1613.58 1076.24L1614.26 1073.54C1615.26 1069.54 1612.81 1066.35 1608.86 1066.35H1289.77C1287.71 1066.46 1285.73 1067.21 1284.11 1068.5C1282.5 1069.79 1281.33 1071.55 1280.77 1073.54L1280.1 1076.24C1279.13 1080.19 1281.56 1083.43 1285.52 1083.43Z" fill="#699DEE"/>
<path opacity="0.5" d="M1294.78 1046.28H1613.84C1615.9 1046.17 1617.88 1045.42 1619.5 1044.13C1621.11 1042.84 1622.28 1041.08 1622.84 1039.09L1623.51 1036.39C1624.51 1032.39 1622.07 1029.2 1618.11 1029.2H1299C1296.94 1029.31 1294.96 1030.06 1293.34 1031.35C1291.73 1032.64 1290.56 1034.4 1290 1036.39L1289.33 1039.09C1288.39 1043 1290.82 1046.28 1294.78 1046.28Z" fill="#699DEE"/>
<path opacity="0.5" d="M1257.75 1200.18H1335.25C1339.95 1200.18 1344.75 1196.33 1345.92 1191.64C1347.09 1186.94 1344.2 1183.1 1339.51 1183.1H1262C1257.31 1183.1 1252.51 1186.94 1251.34 1191.64C1250.17 1196.33 1253.06 1200.18 1257.75 1200.18Z" fill="#699DEE"/>
<path opacity="0.5" d="M1495.16 1200.18H1572.65C1577.35 1200.18 1582.15 1196.33 1583.32 1191.64C1584.49 1186.94 1581.61 1183.1 1576.91 1183.1H1499.42C1494.72 1183.1 1489.92 1186.94 1488.75 1191.64C1487.58 1196.33 1490.46 1200.18 1495.16 1200.18Z" fill="#699DEE"/>
</g>
<path d="M1324.42 1292.08H1211.42C1210.05 1292.13 1208.7 1291.86 1207.45 1291.29C1206.21 1290.73 1205.11 1289.88 1204.25 1288.82C1203.39 1287.66 1202.81 1286.31 1202.56 1284.89C1202.31 1283.47 1202.39 1282.01 1202.8 1280.62L1210.95 1247.95C1212.49 1241.75 1218.79 1236.71 1224.95 1236.71H1337.95C1339.31 1236.66 1340.67 1236.93 1341.91 1237.5C1343.16 1238.06 1344.25 1238.91 1345.11 1239.97C1345.97 1241.13 1346.55 1242.48 1346.8 1243.9C1347.06 1245.32 1346.98 1246.78 1346.57 1248.17L1338.42 1280.84C1336.92 1287 1330.62 1292.08 1324.42 1292.08ZM1225 1237.62C1219.18 1237.62 1213.28 1242.35 1211.83 1248.17L1203.68 1280.84C1203.31 1282.09 1203.23 1283.41 1203.45 1284.7C1203.67 1285.99 1204.19 1287.21 1204.97 1288.26C1205.75 1289.21 1206.73 1289.97 1207.85 1290.48C1208.97 1290.98 1210.19 1291.22 1211.42 1291.17H1324.42C1330.23 1291.17 1336.14 1286.44 1337.59 1280.62L1345.73 1247.95C1346.1 1246.7 1346.18 1245.37 1345.96 1244.08C1345.74 1242.8 1345.22 1241.58 1344.45 1240.52C1343.67 1239.57 1342.68 1238.82 1341.56 1238.32C1340.44 1237.82 1339.23 1237.58 1338 1237.62H1225Z" fill="#476BA7"/>
<path d="M1562.22 1292.08H1449.22C1447.86 1292.13 1446.5 1291.86 1445.26 1291.29C1444.01 1290.73 1442.92 1289.88 1442.06 1288.82C1441.2 1287.66 1440.62 1286.31 1440.37 1284.89C1440.11 1283.47 1440.19 1282.01 1440.6 1280.62L1448.75 1247.95C1450.3 1241.75 1456.6 1236.71 1462.75 1236.71H1575.75C1577.13 1236.65 1578.51 1236.92 1579.77 1237.49C1581.03 1238.06 1582.13 1238.92 1583 1240C1583.86 1241.16 1584.44 1242.51 1584.69 1243.93C1584.94 1245.35 1584.86 1246.81 1584.45 1248.2L1576.3 1280.87C1574.73 1287 1568.43 1292.08 1562.22 1292.08ZM1462.79 1237.62C1456.98 1237.62 1451.07 1242.35 1449.62 1248.17L1441.48 1280.84C1441.11 1282.09 1441.03 1283.41 1441.25 1284.7C1441.47 1285.99 1441.99 1287.21 1442.76 1288.26C1443.54 1289.21 1444.52 1289.97 1445.64 1290.47C1446.76 1290.98 1447.98 1291.22 1449.21 1291.17H1562.21C1568.03 1291.17 1573.93 1286.44 1575.38 1280.62L1583.53 1247.95C1583.91 1246.7 1583.98 1245.37 1583.76 1244.08C1583.54 1242.79 1583.02 1241.57 1582.24 1240.52C1581.46 1239.57 1580.48 1238.81 1579.36 1238.31C1578.24 1237.81 1577.02 1237.57 1575.79 1237.62H1462.79Z" fill="#476BA7"/>
<path d="M1586.7 1232.37C1569.53 1239.46 1552.49 1247.21 1535.58 1255.62C1536.25 1253.75 1536.85 1251.85 1537.39 1249.94C1537.81 1248.41 1535.76 1247.4 1534.49 1249.07C1533.92 1249.82 1533.33 1250.52 1532.7 1251.2C1533.12 1249.84 1531.51 1249.08 1530.13 1250.08L1529.87 1250.28C1530.54 1248.45 1527.69 1248.17 1526.63 1249.95L1525.04 1252.6C1523.69 1254.2 1521.91 1255.38 1519.92 1256.02C1519.51 1255.12 1519.26 1254.16 1519.17 1253.17C1519.15 1252.83 1519.01 1252.52 1518.76 1252.29C1518.51 1252.07 1518.19 1251.95 1517.85 1251.96C1517.85 1251.03 1516.98 1250.48 1515.74 1251.03C1514.26 1251.7 1512.93 1252.68 1511.85 1253.9C1511 1252.32 1508.28 1253.45 1506.85 1254.97L1506.97 1254.71C1507.66 1253.25 1506.38 1251.57 1504.66 1253.05C1501.75 1255.5 1499.56 1258.7 1498.34 1262.31C1497.33 1263.44 1496.25 1264.51 1495.11 1265.5C1494.55 1265.98 1491.93 1268.41 1491.32 1268.2C1490.71 1267.99 1491.05 1266.49 1491.32 1265.43L1491.6 1265.04C1493.78 1262.04 1504.28 1247.74 1496.88 1247.87C1496.47 1247.91 1496.08 1248.04 1495.73 1248.26C1495.38 1248.47 1495.09 1248.77 1494.88 1249.12C1492.24 1253.11 1490.19 1257.46 1488.81 1262.04C1488.57 1262.88 1488.23 1263.96 1487.96 1265.04L1487.31 1265.91C1484.37 1269.76 1480.31 1275.32 1475.55 1277.22C1475.11 1271.22 1478.15 1264.04 1480.45 1257.71C1481.45 1254.98 1482.45 1252.26 1483.55 1249.53C1483.92 1249.44 1484.27 1249.26 1484.55 1249C1489.69 1244.67 1491.79 1238.25 1489.46 1233.93C1488.79 1232.69 1486.74 1233.82 1486.15 1235.14C1482.61 1243.08 1479.4 1251.06 1476.52 1259.07C1473.98 1266.16 1471.09 1273.65 1472.15 1280.2C1472.26 1280.89 1473.07 1281.2 1473.82 1280.98C1479.25 1279.8 1483.98 1274.98 1487.82 1270.15C1487.95 1270.47 1488.15 1270.75 1488.41 1270.98C1488.66 1271.2 1488.97 1271.37 1489.3 1271.46C1491.83 1272.21 1495.3 1269.4 1497.77 1267.05C1497.81 1267.86 1497.96 1268.66 1498.21 1269.43C1498.48 1270.26 1499.34 1270.43 1500.34 1270.05C1502.74 1269.06 1504.91 1267.61 1506.74 1265.77C1509.19 1265.02 1511.34 1263 1513.13 1260.64C1514.25 1259.66 1515.31 1258.61 1516.29 1257.5C1516.48 1258.08 1516.77 1258.63 1517.16 1259.1C1518.09 1260.16 1520.42 1259.2 1521.91 1258.52C1523.33 1257.87 1524.65 1257 1525.81 1255.96C1526.74 1255.88 1527.65 1255.63 1528.5 1255.23C1528.66 1255.49 1528.88 1255.72 1529.14 1255.89C1529.63 1256.16 1530.18 1256.27 1530.73 1256.22C1531.29 1256.17 1531.81 1255.95 1532.24 1255.6C1532 1256.29 1531.75 1256.98 1531.48 1257.67C1529.02 1258.91 1526.56 1260.16 1524.11 1261.43C1522.48 1262.27 1522.11 1264.75 1523.92 1264.61L1530.69 1264.1C1531.19 1264.05 1531.67 1263.87 1532.07 1263.57C1532.47 1263.26 1532.78 1262.86 1532.96 1262.39C1533.36 1261.49 1533.74 1260.58 1534.11 1259.68C1551.75 1250.83 1569.56 1242.7 1587.53 1235.27C1589.75 1234.37 1589 1231.43 1586.7 1232.37V1232.37ZM1508.05 1258.37C1507.9 1258.85 1507.71 1259.32 1507.49 1259.78C1507.34 1260.1 1507.17 1260.42 1506.99 1260.78C1507.25 1259.93 1507.61 1259.11 1508.05 1258.34V1258.37ZM1503.05 1262.61C1502.76 1263.44 1502.74 1264.34 1502.99 1265.18C1502.45 1265.59 1501.89 1265.96 1501.3 1266.3C1501.19 1265.24 1501.25 1264.18 1501.49 1263.14C1502.27 1262.22 1503.01 1261.26 1503.69 1260.29C1503.43 1261.04 1503.23 1261.8 1503.08 1262.58L1503.05 1262.61Z" fill="#365DA2"/>
<path d="M1270.83 1221.85C1264.76 1233.15 1261.35 1244.74 1256.41 1256.17C1254 1261.92 1251.01 1267.41 1247.49 1272.56C1244.92 1276.22 1239.34 1284.18 1234.6 1282.46C1233.42 1282.03 1233.1 1281.02 1233.48 1279.64C1233.56 1279.33 1233.67 1279.02 1233.78 1278.71C1234.18 1278.87 1234.61 1278.92 1235.04 1278.87C1235.47 1278.82 1235.88 1278.67 1236.23 1278.42C1237.76 1277.51 1238.98 1276.15 1239.73 1274.53C1240.44 1273 1240.32 1271.4 1239.08 1270.71C1237.99 1270.11 1236.37 1270.65 1235.23 1271.8C1234.13 1273.08 1233.29 1274.56 1232.76 1276.17C1232 1277.97 1230.98 1279.92 1231.09 1281.66C1231.26 1284.27 1234.09 1285.19 1236.83 1284.59C1240.17 1283.85 1243.13 1280.94 1245.38 1278.28C1247.98 1275.18 1250.32 1271.87 1252.38 1268.39C1256.24 1261.59 1259.52 1254.48 1262.16 1247.12C1265.34 1238.86 1268.3 1230.54 1272.67 1222.42C1273.4 1221.09 1271.55 1220.52 1270.83 1221.85V1221.85ZM1237.93 1273.14C1238.14 1273.93 1237.37 1274.98 1236.73 1275.72C1236.52 1275.99 1236.28 1276.22 1236.01 1276.43C1235.85 1276.55 1235.68 1276.65 1235.5 1276.73H1235.34C1235.28 1276.62 1235.18 1276.52 1235.07 1276.46C1234.96 1276.4 1234.83 1276.36 1234.7 1276.37C1234.97 1275.77 1235.25 1275.18 1235.51 1274.62C1235.91 1273.82 1237.5 1271.46 1237.93 1273.14V1273.14Z" fill="#365DA2"/>
<path d="M1311.53 1257.14C1310.33 1257.87 1309.03 1258.41 1307.67 1258.74C1307.34 1258.79 1307 1258.79 1306.67 1258.74C1307.6 1257.96 1308.26 1256.91 1308.58 1255.74C1308.81 1254.1 1307 1253.74 1305.47 1254.56C1304.83 1254.93 1304.29 1255.44 1303.89 1256.05C1303.48 1256.66 1303.23 1257.36 1303.14 1258.09C1303.1 1258.49 1303.17 1258.89 1303.32 1259.26C1302.01 1260.26 1299.74 1261.51 1298.32 1261.26C1300.11 1260.04 1301.67 1258.5 1302.91 1256.73C1303.01 1256.58 1303.06 1256.41 1303.07 1256.24C1303.08 1256.06 1303.05 1255.89 1302.97 1255.73C1302.2 1254.73 1300.64 1254.65 1299.11 1255.43C1297.58 1256.34 1296.41 1257.76 1295.8 1259.43C1295.6 1259.9 1295.46 1260.39 1295.38 1260.89C1293.85 1261.62 1292.18 1262 1290.48 1262C1290.99 1261.52 1291.48 1261 1291.99 1260.54C1292.73 1259.8 1292.29 1259.05 1291.6 1258.95C1290.05 1258.75 1288.9 1260.07 1288.45 1261.42C1286.06 1263.55 1283.46 1265.44 1280.69 1267.04C1280 1267.43 1279.07 1268.24 1278.61 1267.73C1279.74 1266.89 1280.79 1265.96 1281.76 1264.94C1283.63 1262.94 1285.48 1259.46 1283.27 1258.24C1283 1258.12 1282.7 1258.09 1282.42 1258.16C1282.13 1258.23 1281.88 1258.39 1281.7 1258.62L1278.79 1262.49C1277.9 1263.55 1277.15 1264.71 1276.55 1265.96C1276.39 1266.35 1276.28 1266.76 1276.23 1267.18C1275.25 1267.79 1274.22 1268.32 1273.16 1268.77L1272.89 1268.88L1274.6 1267.5C1276.2 1266.19 1277.66 1264.66 1277.75 1262.84C1277.84 1261.02 1276.75 1259.95 1275.75 1258.94C1275.47 1258.67 1274.82 1258.8 1274.42 1259.11C1271.35 1261.38 1268.96 1264.44 1267.51 1267.97C1267.29 1268.42 1267.16 1268.91 1267.14 1269.41C1267.13 1269.91 1267.22 1270.41 1267.41 1270.87C1264.65 1272.98 1261.85 1275.04 1259.02 1277.05C1258.73 1277.26 1258.02 1277.93 1257.7 1277.83C1257.38 1277.73 1257.54 1277.09 1257.54 1276.83C1257.54 1276.04 1257.59 1275.25 1257.68 1274.46C1257.9 1272.65 1258.33 1270.86 1258.97 1269.15C1259.55 1267.56 1260.27 1266.02 1261.12 1264.56C1261.32 1264.64 1261.53 1264.66 1261.75 1264.63C1261.96 1264.59 1262.15 1264.49 1262.31 1264.35C1263.28 1263.65 1264.06 1262.73 1264.58 1261.66C1265.1 1260.59 1265.35 1259.41 1265.31 1258.22C1265.24 1257.47 1264.05 1257.58 1263.49 1258.22C1258.22 1264.22 1255.08 1271.61 1255.37 1278.06C1255.43 1279.48 1256.07 1280.67 1257.98 1279.88C1258.85 1279.44 1259.68 1278.91 1260.45 1278.3C1261.45 1277.56 1262.51 1276.82 1263.53 1276.07C1265.46 1274.66 1267.37 1273.22 1269.28 1271.77C1270.45 1271.72 1271.6 1271.46 1272.68 1271.01C1274.05 1270.51 1275.36 1269.88 1276.61 1269.13C1276.8 1269.49 1277.1 1269.78 1277.47 1269.96C1277.84 1270.14 1278.26 1270.2 1278.66 1270.13C1279.66 1270.03 1281.13 1268.98 1282.1 1268.39C1283.25 1267.7 1284.38 1266.97 1285.48 1266.18C1286.58 1265.39 1287.58 1264.61 1288.59 1263.77C1288.82 1264.09 1289.22 1264.18 1289.91 1264.2C1290.89 1264.22 1291.87 1264.11 1292.82 1263.89C1293.9 1263.63 1294.95 1263.27 1295.95 1262.79C1296.1 1262.93 1296.27 1263.05 1296.46 1263.14C1297.85 1263.61 1299.37 1263.51 1300.7 1262.88C1302.13 1262.33 1303.48 1261.57 1304.7 1260.64C1305.07 1260.8 1305.47 1260.91 1305.87 1260.95C1307.87 1261.17 1310.03 1260.11 1312.05 1259.04C1313.38 1258.23 1312.92 1256.4 1311.53 1257.14V1257.14ZM1270.18 1266.71C1271.28 1264.62 1272.78 1262.77 1274.58 1261.25C1275.36 1262.12 1276.07 1263.25 1275.01 1264.69C1274.32 1265.44 1273.56 1266.11 1272.73 1266.69L1270.1 1268.76C1269.88 1268.94 1269.64 1269.11 1269.41 1269.29C1269.11 1268.7 1269.85 1267.36 1270.18 1266.71ZM1282.05 1261.14C1281.56 1262.39 1280.78 1263.5 1279.78 1264.39C1279.64 1264.53 1279.5 1264.67 1279.35 1264.8C1280.14 1263.56 1281.11 1262.34 1282.05 1261.14ZM1300.52 1256.96C1299.74 1257.92 1298.83 1258.77 1297.83 1259.49C1298.38 1258.27 1299.66 1256.89 1300.52 1257V1256.96ZM1305.59 1256.9C1305.72 1256.68 1306.32 1256.01 1306.23 1256.47C1306.01 1256.87 1305.72 1257.23 1305.37 1257.53C1305.4 1257.31 1305.47 1257.09 1305.59 1256.9V1256.9Z" fill="#365DA2"/>
<path d="M1810.06 1019.3H2040.68L2117.97 709.3H1887.36L1810.06 1019.3V1019.3Z" fill="white"/>
<g opacity="0.5">
<path opacity="0.5" d="M1901.38 797H2054.15C2055.14 796.949 2056.08 796.589 2056.85 795.972C2057.63 795.355 2058.18 794.511 2058.45 793.56L2058.77 792.27C2058.91 791.868 2058.94 791.439 2058.88 791.02C2058.81 790.601 2058.64 790.204 2058.39 789.865C2058.14 789.525 2057.8 789.252 2057.42 789.07C2057.04 788.888 2056.61 788.802 2056.19 788.82H1903.42C1902.43 788.87 1901.48 789.231 1900.71 789.85C1899.94 790.469 1899.38 791.316 1899.12 792.27L1898.79 793.56C1898.65 793.962 1898.62 794.391 1898.69 794.809C1898.75 795.228 1898.92 795.624 1899.18 795.962C1899.43 796.301 1899.77 796.573 1900.15 796.754C1900.53 796.934 1900.96 797.019 1901.38 797V797Z" fill="#699DEE"/>
<path opacity="0.5" d="M1915 742.52H2067.77C2068.76 742.469 2069.7 742.109 2070.47 741.492C2071.25 740.875 2071.8 740.031 2072.07 739.08L2072.39 737.79C2072.53 737.388 2072.56 736.959 2072.5 736.54C2072.43 736.121 2072.26 735.724 2072.01 735.385C2071.76 735.045 2071.42 734.772 2071.04 734.59C2070.66 734.408 2070.23 734.322 2069.81 734.34H1917C1916.01 734.392 1915.07 734.753 1914.29 735.372C1913.52 735.991 1912.96 736.837 1912.7 737.79L1912.38 739.08C1912.24 739.484 1912.2 739.917 1912.27 740.339C1912.34 740.761 1912.51 741.16 1912.77 741.5C1913.03 741.841 1913.37 742.112 1913.76 742.289C1914.15 742.467 1914.57 742.547 1915 742.52Z" fill="#699DEE"/>
<path opacity="0.5" d="M1910.25 761.46H2063C2063.99 761.408 2064.93 761.047 2065.71 760.428C2066.48 759.809 2067.04 758.963 2067.3 758.01L2067.62 756.72C2067.76 756.319 2067.79 755.891 2067.72 755.473C2067.66 755.056 2067.49 754.66 2067.23 754.322C2066.98 753.983 2066.65 753.712 2066.27 753.53C2065.88 753.349 2065.46 753.263 2065.04 753.28H1912.29C1911.3 753.33 1910.36 753.689 1909.59 754.306C1908.81 754.924 1908.26 755.768 1907.99 756.72L1907.66 758.01C1907.53 758.412 1907.49 758.842 1907.56 759.261C1907.63 759.679 1907.79 760.076 1908.05 760.415C1908.3 760.755 1908.64 761.027 1909.02 761.209C1909.4 761.391 1909.83 761.477 1910.25 761.46V761.46Z" fill="#699DEE"/>
<path opacity="0.5" d="M1905.81 779.24H2058.58C2059.57 779.19 2060.51 778.831 2061.29 778.214C2062.06 777.596 2062.61 776.752 2062.88 775.8L2063.21 774.51C2063.35 774.108 2063.38 773.679 2063.31 773.261C2063.25 772.842 2063.08 772.446 2062.82 772.108C2062.57 771.769 2062.23 771.497 2061.85 771.316C2061.47 771.136 2061.04 771.051 2060.62 771.07H1907.85C1906.86 771.121 1905.92 771.481 1905.15 772.098C1904.37 772.715 1903.82 773.559 1903.55 774.51L1903.23 775.8C1903.1 776.201 1903.06 776.629 1903.13 777.047C1903.19 777.464 1903.36 777.86 1903.62 778.198C1903.87 778.537 1904.2 778.808 1904.58 778.99C1904.97 779.171 1905.39 779.257 1905.81 779.24Z" fill="#699DEE"/>
<path opacity="0.5" d="M1892.34 833.28H2045.11C2046.1 833.229 2047.04 832.869 2047.81 832.252C2048.59 831.635 2049.14 830.791 2049.41 829.84L2049.73 828.55C2049.86 828.149 2049.9 827.721 2049.83 827.303C2049.77 826.886 2049.6 826.49 2049.34 826.152C2049.09 825.813 2048.76 825.542 2048.38 825.36C2047.99 825.179 2047.57 825.093 2047.15 825.11H1894.38C1893.39 825.16 1892.45 825.519 1891.67 826.136C1890.9 826.754 1890.35 827.598 1890.08 828.55L1889.76 829.84C1889.62 830.241 1889.59 830.67 1889.65 831.089C1889.72 831.507 1889.89 831.904 1890.14 832.243C1890.39 832.582 1890.73 832.854 1891.11 833.035C1891.49 833.215 1891.92 833.3 1892.34 833.28V833.28Z" fill="#699DEE"/>
<path opacity="0.5" d="M1896.78 815.5H2049.54C2050.53 815.449 2051.48 815.088 2052.25 814.469C2053.02 813.85 2053.58 813.004 2053.85 812.05L2054.17 810.76C2054.31 810.358 2054.34 809.929 2054.27 809.511C2054.21 809.092 2054.04 808.696 2053.78 808.358C2053.53 808.019 2053.19 807.747 2052.81 807.566C2052.43 807.386 2052 807.301 2051.58 807.32H1898.81C1897.82 807.371 1896.88 807.731 1896.11 808.348C1895.33 808.965 1894.78 809.809 1894.51 810.76L1894.19 812.05C1894.05 812.452 1894.02 812.882 1894.08 813.302C1894.15 813.722 1894.32 814.12 1894.57 814.46C1894.83 814.8 1895.16 815.072 1895.55 815.254C1895.93 815.435 1896.36 815.519 1896.78 815.5Z" fill="#699DEE"/>
<path opacity="0.5" d="M1869.12 944.33H1906.22C1907.39 944.269 1908.51 943.843 1909.43 943.112C1910.35 942.38 1911.01 941.379 1911.33 940.25C1911.49 939.773 1911.53 939.264 1911.45 938.766C1911.37 938.269 1911.17 937.799 1910.87 937.396C1910.57 936.993 1910.17 936.67 1909.72 936.455C1909.26 936.24 1908.76 936.138 1908.26 936.16H1871.15C1869.98 936.222 1868.86 936.65 1867.94 937.384C1867.03 938.117 1866.36 939.12 1866.05 940.25C1865.89 940.727 1865.85 941.235 1865.92 941.732C1866 942.229 1866.2 942.699 1866.51 943.101C1866.81 943.503 1867.21 943.825 1867.66 944.04C1868.12 944.254 1868.62 944.353 1869.12 944.33V944.33Z" fill="#699DEE"/>
<path opacity="0.5" d="M1982.79 944.33H2019.89C2021.06 944.269 2022.18 943.843 2023.1 943.112C2024.02 942.38 2024.68 941.379 2025 940.25C2025.16 939.773 2025.2 939.264 2025.12 938.766C2025.04 938.269 2024.84 937.799 2024.54 937.396C2024.24 936.993 2023.84 936.67 2023.39 936.455C2022.93 936.24 2022.43 936.138 2021.93 936.16H1984.82C1983.65 936.222 1982.53 936.65 1981.61 937.384C1980.7 938.117 1980.03 939.12 1979.72 940.25C1979.56 940.727 1979.52 941.235 1979.59 941.732C1979.67 942.229 1979.87 942.699 1980.18 943.101C1980.48 943.503 1980.88 943.825 1981.33 944.04C1981.79 944.254 1982.29 944.353 1982.79 944.33V944.33Z" fill="#699DEE"/>
</g>
<path d="M1901 988.34H1846.89C1846.24 988.36 1845.59 988.23 1844.99 987.96C1844.4 987.689 1843.87 987.286 1843.46 986.78C1843.05 986.222 1842.77 985.578 1842.65 984.896C1842.53 984.214 1842.57 983.514 1842.77 982.85L1846.67 967.2C1847.09 965.711 1847.96 964.39 1849.17 963.424C1850.37 962.459 1851.86 961.897 1853.4 961.82H1907.51C1908.16 961.8 1908.81 961.93 1909.41 962.2C1910 962.471 1910.53 962.874 1910.94 963.38C1911.35 963.938 1911.63 964.582 1911.75 965.264C1911.87 965.946 1911.83 966.646 1911.63 967.31L1907.73 982.96C1907.31 984.449 1906.44 985.77 1905.23 986.736C1904.03 987.701 1902.54 988.263 1901 988.34V988.34ZM1853.4 962.26C1851.96 962.327 1850.57 962.845 1849.44 963.743C1848.31 964.64 1847.48 965.87 1847.09 967.26L1843.19 982.91C1843.01 983.509 1842.97 984.142 1843.08 984.759C1843.19 985.375 1843.44 985.958 1843.81 986.46C1844.18 986.915 1844.65 987.277 1845.19 987.518C1845.72 987.76 1846.3 987.873 1846.89 987.85H1901C1902.44 987.783 1903.83 987.265 1904.96 986.368C1906.09 985.47 1906.92 984.24 1907.31 982.85L1911.21 967.2C1911.39 966.601 1911.43 965.968 1911.32 965.351C1911.21 964.735 1910.96 964.152 1910.59 963.65C1910.22 963.195 1909.75 962.833 1909.21 962.592C1908.68 962.35 1908.1 962.237 1907.51 962.26H1853.4Z" fill="#476BA7"/>
<path d="M2014.9 988.34H1960.79C1960.14 988.363 1959.49 988.234 1958.89 987.963C1958.3 987.692 1957.77 987.287 1957.36 986.78C1956.95 986.223 1956.67 985.579 1956.55 984.897C1956.43 984.215 1956.47 983.515 1956.66 982.85L1960.56 967.2C1960.98 965.711 1961.85 964.39 1963.06 963.424C1964.26 962.459 1965.75 961.897 1967.29 961.82H2021.4C2022.05 961.8 2022.7 961.93 2023.3 962.2C2023.89 962.471 2024.42 962.874 2024.83 963.38C2025.24 963.937 2025.52 964.581 2025.64 965.263C2025.76 965.945 2025.72 966.645 2025.53 967.31L2021.62 983C2021.2 984.481 2020.32 985.793 2019.12 986.751C2017.91 987.709 2016.44 988.265 2014.9 988.34ZM1967.29 962.26C1965.85 962.328 1964.46 962.847 1963.33 963.744C1962.2 964.641 1961.38 965.871 1960.98 967.26L1957.08 982.91C1956.9 983.509 1956.87 984.142 1956.97 984.758C1957.08 985.374 1957.33 985.956 1957.7 986.46C1958.07 986.915 1958.55 987.277 1959.08 987.518C1959.62 987.76 1960.2 987.873 1960.79 987.85H2014.9C2016.34 987.781 2017.72 987.262 2018.86 986.365C2019.99 985.468 2020.81 984.238 2021.2 982.85L2025.1 967.2C2025.28 966.601 2025.32 965.969 2025.21 965.353C2025.11 964.738 2024.86 964.155 2024.49 963.65C2024.12 963.196 2023.64 962.834 2023.11 962.593C2022.57 962.351 2021.99 962.238 2021.4 962.26H1967.29Z" fill="#476BA7"/>
<path d="M2026.61 959.75C2018.4 963.143 2010.25 966.853 2002.14 970.88C2002.46 969.97 2002.75 969.07 2003 968.16C2003.21 967.43 2002.22 966.94 2001.62 967.75C2001.35 968.1 2001.06 968.44 2000.76 968.75C2000.96 968.1 2000.19 967.75 1999.53 968.21L1999.41 968.31C1999.73 967.44 1998.36 967.31 1997.85 968.15L1997.09 969.42C1996.44 970.186 1995.59 970.755 1994.64 971.06C1994.45 970.629 1994.33 970.17 1994.28 969.7C1994.28 969.62 1994.26 969.542 1994.23 969.469C1994.19 969.397 1994.15 969.332 1994.09 969.278C1994.03 969.224 1993.96 969.182 1993.88 969.155C1993.81 969.128 1993.73 969.116 1993.65 969.12C1993.65 968.67 1993.23 968.41 1992.65 968.67C1991.94 968.991 1991.3 969.462 1990.79 970.05C1990.38 969.29 1989.08 969.83 1988.38 970.56L1988.44 970.43C1988.77 969.73 1988.16 968.93 1987.34 969.64C1985.96 970.817 1984.92 972.348 1984.34 974.07C1983.86 974.612 1983.34 975.123 1982.79 975.6C1982.52 975.83 1981.27 976.99 1980.98 976.89C1980.69 976.79 1980.85 976.08 1980.98 975.57L1981.12 975.38C1982.12 973.93 1987.19 967.1 1983.65 967.16C1983.45 967.171 1983.25 967.232 1983.08 967.336C1982.9 967.441 1982.76 967.586 1982.65 967.76C1981.39 969.669 1980.41 971.751 1979.75 973.94C1979.63 974.34 1979.47 974.86 1979.34 975.41L1979.03 975.82C1977.62 977.66 1975.68 980.32 1973.4 981.23C1973.19 978.35 1974.64 974.93 1975.75 971.9C1976.22 970.59 1976.75 969.28 1977.23 967.98C1977.41 967.938 1977.58 967.848 1977.72 967.72C1980.18 965.65 1981.19 962.58 1980.07 960.51C1979.75 959.91 1978.77 960.45 1978.49 961.09C1976.79 964.89 1975.25 968.707 1973.88 972.54C1972.66 975.94 1971.28 979.54 1971.78 982.66C1971.84 982.99 1972.22 983.11 1972.58 983.04C1975.18 982.47 1977.45 980.16 1979.27 977.85C1979.33 978.001 1979.43 978.137 1979.55 978.246C1979.68 978.355 1979.82 978.435 1979.98 978.48C1981.19 978.84 1982.85 977.48 1984.04 976.37C1984.06 976.758 1984.13 977.141 1984.25 977.51C1984.38 977.9 1984.79 977.99 1985.25 977.8C1986.39 977.342 1987.43 976.663 1988.31 975.8C1989.56 975.319 1990.63 974.463 1991.37 973.35C1991.91 972.882 1992.41 972.378 1992.88 971.84C1992.97 972.121 1993.11 972.382 1993.3 972.61C1993.75 973.12 1994.86 972.61 1995.57 972.33C1996.25 972.021 1996.88 971.61 1997.44 971.11C1997.89 971.068 1998.32 970.95 1998.73 970.76C1998.81 970.885 1998.92 970.991 1999.04 971.07C1999.27 971.198 1999.54 971.253 1999.8 971.228C2000.07 971.203 2000.32 971.099 2000.52 970.93C2000.4 971.26 2000.29 971.59 2000.16 971.93C1998.98 972.53 1997.8 973.13 1996.63 973.74C1995.85 974.14 1995.63 975.33 1996.54 975.26L1999.78 975.01C2000.02 974.991 2000.25 974.905 2000.44 974.762C2000.63 974.618 2000.78 974.424 2000.87 974.2C2001.06 973.76 2001.24 973.33 2001.41 972.9C2009.86 968.66 2018.39 964.763 2027 961.21C2028.07 960.71 2027.71 959.3 2026.61 959.75V959.75ZM1989 972.18C1988.92 972.41 1988.83 972.64 1988.73 972.86C1988.63 973.08 1988.57 973.16 1988.49 973.31C1988.62 972.915 1988.79 972.536 1989 972.18ZM1986.62 974.18C1986.49 974.58 1986.49 975.01 1986.62 975.41C1986.36 975.608 1986.09 975.789 1985.81 975.95C1985.76 975.442 1985.79 974.929 1985.9 974.43C1986.28 973.995 1986.63 973.541 1986.96 973.07C1986.8 973.439 1986.68 973.82 1986.58 974.21L1986.62 974.18Z" fill="#365DA2"/>
<path d="M1875.38 954.71C1872.47 960.12 1870.83 965.71 1868.47 971.14C1867.32 973.895 1865.89 976.525 1864.2 978.99C1862.97 980.74 1860.3 984.56 1858.03 983.73C1857.47 983.52 1857.31 983.04 1857.49 982.38C1857.49 982.23 1857.58 982.08 1857.63 981.93C1857.82 982.01 1858.03 982.039 1858.24 982.017C1858.44 981.994 1858.64 981.919 1858.81 981.8C1859.54 981.359 1860.12 980.707 1860.48 979.93C1860.82 979.2 1860.77 978.43 1860.18 978.11C1859.86 977.994 1859.51 977.981 1859.17 978.073C1858.84 978.164 1858.55 978.355 1858.33 978.62C1857.8 979.235 1857.4 979.949 1857.15 980.72C1856.69 981.527 1856.42 982.425 1856.35 983.35C1856.43 984.6 1857.78 985.04 1859.1 984.75C1860.7 984.4 1862.1 983 1863.19 981.75C1864.44 980.269 1865.56 978.687 1866.55 977.02C1868.4 973.763 1869.96 970.354 1871.23 966.83C1872.64 962.783 1874.31 958.832 1876.23 955C1876.61 954.35 1875.72 954.07 1875.38 954.71V954.71ZM1859.62 979.27C1859.72 979.65 1859.35 980.15 1859.05 980.5C1858.95 980.625 1858.84 980.739 1858.71 980.84C1858.63 980.899 1858.55 980.95 1858.46 980.99H1858.38C1858.35 980.935 1858.31 980.89 1858.26 980.859C1858.2 980.829 1858.14 980.815 1858.08 980.82C1858.21 980.527 1858.34 980.247 1858.47 979.98C1858.66 979.59 1859.42 978.46 1859.62 979.27V979.27Z" fill="#365DA2"/>
<path d="M1894.86 971.61C1894.29 971.955 1893.67 972.211 1893.02 972.37C1892.86 972.395 1892.7 972.395 1892.54 972.37C1892.98 971.994 1893.3 971.497 1893.46 970.94C1893.56 970.15 1892.7 969.94 1891.97 970.37C1891.66 970.543 1891.4 970.787 1891.21 971.08C1891.01 971.374 1890.89 971.71 1890.85 972.06C1890.83 972.251 1890.86 972.444 1890.94 972.62C1890.27 973.204 1889.43 973.554 1888.55 973.62C1889.4 973.03 1890.15 972.296 1890.75 971.45C1890.8 971.378 1890.82 971.292 1890.82 971.205C1890.82 971.118 1890.8 971.033 1890.75 970.96C1890.51 970.723 1890.19 970.578 1889.85 970.55C1889.51 970.523 1889.18 970.615 1888.9 970.81C1888.17 971.247 1887.61 971.921 1887.32 972.72C1887.22 972.942 1887.15 973.178 1887.11 973.42C1886.38 973.773 1885.58 973.955 1884.77 973.95C1885.01 973.72 1885.26 973.49 1885.49 973.25C1885.72 973.01 1885.64 972.54 1885.3 972.49C1884.95 972.484 1884.61 972.598 1884.34 972.813C1884.07 973.028 1883.88 973.331 1883.8 973.67C1882.66 974.693 1881.41 975.595 1880.08 976.36C1879.75 976.55 1879.31 976.94 1879.08 976.69C1879.62 976.293 1880.12 975.847 1880.58 975.36C1881.48 974.42 1882.36 972.73 1881.31 972.15C1881.18 972.09 1881.04 972.075 1880.9 972.108C1880.76 972.141 1880.64 972.219 1880.55 972.33C1880.09 972.95 1879.63 973.57 1879.16 974.18C1878.74 974.693 1878.38 975.254 1878.09 975.85C1878.01 976.035 1877.96 976.23 1877.94 976.43C1877.47 976.725 1876.97 976.979 1876.46 977.19L1876.34 977.24L1877.16 976.58C1877.55 976.33 1877.88 976.003 1878.14 975.62C1878.4 975.236 1878.57 974.804 1878.66 974.35C1878.64 973.985 1878.54 973.629 1878.37 973.308C1878.2 972.986 1877.95 972.707 1877.66 972.49C1877.53 972.35 1877.22 972.42 1877.02 972.57C1875.55 973.656 1874.41 975.122 1873.72 976.81C1873.62 977.028 1873.57 977.265 1873.57 977.505C1873.57 977.745 1873.62 977.982 1873.72 978.2C1872.39 979.207 1871.05 980.207 1869.72 981.2C1869.58 981.31 1869.23 981.63 1869.09 981.58C1868.95 981.53 1869.01 981.23 1869.01 981.09C1869.01 980.709 1869.03 980.328 1869.08 979.95C1869.18 979.082 1869.39 978.229 1869.7 977.41C1869.97 976.649 1870.3 975.912 1870.7 975.21C1870.79 975.248 1870.9 975.259 1870.99 975.242C1871.09 975.224 1871.19 975.178 1871.26 975.11C1871.72 974.776 1872.09 974.333 1872.34 973.82C1872.59 973.307 1872.71 972.74 1872.69 972.17C1872.69 971.82 1872.08 971.87 1871.82 972.17C1869.3 975.04 1867.82 978.59 1867.93 981.67C1867.93 982.35 1868.27 982.93 1869.18 982.55C1869.6 982.336 1869.99 982.081 1870.36 981.79L1871.84 980.72C1872.76 980.05 1873.68 979.36 1874.59 978.66C1875.15 978.639 1875.7 978.517 1876.22 978.3C1876.87 978.059 1877.5 977.758 1878.1 977.4C1878.19 977.575 1878.34 977.715 1878.52 977.8C1878.7 977.884 1878.9 977.909 1879.1 977.87C1879.69 977.693 1880.25 977.412 1880.75 977.04C1881.3 976.7 1881.84 976.35 1882.37 975.98C1882.9 975.61 1883.37 975.23 1883.85 974.82C1883.97 974.98 1884.16 975.02 1884.49 975.03C1884.96 975.038 1885.42 974.988 1885.88 974.88C1886.4 974.754 1886.9 974.577 1887.38 974.35C1887.45 974.418 1887.53 974.476 1887.62 974.52C1888.28 974.739 1888.99 974.696 1889.62 974.4C1890.3 974.133 1890.95 973.769 1891.53 973.32C1891.71 973.401 1891.9 973.452 1892.09 973.47C1893.16 973.461 1894.2 973.145 1895.09 972.56C1895.75 972.13 1895.53 971.25 1894.86 971.61V971.61ZM1875.06 976.19C1875.59 975.192 1876.31 974.306 1877.17 973.58C1877.42 973.77 1877.57 974.049 1877.61 974.357C1877.65 974.664 1877.57 974.975 1877.38 975.22C1877.05 975.595 1876.68 975.931 1876.28 976.22C1875.87 976.56 1875.45 976.89 1875.03 977.22L1874.7 977.48C1874.55 977.14 1874.91 976.5 1875.06 976.19ZM1880.75 973.52C1880.51 974.117 1880.14 974.651 1879.66 975.08L1879.46 975.27C1879.83 974.68 1880.3 974.1 1880.75 973.52ZM1889.59 971.52C1889.22 971.981 1888.78 972.388 1888.3 972.73C1888.57 972.15 1889.18 971.49 1889.59 971.52ZM1892.02 971.52C1892.08 971.42 1892.37 971.1 1892.32 971.32C1892.22 971.512 1892.08 971.682 1891.91 971.82C1891.91 971.704 1891.94 971.591 1892 971.49L1892.02 971.52Z" fill="#365DA2"/>
<path d="M1723.24 1360.6H1953.85L2031.15 1050.6H1800.53L1723.24 1360.6V1360.6Z" fill="white"/>
<g opacity="0.5">
<path opacity="0.5" d="M1819.15 1141.18H1971.92C1972.91 1141.13 1973.85 1140.77 1974.63 1140.15C1975.4 1139.53 1975.96 1138.68 1976.22 1137.73L1976.54 1136.44C1976.67 1136.04 1976.71 1135.62 1976.64 1135.2C1976.58 1134.79 1976.41 1134.4 1976.17 1134.06C1975.92 1133.72 1975.59 1133.45 1975.21 1133.26C1974.84 1133.08 1974.42 1132.99 1974 1133H1821.19C1820.2 1133.05 1819.26 1133.41 1818.48 1134.03C1817.71 1134.64 1817.16 1135.49 1816.89 1136.44L1816.57 1137.73C1816.43 1138.13 1816.4 1138.56 1816.46 1138.98C1816.53 1139.4 1816.7 1139.8 1816.95 1140.14C1817.2 1140.48 1817.54 1140.75 1817.92 1140.93C1818.3 1141.11 1818.73 1141.2 1819.15 1141.18V1141.18Z" fill="#699DEE"/>
<path opacity="0.5" d="M1832.74 1086.66H1985.51C1986.5 1086.61 1987.44 1086.25 1988.21 1085.63C1988.99 1085.01 1989.54 1084.17 1989.81 1083.22L1990.13 1081.93C1990.27 1081.53 1990.3 1081.1 1990.24 1080.68C1990.17 1080.26 1990 1079.87 1989.75 1079.53C1989.5 1079.19 1989.16 1078.92 1988.78 1078.74C1988.4 1078.55 1987.97 1078.47 1987.55 1078.49H1834.78C1833.79 1078.54 1832.85 1078.9 1832.08 1079.52C1831.3 1080.14 1830.75 1080.98 1830.48 1081.93L1830.16 1083.22C1830.03 1083.62 1829.99 1084.05 1830.06 1084.47C1830.12 1084.88 1830.29 1085.28 1830.55 1085.62C1830.8 1085.96 1831.13 1086.23 1831.51 1086.41C1831.9 1086.59 1832.32 1086.68 1832.74 1086.66V1086.66Z" fill="#699DEE"/>
<path opacity="0.5" d="M1828 1105.6H1980.77C1981.76 1105.55 1982.7 1105.19 1983.47 1104.57C1984.25 1103.95 1984.8 1103.11 1985.07 1102.16L1985.39 1100.87C1985.53 1100.47 1985.56 1100.04 1985.5 1099.62C1985.43 1099.2 1985.26 1098.8 1985.01 1098.46C1984.76 1098.12 1984.42 1097.85 1984.04 1097.67C1983.66 1097.49 1983.23 1097.4 1982.81 1097.42H1830.06C1829.07 1097.47 1828.13 1097.83 1827.35 1098.45C1826.58 1099.07 1826.02 1099.92 1825.76 1100.87L1825.44 1102.16C1825.3 1102.56 1825.27 1102.99 1825.33 1103.4C1825.4 1103.82 1825.56 1104.22 1825.81 1104.55C1826.07 1104.89 1826.4 1105.17 1826.78 1105.35C1827.16 1105.53 1827.58 1105.62 1828 1105.6V1105.6Z" fill="#699DEE"/>
<path opacity="0.5" d="M1823.58 1123.39H1976.35C1977.34 1123.34 1978.29 1122.98 1979.06 1122.36C1979.83 1121.74 1980.39 1120.89 1980.66 1119.94L1980.98 1118.65C1981.12 1118.25 1981.15 1117.82 1981.08 1117.4C1981.02 1116.98 1980.85 1116.59 1980.59 1116.25C1980.34 1115.91 1980 1115.64 1979.62 1115.46C1979.24 1115.28 1978.81 1115.19 1978.39 1115.21H1825.62C1824.63 1115.26 1823.69 1115.62 1822.92 1116.24C1822.14 1116.86 1821.59 1117.7 1821.32 1118.65L1821 1119.94C1820.86 1120.34 1820.83 1120.77 1820.89 1121.19C1820.96 1121.61 1821.13 1122.01 1821.38 1122.35C1821.63 1122.69 1821.97 1122.96 1822.35 1123.14C1822.73 1123.32 1823.16 1123.41 1823.58 1123.39V1123.39Z" fill="#699DEE"/>
<path opacity="0.5" d="M1810.11 1177.43H1962.88C1963.87 1177.38 1964.81 1177.02 1965.58 1176.4C1966.36 1175.78 1966.91 1174.94 1967.18 1173.99L1967.5 1172.69C1967.64 1172.29 1967.67 1171.86 1967.61 1171.44C1967.54 1171.02 1967.37 1170.63 1967.12 1170.29C1966.87 1169.95 1966.53 1169.68 1966.15 1169.5C1965.77 1169.31 1965.34 1169.23 1964.92 1169.25H1812.15C1811.16 1169.3 1810.22 1169.66 1809.45 1170.28C1808.67 1170.9 1808.12 1171.74 1807.85 1172.69L1807.53 1173.99C1807.39 1174.39 1807.36 1174.82 1807.42 1175.24C1807.49 1175.66 1807.66 1176.05 1807.91 1176.39C1808.16 1176.73 1808.5 1177 1808.88 1177.18C1809.26 1177.37 1809.69 1177.45 1810.11 1177.43V1177.43Z" fill="#699DEE"/>
<path opacity="0.5" d="M1814.55 1159.64H1967.32C1968.31 1159.59 1969.25 1159.23 1970.02 1158.61C1970.79 1157.99 1971.35 1157.15 1971.62 1156.2L1971.94 1154.91C1972.08 1154.51 1972.11 1154.08 1972.05 1153.66C1971.98 1153.24 1971.81 1152.84 1971.56 1152.5C1971.3 1152.16 1970.97 1151.89 1970.58 1151.71C1970.2 1151.52 1969.77 1151.44 1969.35 1151.46H1816.58C1815.59 1151.51 1814.65 1151.87 1813.88 1152.49C1813.1 1153.11 1812.55 1153.96 1812.28 1154.91L1811.96 1156.2C1811.82 1156.6 1811.79 1157.03 1811.86 1157.45C1811.92 1157.87 1812.09 1158.26 1812.35 1158.6C1812.6 1158.94 1812.94 1159.21 1813.32 1159.39C1813.7 1159.57 1814.13 1159.66 1814.55 1159.64Z" fill="#699DEE"/>
<path opacity="0.5" d="M1782.29 1285.63H1819.4C1820.57 1285.57 1821.69 1285.14 1822.61 1284.41C1823.52 1283.67 1824.19 1282.67 1824.5 1281.54C1824.66 1281.06 1824.7 1280.55 1824.62 1280.06C1824.54 1279.56 1824.34 1279.09 1824.04 1278.69C1823.74 1278.28 1823.34 1277.96 1822.89 1277.75C1822.43 1277.53 1821.93 1277.43 1821.43 1277.45H1784.33C1783.16 1277.51 1782.03 1277.94 1781.12 1278.67C1780.2 1279.4 1779.54 1280.41 1779.22 1281.54C1779.06 1282.02 1779.02 1282.53 1779.1 1283.02C1779.18 1283.52 1779.38 1283.99 1779.68 1284.39C1779.98 1284.8 1780.38 1285.12 1780.83 1285.34C1781.29 1285.55 1781.79 1285.65 1782.29 1285.63V1285.63Z" fill="#699DEE"/>
<path opacity="0.5" d="M1896 1285.63H1933.11C1934.28 1285.57 1935.4 1285.14 1936.32 1284.41C1937.23 1283.67 1937.9 1282.67 1938.21 1281.54C1938.37 1281.06 1938.41 1280.55 1938.33 1280.06C1938.25 1279.56 1938.05 1279.09 1937.75 1278.69C1937.45 1278.28 1937.05 1277.96 1936.6 1277.75C1936.14 1277.53 1935.64 1277.43 1935.14 1277.45H1898C1896.83 1277.51 1895.7 1277.94 1894.79 1278.67C1893.87 1279.4 1893.21 1280.41 1892.89 1281.54C1892.73 1282.02 1892.68 1282.53 1892.77 1283.03C1892.85 1283.53 1893.05 1284.01 1893.36 1284.41C1893.67 1284.82 1894.07 1285.14 1894.53 1285.35C1894.99 1285.56 1895.49 1285.66 1896 1285.63V1285.63Z" fill="#699DEE"/>
</g>
<path d="M1814.21 1329.63H1760.1C1759.45 1329.65 1758.8 1329.53 1758.2 1329.26C1757.61 1328.98 1757.08 1328.58 1756.67 1328.07C1756.26 1327.52 1755.98 1326.87 1755.86 1326.19C1755.74 1325.51 1755.78 1324.81 1755.97 1324.15L1759.87 1308.5C1760.28 1307.01 1761.16 1305.69 1762.37 1304.72C1763.57 1303.76 1765.06 1303.2 1766.6 1303.12H1820.71C1821.36 1303.09 1822.01 1303.22 1822.61 1303.49C1823.21 1303.76 1823.73 1304.17 1824.14 1304.68C1824.55 1305.24 1824.83 1305.88 1824.95 1306.56C1825.07 1307.24 1825.04 1307.95 1824.84 1308.61L1820.94 1324.25C1820.53 1325.74 1819.65 1327.06 1818.44 1328.03C1817.24 1328.99 1815.75 1329.55 1814.21 1329.63ZM1766.6 1303.55C1765.15 1303.62 1763.76 1304.15 1762.63 1305.06C1761.5 1305.97 1760.69 1307.21 1760.3 1308.61L1756.39 1324.25C1756.22 1324.85 1756.18 1325.48 1756.29 1326.1C1756.4 1326.71 1756.64 1327.29 1757.01 1327.8C1757.38 1328.26 1757.85 1328.62 1758.39 1328.86C1758.93 1329.11 1759.51 1329.22 1760.1 1329.2H1814.21C1815.65 1329.13 1817.04 1328.61 1818.17 1327.71C1819.3 1326.82 1820.12 1325.59 1820.52 1324.2L1824.42 1308.55C1824.59 1307.95 1824.63 1307.32 1824.52 1306.7C1824.41 1306.09 1824.17 1305.51 1823.8 1305C1823.43 1304.54 1822.96 1304.18 1822.42 1303.94C1821.88 1303.69 1821.3 1303.58 1820.71 1303.6L1766.6 1303.55Z" fill="#476BA7"/>
<path d="M1928.07 1329.63H1874C1873.35 1329.65 1872.7 1329.52 1872.1 1329.25C1871.51 1328.98 1870.98 1328.58 1870.57 1328.07C1870.16 1327.52 1869.88 1326.87 1869.76 1326.19C1869.64 1325.51 1869.68 1324.81 1869.87 1324.15L1873.78 1308.5C1874.19 1307.01 1875.06 1305.69 1876.27 1304.72C1877.48 1303.76 1878.96 1303.2 1880.5 1303.12H1934.61C1935.26 1303.09 1935.91 1303.22 1936.51 1303.49C1937.11 1303.76 1937.63 1304.17 1938.04 1304.68C1938.45 1305.24 1938.73 1305.88 1938.85 1306.56C1938.97 1307.24 1938.94 1307.95 1938.74 1308.61L1934.84 1324.25C1934.42 1325.75 1933.54 1327.07 1932.33 1328.04C1931.11 1329.01 1929.62 1329.56 1928.07 1329.63V1329.63ZM1880.46 1303.55C1879.01 1303.62 1877.62 1304.15 1876.49 1305.06C1875.36 1305.97 1874.54 1307.21 1874.16 1308.61L1870.26 1324.25C1870.08 1324.85 1870.04 1325.48 1870.15 1326.1C1870.25 1326.71 1870.5 1327.3 1870.87 1327.8C1871.24 1328.26 1871.72 1328.62 1872.25 1328.86C1872.79 1329.1 1873.37 1329.22 1873.96 1329.2H1928.07C1929.51 1329.13 1930.9 1328.61 1932.03 1327.71C1933.16 1326.82 1933.98 1325.59 1934.38 1324.2L1938.28 1308.55C1938.46 1307.95 1938.5 1307.32 1938.39 1306.7C1938.28 1306.08 1938.03 1305.5 1937.66 1305C1937.29 1304.54 1936.82 1304.18 1936.28 1303.94C1935.74 1303.69 1935.16 1303.58 1934.57 1303.6L1880.46 1303.55Z" fill="#476BA7"/>
<path d="M1939.79 1301C1931.57 1304.4 1923.41 1308.11 1915.32 1312.14C1915.64 1311.23 1915.93 1310.32 1916.18 1309.41C1916.38 1308.68 1915.4 1308.2 1914.79 1309C1914.52 1309.35 1914.24 1309.68 1913.93 1310C1914.14 1309.35 1913.37 1309 1912.71 1309.46L1912.58 1309.56C1912.9 1308.68 1911.58 1308.56 1911.03 1309.4L1910.27 1310.67C1909.62 1311.44 1908.77 1312 1907.82 1312.31C1907.62 1311.88 1907.5 1311.41 1907.46 1310.94C1907.45 1310.78 1907.38 1310.63 1907.26 1310.52C1907.15 1310.41 1906.99 1310.35 1906.83 1310.36C1906.83 1309.92 1906.41 1309.65 1905.83 1309.92C1905.12 1310.24 1904.49 1310.71 1903.97 1311.29C1903.57 1310.53 1902.27 1311.08 1901.57 1311.8L1901.63 1311.68C1901.96 1310.98 1901.34 1310.18 1900.52 1310.89C1899.14 1312.07 1898.1 1313.6 1897.52 1315.32C1897.04 1315.86 1896.53 1316.37 1895.98 1316.85C1895.71 1317.08 1894.45 1318.24 1894.17 1318.14C1893.89 1318.04 1894.04 1317.32 1894.17 1316.81L1894.3 1316.63C1895.3 1315.17 1900.38 1308.34 1896.83 1308.4C1896.63 1308.41 1896.43 1308.47 1896.26 1308.58C1896.08 1308.68 1895.94 1308.83 1895.83 1309C1894.56 1310.91 1893.58 1313 1892.92 1315.19C1892.81 1315.59 1892.65 1316.11 1892.52 1316.65C1892.41 1316.79 1892.31 1316.93 1892.2 1317.06C1890.8 1318.91 1888.85 1321.57 1886.57 1322.48C1886.36 1319.59 1887.82 1316.17 1888.92 1313.14C1889.4 1311.83 1889.92 1310.53 1890.41 1309.22C1890.59 1309.18 1890.76 1309.09 1890.9 1308.97C1893.36 1306.9 1894.37 1303.82 1893.25 1301.75C1892.93 1301.16 1891.95 1301.75 1891.66 1302.33C1889.97 1306.14 1888.44 1309.96 1887.05 1313.79C1885.83 1317.18 1884.45 1320.79 1884.96 1323.91C1884.96 1324.24 1885.4 1324.36 1885.76 1324.28C1888.36 1323.72 1890.62 1321.4 1892.45 1319.09C1892.51 1319.25 1892.6 1319.38 1892.73 1319.49C1892.85 1319.6 1893 1319.68 1893.16 1319.72C1894.37 1320.08 1896.02 1318.72 1897.21 1317.61C1897.24 1318 1897.31 1318.38 1897.42 1318.75C1897.55 1319.15 1897.96 1319.24 1898.42 1319.05C1899.56 1318.59 1900.6 1317.91 1901.48 1317.05C1902.73 1316.56 1903.79 1315.7 1904.54 1314.59C1905.08 1314.12 1905.58 1313.62 1906.05 1313.09C1906.14 1313.37 1906.28 1313.63 1906.47 1313.86C1906.91 1314.36 1908.03 1313.86 1908.74 1313.58C1909.42 1313.27 1910.05 1312.85 1910.61 1312.35C1911.06 1312.32 1911.5 1312.2 1911.9 1312C1911.98 1312.13 1912.08 1312.24 1912.2 1312.32C1912.43 1312.45 1912.7 1312.5 1912.97 1312.48C1913.23 1312.45 1913.48 1312.35 1913.69 1312.18L1913.33 1313.18L1909.79 1314.98C1909.02 1315.38 1908.79 1316.57 1909.71 1316.5L1912.95 1316.26C1913.19 1316.24 1913.42 1316.15 1913.61 1316C1913.8 1315.86 1913.94 1315.66 1914.03 1315.44C1914.22 1315.01 1914.4 1314.58 1914.58 1314.14C1923.03 1309.91 1931.55 1306.01 1940.16 1302.46C1941.25 1302 1940.88 1300.59 1939.79 1301V1301ZM1902.13 1313.44C1902.06 1313.67 1901.97 1313.89 1901.87 1314.11C1901.79 1314.27 1901.71 1314.42 1901.62 1314.57C1901.76 1314.19 1901.93 1313.83 1902.13 1313.48V1313.44ZM1899.75 1315.44C1899.62 1315.84 1899.62 1316.28 1899.75 1316.68C1899.49 1316.87 1899.22 1317.05 1898.94 1317.21C1898.88 1316.71 1898.91 1316.19 1899.03 1315.7C1899.4 1315.26 1899.75 1314.8 1900.03 1314.34C1899.91 1314.72 1899.82 1315.11 1899.75 1315.5V1315.44Z" fill="#365DA2"/>
<path d="M1788.55 1296C1785.64 1301.41 1784.01 1307 1781.65 1312.43C1780.49 1315.18 1779.06 1317.81 1777.38 1320.28C1776.15 1322.03 1773.47 1325.84 1771.21 1325.02C1770.64 1324.81 1770.48 1324.32 1770.67 1323.67C1770.67 1323.52 1770.76 1323.37 1770.81 1323.22C1771 1323.29 1771.21 1323.32 1771.42 1323.3C1771.62 1323.27 1771.82 1323.2 1771.99 1323.08C1772.72 1322.64 1773.3 1321.99 1773.66 1321.22C1774 1320.48 1773.94 1319.72 1773.35 1319.39C1773.03 1319.28 1772.68 1319.27 1772.35 1319.36C1772.02 1319.45 1771.73 1319.64 1771.51 1319.91C1770.98 1320.52 1770.58 1321.23 1770.32 1322C1769.87 1322.81 1769.6 1323.71 1769.52 1324.63C1769.61 1325.88 1770.95 1326.32 1772.27 1326.03C1773.87 1325.68 1775.27 1324.29 1776.37 1323.03C1777.62 1321.55 1778.74 1319.97 1779.72 1318.3C1781.57 1315.05 1783.14 1311.64 1784.41 1308.12C1785.82 1304.07 1787.49 1300.12 1789.41 1296.29C1789.78 1295.64 1788.9 1295.37 1788.55 1296V1296ZM1772.8 1320.55C1772.9 1320.93 1772.53 1321.44 1772.23 1321.79C1772.13 1321.92 1772.01 1322.03 1771.88 1322.13C1771.81 1322.19 1771.73 1322.23 1771.64 1322.27H1771.56C1771.53 1322.22 1771.48 1322.17 1771.43 1322.14C1771.37 1322.11 1771.31 1322.1 1771.25 1322.1C1771.38 1321.81 1771.51 1321.53 1771.64 1321.26C1771.83 1320.89 1772.59 1319.76 1772.8 1320.56V1320.55Z" fill="#365DA2"/>
<path d="M1808 1312.9C1807.43 1313.25 1806.8 1313.51 1806.15 1313.67C1805.99 1313.69 1805.84 1313.69 1805.68 1313.67C1806.12 1313.3 1806.44 1312.8 1806.59 1312.24C1806.7 1311.46 1805.84 1311.24 1805.1 1311.68C1804.8 1311.85 1804.54 1312.1 1804.34 1312.39C1804.15 1312.69 1804.03 1313.02 1803.99 1313.37C1803.97 1313.56 1804 1313.76 1804.08 1313.93C1803.41 1314.51 1802.57 1314.86 1801.69 1314.93C1802.55 1314.35 1803.29 1313.61 1803.88 1312.76C1803.93 1312.69 1803.95 1312.6 1803.95 1312.52C1803.95 1312.43 1803.93 1312.34 1803.88 1312.27C1803.64 1312.03 1803.32 1311.89 1802.98 1311.87C1802.64 1311.84 1802.31 1311.93 1802.03 1312.13C1801.3 1312.56 1800.73 1313.24 1800.44 1314.04C1800.34 1314.26 1800.28 1314.5 1800.24 1314.74C1799.5 1315.08 1798.7 1315.26 1797.89 1315.27C1798.14 1315.05 1798.38 1314.81 1798.62 1314.58C1798.86 1314.35 1798.76 1313.86 1798.43 1313.82C1798.08 1313.81 1797.74 1313.92 1797.46 1314.14C1797.19 1314.35 1797 1314.66 1796.92 1315C1795.78 1316.02 1794.53 1316.92 1793.21 1317.69C1792.88 1317.88 1792.43 1318.26 1792.21 1318.02C1792.75 1317.62 1793.26 1317.17 1793.72 1316.68C1794.61 1315.74 1795.5 1314.06 1794.44 1313.48C1794.31 1313.42 1794.17 1313.4 1794.03 1313.44C1793.9 1313.47 1793.78 1313.55 1793.69 1313.66L1792.3 1315.51C1791.87 1316.02 1791.51 1316.57 1791.22 1317.17C1791.15 1317.36 1791.1 1317.55 1791.07 1317.75C1790.6 1318.05 1790.11 1318.31 1789.6 1318.52H1789.47L1790.29 1317.86C1790.68 1317.61 1791.02 1317.28 1791.28 1316.9C1791.53 1316.52 1791.71 1316.08 1791.8 1315.63C1791.78 1315.26 1791.68 1314.91 1791.51 1314.58C1791.33 1314.26 1791.09 1313.98 1790.8 1313.76C1790.67 1313.63 1790.35 1313.69 1790.16 1313.84C1788.69 1314.93 1787.55 1316.39 1786.85 1318.08C1786.75 1318.3 1786.7 1318.53 1786.7 1318.78C1786.7 1319.02 1786.75 1319.25 1786.85 1319.47C1785.52 1320.48 1784.18 1321.48 1782.85 1322.47C1782.71 1322.57 1782.36 1322.89 1782.22 1322.84C1782.08 1322.79 1782.14 1322.49 1782.14 1322.35C1782.14 1321.97 1782.16 1321.6 1782.2 1321.22C1782.31 1320.35 1782.52 1319.49 1782.82 1318.67C1783.09 1317.91 1783.43 1317.18 1783.82 1316.48C1783.92 1316.52 1784.02 1316.53 1784.12 1316.51C1784.22 1316.49 1784.32 1316.44 1784.39 1316.37C1784.85 1316.04 1785.22 1315.6 1785.47 1315.09C1785.72 1314.57 1785.84 1314.01 1785.82 1313.44C1785.82 1313.08 1785.21 1313.14 1784.94 1313.44C1782.42 1316.3 1780.94 1319.85 1781.05 1322.94C1781.05 1323.62 1781.39 1324.19 1782.3 1323.81C1782.72 1323.6 1783.12 1323.35 1783.49 1323.05L1784.96 1321.99C1785.89 1321.31 1786.81 1320.63 1787.72 1319.93C1788.28 1319.91 1788.83 1319.79 1789.34 1319.56C1789.99 1319.32 1790.62 1319.03 1791.22 1318.67C1791.32 1318.84 1791.47 1318.97 1791.65 1319.05C1791.83 1319.13 1792.03 1319.16 1792.22 1319.13C1792.81 1318.95 1793.37 1318.67 1793.87 1318.3C1794.41 1317.97 1794.96 1317.62 1795.48 1317.24C1796 1316.86 1796.48 1316.49 1796.97 1316.09C1797.08 1316.24 1797.27 1316.29 1797.6 1316.3C1798.07 1316.3 1798.53 1316.25 1798.99 1316.15C1799.51 1316.03 1800.01 1315.85 1800.49 1315.62C1800.57 1315.69 1800.65 1315.74 1800.74 1315.79C1801.4 1316 1802.11 1315.95 1802.74 1315.66C1803.42 1315.39 1804.07 1315.03 1804.65 1314.59C1804.82 1314.67 1805.01 1314.72 1805.2 1314.74C1806.27 1314.73 1807.31 1314.41 1808.2 1313.83C1808.92 1313.43 1808.7 1312.55 1808 1312.9V1312.9ZM1788.2 1317.49C1788.73 1316.49 1789.44 1315.6 1790.31 1314.87C1790.55 1315.06 1790.71 1315.35 1790.75 1315.65C1790.78 1315.96 1790.7 1316.27 1790.51 1316.52C1790.18 1316.89 1789.82 1317.23 1789.42 1317.52L1788.17 1318.52L1787.83 1318.77C1787.73 1318.44 1788.08 1317.8 1788.24 1317.49H1788.2ZM1793.89 1314.82C1793.65 1315.41 1793.28 1315.95 1792.8 1316.38L1792.59 1316.57C1793.01 1315.96 1793.45 1315.38 1793.93 1314.82H1793.89ZM1802.73 1312.82C1802.35 1313.28 1801.92 1313.69 1801.44 1314.04C1801.74 1313.45 1802.36 1312.78 1802.77 1312.81L1802.73 1312.82ZM1805.16 1312.82C1805.22 1312.71 1805.51 1312.39 1805.46 1312.61C1805.36 1312.8 1805.22 1312.98 1805.05 1313.12C1805.07 1313 1805.12 1312.88 1805.2 1312.79L1805.16 1312.82Z" fill="#365DA2"/>
<path d="M668.67 1796L692.27 1795.68C692.27 1795.68 656.78 1756.29 645.88 1736.25L615.88 1680.91L576.65 1690.61L626.44 1761.16L668.67 1796Z" fill="#E49963"/>
<path d="M447.26 719.05C438.21 713.9 427.36 713.34 419.78 713.79C421.78 711.79 425.58 711.04 425.58 711.04C420.87 710.34 410.38 715.04 410.38 715.04C345 689.8 334.67 786.12 336.05 808.5C337.43 830.88 314.05 838.19 280.05 855.82C215.11 889.46 209.41 934.51 209.41 934.51C209.91 934.797 210.44 935.13 211 935.51C214.23 930.05 220.86 919.8 226.45 918.26C226.24 918.75 219.84 932.37 217.45 940.17C236.6 954.74 272.45 987.03 297.45 1009.93C297.34 1005.45 297.52 999.1 299.15 995.75L302.24 1014.33C315.6 1026.62 324.82 1035.26 324.82 1035.26C323.17 1017.18 406.61 921.75 450.14 893.17C460.74 877.56 464.5 850 464.79 847.83C462.96 869.69 459.22 881.94 455.88 888.83C492.7 854.94 471.24 732.67 447.26 719.05V719.05Z" fill="#163560"/>
<path d="M447.52 894.61C447.74 894.71 426.52 905.73 410.52 901.36C395.52 897.27 385.68 877.78 385.88 877.74C392.25 876.48 394.08 867.74 393.95 830.16L396.82 830.72L445.19 840.3C445.19 840.3 444.09 855.52 444.06 869.86C444 881.9 444.77 893.32 447.52 894.61V894.61Z" fill="#E49963"/>
<path d="M392.83 734.82C392.83 734.82 416.69 709.42 446.64 733.52C446.64 733.52 429.21 730.51 392.83 734.82Z" fill="#E37970"/>
<path d="M445.2 840.3C445.2 840.3 444.1 855.52 444.07 869.86C417 869.1 402.7 844.41 396.83 830.72L445.2 840.3Z" fill="#D68D5D"/>
<path d="M391.84 825.46C391.84 825.46 377.65 803.05 374.25 783.88C371.82 770.2 378.79 719.49 429.75 726.79C440.012 728.215 449.824 731.927 458.46 737.65C469.53 745.12 485.46 761.25 467.64 805.51L463 820.51L391.84 825.46Z" fill="#163560"/>
<path d="M638 1716.9L612.37 1717.69L584.61 1718.54C584.61 1718.54 520.51 1647.17 484.55 1532.76C483.71 1530.09 482.827 1527.4 481.9 1524.69C462.22 1467.31 421.42 1395.28 399.9 1330.09C396.48 1319.71 393.41 1309.93 390.65 1300.68C389.77 1297.68 388.91 1294.81 388.09 1291.94C372.25 1236.94 367.66 1200.75 363.43 1162.14L500.71 1163.24C500.71 1163.24 543.73 1427.07 638 1716.9Z" fill="#80BDCC"/>
<path d="M496.94 1074.18C498.76 1148.03 507.77 1179.74 507.77 1179.74C507.77 1179.74 441.31 1213.51 362.31 1188.66C361.38 1188.36 367.43 883.49 389.84 875.09C394.99 881.5 410.35 887.74 424.01 887.44C439.75 887.09 444.85 880.35 444.01 873C460.8 882.33 494.33 968.44 496.94 1074.18V1074.18Z" fill="#E7F1FD"/>
<path d="M454.24 853.88C454.24 853.88 390.24 854.94 390.16 815.05C390.08 775.16 381.82 748.43 422.7 746.05C463.58 743.67 471.55 758.9 474.8 772.21C478.05 785.52 470.9 852.58 454.24 853.88V853.88Z" fill="#E49963"/>
<path d="M472.9 750.05C463.02 738.05 455.54 740.68 451.35 744.27C437.51 723.59 393.77 753.5 393.77 753.5C372.25 774 368.85 798.5 368.85 798.5C368.85 798.5 380.52 805.71 407.43 798.79C428.61 793.34 443.97 763.2 449.56 750.61C453.37 753.99 461.4 761.81 463.81 769.47C467 779.63 468.44 800.54 474.53 799.83C474.53 799.85 487.74 768 472.9 750.05V750.05Z" fill="#163560"/>
<path d="M711.93 920.08C711.93 920.08 720.93 887.55 756.72 892.14C760.83 893.43 772.82 898.21 765.16 911.05C759.5 920.52 757.06 915.64 748.16 928.36C739.26 941.08 729.63 944 718.6 942.43L711.93 920.08Z" fill="#E49963"/>
<path d="M406.26 1793.72C404.08 1781.72 399.94 1761.01 399.94 1761.01L400.94 1687.46H356.23L372.94 1757.86C373.858 1767.79 372.69 1777.8 369.51 1787.25C369.51 1787.25 365.22 1806.8 384.51 1807.16C403.8 1807.52 408.44 1805.71 406.26 1793.72V1793.72Z" fill="#E49963"/>
<path d="M369.51 1787.25C369.51 1787.25 365.7 1807.88 367.88 1817.69H408.32C408.32 1817.69 408.49 1795.29 404.95 1786.75C405 1786.75 391.3 1807.23 369.51 1787.25Z" fill="#C45446"/>
<path d="M692.66 1795.89C692.524 1795.83 692.393 1795.76 692.27 1795.68C682.82 1795.98 673.27 1792.51 664.69 1782.81C638.48 1753.27 623.69 1749.97 618.59 1749.99C614.17 1759.11 609.28 1769.36 615.59 1780.91L624.98 1817.69H635.1L635.2 1782.96C641.87 1784.72 648.38 1787.96 651.28 1793.71C658.36 1807.87 663.28 1817.71 669.85 1817.71H715.35C715.35 1817.71 714.45 1805.7 692.66 1795.89V1795.89Z" fill="#C45446"/>
<path d="M711.93 920.08C711.93 920.08 669.93 943.59 654.93 950.36C646.37 954.23 626.67 963.45 612.79 969.97C608.496 971.988 603.659 972.54 599.021 971.541C594.383 970.542 590.202 968.047 587.12 964.44C564.33 937.81 505.28 880.08 444.36 873L444.43 873.15L444 873C444 873 481.05 964.53 482.14 983C483.23 1001.47 486.53 1286 486.53 1286C486.53 1286 484.35 1299.08 509.41 1293.63C534.47 1288.18 541 1282.7 541 1282.7C541 1282.7 517 1107.27 523.57 1046.25C524.86 1034.25 523.68 1020.7 520.98 1006.74C558.1 1029.31 601.98 1039.35 601.98 1039.35C601.98 1039.35 634.82 1025.02 679.71 992.13C693.8 981.81 718.55 942.43 718.55 942.43L711.93 920.08Z" fill="#E37970"/>
<path d="M612.35 1717.69L584.59 1718.54C584.59 1718.54 520.49 1647.17 484.53 1532.76C483.69 1530.09 482.807 1527.4 481.88 1524.69C462.2 1467.31 421.4 1395.28 399.88 1330.09C396.46 1319.71 393.39 1309.93 390.63 1300.68C389.75 1297.68 388.89 1294.81 388.07 1291.94L411 1274.6C411 1274.6 479.64 1385.74 500.88 1490.33C519.29 1581.18 593.21 1690.5 612.35 1717.69Z" fill="#5F9AA8"/>
<path d="M539.47 1029.26L538.13 1033.41L466.28 1010.05C466.001 1009.7 465.812 1009.28 465.732 1008.83C465.652 1008.39 465.682 1007.93 465.82 1007.5C465.917 1007.08 466.144 1006.7 466.468 1006.41C466.793 1006.13 467.2 1005.95 467.63 1005.91L539.47 1029.26Z" fill="#163560"/>
<path d="M413.34 1500.07C413.73 1550.93 411.16 1667.87 404.53 1716.28H380C366.41 1716.28 359.64 1716.09 359.64 1716.09C343.02 1631.92 331.2 1562.27 322.64 1502.25C315.58 1453 309.3 1410.78 304.48 1374.43C299.62 1337.85 296.24 1307.22 295.03 1281.34C294.84 1277.27 294.7 1273.34 294.63 1269.46C294.56 1265.58 294.53 1261.83 294.56 1258.18L428.69 1245.1C426.9 1334.22 413.12 1470.51 413.34 1500.07V1500.07Z" fill="#80BDCC"/>
<path d="M380 1716.28C366.41 1716.28 359.64 1716.09 359.64 1716.09C343.02 1631.92 331.2 1562.27 322.64 1502.25C315.58 1453 309.3 1410.78 304.48 1374.43C299.62 1337.85 296.24 1307.22 295.03 1281.34L344.25 1310.34C344.25 1310.34 312.83 1321.43 324.82 1405.34C336.81 1489.25 363.27 1704.41 380 1716.28V1716.28Z" fill="#5F9AA8"/>
<path d="M386.29 1280.52C386.29 1280.52 376.84 1314.65 344.15 1310.29C311.46 1305.93 264.98 1286.29 264.98 1286.29C264.98 1286.29 278.98 1242.15 296.32 1184.16C317.32 1113.96 343.38 1023.46 355.65 966.37C359.09 950.37 361.44 937.02 362.31 927.45L389.84 875.06C389.84 875.06 429.84 965.59 432.05 988.47C434.26 1011.35 386.29 1280.52 386.29 1280.52Z" fill="#E37970"/>
<path d="M384.84 1036.44C383.38 1073.44 374.66 1145.44 296.94 1183.9C296.73 1184 296.52 1184.11 296.32 1184.19C317.32 1113.99 343.38 1023.49 355.65 966.4C369.92 987.74 385.63 1016 384.84 1036.44V1036.44Z" fill="#C45446"/>
<path d="M525.48 1016.18C525.48 1020.62 512.63 1051.58 490.06 1070.07C485.69 1073.65 482.19 1075.39 479.4 1075.87C442.65 1088.45 410.76 1094.98 384.87 1098.16V1057.16C416.87 1055.11 456.25 1052.97 472.47 1052.1C475.14 1047.85 478.27 1041.83 479.32 1035.75C481.26 1024.47 487.32 1016.11 503.03 1014.04C518.74 1011.97 525.52 1011.75 525.48 1016.18Z" fill="#E49963"/>
<path d="M742.73 881.63L815.39 928.88C815.891 929.348 816.269 929.932 816.491 930.581C816.712 931.23 816.77 931.923 816.66 932.6L781.66 1050.91C781.17 1052.57 779.48 1052.85 778.1 1051.81L707.65 999C706.83 998.39 706.23 997.71 706.51 996.73L738.61 883.47C739.07 881.9 741.33 880.72 742.73 881.63Z" fill="#163560"/>
<path d="M740.17 879.92L813.46 927.64C813.902 927.936 814.237 928.365 814.417 928.866C814.597 929.366 814.612 929.911 814.46 930.42L779.46 1048.73C779.347 1049.11 779.142 1049.47 778.863 1049.75C778.585 1050.04 778.24 1050.26 777.86 1050.38C777.48 1050.51 777.075 1050.54 776.679 1050.48C776.284 1050.41 775.91 1050.25 775.59 1050.01L705.17 997.23C704.77 996.931 704.469 996.518 704.309 996.045C704.148 995.572 704.134 995.061 704.27 994.58L736.37 881.33C736.472 880.946 736.664 880.592 736.931 880.298C737.198 880.004 737.532 879.778 737.905 879.64C738.277 879.502 738.677 879.455 739.071 879.504C739.466 879.553 739.842 879.695 740.17 879.92V879.92Z" fill="#1C468A"/>
<path d="M739.73 885.12L810.83 930.48L778.55 1034.63L711.54 986.14L739.73 885.12V885.12Z" fill="white"/>
<path d="M734.24 1012.29C734.24 1011.71 734.411 1011.15 734.731 1010.67C735.051 1010.19 735.506 1009.82 736.039 1009.6C736.571 1009.38 737.157 1009.32 737.721 1009.44C738.286 1009.55 738.805 1009.83 739.211 1010.24C739.618 1010.64 739.894 1011.16 740.005 1011.73C740.116 1012.29 740.057 1012.88 739.836 1013.41C739.614 1013.94 739.239 1014.4 738.759 1014.71C738.28 1015.03 737.716 1015.2 737.14 1015.2C736.758 1015.2 736.38 1015.12 736.028 1014.98C735.675 1014.83 735.355 1014.62 735.086 1014.35C734.816 1014.08 734.603 1013.76 734.458 1013.4C734.313 1013.05 734.239 1012.67 734.24 1012.29V1012.29Z" fill="#163560"/>
<path d="M763.81 1018.42L729.52 994.45L753.16 898.72L787.45 922.68L763.81 1018.42Z" fill="white"/>
<g opacity="0.5">
<path opacity="0.5" d="M770.65 962.68L747.93 946.8C747.772 946.604 747.666 946.371 747.622 946.122C747.578 945.874 747.598 945.619 747.68 945.38L747.78 944.98C747.93 944.4 748.28 944.08 748.56 944.28L771.27 960.16C771.433 960.354 771.542 960.587 771.586 960.836C771.629 961.086 771.607 961.342 771.52 961.58L771.43 961.97C771.28 962.56 770.93 962.88 770.65 962.68Z" fill="#699DEE"/>
<path opacity="0.5" d="M774.81 945.85L752.09 930C751.932 929.803 751.827 929.57 751.783 929.322C751.74 929.074 751.759 928.819 751.84 928.58L751.94 928.18C752.09 927.6 752.43 927.28 752.72 927.48L775.43 943.35C775.589 943.546 775.696 943.779 775.74 944.028C775.783 944.276 775.763 944.532 775.68 944.77L775.58 945.17C775.44 945.73 775.09 946 774.81 945.85V945.85Z" fill="#699DEE"/>
<path opacity="0.5" d="M773.36 951.69L750.65 935.82C750.491 935.624 750.384 935.391 750.34 935.142C750.297 934.894 750.317 934.638 750.4 934.4L750.5 934C750.64 933.41 750.99 933.1 751.27 933.29L774 949.17C774.158 949.367 774.263 949.6 774.307 949.848C774.351 950.096 774.331 950.351 774.25 950.59L774.15 950.99C774 951.57 773.65 951.89 773.36 951.69V951.69Z" fill="#699DEE"/>
<path opacity="0.5" d="M772 957.19L749.28 941.31C749.122 941.113 749.017 940.88 748.973 940.632C748.93 940.384 748.949 940.129 749.03 939.89L749.13 939.49C749.27 938.91 749.62 938.59 749.9 938.79L772.62 954.66C772.778 954.857 772.883 955.09 772.927 955.338C772.971 955.586 772.951 955.841 772.87 956.08L772.77 956.48C772.64 957.07 772.29 957.38 772 957.19Z" fill="#699DEE"/>
<path opacity="0.5" d="M767.89 973.88L745.17 958C745.012 957.803 744.907 957.57 744.863 957.322C744.82 957.074 744.839 956.819 744.92 956.58L745.02 956.18C745.16 955.6 745.51 955.28 745.79 955.47L768.51 971.35C768.668 971.547 768.773 971.78 768.817 972.028C768.861 972.276 768.841 972.531 768.76 972.77L768.66 973.17C768.52 973.75 768.17 974.07 767.89 973.88Z" fill="#699DEE"/>
<path opacity="0.5" d="M769.24 968.38L746.53 952.51C746.368 952.316 746.26 952.082 746.216 951.833C746.172 951.584 746.194 951.328 746.28 951.09L746.38 950.69C746.52 950.1 746.87 949.78 747.15 949.98L769.87 965.86C770.028 966.056 770.134 966.289 770.178 966.538C770.222 966.786 770.202 967.041 770.12 967.28L770.02 967.68C769.87 968.26 769.52 968.58 769.24 968.38Z" fill="#699DEE"/>
<path opacity="0.5" d="M763.53 991.07L758 987.21C757.81 986.979 757.682 986.704 757.63 986.409C757.577 986.115 757.601 985.812 757.7 985.53C757.87 984.83 758.29 984.46 758.62 984.69L764.14 988.55C764.328 988.782 764.455 989.057 764.507 989.351C764.56 989.645 764.537 989.947 764.44 990.23C764.27 990.93 763.86 991.3 763.53 991.07Z" fill="#699DEE"/>
<path opacity="0.5" d="M746.62 979.26L741.11 975.4C740.919 975.168 740.791 974.89 740.739 974.594C740.686 974.298 740.711 973.994 740.81 973.71C740.98 973.02 741.4 972.64 741.73 972.88L747.25 976.73C747.438 976.964 747.563 977.242 747.613 977.538C747.664 977.833 747.639 978.137 747.54 978.42C747.37 979.11 747 979.49 746.62 979.26Z" fill="#699DEE"/>
</g>
<path d="M762.13 1005.9C762.025 1005.9 761.922 1005.87 761.84 1005.8L753.79 1000.18C753.542 999.878 753.375 999.517 753.305 999.132C753.235 998.747 753.264 998.35 753.39 997.98L754.58 993.14C754.76 992.43 755.14 991.95 755.58 991.95C755.688 991.951 755.793 991.986 755.88 992.05L763.88 997.67C764.128 997.974 764.295 998.337 764.365 998.723C764.435 999.11 764.406 999.508 764.28 999.88L763.09 1004.71C762.91 1005.42 762.52 1005.9 762.13 1005.9ZM755.54 992.05C755.2 992.05 754.84 992.51 754.68 993.17L753.49 998C753.369 998.352 753.339 998.729 753.402 999.096C753.464 999.463 753.619 999.808 753.85 1000.1L761.85 1005.72C761.921 1005.77 762.004 1005.8 762.09 1005.8C762.43 1005.8 762.79 1005.34 762.95 1004.68L764.14 999.85C764.26 999.498 764.29 999.121 764.227 998.754C764.164 998.387 764.01 998.042 763.78 997.75L755.78 992.13C755.709 992.081 755.626 992.054 755.54 992.05Z" fill="#476BA7"/>
<path d="M745.2 994.07C745.092 994.069 744.987 994.034 744.9 993.97L736.9 988.35C736.649 988.047 736.481 987.685 736.41 987.297C736.34 986.91 736.371 986.512 736.5 986.14L737.69 981.31C737.87 980.6 738.25 980.12 738.69 980.12C738.793 980.12 738.894 980.152 738.98 980.21L747.03 985.84C747.278 986.142 747.445 986.503 747.515 986.888C747.585 987.273 747.556 987.67 747.43 988.04L746.23 992.87C746 993.59 745.59 994.07 745.2 994.07ZM738.61 980.22C738.27 980.22 737.91 980.68 737.75 981.34L736.56 986.17C736.441 986.522 736.411 986.898 736.472 987.264C736.533 987.63 736.684 987.976 736.91 988.27L744.96 993.89C745.031 993.939 745.114 993.966 745.2 993.97C745.54 993.97 745.89 993.51 746.06 992.85L747.25 988.02C747.371 987.668 747.401 987.291 747.338 986.924C747.275 986.557 747.121 986.212 746.89 985.92L738.89 980.3C738.851 980.269 738.806 980.246 738.758 980.232C738.71 980.218 738.66 980.214 738.61 980.22V980.22Z" fill="#476BA7"/>
<path d="M755.67 911.94C756.1 910.21 757.07 909.23 757.98 909.86C758.499 910.313 758.819 910.953 758.87 911.64L758.25 912.3C758.22 911.837 758.012 911.404 757.67 911.09C757.17 910.75 756.61 911.35 756.34 912.41C756.07 913.47 756.22 914.57 756.72 914.92C757.06 915.15 757.33 915.02 757.67 914.74L757.85 915.94C757.771 916.052 757.67 916.147 757.553 916.219C757.435 916.29 757.305 916.337 757.169 916.356C757.032 916.374 756.894 916.365 756.762 916.328C756.63 916.291 756.506 916.227 756.4 916.14C755.53 915.54 755.23 913.71 755.67 911.94V911.94Z" fill="#476BA7"/>
<path d="M758.68 914C759.1 912.27 760.11 911.31 761.02 911.94C761.93 912.57 762.22 914.43 761.79 916.18C761.36 917.93 760.36 918.87 759.45 918.24C758.54 917.61 758.24 915.79 758.68 914ZM761.12 915.71C761.275 915.286 761.317 914.83 761.243 914.385C761.17 913.94 760.983 913.521 760.7 913.17C760.18 912.81 759.61 913.41 759.35 914.47C759.195 914.894 759.153 915.35 759.227 915.795C759.3 916.24 759.487 916.659 759.77 917.01C760.29 917.41 760.86 916.81 761.12 915.75V915.71Z" fill="#476BA7"/>
<path d="M763.12 913.58L763.71 913.99L764.16 918.7L765.09 914.95L765.72 915.4L764.22 921.48L763.67 921.1L763.21 916.24L762.21 920.11L761.57 919.66L763.12 913.58Z" fill="#476BA7"/>
<path d="M766.8 917.6L765.91 916.98L766.22 915.74L768.65 917.44L768.34 918.67L767.45 918.05L766.25 922.9L765.61 922.45L766.8 917.6Z" fill="#476BA7"/>
<path d="M769.14 917.79L770.48 918.72C770.673 918.866 770.835 919.049 770.955 919.258C771.075 919.468 771.152 919.7 771.18 919.94C771.256 920.467 771.225 921.005 771.09 921.52C770.84 922.52 770.44 922.94 769.99 922.97L770.17 925.64L769.42 925.12L769.26 922.72L768.76 922.38L768.28 924.32L767.64 923.87L769.14 917.79ZM769.71 921.65C770.02 921.87 770.29 921.65 770.42 921.12C770.504 920.91 770.521 920.679 770.469 920.459C770.417 920.239 770.299 920.04 770.13 919.89L769.49 919.44L769.06 921.19L769.71 921.65Z" fill="#476BA7"/>
<path d="M773.18 920.56L773.78 920.98L773.52 927.98L772.85 927.5L772.92 925.95L771.68 925.09L771.07 926.26L770.41 925.8L773.18 920.56ZM772.98 924.62L773.08 922.37L772.2 924.07L772.98 924.62Z" fill="#476BA7"/>
<path d="M774.41 925C774.84 923.26 775.81 922.29 776.71 922.92C776.972 923.14 777.187 923.411 777.34 923.718C777.493 924.024 777.581 924.358 777.6 924.7L776.99 925.35C776.976 925.121 776.916 924.897 776.815 924.691C776.714 924.485 776.573 924.301 776.4 924.15C775.91 923.8 775.34 924.41 775.08 925.47C774.82 926.53 774.96 927.62 775.46 927.97C775.79 928.21 776.07 928.07 776.41 927.8L776.59 929C776.51 929.113 776.408 929.208 776.289 929.28C776.171 929.351 776.039 929.398 775.902 929.415C775.765 929.433 775.625 929.423 775.492 929.384C775.359 929.345 775.236 929.279 775.13 929.19C774.27 928.63 774 926.8 774.41 925V925Z" fill="#476BA7"/>
<path d="M778.76 926L777.87 925.38L778.17 924.15L780.6 925.84L780.29 927.08L779.4 926.45L778.2 931.31L777.56 930.86L778.76 926Z" fill="#476BA7"/>
<path d="M764.76 997.51C763.395 997.829 762.057 998.257 760.76 998.79C760.84 998.51 760.9 998.23 760.97 997.94C761.04 997.65 760.88 997.45 760.77 997.66L760.62 997.92C760.62 997.72 760.56 997.51 760.45 997.61C760.52 997.34 760.32 997.15 760.22 997.39L760.07 997.75C760.034 997.831 759.977 997.902 759.905 997.955C759.833 998.007 759.749 998.04 759.66 998.05C759.65 997.883 759.65 997.716 759.66 997.55C759.665 997.502 759.661 997.453 759.648 997.407C759.634 997.36 759.611 997.317 759.58 997.28C759.58 997.13 759.58 997 759.44 997.03C759.308 997.081 759.198 997.176 759.13 997.3C759.13 997 758.88 997.05 758.76 997.23C758.83 997.03 758.76 996.69 758.62 996.85C758.331 997.196 758.132 997.608 758.04 998.05C757.966 998.181 757.876 998.303 757.77 998.41C757.77 998.47 757.51 998.73 757.47 998.67C757.438 998.518 757.438 998.362 757.47 998.21V998.16C757.66 997.77 758.6 995.95 758.07 995.61C758.01 995.61 757.95 995.61 757.91 995.71C757.647 996.295 757.443 996.905 757.3 997.53C757.3 997.66 757.24 997.82 757.2 997.99V998.1C756.94 998.58 756.57 999.29 756.2 999.37C756.298 998.352 756.499 997.347 756.8 996.37L757.13 995.18H757.21C757.444 994.863 757.612 994.502 757.707 994.12C757.801 993.737 757.819 993.34 757.76 992.95C757.76 992.71 757.57 992.79 757.51 992.95C757.15 994.08 756.82 995.23 756.51 996.4C756.176 997.454 755.978 998.546 755.92 999.65C755.92 999.77 755.92 999.85 756.03 999.86C756.43 999.94 756.83 999.38 757.17 998.78C757.171 998.882 757.199 998.982 757.25 999.07C757.42 999.32 757.71 999.07 757.91 998.77V999.18C757.91 999.33 757.98 999.4 758.06 999.39C758.268 999.32 758.447 999.183 758.57 999C758.76 999 758.93 998.78 759.09 998.48C759.191 998.369 759.281 998.248 759.36 998.12C759.354 998.223 759.354 998.327 759.36 998.43C759.36 998.65 759.59 998.6 759.71 998.57C759.83 998.519 759.937 998.441 760.02 998.34C760.051 998.355 760.085 998.363 760.12 998.363C760.155 998.363 760.189 998.355 760.22 998.34C760.215 998.39 760.215 998.44 760.22 998.49C760.22 998.63 760.35 998.65 760.44 998.59C760.44 998.69 760.39 998.79 760.36 998.89L759.78 999.14C759.66 999.2 759.6 999.59 759.78 999.66L760.27 999.91C760.34 999.91 760.41 999.91 760.45 999.74L760.57 999.35C761.904 998.791 763.282 998.343 764.69 998.01C765 998 764.93 997.47 764.76 997.51V997.51ZM758.82 997.86L758.76 998.07V998.2C758.774 998.086 758.794 997.972 758.82 997.86V997.86ZM758.41 998.31C758.386 998.449 758.386 998.591 758.41 998.73C758.368 998.769 758.321 998.802 758.27 998.83C758.28 998.659 758.3 998.489 758.33 998.32C758.401 998.204 758.465 998.084 758.52 997.96C758.45 998.08 758.43 998.2 758.41 998.31Z" fill="#365DA2"/>
<path d="M742.55 980.17C741.96 981.72 741.55 983.45 741.07 985.08C740.842 985.85 740.558 986.602 740.22 987.33C739.99 987.8 739.48 988.83 739.17 988.33C739.102 988.163 739.102 987.977 739.17 987.81V987.68C739.175 987.698 739.184 987.715 739.197 987.729C739.209 987.743 739.225 987.754 739.242 987.76C739.26 987.767 739.279 987.77 739.297 987.768C739.316 987.766 739.334 987.76 739.35 987.75C739.498 987.634 739.603 987.472 739.65 987.29C739.725 987.076 739.725 986.844 739.65 986.63C739.58 986.48 739.46 986.48 739.36 986.63C739.256 986.819 739.179 987.02 739.13 987.23C739.03 987.494 738.966 987.769 738.94 988.05C738.94 988.48 739.11 988.78 739.31 988.81C739.51 988.84 739.81 988.53 740 988.2C740.242 987.793 740.452 987.369 740.63 986.93C741.024 985.951 741.358 984.949 741.63 983.93C741.96 982.74 742.28 981.52 742.7 980.4C742.74 980.17 742.61 980 742.55 980.17V980.17ZM739.55 986.95C739.541 987.078 739.499 987.202 739.43 987.31C739.415 987.34 739.395 987.367 739.37 987.39C739.377 987.36 739.377 987.33 739.37 987.3C739.391 987.215 739.417 987.131 739.45 987.05C739.38 987 739.52 986.65 739.53 987L739.55 986.95Z" fill="#365DA2"/>
<path d="M745 988C744.913 988.063 744.806 988.092 744.7 988.08H744.63C744.721 987.963 744.783 987.826 744.81 987.68C744.81 987.43 744.72 987.28 744.6 987.34C744.536 987.398 744.484 987.469 744.448 987.548C744.412 987.627 744.392 987.713 744.39 987.8C744.38 987.866 744.38 987.934 744.39 988C744.28 988.09 744.1 988.19 744.01 988.08C744.171 987.939 744.301 987.765 744.39 987.57C744.405 987.514 744.405 987.456 744.39 987.4C744.39 987.2 744.24 987.11 744.12 987.16C744 987.21 743.9 987.43 743.83 987.65C743.809 987.722 743.792 987.796 743.78 987.87C743.72 987.89 743.655 987.895 743.593 987.885C743.53 987.874 743.471 987.849 743.42 987.81C743.46 987.754 743.504 987.701 743.55 987.65C743.578 987.609 743.593 987.56 743.593 987.51C743.593 987.46 743.578 987.411 743.55 987.37C743.44 987.26 743.34 987.42 743.29 987.62C743.114 987.83 742.905 988.009 742.67 988.15C742.61 988.15 742.53 988.27 742.51 988.15C742.609 988.062 742.696 987.961 742.77 987.85C742.874 987.708 742.945 987.544 742.979 987.372C743.014 987.199 743.011 987.021 742.97 986.85C742.97 986.79 742.89 986.76 742.85 986.85L742.59 987.34C742.508 987.486 742.441 987.64 742.39 987.8C742.385 987.86 742.385 987.92 742.39 987.98C742.316 988.029 742.235 988.066 742.15 988.09L742.29 987.94C742.453 987.781 742.553 987.567 742.57 987.34C742.589 987.09 742.558 986.838 742.48 986.6C742.48 986.54 742.41 986.53 742.38 986.6C742.082 986.91 741.872 987.293 741.77 987.71C741.741 987.865 741.741 988.025 741.77 988.18C741.54 988.39 741.32 988.59 741.09 988.78C741.09 988.78 741.01 988.87 740.99 988.84C740.975 988.781 740.975 988.719 740.99 988.66V988.28C741.027 988.007 741.08 987.736 741.15 987.47C741.206 987.252 741.277 987.039 741.36 986.83C741.364 986.838 741.37 986.846 741.378 986.851C741.386 986.856 741.396 986.858 741.405 986.858C741.414 986.858 741.424 986.856 741.432 986.851C741.44 986.846 741.446 986.838 741.45 986.83C741.644 986.586 741.746 986.282 741.74 985.97C741.74 985.84 741.66 985.8 741.61 985.88C741.111 986.751 740.823 987.727 740.77 988.73C740.77 988.97 740.77 989.2 740.94 989.16C741.014 989.131 741.08 989.082 741.13 989.02C741.218 988.955 741.301 988.885 741.38 988.81C741.54 988.68 741.69 988.54 741.85 988.39C741.886 988.415 741.927 988.432 741.97 988.441C742.013 988.45 742.057 988.449 742.1 988.44C742.207 988.422 742.31 988.381 742.4 988.32C742.401 988.373 742.414 988.425 742.438 988.471C742.462 988.518 742.497 988.559 742.54 988.59C742.61 988.59 742.73 988.52 742.8 988.47C742.898 988.418 742.988 988.354 743.07 988.28C743.16 988.21 743.24 988.12 743.33 988.04C743.334 988.067 743.344 988.093 743.36 988.115C743.376 988.138 743.396 988.157 743.42 988.17C743.481 988.219 743.553 988.253 743.63 988.27C743.705 988.29 743.785 988.29 743.86 988.27C743.856 988.3 743.856 988.33 743.86 988.36C743.884 988.417 743.927 988.464 743.982 988.493C744.036 988.522 744.099 988.532 744.16 988.52C744.28 988.502 744.39 988.442 744.47 988.35C744.492 988.39 744.519 988.427 744.55 988.46C744.69 988.6 744.86 988.53 745.02 988.46C745.18 988.39 745.09 987.93 745 988V988ZM741.93 987.52C742.013 987.272 742.142 987.041 742.31 986.84C742.38 987.031 742.38 987.239 742.31 987.43C742.257 987.509 742.193 987.579 742.12 987.64L741.91 987.85L741.85 987.91C741.845 987.771 741.866 987.632 741.91 987.5L741.93 987.52ZM742.85 987.19C742.811 987.346 742.739 987.493 742.64 987.62C742.66 987.48 742.75 987.32 742.83 987.17L742.85 987.19ZM744.22 987.43C744.159 987.535 744.081 987.63 743.99 987.71C744 987.52 744.14 987.35 744.2 987.41L744.22 987.43ZM744.58 987.67C744.58 987.67 744.64 987.56 744.63 987.67C744.611 987.715 744.587 987.759 744.56 987.8C744.547 987.751 744.547 987.699 744.56 987.65L744.58 987.67Z" fill="#365DA2"/>
<path d="M544.64 1033.26L539.47 1029.26L538.13 1033.41L544.64 1033.26Z" fill="#163560"/>
<path d="M389.84 875.09C389.84 875.09 323.09 879.54 307.11 915.09C291.13 950.64 286.04 1069.09 306.38 1103.96C306.38 1103.96 334.38 1111.96 383.91 1102.67L385.74 1102.32C385.74 1102.32 401.54 1063.64 387.38 1056.02C387.38 1056.02 345.61 1058.19 349.97 1044.39C354.33 1030.59 389.84 875.09 389.84 875.09V875.09Z" fill="#E37970"/>
<path d="M1990.91 1770C1990.91 1770 1993.76 1817.09 1985.18 1817.77C1984.04 1817.86 1941.67 1817.86 1941.67 1817.86L1887.59 1817.52C1887.59 1817.52 1887.94 1803.52 1903.75 1800.52C1919.56 1797.52 1947.33 1786.71 1952.03 1762.52C1956.73 1738.33 1990.91 1770 1990.91 1770V1770Z" fill="#163560"/>
<path d="M1887.93 1770C1887.93 1770 1890.78 1817.09 1882.2 1817.77C1881.06 1817.86 1838.69 1817.86 1838.69 1817.86L1784.61 1817.52C1784.61 1817.52 1784.96 1803.52 1800.77 1800.52C1816.58 1797.52 1844.35 1786.71 1849.05 1762.52C1853.75 1738.33 1887.93 1770 1887.93 1770V1770Z" fill="#163560"/>
<path d="M2113.87 1428.7L2161.26 1445.04C2161.26 1445.04 2191.42 1383.65 2198.77 1375.31C2207.15 1365.8 2213.17 1292.6 2216.96 1226.4C2220.27 1168.5 2221.89 1115.94 2221.89 1115.94C2221.89 1115.94 2205.76 1119.61 2195.22 1146.85C2177.22 1193.54 2177.3 1284.71 2167.22 1331.72C2161.47 1358.79 2123.63 1424.85 2113.87 1428.7V1428.7Z" fill="#699DEE"/>
<path d="M2161.26 1445C2179.33 1424 2191.42 1383.61 2198.77 1375.27C2207.15 1365.76 2246.77 1311.71 2209.77 1226.72C2191.61 1280.47 2206.77 1309.72 2201.06 1341.49C2195.37 1373 2162.91 1424 2161.26 1445Z" fill="#3B76CA"/>
<path d="M2298.11 1797C2298.11 1797 2302.54 1800.94 2313.04 1800.94C2324.94 1800.94 2327.97 1797 2327.97 1797V1629.9H2298.11V1797Z" fill="#D86713"/>
<path d="M2133.79 1562C2133.79 1562.12 2133.79 1562.25 2133.84 1562.38C2134.8 1569.37 2136.23 1576.28 2138.12 1583.08C2140.86 1593.34 2144.92 1603.21 2150.19 1612.43C2166.37 1639.71 2197.04 1670.07 2270.59 1679.98C2274.15 1680.45 2277.83 1680.9 2281.59 1681.28C2288.45 1681.98 2295.67 1682.5 2303.24 1682.85H2304.69C2305.17 1682.85 2305.69 1682.85 2306.14 1682.9C2327.53 1682.37 2351.47 1678.45 2378.14 1672.11C2432.94 1659.11 2468.64 1632.35 2491.22 1599.79C2493.13 1597.02 2494.95 1594.22 2496.7 1591.38C2501.15 1584.05 2505.07 1576.41 2508.44 1568.52C2520.98 1539.23 2525.78 1507.66 2526.23 1478.38C2525.9 1454.51 2522.7 1430.77 2516.7 1407.67C2513.09 1393.87 2507.2 1380.76 2499.28 1368.89C2497.22 1365.82 2495 1362.86 2492.62 1360.03C2485.07 1350.88 2475.92 1343.17 2465.62 1337.27C2439.44 1322.35 2353.35 1307.49 2280.42 1345.98C2146.19 1416.81 2126 1504.31 2133.79 1562Z" fill="#E57970"/>
<path d="M2156.35 1621.84C2177.76 1646.76 2197.04 1672.29 2270.59 1680.47C2274.15 1680.86 2277.83 1681.23 2281.59 1681.53C2288.45 1682.12 2295.67 1682.53 2303.24 1682.83H2304.69C2305.14 1682.83 2305.69 1682.83 2306.14 1682.88C2327.53 1682.35 2351.47 1678.43 2378.14 1672.09C2432.94 1659.09 2468.64 1632.33 2491.22 1599.77C2493.13 1597 2494.95 1594.2 2496.7 1591.36C2455.12 1581.44 2366.32 1564.05 2278.09 1571.15C2230.23 1575.01 2180.58 1579.27 2138.09 1583.02C2136.69 1583.17 2149.29 1613.63 2156.35 1621.84V1621.84Z" fill="#C65447"/>
<path d="M2408.17 1184.9C2407.5 1182.08 2406.77 1179.3 2405.98 1176.57C2395.47 1139.39 2378.34 1112.44 2351.42 1108.02C2348.05 1117.22 2315.1 1132.5 2286.26 1131.02C2283.08 1130.86 2278.39 1126.54 2278.33 1126.52C2255.56 1123.31 2244.73 1111.11 2245.8 1109.46C2244.8 1109.54 2221.89 1115.97 2221.89 1115.97C2201.97 1203.07 2199.59 1251.47 2223.56 1375.69C2232.31 1421.06 2218.93 1445.69 2221.89 1448.69C2227.08 1453.89 2284.46 1455.38 2330.59 1457.17C2336.12 1457.37 2341.59 1457.57 2346.91 1457.74C2380.64 1458.85 2408.41 1459.24 2408.41 1459.24C2410.7 1456.38 2414.92 1430.06 2417.79 1392.99C2422.4 1333.77 2423.61 1247.19 2408.17 1184.9V1184.9Z" fill="#699DEE"/>
<path d="M2335.58 1112.21L2308.16 1134.93L2266.39 1128.48C2266.78 1124.48 2268.86 1107.02 2270.65 1092.15C2272.12 1080 2273.4 1069.57 2273.4 1069.57L2323.29 1049.57L2324.79 1048.97V1049.72C2324.65 1051.72 2324.56 1053.67 2324.52 1055.58C2323.63 1089.72 2335.58 1112.21 2335.58 1112.21V1112.21Z" fill="#E49963"/>
<path d="M2220.44 1581.39C2080.82 1591.39 2037.36 1589.6 2032.44 1596.31C2001.61 1638.55 1998.5 1645.84 1935.98 1730.47C1924.05 1746.62 1909.98 1765.57 1893.1 1788.13H1827.82C1827.82 1788.13 1898.25 1653.75 1954.56 1562.71C1976.78 1526.77 1996.81 1497.59 2009.44 1486.09C2053.07 1446.32 2226.91 1447.24 2226.91 1447.24C2226.91 1447.24 2377.85 1443.59 2389.73 1465.95C2392.33 1470.81 2325.56 1573.82 2220.44 1581.39V1581.39Z" fill="#1C468A"/>
<path d="M2220.44 1581.39C2080.82 1591.39 2037.36 1589.6 2032.44 1596.31C2001.61 1638.55 1998.5 1645.84 1935.98 1730.47L1954.56 1562.71C1976.78 1526.77 1996.81 1497.59 2009.44 1486.09C2053.07 1446.32 2226.91 1447.24 2226.91 1447.24C2226.91 1447.24 2377.85 1443.59 2389.73 1465.95C2392.33 1470.81 2325.56 1573.82 2220.44 1581.39V1581.39Z" fill="#163560"/>
<path d="M2300.64 1131.54L2273.16 1128.62C2273.16 1128.62 2269.72 1129.38 2270.38 1133.71C2271.04 1138.04 2280.1 1149.71 2283.52 1150.34C2286.94 1150.97 2308.08 1139.5 2300.64 1131.54V1131.54Z" fill="#365DA4"/>
<path d="M2402.65 1489.14C2402.65 1489.14 2398 1573.69 2292.87 1581.24C2153.25 1591.24 2124.45 1587.96 2115.32 1596.5C2070.43 1638.5 2100.1 1647.35 1994.88 1788.13H1928.8C1928.8 1788.13 2009.46 1521 2046 1489C2090.36 1450.18 2271.59 1447.25 2271.59 1447.25C2271.59 1447.25 2392.38 1437.95 2404.26 1460.31C2406.83 1465.16 2402.65 1489.14 2402.65 1489.14V1489.14Z" fill="#1C468A"/>
<path d="M2270.58 1680C2270.58 1680.42 2285.06 1682.5 2292.97 1682.85C2296.17 1683 2299.41 1683.05 2302.73 1683.02H2306.15C2327.54 1682.48 2351.48 1678.56 2378.15 1672.23C2449.73 1655.23 2488.72 1614.77 2508.45 1568.62C2520.99 1539.33 2525.79 1507.76 2526.24 1478.48C2525.91 1454.61 2522.72 1430.87 2516.72 1407.77C2513.11 1393.97 2507.22 1380.86 2499.3 1368.99C2497.75 1366.68 2496.1 1364.43 2494.35 1362.26C2493.8 1361.54 2493.22 1360.84 2492.64 1360.14C2443.35 1411.62 2294.31 1575.61 2270.58 1680V1680Z" fill="#E57970"/>
<path d="M2274.32 1680C2274.32 1680.42 2288.8 1682.5 2296.71 1682.85C2298.71 1682.95 2300.71 1683 2302.71 1683.02H2306.13C2327.52 1682.48 2351.46 1678.56 2378.13 1672.23C2449.71 1655.23 2488.7 1614.77 2508.43 1568.62C2520.97 1539.33 2525.77 1507.76 2526.22 1478.48C2525.89 1454.61 2522.7 1430.87 2516.7 1407.77C2513.09 1393.97 2507.2 1380.86 2499.28 1368.99C2497.73 1366.68 2496.08 1364.43 2494.33 1362.26C2443.15 1416 2297.74 1577 2274.32 1680Z" fill="#E57970"/>
<path d="M2269.63 1100.71C2269.63 1100.71 2274.2 1121.13 2286.26 1131L2267.66 1155.19C2267.66 1155.19 2245.13 1128.53 2245.79 1109.44C2245.79 1109.44 2263.66 1101.42 2269.63 1100.71V1100.71Z" fill="#3B76CA"/>
<path d="M2269.63 1100.71C2269.63 1100.71 2273.11 1119.93 2285.17 1129.81L2267.3 1151.81C2267.3 1151.81 2247.69 1129.02 2245.79 1109.45C2245.79 1109.44 2263.66 1101.42 2269.63 1100.71Z" fill="#699DEE"/>
<path d="M2332.21 1100.71C2332.21 1100.71 2303.77 1127.71 2285.21 1129.81L2297.94 1161.58C2297.94 1161.58 2353.34 1128.76 2353.5 1109.1C2353.46 1109.1 2338.21 1100.89 2332.21 1100.71V1100.71Z" fill="#3B76CA"/>
<path d="M2330.18 1099.63C2330.18 1099.63 2303.77 1127.63 2285.18 1129.81L2295.48 1159.09C2295.48 1159.09 2351.28 1127.68 2351.48 1108.02C2351.43 1108 2336.18 1099.81 2330.18 1099.63Z" fill="#699DEE"/>
<path d="M2417.79 1393C2414.92 1430.07 2415.69 1449.44 2404.25 1460.34C2404.25 1460.34 2381.09 1469.05 2346.91 1457.75C2335.24 1451.75 2326.13 1443.59 2321.62 1432.37C2299.1 1376.44 2341.96 1329.95 2344.14 1292.9C2346.32 1255.85 2380.28 1228.79 2380.28 1228.79C2380.28 1228.79 2422.4 1333.77 2417.79 1393Z" fill="#3B76CA"/>
<path d="M2287.77 1147.12C2287.77 1147.12 2292.98 1196.27 2293.9 1212.72C2296.51 1258.98 2297.46 1398.01 2297.46 1398.01C2297.46 1398.01 2298.83 1410.15 2290.73 1419.83C2285.73 1425.77 2280.18 1431.23 2274.17 1436.14C2274.17 1436.14 2262.28 1425.74 2257.56 1406.2C2254.43 1393.2 2261.96 1284.02 2269.56 1211.3C2271.83 1189.42 2275.22 1167.67 2279.69 1146.13C2279.69 1146.13 2285.89 1145.05 2287.77 1147.12V1147.12Z" fill="#365DA4"/>
<path d="M2482 1817.69H2155.39C2170.94 1783.69 2238.15 1758.12 2318.71 1758.12C2399.27 1758.12 2466.49 1783.69 2482 1817.69Z" fill="#F1A34F"/>
<path d="M2314 1400.37C2314 1400.37 2291.85 1406.18 2284.58 1410.17C2277.31 1414.16 2262.74 1433.33 2266.01 1436.33C2282.42 1451.33 2284.95 1434.69 2305.1 1429.24C2308.76 1428.24 2325.62 1409.45 2325.62 1409.45L2314 1400.37Z" fill="#E49963"/>
<path d="M2295.98 1446.73L2262.72 1331.72H2072.64L2106.96 1451.4H2356.49V1446.73H2295.98Z" fill="#C65447"/>
<path d="M2167.41 1389.62C2166.21 1385.41 2168.64 1382 2172.84 1382C2177.04 1382 2181.44 1385.41 2182.65 1389.62C2183.86 1393.83 2181.42 1397.23 2177.21 1397.23C2173 1397.23 2168.62 1393.82 2167.41 1389.62V1389.62Z" fill="#F1A34F"/>
<path d="M2351.43 1108C2351.43 1108 2389.17 1114.14 2408.06 1133.76C2426.95 1153.38 2458.91 1313.91 2450.92 1336.42C2442.93 1358.93 2379.01 1404.71 2333.24 1423.59C2333.24 1423.59 2310.72 1413.42 2309.24 1395.99C2309.24 1395.99 2386.97 1330.61 2390.6 1313.18C2394.23 1295.75 2351.43 1108 2351.43 1108Z" fill="#699DEE"/>
<path d="M2324.75 1049.76C2324.61 1051.76 2324.52 1053.71 2324.48 1055.62C2314.82 1066.03 2292.13 1088.22 2270.65 1092.15C2272.12 1080 2273.4 1069.57 2273.4 1069.57L2323.29 1049.57L2324.75 1049.76Z" fill="#D68D5D"/>
<path d="M2268.19 1073.59C2268.19 1073.59 2328.03 1076.32 2329.19 1039.04C2330.35 1001.76 2338.81 977.04 2300.65 973.67C2262.49 970.3 2254.65 984.35 2251.24 996.67C2247.83 1008.99 2252.66 1071.92 2268.19 1073.59Z" fill="#E49963"/>
<path d="M2329.15 1039C2329.15 1039 2324.68 989.24 2271.38 991C2218.08 992.76 2241.14 942.37 2286.94 934.94C2286.94 934.94 2282.16 952.7 2310.94 955.51C2371.44 961.47 2334.53 1031.14 2329.15 1039Z" fill="#1C468A"/>
<path d="M1468.81 1513.15C1472.56 1493.89 1491.2 1478.28 1510.46 1478.28C1529.72 1478.28 1542.29 1493.89 1538.55 1513.15C1534.81 1532.41 1516.16 1548 1496.9 1548C1477.64 1548 1465.07 1532.4 1468.81 1513.15Z" fill="#D86713"/>
</svg>
