<svg width="140" height="140" viewBox="0 0 140 140" fill="none" xmlns="http://www.w3.org/2000/svg">
<path d="M126.483 26.25H13.5172C11.7888 26.25 10.1311 26.9366 8.90886 28.1589C7.68664 29.3811 7 31.0388 7 32.7672V106.629C7 108.358 7.68664 110.015 8.90886 111.238C10.1311 112.46 11.7888 113.147 13.5172 113.147H126.483C128.211 113.147 129.869 112.46 131.091 111.238C132.313 110.015 133 108.358 133 106.629V32.7672C133 31.0388 132.313 29.3811 131.091 28.1589C129.869 26.9366 128.211 26.25 126.483 26.25ZM11.3448 47.9741H128.655V52.319H11.3448V47.9741ZM13.5172 30.5948H126.483C127.059 30.5948 127.611 30.8237 128.019 31.2311C128.426 31.6385 128.655 32.1911 128.655 32.7672V43.6293H11.3448V32.7672C11.3448 32.1911 11.5737 31.6385 11.9811 31.2311C12.3885 30.8237 12.9411 30.5948 13.5172 30.5948ZM126.483 108.802H13.5172C12.9411 108.802 12.3885 108.573 11.9811 108.165C11.5737 107.758 11.3448 107.205 11.3448 106.629V56.6638H128.655V106.629C128.655 107.205 128.426 107.758 128.019 108.165C127.611 108.573 127.059 108.802 126.483 108.802Z" fill="currentColor"/>
<path d="M48.8766 84.9041H22.8077C22.2315 84.9041 21.6789 85.1329 21.2715 85.5403C20.8641 85.9477 20.6353 86.5003 20.6353 87.0765C20.6353 87.6526 20.8641 88.2052 21.2715 88.6126C21.6789 89.02 22.2315 89.2489 22.8077 89.2489H48.8766C49.4528 89.2489 50.0054 89.02 50.4128 88.6126C50.8202 88.2052 51.049 87.6526 51.049 87.0765C51.049 86.5003 50.8202 85.9477 50.4128 85.5403C50.0054 85.1329 49.4528 84.9041 48.8766 84.9041Z" fill="currentColor"/>
<path d="M48.8766 95.7664H22.8077C22.2315 95.7664 21.6789 95.9952 21.2715 96.4026C20.8641 96.81 20.6353 97.3626 20.6353 97.9388C20.6353 98.5149 20.8641 99.0675 21.2715 99.4749C21.6789 99.8823 22.2315 100.111 22.8077 100.111H48.8766C49.4528 100.111 50.0054 99.8823 50.4128 99.4749C50.8202 99.0675 51.049 98.5149 51.049 97.9388C51.049 97.3626 50.8202 96.81 50.4128 96.4026C50.0054 95.9952 49.4528 95.7664 48.8766 95.7664Z" fill="currentColor"/>
</svg>
