<svg width="96" height="96" viewBox="0 0 96 96" fill="none" xmlns="http://www.w3.org/2000/svg">
<g clip-path="url(#clip0_1023_25869)">
    <path d="M81.3333 14.3335H14.6667C10.9866 14.3379 8.00441 17.3201 8 21.0002V69.0002C8.00441 72.6802 10.9866 75.6624 14.6667 75.6668H54.6667V82.3335C54.6668 82.8727 54.9916 83.3587 55.4898 83.5651C55.9879 83.7714 56.5613 83.6574 56.9427 83.2762L61.3333 78.8855L65.724 83.2762C66.1053 83.6574 66.6787 83.7714 67.1769 83.5651C67.675 83.3587 67.9999 82.8727 68 82.3335V75.6668H81.3333C85.0134 75.6624 87.9956 72.6802 88 69.0002V21.0002C87.9956 17.3201 85.0134 14.3379 81.3333 14.3335ZM51.08 40.4202C50.8739 40.3251 50.7258 40.1371 50.6814 39.9145C50.6371 39.6919 50.702 39.4616 50.856 39.2948C52.049 37.9982 52.049 36.0035 50.856 34.7068C50.7015 34.5399 50.6365 34.309 50.6811 34.086C50.7257 33.863 50.8745 33.6749 51.0813 33.5802C52.6785 32.8369 53.4409 30.9947 52.836 29.3402C52.7573 29.1271 52.7853 28.8893 52.9114 28.7004C53.0375 28.5115 53.2464 28.3945 53.4733 28.3855C55.2341 28.3115 56.6447 26.901 56.7187 25.1402C56.7275 24.9129 56.8448 24.7037 57.034 24.5775C57.2232 24.4513 57.4615 24.4236 57.6747 24.5028C59.3295 25.1041 61.1695 24.3421 61.9147 22.7468C62.009 22.5403 62.1967 22.3917 62.4194 22.3473C62.642 22.303 62.8724 22.3682 63.0387 22.5228C64.3358 23.7161 66.3309 23.7161 67.628 22.5228C67.7947 22.3684 68.0254 22.3033 68.2483 22.3479C68.4711 22.3925 68.659 22.5414 68.7533 22.7482C69.497 24.3442 71.3379 25.1062 72.992 24.5028C73.2052 24.4236 73.4434 24.4513 73.6327 24.5775C73.8219 24.7037 73.9392 24.9129 73.948 25.1402C74.0228 26.9034 75.4367 28.3149 77.2 28.3868C77.4268 28.3954 77.6358 28.5121 77.762 28.7008C77.8881 28.8895 77.9162 29.1273 77.8373 29.3402C77.2319 30.9951 77.9951 32.8379 79.5933 33.5802C79.7994 33.6752 79.9476 33.8632 79.9919 34.0858C80.0362 34.3084 79.9713 34.5388 79.8173 34.7055C78.6243 36.0022 78.6243 37.9968 79.8173 39.2935C79.9718 39.4604 80.0368 39.6913 79.9922 39.9143C79.9476 40.1374 79.7988 40.3255 79.592 40.4202C77.9948 41.1634 77.2325 43.0056 77.8373 44.6602C77.9161 44.8732 77.888 45.111 77.7619 45.2999C77.6358 45.4888 77.4269 45.6059 77.2 45.6148C75.4342 45.6857 74.0189 47.101 73.948 48.8668C73.9392 49.0941 73.8219 49.3033 73.6327 49.4295C73.4434 49.5557 73.2052 49.5834 72.992 49.5042C71.3372 48.9022 69.4967 49.6644 68.752 51.2602C68.6612 51.4686 68.4729 51.6185 68.2493 51.6602C68.0261 51.7068 67.7942 51.6416 67.628 51.4855C66.3307 50.2929 64.336 50.2929 63.0387 51.4855C62.8724 51.6414 62.6405 51.7066 62.4173 51.6602C62.1935 51.6184 62.0048 51.4687 61.9133 51.2602C61.1701 49.6637 59.3288 48.9014 57.6747 49.5055C57.4615 49.5848 57.2232 49.557 57.034 49.4308C56.8448 49.3047 56.7275 49.0954 56.7187 48.8682C56.6479 47.1018 55.2329 45.6857 53.4667 45.6135C53.2398 45.605 53.0309 45.4882 52.9047 45.2995C52.7785 45.1108 52.7505 44.873 52.8293 44.6602C53.4356 43.007 52.6756 41.1649 51.08 40.4202ZM65.7253 65.3895L65.3333 65.7815V53.2482C65.5118 53.2477 65.6838 53.3149 65.8147 53.4362C66.4326 54.0153 67.2478 54.3376 68.0947 54.3375C68.3212 54.3371 68.5471 54.3147 68.7693 54.2708C69.8303 54.0637 70.725 53.3549 71.1693 52.3695C71.3255 52.0333 71.7135 51.8733 72.0613 52.0015C72.4671 52.1452 72.8966 52.21 73.3267 52.1922V65.7815L70.2693 62.7242C69.7487 62.2037 68.9047 62.2037 68.384 62.7242L65.7253 65.3895ZM65.3333 79.1148L62.276 76.0575C61.7553 75.537 60.9113 75.537 60.3907 76.0575L57.3333 79.1148V52.1895C57.7634 52.2074 58.193 52.1427 58.5987 51.9988C58.9458 51.8699 59.3337 52.0295 59.4893 52.3655C59.9349 53.3535 60.8331 54.0631 61.8973 54.2682C62.1506 54.3183 62.4086 54.3402 62.6667 54.3335V69.0002C62.6668 69.5394 62.9916 70.0254 63.4898 70.2317C63.9879 70.4381 64.5613 70.324 64.9427 69.9428L65.3333 69.5522V79.1148ZM85.3333 69.0002C85.3333 71.2093 83.5425 73.0002 81.3333 73.0002H68V66.8855L69.3333 65.5522L73.724 69.9428C74.1053 70.324 74.6787 70.4381 75.1769 70.2317C75.675 70.0254 75.9999 69.5394 76 69.0002V50.7428C76.3721 50.2203 76.5847 49.6011 76.612 48.9602C76.6283 48.5903 76.9248 48.2944 77.2947 48.2788C78.3756 48.2371 79.3711 47.68 79.9719 46.7805C80.5728 45.8809 80.7062 44.748 80.3307 43.7335C80.2034 43.3865 80.3634 42.9998 80.6987 42.8442C81.6821 42.3924 82.3893 41.4965 82.6004 40.435C82.8116 39.3736 82.501 38.2752 81.7653 37.4815C81.5147 37.209 81.5147 36.79 81.7653 36.5175C82.501 35.724 82.8116 34.6258 82.6005 33.5646C82.3893 32.5033 81.6821 31.6076 80.6987 31.1562C80.3624 31.0015 80.2015 30.6142 80.3293 30.2668C80.7048 29.2524 80.5714 28.1194 79.9706 27.2199C79.3698 26.3203 78.3743 25.7632 77.2933 25.7215C76.9235 25.7059 76.627 25.41 76.6107 25.0402C76.5702 23.9588 76.0138 22.9625 75.1143 22.361C74.2148 21.7595 73.0814 21.6258 72.0667 22.0015C71.7196 22.1326 71.3302 21.9723 71.176 21.6348C70.7242 20.6514 69.8283 19.9442 68.7669 19.7331C67.7054 19.5219 66.6071 19.8325 65.8133 20.5682C65.5413 20.8186 65.1227 20.8186 64.8507 20.5682C64.0572 19.8325 62.959 19.5219 61.8977 19.733C60.8365 19.9442 59.9408 20.6514 59.4893 21.6348C59.3346 21.9725 58.9452 22.1331 58.5973 22.0028C57.5826 21.6271 56.4492 21.7608 55.5497 22.3623C54.6502 22.9638 54.0938 23.9602 54.0533 25.0415C54.0371 25.4113 53.7405 25.7073 53.3707 25.7228C52.2897 25.7645 51.2942 26.3217 50.6934 27.2212C50.0926 28.1207 49.9592 29.2537 50.3347 30.2682C50.462 30.6152 50.302 31.0019 49.9667 31.1575C48.9832 31.6093 48.276 32.5052 48.0649 33.5666C47.8538 34.6281 48.1643 35.7264 48.9 36.5202C49.1506 36.7926 49.1506 37.2117 48.9 37.4842C48.1643 38.2777 47.8537 39.3758 48.0649 40.4371C48.276 41.4984 48.9833 42.394 49.9667 42.8455C50.303 43.0002 50.4638 43.3874 50.336 43.7348C49.9605 44.7493 50.0939 45.8823 50.6947 46.7818C51.2956 47.6813 52.2911 48.2385 53.372 48.2802C53.7419 48.2957 54.0384 48.5916 54.0547 48.9615C54.0822 49.6019 54.2948 50.2207 54.6667 50.7428V73.0002H14.6667C12.4575 73.0002 10.6667 71.2093 10.6667 69.0002V21.0002C10.6667 18.791 12.4575 17.0002 14.6667 17.0002H81.3333C83.5425 17.0002 85.3333 18.791 85.3333 21.0002V69.0002Z" fill="currentColor"/>
    <path d="M22.6667 62.3333C20.4575 62.3333 18.6667 60.5425 18.6667 58.3333V31.6667C18.6667 29.4575 20.4575 27.6667 22.6667 27.6667H46.6667C47.403 27.6667 48 27.0697 48 26.3333C48 25.597 47.403 25 46.6667 25H22.6667C18.9866 25.0044 16.0044 27.9866 16 31.6667V58.3333C16.0044 62.0134 18.9866 64.9956 22.6667 65H48C48.7364 65 49.3333 64.403 49.3333 63.6667C49.3333 62.9303 48.7364 62.3333 48 62.3333H22.6667Z" fill="currentColor"/>
    <path d="M23.9998 46.3337H42.6665C43.4029 46.3337 43.9998 45.7367 43.9998 45.0003C43.9998 44.2639 43.4029 43.667 42.6665 43.667H23.9998C23.2635 43.667 22.6665 44.2639 22.6665 45.0003C22.6665 45.7367 23.2635 46.3337 23.9998 46.3337Z" fill="currentColor"/>
    <path d="M23.9998 41.0002H42.6665C43.4029 41.0002 43.9998 40.4032 43.9998 39.6668C43.9998 38.9304 43.4029 38.3335 42.6665 38.3335H23.9998C23.2635 38.3335 22.6665 38.9304 22.6665 39.6668C22.6665 40.4032 23.2635 41.0002 23.9998 41.0002Z" fill="currentColor"/>
    <path d="M23.9998 35.6667H42.6665C43.4029 35.6667 43.9998 35.0697 43.9998 34.3333C43.9998 33.597 43.4029 33 42.6665 33H23.9998C23.2635 33 22.6665 33.597 22.6665 34.3333C22.6665 35.0697 23.2635 35.6667 23.9998 35.6667Z" fill="currentColor"/>
    <path d="M22.7775 58.8668C22.9896 59.3529 23.4697 59.667 24.0001 59.6668C24.1837 59.6676 24.3654 59.6299 24.5335 59.5561C25.7679 59.0975 26.9023 58.4053 27.8748 57.5175C28.2358 57.1572 28.5515 56.7542 28.8148 56.3175C29.324 56.8899 29.9223 57.3761 30.5868 57.7575C31.5135 58.3634 32.6668 58.5108 33.7161 58.1575C34.1183 58.0013 34.4822 57.7603 34.7828 57.4508C35.3862 57.8278 36.0508 58.0963 36.7468 58.2441L37.7548 58.4828C39.8123 59.0854 41.95 59.3687 44.0935 59.3228C44.5686 59.2885 44.9894 59.0033 45.1973 58.5747C45.4052 58.146 45.3686 57.639 45.1013 57.2446C44.834 56.8503 44.3766 56.6285 43.9015 56.6628C42.0311 56.6872 40.1679 56.4264 38.3761 55.8895L37.3455 55.6455C36.1015 55.3588 35.7815 54.8575 35.6495 54.5041C35.4171 53.8838 34.7645 53.5281 34.1172 53.669C33.4699 53.8099 33.0243 54.4046 33.0708 55.0655C33.0857 55.3045 32.9725 55.5335 32.7735 55.6668C32.4619 55.7064 32.1471 55.6253 31.8935 55.4401C30.8152 54.7688 30.0043 53.743 29.6001 52.5388C29.3707 51.9188 28.7216 51.5605 28.0747 51.6968C27.4278 51.8331 26.9785 52.4229 27.0188 53.0828C27.0412 54.0366 26.6676 54.9571 25.9868 55.6255C25.2464 56.2729 24.3918 56.7766 23.4668 57.1108C23.1424 57.2521 22.8875 57.5166 22.7582 57.8459C22.6289 58.1753 22.6359 58.5425 22.7775 58.8668Z" fill="currentColor"/>
    <path d="M65.3332 47.6668C71.2242 47.6668 75.9998 42.8912 75.9998 37.0002C75.9998 31.1091 71.2242 26.3335 65.3332 26.3335C59.4421 26.3335 54.6665 31.1091 54.6665 37.0002C54.6731 42.8885 59.4449 47.6602 65.3332 47.6668ZM65.3332 29.0002C69.7514 29.0002 73.3332 32.5819 73.3332 37.0002C73.3332 41.4184 69.7514 45.0002 65.3332 45.0002C60.9149 45.0002 57.3332 41.4184 57.3332 37.0002C57.3376 32.5837 60.9167 29.0046 65.3332 29.0002Z" fill="currentColor"/>
</g>
<defs>
    <clipPath id="clip0_1023_25869">
        <rect width="80" height="80" fill="white" transform="translate(8 9)"/>
    </clipPath>
</defs>
</svg>
