<svg width="96" height="96" viewBox="0 0 96 96" fill="none" xmlns="http://www.w3.org/2000/svg">
    <path d="M82.7773 32.6347C80.7227 27.9008 77.7998 23.6195 74.0902 19.9098C70.3805 16.2002 66.0992 13.2773 61.3653 11.2227C56.4389 9.08422 51.2692 8 46 8C40.7308 8 35.5611 9.08422 30.6347 11.2227C25.9008 13.2773 21.6195 16.2002 17.9098 19.9098C14.2002 23.6195 11.2773 27.9008 9.22266 32.6347C7.08422 37.5611 6 42.7308 6 48C6 53.2692 7.08422 58.4389 9.22266 63.3653C11.2772 68.0992 14.2 72.3805 17.9098 76.0902C21.6195 79.7998 25.9008 82.7227 30.6347 84.7773C35.5611 86.9158 40.7308 88 46 88C51.2692 88 56.4389 86.9158 61.3653 84.7773C66.0992 82.7227 70.3805 79.7998 74.0902 76.0902C77.7998 72.3805 80.7227 68.0992 82.7773 63.3653C84.9158 58.4389 86 53.2692 86 48C86 42.7308 84.9158 37.5611 82.7773 32.6347ZM46 84.875C26.0117 84.875 9.125 67.9883 9.125 48C9.125 28.0117 26.0117 11.125 46 11.125C65.9883 11.125 82.875 28.0117 82.875 48C82.875 67.9883 65.9883 84.875 46 84.875Z" fill="currentColor"/>
    <path d="M76.6211 35.1569C74.9227 31.2106 72.5019 27.65 69.4259 24.5742C66.35 21.4983 62.7895 19.0775 58.8433 17.3791C54.7419 15.6138 50.4208 14.7188 46 14.7188C39.9903 14.7188 33.7258 16.7709 27.8836 20.6533C27.1648 21.1309 26.9694 22.1008 27.447 22.8194C27.9247 23.5381 28.8945 23.7334 29.6131 23.2559C34.9412 19.7153 40.6077 17.8438 46 17.8438C62.3464 17.8438 76.1562 31.6536 76.1562 48C76.1562 64.3464 62.3464 78.1562 46 78.1562C29.6536 78.1562 15.8438 64.3464 15.8438 48C15.8438 42.6087 17.7148 36.942 21.2545 31.613C21.732 30.8941 21.5364 29.9244 20.8177 29.4469C20.0986 28.9694 19.1291 29.1652 18.6516 29.8839C14.7703 35.7272 12.7188 41.9916 12.7188 48C12.7188 52.4208 13.6138 56.7419 15.3789 60.8431C17.0773 64.7894 19.4981 68.35 22.5741 71.4258C25.65 74.5019 29.2105 76.9225 33.1569 78.6211C37.2581 80.3863 41.5792 81.2812 46 81.2812C50.4208 81.2812 54.7419 80.3863 58.8431 78.6211C62.7894 76.9227 66.35 74.5019 69.4258 71.4259C72.5017 68.35 74.9225 64.7895 76.6209 60.8433C78.3862 56.7419 79.2812 52.4208 79.2812 48C79.2812 43.5792 78.3863 39.2581 76.6211 35.1569Z" fill="currentColor"/>
    <path d="M23.9688 24.4062C23.1063 24.4062 22.4062 25.1063 22.4062 25.9688C22.4062 26.8312 23.1063 27.5312 23.9688 27.5312C24.8312 27.5312 25.5312 26.8312 25.5312 25.9688C25.5312 25.1063 24.8312 24.4062 23.9688 24.4062Z" fill="currentColor" />
    <path d="M64.4814 35.7686C63.3006 34.5878 61.7314 33.9375 60.0625 33.9375C58.3936 33.9375 56.8244 34.5878 55.6436 35.7686L41.3125 50.0997L36.3564 45.1436C35.1756 43.9628 33.6064 43.3125 31.9375 43.3125C30.2686 43.3125 28.6994 43.9628 27.5191 45.1431C26.338 46.3233 25.6875 47.8927 25.6875 49.5625C25.6875 51.2323 26.338 52.8017 27.5186 53.9814L36.8936 63.3564C38.0744 64.5372 39.6437 65.1875 41.3125 65.1875C42.9813 65.1875 44.5506 64.5372 45.7314 63.3564L64.4809 44.6069C65.662 43.4267 66.3125 41.8573 66.3125 40.1875C66.3125 38.5177 65.662 36.9483 64.4814 35.7686ZM62.2717 42.3967L43.5217 61.1467C42.9311 61.7372 42.1466 62.0625 41.3125 62.0625C40.4784 62.0625 39.6939 61.7372 39.1033 61.1467L29.7278 51.7712C29.1377 51.1814 28.8125 50.397 28.8125 49.5625C28.8125 48.728 29.1377 47.9436 29.7283 47.3533C30.3189 46.7628 31.1034 46.4375 31.9375 46.4375C32.7716 46.4375 33.5561 46.7628 34.1467 47.3533L41.3125 54.5191L57.8533 37.9783C58.4439 37.3878 59.2284 37.0625 60.0625 37.0625C60.8966 37.0625 61.6811 37.3878 62.2722 37.9787C62.8623 38.5686 63.1875 39.353 63.1875 40.1875C63.1875 41.022 62.8623 41.8064 62.2717 42.3967Z" fill="currentColor"
    />
</svg>
