<svg width="96" height="96" viewBox="0 0 96 96" fill="none" xmlns="http://www.w3.org/2000/svg">
    <g clip-path="url(#clip0_749_38333)">
        <path d="M85.6365 28.5569L67.0427 9.9631C64.4252 7.34556 60.1662 7.34571 57.5481 9.9631L47.0923 20.4189C46.4823 21.0289 46.4823 22.018 47.0923 22.6281C47.7024 23.2381 48.6914 23.2381 49.3015 22.6281L59.7573 12.1723C61.157 10.7726 63.4345 10.7729 64.8337 12.1723L83.4275 30.7661C84.8271 32.1656 84.8271 34.4429 83.4275 35.8425L52.793 66.4768C52.1151 67.1549 51.2136 67.5282 50.2548 67.5282C49.296 67.5282 48.3946 67.1547 47.7166 66.4768L46.4378 65.1979L53.5767 58.059C56.0038 55.6317 56.0038 51.6824 53.5767 49.2551C51.1494 46.8278 47.2001 46.8275 44.7728 49.2551L38.4432 55.5847L37.4181 55.5992C37.2313 55.6019 37.0456 55.6103 36.86 55.6205L29.1228 47.8831C27.7232 46.4835 27.7232 44.2064 29.1228 42.8068L39.3606 32.569C39.9705 31.9591 39.9705 30.97 39.3606 30.3598C38.7507 29.75 37.7615 29.75 37.1515 30.3598L26.9138 40.5975C24.2961 43.2152 24.2961 47.4745 26.9138 50.0922L33.1687 56.347C31.2685 57.0074 29.526 58.0902 28.0659 59.5501C25.5543 62.0616 24.151 65.4007 24.1141 68.9525L24.1025 70.0623L8.85763 85.3075C8.24765 85.9175 8.24765 86.9066 8.85763 87.5168C9.1627 87.8217 9.56243 87.9743 9.96217 87.9743C10.3619 87.9743 10.7618 87.8217 11.0667 87.5168L26.7624 71.8212C27.0514 71.5321 27.2156 71.1414 27.2198 70.7328L27.2379 68.9851C27.2662 66.2556 28.3448 63.6896 30.2749 61.7595C32.1949 59.8396 34.7473 58.7613 37.4622 58.723L39.1213 58.6998C39.5279 58.694 39.9162 58.53 40.2039 58.2424L46.982 51.4643C48.1912 50.2553 50.1584 50.2553 51.3676 51.4643C52.5768 52.6733 52.5768 54.6409 51.3676 55.8499L41.2008 66.0169C40.5907 66.6269 40.5907 67.616 41.2008 68.2261C41.8106 68.836 42.7999 68.836 43.4099 68.2261L44.2289 67.4071L45.5077 68.686C46.8167 69.995 48.5356 70.6493 50.2551 70.6492C51.9742 70.649 53.6938 69.9947 55.0025 68.686L62.2594 61.4291L58.2179 72.3737C57.0296 75.5915 54.3493 78.0697 51.0485 79.0028L38.5541 82.5338C38.2971 82.6064 38.0631 82.7437 37.8743 82.9324L35.4732 85.3335C34.8632 85.9435 34.8632 86.9325 35.4732 87.5427C35.7783 87.8476 36.178 88.0002 36.5778 88.0002C36.9775 88.0002 37.3774 87.8476 37.6823 87.5427L39.7954 85.4295L51.8981 82.0093C56.1574 80.8054 59.6153 77.608 61.1486 73.456L67.5395 56.1494L85.6371 38.0517C88.2541 35.4339 88.2541 31.1746 85.6365 28.5569V28.5569Z" fill="currentColor"/>
        <path d="M59.0424 50.346C59.3475 50.6509 59.7472 50.8035 60.147 50.8035C60.5467 50.8035 60.9464 50.6509 61.2515 50.346L77.4636 34.1339C78.0736 33.5239 78.0736 32.5348 77.4636 31.9247C76.8535 31.3148 75.8647 31.3148 75.2544 31.9247L59.0424 48.1368C58.4325 48.7468 58.4325 49.7359 59.0424 50.346V50.346Z" fill="currentColor"/>
        <path d="M41.9562 37.6454L36.7353 42.8662C36.1253 43.4762 36.1253 44.4653 36.7353 45.0754C37.0404 45.3804 37.4401 45.533 37.8399 45.533C38.2396 45.533 38.6395 45.3804 38.9444 45.0754L44.1652 39.8546C44.7752 39.2446 44.7752 38.2555 44.1652 37.6454C43.5553 37.0355 42.5662 37.0355 41.9562 37.6454Z" fill="currentColor"/>
        <path d="M43.2261 28.0558C43.6369 28.0558 44.04 27.8886 44.3305 27.5979C44.621 27.3075 44.7882 26.9059 44.7882 26.4937C44.7882 26.0829 44.621 25.6799 44.3305 25.3893C44.04 25.0988 43.6369 24.9316 43.2261 24.9316C42.8153 24.9316 42.4123 25.0986 42.1217 25.3893C41.8312 25.68 41.6641 26.0829 41.6641 26.4937C41.6641 26.9061 41.8312 27.3075 42.1217 27.5979C42.4123 27.8886 42.8155 28.0558 43.2261 28.0558Z" fill="currentColor"/>
        <path d="M62.5702 30.3982C59.5114 30.3982 57.0227 27.9095 57.0227 24.8507C57.0227 21.7919 59.5114 19.3032 62.5702 19.3032C65.629 19.3032 68.1175 21.7919 68.1175 24.8507C68.1175 27.9095 65.629 30.3982 62.5702 30.3982ZM62.5702 22.4273C61.2339 22.4273 60.1468 23.5144 60.1468 24.8507C60.1468 26.1871 61.2339 27.2741 62.5702 27.2741C63.9064 27.2741 64.9934 26.1871 64.9934 24.8507C64.9934 23.5144 63.9064 22.4273 62.5702 22.4273Z" fill="currentColor"/>
    </g>
    <defs>
        <clipPath id="clip0_749_38333">
            <rect width="80" height="80" fill="white" transform="translate(8 8)"/>
        </clipPath>
    </defs>
</svg>
