<svg width="96" height="96" viewBox="0 0 96 96" fill="none" xmlns="http://www.w3.org/2000/svg">
    <path d="M72 70.8377C71.5317 70.4886 70.9889 70.2528 70.4142 70.1487C69.8395 70.0446 69.2485 70.0751 68.6875 70.2377L59.75 72.8752V61.7502H63.5C63.7473 61.7511 63.9891 61.6777 64.1942 61.5395C64.3993 61.4013 64.5581 61.2047 64.65 60.9752C64.7457 60.7475 64.7719 60.4966 64.7252 60.2542C64.6784 60.0117 64.5609 59.7885 64.3875 59.6127L55.6375 50.8627C55.4015 50.6285 55.0825 50.4971 54.75 50.4971C54.4175 50.4971 54.0985 50.6285 53.8625 50.8627L45.1125 59.6127C44.9391 59.7885 44.8216 60.0117 44.7748 60.2542C44.7281 60.4966 44.7543 60.7475 44.85 60.9752C44.9419 61.2047 45.1007 61.4013 45.3058 61.5395C45.5109 61.6777 45.7527 61.7511 46 61.7502H49.75V75.5002H41.325L34.575 71.7502H44.75C45.7436 71.7472 46.6958 71.3512 47.3984 70.6485C48.101 69.9459 48.497 68.9938 48.5 68.0002V67.3752C48.4978 66.5661 48.2353 65.7793 47.7513 65.131C47.2673 64.4826 46.5875 64.0073 45.8125 63.7752L38.5 61.6252V55.5002H42.25C42.4973 55.5011 42.7391 55.4277 42.9442 55.2895C43.1493 55.1513 43.3081 54.9547 43.4 54.7252C43.4957 54.4975 43.5219 54.2466 43.4752 54.0042C43.4284 53.7617 43.3109 53.5385 43.1375 53.3627L34.3875 44.6127C34.1515 44.3785 33.8325 44.2471 33.5 44.2471C33.1675 44.2471 32.8485 44.3785 32.6125 44.6127L23.8625 53.3627C23.6891 53.5385 23.5716 53.7617 23.5248 54.0042C23.4781 54.2466 23.5043 54.4975 23.6 54.7252C23.6919 54.9547 23.8507 55.1513 24.0558 55.2895C24.2609 55.4277 24.5027 55.5011 24.75 55.5002H28.5V58.6877L26.35 58.0502C26.2369 58.0144 26.1186 57.9975 26 58.0002H18.5V55.5002C18.5 55.1687 18.3683 54.8507 18.1339 54.6163C17.8995 54.3819 17.5815 54.2502 17.25 54.2502H9.75C9.41848 54.2502 9.10054 54.3819 8.86612 54.6163C8.6317 54.8507 8.5 55.1687 8.5 55.5002V83.0002C8.5 83.3317 8.6317 83.6496 8.86612 83.8841C9.10054 84.1185 9.41848 84.2502 9.75 84.2502H17.25C17.5815 84.2502 17.8995 84.1185 18.1339 83.8841C18.3683 83.6496 18.5 83.3317 18.5 83.0002V80.9877L31.85 85.4377C31.9798 85.4767 32.1144 85.4977 32.25 85.5002H51C51.1409 85.5007 51.2808 85.4753 51.4125 85.4252L71 78.5127C71.7314 78.2541 72.3647 77.775 72.8124 77.1414C73.2602 76.5078 73.5004 75.751 73.5 74.9752V73.8377C73.5016 73.2552 73.3667 72.6805 73.1062 72.1596C72.8458 71.6386 72.4669 71.1859 72 70.8377V70.8377ZM16 81.7502H11V56.7502H16V81.7502ZM49.0125 59.2502L54.75 53.5127L60.4875 59.2502H58.5C58.1685 59.2502 57.8505 59.3819 57.6161 59.6163C57.3817 59.8507 57.25 60.1687 57.25 60.5002V73.6127L52.25 75.0752V60.5002C52.25 60.1687 52.1183 59.8507 51.8839 59.6163C51.6495 59.3819 51.3315 59.2502 51 59.2502H49.0125ZM27.7625 53.0002L33.5 47.2627L39.2375 53.0002H37.25C36.9185 53.0002 36.6005 53.1319 36.3661 53.3663C36.1317 53.6007 36 53.9187 36 54.2502V60.8877L31 59.4127V54.2502C31 53.9187 30.8683 53.6007 30.6339 53.3663C30.3995 53.1319 30.0815 53.0002 29.75 53.0002H27.7625ZM71 74.9752C71.0016 75.2357 70.9217 75.4902 70.7715 75.7031C70.6214 75.916 70.4084 76.0767 70.1625 76.1627L50.7875 83.0002H32.45L18.5 78.3502V60.5002H25.825L45.1 66.1752C45.3588 66.2523 45.586 66.4106 45.748 66.6267C45.9101 66.8427 45.9984 67.1051 46 67.3752V68.0002C46 68.3317 45.8683 68.6496 45.6339 68.8841C45.3995 69.1185 45.0815 69.2502 44.75 69.2502H29.75C29.4743 69.251 29.2066 69.343 28.9886 69.5117C28.7706 69.6805 28.6145 69.9166 28.5446 70.1833C28.4747 70.45 28.495 70.7323 28.6022 70.9863C28.7094 71.2403 28.8976 71.4517 29.1375 71.5877L40.3875 77.8377C40.5731 77.9465 40.7849 78.0027 41 78.0002H51C51.1186 78.0029 51.2369 77.986 51.35 77.9502L69.4 72.6377C69.5863 72.5833 69.7827 72.5731 69.9736 72.6078C70.1645 72.6426 70.3448 72.7212 70.5 72.8377C70.6552 72.9541 70.7813 73.1051 70.868 73.2787C70.9548 73.4522 71 73.6436 71 73.8377V74.9752Z" fill="currentColor"/>
    <path d="M48.5 10.5C44.7916 10.5 41.1665 11.5997 38.0831 13.6599C34.9996 15.7202 32.5964 18.6486 31.1773 22.0747C29.7581 25.5008 29.3868 29.2708 30.1103 32.9079C30.8338 36.5451 32.6195 39.886 35.2418 42.5083C37.864 45.1305 41.2049 46.9163 44.8421 47.6397C48.4792 48.3632 52.2492 47.9919 55.6753 46.5727C59.1014 45.1536 62.0298 42.7504 64.0901 39.6669C66.1503 36.5835 67.25 32.9584 67.25 29.25C67.2441 24.279 65.2667 19.5133 61.7517 15.9983C58.2367 12.4833 53.471 10.506 48.5 10.5V10.5ZM64.6875 28H62.1875C62.0402 26.4423 61.6303 24.9208 60.975 23.5L63.1375 22.2375C64.0049 24.0464 64.5304 26.0001 64.6875 28V28ZM57.675 15.85C59.3279 16.9904 60.7596 18.4221 61.9 20.075L59.725 21.325C58.8137 20.0512 57.6988 18.9363 56.425 18.025L57.675 15.85ZM49.75 13.0625C51.7499 13.2197 53.7036 13.7452 55.5125 14.6125L54.25 16.775C52.8292 16.1198 51.3077 15.7098 49.75 15.5625V13.0625ZM47.25 13.0625V15.5625C45.6923 15.7098 44.1708 16.1198 42.75 16.775L41.4875 14.6125C43.2964 13.7452 45.2501 13.2197 47.25 13.0625V13.0625ZM39.325 15.85L40.575 18.025C39.3012 18.9363 38.1863 20.0512 37.275 21.325L35.1 20.075C36.2404 18.4221 37.6721 16.9904 39.325 15.85V15.85ZM33.8625 22.2375L36.025 23.5C35.3698 24.9208 34.9598 26.4423 34.8125 28H32.3125C32.4697 26.0001 32.9952 24.0464 33.8625 22.2375V22.2375ZM32.3125 30.5H34.8125C34.9598 32.0577 35.3698 33.5792 36.025 35L33.8625 36.2625C32.9952 34.4536 32.4697 32.4999 32.3125 30.5V30.5ZM39.325 42.65C37.6721 41.5096 36.2404 40.0779 35.1 38.425L37.275 37.175C38.1863 38.4488 39.3012 39.5637 40.575 40.475L39.325 42.65ZM47.25 45.4375C45.2501 45.2803 43.2964 44.7548 41.4875 43.8875L42.75 41.725C44.1708 42.3802 45.6923 42.7902 47.25 42.9375V45.4375ZM37.25 29.25C37.25 27.025 37.9098 24.8499 39.146 22.9998C40.3821 21.1498 42.1391 19.7078 44.1948 18.8564C46.2505 18.0049 48.5125 17.7821 50.6948 18.2162C52.8771 18.6502 54.8816 19.7217 56.455 21.295C58.0283 22.8684 59.0998 24.8729 59.5338 27.0552C59.9679 29.2375 59.7451 31.4995 58.8937 33.5552C58.0422 35.6109 56.6002 37.3679 54.7502 38.604C52.9001 39.8402 50.725 40.5 48.5 40.5C45.5177 40.4954 42.659 39.3086 40.5502 37.1998C38.4414 35.0911 37.2546 32.2323 37.25 29.25ZM49.75 45.4375V42.9375C51.3077 42.7902 52.8292 42.3802 54.25 41.725L55.5125 43.8875C53.7036 44.7548 51.7499 45.2803 49.75 45.4375ZM57.675 42.65L56.425 40.475C57.6988 39.5637 58.8137 38.4488 59.725 37.175L61.9 38.425C60.7596 40.0779 59.3279 41.5096 57.675 42.65V42.65ZM63.1375 36.2625L60.975 35C61.6303 33.5792 62.0402 32.0577 62.1875 30.5H64.6875C64.5304 32.4999 64.0049 34.4536 63.1375 36.2625Z" fill="currentColor"/>
    <path d="M47.25 38H49.75V35.5C50.413 35.5 51.0489 35.2366 51.5178 34.7678C51.9866 34.2989 52.25 33.663 52.25 33V30.5C52.25 29.837 51.9866 29.2011 51.5178 28.7322C51.0489 28.2634 50.413 28 49.75 28H47.25V25.5H52.25V23H49.75V20.5H47.25V23C46.587 23 45.9511 23.2634 45.4822 23.7322C45.0134 24.2011 44.75 24.837 44.75 25.5V28C44.75 28.663 45.0134 29.2989 45.4822 29.7678C45.9511 30.2366 46.587 30.5 47.25 30.5H49.75V33H44.75V35.5H47.25V38Z" fill="currentColor"/>
    <path d="M83.1337 50.8665L74.3837 42.1165C74.1493 41.8821 73.8314 41.7505 73.5 41.7505C73.1685 41.7505 72.8506 41.8821 72.6162 42.1165L63.8662 50.8665C63.6915 51.0413 63.5725 51.264 63.5242 51.5064C63.476 51.7489 63.5008 52.0002 63.5954 52.2285C63.69 52.4569 63.8501 52.6521 64.0557 52.7895C64.2612 52.9268 64.5028 53.0002 64.75 53.0002H68.5V65.5002C68.5 65.8317 68.6317 66.1497 68.8661 66.3841C69.1005 66.6185 69.4185 66.7502 69.75 66.7502H77.25C77.5815 66.7502 77.8994 66.6185 78.1339 66.3841C78.3683 66.1497 78.5 65.8317 78.5 65.5002V53.0002H82.25C82.4972 53.0002 82.7388 52.9268 82.9443 52.7895C83.1498 52.6521 83.31 52.4569 83.4046 52.2285C83.4992 52.0002 83.5239 51.7489 83.4757 51.5064C83.4275 51.264 83.3085 51.0413 83.1337 50.8665V50.8665ZM77.25 50.5002C76.9185 50.5002 76.6005 50.6319 76.3661 50.8663C76.1317 51.1008 76 51.4187 76 51.7502V64.2502H71V51.7502C71 51.4187 70.8683 51.1008 70.6339 50.8663C70.3994 50.6319 70.0815 50.5002 69.75 50.5002H67.7675L73.5 44.7677L79.2325 50.5002H77.25Z" fill="currentColor"/>
    <path d="M9.74998 43.0002H13.5V50.5002C13.5 50.8317 13.6317 51.1497 13.8661 51.3841C14.1005 51.6185 14.4185 51.7502 14.75 51.7502H22.25C22.5815 51.7502 22.8994 51.6185 23.1339 51.3841C23.3683 51.1497 23.5 50.8317 23.5 50.5002V43.0002H27.25C27.4972 43.0002 27.7388 42.9268 27.9443 42.7895C28.1498 42.6521 28.31 42.4569 28.4046 42.2285C28.4992 42.0002 28.5239 41.7489 28.4757 41.5064C28.4275 41.264 28.3085 41.0413 28.1337 40.8665L19.3837 32.1165C19.1493 31.8821 18.8314 31.7505 18.5 31.7505C18.1685 31.7505 17.8506 31.8821 17.6162 32.1165L8.86623 40.8665C8.69147 41.0413 8.57246 41.264 8.52425 41.5064C8.47604 41.7489 8.50079 42.0002 8.59538 42.2285C8.68997 42.4569 8.85014 42.6521 9.05565 42.7895C9.26117 42.9268 9.50279 43.0002 9.74998 43.0002ZM18.5 34.7677L24.2325 40.5002H22.25C21.9185 40.5002 21.6005 40.6319 21.3661 40.8663C21.1317 41.1008 21 41.4187 21 41.7502V49.2502H16V41.7502C16 41.4187 15.8683 41.1008 15.6339 40.8663C15.3994 40.6319 15.0815 40.5002 14.75 40.5002H12.7675L18.5 34.7677Z" fill="currentColor"/>
</svg>
