<svg width="140" height="140" viewBox="0 0 140 140" fill="none" xmlns="http://www.w3.org/2000/svg">
<path d="M68.8451 69.1258H77.3125C78.4671 69.1258 79.2369 68.3521 79.2369 67.1914C79.2369 66.0308 78.4671 65.2571 77.3125 65.2571H70.7695V62.3555C70.7695 61.1949 69.9998 60.4211 68.8451 60.4211C67.6905 60.4211 66.9207 61.1949 66.9207 62.3555V65.4505C62.1097 66.4177 58.4534 70.6733 58.4534 75.7027V75.8961C58.4534 81.6992 63.0719 86.3417 68.8451 86.3417C72.5015 86.3417 75.3881 89.2432 75.3881 92.9185V93.112C75.3881 96.7873 72.5015 99.6888 68.8451 99.6888H60.3778C59.2231 99.6888 58.4534 100.463 58.4534 101.623C58.4534 102.784 59.2231 103.558 60.3778 103.558H66.9207V106.459C66.9207 107.62 67.6905 108.393 68.8451 108.393C69.9998 108.393 70.7695 107.62 70.7695 106.459V103.364C75.5805 102.397 79.2369 98.1413 79.2369 93.112V92.9185C79.2369 87.1154 74.6183 82.473 68.8451 82.473C65.1888 82.473 62.3022 79.5714 62.3022 75.8961V75.7027C62.1097 72.2208 65.1888 69.1258 68.8451 69.1258Z" fill="currentColor"/>
<path d="M118.88 43.9827H113.684V15.9344C113.684 15.3541 113.491 14.7737 113.107 14.5803C112.722 14.1934 112.144 14 111.567 14L25.5464 24.2522C24.3918 24.2522 23.4296 24.4456 22.4674 24.639H22.2749C17.2715 26.1865 14 30.829 14 35.8584V118.843C14 122.712 17.2715 126 21.1203 126H118.88C122.729 126 126 122.712 126 118.843V51.1399C126 47.2712 122.921 43.9827 118.88 43.9827ZM23.2371 28.5078C23.2371 28.5078 23.4296 28.5078 23.2371 28.5078C24.1993 28.3143 24.9691 28.1209 25.7388 28.1209C25.7388 28.1209 25.7388 28.1209 25.9313 28.1209C25.9313 28.1209 25.9313 28.1209 26.1237 28.1209L110.027 18.0622V43.9827H104.447V35.2781C104.447 34.1174 103.677 33.3437 102.522 33.3437H28.0481C26.8935 33.3437 26.1237 34.1174 26.1237 35.2781V44.1762H25.7388C21.3127 44.1762 17.8488 40.6943 17.8488 36.2452C17.8488 32.7634 19.9656 29.6684 23.2371 28.5078ZM100.598 43.9827H29.9725V37.2124H100.405V43.9827H100.598ZM118.88 122.325H21.1203C19.3883 122.325 17.8488 120.777 17.8488 119.036V44.9499C19.9656 46.8843 22.6598 48.0449 25.7388 48.0449H28.0481H102.33H118.88C120.612 48.0449 122.151 49.5924 122.151 51.3333V72.418H110.797C105.024 72.418 100.405 77.0604 100.405 82.8635V87.506C100.405 93.3091 105.024 97.9516 110.797 97.9516H122.151V119.036C122.151 120.777 120.612 122.325 118.88 122.325ZM121.959 76.2867V94.0829H110.797C107.141 94.0829 104.254 91.1813 104.254 87.506V82.8635C104.254 79.1882 107.141 76.2867 110.797 76.2867H121.959V76.2867Z" fill="currentColor"/>
<path d="M108.296 85.1841C108.296 87.8923 110.412 90.2135 113.299 90.2135C115.993 90.2135 118.303 88.0857 118.303 85.1841C118.303 82.476 116.186 80.1548 113.299 80.1548C110.412 80.1548 108.296 82.476 108.296 85.1841ZM113.107 84.0235C113.684 84.0235 114.261 84.4104 114.261 85.1841C114.261 85.9579 113.876 86.3448 113.107 86.3448C112.337 86.3448 111.952 85.9579 111.952 85.1841C111.952 84.4104 112.529 84.0235 113.107 84.0235Z" fill="white"/>
</svg>
