<svg width="96" height="96" viewBox="0 0 96 96" fill="none" xmlns="http://www.w3.org/2000/svg">
<path d="M50.1787 58.6521C51.5667 58.5441 52.832 57.8361 53.6534 56.7067L66.1374 39.4481C66.52 38.9187 66.4627 38.1881 65.9987 37.7241C65.5347 37.2614 64.804 37.2041 64.2747 37.5854L47.0134 50.0734C45.888 50.8921 45.18 52.1574 45.072 53.5454C44.964 54.9334 45.4667 56.2921 46.4494 57.2747C47.344 58.1707 48.5507 58.6667 49.8054 58.6667C49.9294 58.6667 50.0534 58.6614 50.1787 58.6521ZM47.7307 53.7534C47.7774 53.1441 48.0894 52.5881 48.58 52.2307L59.1094 44.6134L51.4947 55.1401C51.1347 55.6347 50.5787 55.9454 49.9694 55.9934C49.3627 56.0334 48.7667 55.8227 48.3334 55.3894C47.904 54.9587 47.6827 54.3614 47.7307 53.7534Z" fill="currentColor"/>
<path d="M80.0454 34.0853C80.0321 34.0573 80.0321 34.028 80.0174 34C80.0014 33.9733 79.9761 33.9587 79.9587 33.9333C78.6107 31.6213 77.0161 29.4707 75.2054 27.5213L78.0694 24.6587L79.9547 26.544L85.6107 20.8867L79.9547 15.2307L74.2974 20.8867L76.1841 22.7733L73.3201 25.636C71.3707 23.8253 69.2214 22.2293 66.9081 20.8813C66.8827 20.864 66.8681 20.8387 66.8414 20.8227C66.8134 20.8067 66.7841 20.808 66.7561 20.7933C62.6321 18.4173 57.9987 16.8347 53.0587 16.2547V14.6667H55.0587C56.8974 14.6667 58.3921 13.172 58.3921 11.3333C58.3921 9.49467 56.8961 8 55.0574 8H43.0574C41.2187 8 39.7241 9.49467 39.7241 11.3333C39.7241 13.172 41.2187 14.6667 43.0574 14.6667H45.0574V16.208C43.6174 16.3613 42.1801 16.596 40.7587 16.9213C40.0414 17.0853 39.5921 17.8013 39.7574 18.5187C39.9214 19.236 40.6374 19.6867 41.3547 19.52C42.5814 19.2387 43.8201 19.0267 45.0614 18.884L46.4921 18.7733C46.9294 18.74 47.3321 18.716 47.7241 18.6973V21.3333C47.7241 22.0707 48.3201 22.6667 49.0574 22.6667C49.7947 22.6667 50.3907 22.0707 50.3907 21.3333V18.7067C55.4054 18.9373 60.1307 20.284 64.3321 22.5L63.0174 24.776C62.6494 25.4147 62.8681 26.2293 63.5054 26.5973C63.7147 26.7187 63.9441 26.776 64.1707 26.776C64.6321 26.776 65.0801 26.5373 65.3267 26.1093L66.6374 23.8387C70.8094 26.4853 74.3534 30.0293 77.0001 34.2013L74.7294 35.512C74.0934 35.88 73.8747 36.6947 74.2441 37.3333C74.4921 37.7613 74.9387 38 75.4001 38C75.6267 38 75.8561 37.9427 76.0654 37.8213L78.3414 36.5067C80.5881 40.768 81.9387 45.5707 82.1401 50.6653H79.5067C78.7694 50.6653 78.1734 51.2613 78.1734 51.9987C78.1734 52.736 78.7694 53.332 79.5067 53.332H82.1401C81.9387 58.4267 80.5881 63.2293 78.3414 67.4907L76.0654 66.176C75.4281 65.808 74.6121 66.024 74.2441 66.664C73.8761 67.3027 74.0947 68.1173 74.7321 68.4853L77.0027 69.796C74.3561 73.968 70.8121 77.512 66.6401 80.1587L65.3294 77.888C64.9601 77.248 64.1427 77.0307 63.5081 77.4C62.8694 77.768 62.6507 78.584 63.0201 79.2213L64.3347 81.4973C60.1334 83.7133 55.4081 85.06 50.3934 85.2907V82.6667C50.3934 81.9293 49.7974 81.3333 49.0601 81.3333C48.3227 81.3333 47.7267 81.9293 47.7267 82.6667V85.3013C45.5974 85.228 43.4614 84.9613 41.3587 84.4787C40.6414 84.3067 39.9254 84.7627 39.7614 85.48C39.5961 86.1973 40.0454 86.9133 40.7627 87.0773C43.4241 87.6907 46.1427 88 48.8401 88C48.9054 88 48.9681 87.996 49.0334 87.9947C49.0427 87.9947 49.0494 88 49.0574 88C49.0681 88 49.0774 87.9933 49.0881 87.9933C55.4974 87.9493 61.5107 86.2187 66.7134 83.2293C66.7547 83.2107 66.7987 83.2013 66.8387 83.1773C66.8654 83.1613 66.8801 83.136 66.9054 83.1187C72.2907 79.98 76.7907 75.4853 79.9361 70.104C79.9614 70.068 79.9934 70.04 80.0161 70C80.0321 69.972 80.0307 69.9427 80.0441 69.9147C83.0894 64.6347 84.8401 58.52 84.8401 52C84.8401 45.48 83.0894 39.3653 80.0454 34.0853ZM79.9534 19.0013L81.8387 20.8867L79.9534 22.7733L78.0667 20.8867L79.9534 19.0013ZM47.7241 16.028V12H43.0574C42.6907 12 42.3907 11.7 42.3907 11.3333C42.3907 10.9667 42.6907 10.6667 43.0574 10.6667H55.0574C55.4241 10.6667 55.7241 10.9667 55.7241 11.3333C55.7241 11.7 55.4241 12 55.0574 12H50.3907V16.028C49.9267 16.0093 49.4841 16 49.0574 16C49.0201 16 48.9774 16.0027 48.9401 16.0027C48.9067 16.0027 48.8734 16 48.8401 16C48.6214 16 48.4027 16.0147 48.1841 16.0187C48.0294 16.0227 47.8841 16.0213 47.7241 16.028Z" fill="currentColor"/>
<path d="M37.0571 26.6667H30.3905C29.6531 26.6667 29.0571 27.2627 29.0571 28.0001C29.0571 28.7374 29.6531 29.3334 30.3905 29.3334H37.0571C37.7945 29.3334 38.3905 28.7374 38.3905 28.0001C38.3905 27.2627 37.7945 26.6667 37.0571 26.6667Z" fill="currentColor"/>
<path d="M37.0573 36H23.724C22.9866 36 22.3906 36.596 22.3906 37.3333C22.3906 38.0707 22.9866 38.6667 23.724 38.6667H37.0573C37.7946 38.6667 38.3906 38.0707 38.3906 37.3333C38.3906 36.596 37.7946 36 37.0573 36Z" fill="currentColor"/>
<path d="M37.0575 45.3333H17.0575C16.3201 45.3333 15.7241 45.9293 15.7241 46.6666C15.7241 47.4039 16.3201 47.9999 17.0575 47.9999H37.0575C37.7948 47.9999 38.3908 47.4039 38.3908 46.6666C38.3908 45.9293 37.7948 45.3333 37.0575 45.3333Z" fill="currentColor"/>
<path d="M37.0573 54.6667H11.724C10.9866 54.6667 10.3906 55.2627 10.3906 56.0001C10.3906 56.7374 10.9866 57.3334 11.724 57.3334H37.0573C37.7946 57.3334 38.3906 56.7374 38.3906 56.0001C38.3906 55.2627 37.7946 54.6667 37.0573 54.6667Z" fill="currentColor"/>
<path d="M37.0573 64H19.724C18.9866 64 18.3906 64.596 18.3906 65.3333C18.3906 66.0707 18.9866 66.6667 19.724 66.6667H37.0573C37.7946 66.6667 38.3906 66.0707 38.3906 65.3333C38.3906 64.596 37.7946 64 37.0573 64Z" fill="currentColor"/>
<path d="M37.0573 73.3333H27.724C26.9866 73.3333 26.3906 73.9293 26.3906 74.6666C26.3906 75.4039 26.9866 75.9999 27.724 75.9999H37.0573C37.7946 75.9999 38.3906 75.4039 38.3906 74.6666C38.3906 73.9293 37.7946 73.3333 37.0573 73.3333Z" fill="currentColor"/>
</svg>
