<svg width="96" height="96" viewBox="0 0 96 96" fill="none" xmlns="http://www.w3.org/2000/svg">
    <g clip-path="url(#clip0_749_38325)">
        <path d="M14.0376 51.5433C12.8608 50.3666 12.8608 48.4519 14.0376 47.2757L42.7541 18.5593C43.2119 18.1015 43.2119 17.3593 42.7541 16.9021C42.2963 16.4438 41.5541 16.4444 41.097 16.9021L12.3799 45.6186C10.29 47.7085 10.29 51.11 12.3799 53.2004L19.6132 60.4331C19.8414 60.6614 20.1417 60.7761 20.4414 60.7761C20.7417 60.7761 21.0414 60.662 21.2703 60.4331C21.728 59.9754 21.728 59.2332 21.2703 58.776L14.0376 51.5433Z" fill="currentColor"/>
        <path d="M37.0748 31.1817L19.3416 48.9149C18.8838 49.3727 18.8838 50.1149 19.3416 50.5726C19.5705 50.8009 19.8702 50.9157 20.1705 50.9157C20.4702 50.9157 20.7698 50.8015 20.9987 50.5726L38.7319 32.8395C39.1897 32.3817 39.1897 31.6395 38.7319 31.1817C38.2748 30.7246 37.5326 30.7246 37.0748 31.1817V31.1817Z" fill="currentColor"/>
        <path d="M47.7985 29.3082C49.0131 29.3082 50.2277 28.8462 51.1524 27.9215L54.6997 24.3741C56.5491 22.5247 56.5491 19.5157 54.6997 17.6663C52.8504 15.817 49.8413 15.817 47.992 17.6663L44.4446 21.2137C43.5486 22.1097 43.0554 23.3005 43.0554 24.5676C43.0554 25.8341 43.5486 27.0255 44.4446 27.9215C45.3693 28.8462 46.5839 29.3082 47.7985 29.3082V29.3082ZM46.1017 22.8708L49.6491 19.3234C50.5847 18.3878 52.107 18.3878 53.042 19.3234C53.9777 20.2591 53.9777 21.7813 53.042 22.7164L49.4946 26.2638C48.5596 27.1994 47.0374 27.1994 46.1017 26.2638C45.6488 25.8109 45.3992 25.2085 45.3992 24.5676C45.3992 23.9267 45.6488 23.3237 46.1017 22.8708V22.8708Z" fill="currentColor"/>
        <path d="M80.06 46.9924H68.7795L77.4709 38.301C79.5614 36.2105 79.5614 32.809 77.4709 30.7186L56.166 9.41419C55.1534 8.40161 53.8069 7.84375 52.3751 7.84375C50.9432 7.84375 49.5967 8.40161 48.5835 9.41419L44.4087 13.589C43.9516 14.0468 43.9516 14.7883 44.4087 15.2461C44.8665 15.7039 45.6087 15.7039 46.0658 15.2461L50.2413 11.0713C50.8107 10.5012 51.5688 10.1875 52.3751 10.1875C53.1807 10.1875 53.9388 10.5012 54.5089 11.0713L75.8132 32.3757C76.99 33.5524 76.99 35.4665 75.8132 36.6432L65.4647 46.9918H35.8498L44.3678 38.4737C44.8256 38.0165 44.8256 37.2744 44.3678 36.8166C43.9101 36.3588 43.1679 36.3588 42.7107 36.8166L32.5355 46.9924H28.8606C25.9041 46.9924 23.4993 49.3972 23.4993 52.3531V82.4826C23.4993 85.4385 25.9041 87.8439 28.8606 87.8439H80.06C83.0166 87.8439 85.4214 85.4385 85.4214 82.4826V78.1515C85.4214 77.5039 84.8971 76.9796 84.2495 76.9796C83.6025 76.9796 83.0776 77.5039 83.0776 78.1515V82.4826C83.0776 84.1464 81.7245 85.5002 80.06 85.5002H28.8606C27.1968 85.5002 25.843 84.1464 25.843 82.4826V66.0391H83.0776V73.464C83.0776 74.111 83.6019 74.6359 84.2495 74.6359C84.8971 74.6359 85.4214 74.111 85.4214 73.464V52.3537C85.4214 49.3972 83.0166 46.9924 80.06 46.9924V46.9924ZM28.8606 49.3361H80.06C81.7239 49.3361 83.0776 50.6899 83.0776 52.3537V56.4577H25.843V52.3537C25.843 50.6899 27.1968 49.3361 28.8606 49.3361ZM25.843 63.6953V58.8015H83.0776V63.6953H25.843Z" fill="currentColor"/>
        <path d="M70.2314 74.6357C69.2408 74.6357 68.4346 75.442 68.4346 76.4326V80.8967C68.4346 81.888 69.2408 82.6936 70.2314 82.6936H77.3323C78.3229 82.6936 79.1292 81.888 79.1292 80.8967V76.4326C79.1292 75.442 78.3229 74.6357 77.3323 74.6357H70.2314ZM76.7854 80.3499H70.7783V76.9795H76.7854V80.3499Z" fill="currentColor"/>
        <path d="M48.822 74.6357C47.8314 74.6357 47.0251 75.442 47.0251 76.4326V80.8967C47.0251 81.888 47.8314 82.6936 48.822 82.6936H63.841C64.8316 82.6936 65.6379 81.888 65.6379 80.8967V76.4326C65.6379 75.442 64.8316 74.6357 63.841 74.6357H48.822ZM63.2941 80.3499H49.3689V76.9795H63.2941V80.3499Z" fill="currentColor"/>
        <path d="M34.5923 80.3501C33.9453 80.3501 33.4204 80.875 33.4204 81.522C33.4204 82.1696 33.9453 82.6939 34.5923 82.6939H42.0752C42.7222 82.6939 43.2471 82.1696 43.2471 81.522C43.2471 80.875 42.7222 80.3501 42.0752 80.3501H34.5923Z" fill="currentColor"/>
    </g>
    <defs>
        <clipPath id="clip0_749_38325">
            <rect width="80" height="80" fill="white" transform="translate(8 8)"/>
        </clipPath>
    </defs>
</svg>
