<svg width="140" height="140" viewBox="0 0 140 140" fill="none" xmlns="http://www.w3.org/2000/svg">
<path d="M133 101.854C133 94.7749 126.109 89.8592 119.613 92.0221L93.4281 100.281L87.5219 99.8873C88.5063 98.5109 89.0969 96.9379 89.2938 95.3648C89.8844 90.0558 85.75 85.5334 80.4344 85.5334H62.3219C55.2344 80.421 46.375 77.4715 37.5156 77.4715H31.0188V72.7524C31.0188 71.5727 30.2313 70.7861 29.05 70.7861H8.96875C7.7875 70.7861 7 71.5727 7 72.7524V113.651C7 114.831 7.7875 115.618 8.96875 115.618H29.05C30.2313 115.618 31.0188 114.831 31.0188 113.651V110.309L70 121.91C71.575 122.303 72.9531 122.5 74.5281 122.5C76.3 122.5 78.0719 122.303 79.6469 121.713L131.622 103.623C132.409 103.427 133 102.64 133 101.854ZM27.0813 111.685H10.9375V74.7187H27.0813C27.0813 83.9603 27.0813 102.64 27.0813 111.685ZM78.2688 117.977C75.9063 118.764 73.3469 118.764 70.9844 118.174L30.8219 106.179V81.4041H37.3188C45.5875 81.4041 53.6594 84.1569 60.1563 89.0727C60.55 89.2693 60.9438 89.4659 61.3375 89.4659H80.2375C83.1906 89.4659 85.5531 92.0221 85.1594 94.9716C84.9625 97.7244 82.6 99.6907 79.8438 99.4941L61.5344 98.1176C60.55 98.1176 59.5656 98.9042 59.3688 99.8873C59.3688 100.87 60.1563 101.854 61.1406 102.05L93.0344 104.41C93.2313 104.41 93.625 104.41 93.8219 104.41L120.4 95.9547C124.141 94.7749 127.881 97.1345 128.669 100.674L78.2688 117.977Z" fill="currentColor"/>
<path d="M78.8591 81.208H79.056C87.5216 81.208 95.5935 77.6687 101.5 71.7698C107.406 65.6743 110.753 57.6124 110.753 49.1574C110.753 40.7023 107.406 32.6405 101.303 26.7416C95.1998 20.8427 87.3248 17.5 78.8591 17.5H78.6623C61.1404 17.6966 46.7685 32.0506 46.9654 49.5506C47.1623 67.0507 61.3373 81.208 78.8591 81.208ZM78.6623 21.4326H78.8591C86.3404 21.4326 93.231 24.382 98.5466 29.4944C103.862 34.8034 106.815 41.6854 106.815 49.1574C106.815 56.6293 104.059 63.708 98.7435 69.017C93.4279 74.326 86.5373 77.2754 79.056 77.2754H78.8591C63.5029 77.2754 50.9029 64.8877 50.9029 49.5506C50.706 34.0169 63.306 21.4326 78.6623 21.4326Z" fill="currentColor"/>
<path d="M66.0625 59.9711C69.6063 62.9206 73.3469 64.6903 77.6781 65.0835V68.6228H80.6313V65.2801C86.7344 64.8869 91.2625 61.5442 91.2625 55.6453C91.2625 49.3531 86.7344 47.3869 80.6313 46.0104H80.4344V37.1621C82.7969 37.5554 85.1594 38.3419 87.325 39.9149L90.2781 35.5891C87.1281 33.4261 83.9781 32.2464 80.4344 32.0497V29.6902H77.4812V32.0497C71.575 32.443 67.2438 35.9823 67.2438 41.6846C67.2438 47.7801 71.575 49.7464 77.6781 51.1228V60.3644C74.9219 59.9711 72.1656 58.5947 69.4094 56.2352L66.0625 59.9711ZM85.75 55.8419C85.75 58.3981 83.3875 59.5779 80.8281 59.9711V51.5161C83.5844 52.3026 85.5531 53.2857 85.75 55.8419ZM73.15 40.7014C73.15 38.3419 75.3156 36.9655 77.6781 36.7689V45.0273C74.9219 44.0441 73.15 43.2576 73.15 40.7014Z" fill="currentColor"/>
</svg>
