<svg width="16" height="16" viewBox="0 0 16 16" fill="none" xmlns="http://www.w3.org/2000/svg">
    <path d="M7.99844 1.60156C6.93757 1.60156 5.92016 2.02299 5.17001 2.77314C4.41987 3.52328 3.99844 4.5407 3.99844 5.60156V7.20156C3.57409 7.20156 3.16712 7.37013 2.86707 7.67019C2.56701 7.97025 2.39844 8.37722 2.39844 8.80156V12.8016C2.39844 13.2259 2.56701 13.6329 2.86707 13.9329C3.16712 14.233 3.57409 14.4016 3.99844 14.4016H11.9984C12.4228 14.4016 12.8298 14.233 13.1298 13.9329C13.4299 13.6329 13.5984 13.2259 13.5984 12.8016V8.80156C13.5984 8.37722 13.4299 7.97025 13.1298 7.67019C12.8298 7.37013 12.4228 7.20156 11.9984 7.20156H5.59844V5.60156C5.59824 5.01728 5.8112 4.45298 6.19737 4.01451C6.58354 3.57603 7.11641 3.29349 7.69604 3.21987C8.27567 3.14626 8.86225 3.28661 9.34578 3.61463C9.8293 3.94264 10.1766 4.43578 10.3224 5.00156C10.3755 5.20705 10.508 5.38305 10.6908 5.49085C10.7813 5.54422 10.8815 5.57925 10.9855 5.59392C11.0896 5.60859 11.1955 5.60263 11.2972 5.57636C11.399 5.5501 11.4946 5.50405 11.5785 5.44085C11.6625 5.37765 11.7332 5.29853 11.7865 5.20801C11.8399 5.11749 11.8749 5.01734 11.8896 4.91329C11.9043 4.80924 11.8983 4.70331 11.872 4.60156C11.6501 3.74297 11.1492 2.98244 10.448 2.43943C9.74691 1.89642 8.88526 1.6017 7.99844 1.60156Z" fill="currentColor" />
</svg>
