<svg width="96" height="96" viewBox="0 0 96 96" fill="none" xmlns="http://www.w3.org/2000/svg">
    <g clip-path="url(#clip0_749_38505)">
        <path d="M43.1239 66.4286H48.8761C49.5235 66.4286 50.048 65.9041 50.048 65.2568V62.6771C53.5208 61.0988 55.8003 57.6113 55.8003 53.7521C55.8003 48.3482 51.4038 43.9518 45.9999 43.9518C45.0602 43.9518 44.2956 43.1871 44.2956 42.2474C44.2956 41.3077 45.0602 40.5432 45.9999 40.5432C46.6499 40.5432 47.235 40.905 47.5267 41.4877C47.666 41.7657 47.9099 41.9769 48.2047 42.075C48.4997 42.1729 48.8214 42.1499 49.0996 42.0108L54.2425 39.4347C54.8213 39.1449 55.0553 38.4408 54.7656 37.8622C53.7449 35.8241 52.0881 34.2336 50.048 33.3141V30.7432C50.048 30.0958 49.5235 29.5713 48.8761 29.5713H43.1239C42.4767 29.5713 41.9521 30.0958 41.9521 30.7432V33.3227C38.4794 34.9011 36.1997 38.3885 36.1997 42.2477C36.1997 47.6516 40.5961 52.048 46.0002 52.048C46.9399 52.048 47.7044 52.8127 47.7044 53.7524C47.7044 54.6921 46.9399 55.4566 46.0002 55.4566C45.35 55.4566 44.765 55.0947 44.4733 54.5121C44.3341 54.2343 44.0902 54.0229 43.7953 53.9247C43.5003 53.8268 43.1786 53.8497 42.9006 53.9889L37.7574 56.565C37.1786 56.8549 36.9445 57.5589 37.2344 58.1375C38.2553 60.1758 39.912 61.7663 41.9522 62.6857V65.2568C41.952 65.9039 42.4767 66.4286 43.1239 66.4286V66.4286ZM39.9352 58.0954L43.0546 56.5329C43.8067 57.3329 44.8611 57.8 46 57.8C48.2321 57.8 50.048 55.9841 50.048 53.7521C50.048 51.5199 48.2321 49.7039 46 49.7039C41.8885 49.7039 38.5433 46.3589 38.5433 42.2474C38.5433 39.0964 40.5414 36.2708 43.5155 35.2166C43.9831 35.0507 44.2958 34.6082 44.2958 34.1121V31.9149H47.7042V34.1063C47.7042 34.6039 48.0186 35.0472 48.4883 35.2121C49.9406 35.7216 51.1791 36.66 52.0649 37.9041L48.9455 39.4666C48.1933 38.6666 47.1388 38.1994 46 38.1994C43.768 38.1994 41.9521 40.0154 41.9521 42.2474C41.9521 44.4796 43.768 46.2955 46 46.2955C50.1116 46.2955 53.4567 49.6405 53.4567 53.7521C53.4567 56.9032 51.4586 59.7286 48.4847 60.7829C48.0169 60.9488 47.7044 61.3913 47.7044 61.8874V64.0847H44.296V61.8932C44.296 61.3954 43.9816 60.9522 43.5121 60.7874C42.0594 60.278 40.821 59.3396 39.9352 58.0954V58.0954Z" fill="currentColor"/>
        <path d="M62.5488 32.6721C62.9883 33.1466 63.73 33.1752 64.2049 32.7351C64.6795 32.2952 64.7078 31.5537 64.2678 31.079C59.5686 26.0079 52.9103 23.0996 46 23.0996C32.27 23.0996 21.0999 34.2698 21.0999 47.9998C21.0999 61.7296 32.27 72.8998 46 72.8998C59.73 72.8998 70.9002 61.7296 70.9002 47.9998C70.9002 43.7018 69.787 39.4645 67.6809 35.7457C67.362 35.1826 66.6475 34.9848 66.0836 35.3035C65.5205 35.6224 65.3225 36.3376 65.6414 36.9009C67.5483 40.268 68.5563 44.1059 68.5563 47.9998C68.5563 60.4374 58.4375 70.556 45.9999 70.556C33.5622 70.556 23.4434 60.4373 23.4434 47.9998C23.4434 35.562 33.5622 25.4434 45.9999 25.4434C52.2597 25.4434 58.2916 28.078 62.5488 32.6721V32.6721Z" fill="currentColor"/>
        <path d="M68.4137 74.6653C68.2117 74.3722 67.9077 74.1753 67.5575 74.1113C67.2075 74.0467 66.8531 74.1231 66.5609 74.3252L64.9172 75.46C59.343 79.308 52.8016 81.342 46 81.342C41.4559 81.342 37.0486 80.44 32.9008 78.6608C32.3061 78.4053 31.617 78.6811 31.3619 79.2759C31.1067 79.8708 31.382 80.5597 31.9769 80.8148C36.4184 82.7198 41.1366 83.6859 46.0002 83.6859C53.2795 83.6859 60.2814 81.5084 66.2489 77.3889L67.0595 76.8292L68.1791 78.4508L67.3684 79.0105C61.0702 83.358 53.6812 85.6561 46 85.6561C35.9417 85.6561 26.4853 81.7392 19.373 74.6267C12.2606 67.5145 8.34375 58.0583 8.34375 48C8.34375 42.068 9.76281 36.1514 12.4472 30.8903C12.7694 30.26 12.542 29.488 11.9295 29.1333L10.0581 28.0494L17.7259 23.6373L17.7142 32.4839L15.9453 31.4592C15.6288 31.2758 15.2459 31.2308 14.8955 31.3361C14.545 31.4409 14.2502 31.6886 14.0866 32.0152C11.6188 36.94 10.3144 42.4673 10.3144 48C10.3144 54.1139 11.8944 60.1508 14.8834 65.4581C17.78 70.6009 21.9481 74.9922 26.9375 78.1567C27.4839 78.5036 28.208 78.3413 28.5548 77.795C28.9016 77.2484 28.7395 76.5242 28.193 76.1777C18.4653 70.0077 12.658 59.4739 12.658 48C12.658 43.1905 13.7127 38.3855 15.7158 34.035L18.0564 35.3908C18.4667 35.6284 18.977 35.6292 19.3881 35.3925C19.7991 35.1559 20.0548 34.7144 20.0555 34.2402L20.0719 21.8878C20.0725 21.4136 19.818 20.9714 19.4077 20.7336C18.9973 20.4963 18.487 20.4958 18.0763 20.7317L7.36953 26.8923C6.95859 27.1289 6.70281 27.5705 6.70219 28.0447C6.70156 28.5189 6.95609 28.9611 7.36625 29.1989L9.93344 30.6859C7.3575 36.0563 6 42.0209 6 48C6 58.6844 10.1608 68.7292 17.7158 76.2842C25.2708 83.8392 35.3156 87.9999 46 87.9999C54.1591 87.9999 62.0086 85.5583 68.6997 80.9391L70.3439 79.8041C70.95 79.385 71.1002 78.5558 70.6827 77.9519L68.4137 74.6653Z" fill="currentColor"/>
        <path d="M84.6509 66.7652L82.0823 65.2805C89.0834 50.6506 86.8293 32.2609 74.2843 19.7156C66.7292 12.1606 56.6843 8 45.9999 8C42.6887 8 39.3971 8.405 36.2167 9.20375C35.589 9.36156 35.2079 9.99812 35.3656 10.6259C35.5232 11.2537 36.1599 11.6345 36.7876 11.477C39.7815 10.7252 42.8809 10.3438 45.9998 10.3438C56.0581 10.3438 65.5145 14.2606 72.6267 21.3731C79.7393 28.4853 83.6562 37.9416 83.6562 48C83.6562 53.9198 82.2426 59.8256 79.5673 65.0806C79.2477 65.7108 79.4765 66.4816 80.0881 66.835L81.9602 67.9172L74.2965 72.3362L74.2999 63.4898L76.0684 64.5119C76.3852 64.6956 76.7682 64.7402 77.1192 64.6352C77.4701 64.5298 77.7651 64.2817 77.9281 63.9548C80.3863 59.0377 81.6857 53.5206 81.6857 48C81.6857 28.3227 65.6771 12.3141 45.9998 12.3141C38.7206 12.3141 31.7187 14.4916 25.7512 18.6111L24.9404 19.1708L23.8209 17.5492L24.6318 16.9895C26.8535 15.4556 29.2379 14.1617 31.7184 13.1439C32.3171 12.8983 32.6034 12.2136 32.3576 11.6148C32.112 11.0163 31.4274 10.7303 30.8285 10.9756C28.1928 12.0572 25.6599 13.4317 23.3001 15.0609L21.6559 16.1959C21.0521 16.6133 20.9001 17.4439 21.3171 18.0481L23.5863 21.3353C23.7885 21.6284 24.0929 21.825 24.4431 21.8889C24.7932 21.9531 25.1471 21.8766 25.439 21.6748L27.0828 20.54C32.657 16.6917 39.1985 14.6578 45.9999 14.6578C64.3848 14.6578 79.3421 29.6152 79.3421 48C79.3421 52.7981 78.2918 57.5933 76.297 61.9367L73.9548 60.583C73.544 60.3458 73.0337 60.3458 72.6231 60.583C72.2124 60.8202 71.9573 61.2619 71.9573 61.7356L71.9523 74.0886C71.9523 74.5628 72.2074 75.0047 72.6182 75.2419C73.0284 75.4786 73.5384 75.4795 73.9492 75.2422L84.6499 69.0719C85.0609 68.8348 85.3163 68.393 85.3165 67.9186C85.3167 67.4442 85.0612 67.002 84.6509 66.7652V66.7652Z" fill="currentColor"
        />
    </g>
    <defs>
        <clipPath id="clip0_749_38505">
            <rect width="80" height="80" fill="white" transform="translate(6 8)"/>
        </clipPath>
    </defs>
</svg>
