<svg width="96" height="96" viewBox="0 0 96 96" fill="none" xmlns="http://www.w3.org/2000/svg">
    <path d="M74.0161 50.2832C73.3731 50.2832 72.8519 50.8045 72.8519 51.4474C72.8519 52.2626 72.1888 52.9257 71.3736 52.9257C70.5586 52.9257 69.8953 52.2626 69.8953 51.4474C69.8953 50.8043 69.3741 50.2832 68.7311 50.2832C68.0881 50.2832 67.5669 50.8045 67.5669 51.4474C67.5669 53.5465 69.2747 55.2541 71.3736 55.2541C73.4725 55.2541 75.1803 53.5463 75.1803 51.4474C75.1803 50.8041 74.6591 50.2832 74.0161 50.2832Z" fill="currentColor" />
    <path d="M84.9444 50.4735L81.6675 49.4238C81.2478 49.2893 80.917 48.9543 80.7828 48.5276C80.0922 46.3318 79.05 44.2704 77.6852 42.4004C77.0631 41.5481 76.3714 40.7342 75.6158 39.9593C76.0992 37.8385 76.362 35.4384 76.328 33.3648C76.2792 30.3984 75.6864 28.6585 74.5158 28.0454C73.8853 27.7148 71.9666 26.7104 61.5811 31.4645C61.3352 31.577 61.1055 31.7156 60.8928 31.8743C60.1927 31.6862 59.477 31.5121 58.757 31.3559C58.6703 31.337 58.5809 31.3203 58.4936 31.3018C59.3352 29.4634 59.8266 27.4667 59.9189 25.4054C59.9477 24.7629 59.4503 24.2188 58.8078 24.1903C58.167 24.1584 57.6213 24.6587 57.5927 25.3012C57.4409 28.6904 56.035 31.8793 53.6341 34.2804C52.1995 35.7149 50.5198 36.757 48.7297 37.4132C45.6252 36.9776 42.463 36.9776 39.3584 37.4132C37.5681 36.757 35.8886 35.7149 34.4541 34.2804C31.8925 31.7188 30.4817 28.3131 30.4817 24.6904C30.4817 21.0676 31.8925 17.662 34.4541 15.1004C37.0156 12.5387 40.4216 11.1279 44.0441 11.1279C47.6666 11.1279 51.0725 12.5387 53.6341 15.1004C54.6634 16.1298 55.5141 17.3045 56.1623 18.5915C56.4516 19.1659 57.1517 19.3971 57.7259 19.1078C58.3003 18.8187 58.5314 18.1185 58.2422 17.5443C57.4823 16.0351 56.4859 14.659 55.2808 13.4537C52.2794 10.4523 48.2887 8.79932 44.0442 8.79932C39.7997 8.79932 35.8091 10.4523 32.8077 13.4537C29.8062 16.4553 28.1533 20.4457 28.1533 24.6903C28.1533 28.9348 29.8062 32.9254 32.8077 35.9268C33.6734 36.7926 34.6153 37.5371 35.6116 38.1609C35.6119 38.1609 35.6122 38.1607 35.6125 38.1607C34.8886 38.3488 34.1702 38.5601 33.4597 38.7976C32.8498 39.0015 32.5208 39.661 32.7247 40.271C32.9284 40.8809 33.5883 41.2099 34.198 41.0062C40.5473 38.8835 47.5411 38.8835 53.8905 41.0062C54.013 41.0471 54.1373 41.0665 54.2597 41.0665C54.7467 41.0665 55.2008 40.7584 55.3637 40.271C55.5677 39.6612 55.2386 39.0015 54.6288 38.7976C53.9183 38.5601 53.1998 38.3487 52.4759 38.1607C52.4762 38.1607 52.4766 38.1609 52.4769 38.1609C53.4733 37.5371 54.415 36.7926 55.2808 35.9268C56.0467 35.1609 56.7228 34.3245 57.3098 33.4356C57.6308 33.4979 57.9494 33.5632 58.2633 33.6313C58.6814 33.7221 59.0977 33.8196 59.5102 33.922C59.4972 33.9726 59.4839 34.0231 59.4731 34.0745C58.9053 36.769 58.9422 39.1521 59.5827 41.1573C60.1583 42.9596 61.1972 44.4198 62.6702 45.4974C64.4063 46.7674 66.5022 47.316 68.4008 47.316C69.8297 47.316 71.147 47.0051 72.1145 46.4571C73.2089 45.8373 74.1258 44.5312 74.8516 42.5703C75.187 42.9618 75.505 43.3629 75.8047 43.7735C77.0198 45.4382 77.9475 47.2729 78.5619 49.2263C78.9227 50.3737 79.8183 51.2765 80.9575 51.6417L84.2344 52.6913C85.0942 52.9668 85.6719 53.7582 85.6719 54.661V60.0946C85.6719 60.9974 85.0942 61.7888 84.2344 62.0643L78.9548 63.7554C78.1102 64.0262 77.3953 64.6067 76.942 65.3901C74.8678 68.9748 71.6067 71.9412 67.2487 74.207C66.7453 74.469 66.3966 74.9376 66.2916 75.4929L64.6006 84.4465C64.5539 84.6932 64.3378 84.8721 64.0867 84.8721H58.5888C58.3377 84.8721 58.1216 84.6931 58.0748 84.4465L57.1383 79.4982C56.9539 78.5246 56.0408 77.8779 55.058 78.0268C52.6897 78.3849 50.2494 78.5663 47.8052 78.5663C45.9867 78.5663 44.1916 78.4649 42.4692 78.2648C41.5169 78.1553 40.6297 78.8045 40.4517 79.7448L39.5617 84.4465C39.515 84.6932 39.2989 84.8721 39.0478 84.8721H33.5498C33.2987 84.8721 33.0827 84.6931 33.0353 84.4428L31.4072 75.9862C31.3023 75.4413 30.9602 74.9781 30.4678 74.7151C23.0391 70.7493 19.1125 64.1237 19.1125 55.5549C19.1125 51.2256 20.0597 47.3973 21.9277 44.176C23.6708 41.1699 26.2167 38.6845 29.4947 36.7884C30.0512 36.4663 30.2414 35.7542 29.9195 35.1974C29.5977 34.6409 28.8855 34.451 28.3288 34.7726C21.9727 38.4495 18.1391 44.122 17.0836 51.3267V51.3265C16.9716 51.3163 16.8594 51.3067 16.7477 51.2951C16.768 50.5178 16.6273 49.7334 16.3211 48.9721C15.6456 47.2931 14.2581 46.0812 12.7861 45.8848C11.6261 45.7295 10.5222 46.222 9.75609 47.2342C8.64531 48.702 8.82641 49.8635 9.17375 50.5795C9.76016 51.7878 11.2675 52.6424 13.7689 53.1798C13.7002 53.2828 13.6245 53.3862 13.5417 53.4901C12.0637 55.3437 10.3225 55.7535 9.19187 55.7921C8.53 55.8145 8 56.3459 8 57.0082V57.0138C8 57.6671 8.51547 58.1999 9.16812 58.2298C9.25172 58.2337 9.33906 58.2357 9.43 58.2357C10.8606 58.2357 13.1567 57.7081 15.3627 54.942C15.7109 54.5054 15.9947 54.0448 16.2128 53.5689C16.4325 53.5937 16.6436 53.6149 16.8458 53.6337C16.8458 53.6332 16.8458 53.6329 16.8459 53.6324C16.8062 54.2634 16.7842 54.9035 16.7842 55.5549C16.7842 60.4031 17.94 64.7257 20.2192 68.4034C22.3208 71.794 25.3297 74.5703 29.1653 76.6581L30.7481 84.8793C31.0027 86.2243 32.1809 87.2006 33.5498 87.2006H39.0478C40.4167 87.2006 41.595 86.2243 41.8495 84.8793L42.6542 80.6281C44.3255 80.8051 46.0558 80.8948 47.805 80.8948C50.205 80.8948 52.6022 80.7276 54.9384 80.3976L55.7867 84.8796C56.0414 86.2246 57.2197 87.2007 58.5884 87.2007H64.0864C65.4553 87.2007 66.6336 86.2245 66.8883 84.879L68.5347 76.1617C73.1859 73.7021 76.6919 70.4712 78.9572 66.5562C79.1205 66.274 79.3719 66.067 79.665 65.9731L84.9444 64.282C86.772 63.6962 88 62.0135 88 60.0943V54.6607C88 52.7417 86.772 51.059 84.9444 50.4735ZM73.8247 36.6365C73.3766 40.4687 72.1745 43.7468 70.9667 44.4309C69.5939 45.2085 66.4244 45.3587 64.0447 43.6179C61.6622 41.8751 60.8692 38.741 61.7512 34.5545C61.7512 34.5543 61.7512 34.5543 61.7512 34.5543C61.8398 34.1338 62.1386 33.7701 62.5503 33.5817C68.3791 30.9135 71.7395 30.0409 72.988 30.0409C73.1764 30.0409 73.3167 30.0607 73.4102 30.0973C73.7852 30.497 74.277 32.769 73.8247 36.6365ZM11.2689 49.5628C11.1484 49.3143 11.4328 48.8776 11.6131 48.6392C11.8989 48.2617 12.1622 48.1845 12.3611 48.1845C12.4031 48.1845 12.4423 48.1879 12.4783 48.1928C13.0136 48.2642 13.7636 48.8532 14.1609 49.8409C14.2545 50.0734 14.3761 50.4585 14.4045 50.9389C12.7928 50.6049 11.5406 50.1235 11.2689 49.5628Z" fill="currentColor"/>
    <path d="M45.1747 23.3558V19.1896C46.6115 19.2922 47.1452 19.949 47.6377 19.949C48.2535 19.949 48.5408 19.1691 48.5408 18.7791C48.5408 17.7733 46.5704 17.3424 45.1747 17.3013V16.7469C45.1747 16.5007 44.8668 16.2749 44.559 16.2749C44.2099 16.2749 43.9636 16.5007 43.9636 16.7469V17.3421C42.0138 17.5474 40.064 18.5737 40.064 21.1597C40.064 23.7869 42.1165 24.5258 43.9636 25.1826V30.0058C41.87 29.8416 41.316 28.4049 40.6386 28.4049C40.1255 28.4049 39.6946 29.0822 39.6946 29.5749C39.6946 30.5805 41.4186 31.9557 43.9636 31.9968V32.633C43.9636 32.8793 44.21 33.1051 44.559 33.1051C44.8669 33.1051 45.1747 32.8793 45.1747 32.633V31.9352C47.3915 31.6272 48.9102 30.2316 48.9102 27.7071C48.9102 24.9158 46.9604 24.0126 45.1747 23.3558ZM44.0868 22.966C42.999 22.5555 42.1165 22.1246 42.1165 20.9547C42.1165 19.8874 42.9374 19.3743 44.0868 19.2307V22.966V22.966ZM45.0515 29.9647V25.6341C46.0571 26.0651 46.8575 26.6397 46.8575 27.9327C46.8575 29.1029 46.1597 29.7596 45.0515 29.9647Z" fill="currentColor"/>
</svg>
