<svg width="96" height="96" viewBox="0 0 96 96" fill="none" xmlns="http://www.w3.org/2000/svg">
    <path d="M82.7161 38.3086L85.0595 35.9651C85.7372 35.2878 86.1103 34.387 86.1103 33.429C86.1103 32.4711 85.7372 31.5703 85.0597 30.8929L82.3755 28.2087C81.6981 27.5314 80.7974 27.1583 79.8395 27.1583C78.8814 27.1583 77.9808 27.5314 77.3035 28.2087L74.9599 30.5523C71.8667 28.4219 68.3569 26.8556 64.5789 26.0036V22.5397H66.0049C67.9357 22.5397 69.5066 20.9687 69.5066 19.038V14.1664C69.5066 12.2355 67.9357 10.6646 66.0049 10.6646H49.8834C47.9526 10.6646 46.3816 12.2355 46.3816 14.1664V19.0378C46.3816 20.9686 47.9526 22.5395 49.8834 22.5395H51.3091V26.0131C47.5485 26.8675 44.0543 28.4301 40.9735 30.5522L38.6299 28.2086C37.9526 27.5312 37.0518 27.1581 36.094 27.1581C35.1359 27.1581 34.2353 27.5312 33.5579 28.2086L30.8737 30.8928C29.4754 32.2912 29.4754 34.5665 30.8737 35.965L31.2892 36.3804H20.2136C19.3508 36.3804 18.6511 37.08 18.6511 37.9429C18.6511 38.8059 19.3508 39.5054 20.2136 39.5054H32.434C31.2698 41.3806 30.3059 43.3921 29.5732 45.5112H9.5625C8.69969 45.5112 8 46.2107 8 47.0737C8 47.9367 8.69969 48.6362 9.5625 48.6362H28.68C28.2392 50.5743 27.9864 52.5827 27.9417 54.642H18C17.1372 54.642 16.4375 55.3415 16.4375 56.2045C16.4375 57.0674 17.1372 57.767 18 57.767H28.0351C28.204 59.8348 28.5836 61.8435 29.1517 63.7727H15.8125C14.9497 63.7727 14.25 64.4723 14.25 65.3352C14.25 66.1982 14.9497 66.8977 15.8125 66.8977H30.2631C34.8089 77.7174 45.5145 85.3352 57.9666 85.3352C74.5271 85.3352 88 71.8622 88 55.3018C88 48.9989 86.0467 43.1443 82.7161 38.3086ZM79.5131 30.4184C79.6249 30.3067 79.7522 30.2833 79.8395 30.2833C79.9267 30.2833 80.0542 30.3067 80.166 30.4184L82.8502 33.1026C82.9619 33.2143 82.9853 33.3418 82.9853 33.429C82.9853 33.5162 82.9619 33.6437 82.85 33.7554L80.7958 35.8097C79.772 34.6125 78.6561 33.4965 77.4589 32.4728L79.5131 30.4184ZM49.5066 19.038V14.1664C49.5066 13.9586 49.6757 13.7895 49.8834 13.7895H66.0049C66.2125 13.7895 66.3816 13.9586 66.3816 14.1664V19.0378C66.3816 19.2456 66.2125 19.4145 66.0049 19.4145H63.0165H52.8716H49.8834C49.6757 19.4147 49.5066 19.2456 49.5066 19.038ZM54.4341 22.5397H61.454V25.472C60.3094 25.3391 59.1463 25.2684 57.9668 25.2684C56.7716 25.2684 55.5933 25.3408 54.4343 25.4772V22.5397H54.4341ZM33.0832 33.1025L35.7674 30.4183C35.8792 30.3065 36.0065 30.2831 36.0938 30.2831C36.181 30.2831 36.3085 30.3065 36.4203 30.4183L38.4745 32.4726C37.2773 33.4964 36.1613 34.6123 35.1376 35.8095L33.0832 33.7553C32.9032 33.5754 32.9032 33.2825 33.0832 33.1025ZM57.9666 82.21C43.1293 82.21 31.0582 70.139 31.0582 55.3016C31.0582 40.4643 43.1293 28.3933 57.9666 28.3933C72.8039 28.3933 84.875 40.4643 84.875 55.3016C84.875 70.139 72.8039 82.21 57.9666 82.21Z" fill="currentColor"/>
    <path d="M68.2797 42.7789L60.8936 50.165C60.0298 49.6709 59.0311 49.3869 57.9667 49.3869C54.7053 49.3869 52.052 52.0402 52.052 55.3017C52.052 58.5631 54.7053 61.2164 57.9667 61.2164C61.2281 61.2164 63.8814 58.5631 63.8814 55.3017C63.8814 54.2373 63.5973 53.2386 63.1033 52.3748L70.4893 44.9888C71.0995 44.3786 71.0995 43.3892 70.4893 42.7789C69.879 42.1688 68.89 42.1688 68.2797 42.7789ZM57.9667 58.0916C56.4284 58.0916 55.177 56.8402 55.177 55.3019C55.177 53.7636 56.4286 52.512 57.9667 52.512C59.5048 52.512 60.7564 53.7636 60.7564 55.3019C60.7564 56.8402 59.505 58.0916 57.9667 58.0916Z" fill="currentColor"/>
    <path d="M57.967 35.0439C58.378 35.0439 58.7811 34.8768 59.0716 34.5861C59.3622 34.2955 59.5295 33.8924 59.5295 33.4814C59.5295 33.0705 59.3624 32.6674 59.0716 32.3768C58.7811 32.0861 58.378 31.9189 57.967 31.9189C57.5561 31.9189 57.153 32.0861 56.8624 32.3768C56.5717 32.6674 56.4045 33.0705 56.4045 33.4814C56.4045 33.8939 56.5716 34.2955 56.8624 34.5861C57.1531 34.8768 57.5561 35.0439 57.967 35.0439Z" fill="currentColor"/>
    <path d="M57.967 75.5591C57.5561 75.5591 57.153 75.7263 56.8624 76.0169C56.5717 76.3075 56.4045 76.7106 56.4045 77.1216C56.4045 77.5341 56.5716 77.9356 56.8624 78.2263C57.153 78.5185 57.5561 78.6841 57.967 78.6841C58.378 78.6841 58.7811 78.5185 59.0716 78.2263C59.3622 77.9356 59.5295 77.5325 59.5295 77.1216C59.5295 76.7106 59.3624 76.3075 59.0716 76.0169C58.7811 75.7263 58.378 75.5591 57.967 75.5591Z" fill="currentColor"/>
    <path d="M42.5374 38.3091C42.1264 38.3091 41.7233 38.4763 41.4327 38.7669C41.142 39.0575 40.9749 39.4606 40.9749 39.8716C40.9749 40.2841 41.1419 40.6856 41.4327 40.9778C41.7233 41.2685 42.1264 41.4341 42.5374 41.4341C42.9483 41.4341 43.3514 41.2685 43.6419 40.9778C43.9325 40.6856 44.0999 40.2841 44.0999 39.8716C44.0999 39.4606 43.9327 39.0591 43.6419 38.7669C43.3514 38.4763 42.9483 38.3091 42.5374 38.3091Z" fill="currentColor"/>
    <path d="M73.3967 69.1685C72.9841 69.1685 72.5827 69.3356 72.2905 69.6263C71.9999 69.9169 71.8342 70.32 71.8342 70.731C71.8342 71.1419 71.9999 71.545 72.2905 71.8356C72.5827 72.1263 72.9841 72.2935 73.3967 72.2935C73.8077 72.2935 74.2108 72.1263 74.5013 71.8356C74.7919 71.545 74.9592 71.1419 74.9592 70.731C74.9592 70.32 74.792 69.9169 74.5013 69.6263C74.2108 69.3356 73.8077 69.1685 73.3967 69.1685Z" fill="currentColor"/>
    <path d="M42.5374 69.1685C42.1264 69.1685 41.7233 69.3356 41.4327 69.6263C41.142 69.9169 40.9749 70.32 40.9749 70.731C40.9749 71.1419 41.1419 71.545 41.4327 71.8356C41.7234 72.1263 42.1264 72.2935 42.5374 72.2935C42.9483 72.2935 43.3514 72.1263 43.6419 71.8356C43.9325 71.545 44.0999 71.1419 44.0999 70.731C44.0999 70.32 43.9327 69.9169 43.6419 69.6263C43.3514 69.3356 42.9483 69.1685 42.5374 69.1685Z" fill="currentColor"/>
    <path d="M36.1467 53.7388C35.7342 53.7388 35.3327 53.906 35.042 54.1966C34.75 54.4872 34.5842 54.8903 34.5842 55.3013C34.5842 55.7122 34.75 56.1153 35.042 56.406C35.3327 56.6981 35.7344 56.8638 36.1467 56.8638C36.5577 56.8638 36.9608 56.6981 37.2514 56.406C37.5419 56.1153 37.7092 55.7122 37.7092 55.3013C37.7092 54.8903 37.542 54.4872 37.2514 54.1966C36.9608 53.906 36.5577 53.7388 36.1467 53.7388Z" fill="currentColor"/>
    <path d="M80.892 54.1966C80.6014 53.906 80.1983 53.7388 79.7874 53.7388C79.3749 53.7388 78.9733 53.906 78.6828 54.1966C78.3922 54.4872 78.2249 54.8903 78.2249 55.3013C78.2249 55.7138 78.392 56.1153 78.6828 56.406C78.9733 56.6966 79.3764 56.8638 79.7874 56.8638C80.1983 56.8638 80.6014 56.6966 80.892 56.406C81.1827 56.1153 81.3499 55.7122 81.3499 55.3013C81.3497 54.8903 81.1827 54.4874 80.892 54.1966Z" fill="currentColor"/>
    <path d="M9.5625 63.7734C9.15156 63.7734 8.74844 63.9391 8.45781 64.2297C8.16719 64.5219 8 64.9234 8 65.3359C8 65.7469 8.16703 66.1484 8.45781 66.4406C8.74844 66.7312 9.15156 66.8984 9.5625 66.8984C9.97344 66.8984 10.3766 66.7312 10.667 66.4406C10.9577 66.15 11.125 65.7469 11.125 65.3359C11.125 64.9234 10.9578 64.5203 10.667 64.2297C10.3766 63.9391 9.97344 63.7734 9.5625 63.7734Z" fill="currentColor"/>
    <path d="M79.3275 50.5574C80.1543 50.311 80.6251 49.4408 80.3787 48.6138C79.274 44.9073 77.2353 41.4963 74.4829 38.7498C71.7301 36.0029 68.3143 33.9715 64.6047 32.8751C63.7773 32.6304 62.9081 33.103 62.6634 33.9305C62.4187 34.758 62.8914 35.6273 63.719 35.8718C70.3118 37.8204 75.4203 42.9174 77.3839 49.5062C77.5859 50.1843 78.2075 50.6227 78.8806 50.6227C79.0282 50.6229 79.1786 50.6016 79.3275 50.5574Z" fill="currentColor"/>
</svg>
